<?xml version="1.0" ?><!DOCTYPE svg  PUBLIC '-//W3C//DTD SVG 1.1//EN'  'http://www.w3.org/Graphics/SVG/1.1/DTD/svg11.dtd'><svg enable-background="new 0 0 48 48" id="Layer_1" version="1.1" viewBox="0 0 48 48" xml:space="preserve" xmlns="http://www.w3.org/2000/svg" xmlns:xlink="http://www.w3.org/1999/xlink"><circle cx="24" cy="24" fill="#E3411F" r="24"/><g><path d="M24.8,25.8c-0.7-0.5-2-1.7-2-2.3c0-0.8,0.2-1.2,1.4-2.2c1.2-1,2.1-2.3,2.1-3.9c0-1.9-0.8-3.7-2.4-4.4h2.4   l1.7-1.2h-7.5c-3.4,0-6.6,2.6-6.6,5.5c0,3,2.3,5.5,5.7,5.5c0.2,0,0.5,0,0.7,0c-0.2,0.4-0.4,0.9-0.4,1.4c0,0.8,0.5,1.5,1,2.1   c-0.4,0-0.9,0-1.3,0c-4.2,0-7.4,2.7-7.4,5.4c0,2.7,3.5,4.4,7.7,4.4c4.8,0,7.4-2.7,7.4-5.4C27.4,28.6,26.8,27.2,24.8,25.8z    M20.7,22.1c-1.9-0.1-3.8-2.2-4.1-4.7c-0.3-2.6,1-4.5,2.9-4.4c1.9,0.1,3.8,2.1,4.1,4.7C24,20.1,22.7,22.1,20.7,22.1z M20,35   c-2.9,0-5-1.8-5-4c0-2.2,2.6-4,5.5-3.9c0.7,0,1.3,0.1,1.9,0.3c1.6,1.1,2.7,1.7,3,3c0.1,0.3,0.1,0.5,0.1,0.8C25.5,33.2,24,35,20,35z   " fill="#FFFFFF"/><polygon fill="#FFFFFF" points="32.8,22.3 32.8,19.4 30.4,19.4 30.4,22.3 27.5,22.3 27.5,24.6 30.4,24.6 30.4,27.6 32.8,27.6    32.8,24.6 35.7,24.6 35.7,22.3  "/></g></svg>