<?xml version="1.0" encoding="UTF-8" ?>
<!DOCTYPE svg PUBLIC "-//W3C//DTD SVG 1.1//EN" "http://www.w3.org/Graphics/SVG/1.1/DTD/svg11.dtd">
<svg width="1013pt" height="987pt" viewBox="0 0 1013 987" version="1.1" xmlns="http://www.w3.org/2000/svg">
<path fill="#ffffff" d=" M 0.00 0.00 L 1013.00 0.00 L 1013.00 987.00 L 0.00 987.00 L 0.00 0.00 Z" />
<path fill="#000000" d=" M 399.05 258.13 C 437.72 241.77 480.28 235.08 522.13 237.95 C 563.10 241.03 603.38 253.43 638.77 274.36 C 670.49 293.05 698.35 318.27 720.08 348.00 C 745.45 382.62 762.38 423.41 768.78 465.87 C 773.69 499.53 772.69 534.21 764.64 567.31 C 769.88 577.56 772.50 589.36 770.73 600.82 C 768.71 618.07 757.65 633.85 742.25 641.84 C 738.74 644.25 733.54 644.29 731.15 648.12 C 703.10 693.06 661.64 729.60 613.29 751.33 C 603.20 756.04 592.69 759.77 582.14 763.29 C 581.59 763.41 580.50 763.65 579.95 763.77 C 529.13 779.37 473.66 778.82 422.91 763.15 C 384.92 751.12 349.53 730.82 320.31 703.69 C 292.33 677.90 269.87 646.15 254.98 611.12 C 248.34 595.75 243.53 579.67 239.61 563.43 C 232.61 559.15 224.17 557.93 216.11 558.86 C 199.46 560.58 183.71 566.60 167.60 570.72 C 179.08 562.26 191.60 555.22 204.58 549.35 C 183.96 549.62 163.74 554.47 143.74 559.11 C 138.38 560.44 133.02 561.81 127.72 563.34 C 148.31 541.31 175.40 526.40 203.33 515.74 C 193.78 514.52 184.10 513.39 174.98 510.12 C 166.43 507.26 158.46 502.83 151.30 497.37 C 158.20 497.16 165.13 497.60 172.01 496.80 C 193.25 496.95 215.55 495.80 234.49 485.13 C 237.97 439.08 253.81 394.03 279.81 355.88 C 309.01 312.71 350.93 278.21 399.05 258.13 Z" />
<path fill="#f9fcfa" d=" M 473.02 247.56 C 507.09 244.06 541.92 246.37 574.84 256.12 C 644.47 275.96 704.59 326.40 736.35 391.44 C 752.05 422.96 761.19 457.77 762.80 492.95 C 762.57 500.31 763.90 507.65 762.93 514.99 C 762.71 529.48 760.76 543.87 758.09 558.10 C 756.16 556.29 754.19 554.53 752.15 552.86 C 755.08 534.08 757.21 515.01 755.99 495.99 C 755.73 491.02 755.57 486.05 755.08 481.10 C 751.10 441.62 737.77 403.09 716.19 369.77 C 694.48 335.94 664.63 307.37 629.89 287.16 C 593.89 266.20 552.65 254.07 510.97 253.08 C 505.96 252.34 500.88 252.88 495.84 252.71 L 495.17 253.20 C 451.42 253.82 408.12 267.25 370.82 289.94 C 334.26 312.32 303.45 344.04 282.27 381.32 C 265.93 409.79 255.37 441.52 251.16 474.06 C 249.19 476.46 246.27 477.80 243.67 479.39 C 248.42 430.90 267.71 384.07 297.81 345.81 C 329.23 305.72 372.60 275.06 420.98 259.08 C 437.88 253.49 455.35 249.65 473.02 247.56 Z" />
<path fill="#fcfdfc" d=" M 484.50 268.52 C 489.67 265.91 496.87 265.52 501.17 269.95 C 504.11 272.60 504.58 276.77 505.56 280.39 C 502.75 280.63 499.93 280.79 497.12 280.76 C 496.16 278.98 496.12 276.15 493.90 275.41 C 492.11 274.95 490.27 275.46 488.49 275.66 C 488.35 277.16 488.27 278.66 488.23 280.17 C 493.31 282.04 499.01 283.10 502.99 287.07 C 507.44 291.27 507.09 298.45 504.43 303.53 C 500.46 310.99 489.33 312.02 483.13 306.88 C 479.82 303.75 479.19 299.07 478.51 294.81 C 481.53 294.81 484.55 294.81 487.57 294.78 C 488.23 296.61 488.49 298.67 489.74 300.25 C 490.97 302.10 493.35 301.38 495.22 301.48 C 496.54 299.16 497.28 296.42 496.41 293.81 C 493.50 291.07 489.17 291.11 485.74 289.32 C 477.82 285.86 476.98 272.85 484.50 268.52 Z" />
<path fill="#fbfdfa" d=" M 524.16 268.95 C 529.11 267.95 535.29 268.10 538.94 272.16 C 541.95 275.22 542.33 279.78 542.29 283.84 C 539.68 283.77 537.08 283.55 534.50 283.23 C 533.65 281.37 533.14 279.39 532.37 277.50 C 530.66 277.25 528.62 275.85 527.06 277.13 C 525.04 278.06 524.78 281.21 526.94 282.13 C 531.18 284.38 536.00 286.12 538.96 290.13 C 542.72 294.79 541.61 301.77 538.43 306.43 C 533.32 313.66 520.88 313.28 516.01 306.03 C 513.75 302.68 513.91 298.44 513.77 294.59 C 516.74 294.95 519.71 295.36 522.70 295.52 C 523.23 297.81 523.00 300.53 524.78 302.31 C 525.80 302.91 526.98 303.16 528.11 303.49 C 528.69 303.17 529.83 302.54 530.40 302.22 C 531.63 300.04 531.89 297.56 531.44 295.12 C 527.43 292.58 522.51 291.34 519.17 287.86 C 514.47 282.00 516.52 271.27 524.16 268.95 Z" />
<path fill="#fbfdfa" d=" M 443.97 275.16 C 447.65 272.25 452.72 271.54 457.20 272.70 C 462.44 274.56 465.95 279.68 466.68 285.09 C 463.74 285.84 460.79 286.57 457.80 287.01 C 457.34 285.56 456.89 284.11 456.44 282.67 C 454.86 282.31 453.29 281.96 451.71 281.61 C 450.14 282.70 448.13 283.58 447.71 285.66 C 448.63 291.21 449.81 296.72 451.11 302.18 C 451.82 305.88 457.03 307.07 459.51 304.39 C 461.19 302.93 460.56 300.45 460.90 298.51 C 463.61 297.66 466.36 296.81 469.19 296.43 C 471.10 299.05 470.94 302.65 470.17 305.66 C 468.21 310.93 462.74 313.80 457.59 315.12 C 450.79 316.07 443.11 311.45 442.05 304.38 C 440.85 298.20 439.58 292.03 438.53 285.83 C 437.67 281.47 440.69 277.62 443.97 275.16 Z" />
<path fill="#fbfdfa" d=" M 583.96 296.21 C 586.18 291.56 590.41 286.96 595.99 287.20 C 603.73 287.25 612.49 293.62 611.19 302.12 C 610.07 307.97 606.68 313.03 604.57 318.54 C 602.17 323.54 600.42 328.88 597.54 333.64 C 594.81 332.93 592.34 331.53 589.78 330.40 C 590.42 326.58 592.53 323.28 593.97 319.75 C 596.33 314.16 599.02 308.71 601.25 303.07 C 602.17 301.19 600.98 299.38 600.38 297.63 C 598.00 297.28 594.70 296.47 593.42 299.21 C 589.37 308.10 585.54 317.09 581.48 325.97 C 578.17 325.64 575.21 324.02 572.39 322.39 C 576.18 313.64 580.15 304.96 583.96 296.21 Z" />
<path fill="#fafdfa" d=" M 371.38 305.83 C 373.98 304.27 376.55 302.63 379.28 301.30 C 385.39 310.96 390.66 321.14 396.68 330.86 C 401.20 328.31 405.59 325.55 410.20 323.20 C 411.74 325.74 413.20 328.32 414.55 330.96 C 407.29 334.87 400.27 339.21 393.06 343.23 C 385.81 330.77 378.75 318.21 371.38 305.83 Z" />
<path fill="#fbfdfa" d=" M 622.97 308.92 C 629.46 304.60 639.40 307.11 643.04 314.00 C 644.13 315.82 644.65 317.90 645.35 319.90 C 645.15 322.71 644.77 325.67 643.01 327.99 C 639.22 333.23 635.70 338.67 631.73 343.77 C 628.82 347.41 623.68 348.18 619.35 347.19 C 611.27 345.66 605.30 336.34 608.58 328.51 C 610.66 324.75 613.44 321.42 615.77 317.81 C 618.05 314.76 619.86 311.23 622.97 308.92 Z" />
<path fill="#010101" d=" M 625.16 319.02 C 626.24 317.25 628.12 316.33 629.96 315.52 C 631.48 316.19 633.00 316.88 634.50 317.62 C 635.31 319.88 636.34 322.56 634.74 324.75 C 632.37 328.39 629.86 331.94 627.30 335.44 C 624.93 338.33 620.62 338.48 617.78 336.21 C 617.38 335.09 616.98 333.99 616.58 332.88 C 618.47 327.72 622.16 323.54 625.16 319.02 Z" />
<path fill="#fbfdfb" d=" M 347.12 324.14 C 352.08 318.97 361.53 317.85 366.71 323.30 C 373.58 330.75 380.66 338.03 387.35 345.67 C 385.17 347.68 383.06 349.77 380.88 351.77 C 373.73 344.97 367.59 337.19 360.48 330.36 C 358.99 328.77 356.68 329.44 354.77 329.38 C 353.54 331.27 352.18 333.94 353.94 335.97 C 360.27 343.14 366.91 350.05 373.52 356.97 C 373.49 357.58 373.47 358.20 373.45 358.82 C 371.20 360.62 369.17 362.67 367.04 364.61 C 361.08 358.01 354.82 351.68 348.93 345.02 C 347.28 343.34 345.48 340.99 342.80 341.75 C 340.05 342.52 338.36 346.25 340.68 348.42 C 347.25 355.78 354.07 362.92 360.86 370.09 C 358.85 372.53 356.43 374.57 354.02 376.61 C 347.21 369.54 340.63 362.24 333.86 355.14 C 329.92 351.38 329.23 345.22 331.38 340.35 C 333.12 335.25 338.37 332.32 343.57 332.08 C 344.32 329.27 345.03 326.30 347.12 324.14 Z" />
<path fill="#ffffff" d=" M 426.77 338.63 C 462.15 322.39 502.77 318.06 540.82 326.18 C 577.57 333.86 611.66 353.32 637.26 380.73 C 651.25 395.80 662.77 413.13 671.20 431.89 C 676.90 445.27 681.54 459.20 683.86 473.60 C 664.73 469.85 645.84 464.76 627.47 458.21 C 618.75 455.06 610.11 451.58 601.96 447.14 C 600.67 446.47 599.52 445.59 598.63 444.46 C 594.94 440.08 591.25 435.72 587.55 431.36 C 586.62 429.65 584.62 430.30 583.07 430.22 C 582.73 428.44 582.47 426.65 582.24 424.87 C 578.61 421.17 578.69 415.91 578.52 411.08 C 577.02 396.43 577.74 381.37 573.42 367.12 C 567.75 354.50 556.13 344.29 542.30 341.89 C 532.53 340.36 522.42 341.12 512.92 343.84 C 495.26 348.79 479.12 357.90 463.81 367.81 C 449.98 376.90 436.84 387.01 424.12 397.58 C 408.39 398.45 393.85 405.12 380.03 412.17 C 370.97 416.58 361.93 421.46 351.98 423.54 C 347.03 424.17 342.05 424.55 337.18 425.73 C 355.79 387.50 388.02 356.14 426.77 338.63 Z" />
<path fill="#fbfdfb" d=" M 654.95 330.00 C 656.64 328.30 658.11 325.85 660.84 326.02 C 665.25 331.39 672.33 334.92 674.20 342.05 C 674.84 345.94 673.99 350.29 671.20 353.20 C 667.12 357.79 662.94 362.30 658.61 366.66 C 655.15 370.30 649.49 370.60 644.97 369.15 C 639.28 366.08 634.92 361.13 630.22 356.78 C 638.23 347.64 646.85 339.06 654.95 330.00 Z" />
<path fill="#010001" d=" M 660.15 338.83 C 662.71 340.37 664.81 342.67 664.96 345.82 C 660.42 350.73 655.89 355.66 651.26 360.49 C 649.83 360.46 648.39 360.44 646.97 360.41 C 645.76 359.23 644.54 358.05 643.33 356.89 C 649.02 350.95 654.64 344.94 660.15 338.83 Z" />
<path fill="#ffffff" d=" M 488.12 371.99 C 502.05 363.98 516.87 356.41 533.05 354.56 C 543.31 353.18 554.87 356.21 561.28 364.81 C 566.51 370.53 567.09 378.62 567.80 385.96 C 568.72 393.33 568.31 400.80 569.45 408.16 C 566.58 408.71 563.74 409.53 560.82 409.76 C 559.32 409.05 557.83 408.36 556.51 407.37 C 556.00 405.37 555.69 403.33 555.38 401.29 C 543.59 403.48 531.16 405.92 521.51 413.52 C 516.66 417.22 513.79 422.94 512.79 428.88 C 512.78 430.67 512.74 432.47 512.87 434.28 C 514.50 435.64 516.84 435.28 518.81 435.77 C 516.06 440.82 513.60 446.11 512.85 451.87 C 512.85 452.87 512.85 454.87 512.85 455.87 C 517.46 455.15 521.38 452.51 525.69 450.92 C 525.50 451.95 525.13 454.01 524.95 455.04 C 524.86 456.44 524.78 457.84 524.71 459.24 C 525.61 461.46 526.70 463.59 527.96 465.62 C 534.17 464.27 539.54 460.68 545.47 458.56 C 545.30 459.42 544.96 461.14 544.79 462.00 C 545.03 462.68 545.50 464.03 545.73 464.70 C 552.11 463.14 558.17 460.40 563.54 456.62 C 570.55 452.12 577.36 446.21 585.89 445.10 C 590.65 448.10 592.87 454.30 597.90 457.19 C 606.08 462.13 614.96 465.77 623.86 469.19 C 642.14 475.98 660.95 481.34 680.03 485.35 C 689.95 487.52 700.06 489.00 709.68 492.34 C 715.06 494.29 720.48 497.58 722.86 503.03 C 727.34 513.74 727.28 526.41 722.00 536.82 C 717.27 545.54 708.83 552.66 698.95 554.56 C 659.39 563.71 619.19 569.86 578.97 575.21 C 567.02 576.53 555.10 577.97 543.12 578.98 C 515.50 581.45 487.77 582.84 460.02 582.50 C 450.93 582.63 441.76 582.42 432.88 580.31 C 429.40 578.99 425.83 577.51 423.32 574.65 C 419.88 571.31 418.92 566.45 418.04 561.94 C 416.57 553.66 414.60 545.42 414.32 536.98 C 414.01 529.64 416.50 522.63 417.89 515.51 C 422.20 494.03 425.58 472.34 431.07 451.10 C 431.80 448.50 431.39 445.75 432.11 443.15 C 435.00 431.07 438.41 419.13 441.53 407.11 C 441.90 406.08 442.04 404.84 442.91 404.11 C 457.30 392.49 472.18 381.40 488.12 371.99 Z" />
<path fill="#fbfdfb" d=" M 653.94 380.44 C 665.61 372.00 677.24 363.51 688.93 355.10 C 693.10 361.11 697.51 366.95 701.75 372.91 C 699.34 374.61 697.07 376.53 694.46 377.91 C 691.60 374.67 689.21 371.04 686.71 367.52 C 684.85 368.82 682.97 370.09 681.09 371.35 C 681.20 374.27 683.61 376.26 684.99 378.66 C 682.78 380.31 680.54 381.94 678.24 383.47 C 676.71 381.34 675.24 379.17 673.52 377.20 C 671.53 378.36 669.67 379.71 667.79 381.02 C 667.46 381.43 666.80 382.25 666.47 382.66 C 669.01 386.09 671.55 389.52 673.94 393.07 C 671.57 394.87 669.14 396.58 666.63 398.18 C 662.48 392.21 657.79 386.61 653.94 380.44 Z" />
<path fill="#fcfdfa" d=" M 312.91 359.86 C 313.85 358.59 314.62 357.13 315.93 356.20 C 318.54 357.36 320.62 359.42 322.93 361.08 C 321.11 363.61 319.24 366.09 317.56 368.73 C 326.79 375.34 335.90 382.11 345.15 388.68 C 343.78 391.28 341.97 393.60 340.20 395.93 C 330.79 389.27 321.57 382.35 312.15 375.71 C 310.55 378.08 309.03 380.52 307.19 382.71 C 304.26 382.56 302.22 379.68 299.77 378.29 C 303.76 371.88 308.65 366.09 312.91 359.86 Z" />
<path fill="#fcfefb" d=" M 289.47 397.36 C 291.04 394.31 292.62 391.26 294.53 388.41 C 306.88 395.13 319.55 401.35 331.70 408.42 C 331.85 411.80 328.99 414.82 327.40 417.73 C 322.29 415.29 317.61 411.93 312.27 410.03 C 311.48 411.77 310.67 413.52 309.88 415.28 C 314.70 418.16 320.04 420.16 324.61 423.48 C 323.14 426.46 321.53 429.37 319.97 432.30 C 307.30 425.93 294.88 419.05 282.34 412.46 C 281.87 410.56 283.51 408.81 284.18 407.10 C 285.07 405.85 285.43 403.87 287.00 403.32 C 292.08 405.59 296.78 408.65 301.86 410.95 C 302.80 409.20 303.76 407.46 304.78 405.75 C 299.70 402.91 294.50 400.28 289.47 397.36 Z" />
<path fill="#f6fcf8" d=" M 671.09 402.12 C 672.22 399.04 676.04 398.85 678.47 400.46 C 679.53 402.64 679.62 404.95 678.41 407.09 C 677.19 407.57 675.98 408.05 674.77 408.55 C 672.54 407.30 669.25 405.05 671.09 402.12 Z" />
<path fill="#f8fbf9" d=" M 523.58 422.23 C 532.76 414.33 544.32 410.33 555.69 406.77 L 556.51 407.37 C 557.83 408.36 559.32 409.05 560.82 409.76 C 548.19 414.75 536.02 420.83 523.56 426.21 C 523.54 424.87 523.55 423.56 523.58 422.23 Z" />
<path fill="#fcfdfb" d=" M 681.69 415.78 C 683.36 411.84 687.15 409.44 690.92 407.79 C 692.21 410.76 693.57 413.70 694.84 416.69 C 692.25 418.08 689.83 420.13 690.39 423.37 C 691.89 423.75 693.46 425.07 695.05 424.26 C 704.52 420.45 713.57 415.68 722.93 411.62 C 724.28 414.76 725.81 417.81 727.07 420.99 C 720.26 424.28 713.33 427.33 706.52 430.62 C 701.82 432.51 696.94 435.32 691.70 434.33 C 683.66 432.99 678.17 423.24 681.69 415.78 Z" />
<path fill="#ffffff" d=" M 360.08 436.61 C 384.00 431.79 403.31 413.74 427.88 411.21 C 425.04 422.82 421.60 434.28 418.81 445.91 C 417.97 449.55 418.11 453.36 416.98 456.94 C 410.59 481.75 407.38 507.24 401.43 532.15 C 399.82 539.63 400.72 547.36 402.14 554.80 C 402.85 559.77 403.90 564.73 405.84 569.39 C 397.65 569.74 389.61 572.53 382.64 576.78 C 374.69 581.46 368.72 589.68 359.13 591.22 C 347.12 592.09 336.80 584.37 325.05 583.48 C 320.79 583.46 316.82 585.59 312.53 585.42 C 313.31 584.84 314.09 584.28 314.88 583.72 C 320.89 580.57 326.87 576.93 333.72 575.95 C 342.08 575.00 350.49 574.41 358.79 573.03 C 363.33 572.21 367.51 570.07 370.97 567.04 C 375.53 563.20 383.02 562.37 385.10 556.05 C 385.54 551.55 384.60 544.29 378.97 543.69 C 374.17 544.38 370.22 547.59 366.52 550.50 C 360.36 555.35 354.80 561.00 348.15 565.21 C 345.16 567.27 341.38 566.67 337.96 566.72 C 332.90 566.64 328.09 564.73 323.07 564.35 C 315.48 565.15 308.23 567.74 301.04 570.18 C 295.53 571.88 289.90 573.74 284.06 573.45 C 276.13 573.22 268.57 570.33 261.56 566.80 C 266.38 566.64 271.25 567.07 276.04 566.28 C 292.25 563.95 306.92 556.09 322.71 552.20 C 327.75 550.72 333.18 552.24 338.14 550.31 C 345.59 547.73 352.61 541.50 353.63 533.34 C 354.14 530.18 352.89 527.24 351.42 524.55 C 346.94 520.48 340.71 522.94 336.11 525.44 C 322.83 532.96 311.92 543.96 298.74 551.63 C 295.17 553.66 291.09 554.86 286.96 554.69 C 278.13 554.45 269.67 551.64 260.99 550.29 C 252.98 548.80 244.81 549.09 236.71 549.41 C 251.96 542.03 269.35 542.80 285.68 539.81 C 291.66 538.66 298.18 537.87 303.07 533.94 C 305.01 532.54 305.08 529.96 305.41 527.82 C 303.36 522.07 298.61 516.59 292.09 516.46 C 281.98 516.77 273.58 523.17 265.45 528.46 C 259.83 532.09 254.15 537.33 246.94 536.48 C 239.55 535.48 232.33 533.04 224.80 533.14 L 224.15 532.71 C 216.90 532.58 209.66 533.35 202.54 534.68 C 208.54 530.93 214.60 527.02 221.48 525.10 C 229.61 522.73 238.22 523.68 246.48 522.18 C 260.25 518.28 269.13 505.99 281.44 499.44 C 285.12 497.65 289.30 496.16 293.43 497.07 C 303.82 498.75 309.99 508.89 319.94 511.62 C 328.82 513.80 338.11 510.43 345.29 505.22 C 349.19 502.51 352.38 498.62 353.44 493.91 C 351.65 488.93 345.43 487.96 340.82 488.39 C 333.09 489.08 328.55 496.16 322.03 499.43 C 312.31 498.36 305.21 490.96 296.29 487.82 C 290.55 486.37 283.89 487.07 279.24 491.01 C 271.83 496.97 264.06 502.95 254.77 505.64 C 243.98 509.14 232.33 507.40 221.79 503.86 C 232.81 502.74 243.99 500.39 253.54 494.52 C 265.25 487.54 273.96 475.14 288.00 472.48 C 295.81 470.45 303.53 473.95 310.24 477.65 C 314.48 479.77 319.09 482.28 323.99 481.35 C 331.38 479.67 336.74 473.96 342.97 470.08 C 345.92 468.17 349.91 468.00 352.15 465.03 C 354.03 463.47 353.40 460.90 353.56 458.77 C 351.64 456.64 349.03 454.96 346.04 455.54 C 336.32 456.38 330.57 465.85 321.52 468.43 C 318.08 469.17 314.81 467.59 311.60 466.59 C 306.27 464.74 300.69 463.37 295.00 463.63 C 289.79 463.37 284.84 465.17 279.78 466.06 C 282.16 463.95 284.51 461.69 287.50 460.46 C 294.60 457.24 302.64 458.62 310.09 456.97 C 316.88 455.30 322.08 450.38 327.89 446.81 C 333.96 442.68 340.81 439.66 348.04 438.27 C 351.99 437.31 356.11 437.53 360.08 436.61 Z" />
<path fill="#eefaf9" d=" M 530.20 436.25 C 538.61 430.27 546.70 423.46 556.35 419.53 C 554.17 422.00 551.71 424.19 549.11 426.18 C 539.19 433.86 529.13 441.35 518.83 448.51 C 520.89 443.14 526.05 439.91 530.20 436.25 Z" />
<path fill="#fdfdfc" d=" M 564.96 429.12 C 567.82 428.12 570.91 427.84 573.88 428.54 C 574.11 433.95 568.92 437.11 565.47 440.44 C 554.69 449.04 542.14 455.06 529.43 460.22 C 530.18 454.93 531.98 449.89 533.87 444.93 C 543.87 439.01 553.87 432.81 564.96 429.12 Z" />
<path fill="#fbfefb" d=" M 712.71 442.82 C 714.90 438.76 719.69 437.17 724.00 436.69 C 732.34 436.81 737.06 446.65 735.14 453.92 C 733.84 458.89 729.01 461.41 724.61 463.16 C 723.85 460.45 723.16 457.72 722.46 455.00 C 723.97 453.73 726.81 453.18 726.80 450.79 C 726.85 449.35 726.55 447.94 726.40 446.52 C 724.99 446.09 723.57 445.70 722.15 445.39 C 721.81 445.98 721.14 447.14 720.80 447.73 C 720.59 453.63 720.21 460.40 715.48 464.62 C 712.02 468.14 706.63 468.05 702.10 467.38 C 694.22 465.28 690.59 455.47 693.44 448.27 C 695.47 443.88 700.13 441.81 704.42 440.24 C 705.31 443.15 706.05 446.10 706.75 449.06 C 704.50 450.46 700.56 451.53 701.19 454.95 C 700.82 456.75 702.61 457.59 703.64 458.71 C 705.91 458.47 708.86 458.82 710.23 456.52 C 711.41 452.03 710.69 447.10 712.71 442.82 Z" />
<path fill="#010102" d=" M 463.72 486.89 C 466.40 478.07 475.07 472.91 483.82 471.83 C 490.80 471.41 498.38 472.50 503.90 477.14 C 507.69 480.05 509.14 484.81 510.45 489.20 C 512.59 489.20 514.74 489.25 516.89 489.40 C 517.25 483.75 522.09 479.48 527.11 477.64 C 530.22 476.37 533.18 478.14 535.90 479.47 C 538.21 478.35 540.26 476.22 543.05 476.61 C 545.44 476.34 547.84 478.64 550.11 477.29 C 553.48 475.42 557.84 474.84 561.21 477.03 C 564.74 478.68 565.94 482.69 566.86 486.16 C 573.94 483.69 582.43 483.17 588.68 488.01 C 590.51 487.20 592.32 486.34 594.13 485.47 C 595.44 479.42 602.09 475.45 608.03 477.01 C 614.60 478.42 618.85 486.71 614.58 492.46 C 615.60 495.96 615.88 499.70 614.54 503.17 C 617.18 505.79 620.05 508.96 619.43 513.00 C 619.92 518.47 615.87 522.82 611.69 525.70 C 614.37 529.78 612.72 534.67 614.27 539.04 C 615.28 543.24 614.50 548.09 611.12 551.06 C 606.48 556.02 599.12 555.29 592.99 556.41 C 591.87 555.69 590.75 554.97 589.63 554.28 C 583.39 557.22 575.68 557.76 569.94 553.39 C 567.68 555.53 564.96 557.07 561.98 557.95 C 558.93 562.14 554.91 566.33 549.59 567.26 C 544.45 567.44 540.87 562.81 539.95 558.15 C 534.79 559.77 529.47 559.04 524.45 557.31 C 520.06 560.83 513.96 561.25 508.75 559.50 C 506.52 563.85 503.38 567.84 498.90 570.03 C 489.34 574.81 476.20 573.21 469.34 564.54 C 463.61 557.47 464.55 546.41 471.30 540.32 C 470.30 538.13 469.53 535.85 469.11 533.49 C 467.76 533.09 466.42 532.68 465.09 532.29 C 463.81 532.96 462.53 533.63 461.26 534.31 C 454.49 534.33 447.64 533.64 441.01 535.40 C 439.14 534.06 436.91 533.04 435.68 531.02 C 434.52 528.95 434.76 526.52 434.70 524.25 C 426.04 521.71 423.23 509.61 429.24 503.19 C 432.96 499.18 438.73 498.52 443.90 498.76 C 447.17 497.17 451.04 495.04 454.54 497.47 C 458.93 499.39 458.31 504.84 460.56 508.32 C 463.90 510.55 467.64 507.41 471.24 507.40 C 463.99 503.61 461.97 494.34 463.72 486.89 Z" />
<path fill="#f9fcfa" d=" M 480.10 479.38 C 485.96 477.64 492.69 477.77 498.04 480.95 C 503.69 484.09 505.52 492.42 501.65 497.62 C 500.04 499.76 497.36 500.59 495.01 501.60 C 497.88 509.17 502.31 517.75 510.65 520.19 C 515.47 521.50 519.25 516.74 523.93 517.19 C 526.54 517.26 526.34 520.52 526.56 522.38 C 522.23 529.04 512.83 530.20 506.07 526.87 C 499.29 523.40 494.92 516.59 492.18 509.70 C 491.09 506.95 490.21 504.14 489.28 501.34 C 488.85 501.40 487.97 501.51 487.54 501.57 C 487.64 503.23 487.75 504.90 487.87 506.57 C 488.93 507.05 489.99 507.53 491.06 508.02 C 490.79 509.25 490.50 510.49 490.19 511.72 C 488.25 515.11 485.31 517.84 481.89 519.70 C 480.91 518.77 479.68 518.06 479.04 516.85 C 479.85 514.57 481.65 512.65 481.73 510.13 C 481.87 505.79 481.26 501.46 481.34 497.12 C 481.45 494.54 479.61 492.54 478.25 490.57 C 480.37 487.71 483.98 488.21 487.11 488.28 C 487.42 488.82 487.74 489.36 488.07 489.91 C 487.64 492.20 487.45 494.52 487.37 496.85 C 490.22 496.84 493.70 497.21 495.56 494.52 C 498.48 491.26 495.77 486.20 492.00 485.07 C 486.20 483.10 477.83 484.54 475.51 490.96 C 476.48 494.59 480.06 497.20 479.82 501.15 C 478.28 501.73 476.65 503.08 474.96 502.16 C 470.23 499.72 468.62 493.56 470.15 488.73 C 471.34 484.02 475.59 480.68 480.10 479.38 Z" />
<path fill="#f4faf9" d=" M 553.78 482.57 C 555.32 482.01 556.98 482.38 558.58 482.42 C 559.93 484.84 560.82 488.55 558.29 490.51 C 556.29 491.28 553.34 491.16 552.43 488.87 C 550.97 486.79 552.29 484.21 553.78 482.57 Z" />
<path fill="#f8fcf9" d=" M 523.49 488.76 C 524.78 486.01 527.66 484.55 530.31 483.38 C 533.91 491.59 531.84 500.88 533.47 509.49 C 534.36 510.54 535.39 511.48 536.38 512.46 C 536.41 513.00 536.46 514.09 536.49 514.63 C 533.00 516.28 529.05 515.85 525.32 515.59 C 525.29 514.98 525.24 513.75 525.21 513.14 C 525.92 512.05 526.64 510.96 527.19 509.78 C 527.05 503.86 526.24 497.97 526.35 492.04 C 525.39 490.97 522.90 490.68 523.49 488.76 Z" />
<path fill="#f8fcf9" d=" M 537.22 487.00 C 539.29 485.22 541.40 483.32 544.16 482.75 C 546.30 487.52 545.91 492.88 546.42 497.98 C 546.80 502.48 545.48 507.85 549.13 511.33 C 550.34 511.33 551.55 511.33 552.77 511.33 C 553.25 510.76 554.20 509.63 554.67 509.07 C 554.70 506.05 554.70 503.03 554.56 500.02 C 553.67 499.80 551.89 499.37 551.00 499.15 C 551.84 495.54 555.06 493.42 558.26 492.10 C 560.44 497.18 559.41 502.85 560.46 508.17 C 561.53 509.28 562.61 510.39 563.70 511.50 C 563.66 511.99 563.59 512.95 563.56 513.43 C 560.33 514.03 557.05 514.30 553.77 514.34 C 552.75 513.57 551.73 512.83 550.72 512.07 C 548.27 516.59 542.31 515.21 538.22 514.32 C 539.09 511.91 541.10 509.78 540.77 507.06 C 540.57 502.73 540.27 498.40 540.06 494.07 C 539.91 493.03 539.78 492.00 539.67 490.97 C 537.55 490.60 537.29 488.78 537.22 487.00 Z" />
<path fill="#f6faf7" d=" M 601.30 485.41 C 603.36 481.49 610.75 483.33 609.67 488.08 C 608.31 490.42 605.55 489.28 603.40 489.41 C 605.72 492.55 610.18 495.43 608.67 499.94 C 606.88 504.14 601.64 504.48 597.82 505.74 C 597.62 506.17 597.22 507.03 597.02 507.47 C 601.15 509.59 605.72 506.27 609.87 508.29 C 611.89 508.99 612.64 511.16 613.48 512.93 C 612.06 519.85 604.29 522.54 598.01 522.06 C 595.34 521.59 591.81 521.21 590.42 518.56 C 589.17 516.14 591.46 513.17 594.05 513.64 C 596.31 515.22 598.26 517.24 600.76 518.48 C 603.05 517.61 607.19 517.23 606.44 513.81 C 605.20 512.09 602.89 512.31 601.05 512.46 C 598.28 512.68 595.50 512.68 592.72 512.62 C 592.00 511.90 591.29 511.18 590.58 510.47 C 590.57 509.55 590.57 508.64 590.57 507.74 C 591.67 506.73 592.78 505.72 593.91 504.74 C 592.64 503.29 590.70 502.17 590.36 500.14 C 589.63 497.88 590.92 495.78 591.77 493.79 C 594.82 492.13 598.16 491.20 601.59 490.73 C 601.10 489.02 599.69 486.93 601.30 485.41 Z" />
<path fill="#f8fbf9" d=" M 574.57 493.68 C 576.99 492.16 580.19 490.12 582.98 492.00 C 586.00 494.05 585.58 498.04 585.88 501.21 C 585.75 503.91 588.66 505.23 588.85 507.85 C 586.34 510.52 583.84 515.03 579.48 513.42 C 580.27 508.18 581.69 502.47 579.21 497.47 C 577.68 497.86 576.18 498.27 574.66 498.66 C 574.26 500.77 573.51 502.88 573.81 505.06 C 574.07 507.97 576.78 509.63 578.11 512.04 C 574.63 513.74 570.75 513.75 566.98 513.54 C 566.59 513.06 565.80 512.09 565.41 511.61 C 566.37 510.61 567.34 509.63 568.36 508.69 C 568.63 507.87 568.92 507.07 569.20 506.26 C 568.76 504.10 568.56 501.91 568.44 499.72 C 567.69 499.58 566.21 499.30 565.46 499.16 C 565.48 497.62 565.86 496.15 566.42 494.74 C 568.13 493.59 569.83 492.42 571.58 491.31 C 572.66 492.53 573.40 493.96 574.12 495.43 C 574.23 494.99 574.46 494.12 574.57 493.68 Z" />
<path fill="#030207" d=" M 595.78 497.80 C 596.54 494.96 599.84 495.15 602.14 495.52 C 602.88 496.65 603.48 497.85 603.92 499.15 C 602.31 500.12 600.59 500.86 598.86 501.57 C 597.65 500.58 594.81 499.98 595.78 497.80 Z" />
<path fill="#f8fbf6" d=" M 508.41 496.52 C 512.80 494.36 518.80 495.83 521.10 500.31 C 523.17 504.82 523.28 510.84 519.53 514.51 C 516.78 517.55 512.08 517.21 508.46 516.33 C 500.84 512.99 500.74 499.88 508.41 496.52 Z" />
<path fill="#152028" d=" M 487.54 501.57 C 487.97 501.51 488.85 501.40 489.28 501.34 C 490.21 504.14 491.09 506.95 492.18 509.70 C 491.51 510.37 490.84 511.04 490.19 511.72 C 490.50 510.49 490.79 509.25 491.06 508.02 C 489.99 507.53 488.93 507.05 487.87 506.57 C 487.75 504.90 487.64 503.23 487.54 501.57 Z" />
<path fill="#020103" d=" M 509.64 501.72 C 511.78 499.32 516.24 500.87 516.62 504.01 C 516.94 506.60 517.44 510.17 514.62 511.63 C 512.65 511.90 510.00 512.14 509.08 509.91 C 507.87 507.44 507.63 503.81 509.64 501.72 Z" />
<path fill="#f2faf9" d=" M 446.99 505.47 C 448.43 503.86 450.21 502.83 452.42 503.27 C 452.41 505.09 452.69 507.25 450.92 508.39 C 449.35 508.77 447.74 508.80 446.15 508.94 C 446.38 512.76 446.33 516.59 446.66 520.40 C 447.34 521.25 448.03 522.11 448.72 522.98 C 446.83 525.54 444.89 528.91 441.18 528.62 C 441.84 524.56 444.07 519.99 441.32 516.22 C 439.70 518.75 435.44 518.38 433.84 516.03 C 431.55 513.42 432.03 508.82 434.97 506.87 C 438.45 504.35 443.02 505.90 446.99 505.47 Z" />
<path fill="#030408" d=" M 436.08 513.35 C 436.50 511.73 436.23 509.56 438.14 508.87 C 439.43 508.60 440.74 508.47 442.07 508.47 C 442.16 510.42 442.29 512.38 442.47 514.35 C 440.46 513.37 438.23 513.50 436.08 513.35 Z" />
<path fill="#f2f9f8" d=" M 450.92 508.39 C 451.65 508.66 453.11 509.19 453.85 509.45 C 454.22 511.53 454.24 513.66 454.40 515.78 C 456.65 514.64 458.96 514.23 461.18 515.69 C 461.41 517.62 461.61 519.55 461.76 521.49 C 462.37 522.35 462.99 523.22 463.61 524.10 C 462.49 525.41 461.34 526.69 460.13 527.93 C 459.41 527.79 457.98 527.51 457.26 527.37 C 458.31 524.46 459.12 521.07 457.17 518.32 C 456.24 518.65 455.36 519.10 454.48 519.54 C 454.50 520.93 454.56 522.34 454.66 523.74 C 455.37 524.90 456.11 526.05 456.89 527.18 C 454.51 527.51 452.11 527.72 449.71 527.77 C 449.66 527.39 449.56 526.62 449.51 526.23 C 450.13 525.28 450.75 524.35 451.34 523.40 C 450.61 520.33 450.66 517.16 450.65 514.03 C 447.09 513.20 450.25 510.32 450.92 508.39 Z" />
<path fill="#f1fbf9" d=" M 467.54 514.47 C 470.60 513.86 474.80 514.13 475.52 517.92 C 476.72 522.24 470.96 521.70 468.26 521.82 C 468.40 522.26 468.69 523.14 468.84 523.58 C 471.15 523.53 473.28 522.51 475.56 522.25 C 476.33 527.71 466.86 528.54 465.38 523.69 C 463.57 520.43 465.01 516.82 467.54 514.47 Z" />
<path fill="#61a6c3" d=" M 466.94 518.04 C 468.82 517.47 470.72 516.95 472.65 516.52 C 473.00 520.05 468.62 520.41 466.94 518.04 Z" />
<path fill="#f8fcf9" d=" M 488.11 523.69 C 490.20 524.00 492.09 521.32 494.06 522.84 C 496.74 525.09 498.37 528.68 498.24 532.19 C 497.36 532.92 496.35 533.44 495.36 533.99 C 492.84 531.89 490.31 529.69 487.17 528.61 C 485.95 529.05 484.72 529.49 483.51 529.94 C 483.35 531.44 481.68 533.45 483.71 534.35 C 488.91 537.36 495.26 538.03 500.02 541.94 C 502.84 545.71 503.82 550.41 503.37 555.05 C 500.37 566.58 484.22 569.71 475.90 562.07 C 470.70 557.78 470.65 547.91 476.91 544.56 C 480.19 542.53 484.98 542.56 487.47 545.81 C 487.01 546.90 486.56 548.00 486.11 549.10 C 483.88 549.86 481.15 549.98 479.61 551.98 C 478.84 554.80 479.98 558.16 482.82 559.32 C 486.58 560.98 491.68 560.60 494.65 557.57 C 498.01 553.74 497.00 547.03 492.45 544.58 C 487.98 542.21 482.77 541.39 478.55 538.51 C 475.24 536.22 474.67 531.30 477.06 528.15 C 479.38 524.47 483.97 523.13 488.11 523.69 Z" />
<path fill="#f7faf9" d=" M 592.70 528.71 C 595.43 526.27 599.53 528.71 602.32 526.39 C 602.83 526.39 603.86 526.38 604.37 526.38 C 605.73 528.52 606.78 530.85 607.63 533.26 C 604.73 535.87 601.78 533.20 599.22 531.59 C 598.76 531.65 597.82 531.75 597.36 531.81 C 597.35 532.59 597.34 533.38 597.35 534.18 C 600.64 535.68 604.66 536.06 607.27 538.78 C 609.26 540.90 607.84 543.78 607.26 546.20 C 604.63 548.46 601.27 549.08 597.90 548.48 C 596.69 549.07 595.41 550.23 593.98 549.62 C 591.60 547.62 590.06 544.67 590.16 541.53 C 593.79 539.62 596.59 543.16 599.82 544.26 C 602.20 545.22 601.67 542.27 601.95 540.99 C 598.56 539.90 595.12 538.89 591.94 537.26 C 591.58 536.68 590.86 535.52 590.50 534.94 C 590.46 532.68 590.91 530.26 592.70 528.71 Z" />
<path fill="#f8fcf9" d=" M 553.07 532.08 C 555.84 530.44 559.25 528.66 562.42 530.44 C 568.53 533.88 569.27 543.15 565.33 548.51 C 563.38 551.58 558.77 552.49 555.86 550.28 C 554.15 549.40 554.01 546.60 555.54 545.49 C 556.97 545.28 558.43 545.19 559.90 545.21 C 562.23 542.97 562.83 539.85 561.31 536.96 C 560.75 536.57 559.63 535.79 559.07 535.40 C 556.93 535.42 554.21 535.95 553.72 538.44 C 553.35 541.78 553.60 545.16 553.73 548.52 C 553.68 550.45 555.65 551.40 556.54 552.91 C 557.00 554.48 555.49 555.55 554.70 556.68 C 552.77 558.53 550.71 561.25 547.68 560.44 C 546.46 557.69 548.18 554.83 548.10 552.02 C 547.92 547.51 547.33 543.03 547.45 538.52 C 546.48 538.05 545.51 537.59 544.56 537.13 C 544.47 536.57 544.29 535.45 544.21 534.89 C 546.17 532.77 548.31 530.39 551.39 530.15 C 551.81 530.63 552.65 531.60 553.07 532.08 Z" />
<path fill="#f8fbf9" d=" M 573.01 530.99 C 577.11 526.85 585.26 527.64 587.83 533.13 C 588.84 535.26 589.47 538.95 586.79 540.08 C 583.47 541.81 579.68 541.30 576.10 541.33 C 576.19 541.84 576.39 542.88 576.49 543.39 C 580.44 546.31 584.13 542.17 588.26 542.31 C 588.34 543.56 588.60 544.83 588.44 546.10 C 586.96 548.74 583.74 549.37 581.12 550.31 C 576.15 550.38 571.14 547.19 570.36 542.06 C 569.21 538.23 570.25 533.89 573.01 530.99 Z" />
<path fill="#f9fdf8" d=" M 525.77 534.72 C 528.29 530.89 533.53 530.66 537.52 531.82 C 542.48 533.65 543.45 539.58 543.30 544.22 C 542.43 546.93 541.31 549.99 538.55 551.32 C 535.88 552.88 532.72 552.28 529.79 552.39 C 523.40 549.24 521.39 540.30 525.77 534.72 Z" />
<path fill="#f7fcf8" d=" M 508.39 534.31 C 510.24 532.67 512.75 532.27 515.04 531.61 C 517.15 532.35 519.57 532.77 521.19 534.44 C 522.40 536.07 522.08 538.60 520.18 539.59 C 517.45 538.49 514.75 537.02 511.71 537.49 C 510.00 540.52 509.24 545.03 512.42 547.39 C 515.82 549.06 519.02 545.63 522.53 546.17 C 522.60 547.95 523.44 550.38 521.48 551.49 C 518.82 554.03 514.85 554.18 511.45 553.48 C 503.92 550.75 502.35 539.29 508.39 534.31 Z" />
<path fill="#03080a" d=" M 576.84 533.72 C 579.39 533.14 583.13 532.52 583.32 536.20 C 580.63 536.97 577.85 537.35 575.06 537.49 C 575.63 536.22 576.23 534.97 576.84 533.72 Z" />
<path fill="#040304" d=" M 530.83 536.58 C 532.53 535.80 534.41 536.36 536.18 536.59 C 537.49 539.11 538.53 542.03 537.38 544.84 C 536.34 548.31 530.66 548.39 529.48 544.93 C 529.07 542.15 528.47 538.68 530.83 536.58 Z" />
<path fill="#ffffff" d=" M 709.12 565.66 C 716.19 564.04 721.32 558.51 726.78 554.29 C 736.68 555.32 746.09 560.00 753.02 567.12 C 759.08 573.88 763.26 582.74 762.87 591.97 C 763.44 604.23 756.96 616.02 747.53 623.55 C 731.59 636.64 706.39 636.91 690.66 623.32 C 681.35 615.55 676.06 603.05 677.58 590.96 C 678.35 583.61 681.45 576.66 685.92 570.82 C 693.69 569.29 701.38 567.35 709.12 565.66 Z" />
<path fill="#fafcfa" d=" M 251.29 574.12 C 254.20 577.03 257.05 580.00 260.01 582.86 C 262.16 584.70 262.50 587.67 263.49 590.18 C 277.75 630.50 302.37 667.08 334.38 695.46 C 362.90 720.86 397.17 739.84 433.97 750.16 C 475.90 762.03 520.92 762.83 563.22 752.31 C 623.18 737.80 677.03 700.20 711.78 649.30 C 714.72 648.96 717.67 648.64 720.64 648.51 C 685.29 702.78 629.07 743.18 566.13 758.69 C 551.00 762.64 535.48 764.99 519.90 766.02 C 498.56 767.44 477.06 766.17 456.02 762.36 C 414.58 754.89 375.12 736.95 342.05 710.92 C 298.23 676.57 265.69 627.96 251.29 574.12 Z" />
<path fill="#ffffff" d=" M 648.61 577.76 C 649.88 577.61 651.20 577.14 652.50 577.46 C 660.27 583.78 665.82 592.90 667.06 602.92 C 670.15 622.50 656.10 642.09 637.49 647.64 C 624.93 651.72 610.50 650.04 599.53 642.56 C 590.93 636.97 584.56 627.98 582.51 617.89 C 580.12 607.77 582.48 596.77 588.13 588.13 C 588.82 586.64 590.62 586.83 591.97 586.57 C 610.92 584.10 629.78 581.00 648.61 577.76 Z" />
<path fill="#ffffff" d=" M 386.82 609.96 C 390.92 597.21 400.95 586.09 413.85 581.97 C 415.62 587.46 419.95 591.87 425.48 593.60 C 437.64 597.73 450.71 596.07 463.32 596.44 C 469.52 605.59 472.75 617.11 470.42 628.08 C 467.14 647.54 448.72 662.86 429.05 662.84 C 414.74 663.54 400.39 656.37 392.35 644.51 C 385.44 634.56 383.56 621.59 386.82 609.96 Z" />
<path fill="#ffffff" d=" M 495.14 595.59 C 516.15 594.64 537.16 593.13 558.05 590.59 C 565.45 598.10 570.20 608.42 569.77 619.08 C 569.66 631.62 562.76 643.57 552.58 650.71 C 543.00 657.55 530.51 660.25 518.98 657.71 C 504.03 654.76 491.30 642.87 487.77 627.97 C 486.84 621.30 486.75 614.38 488.76 607.89 C 490.26 603.49 492.64 599.48 495.14 595.59 Z" />
<path fill="#fafcfb" d=" M 364.84 603.97 C 366.39 603.19 367.96 602.44 369.54 601.68 C 365.99 610.28 364.99 619.65 365.46 628.87 C 359.34 621.78 353.62 614.35 348.34 606.61 C 353.97 606.84 359.58 606.05 364.84 603.97 Z" />
<path fill="#fbfdfb" d=" M 319.87 637.01 C 327.98 631.96 335.60 626.13 343.77 621.16 C 345.70 623.99 347.60 626.84 349.35 629.79 C 341.98 634.59 334.77 639.61 327.40 644.39 C 323.92 646.51 320.07 648.72 315.83 648.20 C 308.30 647.95 302.28 640.19 303.44 632.85 C 304.27 628.34 307.48 624.38 311.66 622.51 C 313.28 625.08 315.15 627.48 316.71 630.09 C 315.25 632.24 312.19 634.21 313.53 637.19 C 315.14 639.47 317.97 638.09 319.87 637.01 Z" />
<path fill="#fcfdfb" d=" M 342.50 645.52 C 345.68 642.55 349.30 638.98 354.05 639.52 C 361.28 640.50 367.18 646.87 368.32 653.98 C 368.69 658.33 366.02 662.17 362.77 664.78 C 355.58 671.16 348.93 678.15 341.49 684.25 C 339.63 682.35 337.75 680.48 335.90 678.58 C 339.32 674.02 343.94 670.49 348.16 666.70 C 346.08 664.14 343.87 661.70 341.62 659.31 C 337.12 662.73 333.30 666.94 329.00 670.59 C 327.05 668.85 325.21 667.00 323.38 665.14 C 323.34 664.78 323.26 664.04 323.21 663.67 C 329.49 657.46 336.23 651.73 342.50 645.52 Z" />
<path fill="#ffffff" d=" M 515.91 673.73 C 538.77 676.67 562.75 664.06 572.97 643.33 C 579.52 652.19 588.97 658.77 599.47 662.07 C 599.44 662.28 599.36 662.71 599.32 662.92 C 564.01 684.68 521.31 694.20 480.14 688.93 C 464.55 686.97 449.14 683.11 434.61 677.09 C 451.49 673.72 466.32 662.17 474.15 646.89 C 482.80 661.77 498.80 672.00 515.91 673.73 Z" />
<path fill="#020304" d=" M 351.88 649.30 C 355.69 649.05 360.08 652.61 358.55 656.68 C 357.21 658.27 355.56 659.57 353.99 660.93 C 351.66 658.68 349.40 656.36 347.27 653.92 C 348.80 652.37 350.34 650.83 351.88 649.30 Z" />
<path fill="#fbfdfb" d=" M 377.97 657.96 C 380.33 659.52 382.57 661.26 384.85 662.95 C 381.85 669.96 379.01 677.05 375.76 683.95 C 375.65 684.60 375.41 685.89 375.29 686.53 C 381.67 680.96 388.36 675.77 394.90 670.39 C 397.06 672.18 399.29 673.88 401.57 675.52 C 390.21 685.11 378.51 694.30 367.06 703.80 C 364.90 702.16 362.72 700.56 360.52 698.98 C 366.24 685.26 372.23 671.67 377.97 657.96 Z" />
<path fill="#fbfdf9" d=" M 586.70 687.27 C 594.68 682.81 602.43 677.96 610.22 673.19 C 611.83 675.69 613.37 678.24 614.75 680.89 C 612.22 682.43 609.57 683.77 607.16 685.49 C 607.38 686.80 608.09 687.94 608.76 689.08 C 613.82 697.49 619.04 705.82 623.93 714.35 C 624.16 714.51 624.63 714.83 624.86 714.99 C 622.31 716.47 619.82 718.04 617.38 719.68 C 610.69 710.28 605.50 699.90 599.15 690.27 C 596.44 691.85 593.79 693.53 590.99 694.95 C 589.56 692.38 588.11 689.83 586.70 687.27 Z" />
<path fill="#fbfdfa" d=" M 407.58 682.82 C 415.66 680.44 425.57 685.56 427.58 693.92 C 428.39 698.34 425.71 702.22 423.86 705.99 C 420.07 713.68 416.04 721.23 412.14 728.86 C 409.52 727.71 406.99 726.38 404.49 725.01 C 407.00 719.91 409.61 714.87 412.15 709.79 C 409.19 708.29 406.35 706.48 403.17 705.47 C 400.82 710.41 398.06 715.15 395.79 720.14 C 393.06 719.38 390.54 718.07 388.00 716.87 C 388.19 714.57 389.21 712.49 390.29 710.50 C 393.75 703.63 397.42 696.87 400.79 689.95 C 402.16 686.89 404.22 683.87 407.58 682.82 Z" />
<path fill="#020304" d=" M 409.82 692.52 C 410.39 692.30 411.51 691.87 412.07 691.65 C 414.74 692.21 418.66 693.40 418.61 696.76 C 417.96 698.89 416.76 700.80 415.72 702.76 C 412.76 701.31 409.80 699.86 406.91 698.27 C 407.84 696.33 408.81 694.41 409.82 692.52 Z" />
<path fill="#fcfefc" d=" M 556.06 698.15 C 563.12 696.20 570.12 690.60 577.69 693.41 C 584.97 695.50 589.11 704.67 585.64 711.46 C 583.44 715.89 579.05 718.57 574.53 720.15 C 576.41 725.15 578.47 730.09 580.15 735.17 C 577.71 736.24 575.23 737.19 572.82 738.30 C 572.22 738.32 571.62 738.34 571.03 738.37 C 567.03 728.18 563.22 717.92 559.27 707.71 C 558.06 704.57 556.54 701.51 556.06 698.15 Z" />
<path fill="#fafcf9" d=" M 440.74 695.76 C 445.49 694.35 450.77 695.36 454.88 698.06 C 459.30 701.51 460.16 707.85 458.56 712.96 C 455.95 712.29 453.36 711.56 450.82 710.70 C 450.55 708.56 451.01 705.54 448.65 704.41 C 447.22 703.37 445.41 703.69 443.78 703.58 C 443.28 704.79 442.79 706.02 442.31 707.25 C 446.80 711.24 452.89 713.97 455.18 719.96 C 457.72 727.67 452.20 736.70 444.25 738.22 C 443.08 738.19 441.93 738.18 440.78 738.18 C 436.67 737.15 432.07 735.70 429.85 731.76 C 427.48 727.94 428.18 723.23 428.81 719.02 C 431.74 719.65 434.68 720.31 437.50 721.37 C 437.70 724.20 437.37 727.27 439.50 729.51 C 440.54 729.51 442.61 729.52 443.64 729.52 C 444.99 727.64 446.66 725.52 446.34 723.07 C 443.17 718.77 437.47 717.07 434.76 712.35 C 432.31 706.48 434.71 698.44 440.74 695.76 Z" />
<path fill="#fbfefa" d=" M 539.73 700.88 C 542.90 700.21 546.07 699.52 549.28 699.07 C 552.19 713.13 554.65 727.28 557.63 741.33 C 555.02 741.95 552.40 742.51 549.75 742.93 C 549.43 743.13 548.78 743.53 548.46 743.74 C 547.16 740.22 546.68 736.49 545.92 732.85 C 543.86 722.19 541.75 711.55 539.73 700.88 Z" />
<path fill="#020204" d=" M 568.16 703.77 C 570.75 702.70 573.50 701.93 576.33 702.53 C 577.44 704.52 578.28 706.87 577.27 709.10 C 575.58 710.75 573.23 711.40 571.01 711.99 C 570.04 709.25 569.00 706.54 568.16 703.77 Z" />
<path fill="#fcfefd" d=" M 470.27 708.49 C 474.91 701.24 486.67 700.24 492.58 706.51 C 494.38 708.25 495.21 710.67 496.23 712.90 C 496.22 715.17 496.21 717.45 496.17 719.74 C 493.20 719.85 490.23 719.57 487.28 719.27 C 487.25 717.74 487.21 716.21 487.22 714.70 C 485.27 712.58 482.27 711.35 479.51 712.62 C 477.06 714.36 477.49 717.65 476.93 720.25 C 476.50 724.50 475.46 728.69 475.50 733.00 C 475.87 733.55 476.63 734.65 477.00 735.20 C 479.28 736.54 481.82 736.24 484.13 735.13 C 484.77 733.61 485.41 732.10 486.04 730.59 C 488.97 730.91 491.89 731.37 494.83 731.69 C 494.82 736.08 493.35 741.05 489.22 743.26 C 482.79 746.74 473.53 746.20 468.89 740.01 C 465.15 735.90 466.05 729.97 466.99 724.98 C 468.18 719.51 468.12 713.70 470.27 708.49 Z" />
<path fill="#fdfefc" d=" M 503.15 704.40 C 508.76 703.61 514.43 703.21 520.10 703.21 C 522.99 703.11 525.60 704.49 528.09 705.81 C 532.18 710.82 532.93 718.20 529.84 723.90 C 528.84 725.89 527.02 727.31 525.97 729.26 C 528.34 734.82 531.96 739.77 534.72 745.17 C 531.51 745.22 528.32 745.52 525.13 745.73 C 521.55 740.36 518.70 734.52 514.73 729.43 C 514.78 735.15 515.77 740.81 515.89 746.54 C 512.86 746.80 509.85 747.22 506.81 747.32 C 506.43 744.26 506.33 741.17 505.97 738.11 C 505.37 730.77 504.70 723.43 504.04 716.09 C 503.59 712.20 503.41 708.30 503.15 704.40 Z" />
<path fill="#010204" d=" M 513.33 712.21 C 516.43 711.27 519.61 711.82 522.28 713.61 C 522.64 714.81 523.02 716.03 523.40 717.24 C 522.64 718.67 522.05 720.39 520.53 721.21 C 518.49 721.81 516.39 722.15 514.29 722.49 C 513.60 719.10 513.36 715.66 513.33 712.21 Z" />
</svg>
