<?xml version="1.0" encoding="UTF-8" ?>
<!DOCTYPE svg PUBLIC "-//W3C//DTD SVG 1.1//EN" "http://www.w3.org/Graphics/SVG/1.1/DTD/svg11.dtd">
<svg width="100%" height="100%" viewBox="0 0 1013 987" version="1.1" xmlns="http://www.w3.org/2000/svg">
<path fill="#010102" d=" M 463.72 486.89 C 466.40 478.07 475.07 472.91 483.82 471.83 C 490.80 471.41 498.38 472.50 503.90 477.14 C 507.69 480.05 509.14 484.81 510.45 489.20 C 512.59 489.20 514.74 489.25 516.89 489.40 C 517.25 483.75 522.09 479.48 527.11 477.64 C 530.22 476.37 533.18 478.14 535.90 479.47 C 538.21 478.35 540.26 476.22 543.05 476.61 C 545.44 476.34 547.84 478.64 550.11 477.29 C 553.48 475.42 557.84 474.84 561.21 477.03 C 564.74 478.68 565.94 482.69 566.86 486.16 C 573.94 483.69 582.43 483.17 588.68 488.01 C 590.51 487.20 592.32 486.34 594.13 485.47 C 595.44 479.42 602.09 475.45 608.03 477.01 C 614.60 478.42 618.85 486.71 614.58 492.46 C 615.60 495.96 615.88 499.70 614.54 503.17 C 617.18 505.79 620.05 508.96 619.43 513.00 C 619.92 518.47 615.87 522.82 611.69 525.70 C 614.37 529.78 612.72 534.67 614.27 539.04 C 615.28 543.24 614.50 548.09 611.12 551.06 C 606.48 556.02 599.12 555.29 592.99 556.41 C 591.87 555.69 590.75 554.97 589.63 554.28 C 583.39 557.22 575.68 557.76 569.94 553.39 C 567.68 555.53 564.96 557.07 561.98 557.95 C 558.93 562.14 554.91 566.33 549.59 567.26 C 544.45 567.44 540.87 562.81 539.95 558.15 C 534.79 559.77 529.47 559.04 524.45 557.31 C 520.06 560.83 513.96 561.25 508.75 559.50 C 506.52 563.85 503.38 567.84 498.90 570.03 C 489.34 574.81 476.20 573.21 469.34 564.54 C 463.61 557.47 464.55 546.41 471.30 540.32 C 470.30 538.13 469.53 535.85 469.11 533.49 C 467.76 533.09 466.42 532.68 465.09 532.29 C 463.81 532.96 462.53 533.63 461.26 534.31 C 454.49 534.33 447.64 533.64 441.01 535.40 C 439.14 534.06 436.91 533.04 435.68 531.02 C 434.52 528.95 434.76 526.52 434.70 524.25 C 426.04 521.71 423.23 509.61 429.24 503.19 C 432.96 499.18 438.73 498.52 443.90 498.76 C 447.17 497.17 451.04 495.04 454.54 497.47 C 458.93 499.39 458.31 504.84 460.56 508.32 C 463.90 510.55 467.64 507.41 471.24 507.40 C 463.99 503.61 461.97 494.34 463.72 486.89 Z" />
<path fill="#f9fcfa" d=" M 480.10 479.38 C 485.96 477.64 492.69 477.77 498.04 480.95 C 503.69 484.09 505.52 492.42 501.65 497.62 C 500.04 499.76 497.36 500.59 495.01 501.60 C 497.88 509.17 502.31 517.75 510.65 520.19 C 515.47 521.50 519.25 516.74 523.93 517.19 C 526.54 517.26 526.34 520.52 526.56 522.38 C 522.23 529.04 512.83 530.20 506.07 526.87 C 499.29 523.40 494.92 516.59 492.18 509.70 C 491.09 506.95 490.21 504.14 489.28 501.34 C 488.85 501.40 487.97 501.51 487.54 501.57 C 487.64 503.23 487.75 504.90 487.87 506.57 C 488.93 507.05 489.99 507.53 491.06 508.02 C 490.79 509.25 490.50 510.49 490.19 511.72 C 488.25 515.11 485.31 517.84 481.89 519.70 C 480.91 518.77 479.68 518.06 479.04 516.85 C 479.85 514.57 481.65 512.65 481.73 510.13 C 481.87 505.79 481.26 501.46 481.34 497.12 C 481.45 494.54 479.61 492.54 478.25 490.57 C 480.37 487.71 483.98 488.21 487.11 488.28 C 487.42 488.82 487.74 489.36 488.07 489.91 C 487.64 492.20 487.45 494.52 487.37 496.85 C 490.22 496.84 493.70 497.21 495.56 494.52 C 498.48 491.26 495.77 486.20 492.00 485.07 C 486.20 483.10 477.83 484.54 475.51 490.96 C 476.48 494.59 480.06 497.20 479.82 501.15 C 478.28 501.73 476.65 503.08 474.96 502.16 C 470.23 499.72 468.62 493.56 470.15 488.73 C 471.34 484.02 475.59 480.68 480.10 479.38 Z" />
<path fill="#f4faf9" d=" M 553.78 482.57 C 555.32 482.01 556.98 482.38 558.58 482.42 C 559.93 484.84 560.82 488.55 558.29 490.51 C 556.29 491.28 553.34 491.16 552.43 488.87 C 550.97 486.79 552.29 484.21 553.78 482.57 Z" />
<path fill="#f8fcf9" d=" M 523.49 488.76 C 524.78 486.01 527.66 484.55 530.31 483.38 C 533.91 491.59 531.84 500.88 533.47 509.49 C 534.36 510.54 535.39 511.48 536.38 512.46 C 536.41 513.00 536.46 514.09 536.49 514.63 C 533.00 516.28 529.05 515.85 525.32 515.59 C 525.29 514.98 525.24 513.75 525.21 513.14 C 525.92 512.05 526.64 510.96 527.19 509.78 C 527.05 503.86 526.24 497.97 526.35 492.04 C 525.39 490.97 522.90 490.68 523.49 488.76 Z" />
<path fill="#f8fcf9" d=" M 537.22 487.00 C 539.29 485.22 541.40 483.32 544.16 482.75 C 546.30 487.52 545.91 492.88 546.42 497.98 C 546.80 502.48 545.48 507.85 549.13 511.33 C 550.34 511.33 551.55 511.33 552.77 511.33 C 553.25 510.76 554.20 509.63 554.67 509.07 C 554.70 506.05 554.70 503.03 554.56 500.02 C 553.67 499.80 551.89 499.37 551.00 499.15 C 551.84 495.54 555.06 493.42 558.26 492.10 C 560.44 497.18 559.41 502.85 560.46 508.17 C 561.53 509.28 562.61 510.39 563.70 511.50 C 563.66 511.99 563.59 512.95 563.56 513.43 C 560.33 514.03 557.05 514.30 553.77 514.34 C 552.75 513.57 551.73 512.83 550.72 512.07 C 548.27 516.59 542.31 515.21 538.22 514.32 C 539.09 511.91 541.10 509.78 540.77 507.06 C 540.57 502.73 540.27 498.40 540.06 494.07 C 539.91 493.03 539.78 492.00 539.67 490.97 C 537.55 490.60 537.29 488.78 537.22 487.00 Z" />
<path fill="#f6faf7" d=" M 601.30 485.41 C 603.36 481.49 610.75 483.33 609.67 488.08 C 608.31 490.42 605.55 489.28 603.40 489.41 C 605.72 492.55 610.18 495.43 608.67 499.94 C 606.88 504.14 601.64 504.48 597.82 505.74 C 597.62 506.17 597.22 507.03 597.02 507.47 C 601.15 509.59 605.72 506.27 609.87 508.29 C 611.89 508.99 612.64 511.16 613.48 512.93 C 612.06 519.85 604.29 522.54 598.01 522.06 C 595.34 521.59 591.81 521.21 590.42 518.56 C 589.17 516.14 591.46 513.17 594.05 513.64 C 596.31 515.22 598.26 517.24 600.76 518.48 C 603.05 517.61 607.19 517.23 606.44 513.81 C 605.20 512.09 602.89 512.31 601.05 512.46 C 598.28 512.68 595.50 512.68 592.72 512.62 C 592.00 511.90 591.29 511.18 590.58 510.47 C 590.57 509.55 590.57 508.64 590.57 507.74 C 591.67 506.73 592.78 505.72 593.91 504.74 C 592.64 503.29 590.70 502.17 590.36 500.14 C 589.63 497.88 590.92 495.78 591.77 493.79 C 594.82 492.13 598.16 491.20 601.59 490.73 C 601.10 489.02 599.69 486.93 601.30 485.41 Z" />
<path fill="#f8fbf9" d=" M 574.57 493.68 C 576.99 492.16 580.19 490.12 582.98 492.00 C 586.00 494.05 585.58 498.04 585.88 501.21 C 585.75 503.91 588.66 505.23 588.85 507.85 C 586.34 510.52 583.84 515.03 579.48 513.42 C 580.27 508.18 581.69 502.47 579.21 497.47 C 577.68 497.86 576.18 498.27 574.66 498.66 C 574.26 500.77 573.51 502.88 573.81 505.06 C 574.07 507.97 576.78 509.63 578.11 512.04 C 574.63 513.74 570.75 513.75 566.98 513.54 C 566.59 513.06 565.80 512.09 565.41 511.61 C 566.37 510.61 567.34 509.63 568.36 508.69 C 568.63 507.87 568.92 507.07 569.20 506.26 C 568.76 504.10 568.56 501.91 568.44 499.72 C 567.69 499.58 566.21 499.30 565.46 499.16 C 565.48 497.62 565.86 496.15 566.42 494.74 C 568.13 493.59 569.83 492.42 571.58 491.31 C 572.66 492.53 573.40 493.96 574.12 495.43 C 574.23 494.99 574.46 494.12 574.57 493.68 Z" />
<path fill="#030207" d=" M 595.78 497.80 C 596.54 494.96 599.84 495.15 602.14 495.52 C 602.88 496.65 603.48 497.85 603.92 499.15 C 602.31 500.12 600.59 500.86 598.86 501.57 C 597.65 500.58 594.81 499.98 595.78 497.80 Z" />
<path fill="#f8fbf6" d=" M 508.41 496.52 C 512.80 494.36 518.80 495.83 521.10 500.31 C 523.17 504.82 523.28 510.84 519.53 514.51 C 516.78 517.55 512.08 517.21 508.46 516.33 C 500.84 512.99 500.74 499.88 508.41 496.52 Z" />
<path fill="#152028" d=" M 487.54 501.57 C 487.97 501.51 488.85 501.40 489.28 501.34 C 490.21 504.14 491.09 506.95 492.18 509.70 C 491.51 510.37 490.84 511.04 490.19 511.72 C 490.50 510.49 490.79 509.25 491.06 508.02 C 489.99 507.53 488.93 507.05 487.87 506.57 C 487.75 504.90 487.64 503.23 487.54 501.57 Z" />
<path fill="#020103" d=" M 509.64 501.72 C 511.78 499.32 516.24 500.87 516.62 504.01 C 516.94 506.60 517.44 510.17 514.62 511.63 C 512.65 511.90 510.00 512.14 509.08 509.91 C 507.87 507.44 507.63 503.81 509.64 501.72 Z" />
<path fill="#f2faf9" d=" M 446.99 505.47 C 448.43 503.86 450.21 502.83 452.42 503.27 C 452.41 505.09 452.69 507.25 450.92 508.39 C 449.35 508.77 447.74 508.80 446.15 508.94 C 446.38 512.76 446.33 516.59 446.66 520.40 C 447.34 521.25 448.03 522.11 448.72 522.98 C 446.83 525.54 444.89 528.91 441.18 528.62 C 441.84 524.56 444.07 519.99 441.32 516.22 C 439.70 518.75 435.44 518.38 433.84 516.03 C 431.55 513.42 432.03 508.82 434.97 506.87 C 438.45 504.35 443.02 505.90 446.99 505.47 Z" />
<path fill="#030408" d=" M 436.08 513.35 C 436.50 511.73 436.23 509.56 438.14 508.87 C 439.43 508.60 440.74 508.47 442.07 508.47 C 442.16 510.42 442.29 512.38 442.47 514.35 C 440.46 513.37 438.23 513.50 436.08 513.35 Z" />
<path fill="#f2f9f8" d=" M 450.92 508.39 C 451.65 508.66 453.11 509.19 453.85 509.45 C 454.22 511.53 454.24 513.66 454.40 515.78 C 456.65 514.64 458.96 514.23 461.18 515.69 C 461.41 517.62 461.61 519.55 461.76 521.49 C 462.37 522.35 462.99 523.22 463.61 524.10 C 462.49 525.41 461.34 526.69 460.13 527.93 C 459.41 527.79 457.98 527.51 457.26 527.37 C 458.31 524.46 459.12 521.07 457.17 518.32 C 456.24 518.65 455.36 519.10 454.48 519.54 C 454.50 520.93 454.56 522.34 454.66 523.74 C 455.37 524.90 456.11 526.05 456.89 527.18 C 454.51 527.51 452.11 527.72 449.71 527.77 C 449.66 527.39 449.56 526.62 449.51 526.23 C 450.13 525.28 450.75 524.35 451.34 523.40 C 450.61 520.33 450.66 517.16 450.65 514.03 C 447.09 513.20 450.25 510.32 450.92 508.39 Z" />
<path fill="#f1fbf9" d=" M 467.54 514.47 C 470.60 513.86 474.80 514.13 475.52 517.92 C 476.72 522.24 470.96 521.70 468.26 521.82 C 468.40 522.26 468.69 523.14 468.84 523.58 C 471.15 523.53 473.28 522.51 475.56 522.25 C 476.33 527.71 466.86 528.54 465.38 523.69 C 463.57 520.43 465.01 516.82 467.54 514.47 Z" />
<path fill="#61a6c3" d=" M 466.94 518.04 C 468.82 517.47 470.72 516.95 472.65 516.52 C 473.00 520.05 468.62 520.41 466.94 518.04 Z" />
<path fill="#f8fcf9" d=" M 488.11 523.69 C 490.20 524.00 492.09 521.32 494.06 522.84 C 496.74 525.09 498.37 528.68 498.24 532.19 C 497.36 532.92 496.35 533.44 495.36 533.99 C 492.84 531.89 490.31 529.69 487.17 528.61 C 485.95 529.05 484.72 529.49 483.51 529.94 C 483.35 531.44 481.68 533.45 483.71 534.35 C 488.91 537.36 495.26 538.03 500.02 541.94 C 502.84 545.71 503.82 550.41 503.37 555.05 C 500.37 566.58 484.22 569.71 475.90 562.07 C 470.70 557.78 470.65 547.91 476.91 544.56 C 480.19 542.53 484.98 542.56 487.47 545.81 C 487.01 546.90 486.56 548.00 486.11 549.10 C 483.88 549.86 481.15 549.98 479.61 551.98 C 478.84 554.80 479.98 558.16 482.82 559.32 C 486.58 560.98 491.68 560.60 494.65 557.57 C 498.01 553.74 497.00 547.03 492.45 544.58 C 487.98 542.21 482.77 541.39 478.55 538.51 C 475.24 536.22 474.67 531.30 477.06 528.15 C 479.38 524.47 483.97 523.13 488.11 523.69 Z" />
<path fill="#f7faf9" d=" M 592.70 528.71 C 595.43 526.27 599.53 528.71 602.32 526.39 C 602.83 526.39 603.86 526.38 604.37 526.38 C 605.73 528.52 606.78 530.85 607.63 533.26 C 604.73 535.87 601.78 533.20 599.22 531.59 C 598.76 531.65 597.82 531.75 597.36 531.81 C 597.35 532.59 597.34 533.38 597.35 534.18 C 600.64 535.68 604.66 536.06 607.27 538.78 C 609.26 540.90 607.84 543.78 607.26 546.20 C 604.63 548.46 601.27 549.08 597.90 548.48 C 596.69 549.07 595.41 550.23 593.98 549.62 C 591.60 547.62 590.06 544.67 590.16 541.53 C 593.79 539.62 596.59 543.16 599.82 544.26 C 602.20 545.22 601.67 542.27 601.95 540.99 C 598.56 539.90 595.12 538.89 591.94 537.26 C 591.58 536.68 590.86 535.52 590.50 534.94 C 590.46 532.68 590.91 530.26 592.70 528.71 Z" />
<path fill="#f8fcf9" d=" M 553.07 532.08 C 555.84 530.44 559.25 528.66 562.42 530.44 C 568.53 533.88 569.27 543.15 565.33 548.51 C 563.38 551.58 558.77 552.49 555.86 550.28 C 554.15 549.40 554.01 546.60 555.54 545.49 C 556.97 545.28 558.43 545.19 559.90 545.21 C 562.23 542.97 562.83 539.85 561.31 536.96 C 560.75 536.57 559.63 535.79 559.07 535.40 C 556.93 535.42 554.21 535.95 553.72 538.44 C 553.35 541.78 553.60 545.16 553.73 548.52 C 553.68 550.45 555.65 551.40 556.54 552.91 C 557.00 554.48 555.49 555.55 554.70 556.68 C 552.77 558.53 550.71 561.25 547.68 560.44 C 546.46 557.69 548.18 554.83 548.10 552.02 C 547.92 547.51 547.33 543.03 547.45 538.52 C 546.48 538.05 545.51 537.59 544.56 537.13 C 544.47 536.57 544.29 535.45 544.21 534.89 C 546.17 532.77 548.31 530.39 551.39 530.15 C 551.81 530.63 552.65 531.60 553.07 532.08 Z" />
<path fill="#f8fbf9" d=" M 573.01 530.99 C 577.11 526.85 585.26 527.64 587.83 533.13 C 588.84 535.26 589.47 538.95 586.79 540.08 C 583.47 541.81 579.68 541.30 576.10 541.33 C 576.19 541.84 576.39 542.88 576.49 543.39 C 580.44 546.31 584.13 542.17 588.26 542.31 C 588.34 543.56 588.60 544.83 588.44 546.10 C 586.96 548.74 583.74 549.37 581.12 550.31 C 576.15 550.38 571.14 547.19 570.36 542.06 C 569.21 538.23 570.25 533.89 573.01 530.99 Z" />
<path fill="#f9fdf8" d=" M 525.77 534.72 C 528.29 530.89 533.53 530.66 537.52 531.82 C 542.48 533.65 543.45 539.58 543.30 544.22 C 542.43 546.93 541.31 549.99 538.55 551.32 C 535.88 552.88 532.72 552.28 529.79 552.39 C 523.40 549.24 521.39 540.30 525.77 534.72 Z" />
<path fill="#f7fcf8" d=" M 508.39 534.31 C 510.24 532.67 512.75 532.27 515.04 531.61 C 517.15 532.35 519.57 532.77 521.19 534.44 C 522.40 536.07 522.08 538.60 520.18 539.59 C 517.45 538.49 514.75 537.02 511.71 537.49 C 510.00 540.52 509.24 545.03 512.42 547.39 C 515.82 549.06 519.02 545.63 522.53 546.17 C 522.60 547.95 523.44 550.38 521.48 551.49 C 518.82 554.03 514.85 554.18 511.45 553.48 C 503.92 550.75 502.35 539.29 508.39 534.31 Z" />
<path fill="#03080a" d=" M 576.84 533.72 C 579.39 533.14 583.13 532.52 583.32 536.20 C 580.63 536.97 577.85 537.35 575.06 537.49 C 575.63 536.22 576.23 534.97 576.84 533.72 Z" />
<path fill="#040304" d=" M 530.83 536.58 C 532.53 535.80 534.41 536.36 536.18 536.59 C 537.49 539.11 538.53 542.03 537.38 544.84 C 536.34 548.31 530.66 548.39 529.48 544.93 C 529.07 542.15 528.47 538.68 530.83 536.58 Z" />
</svg>
