<svg enable-background="new 0.608 -16.991 141.732 141.732" height="141.732" viewBox="0.608 -16.991 141.732 141.732" width="141.732" xmlns="http://www.w3.org/2000/svg"><path d="M27.24 29.92v35.242c-1.612 1.753-3.482 2.773-5.485 2.773-6.032 0-10.928-9.13-10.928-20.396 0-11.265 4.896-20.395 10.928-20.395 2.002.002 3.872 1.023 5.486 2.776m88.09-11.308h.006V0H27.213v15.57h.027v2.488c-1.732-.593-3.537-.942-5.406-.942C9.776 17.116 0 30.238 0 46.426c0 16.187 9.775 29.308 21.834 29.308 1.824 0 3.588-.334 5.28-.9v11.22h.013c-.004.074-.012.147-.012.222 0 2.787 2.275 5.047 5.082 5.047.06 0 .115-.006.174-.008v.008h77.37v-.006c.045.002.088.006.133.006 2.885 0 5.226-2.26 5.226-5.047 0-.07-.014-.146-.018-.22h.248V18.61zm27.62 83.78c0-2.96-2.462-5.358-5.5-5.358H5.5c-3.04 0-5.5 2.398-5.5 5.36 0 2.958 2.46 5.356 5.498 5.356H137.45c3.038 0 5.5-2.398 5.5-5.357"/></svg>