<!DOCTYPE svg PUBLIC "-//W3C//DTD SVG 1.1//EN" "http://www.w3.org/Graphics/SVG/1.1/DTD/svg11.dtd" [
	<!ENTITY ns_flows "http://ns.adobe.com/Flows/1.0/">
]><svg xmlns="http://www.w3.org/2000/svg" width="194" height="101" viewBox="-0.262 -0.031 194 101" enable-background="new -0.262 -0.031 194 101"><path fill="#010102" d="M37.68 15.143C40.362 6.325 49.032 1.163 57.782.083c6.98-.42 14.56.67 20.08 5.31 3.79 2.91 5.238 7.67 6.55 12.062 2.14 0 4.29.05 6.438.2.36-5.65 5.2-9.92 10.222-11.762 3.11-1.27 6.068.5 8.79 1.83 2.312-1.12 4.358-3.25 7.15-2.858 2.39-.27 4.788 2.028 7.06.68 3.37-1.87 7.73-2.45 11.102-.26 3.527 1.648 4.73 5.66 5.648 9.13 7.08-2.47 15.568-2.99 21.818 1.85 1.83-.81 3.64-1.67 5.45-2.54 1.312-6.05 7.96-10.02 13.9-8.46 6.567 1.41 10.817 9.7 6.55 15.45 1.02 3.5 1.3 7.24-.04 10.71 2.64 2.62 5.51 5.79 4.89 9.83.49 5.47-3.56 9.82-7.738 12.7 2.68 4.08 1.03 8.97 2.578 13.34 1.012 4.2.23 9.05-3.148 12.02-4.64 4.962-12 4.23-18.13 5.353-1.12-.72-2.24-1.44-3.358-2.13-6.24 2.937-13.95 3.478-19.69-.893-2.26 2.142-4.98 3.682-7.96 4.563-3.05 4.188-7.068 8.38-12.39 9.31-5.142.182-8.722-4.45-9.642-9.108-5.16 1.62-10.48.89-15.5-.84-4.392 3.52-10.49 3.938-15.7 2.188-2.23 4.35-5.37 8.34-9.852 10.53-9.56 4.778-22.7 3.18-29.56-5.49-5.73-7.07-4.79-18.13 1.96-24.22-1-2.19-1.77-4.472-2.19-6.83-1.35-.4-2.687-.812-4.02-1.2-1.28.67-2.562 1.34-3.83 2.02-6.77.022-13.62-.67-20.25 1.093-1.87-1.34-4.1-2.36-5.33-4.38-1.16-2.07-.92-4.5-.98-6.77C0 49.97-2.81 37.87 3.2 31.45c3.722-4.012 9.49-4.672 14.66-4.433 3.27-1.59 7.14-3.72 10.64-1.29 4.392 1.92 3.77 7.37 6.02 10.852 3.343 2.228 7.08-.91 10.683-.92-7.253-3.796-9.273-13.066-7.523-20.517z"/><path fill="#F9FCFA" d="M55.117 7.045c5.86-1.74 12.592-1.61 17.94 1.57 5.648 3.14 7.478 11.47 3.608 16.67-1.61 2.14-4.29 2.97-6.64 3.98 2.87 7.57 7.3 16.15 15.64 18.59 4.82 1.312 8.602-3.448 13.28-3 2.608.07 2.41 3.33 2.63 5.19-4.33 6.658-13.73 7.818-20.49 4.488-6.78-3.47-11.148-10.28-13.89-17.17-1.09-2.75-1.972-5.56-2.9-8.36-.43.063-1.31.17-1.74.23.102 1.66.212 3.33.33 5 1.062.48 2.12.96 3.19 1.45-.272 1.23-.56 2.472-.87 3.7-1.938 3.39-4.88 6.12-8.3 7.978-.98-.93-2.21-1.64-2.852-2.85.81-2.278 2.61-4.198 2.688-6.72.143-4.34-.47-8.67-.39-13.01.11-2.58-1.728-4.58-3.09-6.55 2.12-2.86 5.73-2.36 8.86-2.29.31.54.63 1.08.96 1.63-.432 2.29-.62 4.607-.7 6.937 2.85-.01 6.33.36 8.188-2.33 2.92-3.26.21-8.318-3.56-9.448-5.8-1.973-14.172-.53-16.49 5.89.97 3.63 4.55 6.24 4.31 10.19-1.54.578-3.17 1.93-4.858 1.01-4.73-2.44-6.34-8.603-4.81-13.43 1.198-4.706 5.448-8.046 9.957-9.345z"/><path fill="#F4FAF9" d="M128.796 10.235c1.54-.562 3.2-.19 4.8-.15 1.352 2.42 2.24 6.13-.29 8.09-2 .77-4.948.65-5.858-1.64-1.46-2.08-.14-4.66 1.348-6.3z"/><path fill="#F8FCF9" d="M98.507 16.425c1.29-2.75 4.17-4.21 6.818-5.38 3.602 8.21 1.53 17.5 3.16 26.11.89 1.05 1.92 1.99 2.91 2.97.03.54.08 1.63.11 2.17-3.49 1.65-7.44 1.22-11.17.96-.032-.61-.08-1.84-.11-2.45.71-1.09 1.43-2.18 1.98-3.358-.142-5.92-.95-11.812-.842-17.74-.956-1.072-3.446-1.363-2.856-3.282zM112.238 14.665c2.068-1.78 4.182-3.68 6.94-4.25 2.14 4.77 1.75 10.13 2.26 15.23.38 4.5-.94 9.868 2.71 13.35h3.64c.48-.57 1.432-1.7 1.9-2.26.028-3.02.028-6.04-.11-9.05-.89-.22-2.67-.65-3.56-.87.84-3.61 4.06-5.73 7.26-7.05 2.18 5.08 1.148 10.75 2.2 16.07 1.068 1.11 2.148 2.22 3.24 3.33-.04.49-.11 1.45-.142 1.93-3.23.603-6.51.87-9.79.91-1.02-.77-2.04-1.51-3.05-2.27-2.45 4.52-8.41 3.14-12.5 2.25.87-2.41 2.88-4.54 2.55-7.263-.2-4.33-.5-8.658-.71-12.988-.15-1.04-.28-2.07-.39-3.102-2.118-.368-2.38-2.187-2.448-3.967z"/><path fill="#F6FAF7" d="M176.318 13.075c2.06-3.92 9.45-2.08 8.37 2.67-1.36 2.34-4.12 1.2-6.27 1.33 2.318 3.14 6.778 6.02 5.27 10.53-1.79 4.198-7.03 4.54-10.852 5.8-.2.43-.6 1.29-.8 1.73 4.13 2.12 8.7-1.2 12.85.82 2.022.7 2.772 2.87 3.61 4.64-1.42 6.92-9.19 9.608-15.47 9.13-2.67-.47-6.2-.85-7.59-3.5-1.25-2.42 1.04-5.39 3.63-4.92 2.26 1.58 4.21 3.602 6.71 4.84 2.29-.87 6.43-1.25 5.68-4.67-1.24-1.72-3.55-1.5-5.39-1.35-2.772.22-5.55.22-8.33.158-.72-.72-1.432-1.44-2.142-2.15-.01-.92-.01-1.83-.01-2.728 1.1-1.01 2.21-2.02 3.34-3-1.272-1.45-3.21-2.57-3.55-4.602-.73-2.26.56-4.358 1.408-6.35 3.05-1.66 6.39-2.59 9.82-3.06-.485-1.71-1.895-3.8-.284-5.318z"/><path fill="#F8FBF9" d="M149.586 21.344c2.42-1.52 5.62-3.56 8.41-1.68 3.02 2.05 2.6 6.04 2.9 9.21-.13 2.7 2.777 4.02 2.97 6.64-2.51 2.67-5.01 7.182-9.37 5.57.79-5.24 2.21-10.95-.27-15.95-1.53.392-3.03.8-4.553 1.19-.398 2.108-1.148 4.22-.85 6.398.26 2.91 2.97 4.57 4.3 6.98-3.48 1.7-7.358 1.71-11.13 1.5l-1.57-1.93c.96-1 1.932-1.98 2.95-2.922.27-.82.562-1.62.84-2.43-.438-2.16-.64-4.35-.76-6.54l-2.98-.56c.02-1.54.398-3.012.96-4.42 1.71-1.15 3.41-2.32 5.16-3.433 1.078 1.222 1.817 2.65 2.538 4.12.117-.432.348-1.302.456-1.743z"/><path fill="#030207" d="M170.796 25.465c.76-2.84 4.062-2.648 6.36-2.28.74 1.132 1.34 2.33 1.78 3.632-1.61.97-3.33 1.71-5.063 2.42-1.206-.992-4.046-1.592-3.077-3.772z"/><path fill="#F8FBF6" d="M83.427 24.184c4.39-2.158 10.39-.688 12.688 3.79 2.07 4.512 2.18 10.53-1.57 14.2-2.75 3.04-7.448 2.7-11.067 1.82-7.62-3.34-7.72-16.45-.05-19.81z"/><path fill="#020103" d="M84.657 29.385c2.142-2.398 6.6-.85 6.98 2.29.318 2.59.818 6.16-2 7.62-1.972.27-4.62.51-5.542-1.72-1.21-2.47-1.447-6.1.562-8.19z"/><path fill="#F2FAF9" d="M22.007 33.135c1.44-1.608 3.22-2.64 5.43-2.2-.01 1.82.272 3.98-1.5 5.12-1.57.38-3.18.41-4.77.552.23 3.818.18 7.648.51 11.46.68.85 1.37 1.71 2.06 2.578-1.89 2.562-3.83 5.93-7.54 5.642.66-4.063 2.892-8.63.142-12.4-1.62 2.53-5.88 2.16-7.48-.188-2.29-2.61-1.81-7.21 1.13-9.162 3.477-2.524 8.047-.973 12.017-1.403z"/><path fill="#030408" d="M11.097 41.014c.42-1.618.15-3.79 2.06-4.48 1.29-.27 2.602-.4 3.932-.4.09 1.95.22 3.91.398 5.88-2.01-.98-4.24-.85-6.39-1z"/><path fill="#F2F9F8" d="M25.938 36.054c.73.27 2.188.802 2.93 1.062.37 2.08.392 4.21.552 6.33 2.25-1.142 4.56-1.55 6.778-.09.23 1.93.43 3.858.58 5.8.608.858 1.23 1.73 1.85 2.608-1.118 1.313-2.27 2.592-3.478 3.83l-2.87-.56c1.05-2.91 1.858-6.3-.09-9.05-.93.33-1.812.777-2.688 1.22.02 1.39.078 2.8.18 4.2.71 1.16 1.45 2.31 2.23 3.438-2.38.33-4.78.54-7.18.59-.052-.38-.15-1.148-.2-1.54.62-.948 1.24-1.88 1.83-2.827-.73-3.07-.682-6.24-.69-9.37-3.564-.83-.404-3.71.266-5.64z"/><path fill="#F1FBF9" d="M42.556 42.135c3.062-.607 7.262-.34 7.98 3.45 1.2 4.32-4.56 3.78-7.26 3.9.14.437.43 1.317.58 1.76 2.31-.05 4.437-1.07 6.72-1.33.77 5.46-8.7 6.29-10.18 1.44-1.81-3.26-.368-6.87 2.16-9.22z"/><path fill="#F8FCF9" d="M63.126 51.354c2.09.31 3.98-2.37 5.95-.852 2.68 2.25 4.31 5.84 4.18 9.352-.88.73-1.89 1.25-2.88 1.8-2.52-2.102-5.05-4.3-8.188-5.38-1.222.44-2.45.88-3.66 1.33-.16 1.5-1.83 3.51.2 4.408 5.2 3.012 11.55 3.682 16.31 7.592 2.82 3.77 3.802 8.47 3.35 13.108-3 11.53-19.147 14.66-27.468 7.02-5.2-4.29-5.25-14.16 1.01-17.51 3.28-2.03 8.07-2 10.56 1.25-.46 1.09-.907 2.19-1.358 3.29-2.23.76-4.96.88-6.5 2.88-.77 2.82.37 6.182 3.21 7.34 3.76 1.66 8.86 1.28 11.83-1.75 3.36-3.83 2.352-10.54-2.2-12.988-4.47-2.37-9.68-3.19-13.898-6.07-3.31-2.29-3.88-7.21-1.488-10.357 2.312-3.682 6.902-5.022 11.04-4.463z"/><path fill="#F7FAF9" d="M167.717 56.375c2.73-2.438 6.83 0 9.62-2.32.51 0 1.54-.01 2.05-.01 1.358 2.142 2.41 4.47 3.26 6.88-2.9 2.61-5.85-.06-8.41-1.67-.46.062-1.398.16-1.858.22-.012.78-.022 1.57-.012 2.37 3.29 1.5 7.312 1.88 9.92 4.602 1.99 2.12.57 5-.01 7.42-2.63 2.26-5.99 2.88-9.36 2.28-1.21.59-2.488 1.75-3.92 1.14-2.38-2-3.92-4.95-3.818-8.09 3.63-1.91 6.43 1.63 9.66 2.73 2.38.96 1.85-1.99 2.13-3.272-3.392-1.09-6.83-2.102-10.01-3.73l-1.44-2.317c-.042-2.264.407-4.683 2.197-6.233z"/><path fill="#F8FCF9" d="M128.086 59.744c2.77-1.64 6.182-3.42 9.352-1.64 6.108 3.438 6.85 12.71 2.91 18.068-1.95 3.07-6.563 3.98-9.472 1.77-1.71-.88-1.85-3.68-.32-4.79 1.432-.21 2.892-.3 4.36-.278 2.33-2.24 2.93-5.36 1.41-8.25l-2.24-1.56c-2.14.02-4.858.55-5.35 3.04-.37 3.34-.12 6.72.01 10.078-.05 1.93 1.92 2.88 2.81 4.392.462 1.567-1.05 2.64-1.84 3.77-1.93 1.852-3.988 4.57-7.02 3.762-1.22-2.75.5-5.61.42-8.42-.182-4.512-.772-8.99-.65-13.5-.97-.472-1.938-.932-2.89-1.392-.09-.56-.272-1.68-.35-2.24 1.958-2.118 4.1-4.5 7.18-4.737.42.478 1.26 1.447 1.68 1.927z"/><path fill="#F8FBF9" d="M148.028 58.654c4.1-4.142 12.25-3.352 14.82 2.14 1.01 2.13 1.64 5.82-1.04 6.95-3.32 1.73-7.11 1.22-10.69 1.25.09.51.29 1.55.39 2.06 3.95 2.92 7.643-1.22 11.772-1.08.08 1.25.34 2.522.18 3.79-1.478 2.644-4.698 3.272-7.318 4.21-4.97.07-9.98-3.117-10.76-8.25-1.154-3.83-.114-8.17 2.646-11.07z"/><path fill="#F9FDF8" d="M100.788 62.385c2.52-3.83 7.76-4.06 11.75-2.898 4.96 1.83 5.93 7.76 5.78 12.398-.87 2.71-1.99 5.77-4.75 7.102-2.67 1.56-5.83.96-8.762 1.068-6.39-3.15-8.4-12.09-4.018-17.67z"/><path fill="#F7FCF8" d="M83.407 61.974c1.85-1.64 4.36-2.038 6.65-2.698 2.108.738 4.528 1.16 6.148 2.83 1.21 1.63.89 4.158-1.01 5.148-2.73-1.1-5.43-2.568-8.472-2.1-1.71 3.03-2.47 7.54.71 9.897 3.4 1.67 6.6-1.76 10.11-1.22.068 1.78.91 4.21-1.052 5.32-2.658 2.54-6.63 2.688-10.027 1.99-7.525-2.725-9.096-14.185-3.056-19.166z"/><path fill="#03080A" d="M151.858 61.385c2.55-.58 6.29-1.198 6.48 2.48-2.69.77-5.472 1.147-8.262 1.29.572-1.27 1.17-2.52 1.782-3.77z"/><path fill="#040304" d="M105.847 64.245c1.7-.78 3.58-.22 5.35.01 1.313 2.52 2.352 5.44 1.2 8.25-1.04 3.47-6.72 3.55-7.9.09-.41-2.78-1.01-6.25 1.35-8.35z"/></svg>