<!DOCTYPE svg PUBLIC "-//W3C//DTD SVG 1.1 Basic//EN" "http://www.w3.org/Graphics/SVG/1.1/DTD/svg11-basic.dtd" [
	<!ENTITY ns_flows "http://ns.adobe.com/Flows/1.0/">
]><svg baseProfile="basic" xmlns="http://www.w3.org/2000/svg" width="647" height="545" viewBox="-0.002 0 647 545" enable-background="new -0.002 0 647 545"><path fill="#fff" d="M271.328 20.826c38.67-16.36 81.23-23.05 123.08-20.18 40.97 3.08 81.25 15.48 116.64 36.41 31.72 18.69 59.58 43.91 81.312 73.64 25.37 34.62 42.3 75.41 48.7 117.87 4.91 33.66 3.91 68.34-4.142 101.438 5.24 10.25 7.86 22.052 6.09 33.512-2.02 17.25-13.08 33.028-28.478 41.02-3.512 2.41-8.71 2.45-11.102 6.28-28.05 44.94-69.51 81.48-117.86 103.21-10.09 4.71-20.6 8.44-31.148 11.96l-2.188.48c-50.82 15.6-106.29 15.05-157.04-.62-37.99-12.03-73.38-32.33-102.6-59.46-27.98-25.79-50.44-57.54-65.33-92.57-6.64-15.37-11.45-31.45-15.37-47.69-7-4.277-15.44-5.5-23.5-4.567-16.65 1.72-32.4 7.737-48.51 11.857 11.48-8.46 24-15.5 36.98-21.37-20.62.27-40.84 5.12-60.84 9.762C10.66 323.14 5.3 324.507 0 326.037c20.59-22.03 47.68-36.938 75.61-47.6-9.55-1.22-19.23-2.353-28.35-5.62-8.55-2.86-16.52-7.29-23.68-12.75 6.9-.21 13.83.228 20.71-.57 21.24.15 43.54-1 62.48-11.67 3.478-46.05 19.318-91.1 45.318-129.25 29.2-43.172 71.12-77.672 119.24-97.752z"/><path fill="#060305" d="M345.297 10.256c34.07-3.5 68.9-1.19 101.82 8.56 69.63 19.84 129.75 70.28 161.51 135.32 15.7 31.52 24.84 66.33 26.45 101.51-.23 7.358 1.1 14.7.13 22.04-.22 14.488-2.17 28.88-4.84 43.108-1.93-1.81-3.9-3.568-5.94-5.238 2.932-18.78 5.063-37.852 3.842-56.87-.263-4.972-.422-9.94-.91-14.892-3.98-39.48-17.312-78.01-38.892-111.33-21.71-33.83-51.56-62.4-86.3-82.61-36-20.96-77.24-33.09-118.92-34.08-5.01-.74-10.09-.2-15.13-.37l-.67.49c-43.75.62-87.052 14.05-124.352 36.74-36.56 22.38-67.37 54.1-88.55 91.38-16.34 28.47-26.9 60.2-31.11 92.74-1.97 2.4-4.89 3.74-7.49 5.33 4.75-48.488 24.04-95.32 54.14-133.58 31.42-40.09 74.79-70.75 123.17-86.73 16.902-5.588 34.37-9.428 52.04-11.518z"/><path fill="#030203" d="M356.777 31.216c5.17-2.61 12.37-3 16.67 1.43 2.94 2.65 3.41 6.82 4.39 10.44-2.81.24-5.63.4-8.438.37-.96-1.78-1-4.61-3.22-5.35-1.79-.46-3.63.05-5.41.25-.142 1.5-.22 3-.26 4.51 5.078 1.87 10.778 2.93 14.76 6.9 4.45 4.2 4.1 11.38 1.438 16.46-3.97 7.46-15.1 8.49-21.3 3.35-3.31-3.13-3.94-7.81-4.62-12.07 3.02 0 6.04 0 9.062-.03.66 1.83.92 3.89 2.17 5.47 1.23 1.85 3.608 1.13 5.48 1.23 1.317-2.32 2.06-5.06 1.188-7.67-2.91-2.74-7.24-2.7-10.67-4.49-7.92-3.46-8.76-16.47-1.24-20.8z"/><path fill="#040205" d="M396.438 31.646c4.95-1 11.13-.85 14.78 3.21 3.01 3.06 3.39 7.62 3.35 11.68-2.61-.07-5.21-.29-7.79-.61-.85-1.86-1.36-3.84-2.13-5.73-1.71-.25-3.75-1.65-5.312-.37-2.02.93-2.28 4.08-.12 5 4.24 2.25 9.062 3.99 12.022 8 3.76 4.66 2.648 11.64-.53 16.3-5.108 7.23-17.55 6.85-22.42-.4-2.26-3.35-2.1-7.59-2.24-11.44 2.972.36 5.94.77 8.93.93.53 2.29.302 5.01 2.08 6.79 1.022.602 2.2.852 3.33 1.182.58-.32 1.722-.95 2.292-1.27 1.23-2.18 1.488-4.66 1.04-7.1-4.012-2.54-8.932-3.78-12.272-7.26-4.7-5.862-2.65-16.592 4.99-18.912zM316.248 37.856c3.68-2.91 8.75-3.62 13.23-2.46 5.24 1.86 8.75 6.98 9.478 12.39-2.938.75-5.892 1.48-8.88 1.92-.46-1.45-.91-2.9-1.36-4.34-1.58-.36-3.15-.71-4.728-1.06-1.57 1.09-3.58 1.97-4 4.05.92 5.55 2.1 11.06 3.4 16.52.71 3.7 5.918 4.89 8.398 2.21 1.68-1.46 1.05-3.94 1.39-5.88 2.71-.85 5.46-1.7 8.29-2.08 1.91 2.62 1.75 6.22.98 9.23-1.96 5.27-7.43 8.14-12.58 9.46-6.8.95-14.478-3.67-15.54-10.74-1.2-6.18-2.47-12.35-3.52-18.55-.858-4.36 2.16-8.21 5.442-10.67zM456.238 58.906c2.22-4.65 6.45-9.25 12.028-9.01 7.74.05 16.5 6.42 15.2 14.92-1.12 5.85-4.51 10.91-6.62 16.42-2.398 5-4.148 10.34-7.03 15.1-2.728-.71-5.198-2.11-7.76-3.24.642-3.82 2.75-7.12 4.19-10.65 2.358-5.59 5.05-11.04 7.28-16.68.92-1.88-.272-3.69-.87-5.44-2.38-.35-5.683-1.16-6.96 1.58-4.052 8.89-7.882 17.88-11.94 26.76-3.31-.33-6.27-1.95-9.09-3.58 3.79-8.75 7.76-17.43 11.572-26.18z"/><path fill="#050205" d="M243.658 68.526c2.6-1.56 5.17-3.2 7.9-4.53 6.11 9.66 11.38 19.84 17.4 29.56 4.52-2.55 8.91-5.31 13.52-7.66 1.54 2.54 3 5.12 4.35 7.76-7.26 3.91-14.28 8.25-21.49 12.272-7.25-12.463-14.31-25.022-21.68-37.402z"/><path fill="#040205" d="M495.248 71.616c6.49-4.32 16.43-1.81 20.07 5.08 1.09 1.82 1.608 3.9 2.31 5.9-.2 2.81-.58 5.77-2.34 8.09-3.79 5.24-7.312 10.68-11.28 15.78-2.91 3.64-8.05 4.41-12.38 3.42-8.08-1.53-14.05-10.85-10.77-18.68 2.078-3.76 4.857-7.09 7.187-10.7 2.283-3.05 4.092-6.58 7.203-8.89z"/><path fill="#FEFEFE" d="M497.438 81.715c1.08-1.77 2.96-2.69 4.8-3.5 1.522.67 3.04 1.36 4.54 2.1.81 2.26 1.84 4.94.24 7.13-2.37 3.64-4.88 7.19-7.44 10.69-2.37 2.89-6.68 3.04-9.52.77-.398-1.12-.8-2.22-1.2-3.33 1.89-5.16 5.58-9.34 8.58-13.86z"/><path fill="#040204" d="M219.397 86.835c4.96-5.17 14.41-6.29 19.59-.84 6.87 7.45 13.95 14.73 20.64 22.37-2.18 2.01-4.29 4.1-6.47 6.1-7.15-6.8-13.29-14.58-20.4-21.41-1.49-1.59-3.8-.92-5.71-.98-1.23 1.89-2.59 4.562-.83 6.59 6.33 7.17 12.97 14.08 19.58 21-.03.61-.05 1.23-.07 1.852-2.25 1.8-4.278 3.85-6.41 5.79-5.96-6.6-12.22-12.93-18.108-19.59-1.65-1.68-3.45-4.03-6.13-3.27-2.75.77-4.44 4.5-2.12 6.67 6.57 7.36 13.39 14.5 20.18 21.67-2.01 2.44-4.43 4.48-6.84 6.52-6.81-7.07-13.39-14.37-20.16-21.47-3.94-3.76-4.63-9.92-2.48-14.79 1.74-5.1 6.99-8.03 12.19-8.27.747-2.812 1.457-5.78 3.547-7.942z"/><path d="M299.047 101.326c35.38-16.24 76-20.57 114.05-12.45 36.75 7.68 70.842 27.14 96.44 54.55 13.99 15.07 25.51 32.4 33.938 51.16 5.7 13.38 10.34 27.312 12.66 41.71-19.13-3.75-38.02-8.84-56.39-15.39-8.72-3.15-17.36-6.63-25.51-11.07-1.29-.67-2.44-1.55-3.33-2.68-3.69-4.38-7.38-8.74-11.08-13.1-.932-1.71-2.932-1.062-4.48-1.142-.34-1.778-.6-3.568-.83-5.35-3.63-3.7-3.55-8.96-3.72-13.79-1.5-14.65-.78-29.71-5.1-43.96-5.67-12.62-17.29-22.83-31.12-25.23-9.772-1.53-19.88-.77-29.38 1.95-17.66 4.95-33.802 14.06-49.11 23.97-13.83 9.09-26.97 19.2-39.69 29.77-15.73.87-30.27 7.54-44.09 14.59-9.06 4.41-18.1 9.29-28.05 11.37-4.95.63-9.93 1.01-14.8 2.19 18.612-38.228 50.843-69.59 89.592-87.098z"/><path fill="#040204" d="M527.228 92.696c1.688-1.7 3.16-4.15 5.89-3.98 4.41 5.37 11.49 8.9 13.36 16.03.64 3.89-.21 8.24-3 11.15-4.08 4.59-8.262 9.1-12.59 13.46-3.46 3.64-9.12 3.94-13.642 2.49-5.69-3.07-10.05-8.02-14.75-12.37 8.01-9.14 16.63-17.72 24.732-26.78z"/><path fill="#FEFFFE" d="M532.427 101.526c2.562 1.54 4.66 3.84 4.812 6.99-4.54 4.91-9.07 9.84-13.7 14.67-1.432-.03-2.87-.05-4.29-.08-1.21-1.18-2.432-2.36-3.642-3.52 5.69-5.94 11.31-11.95 16.82-18.06z"/><path d="M360.396 134.686c13.932-8.01 28.75-15.58 44.932-17.43 10.26-1.38 21.82 1.65 28.23 10.25 5.228 5.72 5.81 13.81 6.52 21.15.92 7.37.51 14.84 1.648 22.2-2.87.55-5.71 1.37-8.63 1.6-1.5-.71-2.99-1.4-4.31-2.39-.51-2-.82-4.04-1.13-6.08-11.79 2.19-24.222 4.63-33.87 12.228-4.852 3.7-7.723 9.42-8.723 15.36-.01 1.79-.05 3.59.08 5.4 1.63 1.358 3.972 1 5.94 1.488-2.75 5.052-5.21 10.342-5.96 16.102v4c4.61-.72 8.53-3.36 12.84-4.95-.19 1.03-.56 3.09-.74 4.12-.09 1.4-.17 2.8-.238 4.2.898 2.22 1.988 4.35 3.25 6.38 6.21-1.352 11.578-4.94 17.51-7.062-.17.86-.51 2.58-.682 3.44.24.68.71 2.03.94 2.7 6.38-1.562 12.44-4.3 17.81-8.08 7.012-4.5 13.82-10.41 22.352-11.52 4.76 3 6.98 9.2 12.01 12.09 8.182 4.94 17.063 8.58 25.96 12 18.28 6.79 37.09 12.15 56.17 16.16 9.92 2.17 20.03 3.65 29.65 6.99 5.38 1.95 10.8 5.24 13.18 10.69 4.48 10.71 4.42 23.38-.857 33.79-4.73 8.72-13.172 15.84-23.052 17.737-39.56 9.15-79.76 15.3-119.98 20.65-11.95 1.318-23.87 2.76-35.85 3.77-27.62 2.47-55.352 3.86-83.102 3.52-9.09.13-18.26-.08-27.14-2.188-3.48-1.32-7.05-2.8-9.56-5.66-3.44-3.34-4.4-8.2-5.28-12.71-1.47-8.278-3.44-16.52-3.72-24.96-.31-7.34 2.18-14.352 3.57-21.47 4.31-21.48 7.688-43.17 13.18-64.41.728-2.6.318-5.35 1.04-7.95 2.89-12.08 6.3-24.02 9.42-36.04.37-1.03.51-2.27 1.38-3 14.394-11.616 29.273-22.706 45.212-32.116z"/><path fill="#040204" d="M526.217 143.136c11.67-8.44 23.3-16.93 34.99-25.34 4.17 6.01 8.58 11.85 12.82 17.81-2.41 1.7-4.683 3.62-7.29 5-2.86-3.24-5.25-6.87-7.75-10.39-1.86 1.3-3.74 2.57-5.62 3.83.108 2.92 2.52 4.91 3.897 7.31-2.21 1.65-4.45 3.28-6.75 4.81-1.528-2.13-3-4.3-4.72-6.27-1.99 1.16-3.85 2.51-5.73 3.82-.328.41-.988 1.23-1.318 1.64 2.54 3.43 5.08 6.86 7.47 10.41-2.37 1.8-4.8 3.51-7.31 5.11-4.15-5.97-8.84-11.57-12.69-17.74z"/><path fill="#030205" d="M185.187 122.556c.94-1.27 1.71-2.73 3.02-3.66 2.61 1.16 4.69 3.22 7 4.88-1.82 2.53-3.69 5.01-5.37 7.65 9.23 6.61 18.34 13.38 27.59 19.95-1.37 2.6-3.18 4.92-4.95 7.25-9.41-6.66-18.63-13.58-28.05-20.22-1.6 2.37-3.12 4.81-4.96 7-2.93-.15-4.97-3.03-7.42-4.42 3.99-6.41 8.88-12.2 13.14-18.43z"/><path fill="#030104" d="M161.748 160.056c1.57-3.05 3.15-6.1 5.06-8.95 12.35 6.72 25.02 12.94 37.17 20.01.15 3.38-2.71 6.4-4.3 9.31-5.11-2.44-9.79-5.8-15.13-7.7-.79 1.74-1.6 3.49-2.39 5.25 4.82 2.88 10.16 4.88 14.73 8.2-1.47 2.98-3.08 5.892-4.64 8.82-12.67-6.37-25.09-13.25-37.63-19.84-.47-1.9 1.17-3.65 1.84-5.36.89-1.25 1.25-3.23 2.82-3.78 5.08 2.27 9.778 5.33 14.858 7.63.94-1.75 1.9-3.49 2.92-5.2-5.08-2.84-10.278-5.47-15.308-8.39z"/><path fill="#090307" d="M543.368 164.816c1.13-3.08 4.95-3.27 7.38-1.66 1.06 2.18 1.15 4.49-.06 6.63-1.222.48-2.432.96-3.643 1.46-2.228-1.25-5.517-3.5-3.677-6.43z"/><path fill="#070406" d="M395.857 184.926c9.18-7.9 20.74-11.9 32.108-15.46l.82.6c1.32.99 2.81 1.68 4.31 2.39-12.63 4.99-24.8 11.07-37.26 16.45-.02-1.34-.007-2.65.022-3.98z"/><path fill="#030204" d="M553.967 178.476c1.67-3.94 5.46-6.34 9.23-7.99 1.29 2.97 2.647 5.91 3.92 8.9-2.59 1.39-5.012 3.44-4.45 6.68 1.5.38 3.07 1.7 4.66.89 9.47-3.81 18.52-8.58 27.88-12.64 1.35 3.14 2.88 6.19 4.14 9.37-6.81 3.29-13.74 6.34-20.55 9.63-4.7 1.89-9.58 4.7-14.82 3.71-8.04-1.34-13.53-11.09-10.01-18.55z"/><path d="M232.357 199.306c23.92-4.82 43.23-22.87 67.8-25.4-2.84 11.61-6.28 23.07-9.07 34.7-.84 3.64-.7 7.45-1.83 11.03-6.39 24.81-9.6 50.3-15.55 75.21-1.61 7.478-.71 15.21.71 22.647.71 4.97 1.76 9.93 3.7 14.59-8.19.352-16.23 3.142-23.2 7.392-7.95 4.68-13.92 12.898-23.51 14.438-12.01.87-22.33-6.85-34.08-7.74-4.26-.02-8.23 2.11-12.52 1.94.78-.58 1.56-1.14 2.35-1.7 6.01-3.148 11.99-6.79 18.84-7.77 8.36-.95 16.77-1.54 25.07-2.92 4.54-.82 8.72-2.96 12.18-5.99 4.56-3.84 12.05-4.67 14.13-10.99.44-4.5-.5-11.76-6.13-12.358-4.8.688-8.75 3.898-12.45 6.81-6.16 4.85-11.72 10.5-18.37 14.71-2.99 2.063-6.77 1.46-10.188 1.51-5.062-.08-9.87-1.988-14.892-2.37-7.59.803-14.84 3.393-22.03 5.83-5.51 1.7-11.14 3.563-16.98 3.272-7.93-.23-15.49-3.12-22.5-6.65 4.82-.16 9.69.272 14.48-.52 16.21-2.33 30.88-10.19 46.67-14.08 5.04-1.48 10.47.04 15.43-1.89 7.45-2.58 14.47-8.812 15.49-16.972.51-3.16-.74-6.1-2.21-8.79-4.48-4.07-10.71-1.608-15.31.892-13.28 7.52-24.19 18.52-37.37 26.188-3.57 2.03-7.65 3.23-11.78 3.062-8.83-.24-17.29-3.052-25.97-4.4-8.01-1.49-16.18-1.2-24.28-.88 15.25-7.38 32.64-6.61 48.97-9.6 5.98-1.15 12.5-1.94 17.39-5.87 1.94-1.4 2.01-3.98 2.34-6.12-2.05-5.75-6.8-11.23-13.318-11.36-10.11.313-18.51 6.71-26.64 12-5.62 3.63-11.3 8.87-18.51 8.022-7.39-1-14.61-3.44-22.14-3.342l-.65-.43c-7.25-.13-14.49.64-21.61 1.97 6-3.75 12.06-7.658 18.94-9.58 8.13-2.37 16.74-1.42 25-2.92 13.77-3.898 22.65-16.188 34.96-22.738 3.68-1.79 7.86-3.28 11.99-2.37 10.39 1.68 16.56 11.818 26.51 14.55 8.88 2.18 18.17-1.19 25.35-6.4 3.9-2.71 7.09-6.6 8.15-11.31-1.79-4.98-8.01-5.95-12.62-5.52-7.73.69-12.27 7.77-18.79 11.04-9.72-1.07-16.82-8.47-25.74-11.61-5.74-1.45-12.4-.75-17.05 3.19-7.41 5.96-15.18 11.94-24.47 14.63-10.79 3.5-22.44 1.76-32.98-1.78 11.02-1.12 22.2-3.47 31.75-9.34 11.71-6.98 20.42-19.38 34.46-22.04 7.81-2.03 15.53 1.47 22.24 5.17 4.24 2.12 8.85 4.63 13.75 3.7 7.39-1.68 12.75-7.39 18.98-11.27 2.95-1.91 6.938-2.08 9.18-5.05 1.88-1.563 1.25-4.13 1.41-6.262-1.92-2.13-4.53-3.81-7.522-3.23-9.72.84-15.47 10.312-24.52 12.89-3.44.74-6.71-.84-9.92-1.84-5.33-1.85-10.91-3.22-16.6-2.96-5.21-.26-10.16 1.54-15.22 2.432 2.38-2.11 4.73-4.37 7.72-5.6 7.1-3.22 15.14-1.84 22.59-3.49 6.79-1.67 11.99-6.59 17.8-10.16 6.07-4.13 12.92-7.15 20.15-8.54 3.95-.965 8.07-.744 12.04-1.664z"/><path fill="#110506" d="M402.477 198.946c8.41-5.98 16.5-12.79 26.15-16.72-2.18 2.47-4.64 4.66-7.24 6.65-9.92 7.68-19.98 15.17-30.28 22.33 2.06-5.37 7.22-8.6 11.37-12.26z"/><path fill="#020203" d="M437.238 191.816c2.858-1 5.95-1.28 8.92-.58.23 5.41-4.96 8.57-8.41 11.9-10.78 8.6-23.33 14.618-36.04 19.778.75-5.29 2.55-10.33 4.438-15.29 10-5.918 20-12.12 31.092-15.808z"/><path fill="#040104" d="M584.988 205.516c2.188-4.062 6.98-5.65 11.29-6.13 8.34.118 13.06 9.96 11.14 17.23-1.3 4.97-6.13 7.49-10.53 9.24-.76-2.71-1.448-5.44-2.147-8.16 1.51-1.272 4.35-1.82 4.34-4.21.05-1.44-.25-2.85-.398-4.272-1.41-.43-2.83-.818-4.25-1.13l-1.35 2.34c-.21 5.9-.59 12.672-5.32 16.892-3.46 3.52-8.85 3.43-13.38 2.76-7.88-2.1-11.51-11.91-8.66-19.11 2.03-4.39 6.69-6.46 10.98-8.028.89 2.91 1.63 5.858 2.33 8.818-2.25 1.4-6.19 2.472-5.563 5.892-.37 1.8 1.42 2.64 2.448 3.76 2.27-.24 5.222.11 6.59-2.19 1.18-4.492.46-9.423 2.48-13.702z"/><path fill="#FEFEFD" d="M335.998 249.585c2.682-8.818 11.352-13.98 20.102-15.06 6.98-.42 14.56.67 20.08 5.31 3.79 2.91 5.238 7.67 6.55 12.062 2.14 0 4.29.05 6.438.2.36-5.65 5.2-9.92 10.22-11.762 3.11-1.27 6.07.5 8.79 1.83 2.313-1.12 4.36-3.25 7.15-2.858 2.39-.27 4.79 2.028 7.06.68 3.37-1.87 7.73-2.45 11.103-.26 3.53 1.648 4.73 5.66 5.65 9.13 7.08-2.47 15.568-2.99 21.818 1.85 1.83-.81 3.64-1.67 5.45-2.54 1.31-6.05 7.96-10.02 13.898-8.46 6.57 1.41 10.82 9.7 6.55 15.45 1.022 3.5 1.302 7.24-.04 10.71 2.642 2.62 5.512 5.79 4.892 9.83.49 5.47-3.56 9.82-7.74 12.7 2.682 4.08 1.03 8.97 2.58 13.34 1.01 4.2.23 9.05-3.148 12.02-4.642 4.962-12 4.23-18.13 5.353-1.12-.72-2.24-1.44-3.36-2.13-6.24 2.937-13.95 3.478-19.69-.893-2.26 2.142-4.978 3.682-7.96 4.563-3.05 4.188-7.067 8.38-12.39 9.31-5.14.182-8.72-4.45-9.64-9.108-5.16 1.62-10.48.89-15.5-.84-4.392 3.52-10.49 3.938-15.7 2.188-2.23 4.35-5.37 8.34-9.852 10.53-9.56 4.778-22.7 3.18-29.56-5.49-5.73-7.07-4.79-18.13 1.96-24.22-1-2.19-1.77-4.472-2.19-6.83-1.35-.4-2.687-.812-4.02-1.2-1.28.67-2.562 1.34-3.83 2.02-6.77.022-13.62-.67-20.25 1.092-1.87-1.34-4.1-2.36-5.33-4.38-1.16-2.07-.92-4.5-.98-6.77-8.66-2.54-11.47-14.64-5.46-21.06 3.722-4.012 9.49-4.672 14.66-4.433 3.27-1.59 7.14-3.72 10.64-1.29 4.392 1.92 3.77 7.37 6.02 10.85 3.343 2.23 7.08-.91 10.683-.92-7.252-3.794-9.272-13.064-7.522-20.515z"/><path fill="#060305" d="M352.377 242.076c5.86-1.74 12.592-1.61 17.94 1.57 5.648 3.14 7.478 11.47 3.608 16.67-1.61 2.14-4.29 2.97-6.64 3.98 2.87 7.57 7.3 16.15 15.64 18.59 4.82 1.312 8.602-3.448 13.28-3 2.608.07 2.41 3.33 2.63 5.19-4.33 6.658-13.73 7.818-20.49 4.488-6.78-3.47-11.148-10.28-13.89-17.17-1.09-2.75-1.972-5.56-2.9-8.36-.43.063-1.31.17-1.74.23.102 1.66.212 3.33.33 5 1.062.48 2.12.96 3.19 1.45-.272 1.23-.56 2.472-.87 3.7-1.938 3.39-4.88 6.12-8.3 7.978-.98-.93-2.21-1.642-2.852-2.852.81-2.277 2.61-4.197 2.688-6.72.143-4.34-.47-8.67-.39-13.01.11-2.58-1.728-4.58-3.09-6.55 2.12-2.86 5.73-2.36 8.86-2.29.31.54.63 1.08.96 1.63-.432 2.29-.62 4.608-.7 6.938 2.85-.01 6.33.36 8.188-2.33 2.92-3.26.21-8.318-3.56-9.448-5.8-1.972-14.172-.53-16.49 5.89.97 3.63 4.55 6.24 4.31 10.19-1.54.58-3.17 1.93-4.858 1.01-4.73-2.44-6.34-8.602-4.81-13.43 1.198-4.705 5.448-8.045 9.957-9.344z"/><path fill="#0B0506" d="M426.057 245.266c1.54-.562 3.2-.19 4.8-.15 1.352 2.42 2.24 6.13-.29 8.09-2 .77-4.948.65-5.858-1.64-1.462-2.08-.143-4.66 1.347-6.3z"/><path fill="#070306" d="M395.768 251.456c1.29-2.75 4.17-4.21 6.818-5.38 3.602 8.21 1.53 17.5 3.16 26.11.89 1.05 1.92 1.99 2.91 2.97.03.54.08 1.63.11 2.17-3.49 1.65-7.44 1.22-11.17.96-.032-.61-.08-1.84-.11-2.45.71-1.09 1.43-2.18 1.98-3.358-.142-5.92-.95-11.812-.842-17.74-.957-1.072-3.446-1.363-2.856-3.282zM409.498 249.696c2.068-1.78 4.182-3.68 6.94-4.25 2.14 4.77 1.75 10.13 2.26 15.23.38 4.5-.94 9.868 2.71 13.35h3.64c.48-.57 1.432-1.7 1.9-2.26.028-3.02.028-6.04-.11-9.05-.89-.22-2.67-.65-3.56-.87.84-3.61 4.06-5.73 7.26-7.05 2.18 5.08 1.148 10.75 2.2 16.07 1.068 1.11 2.148 2.22 3.24 3.33-.04.49-.11 1.45-.142 1.93-3.23.603-6.51.87-9.79.91-1.02-.77-2.04-1.51-3.05-2.27-2.45 4.52-8.41 3.14-12.5 2.25.87-2.41 2.88-4.54 2.55-7.263-.2-4.33-.5-8.658-.71-12.988-.15-1.04-.28-2.07-.39-3.102-2.118-.368-2.38-2.187-2.448-3.967z"/><path fill="#090508" d="M473.578 248.106c2.06-3.92 9.45-2.08 8.37 2.67-1.36 2.34-4.12 1.2-6.27 1.33 2.318 3.14 6.778 6.02 5.27 10.53-1.79 4.198-7.03 4.54-10.852 5.8-.2.43-.6 1.29-.8 1.73 4.13 2.12 8.7-1.2 12.85.82 2.022.7 2.772 2.87 3.61 4.64-1.42 6.92-9.19 9.608-15.47 9.13-2.67-.47-6.2-.85-7.59-3.5-1.25-2.42 1.04-5.39 3.63-4.92 2.26 1.58 4.21 3.602 6.71 4.84 2.29-.87 6.43-1.25 5.68-4.67-1.24-1.72-3.55-1.5-5.39-1.35-2.772.22-5.55.22-8.33.158-.72-.72-1.432-1.44-2.142-2.15-.01-.92-.01-1.83-.01-2.728 1.1-1.01 2.21-2.02 3.34-3-1.272-1.45-3.21-2.57-3.55-4.602-.73-2.26.56-4.358 1.408-6.35 3.05-1.66 6.39-2.59 9.82-3.06-.485-1.71-1.895-3.8-.284-5.318z"/><path fill="#070406" d="M446.847 256.375c2.42-1.52 5.62-3.56 8.41-1.68 3.02 2.05 2.6 6.04 2.9 9.21-.13 2.7 2.777 4.02 2.97 6.64-2.51 2.67-5.01 7.182-9.37 5.57.79-5.24 2.21-10.95-.27-15.95-1.53.392-3.03.8-4.553 1.19-.398 2.108-1.148 4.22-.85 6.398.26 2.91 2.97 4.57 4.3 6.98-3.48 1.7-7.358 1.71-11.13 1.5l-1.57-1.93c.96-1 1.932-1.98 2.95-2.922.27-.818.562-1.618.84-2.43-.438-2.16-.64-4.35-.76-6.54l-2.98-.56c.02-1.54.398-3.01.96-4.42 1.71-1.15 3.41-2.32 5.16-3.432 1.078 1.222 1.817 2.65 2.538 4.12.115-.432.346-1.302.455-1.743z"/><path fill="#FCFDF8" d="M468.057 260.496c.76-2.84 4.062-2.648 6.36-2.28.74 1.132 1.34 2.33 1.78 3.632-1.61.97-3.33 1.71-5.063 2.42-1.207-.992-4.047-1.592-3.077-3.772z"/><path fill="#070409" d="M380.688 259.215c4.39-2.158 10.39-.688 12.688 3.79 2.07 4.512 2.18 10.53-1.57 14.2-2.75 3.04-7.448 2.7-11.067 1.82-7.622-3.34-7.722-16.45-.052-19.81z"/><path fill="#EADFD7" d="M359.816 264.266c.432-.062 1.312-.17 1.74-.23.932 2.8 1.812 5.61 2.9 8.36-.67.67-1.34 1.34-1.99 2.02.31-1.23.6-2.47.87-3.7-1.07-.488-2.13-.97-3.19-1.448-.12-1.672-.23-3.342-.33-5.002z"/><path fill="#FDFEFC" d="M381.917 264.416c2.142-2.398 6.6-.85 6.98 2.29.318 2.59.818 6.16-2 7.62-1.972.27-4.62.51-5.542-1.72-1.21-2.47-1.447-6.1.562-8.19z"/><path fill="#0D0506" d="M319.267 268.166c1.44-1.608 3.22-2.64 5.43-2.2-.01 1.82.272 3.98-1.5 5.12-1.57.38-3.18.41-4.77.552.23 3.818.18 7.648.51 11.46.68.85 1.37 1.71 2.06 2.578-1.89 2.562-3.83 5.93-7.54 5.642.66-4.063 2.892-8.63.142-12.4-1.62 2.53-5.88 2.16-7.48-.188-2.29-2.61-1.81-7.21 1.13-9.16 3.477-2.525 8.047-.974 12.017-1.404z"/><path fill="#FCFBF7" d="M308.357 276.045c.42-1.618.15-3.79 2.06-4.48 1.29-.27 2.602-.4 3.932-.4.09 1.95.22 3.91.398 5.88-2.01-.98-4.24-.85-6.39-1z"/><path fill="#0D0607" d="M323.198 271.085c.73.27 2.188.802 2.93 1.062.37 2.08.392 4.21.552 6.33 2.25-1.142 4.56-1.55 6.778-.09.23 1.93.43 3.858.58 5.8.608.858 1.23 1.73 1.85 2.608-1.118 1.313-2.27 2.592-3.478 3.83l-2.87-.56c1.05-2.91 1.858-6.3-.09-9.05-.93.33-1.812.777-2.688 1.22.02 1.39.078 2.8.18 4.2.71 1.16 1.45 2.31 2.23 3.438-2.38.33-4.78.54-7.18.59-.052-.38-.15-1.148-.2-1.54.62-.948 1.24-1.88 1.83-2.827-.73-3.07-.682-6.24-.69-9.37-3.564-.83-.404-3.71.266-5.64z"/><path fill="#0E0406" d="M339.816 277.166c3.062-.607 7.262-.34 7.98 3.45 1.2 4.32-4.56 3.78-7.26 3.9.14.437.43 1.317.58 1.76 2.31-.05 4.437-1.07 6.72-1.33.77 5.46-8.7 6.29-10.18 1.44-1.808-3.26-.368-6.87 2.16-9.22z"/><path fill="#9E593C" d="M339.217 280.736c1.88-.57 3.78-1.09 5.71-1.52.35 3.53-4.03 3.89-5.71 1.52z"/><path fill="#070306" d="M360.387 286.386c2.09.31 3.98-2.37 5.95-.852 2.68 2.25 4.31 5.84 4.18 9.352-.88.73-1.89 1.25-2.88 1.8-2.52-2.102-5.05-4.3-8.188-5.38-1.223.44-2.45.88-3.66 1.33-.16 1.5-1.83 3.51.2 4.408 5.198 3.012 11.55 3.682 16.31 7.592 2.82 3.77 3.8 8.47 3.35 13.108-3 11.53-19.148 14.66-27.47 7.02-5.2-4.29-5.25-14.16 1.01-17.51 3.28-2.03 8.07-2 10.562 1.25-.46 1.09-.908 2.19-1.36 3.29-2.228.76-4.958.88-6.5 2.88-.77 2.82.372 6.182 3.212 7.34 3.76 1.66 8.858 1.28 11.83-1.75 3.358-3.83 2.35-10.54-2.2-12.988-4.47-2.37-9.68-3.19-13.9-6.07-3.31-2.29-3.88-7.21-1.487-10.357 2.31-3.684 6.9-5.024 11.04-4.464z"/><path fill="#080506" d="M464.978 291.406c2.73-2.438 6.83 0 9.62-2.32.51 0 1.54-.01 2.05-.01 1.358 2.142 2.41 4.47 3.26 6.88-2.9 2.61-5.85-.06-8.41-1.67-.46.062-1.398.16-1.858.22-.01.78-.02 1.57-.01 2.37 3.29 1.5 7.31 1.88 9.92 4.602 1.99 2.12.57 5-.01 7.42-2.63 2.26-5.99 2.88-9.36 2.28-1.21.59-2.49 1.75-3.92 1.14-2.38-2-3.92-4.95-3.82-8.09 3.63-1.91 6.432 1.63 9.66 2.73 2.38.96 1.852-1.99 2.13-3.272-3.39-1.09-6.83-2.102-10.01-3.73-.36-.58-1.08-1.738-1.438-2.317-.044-2.265.406-4.684 2.196-6.234z"/><path fill="#070306" d="M425.347 294.775c2.77-1.64 6.182-3.42 9.352-1.64 6.107 3.438 6.85 12.71 2.908 18.068-1.95 3.07-6.562 3.98-9.47 1.77-1.71-.88-1.852-3.68-.32-4.79 1.43-.21 2.89-.3 4.36-.278 2.33-2.24 2.93-5.36 1.408-8.25l-2.24-1.56c-2.14.02-4.857.55-5.35 3.04-.37 3.34-.12 6.72.01 10.078-.05 1.93 1.92 2.88 2.812 4.392.46 1.567-1.05 2.64-1.84 3.77-1.932 1.852-3.99 4.57-7.022 3.762-1.22-2.75.5-5.61.42-8.42-.18-4.512-.77-8.99-.65-13.5-.97-.472-1.937-.932-2.89-1.392-.09-.56-.27-1.68-.35-2.24 1.96-2.118 4.1-4.5 7.18-4.737.42.478 1.26 1.447 1.68 1.927z"/><path fill="#070406" d="M445.288 293.686c4.1-4.142 12.25-3.352 14.82 2.14 1.01 2.13 1.64 5.82-1.04 6.95-3.32 1.73-7.11 1.22-10.69 1.25.09.51.29 1.55.39 2.06 3.95 2.92 7.643-1.22 11.772-1.08.08 1.25.34 2.522.18 3.79-1.478 2.644-4.698 3.272-7.318 4.21-4.97.07-9.98-3.117-10.76-8.25-1.154-3.832-.114-8.17 2.646-11.07z"/><path fill="#060207" d="M398.048 297.416c2.52-3.83 7.76-4.06 11.75-2.898 4.96 1.83 5.93 7.76 5.78 12.398-.87 2.71-1.99 5.77-4.75 7.102-2.67 1.56-5.83.96-8.762 1.068-6.388-3.15-8.4-12.09-4.018-17.67z"/><path fill="#080307" d="M380.667 297.005c1.85-1.64 4.36-2.038 6.65-2.698 2.108.738 4.528 1.16 6.148 2.83 1.21 1.63.89 4.158-1.01 5.148-2.73-1.1-5.43-2.568-8.472-2.1-1.71 3.03-2.47 7.54.71 9.897 3.4 1.67 6.6-1.76 10.11-1.22.068 1.78.91 4.21-1.052 5.32-2.658 2.54-6.63 2.687-10.027 1.988-7.525-2.724-9.096-14.184-3.056-19.165z"/><path fill="#FCF7F5" d="M449.118 296.416c2.55-.58 6.29-1.198 6.48 2.48-2.69.77-5.472 1.147-8.262 1.29.572-1.27 1.17-2.52 1.782-3.77z"/><path fill="#FBFCFB" d="M403.107 299.276c1.7-.78 3.58-.22 5.35.01 1.313 2.52 2.352 5.44 1.2 8.25-1.04 3.47-6.72 3.55-7.9.09-.41-2.78-1.01-6.25 1.35-8.35z"/><path d="M581.397 328.356c7.07-1.62 12.2-7.15 17.66-11.37 9.898 1.03 19.31 5.71 26.238 12.83 6.062 6.76 10.24 15.62 9.852 24.85.568 12.26-5.91 24.052-15.34 31.58-15.94 13.09-41.142 13.36-56.87-.23-9.312-7.77-14.602-20.27-13.08-32.358.77-7.35 3.87-14.3 8.34-20.14 7.77-1.532 15.46-3.473 23.2-5.162z"/><path fill="#050305" d="M123.568 336.816c2.91 2.91 5.76 5.88 8.72 8.74 2.15 1.84 2.49 4.81 3.48 7.317 14.26 40.32 38.88 76.9 70.89 105.28 28.52 25.4 62.79 44.38 99.59 54.7 41.932 11.87 86.95 12.67 129.25 2.147 59.96-14.51 113.81-52.108 148.562-103.01 2.938-.34 5.89-.66 8.858-.79-35.35 54.27-91.57 94.67-154.51 110.182-15.13 3.948-30.65 6.3-46.23 7.33-21.34 1.42-42.84.148-63.88-3.66-41.44-7.472-80.9-25.41-113.97-51.44-43.82-34.346-76.36-82.956-90.76-136.796z"/><path d="M520.887 340.456c1.27-.148 2.59-.62 3.892-.3 7.77 6.32 13.317 15.44 14.56 25.46 3.09 19.58-10.96 39.17-29.57 44.72-12.56 4.08-26.988 2.4-37.96-5.08-8.6-5.59-14.97-14.58-17.02-24.67-2.392-10.118-.03-21.118 5.62-29.76.687-1.49 2.488-1.3 3.84-1.56 18.948-2.47 37.807-5.57 56.637-8.81zM259.097 372.656c4.1-12.75 14.13-23.87 27.03-27.99 1.77 5.49 6.1 9.9 11.63 11.63 12.16 4.13 25.23 2.472 37.84 2.842 6.2 9.148 9.43 20.67 7.102 31.64-3.28 19.46-21.7 34.78-41.37 34.76-14.312.7-28.66-6.47-36.7-18.33-6.913-9.953-8.792-22.922-5.533-34.552zM367.417 358.286c21.01-.95 42.02-2.46 62.91-5 7.398 7.51 12.148 17.83 11.72 28.49-.108 12.54-7.01 24.49-17.188 31.63-9.58 6.84-22.07 9.54-33.603 7-14.948-2.95-27.68-14.84-31.21-29.74-.93-6.67-1.02-13.59.99-20.08 1.5-4.4 3.88-8.412 6.38-12.3z"/><path fill="#050304" d="M237.118 366.666c1.55-.778 3.12-1.528 4.7-2.29-3.55 8.602-4.55 17.972-4.08 27.19-6.12-7.09-11.84-14.52-17.12-22.26 5.63.23 11.24-.56 16.5-2.64z"/><path fill="#040204" d="M192.147 399.706c8.11-5.05 15.73-10.88 23.9-15.85 1.93 2.83 3.83 5.68 5.58 8.63-7.37 4.8-14.58 9.82-21.95 14.6-3.48 2.12-7.33 4.33-11.57 3.813-7.53-.25-13.55-8.012-12.39-15.354.83-4.51 4.04-8.47 8.22-10.34 1.62 2.57 3.49 4.97 5.05 7.58-1.46 2.15-4.52 4.12-3.18 7.102 1.61 2.278 4.44.898 6.34-.182z"/><path fill="#030204" d="M214.778 408.217c3.18-2.972 6.8-6.54 11.55-6 7.23.98 13.13 7.35 14.27 14.46.37 4.35-2.3 8.188-5.55 10.8-7.19 6.38-13.84 13.37-21.28 19.47-1.86-1.9-3.74-3.77-5.59-5.67 3.42-4.56 8.04-8.09 12.26-11.88-2.08-2.562-4.29-5-6.54-7.392-4.5 3.42-8.32 7.632-12.62 11.28-1.95-1.74-3.79-3.59-5.62-5.45-.04-.358-.12-1.1-.17-1.47 6.28-6.21 13.02-11.94 19.29-18.148z"/><path d="M388.188 436.424c22.858 2.94 46.84-9.67 57.06-30.397 6.55 8.86 16 15.438 26.5 18.74-.028.21-.108.64-.148.85-35.31 21.76-78.01 31.28-119.18 26.01-15.59-1.96-31-5.818-45.53-11.84 16.88-3.37 31.71-14.92 39.54-30.2 8.648 14.88 24.648 25.11 41.758 26.837z"/><path fill="#FDFCFB" d="M224.158 411.996c3.81-.25 8.2 3.312 6.67 7.38-1.34 1.592-2.99 2.892-4.56 4.25-2.33-2.25-4.59-4.568-6.72-7.01 1.53-1.55 3.07-3.09 4.61-4.62z"/><path fill="#040204" d="M250.248 420.656c2.36 1.562 4.6 3.3 6.88 4.99-3 7.01-5.84 14.1-9.09 21-.11.647-.35 1.938-.47 2.58 6.38-5.57 13.07-10.762 19.61-16.143 2.16 1.79 4.39 3.49 6.67 5.13-11.36 9.592-23.06 18.78-34.51 28.28-2.16-1.64-4.34-3.24-6.54-4.82 5.72-13.717 11.71-27.307 17.45-41.017z"/><path fill="#040206" d="M458.978 449.967c7.98-4.462 15.73-9.312 23.52-14.08 1.61 2.5 3.15 5.05 4.53 7.698-2.53 1.54-5.18 2.88-7.59 4.603.22 1.31.93 2.45 1.6 3.59 5.062 8.41 10.28 16.74 15.17 25.27.23.16.7.48.932.643-2.55 1.48-5.04 3.05-7.48 4.69-6.688-9.4-11.88-19.78-18.228-29.41-2.71 1.58-5.36 3.26-8.16 4.682-1.435-2.576-2.885-5.126-4.294-7.685z"/><path fill="#040205" d="M279.857 445.516c8.08-2.38 17.99 2.738 20 11.1.81 4.42-1.87 8.3-3.72 12.07-3.79 7.688-7.82 15.238-11.72 22.87-2.62-1.15-5.15-2.48-7.65-3.852 2.51-5.1 5.12-10.14 7.66-15.22-2.96-1.5-5.8-3.312-8.98-4.32-2.35 4.94-5.11 9.682-7.38 14.67-2.73-.76-5.25-2.068-7.79-3.27.19-2.3 1.21-4.38 2.29-6.37 3.46-6.87 7.13-13.63 10.5-20.55 1.37-3.06 3.43-6.078 6.79-7.128z"/><path fill="#FDFCFB" d="M282.097 455.217c.57-.222 1.69-.65 2.25-.87 2.67.56 6.59 1.75 6.54 5.108-.65 2.13-1.85 4.04-2.89 6-2.96-1.45-5.92-2.898-8.81-4.488.93-1.94 1.9-3.86 2.91-5.75z"/><path fill="#030103" d="M428.337 460.846c7.062-1.95 14.062-7.552 21.63-4.74 7.28 2.09 11.42 11.26 7.95 18.05-2.2 4.43-6.59 7.11-11.11 8.69 1.882 5 3.94 9.938 5.62 15.02-2.437 1.07-4.92 2.022-7.33 3.13-.6.022-1.198.04-1.79.07-4-10.19-7.81-20.45-11.76-30.66-1.21-3.14-2.73-6.2-3.21-9.56z"/><path fill="#050306" d="M313.017 458.456c4.75-1.41 10.03-.398 14.14 2.3 4.42 3.45 5.28 9.79 3.68 14.9-2.608-.67-5.198-1.4-7.738-2.26-.272-2.143.188-5.16-2.17-6.29-1.432-1.04-3.24-.72-4.87-.83-.5 1.21-.99 2.438-1.472 3.67 4.49 3.99 10.58 6.72 12.87 12.71 2.54 7.71-2.98 16.74-10.93 18.26-1.17-.028-2.32-.04-3.47-.04-4.11-1.028-8.71-2.48-10.932-6.42-2.37-3.818-1.67-8.53-1.04-12.738 2.93.63 5.87 1.29 8.69 2.35.2 2.83-.13 5.9 2 8.14 1.04 0 3.11.013 4.14.013 1.35-1.88 3.02-4 2.7-6.45-3.17-4.3-8.87-6-11.58-10.72-2.45-5.876-.048-13.914 5.98-16.594z"/><path fill="#040105" d="M412.007 463.576c3.17-.67 6.34-1.358 9.55-1.81 2.91 14.06 5.37 28.21 8.352 42.26-2.61.62-5.23 1.18-7.88 1.6-.32.2-.973.602-1.29.813-1.302-3.522-1.78-7.25-2.54-10.894-2.063-10.66-4.173-21.3-6.193-31.97z"/><path fill="#FDFDFB" d="M440.438 466.467c2.59-1.07 5.34-1.842 8.17-1.24 1.108 1.99 1.95 4.34.938 6.568-1.688 1.65-4.04 2.302-6.26 2.893-.97-2.742-2.008-5.452-2.848-8.22z"/><path fill="#030102" d="M342.547 471.186c4.64-7.25 16.4-8.25 22.31-1.98 1.803 1.74 2.633 4.16 3.65 6.393-.01 2.27-.02 4.55-.06 6.84-2.97.107-5.94-.17-8.89-.47-.03-1.53-.07-3.063-.063-4.57-1.95-2.12-4.95-3.353-7.71-2.08-2.45 1.74-2.02 5.03-2.58 7.63-.43 4.25-1.47 8.44-1.43 12.75.37.55 1.13 1.65 1.5 2.2 2.28 1.34 4.818 1.04 7.13-.07.64-1.52 1.278-3.03 1.91-4.54 2.93.32 5.85.78 8.788 1.102-.01 4.39-1.48 9.358-5.608 11.568-6.43 3.48-15.688 2.94-20.33-3.25-3.74-4.108-2.84-10.04-1.9-15.03 1.193-5.474 1.132-11.284 3.283-16.494z"/><path fill="#020103" d="M375.428 467.096c5.608-.79 11.278-1.19 16.948-1.19 2.892-.1 5.5 1.28 7.99 2.6 4.09 5.013 4.84 12.394 1.75 18.093-1 1.987-2.82 3.407-3.87 5.357 2.37 5.562 5.99 10.512 8.75 15.91-3.21.05-6.398.352-9.59.56-3.58-5.368-6.432-11.208-10.4-16.3.05 5.722 1.04 11.38 1.16 17.11-3.03.26-6.04.68-9.08.78-.38-3.063-.48-6.15-.84-9.21-.602-7.342-1.27-14.683-1.932-22.022-.446-3.89-.626-7.79-.886-11.69z"/><path fill="#FEFDFB" d="M385.607 474.906c3.1-.938 6.28-.39 8.95 1.4.358 1.197.738 2.42 1.12 3.63-.762 1.43-1.352 3.147-2.87 3.97-2.04.6-4.142.94-6.24 1.28-.69-3.39-.93-6.83-.96-10.28z"/></svg>