<?xml version="1.0" standalone="no"?>
<!DOCTYPE svg PUBLIC "-//W3C//DTD SVG 20010904//EN"
 "http://www.w3.org/TR/2001/REC-SVG-20010904/DTD/svg10.dtd">
<svg version="1.0" xmlns="http://www.w3.org/2000/svg"
 width="647.000000pt" height="647.000000pt" viewBox="0 0 647.000000 647.000000"
 preserveAspectRatio="xMidYMid meet">
<metadata>
Created by potrace 1.11, written by Peter Selinger 2001-2013
</metadata>
<g transform="translate(0.000000,647.000000) scale(0.100000,-0.100000)"
fill="#000000" stroke="none">
<path d="M3628 5925 c-2 -2 -46 -6 -98 -9 -52 -3 -111 -9 -130 -12 -48 -7
-140 -23 -170 -29 -14 -3 -38 -8 -55 -10 -36 -7 -184 -44 -205 -52 -8 -4 -17
-7 -20 -8 -210 -64 -418 -160 -645 -298 -11 -7 -22 -14 -25 -17 -3 -3 -32 -23
-65 -45 -72 -48 -67 -45 -180 -137 -330 -272 -589 -618 -763 -1018 -52 -121
-121 -326 -137 -410 -2 -8 -8 -33 -13 -55 -6 -22 -13 -56 -16 -75 -3 -19 -8
-47 -11 -63 -12 -67 -15 -86 -20 -142 -10 -103 -8 -100 -92 -133 -98 -39 -146
-51 -259 -67 -38 -6 -249 -15 -408 -18 l-78 -1 28 -23 c84 -68 288 -141 414
-148 49 -2 64 -19 28 -31 -13 -3 -60 -24 -106 -45 -45 -22 -86 -39 -91 -39 -5
0 -14 -7 -21 -15 -7 -8 -21 -15 -31 -15 -11 0 -19 -4 -19 -10 0 -5 -6 -10 -13
-10 -7 0 -36 -16 -66 -35 -29 -19 -55 -35 -57 -35 -6 0 -162 -116 -184 -137
-81 -74 -119 -113 -113 -113 5 0 42 9 83 21 41 11 86 23 100 25 14 3 41 9 60
14 48 12 176 38 225 45 22 4 47 8 57 11 15 4 91 12 181 18 20 2 37 0 37 -3 0
-3 -26 -17 -58 -30 -31 -14 -68 -33 -81 -43 -13 -10 -30 -18 -37 -18 -8 0 -14
-4 -14 -10 0 -5 -5 -10 -10 -10 -6 0 -41 -20 -78 -45 -37 -25 -63 -45 -59 -45
6 0 49 12 167 45 259 75 414 86 501 37 31 -17 36 -28 75 -163 41 -142 72 -233
100 -296 8 -18 21 -50 30 -70 28 -65 106 -217 125 -245 11 -14 19 -29 19 -32
0 -7 130 -208 140 -216 3 -3 33 -41 66 -85 53 -71 290 -319 369 -386 116 -97
395 -289 421 -289 7 0 14 -4 16 -8 4 -12 234 -123 323 -157 74 -28 170 -63
195 -70 45 -13 137 -37 150 -40 8 -2 33 -8 55 -13 22 -6 58 -13 80 -17 22 -3
47 -7 55 -10 28 -8 308 -37 348 -35 24 0 38 0 107 -1 160 -2 442 28 553 60 17
5 32 8 32 6 0 -3 11 0 25 5 14 5 38 12 53 15 38 8 57 13 57 15 0 2 17 6 55 14
14 3 61 20 105 36 44 17 88 33 99 35 10 2 23 8 30 13 6 5 22 13 36 17 26 8
207 96 270 132 81 46 116 68 128 80 7 7 20 13 28 13 8 0 14 4 14 8 0 4 13 16
30 25 16 10 35 23 42 30 7 7 31 24 54 40 22 15 49 35 60 45 11 9 45 39 77 65
104 88 233 222 335 347 29 36 59 73 67 83 8 9 15 21 15 26 0 5 3 11 8 13 4 2
32 40 62 84 52 77 59 83 135 119 259 124 373 428 264 702 -19 48 -20 65 -4
133 8 37 16 81 20 113 2 15 7 45 10 67 20 137 26 453 11 600 -8 77 -24 190
-31 220 -3 14 -7 39 -9 55 -2 17 -6 37 -9 45 -3 8 -10 38 -17 65 -20 82 -71
245 -100 320 -37 97 -42 110 -38 111 2 1 -4 10 -13 20 -9 11 -22 35 -29 54
-19 47 -73 149 -127 240 -41 67 -178 267 -192 280 -3 3 -39 44 -79 91 -87 104
-230 242 -344 334 -46 36 -90 72 -98 78 -40 32 -171 117 -180 117 -5 0 -10 5
-10 10 0 6 -4 10 -10 10 -5 0 -39 18 -75 40 -36 22 -65 37 -65 33 0 -3 -8 1
-17 9 -19 16 -96 53 -196 93 -34 14 -71 30 -82 35 -27 13 -201 69 -228 74 -12
3 -22 5 -22 6 0 1 -7 3 -15 5 -8 2 -26 7 -40 10 -107 28 -282 58 -409 71 -56
6 -358 13 -363 9z"/>
</g>
</svg>
