<svg xmlns="http://www.w3.org/2000/svg" viewBox="0 0 112.76 112.15"><defs><style>.cls-1{fill:#151515;}</style></defs><title>Asset 1</title><g id="Layer_2" data-name="Layer 2"><g id="Layer_2-2" data-name="Layer 2"><path class="cls-1" d="M31.63,61.35a1.89,1.89,0,0,0-1.87-.29,2.72,2.72,0,0,0-1.14.56,11.07,11.07,0,0,0-1.21,1.23l1.24,5.36a9.19,9.19,0,0,0,2.5-.31,2.1,2.1,0,0,0,1.6-1.18,5.36,5.36,0,0,0-.09-2.85A6,6,0,0,0,31.63,61.35Z"/><path class="cls-1" d="M52.53,56.44a2.32,2.32,0,0,0-2.11-.27,2.35,2.35,0,0,0-1.81,1.17,5.24,5.24,0,0,0,.12,2.87,5.2,5.2,0,0,0,1.15,2.61A2.35,2.35,0,0,0,52,63.1a2.32,2.32,0,0,0,1.77-1.17,5.1,5.1,0,0,0-.11-2.85A5.17,5.17,0,0,0,52.53,56.44Z"/><path class="cls-1" d="M96.82,69.83l15.94-7.21L98.67,52.25,110.3,39.17,93.21,35.43l5.31-16.68L81.37,22.29,79.44,4.9,65.22,15.1,56.38,0,47.54,15.1,33.32,4.9,31.39,22.29,14.25,18.76l5.31,16.68L2.46,39.17,14.1,52.25,0,62.62l15.94,7.21L7.28,85l17.5.1-1.72,17.41,16-7,5.51,16.61L56.38,99.21l11.79,12.93,5.51-16.61,16,7L88,85.14l17.5-.1Zm-61.6-2.18q-.76,1.66-3.52,2.3a20.45,20.45,0,0,1-2.75.42,10.43,10.43,0,0,1-2.56,0L23.06,55.88l2.62-.6.82,3.54a9.64,9.64,0,0,1,.31,2.5,5.29,5.29,0,0,1,3.45-2.67,3.43,3.43,0,0,1,3.21.61,7.57,7.57,0,0,1,1.89,4A7,7,0,0,1,35.22,67.65Zm8-9.42A11,11,0,0,0,39.92,60l1.71,7.42L39,68l-2.42-10.5,2-.47.59,1.49a7.13,7.13,0,0,1,3.9-2.84l.51-.12.29,2.51Zm13,4.77q-.88,1.52-3.71,2.18t-4.32-.32q-1.47-1-2.17-4t.19-4.56q.88-1.54,3.74-2.19t4.29.34q1.46,1,2.16,4T56.21,63Zm11-1.52-1.64-7.1a2.15,2.15,0,0,0-.51-1.13,1.07,1.07,0,0,0-1-.11,4.16,4.16,0,0,0-1.42.64A16.49,16.49,0,0,0,61,55.23l1.69,7.31-2.62.6-2.42-10.5,2.19-.5.53,1.5a7.94,7.94,0,0,1,4.12-2.89,3,3,0,0,1,2.32.26A3,3,0,0,1,68,53l1.82,7.89Zm5-1.15-.46-2,4.67-7.94L70.32,51.8l-.46-2,9-2.08.46,2-4.67,7.94,6.26-1.44.46,2Zm16.41-3.52q-2.85.66-4.34-.33t-2.19-4q-.71-3.07.19-4.57a5.36,5.36,0,0,1,3.62-2.13,6,6,0,0,1,3.85.07,3.38,3.38,0,0,1,1.77,2.47q.69,3-2.12,3.65l-4.29,1a2.6,2.6,0,0,0,1.2,1.65,3.56,3.56,0,0,0,2.14,0,33.31,33.31,0,0,0,3.71-1.13l.62,1.62A10.65,10.65,0,0,1,88.61,56.82Z"/><path class="cls-1" d="M88.91,48.89a1.46,1.46,0,0,0-.73-1.1,2.88,2.88,0,0,0-1.71,0,2.59,2.59,0,0,0-1.77,1,3.56,3.56,0,0,0-.06,2.33l3.6-.83Q89.19,50.11,88.91,48.89Z"/></g></g></svg>