<?xml version="1.0" encoding="UTF-8"?>
<svg width="48px" height="48px" viewBox="0 0 48 48" version="1.1" xmlns="http://www.w3.org/2000/svg" xmlns:xlink="http://www.w3.org/1999/xlink">
    <!-- Generator: Sketch 48.2 (47327) - http://www.bohemiancoding.com/sketch -->
    <title>Page 1</title>
    <desc>Created with Sketch.</desc>
    <defs></defs>
    <g id="home" stroke="none" stroke-width="1" fill="none" fill-rule="evenodd" transform="translate(-1125.000000, -5707.000000)">
        <g id="Page-1" transform="translate(1125.000000, 5707.000000)" fill="#151515">
            <path d="M13.6537062,21.1581451 C13.2336,21.2473487 12.9702372,21.4210832 12.8631929,21.6789239 C12.7565735,21.9363398 12.7773876,22.4146407 12.9260602,23.1146761 C13.0717593,23.800269 13.2454938,24.2467115 13.4476885,24.4535788 C13.6494584,24.6612956 13.938308,24.7245876 14.3138124,24.6447292 C14.5644319,24.5916319 14.7738478,24.5066761 14.9412106,24.3902867 C15.1089982,24.2734726 15.3349805,24.0695788 15.6200071,23.7781805 L15.0491044,21.0927292 C14.4280779,21.0706407 13.9629451,21.0923044 13.6537062,21.1581451" id="Fill-1"></path>
            <path d="M34.7852177,21.3448354 L34.0078726,17.6866407 C33.9407575,17.4084106 33.8464566,17.2206584 33.7262442,17.1229593 C33.6056071,17.025685 33.4191292,17.0031717 33.1689345,17.056269 C32.954846,17.1017204 32.7636956,17.1888 32.5950584,17.3170832 C32.4255717,17.4453664 32.1766513,17.6794195 31.8491469,18.0183929 L32.6524035,21.7980743 L31.359377,22.0729062 L30.5816071,18.4151363 C30.5276602,18.1262867 30.4354832,17.9359858 30.3042265,17.8442336 C30.1733947,17.7529062 29.9860673,17.7329416 29.7430938,17.7847646 C29.5366513,17.8285168 29.3472,17.9151717 29.174315,18.0438796 C29.0018549,18.1730124 28.7542088,18.4032425 28.4318018,18.7332956 L29.2371823,22.5240212 L27.8999788,22.8081982 L26.7488283,17.3931186 L27.8430584,17.1603398 L28.0894301,17.9393841 C28.6764743,17.1526938 29.3166159,16.6854372 30.0098549,16.5380389 C30.7392,16.3829947 31.263377,16.5873133 31.5836602,17.1505699 C32.1328991,16.4025345 32.7535009,15.9548177 33.4467398,15.8074195 C33.9254655,15.7058973 34.3171115,15.7572956 34.6229522,15.9620389 C34.9279434,16.1667823 35.1326867,16.5121274 35.2363327,16.9980743 L36.1007575,21.065331 L34.7852177,21.3448354 Z M33.9913062,31.2748885 L33.7232708,30.5578619 C33.2203327,31.2731894 32.582315,31.7128354 31.8087929,31.8772248 C31.1461381,32.0182513 30.6121912,31.8797735 30.207377,31.4609416 C29.8025628,31.0429593 29.4992708,30.3582159 29.2970761,29.4079858 C29.0766159,28.368977 29.0885097,27.6022513 29.3340319,27.1073841 C29.5787044,26.6125168 30.0587044,26.2888354 30.7740319,26.1371894 C31.4659965,25.9902159 32.1001912,26.0208 32.6757664,26.2297912 C32.5763681,25.9426407 32.4816425,25.5854018 32.390315,25.1580743 L32.0594124,23.5999858 L33.4076602,23.3132602 L35.0519788,31.049331 L33.9913062,31.2748885 Z M27.2933947,32.6987469 L26.5160496,29.0405522 C26.451908,28.7381097 26.3678018,28.5422867 26.2641558,28.4526584 C26.1605097,28.3630301 25.9978195,28.3417912 25.7769345,28.3889416 C25.526315,28.4420389 25.2816425,28.5482336 25.0416425,28.7071009 C24.802492,28.8655434 24.5008991,29.1068177 24.1385628,29.4300743 L24.9392708,33.1987115 L23.591023,33.4854372 L22.4402973,28.0703575 L23.5676602,27.8307823 L23.8250761,28.6072779 C24.5306336,27.7955257 25.2438372,27.3125522 25.9659611,27.1592071 C26.4451115,27.0572602 26.8410053,27.1078088 27.1532177,27.3108531 C27.4662796,27.5138973 27.6744212,27.8583929 27.7776425,28.3447646 L28.6420673,32.4120212 L27.2933947,32.6987469 Z M21.6225982,33.3783929 C21.312085,33.8949239 20.6710938,34.2564106 19.6987752,34.4628531 C18.7188106,34.6714195 17.9801204,34.6030301 17.483554,34.2581097 C16.9869876,33.9131894 16.6280496,33.2212248 16.4071646,32.1826407 C16.1862796,31.1436319 16.2321558,30.3637381 16.5452177,29.8429593 C16.8578549,29.3221805 17.5043681,28.9572956 18.4843327,28.749154 C19.4566513,28.5422867 20.1898195,28.6140743 20.6838372,28.9632425 C21.1778549,29.3128354 21.5355186,30.0064991 21.7559788,31.045508 C21.9768637,32.0845168 21.9322619,32.8618619 21.6225982,33.3783929 Z M15.9726159,24.5697558 C15.4705274,25.2846584 14.832085,25.7247292 14.0585628,25.8891186 C13.3954832,26.0297204 12.8619611,25.8912425 12.4571469,25.4728354 C12.0523327,25.0544283 11.7490407,24.3701097 11.546846,23.4194549 C11.3259611,22.380446 11.3382796,21.6141451 11.5838018,21.1188531 C11.8288991,20.6244106 12.3084743,20.3007292 13.023377,20.1486584 C13.7157664,20.0012602 14.3503858,20.032269 14.9255363,20.2412602 C14.8261381,19.9545345 14.7314124,19.5972956 14.6405097,19.1695434 L14.3091823,17.6114549 L15.6574301,17.325154 L17.3017487,25.0612248 L16.2406513,25.2863575 L15.9726159,24.5697558 Z M17.5510938,16.8876319 L18.1699965,16.7563752 C18.4278372,16.701154 18.5841558,16.8031009 18.6389522,17.0609416 L18.768085,17.6688 C18.8228814,17.9266407 18.7213593,18.0829593 18.4635186,18.1377558 L17.8446159,18.2690124 C17.5867752,18.3242336 17.4304566,18.2227115 17.3756602,17.964446 L17.2461027,17.3565876 C17.191731,17.0991717 17.2928283,16.9424283 17.5510938,16.8876319 Z M20.1859965,24.4478442 L18.8487929,24.7320212 L17.6976425,19.3169416 L19.034846,19.0327646 L20.1859965,24.4478442 Z M23.2235894,17.9805876 C23.9236248,17.8314903 24.4673416,17.8624991 24.8547398,18.0727646 C25.2421381,18.2830301 25.5101735,18.7383929 25.6592708,19.4380035 L26.4408637,23.1182867 L25.3797664,23.3438442 L25.0603327,22.545685 C24.6274832,23.300092 24.0060319,23.7631009 23.195554,23.9355611 C22.6875186,24.0434549 22.2453239,23.9929062 21.8698195,23.783915 C21.494315,23.5749239 21.254315,23.2236319 21.1489699,22.7300389 L21.031731,22.1774018 C20.9391292,21.7428531 21.0079434,21.3779681 21.2377487,21.0827469 C21.467554,20.7875257 21.8371115,20.585331 22.3451469,20.4774372 L24.3789876,20.0450124 L24.3084743,19.713685 C24.2349876,19.4061451 24.1211469,19.2145699 23.9669522,19.1393841 C23.8123327,19.064623 23.5396248,19.0688708 23.1492531,19.1517027 C22.5817487,19.2723398 21.8345628,19.4694372 20.9072708,19.7434195 L20.5725451,18.8216496 C21.4853947,18.4427469 22.3689345,18.1619681 23.2235894,17.9805876 Z M41.1275894,29.6632779 L47.8998372,26.5993487 L41.9125805,22.1939681 L46.8531823,16.6404106 L39.5915894,15.0513133 L41.846315,7.96812743 L34.5660319,9.46972035 L33.7449345,2.08196814 L27.7050053,6.41513628 L23.9499611,0.000127433628 L20.1949168,6.41513628 L14.1549876,2.08196814 L13.3338903,9.46972035 L6.05360708,7.96812743 L8.30833274,15.0513133 L1.04673982,16.6404106 L5.98776637,22.1939681 L8.49557522e-05,26.5993487 L6.77275752,29.6632779 L3.09459823,36.1228885 L10.5278018,36.1674903 L9.79505841,43.5645876 L16.6038372,40.5817912 L18.9430938,47.6373664 L23.9499611,42.1432779 L28.9568283,47.6373664 L31.296085,40.5817912 L38.1048637,43.5645876 L37.3725451,36.1674903 L44.8057487,36.1228885 L41.1275894,29.6632779 Z" id="Fill-3"></path>
            <path d="M22.4371965,21.5899752 C22.3743292,21.7110372 22.363285,21.8673558 22.4040637,22.058931 L22.4486655,22.2691965 C22.5429664,22.7109664 22.8254442,22.8821522 23.2969487,22.7819044 C23.8347186,22.6676389 24.3202407,22.3409841 24.7522407,21.8023646 L24.5738336,20.9621522 L22.8496566,21.3287363 C22.6372673,21.3818336 22.4996389,21.4689133 22.4371965,21.5899752" id="Fill-5"></path>
            <path d="M19.7908248,29.9789735 C19.558046,29.7704071 19.1982584,29.7177345 18.7118867,29.8213805 C18.2110726,29.9275752 17.8980106,30.1233982 17.7739752,30.4075752 C17.649515,30.692177 17.6618336,31.1840708 17.8105062,31.8841062 C17.9579044,32.5769204 18.1460814,33.0276106 18.3754619,33.2370265 C18.6048425,33.4464425 18.9697274,33.4974159 19.4709664,33.3907965 C19.9573381,33.2875752 20.2640283,33.0934513 20.3923115,32.8084248 C20.5201699,32.5229735 20.5108248,32.0340531 20.3634265,31.3416637 C20.214754,30.6416283 20.0240283,30.1875398 19.7908248,29.9789735" id="Fill-7"></path>
            <path d="M31.4035965,27.1465487 C30.983915,27.2357522 30.7205522,27.4094867 30.613508,27.6673274 C30.5064637,27.9247434 30.5272779,28.4030442 30.6759504,29.1030796 C30.8220743,29.7886726 30.9958088,30.235115 31.1975788,30.4419823 C31.3993487,30.6496991 31.688623,30.7129912 32.0641274,30.6331327 C32.3147469,30.5800354 32.5241628,30.4950796 32.6915257,30.3786903 C32.8593133,30.2618761 33.0852956,30.0579823 33.3703221,29.7665841 L32.7994195,27.0811327 C32.1783929,27.0590442 31.7132602,27.080708 31.4035965,27.1465487" id="Fill-9"></path>
        </g>
    </g>
</svg>