<?xml version="1.0" encoding="UTF-8"?>
<svg width="48px" height="48px" viewBox="0 0 48 48" version="1.1" xmlns="http://www.w3.org/2000/svg" xmlns:xlink="http://www.w3.org/1999/xlink">
    <!-- Generator: Sketch 48.2 (47327) - http://www.bohemiancoding.com/sketch -->
    <title>Page 1</title>
    <desc>Created with Sketch.</desc>
    <defs>
        <polygon id="path-1" points="0 0.359157895 47.9000071 0.359157895 47.9000071 47.5788632 0 47.5788632"></polygon>
    </defs>
    <g id="home" stroke="none" stroke-width="1" fill="none" fill-rule="evenodd" transform="translate(-1181.000000, -5720.000000)">
        <g id="Page-1" transform="translate(1181.000000, 5720.000000)">
            <path d="M18.5051894,28.8298947 C18.3845522,28.792 18.1288354,28.792 17.7384637,28.8294737 L16.1897204,28.9658947 C15.9701097,29.2728421 15.8860035,29.5473684 15.9382513,29.7894737 C16.0036673,30.096 16.1336496,30.2715789 16.3277735,30.3166316 C16.5210478,30.3612632 16.9088708,30.3225263 17.4912425,30.1995789 C18.0736142,30.0770526 18.4457204,29.9536842 18.6067115,29.8303158 C18.7685522,29.7069474 18.8178265,29.4993684 18.7553841,29.2071579 C18.709508,28.9932632 18.6262513,28.8673684 18.5051894,28.8298947" id="Fill-1" fill="#151515"></path>
            <path d="M16.5845522,26.2346947 C17.0305699,26.1408 17.3257912,26.0191158 17.4706407,25.8692211 C17.6150655,25.7197474 17.6554195,25.4986947 17.592977,25.2064842 C17.5305345,24.9142737 17.4031009,24.7311158 17.2102513,24.6557474 C17.0178265,24.5812211 16.6983929,24.5904842 16.2523752,24.6843789 C15.8063575,24.7782737 15.5094372,24.8991158 15.3607646,25.0456421 C15.212092,25.1925895 15.1687646,25.4119579 15.2312071,25.7041684 C15.2940743,25.9963789 15.4240566,26.1812211 15.6207292,26.2586947 C15.8174018,26.3365895 16.1389593,26.3285895 16.5845522,26.2346947" id="Fill-3" fill="#151515"></path>
            <path d="M23.5851186,23.6368421 C23.3582867,23.4351579 23.0074195,23.3842105 22.532092,23.4844211 C22.0435965,23.5871579 21.7381805,23.7766316 21.6171186,24.0515789 C21.4956319,24.3265263 21.5075257,24.8027368 21.6528,25.4793684 C21.7963752,26.1492632 21.9803044,26.5854737 22.2037381,26.788 C22.4271717,26.9905263 22.7839858,27.0402105 23.2729062,26.9370526 C23.7478088,26.8368421 24.0472779,26.6494737 24.1721628,26.3736842 C24.2974726,26.0974737 24.2872779,25.6246316 24.1437027,24.9547368 C23.9988531,24.2776842 23.8128,23.8385263 23.5851186,23.6368421" id="Fill-5" fill="#151515"></path>
            <path d="M31.9408991,21.5241684 C31.5309876,21.6104842 31.2739965,21.7784842 31.1695009,22.0277474 C31.0650053,22.2770105 31.0853947,22.7397474 31.230669,23.4168 C31.3729699,24.0795368 31.5428814,24.5115368 31.739554,24.7119579 C31.9366513,24.9123789 32.2187044,24.9738526 32.5852885,24.8968 C32.8295363,24.8454316 33.0338549,24.7629053 33.1973947,24.6504842 C33.3613593,24.5376421 33.5813947,24.3401684 33.8600496,24.0584842 L33.3027398,21.4605895 C32.6965805,21.4395368 32.2429168,21.4605895 31.9408991,21.5241684" id="Fill-7" fill="#151515"></path>
            <g id="Group-11" transform="translate(0.000000, 0.061895)">
                <mask id="mask-2" fill="white">
                    <use xlink:href="#path-1"></use>
                </mask>
                <g id="Clip-10"></g>
                <path d="M34.4655292,25.4554947 L34.2042903,24.7620211 C33.713246,25.4538105 33.0913699,25.8790737 32.3356885,26.0382316 C31.6891752,26.1746526 31.1679717,26.0403368 30.7733522,25.6357053 C30.378308,25.2310737 30.0822372,24.5691789 29.8851398,23.6496 C29.669777,22.6449684 29.6816708,21.9030737 29.921246,21.4243368 C30.1599717,20.9460211 30.6285027,20.6327579 31.3259894,20.4858105 C32.0013876,20.3434947 32.6202903,20.3733895 33.1822726,20.5754947 C33.0849982,20.2980211 32.9923965,19.9523368 32.9036177,19.5388632 L32.5807858,18.0319158 L33.8963257,17.7544421 L35.5011398,25.2373895 L34.4655292,25.4554947 Z M28.753954,26.7818105 C28.3151575,26.8744421 27.9413522,26.8230737 27.6325381,26.6268632 C27.3241487,26.4314947 27.1206796,26.1056 27.0229805,25.6491789 L25.6997947,19.4816 L27.0161841,19.2041263 L28.2697062,25.0517053 C28.3066619,25.2597053 28.3882195,25.4028632 28.513954,25.4803368 C28.6396885,25.5586526 28.8104496,25.5742316 29.0258124,25.5287579 L29.4786265,25.4336 L29.8362903,26.3637053 C29.6175292,26.5363368 29.2564673,26.6757053 28.753954,26.7818105 Z M25.372715,26.8630737 C25.0698478,27.3624421 24.4441487,27.7119158 23.4951929,27.9119158 C22.5390159,28.1136 21.8185912,28.0474947 21.3339186,27.7140211 C20.8488212,27.3801263 20.4988035,26.7110737 20.2830159,25.7064421 C20.0676531,24.7013895 20.1126796,23.9468632 20.4180956,23.4432842 C20.7230867,22.9392842 21.3538832,22.5868632 22.3100602,22.3851789 C23.2590159,22.1851789 23.9743434,22.2542316 24.456892,22.5923368 C24.9381664,22.9304421 25.2877593,23.6016 25.5026973,24.6066526 C25.718485,25.6112842 25.6747327,26.3637053 25.372715,26.8630737 Z M19.7342018,30.3746526 C19.4011752,30.6942316 18.7312991,30.9603368 17.7249982,31.1725474 C16.7038301,31.3877053 15.978308,31.4192842 15.5475823,31.2681263 C15.1164319,31.1165474 14.8360779,30.7380211 14.7060956,30.1325474 C14.6483257,29.8613895 14.6661664,29.6272842 14.7579186,29.4289684 C14.8509451,29.2306526 15.0276531,29.0222316 15.288892,28.8032842 C15.004715,28.6319158 14.8449982,28.3700211 14.8105912,28.0159158 C14.7753345,27.6618105 14.8666619,27.3763368 15.0832991,27.1594947 C14.5366088,27.0285474 14.1878655,26.6108632 14.0362195,25.9051789 C13.9036885,25.2853895 13.9856708,24.8100211 14.2825912,24.4790737 C14.5803611,24.1481263 15.1746265,23.8887579 16.0662372,23.7009684 C16.5908389,23.5902316 17.0436531,23.5472842 17.4251044,23.5712842 L19.0961841,23.2188632 L19.1560779,23.8656 L18.481954,24.0862316 C18.6242549,24.2942316 18.7308743,24.5624421 18.8009628,24.8900211 C18.9309451,25.4959158 18.8472637,25.9662316 18.5511929,26.3001263 C18.2546973,26.6348632 17.6642549,26.8946526 16.7794407,27.0811789 C16.3916177,27.1628632 16.0624142,27.2062316 15.7935292,27.2108632 C15.7340602,27.3573895 15.7476531,27.5056 15.8321841,27.6550737 C15.916715,27.8049684 16.0585912,27.8698105 16.2569628,27.8504421 L18.2445027,27.7110737 C18.7776,27.6731789 19.1832637,27.7519158 19.4619186,27.9464421 C19.7401487,28.1409684 19.9291752,28.4698105 20.0285735,28.9329684 C20.1662018,29.5742316 20.0680779,30.0546526 19.7342018,30.3746526 Z M41.1277593,29.7624421 L47.9000071,26.7249684 L41.9123257,22.3586526 L46.8533522,16.8533895 L39.5917593,15.2782316 L41.846485,8.25717895 L34.5662018,9.74602105 L33.7451044,2.42307368 L27.7051752,6.71823158 L23.950131,0.359073684 L20.1946619,6.71823158 L14.1551575,2.42307368 L13.3336354,9.74602105 L6.05335221,8.25717895 L8.30850265,15.2782316 L1.04648496,16.8533895 L5.9875115,22.3586526 L-0.000169911504,26.7249684 L6.77250265,29.7624421 L3.09434336,36.1653895 L10.5275469,36.2096 L9.79522832,43.5418105 L16.6035823,40.5851789 L18.9432637,47.5788632 L23.950131,42.1329684 L28.9569982,47.5788632 L31.2962549,40.5851789 L38.1050336,43.5418105 L37.3722903,36.2096 L44.8054938,36.1653895 L41.1277593,29.7624421 Z" id="Fill-9" fill="#151515" mask="url(#mask-2)"></path>
            </g>
        </g>
    </g>
</svg>