<?xml version="1.0" encoding="UTF-8"?>
<svg width="101px" height="40px" viewBox="0 0 101 40" version="1.1" xmlns="http://www.w3.org/2000/svg" xmlns:xlink="http://www.w3.org/1999/xlink">
    <!-- Generator: Sketch 48.2 (47327) - http://www.bohemiancoding.com/sketch -->
    <title>yandex-2</title>
    <desc>Created with Sketch.</desc>
    <defs></defs>
    <g id="partners" stroke="none" stroke-width="1" fill="none" fill-rule="evenodd" transform="translate(-851.000000, -464.000000)">
        <g transform="translate(231.000000, 250.000000)" fill="#151515" fill-rule="nonzero" id="yandex-2">
            <g transform="translate(620.000000, 214.000000)">
                <path d="M44.4021837,15.088 C42.0932767,15.088 39.6859535,16.7762353 39.6859535,16.7762353 L39.6859535,15.6912941 C39.6859535,15.4534118 39.5910605,15.3581176 39.353593,15.3581176 L36.406507,15.3581176 C36.1688047,15.3581176 36.0262302,15.5009412 36.0262302,15.6912941 L36.0262302,38.8296471 C36.0262302,39.0684706 36.1213581,39.2112941 36.3590605,39.2112941 L39.3533581,39.2112941 C39.5431442,39.2112941 39.6857186,39.0684706 39.6857186,38.8296471 L39.6857186,19.0235294 C39.6857186,19.0235294 41.0755256,18.1414118 42.7636349,18.1414118 C44.3707093,18.1414118 45.6395512,18.9404706 45.6395512,20.5788235 L45.6395512,38.8287059 C45.6395512,39.0675294 45.7816558,39.2103529 46.0198279,39.2103529 L48.9662093,39.2103529 C49.2039116,39.2103529 49.2988047,39.0192941 49.2988047,38.8287059 L49.2988047,19.5416471 C49.2985698,16.6369412 47.5158023,15.088 44.4021837,15.088 Z M67.3251907,3.48164706 L64.3781047,3.48164706 C64.1401674,3.48164706 63.9980628,3.62423529 63.9980628,3.81505882 L63.9980628,15.4877647 C62.8666279,15.0531765 61.8366628,14.8235294 61.0042349,14.8235294 C56.2182442,14.8235294 52.9326907,19.4068235 52.9326907,28.22 C52.9326907,35.7703529 56.1287535,39.8195294 60.2998186,39.8195294 C62.0576884,39.8195294 63.5092698,38.8103529 64.5718837,37.8637647 L65.2152302,38.9564706 C65.3237465,39.1454118 65.4125326,39.2101176 65.6307395,39.2101176 L67.3256605,39.2117647 C67.5156814,39.2117647 67.6584907,39.0689412 67.6584907,38.8301176 L67.6584907,3.81505882 C67.6580209,3.57670588 67.5624233,3.48164706 67.3251907,3.48164706 Z M56.8296465,27.4402353 C56.8296465,22.5837647 58.2485791,17.7752941 61.1458698,17.7752941 C62.1274488,17.7752941 63.0698023,18.0988235 63.9985326,18.8376471 L63.9985326,35.9463529 C63.272507,36.3421176 62.3592791,36.7063529 61.3725326,36.7063529 C58.2218023,36.7063529 56.8296465,32.9632941 56.8296465,27.4402353 Z M78.6132326,14.8712941 C73.7055721,14.8712941 71.2834512,21.3023529 71.2834512,28.3007059 C71.2834512,35.6263529 74.7381209,39.732 79.1797721,39.732 C81.1321256,39.732 83.0757884,38.9623529 84.3502674,38.2529412 C84.5454558,38.144 84.5806884,37.9908235 84.5339465,37.8014118 L84.161186,36.2538824 C84.1146791,36.0644706 84.0195512,35.9703529 83.7839628,35.9703529 C83.6803791,35.9703529 82.0700163,36.4421176 80.5035767,36.4421176 C76.8685163,36.4421176 75.2017814,33.2051765 75.2017814,28.9063529 L75.2017814,27.8616471 C75.2017814,27.8616471 77.0082721,28.1117647 78.0936698,28.1117647 L84.9513349,28.1117647 L84.9513349,26.1263529 C84.9515698,18.7964706 82.3892233,14.8712941 78.6132326,14.8712941 Z M78.3771744,25.1327059 C77.2917767,25.1327059 75.3164047,25.4016471 75.3164047,25.4016471 C75.3164047,25.4016471 75.3427116,24.6124706 75.4376047,23.8564706 C75.8627442,19.8369412 76.8196605,17.8035294 78.4715977,17.8035294 C79.9079116,17.8035294 80.8923093,19.8837647 81.1286023,23.5249412 C81.1753442,24.2816471 81.1753442,25.1327059 81.1753442,25.1327059 L78.3771744,25.1327059 Z M30.4296558,17.8769412 C29.3397953,15.7258824 27.3989512,14.7858824 25.1755419,14.7858824 C23.747214,14.7858824 21.5181674,15.3329412 20.0292395,16.0035294 C19.7379837,16.1348235 19.5540698,16.2501176 19.5540698,16.4795294 C19.5540698,16.616 19.6219512,16.7727059 19.6964093,16.908 L20.6995977,19.0595294 C20.8029465,19.3023529 20.9687744,19.3581176 21.1057116,19.3581176 C21.2541581,19.3581176 21.3748884,19.2877647 21.5078326,19.2023529 C22.9601186,18.2729412 24.0236721,17.7616471 24.8657302,17.7616471 C25.9797837,17.7616471 26.7363442,18.5018824 27.2028233,19.6152941 C27.637593,20.6527059 27.8055349,22.0861176 27.8055349,23.7423529 C27.8055349,23.9534118 27.8067093,24.2289412 27.8067093,24.2289412 C26.8916023,23.6552941 25.3061372,23.3392941 24.5145791,23.3392941 C20.2568419,23.3392941 17.9610884,27.3917647 17.9610884,31.7254118 C17.9610884,36.3948235 20.6446349,39.8192941 23.8693535,39.8192941 C25.6652744,39.8192941 27.2911395,38.7635294 28.3800605,37.432 C28.3800605,37.432 28.9599884,38.8167059 29.0356209,38.9828235 C29.1119581,39.1484706 29.1922884,39.2098824 29.4104953,39.2098824 L31.1338372,39.2115294 C31.3236233,39.2115294 31.4661977,39.0687059 31.4661977,38.8298824 L31.4661977,25.4075294 C31.465493,22.1089412 31.2991953,19.5929412 30.4296558,17.8769412 Z M27.8062395,35.4616471 C26.9618326,36.2785882 25.950893,36.7063529 25.0409535,36.7063529 C24.1312488,36.7063529 23.4282419,36.2854118 22.864286,35.5054118 C22.1779558,34.5569412 21.8578093,33.0962353 21.8578093,31.4774118 C21.8578093,28.9174118 22.8013372,26.2905882 24.8009023,26.2905882 C25.7907023,26.2905882 26.8779791,26.6134118 27.8060047,27.3529412 L27.8062395,35.4616471 Z M100.51426,15.3548235 L97.8873209,15.3548235 C97.5939512,15.3548235 97.4440953,15.5087059 97.3686977,15.7084706 C96.7892032,17.2341338 96.2119367,18.7606452 95.6369,20.288 C95.3122907,21.1548235 94.4380535,23.6367059 94.4380535,23.6367059 L94.3363488,23.636 C94.3325907,23.6270588 93.6930023,21.8303529 93.346314,20.9305882 C93.0660977,20.2009412 91.6023023,16.3397647 91.4174488,15.864 C91.3183279,15.6082353 91.2076977,15.3548235 90.8318837,15.3548235 L87.9564372,15.3548235 C87.6402837,15.3548235 87.4615372,15.7023529 87.5632419,15.9178824 C87.6661209,16.1341176 92.2475279,26.5884706 92.2475279,26.5884706 C92.2475279,26.5884706 87.3274186,38.2948235 87.1832,38.5574118 C87.0394512,38.8202353 87.2198419,39.2094118 87.5698186,39.2094118 L90.089886,39.2094118 C90.5185488,39.2094118 90.6879,38.9842353 90.8166163,38.6216471 C91.178807,37.6051765 91.7181,36.1917647 92.4819419,34.0070588 C92.9876465,32.5595294 93.7881302,30.0185882 93.7881302,30.0185882 L93.8762116,30.0185882 C93.8762116,30.0185882 94.7523279,32.6082353 95.0785814,33.4548235 C95.9018488,35.596 96.9548326,38.3924706 97.0668721,38.6877647 C97.1831395,38.9964706 97.345914,39.2096471 97.6404581,39.2096471 L100.498288,39.2096471 C100.781088,39.2096471 100.912153,38.8863529 100.77874,38.6049412 C100.460707,37.9334118 97.7466256,31.3275294 95.8619186,26.9844706 C95.8619186,26.9844706 100.752667,16.1724706 100.848265,15.9049412 C100.945507,15.6369412 100.917321,15.3548235 100.51426,15.3548235 Z" id="Shape"></path>
                <path d="M20.9370651,0 L17.6237953,0 C17.3304256,0 17.1474512,0.144 17.1049372,0.353411765 C17.062893,0.563764706 12.1369116,15.6098824 11.778714,16.8632941 C11.5248047,17.7515294 10.6973093,20.8842353 10.4985977,21.6364706 L8.78535581,16.9508235 C8.36937674,15.6614118 4.37893721,4.49482353 4.2622,4.04870588 C4.19784186,3.80352941 4.08509767,3.49858824 3.65596512,3.49858824 L0.421851163,3.49858824 C0.105227907,3.49858824 -0.0730488372,3.84635294 0.028655814,4.06188235 C0.110395349,4.23411765 5.95242326,19.8037647 8.31276977,25.752 L8.31276977,38.8296471 C8.31276977,39.0684706 8.40789767,39.2112941 8.6456,39.2112941 L11.7089535,39.2112941 C11.8989744,39.2112941 12.0415488,39.0684706 12.0415488,38.8296471 L12.0415488,25.8548235 C14.0084651,20.3501176 21.1952023,0.769411765 21.2734186,0.550117647 C21.3685465,0.281882353 21.3403605,0 20.9370651,0 Z" id="Shape"></path>
            </g>
        </g>
    </g>
</svg>