<?xml version="1.0" encoding="UTF-8"?>
<svg width="123px" height="44px" viewBox="0 0 123 44" version="1.1" xmlns="http://www.w3.org/2000/svg" xmlns:xlink="http://www.w3.org/1999/xlink">
    <!-- Generator: Sketch 47.1 (45422) - http://www.bohemiancoding.com/sketch -->
    <title>epam</title>
    <desc>Created with Sketch.</desc>
    <defs></defs>
    <g id="Page-2.4-(venue+photos)" stroke="none" stroke-width="1" fill="none" fill-rule="evenodd">
        <g id="home" transform="translate(-237.000000, -5823.000000)" fill="#151515">
            <g id="partners" transform="translate(231.000000, 5703.000000)">
                <path d="M29.3426295,135.264045 L36.1804143,135.264045 L36.1804143,127.997618 C36.1804143,125.970157 35.1681594,124.95618 33.1416733,124.95618 L32.3818645,124.95618 C30.3558725,124.95618 29.3426295,125.970157 29.3426295,127.997618 L29.3426295,135.264045 L29.3426295,135.264045 Z M29.3273147,139.900854 L29.3426295,147.893034 C29.3426295,149.920494 30.3558725,150.934472 32.3818645,150.934472 L33.2681434,150.934472 C35.2946295,150.934472 36.3073785,149.920494 36.3073785,147.893034 L36.3073785,143.964674 L40.9927012,143.964674 L40.9927012,147.703191 C40.9927012,152.835371 38.3970996,155.432854 33.2681434,155.432854 L32.2553944,155.432854 C27.1264382,155.432854 24.5308367,152.835371 24.5308367,148.303865 L24.5308367,128.788629 C24.5308367,123.055281 27.1264382,120.457303 32.2553944,120.457303 L33.2681434,120.457303 C38.3970996,120.457303 40.9927012,123.055281 40.9927012,128.187955 L40.9773865,139.900854 L29.3273147,139.900854 Z M44.1188845,120.837483 L48.9311713,120.837483 L48.9311713,123.055281 C50.0708845,121.851461 52.0336414,120.457303 54.8194422,120.457303 C58.9351554,120.457303 60.9611474,123.181843 60.9611474,127.237258 L60.9611474,148.653393 C60.9611474,152.708315 58.9351554,155.432854 54.8194422,155.432854 C52.0336414,155.432854 50.0708845,154.102472 48.9311713,152.961933 L48.9311713,164 L44.1188845,164 L44.1188845,120.837483 Z M48.9311713,149.096854 C50.2605896,150.237393 51.7802072,150.870697 53.3630598,150.870697 C55.1361116,150.870697 56.1493546,150.047551 56.1493546,148.083371 L56.1493546,127.807775 C56.1493546,125.843101 55.1361116,125.019461 53.3630598,125.019461 C51.7802072,125.019461 50.2605896,125.653258 48.9311713,126.793798 L48.9311713,149.096854 L48.9311713,149.096854 Z M75.2939755,148.850041 L75.2939755,137.555904 L71.0213498,139.212252 C69.2872716,139.909818 68.7301827,140.79736 68.7301827,142.762912 L68.7301827,147.9625 C68.7301827,149.610932 69.5351351,150.434654 71.0213498,150.434654 C72.4452363,150.434654 73.7459157,149.927558 75.2939755,148.850041 L75.2939755,148.850041 Z M64.0236751,142.699587 C64.0236751,138.451361 65.3861996,136.739604 68.977563,135.471617 L75.2939755,133.252269 L75.2939755,127.545586 C75.2939755,125.516708 74.3030047,124.438696 72.3215461,124.438696 L71.5547637,124.438696 C69.5733051,124.438696 68.5823343,125.516708 68.5823343,127.545586 L68.5823343,132.394906 L64,132.394906 L64,127.736056 C64,122.599794 66.5390307,120 71.5547637,120 L72.4452363,120 C77.4609693,120 80,122.599794 80,127.736056 L80,154.619554 L75.2939755,154.619554 L75.2939755,152.464026 C73.9937793,153.732013 72.259701,155 69.5351351,155 C65.7577533,155 64.0236751,152.780652 64.0236751,148.976691 L64.0236751,142.699587 Z M99.4180735,155 L94.58143,155 L94.58143,127.115838 C94.58143,125.384769 93.754717,124.615517 92.2909633,124.615517 C90.9543198,124.615517 89.5546177,125.128185 87.836147,126.346585 L87.836147,155 L83,155 L83,120.384626 L87.836147,120.384626 L87.836147,122.628364 C89.2363456,121.282421 91.0819265,120 93.754717,120 C96.2363456,120 97.8907646,121.025837 98.7815293,122.820927 C100.5,121.346442 102.536246,120 105.336147,120 C109.090864,120 111,122.308258 111,126.090001 L111,155 L106.163357,155 L106.163357,127.115838 C106.163357,125.384769 105.336147,124.615517 103.872393,124.615517 C102.536246,124.615517 101.136048,125.128185 99.4180735,126.346585 L99.4180735,155 Z M18,124 L18,130.285331 L10.1400144,138 L18,145.576872 L18,152 L6,140.381077 L6,135.756721 L18,124 Z M129,135.756721 L129,140.381077 L117,152 L117,145.576872 L124.859986,138 L117,130.285331 L117,124 L129,135.756721 Z" id="epam"></path>
            </g>
        </g>
    </g>
</svg>