<?xml version="1.0" encoding="UTF-8"?>
<svg width="147px" height="36px" viewBox="0 0 147 36" version="1.1" xmlns="http://www.w3.org/2000/svg" xmlns:xlink="http://www.w3.org/1999/xlink">
    <!-- Generator: Sketch 48.2 (47327) - http://www.bohemiancoding.com/sketch -->
    <title>egnyte</title>
    <desc>Created with Sketch.</desc>
    <defs></defs>
    <g id="partners" stroke="none" stroke-width="1" fill="none" fill-rule="evenodd" transform="translate(-992.000000, -466.000000)">
        <g transform="translate(231.000000, 250.000000)" fill="#151515" id="egnyte">
            <path d="M761,226.52488 L779.121519,226.52488 L779.121519,231.853568 L767.180979,231.853568 L767.180979,235.274904 L777.995197,235.274904 L777.995197,240.216704 L767.180979,240.216704 L767.180979,243.801158 L779.281751,243.801158 L779.281751,249.130435 L761,249.130435 L761,226.52488 Z M793.221381,240.505251 L793.221381,235.920895 L803.586009,235.920895 L803.586009,246.095986 C801.203066,248.066346 797.890423,249.581509 793.801857,249.581509 C786.7845,249.581509 781.536156,244.73864 781.536156,237.891844 L781.536156,237.827657 C781.536156,231.239965 786.686483,226.072627 793.671558,226.072627 C797.632173,226.072627 800.430664,227.300422 802.814194,229.36559 L799.145284,233.790362 C797.533569,232.434194 795.924789,231.658651 793.7056,231.658651 C790.455759,231.658651 787.942517,234.404554 787.942517,237.860045 L787.942517,237.923643 C787.942517,241.572873 790.486866,244.190401 794.058933,244.190401 C795.571456,244.190401 796.730059,243.866523 797.663868,243.252331 L797.663868,240.505251 L793.221381,240.505251 Z M822.158292,238.473059 L822.158292,226.526058 L828.338684,226.526058 L828.338684,249.130435 L822.866132,249.130435 L813.241624,236.728825 L813.241624,249.130435 L807.060646,249.130435 L807.060646,226.526058 L812.889465,226.526058 L822.158292,238.473059 Z M867.217632,232.014329 L867.217632,226.52488 L886.980799,226.52488 L886.980799,232.014329 L880.222866,232.014329 L880.222866,249.130435 L873.976151,249.130435 L873.976151,232.014329 L867.217632,232.014329 Z M889.716488,226.52488 L907.838007,226.52488 L907.838007,231.853568 L895.894532,231.853568 L895.894532,235.274904 L906.710511,235.274904 L906.710511,240.216704 L895.894532,240.216704 L895.894532,243.801158 L908,243.801158 L908,249.130435 L889.716488,249.130435 L889.716488,226.52488 Z M847.848296,230.914908 L859.098605,222.596526 L864.37923,226.513102 L851.002468,236.40318 L851.002468,252 L844.729928,252 L844.729928,236.449112 L844.694125,236.406713 L831.314428,226.513102 L836.606792,222.602414 L847.848296,230.914908 Z M855.675031,238.640887 L864.117458,244.885857 L862.256884,247.421533 L853.812697,241.176563 L855.675031,238.640887 Z M849.397796,216 L849.397796,226.522524 L846.297622,226.526058 L846.296448,216.001178 L849.397796,216 Z M831.576199,244.885857 L840.019213,238.642065 L841.882721,241.176563 L833.438534,247.421533 L831.576199,244.885857 Z"></path>
        </g>
    </g>
</svg>