<?xml version="1.0" encoding="UTF-8"?>
<svg width="138px" height="40px" viewBox="0 0 138 40" version="1.1" xmlns="http://www.w3.org/2000/svg" xmlns:xlink="http://www.w3.org/1999/xlink">
    <!-- Generator: Sketch 48.2 (47327) - http://www.bohemiancoding.com/sketch -->
    <title>moz-logo-bw-rgb</title>
    <desc>Created with Sketch.</desc>
    <defs></defs>
    <g id="partners" stroke="none" stroke-width="1" fill="none" fill-rule="evenodd" transform="translate(-441.000000, -464.000000)">
        <g transform="translate(231.000000, 250.000000)" fill-rule="nonzero" id="moz-logo-bw-rgb">
            <g transform="translate(210.000000, 214.000000)">
                <rect id="Rectangle-path" fill="#000000" x="0" y="0.307692308" width="138" height="39.5769231"></rect>
                <path d="M131.79,28.7307692 C131.521667,28.8076923 131.291667,28.8461538 131.061667,28.8461538 C130.256667,28.8461538 129.873333,28.5 129.873333,27.5 L129.873333,20 C129.873333,16.0384615 126.73,14.1153846 123.011667,14.1153846 C120.175,14.1153846 118.641667,14.4615385 115.613333,15.6923077 L115,19.6923077 L118.948333,20.1153846 L119.523333,18.1538462 C120.328333,17.7307692 121.133333,17.6538462 122.168333,17.6538462 C124.966667,17.6538462 125.005,19.7692308 125.005,21.5384615 L125.005,22.1153846 C124.123333,22 123.126667,21.9615385 122.168333,21.9615385 C118.22,21.9615385 114.118333,22.9615385 114.118333,27.2307692 C114.118333,30.8461538 116.955,32.1923077 119.446667,32.1923077 C122.245,32.1923077 124.008333,30.5 125.005,28.7307692 C125.235,30.8461538 126.5,32.1923077 128.8,32.1923077 C129.873333,32.1923077 130.985,31.8846154 131.905,31.3846154 L131.79,28.7307692 Z M121.21,28.6153846 C119.715,28.6153846 119.178333,27.7307692 119.178333,26.6153846 C119.178333,24.7307692 120.711667,24.2307692 122.475,24.2307692 C123.28,24.2307692 124.161667,24.3461538 124.966667,24.4615385 C124.851667,27.3461538 122.973333,28.6153846 121.21,28.6153846 Z M114.578333,5.34615385 L107.103333,31.7692308 L102.235,31.7692308 L109.71,5.34615385 L114.578333,5.34615385 Z M104.535,5.34615385 L97.06,31.7692308 L92.1916667,31.7692308 L99.6666667,5.34615385 L104.535,5.34615385 Z M83.835,14.4615385 L89.01,14.4615385 L89.01,20.6923077 L83.835,20.6923077 L83.835,14.4615385 Z M83.835,25.5769231 L89.01,25.5769231 L89.01,31.8076923 L83.835,31.8076923 L83.835,25.5769231 Z M76.2833333,25.3461538 L80.1933333,25.7307692 L79.12,31.8076923 L64.055,31.8076923 L63.5566667,29.1923077 L73.0633333,18.2307692 L67.6583333,18.2307692 L66.8916667,20.9230769 L63.3266667,20.5384615 L63.94,14.4615385 L79.0816667,14.4615385 L79.465,17.0769231 L69.8816667,28.0384615 L75.4783333,28.0384615 L76.2833333,25.3461538 Z M51.5583333,14.1153846 C45.3483333,14.1153846 42.2816667,18.3076923 42.2816667,23.3846154 C42.2816667,28.9230769 45.9616667,32.1923077 51.29,32.1923077 C56.81,32.1923077 60.7966667,28.6923077 60.7966667,23.1538462 C60.7966667,18.3076923 57.7683333,14.1153846 51.5583333,14.1153846 Z M51.4433333,28.3461538 C48.76,28.3461538 47.38,26.0384615 47.38,23.0384615 C47.38,19.7692308 48.9516667,17.8846154 51.4816667,17.8846154 C53.82,17.8846154 55.6983333,19.4615385 55.6983333,22.9615385 C55.6983333,26.3076923 54.0116667,28.3461538 51.4433333,28.3461538 Z M37.835,28 L40.135,28 L40.135,31.7692308 L32.9283333,31.7692308 L32.9283333,22.0384615 C32.9283333,19.0384615 31.9316667,17.8846154 29.9766667,17.8846154 C27.6,17.8846154 26.6416667,19.5769231 26.6416667,22 L26.6416667,28.0384615 L28.9416667,28.0384615 L28.9416667,31.8076923 L21.6966667,31.8076923 L21.6966667,22.0384615 C21.6966667,19.0384615 20.7,17.8846154 18.745,17.8846154 C16.3683333,17.8846154 15.41,19.5769231 15.41,22 L15.41,28.0384615 L18.7066667,28.0384615 L18.7066667,31.8076923 L8.20333333,31.8076923 L8.20333333,28.0384615 L10.5033333,28.0384615 L10.5033333,18.2307692 L8.20333333,18.2307692 L8.20333333,14.4615385 L15.4483333,14.4615385 L15.4483333,17.0769231 C16.4833333,15.2307692 18.285,14.1153846 20.7,14.1153846 C23.1916667,14.1153846 25.4916667,15.3076923 26.335,17.8461538 C27.2933333,15.5384615 29.2483333,14.1153846 31.97,14.1153846 C35.075,14.1153846 37.9116667,16 37.9116667,20.1153846 L37.9116667,28 L37.835,28 Z" id="Shape" fill="#FFFFFF"></path>
            </g>
        </g>
    </g>
</svg>