<?xml version="1.0" encoding="utf-8"?>
<!-- Generator: Adobe Illustrator 21.0.0, SVG Export Plug-In . SVG Version: 6.00 Build 0)  -->
<svg version="1.1" id="Layer_1" xmlns="http://www.w3.org/2000/svg" xmlns:xlink="http://www.w3.org/1999/xlink" x="0px" y="0px"
	 viewBox="0 0 150.2 48" style="enable-background:new 0 0 150.2 48;" xml:space="preserve">
<style type="text/css">
	.st0{fill:#000;}
	.st1{fill:#000;}
	.st2{fill:#000;}
</style>
<line class="st0" x1="107.2" y1="37" x2="113.2" y2="37"/>
<g>
	<path class="st1" d="M107,7c0.5,0,1.1-0.4,1.1-1l0.6-5c0.1-0.5-0.3-1-0.9-1h-4c-0.5,0-1.1,0.4-1.1,1l-0.6,5c-0.1,0.5,0.3,1,0.9,1
		H107z"/>
</g>
<path class="st2" d="M18.3,21.1c0,1-0.2,1.8-0.6,2.6c-0.4,0.8-1,1.5-2,2.1c-0.9,0.6-2.2,1.1-3.8,1.6c-1.6,0.4-3.6,0.8-5.9,1
	c0,1.4,0.3,2.5,0.9,3.1s1.5,1,2.6,1c0.6,0,1,0,1.4-0.1c0.4-0.1,0.8-0.2,1.1-0.4c0.3-0.1,0.6-0.3,0.8-0.5s0.5-0.3,0.7-0.5
	c0.2-0.1,0.5-0.3,0.7-0.4c0.2-0.1,0.5-0.1,0.8-0.1c0.2,0,0.4,0.1,0.6,0.2c0.2,0.1,0.4,0.2,0.5,0.4l1.6,1.9c-0.7,0.7-1.5,1.4-2.2,1.9
	c-0.7,0.5-1.4,1-2.2,1.3c-0.7,0.3-1.5,0.6-2.4,0.8c-0.8,0.2-1.8,0.2-2.7,0.2c-1.2,0-2.4-0.2-3.4-0.6c-1-0.4-1.9-1-2.7-1.8
	S1,33,0.6,31.9C0.2,30.8,0,29.6,0,28.3c0-1.1,0.1-2.2,0.4-3.3C0.6,24,1,23,1.4,22c0.5-0.9,1-1.8,1.7-2.6c0.7-0.8,1.4-1.5,2.3-2
	c0.8-0.6,1.8-1,2.8-1.3c1-0.3,2.1-0.5,3.2-0.5c1.1,0,2.1,0.2,3,0.5c0.9,0.3,1.6,0.7,2.2,1.3c0.6,0.5,1,1.1,1.3,1.7
	C18.2,19.8,18.3,20.4,18.3,21.1z M11,19.8c-1,0-1.9,0.4-2.7,1.2c-0.8,0.8-1.4,2-1.8,3.4c1.3-0.2,2.4-0.4,3.2-0.6
	c0.8-0.2,1.4-0.5,1.9-0.7c0.4-0.3,0.7-0.5,0.9-0.8c0.2-0.3,0.2-0.6,0.2-1c0-0.3-0.1-0.7-0.4-1C12,20,11.6,19.8,11,19.8z"/>
<path class="st2" d="M19.3,37l2.6-21h3.2c0.6,0,1.2,0.2,1.5,0.5c0.4,0.3,0.5,0.8,0.5,1.5v1.2c0.9-1.2,1.8-2.1,2.8-2.6
	c1-0.6,2-0.9,3.1-0.9c1.2,0,2.2,0.4,3,1.2c0.8,0.8,1.3,1.9,1.5,3.4c0.9-1.6,2-2.7,3.1-3.4s2.4-1.1,3.7-1.1c0.8,0,1.5,0.1,2.1,0.4
	c0.6,0.3,1.2,0.7,1.6,1.2c0.5,0.5,0.8,1.2,1.1,2c0.2,0.8,0.4,1.7,0.4,2.7c0,0.3,0,0.5,0,0.8c0,0.3,0,0.6-0.1,0.8L47.9,37h-6.2
	l1.6-13.3c0-0.2,0-0.4,0.1-0.6c0-0.2,0-0.4,0-0.5c0-0.7-0.1-1.2-0.3-1.4c-0.2-0.3-0.5-0.4-1-0.4c-0.4,0-0.8,0.1-1.2,0.3
	c-0.4,0.2-0.7,0.5-1.1,1c-0.3,0.4-0.7,0.9-0.9,1.5c-0.3,0.6-0.5,1.3-0.7,2L36.7,37h-6.2l1.6-13.3c0-0.2,0-0.4,0.1-0.6
	c0-0.2,0-0.4,0-0.5c0-0.7-0.1-1.2-0.3-1.4c-0.2-0.3-0.5-0.4-1-0.4c-0.4,0-0.8,0.1-1.2,0.3c-0.4,0.2-0.8,0.6-1.1,1
	c-0.3,0.4-0.7,1-0.9,1.6c-0.3,0.6-0.5,1.3-0.7,2.1L25.5,37H19.3z"/>
<path class="st2" d="M69.9,21.1c0,1-0.2,1.8-0.6,2.6c-0.4,0.8-1,1.5-2,2.1c-0.9,0.6-2.2,1.1-3.8,1.6c-1.6,0.4-3.6,0.8-5.9,1
	c0,1.4,0.3,2.5,0.9,3.1s1.5,1,2.6,1c0.6,0,1,0,1.4-0.1c0.4-0.1,0.8-0.2,1.1-0.4c0.3-0.1,0.6-0.3,0.8-0.5s0.5-0.3,0.7-0.5
	c0.2-0.1,0.5-0.3,0.7-0.4c0.2-0.1,0.5-0.1,0.8-0.1c0.2,0,0.4,0.1,0.6,0.2s0.4,0.2,0.5,0.4l1.6,1.9c-0.7,0.7-1.5,1.4-2.2,1.9
	c-0.7,0.5-1.4,1-2.2,1.3c-0.7,0.3-1.5,0.6-2.4,0.8C61.9,37,61,37.1,60,37.1c-1.2,0-2.4-0.2-3.4-0.6c-1-0.4-1.9-1-2.7-1.8
	s-1.3-1.7-1.7-2.8c-0.4-1.1-0.6-2.3-0.6-3.6c0-1.1,0.1-2.2,0.4-3.3c0.2-1.1,0.6-2.1,1.1-3c0.5-0.9,1-1.8,1.7-2.6
	c0.7-0.8,1.4-1.5,2.3-2c0.8-0.6,1.8-1,2.8-1.3c1-0.3,2.1-0.5,3.2-0.5c1.1,0,2.1,0.2,3,0.5c0.9,0.3,1.6,0.7,2.2,1.3
	c0.6,0.5,1,1.1,1.3,1.7C69.7,19.8,69.9,20.4,69.9,21.1z M62.6,19.8c-1,0-1.9,0.4-2.7,1.2c-0.8,0.8-1.4,2-1.8,3.4
	c1.3-0.2,2.4-0.4,3.2-0.6c0.8-0.2,1.4-0.5,1.9-0.7c0.4-0.3,0.7-0.5,0.9-0.8c0.2-0.3,0.2-0.6,0.2-1c0-0.3-0.1-0.7-0.4-1
	C63.6,20,63.2,19.8,62.6,19.8z"/>
<path class="st2" d="M71.3,37l2.6-21h3.2c0.6,0,1.2,0.2,1.5,0.5c0.4,0.3,0.5,0.8,0.5,1.5v2.4c0.8-1.4,1.7-2.5,2.6-3.3
	c0.9-0.8,1.9-1.2,2.9-1.2c0.6,0,1.1,0.1,1.7,0.4l-1.1,5.8c-0.7-0.3-1.3-0.4-2-0.4c-1,0-2,0.5-2.8,1.4c-0.8,0.9-1.5,2.4-2,4.5
	L77.5,37H71.3z"/>
<path class="st2" d="M121.7,37l1.6-13.3c0-0.2,0-0.4,0.1-0.6c0-0.2,0-0.4,0-0.5c0-0.7-0.1-1.2-0.4-1.5c-0.2-0.3-0.6-0.4-1.1-0.4
	c-0.5,0-0.9,0.1-1.4,0.4c-0.5,0.3-1,0.7-1.4,1.2c-0.5,0.5-0.9,1.1-1.2,1.9c-0.4,0.7-0.7,1.5-0.9,2.4L115.7,37h-6.3l2.5-21h3.2
	c0.6,0,1.2,0.2,1.5,0.5c0.4,0.3,0.5,0.8,0.5,1.5v1.7c1-1.4,2.1-2.3,3.3-3c1.2-0.6,2.4-1,3.7-1c0.8,0,1.5,0.1,2.2,0.4
	c0.7,0.3,1.2,0.7,1.7,1.2c0.5,0.5,0.8,1.2,1.1,2c0.3,0.8,0.4,1.7,0.4,2.8c0,0.2,0,0.5,0,0.7c0,0.3,0,0.5-0.1,0.8L127.9,37H121.7z"/>
<path class="st2" d="M150.2,21.1c0,1-0.2,1.8-0.6,2.6c-0.4,0.8-1,1.5-2,2.1c-0.9,0.6-2.2,1.1-3.8,1.6c-1.6,0.4-3.6,0.8-5.9,1
	c0,1.4,0.3,2.5,0.9,3.1c0.6,0.7,1.5,1,2.6,1c0.6,0,1,0,1.4-0.1c0.4-0.1,0.8-0.2,1.1-0.4c0.3-0.1,0.6-0.3,0.8-0.5s0.5-0.3,0.7-0.5
	c0.2-0.1,0.5-0.3,0.7-0.4c0.2-0.1,0.5-0.1,0.8-0.1c0.2,0,0.4,0.1,0.6,0.2s0.4,0.2,0.5,0.4l1.6,1.9c-0.7,0.7-1.5,1.4-2.2,1.9
	c-0.7,0.5-1.4,1-2.2,1.3c-0.7,0.3-1.5,0.6-2.4,0.8c-0.8,0.2-1.8,0.2-2.7,0.2c-1.2,0-2.4-0.2-3.4-0.6c-1-0.4-1.9-1-2.7-1.8
	s-1.3-1.7-1.7-2.8c-0.4-1.1-0.6-2.3-0.6-3.6c0-1.1,0.1-2.2,0.4-3.3c0.2-1.1,0.6-2.1,1.1-3c0.5-0.9,1-1.8,1.7-2.6
	c0.7-0.8,1.4-1.5,2.3-2c0.8-0.6,1.8-1,2.8-1.3c1-0.3,2.1-0.5,3.2-0.5c1.1,0,2.1,0.2,3,0.5c0.9,0.3,1.6,0.7,2.2,1.3
	c0.6,0.5,1,1.1,1.3,1.7C150.1,19.8,150.2,20.4,150.2,21.1z M142.9,19.8c-1,0-1.9,0.4-2.7,1.2c-0.8,0.8-1.4,2-1.8,3.4
	c1.3-0.2,2.4-0.4,3.2-0.6c0.8-0.2,1.4-0.5,1.9-0.7c0.4-0.3,0.7-0.5,0.9-0.8c0.2-0.3,0.2-0.6,0.2-1c0-0.3-0.1-0.7-0.4-1
	C143.9,20,143.5,19.8,142.9,19.8z"/>
<polygon class="st1" points="101.5,11 97,48 103.1,48 107.6,11 "/>
<path class="st1" d="M86.2,48l5.9-48h6.2l-5.9,48H86.2z"/>
</svg>
