<?xml version="1.0" encoding="UTF-8"?>
<svg width="194px" height="24px" viewBox="0 0 194 24" version="1.1" xmlns="http://www.w3.org/2000/svg" xmlns:xlink="http://www.w3.org/1999/xlink">
    <!-- Generator: Sketch 48.2 (47327) - http://www.bohemiancoding.com/sketch -->
    <title>ks_logo_8</title>
    <desc>Created with Sketch.</desc>
    <defs>
        <path d="M0,0.648648649 L14.4143946,0.648648649 C12.8455251,4.53210811 11.2773043,8.41621622 9.70843478,12.2996757 C11.2773043,16.1837838 12.8455251,20.0672432 14.4143946,23.9513514 L0,23.9513514 L0,0.648648649 Z" id="path-1"></path>
    </defs>
    <g id="partners" stroke="none" stroke-width="1" fill="none" fill-rule="evenodd" transform="translate(-712.000000, -553.000000)">
        <g transform="translate(231.000000, 250.000000)" id="ks_logo_8">
            <g transform="translate(481.000000, 303.000000)">
                <polygon id="Clip-2" fill="#151515" points="44.1333779 0.725189189 47.5436254 0.725189189 37.0053378 11.8741622 48.8036522 23.76 45.2707759 23.76 34.7318395 13.1020541 32.4576923 13.1020541 32.4576923 23.76 29.8461538 23.76 29.8461538 0.725189189 32.4576923 0.725189189 32.4576923 10.7993514 34.7318395 10.7993514"></polygon>
                <polygon id="Clip-5" fill="#151515" points="49.7275853 0.725189189 64.5371171 0.725189189 64.5371171 3.02854054 52.3397726 3.02854054 52.3397726 10.8603243 64.0154582 10.8603243 64.0154582 13.0099459 52.3397726 13.0099459 52.3397726 21.456 64.5371171 21.456 64.5371171 23.76 49.7275853 23.76"></polygon>
                <polygon id="Clip-8" fill="#151515" points="66.9358395 0.725189189 81.7460201 0.725189189 81.7460201 3.02854054 69.5480268 3.02854054 69.5480268 10.8603243 81.2237124 10.8603243 81.2237124 13.0099459 69.5480268 13.0099459 69.5480268 21.456 81.7460201 21.456 81.7460201 23.76 66.9358395 23.76"></polygon>
                <path d="M87.3084348,3.02854054 L87.3084348,12.4884379 L94.0679398,12.4884324 C97.5404749,12.4884324 99.3221605,12.5189189 99.3221605,8.03481081 C99.3221605,3.61232432 98.5228027,3.02854054 95.2968227,3.02854054 L87.3084348,3.02854054 Z M84.6968963,0.724540541 L96.4342207,0.724540541 C100.889084,0.724540541 101.933699,3.73491892 101.933699,7.69686486 C101.933699,9.75437838 101.902555,14.7911351 96.3109431,14.7911351 L87.3084348,14.7911351 L87.3084348,23.76 L84.6968963,23.76 L84.6968963,0.724540541 Z" id="Clip-11" fill="#151515"></path>
                <path d="M108.633512,16.4192432 L108.633512,17.4940541 C108.633512,20.136 109.77091,20.3195676 113.857237,20.3195676 C117.881926,20.3195676 118.435378,19.5820541 118.435378,16.9109189 C118.435378,13.6242162 116.683538,14.0549189 113.242147,13.8700541 C108.264977,13.5632432 104.332421,13.7474595 104.332421,7.05145946 C104.332421,0.724540541 108.326615,0.540324324 113.857237,0.540324324 C118.558007,0.540324324 122.398428,0.694702703 122.398428,6.74464865 L122.398428,7.48216216 L117.974709,7.48216216 L117.974709,6.74464865 C117.974709,4.25643243 116.95994,4.16432432 113.857237,4.16432432 C109.463365,4.16432432 108.756789,4.59437838 108.756789,7.05145946 C108.756789,9.87697297 109.340736,9.96908108 113.826742,10.2460541 C120.923639,10.6754595 122.859746,11.0438919 122.859746,16.9109189 C122.859746,23.3915676 119.787538,23.9442162 113.857237,23.9442162 C108.756789,23.9442162 104.209793,24.0979459 104.209793,17.4940541 L104.209793,16.4192432 L108.633512,16.4192432 Z" id="Clip-14" fill="#151515"></path>
                <path d="M185.33099,19.9816216 C188.310415,19.9816216 189.23305,17.3098378 189.23305,14.7301622 L189.23305,9.29383784 C189.23305,5.45448649 187.973023,4.50227027 184.592622,4.50227027 L178.018033,4.50227027 L178.018033,19.9816216 L185.33099,19.9816216 Z M173.593017,0.725189189 L184.592622,0.725189189 C190.953097,0.725189189 193.657418,3.02854054 193.657418,9.29383784 L193.657418,14.7301622 C193.657418,19.5210811 192.305258,23.76 185.33099,23.76 L173.593017,23.76 L173.593017,0.725189189 Z" id="Clip-26" fill="#151515"></path>
                <path d="M129.49792,8.95654054 L129.49792,15.1608649 C129.49792,19.7364324 130.39006,20.1664865 134.813779,20.1664865 C138.839117,20.1664865 140.221773,19.6138378 140.221773,15.1608649 L140.221773,8.95654054 C140.313258,4.62616216 138.746334,4.3187027 134.813779,4.3187027 C130.05202,4.3187027 129.591351,5.30140541 129.49792,8.95654054 Z M144.64614,8.95654054 L144.64614,15.1608649 C144.64614,22.5314595 141.788696,23.9442162 134.813779,23.9442162 C127.686388,23.9442162 125.074201,22.7156757 125.074201,15.1608649 L125.074201,8.95654054 C125.074201,1.8 127.501472,0.540324324 134.813779,0.540324324 C141.451304,0.540324324 144.64614,1.55416216 144.64614,8.95654054 Z" id="Clip-17" fill="#151515"></path>
                <polygon id="Clip-20" fill="#151515" points="152.298435 19.9816216 163.052134 19.9816216 163.052134 23.76 147.874716 23.76 147.874716 0.725189189 152.298435 0.725189189"></polygon>
                <polygon id="Clip-23" fill="#151515" points="165.235445 0.724540541 169.659164 0.724540541 169.659164 23.76 165.235445 23.76"></polygon>
                <polygon id="Clip-29" fill="#151515" opacity="0.600000024" points="14.7660602 8.53362162 23.3091973 8.53362162 23.3091973 23.9513514 6.22357191 23.9513514 6.22357191 16.3011892 16.4750769 16.3011892 16.4750769 16.0663784 6.22357191 16.0663784 6.22357191 0.648648649 23.3091973 0.648648649 23.3091973 8.29881081 14.7660602 8.29881081"></polygon>
                <mask id="mask-2" fill="white">
                    <use xlink:href="#path-1"></use>
                </mask>
                <use id="Clip-32" fill="#151515" xlink:href="#path-1"></use>
            </g>
        </g>
    </g>
</svg>