<?xml version="1.0" encoding="UTF-8"?>
<svg width="172px" height="37px" viewBox="0 0 172 37" version="1.1" xmlns="http://www.w3.org/2000/svg" xmlns:xlink="http://www.w3.org/1999/xlink">
    <!-- Generator: Sketch 48.2 (47327) - http://www.bohemiancoding.com/sketch -->
    <title>microsoft</title>
    <desc>Created with Sketch.</desc>
    <defs></defs>
    <g id="home" stroke="none" stroke-width="1" fill="none" fill-rule="evenodd" transform="translate(-627.000000, -5989.000000)">
        <g id="partners" transform="translate(246.000000, 5703.000000)" fill="#151515">
            <path d="M448.747983,298.518364 L448.747983,315.578605 L452.53321,315.578605 L452.53321,293.408461 L447.294985,293.408461 L440.636093,309.875002 L434.173123,293.408461 L428.721122,293.408461 L428.721122,315.578605 L432.278096,315.578605 L432.278096,298.516419 L432.400185,298.516419 L439.224113,315.577633 L441.908613,315.577633 L448.625894,298.517878 L448.747983,298.518364 Z M458.0021,292.92222 C457.391657,292.92222 456.859873,293.13179 456.42267,293.546553 C455.983055,293.962775 455.760111,294.486942 455.760111,295.104954 C455.760111,295.713242 455.980642,296.227684 456.414467,296.633209 C456.846843,297.037275 457.381041,297.241496 458.0021,297.241496 C458.623642,297.241496 459.158804,297.037275 459.596972,296.633695 C460.037552,296.22817 460.260496,295.713728 460.260496,295.104954 C460.260496,294.508337 460.043343,293.990004 459.615309,293.563571 C459.187276,293.138111 458.644392,292.92222 458.0021,292.92222 Z M456.109487,315.578605 L459.818951,315.578605 L459.818951,299.69069 L456.109487,299.69069 L456.109487,315.578605 Z M470.880268,299.307533 C469.179232,299.307533 467.660605,299.675131 466.370231,300.400116 C465.075996,301.126073 464.076607,302.163224 463.39571,303.482395 C462.718191,304.798649 462.374124,306.33517 462.374124,308.048196 C462.374124,309.549707 462.707092,310.926741 463.366757,312.14137 C464.026903,313.356972 464.960663,314.308545 466.141978,314.967887 C467.322811,315.626743 468.686535,315.961277 470.196475,315.961277 C471.960244,315.961277 473.463912,315.606807 474.67032,314.905162 L474.719541,314.877446 L474.719541,311.453826 L474.564156,311.56712 C474.017412,311.968754 473.407452,312.288215 472.749718,312.519665 C472.093914,312.750143 471.495536,312.866355 470.971472,312.866355 C469.515579,312.866355 468.347775,312.40783 467.500877,311.503422 C466.650117,310.596583 466.219188,309.32555 466.219188,307.724846 C466.219188,306.11393 466.668937,304.809346 467.554924,303.84659 C468.438015,302.886751 469.608713,302.400024 471.033723,302.400024 C472.251713,302.400024 473.440266,302.815759 474.563674,303.63702 L474.719059,303.7508 L474.719059,300.143381 L474.668872,300.114692 C474.245664,299.875948 473.670449,299.679021 472.952395,299.529745 C472.241579,299.3829 471.542827,299.307533 470.880268,299.307533 Z M481.231734,302.44184 L481.231734,299.690204 L477.521787,299.690204 L477.521787,315.577633 L481.231734,315.577633 L481.231734,307.450606 C481.231734,306.067737 481.542987,304.932851 482.156325,304.076095 C482.762425,303.228578 483.570236,302.799227 484.556112,302.799227 C484.890046,302.799227 485.264998,302.854659 485.671799,302.964549 C486.074257,303.073953 486.365242,303.19211 486.537035,303.316587 L486.691938,303.430368 L486.691938,299.662489 L486.631617,299.636718 C486.285619,299.488901 485.797265,299.41402 485.179102,299.41402 C484.246789,299.41402 483.41292,299.715489 482.698244,300.309675 C482.070911,300.831897 481.618267,301.54813 481.271304,302.440868 L481.231734,302.440868 L481.231734,302.44184 Z M495.287356,299.307533 C497.73733,299.307533 499.678682,300.042242 501.058813,301.490754 C502.441357,302.939265 503.140109,304.954732 503.140109,307.481725 C503.140109,310.038865 502.393583,312.115599 500.923213,313.649689 C499.450912,315.183292 497.426559,315.962249 494.906131,315.962249 C492.488006,315.962249 490.532177,315.222677 489.095586,313.764441 C487.660925,312.305719 486.930807,310.306784 486.930807,307.81869 C486.930807,305.199311 487.677332,303.103614 489.150115,301.588974 C490.620968,300.075307 492.685857,299.307533 495.287356,299.307533 Z M495.120871,312.867813 C496.491351,312.867813 497.538996,312.421445 498.238231,311.542321 C498.939878,310.654932 499.295044,309.329926 499.295044,307.604744 C499.295044,305.90047 498.916232,304.591997 498.170672,303.715791 C497.428007,302.843475 496.391943,302.401969 495.09047,302.401969 C493.747014,302.401969 492.682962,302.864384 491.926785,303.775599 C491.163852,304.693621 490.778767,306.011333 490.778767,307.696157 C490.778767,309.328954 491.163852,310.614088 491.926785,311.515092 C492.681996,312.412692 493.75763,312.867813 495.120871,312.867813 Z M510.952809,299.307533 C509.183732,299.307533 507.721083,299.76314 506.603466,300.662199 C505.479093,301.566121 504.908221,302.752062 504.908221,304.186958 C504.908221,304.933338 505.030792,305.595111 505.273521,306.157206 C505.518664,306.721245 505.894098,307.217697 506.395481,307.633919 C506.893004,308.047709 507.66028,308.479491 508.677523,308.920511 C509.532143,309.274981 510.170574,309.574505 510.575927,309.811304 C510.971629,310.043241 511.253446,310.275664 511.411727,310.502252 C511.565182,310.724951 511.643357,311.027879 511.643357,311.403256 C511.643357,312.470069 510.850506,312.990832 509.218959,312.990832 C508.613825,312.990832 507.921346,312.862951 507.166135,312.613023 C506.408993,312.361151 505.701072,312.00036 505.064089,311.537459 L504.908704,311.426596 L504.908704,315.068053 L504.965163,315.095768 C505.497431,315.343265 506.166746,315.551376 506.955737,315.714753 C507.743763,315.879102 508.459887,315.962736 509.081911,315.962736 C511.001066,315.962736 512.546716,315.504697 513.673984,314.599317 C514.809938,313.690047 515.384671,312.476876 515.384671,310.990438 C515.384671,309.921195 515.075348,309.0022 514.465388,308.261169 C513.858806,307.525973 512.805852,306.853016 511.338377,306.256399 C510.169609,305.7828 509.420188,305.391376 509.112313,305.090393 C508.816019,304.798649 508.662564,304.387776 508.662564,303.866526 C508.662564,303.404111 508.850281,303.034568 509.232954,302.734557 C509.619969,302.433088 510.15658,302.279922 510.831686,302.279922 C511.45757,302.279922 512.097449,302.379602 512.73395,302.574098 C513.369486,302.76908 513.928777,303.030192 514.393968,303.350138 L514.547423,303.455652 L514.547423,300.000426 L514.489033,299.974655 C514.058104,299.788911 513.491092,299.62991 512.801992,299.50057 C512.115787,299.372203 511.493763,299.307533 510.952809,299.307533 Z M525.363115,299.307533 C527.810194,299.307533 529.752994,300.042242 531.134573,301.490754 C532.515187,302.939265 533.214421,304.954732 533.214421,307.481725 C533.214421,310.038865 532.469826,312.115599 530.997525,313.649689 C529.525707,315.183292 527.501836,315.962249 524.980925,315.962249 C522.561835,315.962249 520.607454,315.222677 519.171345,313.764441 C517.734754,312.305719 517.006084,310.305811 517.006084,307.81869 C517.006084,305.199311 517.752609,303.103614 519.223945,301.588974 C520.697693,300.075307 522.762099,299.307533 525.363115,299.307533 Z M525.194701,312.867813 C526.565181,312.867813 527.614756,312.421445 528.31206,311.542321 C529.01419,310.654932 529.370321,309.329926 529.370321,307.604744 C529.370321,305.90047 528.991509,304.591997 528.244984,303.715791 C527.503284,302.843475 526.466738,302.401969 525.164782,302.401969 C523.822291,302.401969 522.758239,302.864384 522.000614,303.775599 C521.238647,304.693621 520.851631,306.011333 520.851631,307.696157 C520.851631,309.328954 521.238647,310.614088 521.999649,311.515092 C522.757273,312.412692 523.832425,312.867813 525.194701,312.867813 Z M553,302.738447 L552.999517,302.738447 L552.999517,302.73942 L549.241797,302.73942 L549.241797,310.239682 C549.241797,311.20098 549.413589,311.888525 549.751384,312.281893 C550.084835,312.670886 550.622893,312.868786 551.349633,312.868786 C551.543141,312.868786 551.792627,312.825997 552.091333,312.741391 C552.389075,312.65873 552.641455,312.545922 552.846062,312.408802 L552.998552,312.307178 L552.998552,315.383623 L552.948848,315.413284 C552.724939,315.541651 552.345644,315.663211 551.787318,315.783799 C551.240092,315.901469 550.703481,315.962249 550.192447,315.962249 C547.090529,315.962249 545.517373,314.259434 545.517373,310.899025 L545.517373,302.738933 L539.94811,302.738933 L539.94811,315.578605 L536.194249,315.578605 L536.194249,302.738933 L533.577791,302.738933 L533.577791,299.691177 L536.194249,299.691177 L536.194249,297.49191 C536.194249,296.387171 536.435531,295.388919 536.913269,294.524383 C537.391006,293.658875 538.074316,292.978138 538.943413,292.501622 C539.811544,292.025106 540.807555,291.784903 541.902974,291.784903 C542.773518,291.784903 543.4742,291.879234 543.989577,292.06595 L544.054724,292.089776 L544.054724,295.299937 L543.916228,295.237698 C543.362728,294.988743 542.815018,294.862807 542.283716,294.862807 C541.547324,294.862807 540.968248,295.101551 540.564343,295.571259 C540.156094,296.046316 539.949557,296.759145 539.949557,297.690296 L539.949557,299.69069 L545.517856,299.69069 L545.517856,296.100289 L545.58831,296.078895 L549.116813,294.991174 L549.243244,294.951789 L549.243244,299.69069 L553,299.69069 L553,302.738447 Z M398.448959,286 L398.448959,303.581394 L381.000434,303.581394 L381.000434,286 L398.448959,286 Z M400.265424,303.581491 L400.265424,286 L417.713467,286 L417.713467,303.581491 L400.265424,303.581491 Z M398.448525,322.999951 L381,322.999951 L381,305.41846 L398.448042,305.41846 L398.448042,322.999951 L398.448525,322.999951 Z M400.265424,323 L400.265424,305.418509 L417.713467,305.418509 L417.713467,323 L400.265424,323 Z" id="microsoft"></path>
        </g>
    </g>
</svg>