<svg id="Lager_1" data-name="Lager 1" xmlns="http://www.w3.org/2000/svg" xmlns:xlink="http://www.w3.org/1999/xlink" viewBox="0 0 650 214.29"><defs><style>.cls-1{fill:#1a171b;}.cls-2{fill:#a3a3a3;}.cls-3{fill:url(#linear-gradient);}.cls-4{fill:url(#linear-gradient-2);}.cls-5{fill:url(#radial-gradient);}</style><linearGradient id="linear-gradient" x1="185.63" y1="273.3" x2="174.09" y2="381" gradientUnits="userSpaceOnUse"><stop offset="0" stop-color="#e3e4e5"/><stop offset="1" stop-color="#a8a8a8"/></linearGradient><linearGradient id="linear-gradient-2" x1="194.98" y1="274.3" x2="183.44" y2="382" xlink:href="#linear-gradient"/><radialGradient id="radial-gradient" cx="153.37" cy="286.56" r="110" gradientUnits="userSpaceOnUse"><stop offset="0" stop-color="#c2c2c2"/><stop offset="0.22" stop-color="#bdbdbd"/><stop offset="0.46" stop-color="#b0b0b0"/><stop offset="0.72" stop-color="#999"/><stop offset="0.99" stop-color="#7a7a7a"/><stop offset="1" stop-color="#787878"/></radialGradient></defs><title>EG_TwoRows_RGB</title><path class="cls-1" d="M283,215.7h70.81l1.75,23.92h-4.19c-1.66-9.83-1.87-11.86-5.47-15.78s-10.71-3.46-16.49-3.46h-18.1a4.34,4.34,0,0,0-3.31,1.19,5.11,5.11,0,0,0-1.12,3.62v30.51h7.91a13,13,0,0,0,10.31-4.56q4-4.56,4.27-14h4.31v42.8H329.4q-.31-10.62-4.33-15.21t-10.94-4.59h-7.23v34.32a3.66,3.66,0,0,0,1.34,3.06q1.33,1.07,4.46,1.06H327c15.51,0,24.46-5.07,26.83-24.9h4.5l-1.56,29.59H283v-4.68h3.89c2.46,0,4.18-.43,5.19-1.28a4.62,4.62,0,0,0,1.5-3.72V225.2a4.62,4.62,0,0,0-1.31-3.62,6,6,0,0,0-4.12-1.19H283Z" transform="translate(-117.57 -213.4)"/><path class="cls-1" d="M352.36,244.73h32V249q-5.75.12-7.34,1a2.84,2.84,0,0,0-1.6,2.59,6.55,6.55,0,0,0,.63,2.75l15.52,34.55,14.13-33.5a5.23,5.23,0,0,0,.31-1.75q0-4.55-9-5.68v-4.25h24.24V249a11.68,11.68,0,0,0-5.88,2,10.47,10.47,0,0,0-3.37,4.37L390.55,305h-3.38l-23-51a8.43,8.43,0,0,0-3-3.84c-1.19-.73-6.21-1.11-8.74-1.16Z" transform="translate(-117.57 -213.4)"/><path class="cls-1" d="M443.8,243a26.16,26.16,0,0,1,19.84,8.53q8,8.53,8,22.46,0,9.62-3.59,16.4a26.82,26.82,0,0,1-10.25,10.71A27.64,27.64,0,0,1,443.49,305a25.17,25.17,0,0,1-19.28-8.62q-7.9-8.62-7.91-22.37t7.94-22.43A25.52,25.52,0,0,1,443.8,243Zm0,4.44q-7,0-11.5,6.34t-4.49,20q0,13.93,4.47,20.37t11.53,6.44q7.31,0,11.84-6.44t4.53-21.05q0-13.56-4.46-19.62A14.08,14.08,0,0,0,443.8,247.42Z" transform="translate(-117.57 -213.4)"/><path class="cls-1" d="M491.14,214.64v80a3.39,3.39,0,0,0,1.06,2.69,5.91,5.91,0,0,0,3.81,1.25h3.76v4.68H471.45v-4.68h3.46a5.89,5.89,0,0,0,4.27-1.38,5.15,5.15,0,0,0,1.41-3.87V227a5.67,5.67,0,0,0-1.68-4.56,8.39,8.39,0,0,0-5.69-2H468V215.7Z" transform="translate(-117.57 -213.4)"/><path class="cls-1" d="M520.81,243.67v38.8q0,7.13,3.58,11a12,12,0,0,0,9.26,3.87,15.15,15.15,0,0,0,11.88-5.66,20.86,20.86,0,0,0,4.9-14.15V255.6a5.54,5.54,0,0,0-2.16-4.66q-2.16-1.65-8.28-1.84v-4.38l20.56-1.06v48a6.69,6.69,0,0,0,1.88,5.1,7.31,7.31,0,0,0,5.24,1.78h3.69v4.18l-19.68.44-1.25-11.5A42.54,42.54,0,0,1,539.88,301a20.93,20.93,0,0,1-10.73,3.12,18.15,18.15,0,0,1-13.29-5.31q-5.43-5.25-5.43-17.81V255.6a5.74,5.74,0,0,0-2.69-5.13c-1.25-.83-3.81-1.29-7.69-1.37v-4.38Z" transform="translate(-117.57 -213.4)"/><path class="cls-1" d="M583.22,220.86h4.18v23.87H623v5.75H587.4V288q0,4.87,2.32,7.47a7.52,7.52,0,0,0,5.87,2.59,8.87,8.87,0,0,0,7.25-3.94q3-3.93,3.5-13h4.19q-.38,11.68-5.31,17.34a16.22,16.22,0,0,1-12.81,5.65q-7.25,0-11.34-4A13.84,13.84,0,0,1,577,289.78v-39.3H566.79V246.1q7-1.19,10.59-5.81Q582.78,233.35,583.22,220.86Z" transform="translate(-117.57 -213.4)"/><path class="cls-1" d="M610.45,244.73l23.3-.69V294.4a3.75,3.75,0,0,0,1,2.94,5.33,5.33,0,0,0,3.63,1.25h4.21v4.68H614.11v-4.68h3.77a5.35,5.35,0,0,0,4-1.34,5.44,5.44,0,0,0,1.28-3.91V257.59a6.69,6.69,0,0,0-2-5.28q-2-1.78-5.94-1.78h-4.81Zm16.24-27.67a6.79,6.79,0,0,1,4.94,2.12,6.87,6.87,0,0,1,2.12,5,6.66,6.66,0,0,1-2.06,4.88,7,7,0,1,1-5-12Z" transform="translate(-117.57 -213.4)"/><path class="cls-1" d="M672,243a26.15,26.15,0,0,1,19.84,8.53q8,8.53,8,22.46,0,9.62-3.59,16.4A26.82,26.82,0,0,1,686,301.08,27.63,27.63,0,0,1,671.68,305a25.16,25.16,0,0,1-19.27-8.62q-7.91-8.62-7.91-22.37t7.94-22.43A25.52,25.52,0,0,1,672,243Zm0,4.44q-7,0-11.49,6.34t-4.5,20q0,13.93,4.47,20.37T672,300.59q7.31,0,11.84-6.44t4.53-21.05q0-13.56-4.46-19.62A14.08,14.08,0,0,0,672,247.42Z" transform="translate(-117.57 -213.4)"/><path class="cls-1" d="M698.64,244.73l19.43-1.19a96,96,0,0,1,1.75,12.87,27.8,27.8,0,0,1,9.28-9.56,23.12,23.12,0,0,1,12.09-3.19,19.18,19.18,0,0,1,9.75,2.28,16,16,0,0,1,6.31,7.22,25.15,25.15,0,0,1,2.37,11.06v28.49q0,3.19,1.44,4.53t4.82,1.34h1.7v4.68h-26v-4.68h.52q4.13,0,5.75-1.31a4.76,4.76,0,0,0,1.63-3.94V268.28q0-8.18-2.5-12.12-3.5-5.62-10.62-5.62a14.68,14.68,0,0,0-11.78,5.68q-4.72,5.68-4.72,14.81v21.68q0,3.19,1.47,4.53t4.84,1.34h1.65v4.68H701.63v-4.68h1.64a7.41,7.41,0,0,0,4.65-1.25,3.82,3.82,0,0,0,1.6-3.12v-37.8a7.49,7.49,0,0,0-2-5.69,8.15,8.15,0,0,0-5.84-1.94h-3Z" transform="translate(-117.57 -213.4)"/><path class="cls-1" d="M383.23,322.53l5.11-9.24h4.19l2.31,36.86h-4.06q-4.68-15.9-11.05-23-8.11-9-18.6-9a24.13,24.13,0,0,0-14.41,4.56q-6.37,4.56-9.77,13.67c-2.27,6.07-3.4,12.21-3.4,23.24,0,10.7,1.14,16.64,3.4,22.68s5.4,10.48,9.39,13.33a23.55,23.55,0,0,0,14,4.27q10.92,0,16.88-6.13t6-15.81v-8.68a3.66,3.66,0,0,0-1.59-3.19q-1.6-1.13-5.22-1.12H368.6v-4.38h36.32v4.38h-2.83q-3.5,0-5,1.22a4.29,4.29,0,0,0-1.5,3.53V405h-4.13q-2.25-8.25-4.68-15.81a33,33,0,0,1-11.15,11.53A28.13,28.13,0,0,1,361,404.54a41.27,41.27,0,0,1-21.65-6,42.45,42.45,0,0,1-15.74-16.9c-3.86-7.27-5.78-13.06-5.78-22.23s1.93-15,5.81-22.32a45.56,45.56,0,0,1,15.9-17.37q10.09-6.44,20.4-6.43a32.12,32.12,0,0,1,11.21,2A47.09,47.09,0,0,1,383.23,322.53Z" transform="translate(-117.57 -213.4)"/><path class="cls-1" d="M467,398.14l1,1.72c0,3.31-4,2.94-7.69,2.94-2.83,0-8.5-.15-10.47-1.64-2.13-1.6-2.75-3.18-4.21-7.05q-5.94,6.25-10.44,8.34a25.44,25.44,0,0,1-10.8,2.09q-9,0-13.69-3.87a12.33,12.33,0,0,1-4.68-9.94q0-9.12,10.72-15.15t28.52-8v-8.87a10.47,10.47,0,0,0-3.81-8.12,14.07,14.07,0,0,0-9.68-3.38,18.61,18.61,0,0,0-9.37,2.25c-1.87,1.13-2.81,2.23-2.81,3.31a6.09,6.09,0,0,0,1.5,2.94,7.92,7.92,0,0,1,1.81,4.44,6.16,6.16,0,0,1-1.81,4.59,6.47,6.47,0,0,1-4.75,1.78,7,7,0,0,1-5.22-2.12,7.41,7.41,0,0,1-2.09-5.44q0-6.19,7-11.31t18.28-5.12q10.43,0,15.93,4.5a13.89,13.89,0,0,1,5.5,11.06v32a9.58,9.58,0,0,0,1.39,5.51,5.1,5.1,0,0,0,3.27,2.29A46.6,46.6,0,0,0,467,398.14Zm-21.76-26.46q-15.88,2.19-22.49,7.13-4.94,3.74-4.93,10.62,0,4.81,2.56,7.53a8.76,8.76,0,0,0,6.68,2.72,17.17,17.17,0,0,0,12.77-5.59,19.38,19.38,0,0,0,5.41-14Z" transform="translate(-117.57 -213.4)"/><path class="cls-1" d="M465,344.26l16.75-1.06a95.33,95.33,0,0,1,1.81,12.44q4.76-6.84,9.51-9.64a20.22,20.22,0,0,1,10.45-2.8,15.48,15.48,0,0,1,10,3.17q3.94,3.18,6.07,10.33a31.7,31.7,0,0,1,9.3-10.15,19.94,19.94,0,0,1,11.17-3.36q8,0,12,4.75,5.12,6.25,5.12,16.12v29q0,2.63,1.31,3.56a8,8,0,0,0,5.19,1.44h2.93v4.68H537.16v-4.68h2.94c2.5,0,4.24-.41,5.25-1.25a4.61,4.61,0,0,0,1.5-3.76V364q0-6.5-3.18-10.07a10.64,10.64,0,0,0-8.36-3.57,12.62,12.62,0,0,0-7.1,2.1,14,14,0,0,0-5,6q-2.68,5.57-2.68,9.45V393.1a4.83,4.83,0,0,0,1.38,3.79,6.27,6.27,0,0,0,4.25,1.22h4v4.68H500.29v-4.68h3.37a7.52,7.52,0,0,0,4.75-1.25,3.91,3.91,0,0,0,1.56-3.19v-27q0-8.56-3-12.44a9.83,9.83,0,0,0-8.16-3.87q-6.62,0-10.19,4.5a23.23,23.23,0,0,0-5.06,14.87v23.36q0,2.69,1.19,3.69a8.53,8.53,0,0,0,5.25,1.31h3v4.68H463.49v-4.68h4.43a5.42,5.42,0,0,0,3.84-1.25,4.15,4.15,0,0,0,1.34-3.19V355.31a6.31,6.31,0,0,0-1.62-4.75q-1.63-1.56-6.5-2Z" transform="translate(-117.57 -213.4)"/><path class="cls-1" d="M567.86,344.26l20.89-.69v50.36a3.73,3.73,0,0,0,1,2.94,5.33,5.33,0,0,0,3.63,1.25H600v4.68H564.27v-4.68h8.61a5.33,5.33,0,0,0,4-1.34,5.43,5.43,0,0,0,1.28-3.9V356a6.71,6.71,0,0,0-2-5.28q-2-1.78-5.94-1.78h-2.39Zm13.83-27.67a6.76,6.76,0,0,1,4.93,2.12,6.85,6.85,0,0,1,2.13,5,6.68,6.68,0,0,1-2.06,4.87,7,7,0,1,1-5-12Z" transform="translate(-117.57 -213.4)"/><path class="cls-1" d="M598.29,344.26l19.43-1.19a96.61,96.61,0,0,1,1.75,12.87,27.84,27.84,0,0,1,9.28-9.56,23.18,23.18,0,0,1,12.09-3.19,19.13,19.13,0,0,1,9.74,2.28,16,16,0,0,1,6.32,7.22,25.24,25.24,0,0,1,2.37,11.06v28.49q0,3.19,1.44,4.53c1,.9,2.56,1.34,4.81,1.34h1.7v4.68h-26v-4.68h.52c2.75,0,4.66-.44,5.75-1.31a4.75,4.75,0,0,0,1.62-3.93V367.81q0-8.18-2.5-12.12-3.51-5.62-10.63-5.62a14.69,14.69,0,0,0-11.78,5.69q-4.72,5.68-4.71,14.81v21.68c0,2.13.49,3.64,1.47,4.53s2.59,1.34,4.84,1.34h1.64v4.68H598.86v-4.68h4.06a7.42,7.42,0,0,0,4.65-1.25,3.83,3.83,0,0,0,1.6-3.13v-37.8a7.48,7.48,0,0,0-2-5.68,8.12,8.12,0,0,0-5.84-1.94h-3Z" transform="translate(-117.57 -213.4)"/><path class="cls-1" d="M711.58,347.53c4.16-4.21,15.79-10.37,19.52-10.52,2.52-.1,4.58.33,6,1.66S736,343,736,344.93a5.46,5.46,0,0,1-1.4,3.84,4.32,4.32,0,0,1-3.28,1.53q-3.56,0-4.81-4.37c-.33-1.25-.89-1.87-1.69-1.87-1.42,0-8.6,4.1-10.27,6a27.63,27.63,0,0,1,3.69,6.41,16.8,16.8,0,0,1,1,5.84,17.63,17.63,0,0,1-2.62,9.59q-2.63,4.15-8.72,7.34a25.19,25.19,0,0,1-11.65,3.19h-6.81q-7.25,0-9.62,1.5a5.12,5.12,0,0,0-2.38,4.56,4.26,4.26,0,0,0,1.94,3.75q1.93,1.3,7.31,1.31l15.43-.31q11.69,0,16.84,3.91a12.7,12.7,0,0,1,5.15,10.71,16.09,16.09,0,0,1-5.87,12.62q-8.18,7.25-24.43,7.25-13.43,0-19.93-4.94-5.12-3.87-5.12-8.68a9.11,9.11,0,0,1,3.28-6.75q3.28-3.06,11-4.56-6.19-1.5-9.31-4.41a9.46,9.46,0,0,1-3.12-7.21,10.39,10.39,0,0,1,2.53-7q2.53-3,8.78-5.1a21.75,21.75,0,0,1-8-7.09,17.18,17.18,0,0,1-2.68-9.53,18.05,18.05,0,0,1,6.68-14.25q6.68-5.74,17.37-5.74a28.47,28.47,0,0,1,8.43,1.25A29.78,29.78,0,0,1,711.58,347.53Zm-12.75,55.3q-11.5,0-16.4,3.19t-4.91,7.69a7.61,7.61,0,0,0,3.69,6.68q4.87,3.25,13.87,3.25,10.75,0,16.18-3.56t5.44-7.94a7.73,7.73,0,0,0-1.69-4.78,10.4,10.4,0,0,0-5.37-3.37A38.26,38.26,0,0,0,698.83,402.83Zm-3.69-56.36a11.75,11.75,0,0,0-9.18,4.1q-3.62,4.09-3.63,11.46,0,7.87,3.63,12.22a12.1,12.1,0,0,0,18.46.12q3.59-4.22,3.59-12.09,0-7.31-3.65-11.56A11.67,11.67,0,0,0,695.14,346.47Z" transform="translate(-117.57 -213.4)"/><path class="cls-1" d="M733.29,337.39a6.75,6.75,0,0,1,4.93,2.12,6.82,6.82,0,0,1,2.13,5,6.66,6.66,0,0,1-2.06,4.87,7,7,0,1,1-5-12Z" transform="translate(-117.57 -213.4)"/><path class="cls-2" d="M245.19,393.37c-.44,0-.74,0-1.53,0h-.8v-3.86h1.06a5.68,5.68,0,0,1,2.45.26,1.75,1.75,0,0,1,1,1.65,1.92,1.92,0,0,1-2.17,1.91m4.53-1.88a3.74,3.74,0,0,0-1.38-3.05c-1.08-.88-2.18-.88-3.83-.89h-3.95v12.38h2.31v-4.6h2.06l2.46,4.6H250l-2.76-5a3.39,3.39,0,0,0,2.45-3.4m-4.9,12a9.56,9.56,0,1,1,9.56-9.56,9.56,9.56,0,0,1-9.56,9.56m0-21.57a12,12,0,1,0,12,12,12,12,0,0,0-12-12" transform="translate(-117.57 -213.4)"/><path class="cls-3" d="M117.78,224.89c57.57-30.74,131.93,1.68,137.52,79.94C148.52,313.22,135.66,265.14,117.78,224.89Z" transform="translate(-117.57 -213.4)"/><path class="cls-4" d="M117.78,392.7c57.57,30.74,131.93-1.68,137.52-79.95C148.52,304.37,135.66,352.45,117.78,392.7Z" transform="translate(-117.57 -213.4)"/><path class="cls-5" d="M235.4,249.41C208.32,213.27,158.67,203,117.57,225c16,36.05,28,78.37,107,80.79a91.81,91.81,0,0,0,11.52-44.66A93.13,93.13,0,0,0,235.4,249.41ZM136.93,353.08q3.45.26,7,.26a92.15,92.15,0,0,0,76.84-41.2C173.19,314.45,150.86,331.74,136.93,353.08Z" transform="translate(-117.57 -213.4)"/></svg>