<?xml version="1.0" encoding="UTF-8"?>
<svg width="128px" height="40px" viewBox="0 0 128 40" version="1.1" xmlns="http://www.w3.org/2000/svg" xmlns:xlink="http://www.w3.org/1999/xlink">
    <!-- Generator: Sketch 48.2 (47327) - http://www.bohemiancoding.com/sketch -->
    <title>google-logo</title>
    <desc>Created with Sketch.</desc>
    <defs></defs>
    <g id="partners" stroke="none" stroke-width="1" fill="none" fill-rule="evenodd" transform="translate(-262.000000, -464.000000)">
        <g transform="translate(231.000000, 250.000000)" fill="#151515" fill-rule="nonzero" id="google-logo">
            <g transform="translate(31.000000, 214.000000)">
                <path d="M16.1075676,14.2434783 L16.1075676,18.5217391 L26.3578378,18.5217391 C26.0440541,20.9217391 25.2421622,22.6782609 24.0218919,23.9130435 C22.5227027,25.4086957 20.1867568,27.0434783 16.1075676,27.0434783 C9.79702703,27.0434783 4.86364865,21.9652174 4.86364865,15.6695652 C4.86364865,9.37391304 9.79702703,4.29565217 16.1075676,4.29565217 C19.5068919,4.29565217 21.9997297,5.63478261 23.8301351,7.35652174 L26.8459459,4.34782609 C24.3008108,1.87826087 20.8840541,0 16.1075676,0 C7.46108108,0 0.191756757,7.02608696 0.191756757,15.6521739 C0.191756757,24.2782609 7.46108108,31.3043478 16.1075676,31.3043478 C20.7794595,31.3043478 24.3008108,29.773913 27.0551351,26.9217391 C29.8791892,24.1043478 30.7682432,20.1217391 30.7682432,16.9217391 C30.7682432,15.9304348 30.6985135,15.0086957 30.5416216,14.2434783 L16.1075676,14.2434783 Z" id="Shape"></path>
                <path d="M43.5810811,10.7652174 C37.9852703,10.7652174 33.417973,15.0086957 33.417973,20.8695652 C33.417973,26.6782609 37.9852703,30.973913 43.5810811,30.973913 C49.1768919,30.973913 53.7441892,26.6956522 53.7441892,20.8695652 C53.7441892,15.0086957 49.1768919,10.7652174 43.5810811,10.7652174 Z M43.5810811,26.9913043 C40.512973,26.9913043 37.8632432,24.4695652 37.8632432,20.8695652 C37.8632432,17.2347826 40.512973,14.7478261 43.5810811,14.7478261 C46.6491892,14.7478261 49.2989189,17.2347826 49.2989189,20.8695652 C49.2989189,24.4695652 46.6491892,26.9913043 43.5810811,26.9913043 Z" id="Shape"></path>
                <path d="M93.402973,13.026087 L93.2460811,13.026087 C92.2524324,11.8434783 90.3348649,10.7652174 87.9117568,10.7652174 C82.8563514,10.7652174 78.4459459,15.1652174 78.4459459,20.8695652 C78.4459459,26.5391304 82.8563514,30.973913 87.9117568,30.973913 C90.3348649,30.973913 92.2524324,29.8956522 93.2460811,28.6782609 L93.402973,28.6782609 L93.402973,30.0869565 C93.402973,33.9478261 91.3285135,36.0173913 87.9989189,36.0173913 C85.2794595,36.0173913 83.5885135,34.0695652 82.8912162,32.4173913 L79.0212162,34.0173913 C80.1368919,36.6956522 83.082973,39.9826087 87.9989189,39.9826087 C93.2112162,39.9826087 97.6216216,36.9217391 97.6216216,29.4608696 L97.6216216,11.2869565 L93.402973,11.2869565 L93.402973,13.026087 Z M88.2952703,26.9913043 C85.2271622,26.9913043 82.8912162,24.3826087 82.8912162,20.8695652 C82.8912162,17.3043478 85.2271622,14.7478261 88.2952703,14.7478261 C91.3285135,14.7478261 93.6993243,17.3565217 93.6993243,20.9043478 C93.7167568,24.4347826 91.3285135,26.9913043 88.2952703,26.9913043 Z" id="Shape"></path>
                <path d="M66.2432432,10.7652174 C60.6474324,10.7652174 56.0801351,15.0086957 56.0801351,20.8695652 C56.0801351,26.6782609 60.6474324,30.973913 66.2432432,30.973913 C71.8390541,30.973913 76.4063514,26.6956522 76.4063514,20.8695652 C76.4063514,15.0086957 71.8390541,10.7652174 66.2432432,10.7652174 Z M66.2432432,26.9913043 C63.1751351,26.9913043 60.5254054,24.4695652 60.5254054,20.8695652 C60.5254054,17.2347826 63.1751351,14.7478261 66.2432432,14.7478261 C69.3113514,14.7478261 71.9610811,17.2347826 71.9610811,20.8695652 C71.9610811,24.4695652 69.3113514,26.9913043 66.2432432,26.9913043 Z" id="Shape"></path>
                <polygon id="Shape" points="101.108108 0.417391304 105.483649 0.417391304 105.483649 30.973913 101.108108 30.973913"></polygon>
                <path d="M118.993784,26.9913043 C116.727568,26.9913043 115.123784,25.9652174 114.077838,23.9304348 L127.622838,18.3478261 L127.169595,17.2 C126.332838,14.9391304 123.752838,10.7652174 118.505676,10.7652174 C113.293378,10.7652174 108.952703,14.8521739 108.952703,20.8695652 C108.952703,26.5391304 113.241081,30.973913 118.993784,30.973913 C123.630811,30.973913 126.315405,28.1391304 127.431081,26.5043478 L123.979459,24.2086957 C122.828919,25.8782609 121.26,26.9913043 118.993784,26.9913043 Z M118.68,14.5565217 C120.475541,14.5565217 122.009595,15.4782609 122.515135,16.7826087 L113.363108,20.5565217 C113.363108,16.3130435 116.378919,14.5565217 118.68,14.5565217 Z" id="Shape"></path>
            </g>
        </g>
    </g>
</svg>