<?xml version="1.0" encoding="UTF-8"?>
<svg width="164px" height="35px" viewBox="0 0 164 35" version="1.1" xmlns="http://www.w3.org/2000/svg" xmlns:xlink="http://www.w3.org/1999/xlink">
    <!-- Generator: Sketch 48.2 (47327) - http://www.bohemiancoding.com/sketch -->
    <title>madmaniak</title>
    <desc>Created with Sketch.</desc>
    <defs></defs>
    <g id="partners" stroke="none" stroke-width="1" fill="none" fill-rule="evenodd" transform="translate(-498.000000, -548.000000)">
        <g transform="translate(231.000000, 250.000000)" fill="#151515" id="madmaniak">
            <path d="M281.654089,306.859551 C283.704196,305.720968 285.645739,305.151685 287.478776,305.151685 C289.215337,305.151685 290.590094,305.697248 291.603088,306.78839 C292.616082,307.879531 293.122572,309.267158 293.122572,310.951311 L293.122572,323.262172 L291.132772,323.262172 L291.132772,311.058052 C291.132772,309.990631 290.903646,309.124847 290.445387,308.460674 C289.987127,307.796501 289.432401,307.381399 288.78119,307.215356 C288.12998,307.049313 287.605402,306.966292 287.20744,306.966292 C286.809478,306.966292 286.363285,306.984082 285.868847,307.019663 C285.37441,307.055244 284.717179,307.227214 283.897136,307.535581 L282.558544,308.17603 C282.968565,308.982526 283.173573,309.90761 283.173573,310.951311 L283.173573,323.262172 L281.183773,323.262172 L281.183773,311.058052 C281.183773,309.824588 280.882291,308.863924 280.279319,308.17603 C279.555751,307.369534 278.452328,306.966292 276.969015,306.966292 C275.485703,306.966292 274.020501,307.357674 272.573367,308.140449 L272.573367,323.262172 L270.547389,323.262172 L270.547389,305.43633 L272.573367,305.43633 L272.392476,306.574906 C274.05668,305.649808 275.738949,305.187266 277.439332,305.187266 C279.139715,305.187266 280.54462,305.744689 281.654089,306.859551 Z M303.578065,323.617978 C298.296025,323.617978 295.655044,321.495027 295.655044,317.249064 L295.655044,314.29588 C295.655044,311.947554 296.487134,310.370166 298.151339,309.56367 C299.019619,309.160422 299.875828,308.958801 300.719989,308.958801 C303.56602,308.958801 305.845223,309.622965 307.557665,310.951311 C307.557665,309.646685 307.171768,308.60893 306.399963,307.838015 C305.628158,307.0671 304.144868,306.681648 301.950047,306.681648 L302.058582,305.151685 C304.012213,305.151685 305.459326,305.377026 306.399963,305.827715 C306.90646,306.088641 307.352653,306.349562 307.738556,306.610487 C308.124458,306.871412 308.42594,307.215354 308.64301,307.642322 C308.86008,308.069291 309.040969,308.442882 309.185683,308.763109 C309.330396,309.083335 309.426871,309.516227 309.475108,310.061798 C309.547465,310.892014 309.583643,311.757798 309.583643,312.659176 L309.583643,323.262172 C307.075277,323.499377 305.073437,323.617978 303.578065,323.617978 Z M307.557665,321.625468 L307.557665,312.481273 C305.555796,311.532455 303.505719,310.975032 301.407375,310.808989 C301.262661,310.785268 301.11795,310.773408 300.973236,310.773408 C300.056718,310.773408 299.272865,311.05212 298.621655,311.609551 C297.970444,312.166982 297.644844,313.097996 297.644844,314.402622 L297.644844,317.498127 C297.644844,319.466926 298.513112,320.747812 300.249673,321.340824 C301.262667,321.696631 302.408298,321.874532 303.6866,321.874532 C304.964902,321.874532 306.255244,321.791511 307.557665,321.625468 Z M319.684971,305.151685 C321.68684,305.151685 323.278664,305.566787 324.46049,306.397004 L324.46049,298.355805 L326.486468,298.355805 L326.486468,323.262172 C324.412243,323.546818 322.494818,323.689139 320.734138,323.689139 C318.973458,323.689139 317.381634,323.333337 315.958619,322.621723 C314.077344,321.672904 313.136721,320.024356 313.136721,317.67603 L313.136721,310.951311 C313.136721,308.460662 314.161759,306.752814 316.211866,305.827715 C317.200741,305.377026 318.358431,305.151685 319.684971,305.151685 Z M324.46049,308.140449 C322.989237,307.333954 321.385354,306.930712 319.648793,306.930712 C318.129302,306.930712 316.99573,307.310233 316.248044,308.069288 C315.500358,308.828343 315.126521,309.824588 315.126521,311.058052 L315.126521,317.71161 C315.126521,320.486905 317.019826,321.874532 320.806494,321.874532 C321.891845,321.874532 323.109832,321.767791 324.46049,321.554307 L324.46049,308.140449 Z M341.037712,306.859551 C343.087819,305.720968 345.029362,305.151685 346.862399,305.151685 C348.59896,305.151685 349.973717,305.697248 350.986711,306.78839 C351.999705,307.879531 352.506195,309.267158 352.506195,310.951311 L352.506195,323.262172 L350.516395,323.262172 L350.516395,311.058052 C350.516395,309.990631 350.287269,309.124847 349.82901,308.460674 C349.370751,307.796501 348.816024,307.381399 348.164814,307.215356 C347.513603,307.049313 346.989025,306.966292 346.591063,306.966292 C346.193101,306.966292 345.746908,306.984082 345.25247,307.019663 C344.758033,307.055244 344.100802,307.227214 343.280759,307.535581 L341.942167,308.17603 C342.352188,308.982526 342.557196,309.90761 342.557196,310.951311 L342.557196,323.262172 L340.567396,323.262172 L340.567396,311.058052 C340.567396,309.824588 340.265914,308.863924 339.662942,308.17603 C338.939375,307.369534 337.835951,306.966292 336.352638,306.966292 C334.869326,306.966292 333.404124,307.357674 331.95699,308.140449 L331.95699,323.262172 L329.931012,323.262172 L329.931012,305.43633 L331.95699,305.43633 L331.776099,306.574906 C333.440303,305.649808 335.122572,305.187266 336.822955,305.187266 C338.523338,305.187266 339.928243,305.744689 341.037712,306.859551 Z M362.390454,323.617978 C357.108414,323.617978 354.467433,321.495027 354.467433,317.249064 L354.467433,314.29588 C354.467433,311.947554 355.299523,310.370166 356.963727,309.56367 C357.832008,309.160422 358.688216,308.958801 359.532378,308.958801 C362.378409,308.958801 364.657611,309.622965 366.370054,310.951311 C366.370054,309.646685 365.984157,308.60893 365.212352,307.838015 C364.440547,307.0671 362.957256,306.681648 360.762436,306.681648 L360.87097,305.151685 C362.824602,305.151685 364.271714,305.377026 365.212352,305.827715 C365.718849,306.088641 366.165042,306.349562 366.550944,306.610487 C366.936847,306.871412 367.238329,307.215354 367.455399,307.642322 C367.672469,308.069291 367.853358,308.442882 367.998072,308.763109 C368.142785,309.083335 368.239259,309.516227 368.287497,310.061798 C368.359854,310.892014 368.396031,311.757798 368.396031,312.659176 L368.396031,323.262172 C365.887665,323.499377 363.885826,323.617978 362.390454,323.617978 Z M366.370054,321.625468 L366.370054,312.481273 C364.368184,311.532455 362.318108,310.975032 360.219763,310.808989 C360.07505,310.785268 359.930339,310.773408 359.785625,310.773408 C358.869107,310.773408 358.085254,311.05212 357.434044,311.609551 C356.782833,312.166982 356.457233,313.097996 356.457233,314.402622 L356.457233,317.498127 C356.457233,319.466926 357.3255,320.747812 359.062062,321.340824 C360.075056,321.696631 361.220686,321.874532 362.498988,321.874532 C363.77729,321.874532 365.067633,321.791511 366.370054,321.625468 Z M373.514292,306.646067 C374.744356,305.626087 376.468832,305.116105 378.687771,305.116105 C379.941954,305.116105 381.015229,305.341446 381.907629,305.792135 C383.957736,306.717233 384.982774,308.436941 384.982774,310.951311 L384.982774,323.262172 L382.992974,323.262172 L382.992974,311.058052 C382.992974,309.824588 382.655315,308.863924 381.979985,308.17603 C381.159942,307.345814 379.935926,306.930712 378.3079,306.930712 C376.679874,306.930712 375.130258,307.333954 373.659004,308.140449 L373.659004,323.262172 L371.633026,323.262172 L371.633026,305.43633 L373.659004,305.43633 L373.514292,306.646067 Z M392.271725,299.209738 C392.271725,299.518104 392.151132,299.790885 391.909943,300.02809 C391.668754,300.265295 391.385361,300.383895 391.059756,300.383895 C390.734151,300.383895 390.450758,300.259365 390.209569,300.0103 C389.96838,299.761235 389.847787,299.482523 389.847787,299.174157 C389.847787,298.865791 389.96838,298.59301 390.209569,298.355805 C390.450758,298.118601 390.74018,298 391.077845,298 C391.41551,298 391.698903,298.118601 391.928032,298.355805 C392.157162,298.59301 392.271725,298.877651 392.271725,299.209738 Z M392.054656,323.262172 L390.028678,323.262172 L390.028678,305.43633 L392.054656,305.43633 L392.054656,323.262172 Z M404.237181,323.617978 C398.955141,323.617978 396.31416,321.495027 396.31416,317.249064 L396.31416,314.29588 C396.31416,311.947554 397.14625,310.370166 398.810455,309.56367 C399.678735,309.160422 400.534943,308.958801 401.379105,308.958801 C404.225136,308.958801 406.504338,309.622965 408.216781,310.951311 C408.216781,309.646685 407.830884,308.60893 407.059079,307.838015 C406.287274,307.0671 404.803984,306.681648 402.609163,306.681648 L402.717698,305.151685 C404.671329,305.151685 406.118442,305.377026 407.059079,305.827715 C407.565576,306.088641 408.011769,306.349562 408.397672,306.610487 C408.783574,306.871412 409.085056,307.215354 409.302126,307.642322 C409.519196,308.069291 409.700085,308.442882 409.844799,308.763109 C409.989512,309.083335 410.085986,309.516227 410.134224,310.061798 C410.206581,310.892014 410.242759,311.757798 410.242759,312.659176 L410.242759,323.262172 C407.734393,323.499377 405.732553,323.617978 404.237181,323.617978 Z M408.216781,321.625468 L408.216781,312.481273 C406.214912,311.532455 404.164835,310.975032 402.066491,310.808989 C401.921777,310.785268 401.777066,310.773408 401.632352,310.773408 C400.715834,310.773408 399.931981,311.05212 399.280771,311.609551 C398.62956,312.166982 398.30396,313.097996 398.30396,314.402622 L398.30396,317.498127 C398.30396,319.466926 399.172228,320.747812 400.908789,321.340824 C401.921783,321.696631 403.067414,321.874532 404.345716,321.874532 C405.624018,321.874532 406.91436,321.791511 408.216781,321.625468 Z M426.675268,323.262172 L424.25133,323.262172 L417.30512,311.983146 L415.423855,313.58427 L415.423855,323.262172 L413.397877,323.262172 L413.397877,298.355805 L415.423855,298.355805 L415.423855,311.342697 L422.65949,304.7603 L424.106617,306.14794 L418.752247,310.737828 C420.392333,313.418241 423.033313,317.59298 426.675268,323.262172 Z M267,331.501873 L431,331.501873 L431,333 L267,333 L267,331.501873 Z"></path>
        </g>
    </g>
</svg>