<?xml version="1.0" encoding="UTF-8"?>
<svg width="48px" height="48px" viewBox="0 0 48 48" version="1.1" xmlns="http://www.w3.org/2000/svg" xmlns:xlink="http://www.w3.org/1999/xlink">
    <!-- Generator: Sketch 48.2 (47327) - http://www.bohemiancoding.com/sketch -->
    <title>Page 1</title>
    <desc>Created with Sketch.</desc>
    <defs></defs>
    <g id="home" stroke="none" stroke-width="1" fill="none" fill-rule="evenodd" transform="translate(-1171.000000, -5828.000000)">
        <g id="Page-1" transform="translate(1171.000000, 5828.000000)" fill="#151515">
            <path d="M32.0140885,22.5303929 C31.9558938,22.2568354 31.8433274,22.080977 31.6759646,22.0019681 C31.5098761,21.9233841 31.2384425,21.9233841 30.8620885,22.0036673 C30.4245664,22.0966938 30.1412389,22.2517381 30.012531,22.4683752 C29.8829735,22.6850124 29.8668319,23.0545699 29.9641062,23.5770478 L31.6865841,23.2108885 C31.9877522,23.1471717 32.0969204,22.919915 32.0140885,22.5303929" id="Fill-1"></path>
            <path d="M37.1773593,20.8540885 C36.8218195,20.9296991 36.3001912,21.1977345 35.6112,21.6586195 L36.3656071,25.2067965 L35.1150584,25.472708 L34.0467398,20.4475752 L35.0211823,20.240708 L35.2909168,20.9547611 C35.883908,20.2143717 36.511731,19.7738761 37.1748106,19.6328496 L37.4207575,19.580177 L37.5362973,20.7780531 L37.1773593,20.8540885 Z M31.8081558,26.304 C30.8991292,26.4972743 30.2105628,26.4331327 29.7416071,26.1107257 C29.2730761,25.7891681 28.9370761,25.1494513 28.7331823,24.1924248 C28.5254655,23.2145841 28.5679434,22.4894867 28.8606159,22.0162832 C29.1528637,21.5435044 29.7335363,21.2143009 30.6017841,21.0299469 C31.4012177,20.8600354 32.0133239,20.8816991 32.4376779,21.0949381 C32.8616071,21.3090265 33.1351646,21.7061947 33.2587752,22.287292 C33.4622442,23.2443186 33.1160496,23.8181947 32.2206159,24.0084956 L30.1697841,24.4443186 C30.3103858,24.871646 30.4960142,25.1379823 30.7253947,25.2429027 C30.9547752,25.347823 31.295023,25.3520708 31.7465628,25.2560708 C32.2592708,25.1469027 32.8514124,24.9782655 33.5246867,24.7493097 L33.8080142,25.5253805 C33.3836602,25.8511858 32.7176071,26.1107257 31.8081558,26.304 Z M26.9809699,26.8906195 C26.9482619,27.104708 26.8288991,27.2338407 26.6241558,27.2775929 L25.5367221,27.5086726 C25.3179611,27.5549735 25.1599434,27.484885 25.0630938,27.2984071 L22.3360142,22.9367788 L23.6481558,22.6581239 L25.398669,25.7479646 C25.6607575,26.2424071 25.8047575,26.5155398 25.8298195,26.5673628 L25.9632,26.5389027 L26.0443327,25.6107611 L26.376085,22.0783009 L27.6992708,21.7970973 L26.9809699,26.8906195 Z M22.392085,28.2949381 C21.9749522,28.3837168 21.6194124,28.3340177 21.326315,28.1462655 C21.0323681,27.9589381 20.8390938,27.6458761 20.7460673,27.208354 L19.4882973,21.2911858 L20.7401204,21.0252743 L21.9320496,26.6349027 C21.9668814,26.8349735 22.0446159,26.9717522 22.1644035,27.0460885 C22.2833416,27.1212743 22.4460319,27.1365664 22.6512,27.0928142 L23.0815009,27.0014867 L23.4213239,27.8939469 C23.2136071,28.0591858 22.8703858,28.1929912 22.392085,28.2949381 Z M18.3278018,29.0408496 L17.2594832,24.0157168 L18.5002619,23.752354 L19.5685805,28.7770619 L18.3278018,29.0408496 Z M16.9608637,22.7609204 L16.8406513,22.1968142 C16.7901027,21.9580885 16.8839788,21.8128142 17.123554,21.7618407 L17.6978549,21.6399292 C17.9370053,21.5889558 18.0822796,21.6832566 18.1332531,21.9224071 L18.2530407,22.4865133 C18.3040142,22.7256637 18.2097133,22.8709381 17.9701381,22.9214867 L17.3962619,23.043823 C17.1562619,23.0943717 17.0114124,23.0004956 16.9608637,22.7609204 Z M16.6257133,29.2043894 C16.3338903,29.4770973 15.7736071,29.7018053 14.9469876,29.8772389 C14.1951292,30.0373805 13.4827752,30.1312566 12.8099257,30.1601416 L12.7067044,29.2706549 C13.0677664,29.2230796 13.6416425,29.1151858 14.427908,28.947823 C14.9678018,28.8331327 15.3220673,28.7256637 15.4902796,28.6258407 C15.658492,28.5260177 15.7213593,28.3764956 15.6793062,28.1785487 C15.6703858,28.1373451 15.6593416,28.1003894 15.6448991,28.0676814 C15.6304566,28.0349735 15.6134655,28.0065133 15.5943504,27.9818761 C15.5752354,27.9576637 15.5565451,27.9364248 15.5382796,27.9190088 C15.5200142,27.9011681 15.491554,27.8858761 15.4528991,27.872708 C15.414669,27.859115 15.384085,27.8497699 15.3615717,27.843823 C15.3390584,27.8378761 15.2999788,27.8319292 15.2451823,27.8255575 C15.1903858,27.8196106 15.1504566,27.8157876 15.1245451,27.8136637 C15.0990584,27.8119646 15.0497841,27.8085664 14.9775717,27.8021947 C14.9045097,27.7962478 14.8539611,27.7928496 14.8255009,27.792 L13.4258549,27.7138407 C12.9624212,27.6841062 12.6192,27.5745133 12.3970407,27.3859115 C12.1748814,27.1973097 12.0198372,26.8982655 11.9327575,26.4879292 C11.8180673,25.9480354 11.8928283,25.5423717 12.1570407,25.2717876 C12.4208283,25.0016283 12.9288637,24.7862655 13.6807221,24.6265487 C14.5039434,24.4659823 15.2587752,24.3695575 15.9456425,24.3381239 L16.0361204,25.219115 C15.1827398,25.3720354 14.5408991,25.4939469 14.1093239,25.5856991 C13.6586336,25.6816991 13.3723327,25.7658053 13.2521204,25.8375929 C13.131908,25.9098053 13.0928283,26.044885 13.1344566,26.2432566 C13.1450761,26.2908319 13.1595186,26.3341593 13.1786336,26.3732389 C13.1977487,26.4118938 13.2134655,26.4446018 13.2257841,26.4700885 C13.2389522,26.496 13.2627398,26.5176637 13.298846,26.5355044 C13.3345274,26.5529204 13.3608637,26.5669381 13.3778549,26.5775575 C13.3939965,26.5886018 13.4318018,26.5979469 13.4904212,26.6068673 C13.5498903,26.6157876 13.590669,26.6217345 13.6123327,26.6238584 C13.6344212,26.6264071 13.6845451,26.6302301 13.7648283,26.6344779 C13.8438372,26.6391504 13.9016071,26.6412743 13.9372885,26.6408496 L15.3696425,26.7219823 C15.8262796,26.7534159 16.1695009,26.8540885 16.3984566,27.0231504 C16.6269876,27.1926372 16.7862796,27.4891327 16.8767575,27.9130619 C17.0016425,28.5009558 16.9183858,28.9316814 16.6257133,29.2043894 Z M41.1278018,29.6631504 L47.9000496,26.5992212 L41.9123681,22.1938407 L46.8529699,16.6402832 L39.5918018,15.0511858 L41.8461027,7.968 L34.5662442,9.4700177 L33.7451469,2.08226549 L27.7052177,6.41500885 L23.9497487,0 L20.1951292,6.41500885 L14.1552,2.08226549 L13.3336779,9.4700177 L6.05339469,7.968 L8.30812035,15.0511858 L1.04652743,16.6402832 L5.98755398,22.1938407 L0.000297345133,26.5992212 L6.77254513,29.6631504 L3.09438584,36.1227611 L10.5280142,36.1673628 L9.79484602,43.5644602 L16.6036248,40.5816637 L18.9428814,47.6376637 L23.9497487,42.1435752 L28.9566159,47.6376637 L31.2962973,40.5816637 L38.1050761,43.5644602 L37.3723327,36.1673628 L44.8055363,36.1227611 L41.1278018,29.6631504 Z" id="Fill-3"></path>
        </g>
    </g>
</svg>