<?xml version="1.0" encoding="utf-8"?>
<!-- Generator: Adobe Illustrator 17.0.0, SVG Export Plug-In . SVG Version: 6.00 Build 0)  -->
<!DOCTYPE svg PUBLIC "-//W3C//DTD SVG 1.1//EN" "http://www.w3.org/Graphics/SVG/1.1/DTD/svg11.dtd">
<svg version="1.1" id="Layer_1" xmlns="http://www.w3.org/2000/svg" xmlns:xlink="http://www.w3.org/1999/xlink" x="0px" y="0px"
	 width="1879px" height="612px" viewBox="0 0 1879 612" enable-background="new 0 0 1879 612" xml:space="preserve">
<g>
	<g>
		<path fill-rule="evenodd" clip-rule="evenodd" d="M723.665,213.5H643v183.695h32.102v-68.851h48.564
			c38.138,0,59.539-26.163,59.539-57.284C783.204,239.664,762.077,213.5,723.665,213.5z M719.275,299.977h-44.174v-58.11h44.174
			c18.109,0,31.004,11.567,31.004,29.193C750.279,288.41,737.384,299.977,719.275,299.977z M851.51,260.87
			c-21.127,0-40.333,6.61-55.697,21.482l12.072,20.104c11.249-11.567,24.419-17.075,39.235-17.075
			c18.109,0,31.004,9.364,31.004,24.786v19.829c-9.877-11.292-24.968-17.075-43.076-17.075c-21.675,0-45.82,12.669-45.82,43.514
			c0,29.193,24.419,44.065,45.82,44.065c17.56,0,33.199-6.334,43.076-17.901v14.596h28.809V308.79
			C906.933,273.263,881.142,260.87,851.51,260.87z M878.124,366.901c-6.859,9.088-19.206,13.77-31.553,13.77
			c-16.188,0-28.535-9.364-28.535-23.96c0-14.321,12.347-23.96,28.535-23.96c12.347,0,24.694,4.682,31.553,13.77V366.901z
			 M1013.099,260.87c-20.852,0-38.138,10.741-46.917,21.206v-17.901h-28.809v133.021h28.809v-93.087
			c6.859-8.813,19.48-17.626,34.022-17.626c16.188,0,26.888,6.61,26.888,27.54v83.172h28.809v-93.638
			C1055.901,276.292,1041.634,260.87,1013.099,260.87z M1179.628,282.627c-10.426-14.321-25.791-21.757-42.528-21.757
			c-34.022,0-58.716,26.714-58.716,69.677c0,44.065,24.968,69.953,58.716,69.953c17.285,0,32.376-8.262,42.528-21.482v18.177h28.809
			V213.5h-28.809V282.627z M1179.628,356.986c-6.311,9.915-20.578,17.901-34.022,17.901c-23.047,0-37.589-18.452-37.589-44.34
			c0-25.613,14.542-44.065,37.589-44.065c13.444,0,27.712,7.987,34.022,17.901V356.986z M1293.477,260.87
			c-21.126,0-40.333,6.61-55.697,21.482l12.072,20.104c11.249-11.567,24.419-17.075,39.235-17.075
			c18.109,0,31.004,9.364,31.004,24.786v19.829c-9.877-11.292-24.968-17.075-43.076-17.075c-21.675,0-45.82,12.669-45.82,43.514
			c0,29.193,24.419,44.065,45.82,44.065c17.56,0,33.199-6.334,43.076-17.901v14.596h28.809V308.79
			C1348.9,273.263,1323.109,260.87,1293.477,260.87z M1320.091,366.901c-6.859,9.088-19.206,13.77-31.553,13.77
			c-16.188,0-28.535-9.364-28.535-23.96c0-14.321,12.347-23.96,28.535-23.96c12.347,0,24.693,4.682,31.553,13.77V366.901z
			 M1448.207,213.5h-68.044v183.695h68.318c57.069,0,95.481-37.73,95.481-91.985C1543.963,251.506,1505.551,213.5,1448.207,213.5z
			 M1448.207,368.828h-35.943V241.867h36.217c40.607,0,62.557,28.091,62.557,63.343
			C1511.038,340.186,1487.991,368.828,1448.207,368.828z M1627.353,260.87c-42.253,0-68.044,31.396-68.044,69.677
			c0,38.006,25.791,69.953,68.044,69.953s68.044-31.947,68.044-69.953C1695.397,292.266,1669.606,260.87,1627.353,260.87z
			 M1627.353,374.887c-24.419,0-38.138-20.655-38.138-44.34c0-23.409,13.719-44.065,38.138-44.065
			c24.693,0,38.138,20.655,38.138,44.065C1665.49,354.232,1652.046,374.887,1627.353,374.887z M1779.613,374.887
			c-23.87,0-40.058-18.452-40.058-44.34c0-25.888,16.188-44.065,40.058-44.065c12.896,0,23.047,4.957,30.455,15.423l18.932-17.35
			c-9.329-12.669-24.693-23.685-50.759-23.685c-40.058,0-68.318,29.468-68.318,69.677c0,40.209,28.26,69.953,68.318,69.953
			c26.065,0,41.43-11.292,50.759-23.685l-18.932-17.901C1802.66,369.379,1792.509,374.887,1779.613,374.887z"/>
	</g>
</g>
<path fill-rule="evenodd" clip-rule="evenodd" fill="#55B76F" d="M547,49.5H65c-8.284,0-15,6.716-15,15v482c0,8.284,6.716,15,15,15
	h482c8.284,0,15-6.716,15-15v-482C562,56.216,555.284,49.5,547,49.5z"/>
<path fill="#FFFFFF" d="M434.983,140.472v95.018c-15.36-12.198-34.794-19.487-55.933-19.487c-29.899,0-56.386,14.583-72.755,37.018
	c-10.849,14.869-17.26,33.182-17.26,52.997c0,0.101-0.044,0.044-0.118-0.121c-0.045,30.855-25.071,55.856-55.937,55.856
	c-30.823,0-55.818-24.931-55.934-55.727v-0.424c0.115-30.796,25.11-55.727,55.934-55.727c20.967,0,39.229,11.543,48.807,28.614
	c1.139-3.848,3.785-12.094,7.493-19.355c3.22-6.305,7.379-11.767,9.658-14.558c-16.437-17.698-39.901-28.779-65.96-28.779
	c-49.129,0-89.06,39.36-89.994,88.266h-0.074V471.36h34.136v-95.018c15.36,12.198,34.794,19.487,55.932,19.487
	c30.023,0,56.608-14.701,72.962-37.295c0.02,0.027,0.041,0.055,0.061,0.082c10.609-14.771,16.869-32.874,16.869-52.447
	c0-0.151,0.095,0.036,0.256,0.463c-0.002-0.206-0.016-0.409-0.016-0.615c0-30.894,25.045-55.939,55.939-55.939
	c30.815,0,55.807,24.92,55.933,55.707v0.463c-0.126,30.787-25.117,55.708-55.933,55.708c-20.978,0-39.246-11.554-48.821-28.638
	c-1.07,3.661-3.77,12.225-7.604,19.733c-3.126,6.121-7.129,11.436-9.446,14.295c16.434,17.643,39.859,28.685,65.872,28.685
	c49.129,0,89.06-39.358,89.993-88.265h0.075V140.472H434.983z"/>
</svg>
