<?xml version="1.0" ?><!DOCTYPE svg  PUBLIC '-//W3C//DTD SVG 1.1//EN'  'http://www.w3.org/Graphics/SVG/1.1/DTD/svg11.dtd'><svg enable-background="new 0.608 -16.991 141.732 141.732" height="141.732px" id="Livello_1" version="1.1" viewBox="0.608 -16.991 141.732 141.732" width="141.732px" xml:space="preserve" xmlns="http://www.w3.org/2000/svg" xmlns:xlink="http://www.w3.org/1999/xlink"><g id="Livello_97"><path d="M27.241,29.921v35.241c-1.613,1.753-3.483,2.773-5.486,2.773c-6.032,0-10.928-9.131-10.928-20.396   c0-11.264,4.896-20.394,10.928-20.394C23.757,27.147,25.627,28.168,27.241,29.921 M115.33,18.612h0.006V0H27.213v15.571h0.027   v2.487c-1.732-0.593-3.537-0.942-5.406-0.942C9.776,17.116,0,30.238,0,46.425c0,16.188,9.775,29.309,21.834,29.309   c1.824,0,3.588-0.334,5.281-0.899v11.22h0.012c-0.004,0.073-0.012,0.146-0.012,0.221c0,2.787,2.275,5.047,5.082,5.047   c0.059,0,0.115-0.006,0.174-0.008v0.008h77.369v-0.006c0.045,0.002,0.088,0.006,0.133,0.006c2.885,0,5.226-2.26,5.226-5.047   c0-0.071-0.013-0.146-0.017-0.221h0.248V18.612z M142.949,102.393c0-2.961-2.461-5.359-5.498-5.359H5.499   C2.461,97.033,0,99.432,0,102.393c0,2.959,2.461,5.357,5.498,5.357h131.953C140.488,107.75,142.949,105.352,142.949,102.393"/></g><g id="Livello_1_1_"/></svg>