<?xml version="1.0" encoding="utf-8"?>
<!-- Generator: Adobe Illustrator 22.0.1, SVG Export Plug-In . SVG Version: 6.00 Build 0)  -->
<svg version="1.1" id="Layer_1" xmlns="http://www.w3.org/2000/svg" xmlns:xlink="http://www.w3.org/1999/xlink" x="0px" y="0px"
	 viewBox="0 0 558 344" style="enable-background:new 0 0 558 344;" xml:space="preserve">
<style type="text/css">
	.st0{fill:none;stroke:#000000;stroke-width:2;}
</style>
<title>img</title>
<desc>Created with Sketch.</desc>
<g id="Page-2.4-_x28_venue_x2B_photos_x29_">
	<g id="home" transform="translate(-421.000000, -2827.000000)">
		<g id="venue" transform="translate(327.000000, 2738.000000)">
			<g id="img" transform="translate(95.000000, 89.000000)">
				<path id="Stroke-1" class="st0" d="M500.8,127.4c-13.5-4-27.2-7.4-40.7-11.7c-34.5-10.9-69.7-19.5-104.4-30.8
					c-17.5-5.7-58.9-17.5-64.5-19.4c-4.3-1.5-12.4-3.5-17.7-6c-10.4,3.8-124.5,37.3-145,43.7c-32.5,10.3-66.7,19.9-98.7,32.1
					l362.9,0.6c-0.3-1,118.6-4.3,126.5-3.7C518.4,132.1,504.6,128.6,500.8,127.4z"/>
				<path id="Stroke-285" class="st0" d="M262.2,135.5C262.1,135.2,262.3,135.8,262.2,135.5c1.6-1.2,4-2.9,4.9-4.7
					c0.6-1.2,1.2-5.7,1.1-6.9c-3.2-0.9-3.9-6.9-3.6-9.6c0.4-3.5,3-4.3,5.4-6.3c-1.5-2-3.7-3.4-5.1-5.4"/>
				<path id="Stroke-287" class="st0" d="M281.4,102.5c-1.6,1.7-2.8,3.9-3.9,5.9c4,2.5,5,7.6,3,11.8c-1.3,2.7-1.6,2-0.7,4.7
					c0.8,2.4,0.9,4.2,1.1,6.7c1.7,0.6,4.8,3,5.6,3.9"/>
				<path id="Stroke-289" class="st0" d="M275.7,95.6c-3.6-3.5-8.4,1.3-5.8,5.4c4.4,7.1,12.3-5.4,4.1-5.8"/>
				<path id="Stroke-291" class="st0" d="M260.7,99.8c-0.4-1.7-1.6-5.8-4.2-5.1c-2.8,0.7,0.3,5.3,0.3,7.1c0,3.4-1.2,1.4-2.7,3.3
					c-1.3,1.6-1.2,10-3.7,14"/>
				<path id="Stroke-293" class="st0" d="M257.2,110c0.2,5.4-2,10.1-1,15.6c0.4,2.2,1.9,8.4,3.4,10.2"/>
				<path id="Stroke-295" class="st0" d="M280.4,103.7c2.1-3.5,4.4-0.6,6.1-3.1c0.4-0.6,1.5-10.7,4.2-4.7c0.7,1.7-0.4,3.3-0.6,5
					c-0.3,2.9-0.2,2.1,1.7,3.7c1.4,1.2,1.6,0.6,2.2,2.7c0.6,2,1.8,9.6,6.6,14.3"/>
				<path id="Stroke-297" class="st0" d="M252.9,108c-1.2-2.3-2.7-1.5-4.5-2.4c-2.6-1.2-1.4-0.4-0.3-2.9c1.5-3.6-2.6-5.1-3.6-1.9
					c-0.5,1.5,1.1,3.5,0.3,5.1c-0.6,1.3-2.1,1.2-2.9,2.4c-2.6,3.4-3.2,10.1-4.5,14.1"/>
				<path id="Stroke-299" class="st0" d="M243.7,113.9c0.5,6.9-0.6,15.7,2.7,21.3"/>
				<path id="Stroke-301" class="st0" d="M290.4,111.2c1.5,4,1.6,10.1,2.4,14.7c0.5,3.1,2.2,6.4,2.4,9.3"/>
				<path id="Stroke-303" class="st0" d="M306.6,100.7c-0.1-2.3-3.8-3.1-5.2-1.5c-1.4,1.7-0.2,4.7,0.3,6.3c-3,0.2-5,0.2-7.5,1.8"/>
				<path id="Stroke-305" class="st0" d="M298.5,110.9c4.6,1.8,3.5,7,2.1,10.7c-1.6,4.4-2.7,9.7-2.7,13.6"/>
				<path id="Stroke-307" class="st0" d="M306.3,100.1c1.2,1.8,0.2,4-0.3,5.9c4.1,1.9,7,7.2,8.1,11.5"/>
				<path id="Stroke-309" class="st0" d="M247.8,113.6c3.4,5.9,3.4,14.9,5.1,21.6"/>
				<path id="Stroke-311" class="st0" d="M307.8,113.9c2.8,6.2-0.3,15.4-0.3,21.3"/>
				<path id="Stroke-313" class="st0" d="M239.4,123.2c-2.2-5.5-10.6,1.5-5.5,6c5.1,4.6,7.8-3.3,4.9-6.9"/>
				<path id="Stroke-315" class="st0" d="M336.9,107.9c-0.6-1.7-2.5-3.2-4-1.7c-1.4,1.4,0.1,4.2-0.8,5.5c-0.4,0.6-1.6,0.4-2.1,1
					c-0.6,0.7-0.5,2.3-0.8,3.2c-1.1,3.4-3.2,5-5.8,7.3"/>
				<path id="Stroke-317" class="st0" d="M337.5,112.7c3.5-0.2,4.2,1.4,5.1,5.2c0.8,3.2,2.8,9.8-1.2,11.3"/>
				<path id="Stroke-319" class="st0" d="M333,116.9c0,5.8-2.5,8-8,9.6c-2.1,0.6-3.6,0.5-4.9,2.5c-0.8,1.1-0.9,2.6-1.2,4
					c0,0.3-0.2,0.9-0.3,2"/>
				<path id="Stroke-321" class="st0" d="M333,127.4c1.6,4.3,13.8,6.7,17.1,8.4"/>
				<path id="Stroke-323" class="st0" d="M350.3,135.4c0.4-1.6,4.9-3,5.4-3.9c1.2-2-3.6-2.2-2.5-4.3c0.6-1.2,3.5-2.4,4.7-2.7"/>
				<path id="Stroke-325" class="st0" d="M217.2,110.3c-0.6-4.6-5.5-3.4-3.6,1.1c-1.4-0.1-4.1-0.1-5.2,0.6c-1.9,1.2-1.7,3.8-2.9,5.9
					c-0.9,1.7-4,4.9-2.4,6.9c0.8,1.1,3.9,1.1,5.1,1.5c2,0.7,3.8,1.9,5.7,2.7"/>
				<path id="Stroke-327" class="st0" d="M216.6,115.1c0.3,1.4,0.4,2.5-0.5,3.7c-0.5,0.8-2.5,0.8-2.7,2.1c-0.5,2.7,4.5,2.2,6.3,2.9
					c3.1,1.2,2.7,3.1,4.6,5.6c1.7,2.3,4.1,4.1,5.8,6.4"/>
				<path id="Stroke-329" class="st0" d="M207.6,127.1c0,2.6-0.4,5-0.6,7.5"/>
				<path id="Stroke-331" class="st0" d="M195.4,135.4c3.6-3.1,1.4-7.5-2.4-6.4c-1.2,0.4-1.2,1.5-2.7,1.5c-0.7,0-1.7-0.5-3-1.5
					c0.3-2.2,0.3-3.6,0-4.5"/>
				<path id="Stroke-333" class="st0" d="M236.7,131.3c-0.5,1,0,2.5,0,4.2"/>
				<path id="Stroke-335" class="st0" d="M271.2,127.4c1.9,0.1,3.8-0.4,5.7-0.3"/>
				<path id="Stroke-337" class="st0" d="M271.8,122.6c1,0.4,2.1,0.3,3.3,0.3"/>
				<path id="Stroke-339" class="st0" d="M269.1,112.7c1.9,0,3.9-0.2,5.7,0.3"/>
				<path id="Stroke-341" class="st0" d="M219.3,130.7c0.5,1.3,0.3,2.8,0.3,4.2"/>
				<path id="Stroke-3" class="st0" d="M548.9,139c2.8-2.1,8.1-7.8,8.1-7.8c-9.9-2.7-28.8-6.4-39.6-8.7c-11.1-2.4-23-6.1-33.9-10
					c-22.9-8.2-47-13.2-70.4-19.9c-19.4-5.6-39.9-11.8-59.2-17.8c-15.3-4.8-30.2-9.6-45.1-13.4c-11.6-3-23.9-6.9-35.2-11.9
					c-0.6,0.2-95.1,31.8-116.4,37c-17.8,4.4-37.2,12.1-55,17.2c-20.4,5.9-39.8,13.9-60,19.1c-7.7,2-15,3.6-22.9,6.3
					c-6.1,2-14,4.5-20.3,6.2c1,1.4,4.2,4.6,6.2,7.4c56.3-1.7,113.5,1.8,170.4,1.8c21.9,0,44,0.5,65.9-0.5
					c12-0.5,122.5,0.2,149.6-0.8c20.2-0.8,40.4-2.2,60.5-3.1c18.9-0.9,37.9-0.4,56.9-0.6C517.1,139.5,547.1,139,548.9,139z"/>
				<path id="Stroke-5" class="st0" d="M164.6,135.3c8.9-12.4,26.4-22.5,39.9-28.8c14.7-6.9,30.5-12.8,46.6-14.9
					c33.2-4.4,71.6,1.8,100.8,19c7.3,4.3,14.2,9.8,21.4,14.6c5.1,3.4,10.5,7.3,14.8,10.7"/>
				<path id="Stroke-7" class="st0" d="M140.9,134.7c4.8-9.1,18.4-19.4,27-25.3c9.5-6.5,18.5-12.8,28.9-18.2
					c19-9.8,42.5-15.7,63.9-17.4c19.8-1.6,38.1,3.7,57,8.8c9.7,2.6,18.7,4.5,28.1,8.5c9,3.8,17.6,8.7,26.4,12.9
					c7.8,3.8,13.8,9.9,20.6,15.1c5.8,4.4,12.7,9.7,15.4,15.5"/>
				<path id="Stroke-9" class="st0" d="M400.6,148.2c-16.2,0-58.2,2.9-74.4,2.9c-19.5,0-103.9-1.6-143.3-1
					c-54.7,0.8-106.9,0-162.3,0c-0.2,3.6-0.3,12.5-0.3,12.5c1.1-0.2,25.8-1.7,32.8-1.4c16.7,0.6,147.5,0,168.7,0
					c18,0,239.5-1.8,260.1-1.8c15.5,0,42.2-0.7,53.9-0.7c0-4.5,0.5-8.9,1.6-12.9C512,145.8,419.6,148.2,400.6,148.2z"/>
				<path id="Stroke-11" class="st0" d="M145.3,128.5c2.1,2.4,4.2,4.8,6.5,6.9"/>
				<path id="Stroke-13" class="st0" d="M156.1,119.3c3.3,2.6,8.2,8.8,10.8,12.6"/>
				<path id="Stroke-15" class="st0" d="M166.8,111.2c2.1,2.1,6.8,8.7,8.8,11.5"/>
				<path id="Stroke-17" class="st0" d="M178.3,102c1.8,4.5,5.8,8.9,8.4,12.7"/>
				<path id="Stroke-19" class="st0" d="M191.8,94.3c1.9,4.5,5,9.4,7.7,13.4"/>
				<path id="Stroke-21" class="st0" d="M206,87.8c0.9,4.6,4,10.4,6.9,14.2"/>
				<path id="Stroke-23" class="st0" d="M219.8,82.5c1.7,4.1,3.1,12.1,5,15.4"/>
				<path id="Stroke-25" class="st0" d="M233.6,78.2c2.4,4.1,2.4,10.8,3.8,15.3"/>
				<path id="Stroke-27" class="st0" d="M249,75.5c0.7,4.7,1.1,11.6,2.3,15.3"/>
				<path id="Stroke-29" class="st0" d="M265.5,74c0,5.1,0.3,11.6,0.4,15.7"/>
				<path id="Stroke-31" class="st0" d="M280.9,74.6c0,3.7-1,12.1-0.6,15.2"/>
				<path id="Stroke-33" class="st0" d="M295.5,77.5c0,1.2-0.5,5.8-1.6,13.8"/>
				<path id="Stroke-35" class="st0" d="M309.6,81.3c-0.3,4-1.3,9.4-1.5,12.7"/>
				<path id="Stroke-37" class="st0" d="M324.9,84.9c-0.8,3.8-2,9.1-3,12.5"/>
				<path id="Stroke-39" class="st0" d="M338.8,89.4c-0.1,2.6-1.2,6.6-3.5,11.9"/>
				<path id="Stroke-41" class="st0" d="M353,95.1c-1.3,3.8-5.2,9.3-6.9,12.3"/>
				<path id="Stroke-43" class="st0" d="M365.3,101.6c-1.5,3.9-7.2,9.7-7.7,12.3"/>
				<path id="Stroke-45" class="st0" d="M381.1,109.7c-4.1,1.8-9.3,8.9-11.5,13"/>
				<path id="Stroke-47" class="st0" d="M390.9,118.3c-2,3.8-8.3,8.5-9.9,12.4"/>
				<path id="Stroke-49" class="st0" d="M400.7,125.8c-3.3,2.9-8.3,6.7-11.2,9.9"/>
				<path id="Stroke-51" class="st0" d="M330.8,87.1c-0.5,4-2.7,7.9-2.7,11.9"/>
				<path id="Stroke-53" class="st0" d="M316.2,82.8c-0.4,3.8-1.3,7.8-1.9,11.6"/>
				<path id="Stroke-55" class="st0" d="M346.1,91.7c-0.1,2.7-1.6,6.9-4.6,12.7"/>
				<path id="Stroke-57" class="st0" d="M372.4,104.8c-2.3,3.1-7.4,7.9-9.4,11.8"/>
				<path id="Stroke-59" class="st0" d="M302,78.2c-0.1,4,0.4,9.7-0.8,13.4"/>
				<path id="Stroke-61" class="st0" d="M273.2,73.2v16.1"/>
				<path id="Stroke-63" class="st0" d="M242.1,77.1c0.3,3.1,1.6,11.9,2.7,15.4c0.4,0.5,0.1-0.3,0.4-0.4"/>
				<path id="Stroke-65" class="st0" d="M212.9,84.4c-0.3,3.2,4.6,13.4,5.8,15.7"/>
				<path id="Stroke-67" class="st0" d="M186.4,98.2c0.8,3.6,5.4,10.4,6.5,13"/>
				<path id="Stroke-69" class="st0" d="M172.9,106.2c1.4,3.8,6.5,10,8.5,12.6"/>
				<path id="Stroke-71" class="st0" d="M198.3,90.9c2.4,3.4,6.1,10.4,7.3,14.6"/>
				<path id="Stroke-73" class="st0" d="M162.2,113.1c1,2.6,7.8,13.4,9.6,13.4"/>
				<path id="Stroke-75" class="st0" d="M151.4,123.5c3.1,4.1,6.8,7.9,10,11.9"/>
				<path id="Stroke-77" class="st0" d="M227.7,80.2c-0.3-0.3,2.9,12.8,2.9,15.3L227.7,80.2z"/>
				<path id="Stroke-79" class="st0" d="M257.4,74.6c0,1.5,2,15.1,0.8,16.3"/>
				<path id="Stroke-81" class="st0" d="M288.7,75.5c-0.5,4.7-1.7,11-1.7,15.7"/>
				<path id="Stroke-83" class="st0" d="M359.6,98.6c-2.8,3.4-5.1,8.1-7.3,11.9"/>
				<path id="Stroke-85" class="st0" d="M385.7,113.5c-2,0.8-10,13.1-9.6,13.4"/>
				<path id="Stroke-87" class="st0" d="M20.4,168.1c0,0,34.2-1.6,51.5-0.8c10.3,0.5,20.3,2.2,30.8,1.7c12.8-0.6,25.7-1.6,38.7-1.3
					c26.3,0.7,52.8,1.3,79.1,0.1c31-1.4,61.6-0.1,92.6-0.1c27.2,0,54.1-2.1,81.3-2.1c1.5,0,3-0.1,4.4,0c1.2,0.1,118.9-0.2,135.5,0"
					/>
				<path id="Stroke-89" class="st0" d="M21.1,172.5c5.4,2.5-1.2,8.9-5.6,4.6c-4.7-4.7,1.1-8.3,4.8-8.9c4.4-0.7,14.9-0.9,21-0.3
					c5.5,0.5,4.7,11.5-2.8,11.9c-2.6,0.1-7.9-3.2-5.7-6.4c2.1-3.1,3.8,1.2,3.8,1.2"/>
				<path id="Stroke-91" class="st0" d="M18,183c6.6,0,15.6,0,22.2,0"/>
				<path id="Stroke-93" class="st0" d="M17.6,187.4c7.2,0,15.8,0,22,0"/>
				<path id="Stroke-95" class="st0" d="M21.5,188.1c0,7.6-0.4,14.5-0.4,20.2c0,8-0.8,98.4-0.8,106"/>
				<path id="Stroke-97" class="st0" d="M36.2,187.4c0,6.1,0.2,16.1,0.6,22.4c0.5,9.2,0.5,68.5,2.3,89.1c0.3,3.2,0.4,10.6,0,15.8"/>
				<path id="Stroke-99" class="st0" d="M17.9,314.2H34c2,0,4.1-0.1,6.1,0c1.8,0.1,2.1,0.4,2.4,2.2c0.2,1.6,0.8,4,0.8,5.5
					c-2.5,0.1-4.6,0.2-7.1,0.1c-3.2-0.2-5.9,0.1-9.1,0.2c-2.9,0.1-8.1,0.5-11,0.6c-1.3,0-1.1-2-1.1-3.5c0-1.1-0.3-2.4-0.2-3.5
					c0.3-2.1,4.8-1.7,4.8-1.7"/>
				<path id="Stroke-101" class="st0" d="M76.3,173.7c5.7-0.4,0.2,9-4.9,4.3c-4.9-4.6-2-10.9,4.1-10.6c7.3,0.4,13.3,1.6,21.1,1.6
					c5.6,0,4.6,10.2-2.9,10.6c-2.6,0.1-7.2-1.6-5.6-5.1c1.6-3.4,3.8,1.2,3.8,1.2"/>
				<path id="Stroke-103" class="st0" d="M73.2,183c6.6,0,15.6,0,22.2,0"/>
				<path id="Stroke-105" class="st0" d="M72.8,187.4c7.2,0,15.8,0,22,0"/>
				<path id="Stroke-107" class="st0" d="M76.7,188.1c0,7.6-0.4,14.5-0.4,20.2c0,8-0.8,98.4-0.8,106"/>
				<path id="Stroke-109" class="st0" d="M91.4,187.4c0,6.1,0.2,16.1,0.6,22.4c0.5,9.2,2.7,99.6,2.3,104.9"/>
				<path id="Stroke-111" class="st0" d="M73.1,314.2h16.1c2,0,4.1-0.1,6.1,0c1.8,0.1,2.1,0.4,2.4,2.2c0.2,1.6,0.5,3.3,0.5,4.8
					c-2.5,0.1-13.7,0.1-16.9,0.2c-2.9,0.1-11.3,0-11.3,0s-0.1-4.6,0-5.6c0.3-2.1,4.8-1.7,4.8-1.7"/>
				<path id="Stroke-113" class="st0" d="M130.2,172.5c5.7-0.4,0.2,9-4.9,4.3c-4.9-4.6,0.4-8,4.2-8.7c4.4-0.7,14.6-0.2,19.8-0.2
					c5.6,0,5.9,10.1-1.6,10.5c-2.6,0.1-7.2-1.6-5.6-5.1c1.6-3.4,3.8,1.2,3.8,1.2"/>
				<path id="Stroke-115" class="st0" d="M127.1,183c6.6,0,15.6,0,22.2,0"/>
				<path id="Stroke-117" class="st0" d="M126.7,187.4c7.2,0,15.8,0,22,0"/>
				<path id="Stroke-119" class="st0" d="M130.6,188.1c0,7.6-0.4,14.5-0.4,20.2c0,8-0.8,98.4-0.8,106"/>
				<path id="Stroke-121" class="st0" d="M145.3,187.4c0,6.1,0.2,16.1,0.6,22.4c0.5,9.2,2.7,99.6,2.3,104.9"/>
				<path id="Stroke-123" class="st0" d="M127,314.2h16.1c2,0,4.1-0.1,6.1,0c1.8,0.1,2.1,0.4,2.4,2.2c0.2,1.6,0.5,3.3,0.5,4.8
					c-2.5,0.1-13,0.4-16.2,0.5c-2.9,0.1-12.2,0.2-12.2,0.2s0-5,0.2-6.1c0.3-2.1,4.8-1.7,4.8-1.7"/>
				<path id="Stroke-125" class="st0" d="M185.4,173.7c5.7-0.4,0.2,9-4.9,4.3c-4.9-4.6,0.4-8,4.2-8.7c4.4-0.7,16.3-1.5,21-0.3
					c5.4,1.3,4.6,10.2-2.9,10.6c-2.6,0.1-7.2-1.6-5.6-5.1c1.6-3.4,3.8,1.2,3.8,1.2"/>
				<path id="Stroke-127" class="st0" d="M182.3,184.3c6.6,0,15.6,0,22.2,0"/>
				<path id="Stroke-129" class="st0" d="M181.9,188.6c7.2,0,15.8,0,22,0"/>
				<path id="Stroke-131" class="st0" d="M185.8,189.4c0,7.6-0.4,13.3-0.4,18.9c0,8-0.8,98.4-0.8,106"/>
				<path id="Stroke-133" class="st0" d="M200.5,188.6c0,6.1,0.2,14.8,0.6,21.2c0.5,9.2,2.7,99.6,2.3,104.9"/>
				<path id="Stroke-135" class="st0" d="M182.1,314.2h16.1c2,0,4.1-0.1,6.1,0c1.8,0.1,2.1,0.4,2.4,2.2c0.2,1.6,0.5,3.3,0.5,4.8
					c-2.5,0.1-13.7,0.1-16.9,0.2c-2.9,0.1-11.3-0.1-11.3-0.1s-0.1-4.5,0-5.5c0.3-2.1,4.8-1.7,4.8-1.7"/>
				<path id="Stroke-137" class="st0" d="M182.1,314.2h16.1c2,0,4.1-0.1,6.1,0c1.8,0.1,2.1,0.4,2.4,2.2c0.2,1.6,0.5,3.3,0.5,4.8
					c-2.5,0.1-13.7,0.1-16.9,0.2c-2.9,0.1-11.3-0.1-11.3-0.1s-0.1-4.5,0-5.5c0.3-2.1,4.8-1.7,4.8-1.7"/>
				<path id="Stroke-139" class="st0" d="M238.5,314.2H254c2,0,3.9-0.1,5.9,0c1.7,0.1,2.1,0.4,2.3,2.2c0.2,1.6,0.5,3.3,0.5,4.8
					c-2.4,0.1-13.2,0.1-16.3,0.2c-2.8,0.1-10.8-0.1-10.8-0.1s-0.1-4.5,0-5.5c0.3-2.1,4.6-1.7,4.6-1.7"/>
				<path id="Stroke-141" class="st0" d="M293.7,315.4h15.5c2,0,3.9-0.1,5.9,0c1.7,0.1,2.1,0.4,2.3,2.2c0.2,1.6,0.5,3.3,0.5,4.8
					c-2.4,0.1-13.2,0.1-16.3,0.2c-2.8,0.1-10.8-0.1-10.8-0.1s-0.1-4.5,0-5.5c0.3-2.1,4.6-1.7,4.6-1.7"/>
				<path id="Stroke-143" class="st0" d="M347.8,314.2h16.6c2.1,0,4.2-0.1,6.3,0c1.8,0.1,2.2,0.4,2.5,2.2c0.2,1.6,0.5,3.3,0.5,4.8
					c-2.6,0.1-14.2,0.1-17.4,0.2c-3,0.1-11.6-0.1-11.6-0.1s-0.2-4.5,0-5.5c0.3-2.1,5-1.7,5-1.7"/>
				<path id="Stroke-145" class="st0" d="M403,315.4h16.6c2.1,0,4.2-0.1,6.3,0c1.8,0.1,2.2,0.4,2.5,2.2c0.2,1.6,0.5,3.3,0.5,4.8
					c-2.6,0.1-14.2,0.1-17.4,0.2c-3,0.1-11.6-0.1-11.6-0.1s-0.2-4.5,0-5.5c0.3-2.1,5-1.7,5-1.7"/>
				<path id="Stroke-147" class="st0" d="M239.3,172.5c5.7-0.4,0.2,9-4.9,4.3c-4.9-4.6,0.4-8,4.2-8.7c4.4-0.7,16.3-1.5,21-0.3
					c5.4,1.3,4.6,10.2-2.9,10.6c-2.6,0.1-7.2-1.6-5.6-5.1c1.6-3.4,3.8,1.2,3.8,1.2"/>
				<path id="Stroke-149" class="st0" d="M236.2,183c6.6,0,15.6,0,22.2,0"/>
				<path id="Stroke-151" class="st0" d="M235.8,187.4c7.2,0,15.8,0,22,0"/>
				<path id="Stroke-153" class="st0" d="M239.7,188.1c0,7.6-0.4,14.5-0.4,20.2c0,8-0.8,98.4-0.8,106"/>
				<path id="Stroke-155" class="st0" d="M254.4,187.4c0,6.1,0.2,16.1,0.6,22.4c0.5,9.2,0.5,68.5,2.3,89.1c0.3,3.2,0.4,10.6,0,15.8"
					/>
				<path id="Stroke-157" class="st0" d="M295.8,173.7c5.7-0.4,0.2,9-4.9,4.3c-4.9-4.6,0.4-8,4.2-8.7c4.4-0.7,16.3-1.5,21-0.3
					c5.4,1.3,4.6,10.2-2.9,10.6c-2.6,0.1-7.2-1.6-5.6-5.1c1.6-3.4,3.8,1.2,3.8,1.2"/>
				<path id="Stroke-159" class="st0" d="M292.6,183c6.6,0,15.6,0,22.2,0"/>
				<path id="Stroke-161" class="st0" d="M292.2,188.6c7.2,0,15.8,0,22,0"/>
				<path id="Stroke-163" class="st0" d="M296.2,188.1c0,7.6-0.4,14.5-0.4,20.2c0,8-0.8,98.4-0.8,106"/>
				<path id="Stroke-165" class="st0" d="M310.9,187.4c0,6.1,0.6,16.1,0.6,22.4c0.1,11.1,1.4,95.7,2.3,104.9"/>
				<path id="Stroke-167" class="st0" d="M349.7,172.5c5.7-0.4,0.2,9-4.9,4.3c-4.9-4.6,0.4-8,4.2-8.7c4.4-0.7,16.3-1.5,21-0.3
					c5.4,1.3,4.6,10.2-2.9,10.6c-2.6,0.1-7.2-1.6-5.6-5.1c1.6-3.4,3.8,1.2,3.8,1.2"/>
				<path id="Stroke-169" class="st0" d="M379.2,241.7c4.7-0.4,0.2,9-4,4.3c-4.1-4.6,0.3-8,3.4-8.7c3.6-0.7,13.4-1.5,17.3-0.3
					c4.4,1.3,3.8,10.2-2.4,10.6c-2.1,0.1-5.9-1.6-4.6-5.1c1.3-3.4,3.2,1.2,3.2,1.2"/>
				<path id="Stroke-171" class="st0" d="M346.5,183c6.6,0,15.6,0,22.2,0"/>
				<path id="Stroke-173" class="st0" d="M346.1,187.4c7.2,0,15.8,0,22,0"/>
				<path id="Stroke-175" class="st0" d="M350.1,188.1c0,7.6-0.4,14.5-0.4,20.2c0,8-0.8,98.4-0.8,106"/>
				<path id="Stroke-177" class="st0" d="M364.8,187.4c0,6.1,3.3,122.1,3,127.4"/>
				<path id="Stroke-179" class="st0" d="M382.1,249.6c0,4.4-0.4,8.4-0.4,11.6c0,4.6-0.8,56.6-0.8,61"/>
				<path id="Stroke-181" class="st0" d="M390.4,249.1c0,3.5,3.3,70.2,3,73.3"/>
				<path id="Stroke-183" class="st0" d="M406.1,172.5c5.7-0.4,0.2,9-4.9,4.3c-4.9-4.6,0.4-8,4.2-8.7c4.4-0.7,16.3-1.5,21-0.3
					c5.4,1.3,4.6,10.2-2.9,10.6c-2.6,0.1-7.2-1.6-5.6-5.1c1.6-3.4,3.8,1.2,3.8,1.2"/>
				<path id="Stroke-185" class="st0" d="M403,183c6.6,0,15.6,0,22.2,0"/>
				<path id="Stroke-187" class="st0" d="M402.6,187.4c7.2,0,15.8,0,22,0"/>
				<path id="Stroke-189" class="st0" d="M406.5,188.1c0,7.6-0.4,14.5-0.4,20.2c0,8-0.8,98.4-0.8,106"/>
				<path id="Stroke-191" class="st0" d="M421.2,187.4c0,6.1,1.5,115.3,3,127.4"/>
				<path id="Stroke-193" class="st0" d="M461.3,172.5c5.7-0.4,0.2,9-4.9,4.3c-4.9-4.6,0.4-8,4.2-8.7c4.4-0.7,16.3-1.5,21-0.3
					c5.4,1.3,4.6,10.2-2.9,10.6c-2.6,0.1-7.2-1.6-5.6-5.1c1.6-3.4,3.8,1.2,3.8,1.2"/>
				<path id="Stroke-195" class="st0" d="M458.2,183c6.6,0,15.6,0,22.2,0"/>
				<path id="Stroke-197" class="st0" d="M457.8,187.4c7.2,0,15.8,0,22,0"/>
				<path id="Stroke-199" class="st0" d="M461.7,188.1c0,7.6-0.4,14.5-0.4,20.2c0,8-0.8,98.4-0.8,106"/>
				<path id="Stroke-201" class="st0" d="M476.4,187.4c0,6.1,0.2,16.1,0.6,22.4c0.5,9.2,0.5,68.5,2.3,89.1c0.3,3.2,0.4,10.6,0,15.8"
					/>
				<path id="Stroke-203" class="st0" d="M458.1,314.2h16.1c2,0,4.1-0.1,6.1,0c1.8,0.1,2.1,0.4,2.4,2.2c0.2,1.6,0.5,2.6,0.5,4.2
					c-2.5,0.1-28.5,1.4-28.5,1.4s0.2-5.1,0.3-6.1c0.3-2.1,4.8-1.7,4.8-1.7"/>
				<path id="Stroke-205" class="st0" d="M515.2,172.5c5.7-0.4,0.2,9-4.9,4.3c-4.9-4.6,0.4-8,4.2-8.7c4.4-0.7,16.3-1.5,21-0.3
					c5.4,1.3,4.6,10.2-2.9,10.6c-2.6,0.1-7.2-1.6-5.6-5.1c1.6-3.4,3.8,1.2,3.8,1.2"/>
				<path id="Stroke-207" class="st0" d="M512.1,183c6.6,0,15.6,0,22.2,0"/>
				<path id="Stroke-209" class="st0" d="M511.7,187.4c7.2,0,15.8,0,22,0"/>
				<path id="Stroke-211" class="st0" d="M515.6,188.1c0,7.6-0.4,14.5-0.4,20.2c0,8-0.8,98.4-0.8,106"/>
				<path id="Stroke-213" class="st0" d="M530.3,187.4c0,6.1,0.2,16.1,0.6,22.4c0.5,9.2,0.5,68.5,2.3,89.1c0.3,3.2,0.4,10.6,0,15.8"
					/>
				<path id="Stroke-215" class="st0" d="M512,314.2h16.1c2,0,4.1-0.1,6.1,0c1.8,0.1,2.1,0.4,2.4,2.2c0.2,1.6,0.5,1.9,0.5,3.5
					c-2.5,0.1-28.1,0.3-28.1,0.3s-0.1-3.3,0-4.3c0.3-2.1,4.8-1.7,4.8-1.7"/>
				<path id="Stroke-217" class="st0" d="M61.2,321.8c-8.4,0-37.4,0.2-45,1c-3.2,0.3-15.2,0.5-15.3,0.6c0.8,2.6,2.7,6.9,4.5,7.5
					c1.1,0.4,3.6-0.8,4.8-0.9c1.9-0.2,3.9,0,5.7,0c8.7,0,17.4,0.1,26.1-0.3c10.4-0.5,20.7,1,31.1,0.5c4.9-0.2,11.1,0.5,15.6-0.9
					c3.9-1.2,10.9-6.6,10.9-8.3C85.9,322,73.8,321.8,61.2,321.8z"/>
				<path id="Stroke-219" class="st0" d="M455.7,321.7c0.7,2.1,2.5,4.2,3.6,6.2c11.2,0.7,21.7-0.6,33-0.1
					c12.9,0.6,25.5,0.9,38.4,0.2c5.9-0.3,11.9,0,17.8-0.3c2.5-7.3,1.4-7.6-3.5-7.8c-14.9-0.6-54.3,0.5-69.2,1.2
					C469,321.5,462.1,321.8,455.7,321.7"/>
				<path id="Stroke-221" class="st0" d="M5.9,331.4c-0.8,2.9,0.2,7.5,0.3,10.8c11,0.6,21.9-0.8,32.9-0.3
					c10.3,0.5,18.9-4.2,28.8-7.5c4.5-1.5,7.5-2.1,11.7-4.5"/>
				<path id="Stroke-223" class="st0" d="M544.5,327.9c0,1.3,0.1,8.8-0.1,11.7c-11.9,1.3-23.5,1.2-35.5,1.2c-11.7,0-21.7-5.8-32.8-9
					c-3.5-1-7.3-1.2-10.8-2.2c-2-0.6-5.2-1.2-7.2-0.6"/>
				<path id="Stroke-225" class="st0" d="M282.3,53.1c-0.4-4.4,0.2-9.8-0.7-13.8c-4.5-0.7-10.8-1-15.5-0.7
					c-0.2,3.8-0.5,9.6-0.9,13.3"/>
				<path id="Stroke-227" class="st0" d="M261.5,34.9h23.3"/>
				<path id="Stroke-229" class="st0" d="M17.4,128.8c0.2-4-0.2-8,0-11.6c13.9,0.1,42.8-0.4,45.1-0.4"/>
				<path id="Stroke-231" class="st0" d="M74.9,112.4H13.4"/>
				<path id="Stroke-343" class="st0" d="M263.2,12.5c7.9-0.8,5.5-8.4,6-10.4c0.6-2.5,3.4-2.9,4.6-0.5c1.2,2.2,0.3,3.8-0.2,6.2
					c1.6,0.3,2.6,0,3.6,1c0.7,0.7,1,3.5,1.3,4.5c1.3,5.1-7.3,9-7.6,13.1"/>
				<path id="Stroke-345" class="st0" d="M268,15.6c-2.3,3-4,18.8,3.6,19.4"/>
				<path id="Stroke-347" class="st0" d="M275.7,19.6c0,0,0.3,9.1,6.1,15.4"/>
				<path id="Stroke-349" class="st0" d="M264.1,4.8c-4.3,11.6,4.9,13.5,7.5,9.1"/>
				<path id="Stroke-351" class="st0" d="M531.7,68.7c-0.9-2.6-3.7-1.3-4.3,0.7c-0.6,1.9,0.4,3.7,1.9,4.7c0.7,1.6-3.6,0.8-4.9,3.8
					c-1.8,4.1-1.1,5.3-2.2,9.4"/>
				<path id="Stroke-353" class="st0" d="M532.5,75.8c3.9,0.9,5.4,9.2,4.2,10.5"/>
				<path id="Stroke-355" class="st0" d="M516.9,79.7c-0.8-2.7-3.8-1.7-3.6,0.8c0.3,3.2,2.1,2.2-1,4.3c-2.5,1.7-3,2.9-4.2,5.4
					c-0.5,1-1.9,2.5-1.4,3.4c0.3,0.6,3.7,1.3,3.8,1.3"/>
				<path id="Stroke-357" class="st0" d="M533.3,86.7c0.1,4,0.2,9.1,1.6,12.8c0,0-6.2,0.5-9.5,0c-0.2-3.9-0.7-8.1,0.3-11.9
					c1-3.7,3.4-4.3,5.9-4.7"/>
				<path id="Stroke-359" class="st0" d="M528.1,100.3c-0.3,2-0.4,4.9-0.5,7"/>
				<path id="Stroke-361" class="st0" d="M531.9,100.3c0.5,1.8-0.5,5.1,0,6.7"/>
				<path id="Stroke-363" class="st0" d="M516.7,84.6c2.1,0.3,7.9,3.5,9.3,4.9"/>
				<path id="Stroke-365" class="st0" d="M511.5,88.7c0,2.4,0.1,4.9,0,7.3c-4.7,0.3-6.9-0.1-9.2,4.6c-1.9,3.8-2.2,6.5-6.6,3.7"/>
				<path id="Stroke-367" class="st0" d="M510.1,99.8c-0.4,2.1-0.3,4.4-0.3,6.5"/>
				<path id="Stroke-369" class="st0" d="M515.8,94.9c1.6,0.1,5.3,0.1,6,1.5c1,1.8-1.6,9.1-1.9,10.3"/>
				<path id="Stroke-371" class="st0" d="M23.1,78.8c-1.7-1.2-3.2-3.4-3.8-0.5c-0.3,1.3,1.9,4.1,1.3,4.9c-1.3,1.9-3.1-0.8-4,2.7
					c-0.5,2.1-0.4,4.3-1.7,6c-1.3-0.6-2.8-1.7-3.3-3"/>
				<path id="Stroke-373" class="st0" d="M19.3,88.1c0.3,4.1-1.2,7.9-0.8,12.2c0.4,3.7,1.3,8.7,2.7,12.1"/>
				<path id="Stroke-375" class="st0" d="M23.1,90.6c1.6,3.5,3.2,8.1,4.1,11.9c0.7,3.1-0.4,6.2-0.2,9.4"/>
				<path id="Stroke-377" class="st0" d="M43.3,96.6c-0.8,4.7,7.2,3.4,9.8,3.6"/>
				<path id="Stroke-379" class="st0" d="M38.6,101.8c1.8,1.6,5.7,2.5,9.5,3.9c3.7,1.4,6.3,4.2,10.2,6.8"/>
				<path id="Stroke-381" class="st0" d="M24.2,83.7c1.7,0.8,2.4,4.6,4.1,5.4c2.5,1.1,3.8-3.2,3.8-3.2"/>
				<path id="Stroke-383" class="st0" d="M34.7,112.5c-4.5-0.9-3.7-7.7,1-8.3c1.7,1.3,7.8,7.1,9.8,8.2"/>
				<path id="Stroke-385" class="st0" d="M42.5,92.2c2.1-1.1,0.7-4.8-1.9-4.7c-4.1,0.3-1.8,5.7-1.2,7.1c-2.2-0.1-6.3,1.4-7.3,3.4
					c-1.6,3.4,1.4,4.2,3.5,6.2"/>
				<path id="Stroke-233" class="st0" d="M482.4,112.3c9.3,0,16.9-0.9,26.2-0.5c8.5,0.3,18.1,1.2,26.6-0.2
					c0.2,4.8,1.5,10.1,1.2,14.1"/>
				<path id="Stroke-235" class="st0" d="M466.3,107h73.9"/>
				<path id="Stroke-237" class="st0" d="M75.6,201.1c-2.2,0-4.5-0.1-6.6,0c-0.2,7.4-0.1,17.2,0.3,24.3c2.2,0.1,4-0.1,6.9,0.1"/>
				<path id="Stroke-239" class="st0" d="M75.9,243c-2.8-0.3-5.3-0.3-7.7-0.2c-0.3,4.8,0,22.5,0.3,26.6c1.5,0.1,3,0,4.5,0h1.7"/>
				<path id="Stroke-241" class="st0" d="M75.4,286.3c-3.6-0.8-6.6,0.5-8.1,2.9c-2.5,4-2.6,8.4-2.6,12.9c0,6.2,0.4,12.8,0.3,18.7"/>
				<path id="Stroke-243" class="st0" d="M448.5,322c-0.2-6.4,0.3-13.4,0.3-20.1c0-4.9-0.1-9.6-2.6-13.8c-1.5-2.6-3.8-3.1-3.8-3.1
					c-3.6-0.8-6.6,0.5-8.1,3.1c-2.5,4.3-2.6,9-2.6,13.8c0,6.6,0.4,13.7,0.3,20.1"/>
				<path id="Stroke-245" class="st0" d="M505,320.7c-0.2-6.4,0.3-13.4,0.3-20.1c0-4.9-0.1-9.6-2.6-13.9c-1.5-2.6-3.8-3.1-3.8-3.1
					c-3.6-0.8-6.6,0.5-8.1,3.1c-2.5,4.3-2.6,9-2.6,13.9c0,6.6,0.4,13.7,0.3,20.1"/>
				<path id="Stroke-247" class="st0" d="M97.8,320.7c10.5,0,20.6,1.2,31.1,1.3c12.1,0.1,24-0.9,36.1-0.8
					c15.3,0.1,84.3,0.7,91.1,1.1c8.4,0.4,44.5,0.5,46.7,0.3l22.3-0.5c7.1,0,75.3,0.4,79.3,0.5c11.2,0.5,48.5-0.7,54.9-0.8"/>
				<path id="Stroke-249" class="st0" d="M238.8,195.1c-2.8,0-19.5-0.4-19.5-0.4s-0.1,28.5,0,30.9c6.4,0.2,13.6,0,20,0"/>
				<path id="Stroke-251" class="st0" d="M129.1,284.9c-9.2-3-10.7,9.6-10.7,15.8c0,4.3,0.1,8.6,0.3,12.8c0.1,2.4,0.2,5.1,0.3,7.5"
					/>
				<path id="Stroke-255" class="st0" d="M229.3,194.7c0,4.6,0,13.9,0,17.1c0,3.9,0,9.2,0,13.1"/>
				<path id="Stroke-257" class="st0" d="M215.9,321.5c0-7.4-0.5-30.9-0.3-37.1c0.3-8.1,0-16.7,2.3-24.5c1.6-5.3,3.9-10.2,9.2-12.4
					c3.2-1.3,8.2-1.1,11.4,0.2"/>
				<path id="Stroke-259" class="st0" d="M231.4,275.6v45.5"/>
				<path id="Stroke-261" class="st0" d="M222.4,273.9c0-5.2,0-13.8,3.5-18.2c1.9-2.4,5.8-3.5,8.7-2.5c2.7,0.9,3.7,2.1,4.3,4.9"/>
				<path id="Stroke-265" class="st0" d="M215.2,274.6c4.6,0.1,19,0.2,23.5,0"/>
				<path id="Stroke-267" class="st0" d="M46.7,190.7c0,16.3-0.3,32.6-0.3,48.9c0,9.6,0.4,63.6,0.5,66.9c0.1,2.1,0.2,5,0.5,7.3"/>
				<path id="Stroke-269" class="st0" d="M56.1,192.3c0,16,0.4,117.6,0.5,119.9"/>
				<path id="Stroke-271" class="st0" d="M44.9,171.6c9.9-3,12.5,12.7,3.1,13.7c-2.6,0.3-5.6-2.6-4.3-5.3c1.4-2.9,5.6-1.7,4.9,1.7"
					/>
				<path id="Stroke-273" class="st0" d="M40.1,314.2c2.5-0.4,6.6-0.7,9-0.6c0,2.5,0.8,5,0.8,7.4"/>
				<path id="Stroke-275" class="st0" d="M37.1,191.8c4,0.2,8-0.5,12-0.5c1.1,1,8.7,1,9.6,0.5"/>
				<path id="Stroke-277" class="st0" d="M53,174.2c5.8-1.4,10,5.2,6.4,10.3c-1.6,2.3-6.8,2.6-8-0.5"/>
				<path id="Stroke-279" class="st0" d="M49.1,313.6c3.5-0.9,6-0.9,8.6-0.8c0.9,2.4,1.4,6,1.4,9"/>
				<path id="Stroke-281" class="st0" d="M56.4,225.7c3,0,15.6,0.2,19.3,0"/>
				<path id="Stroke-283" class="st0" d="M57.4,234c6,0,13.2-0.8,18.7-0.8"/>
				<path id="Stroke-285_1_" class="st0" d="M55.1,262.3c3.4-0.1,9.5-0.3,13-0.3"/>
				<path id="Stroke-287_1_" class="st0" d="M55.7,269.5c2.9-0.1,16-0.1,18.9,0"/>
				<path id="Stroke-289_1_" class="st0" d="M130.8,201.1c-2.2,0-9.6-0.1-11.8,0c-0.2,7.4-0.1,17.2,0.3,24.3
					c2.2,0.1,7.8-0.1,10.7,0.1"/>
				<path id="Stroke-291_1_" class="st0" d="M129.8,243c-2.8-0.3-9.1-0.3-11.6-0.2c-0.3,4.8,0,22.5,0.3,26.6c1.5,0.1,3,0,4.5,0h5.5"
					/>
				<path id="Stroke-293_1_" class="st0" d="M93.6,225.7c3,0,32.3,0.2,35.9,0"/>
				<path id="Stroke-295_1_" class="st0" d="M93.4,234c6,0,31.2,0.5,36.7,0.5"/>
				<path id="Stroke-297_1_" class="st0" d="M445.2,201.1c-2.2,0-9.6-0.1-11.8,0c-0.2,7.4-0.1,17.2,0.3,24.3
					c2.2,0.1,7.8-0.1,10.7,0.1"/>
				<path id="Stroke-299_1_" class="st0" d="M438.5,201.1c2.2,0,9.6-0.1,11.8,0c0.2,7.4,0.1,17.2-0.3,24.3
					c-2.2,0.1-7.8-0.1-10.7,0.1"/>
				<path id="Stroke-301_1_" class="st0" d="M422.1,225.7c3.2,0,35,0.2,39,0"/>
				<path id="Stroke-303_1_" class="st0" d="M423.2,234c6,0,31.2,0.5,36.7,0.5"/>
				<path id="Stroke-305_1_" class="st0" d="M147.5,225.7c3,0,34.9,0.2,38.5,0"/>
				<path id="Stroke-307_1_" class="st0" d="M147.3,234c6,0,31.2,0.5,36.7,0.5"/>
				<path id="Stroke-309_1_" class="st0" d="M201.4,225.7c3,0,34.9,0.2,38.5,0"/>
				<path id="Stroke-311_1_" class="st0" d="M201.2,234c6,0,31.2,0.5,36.7,0.5"/>
				<path id="Stroke-313_1_" class="st0" d="M93.6,262.3c3.4-0.1,21.1-0.3,24.5-0.3"/>
				<path id="Stroke-315_1_" class="st0" d="M92.9,269.5c2.9-0.1,28.8-0.1,31.8,0"/>
				<path id="Stroke-319_1_" class="st0" d="M295.9,195.2c-3,0-22.6-0.4-22.6-0.4s0.5,29.4,0.7,32c6.8,0.2,13.8,0,20.6,0"/>
				<path id="Stroke-323_1_" class="st0" d="M287.2,194.7c0,4.9,0,14.8,0,18.3c0,4.2,0,9.9,0,14"/>
				<path id="Stroke-325_1_" class="st0" d="M271.1,322.8c0-7.4-0.5-30.9-0.3-37.1c0.3-8.1,0-16.7,2.3-24.5
					c1.6-5.3,3.9-10.2,9.2-12.4c3.2-1.3,8.9-1.5,12.7,1.1"/>
				<path id="Stroke-327_1_" class="st0" d="M286.6,276.9v45.5"/>
				<path id="Stroke-329_1_" class="st0" d="M277.6,275.2c0-5.2,0-13.8,3.5-18.2c1.9-2.4,5.8-3.5,8.7-2.5c2.7,0.9,5,4.9,5.5,7.7"/>
				<path id="Stroke-333_1_" class="st0" d="M271.7,275.9c4.6,0.1,19,0.2,23.4,0"/>
				<path id="Stroke-335_1_" class="st0" d="M256.6,227c3,0,34.9,0.2,38.5,0"/>
				<path id="Stroke-337_1_" class="st0" d="M256.4,235.2c6,0,32.5,0.5,38,0.5"/>
				<path id="Stroke-341_1_" class="st0" d="M349.1,193.2c-3.2,0-26.2-0.5-26.2-0.5s0.5,31.2,0.7,33.9c7.3,0.3,17.4,0,24.7,0"/>
				<path id="Stroke-345_1_" class="st0" d="M337.2,192.7c0,5.2,0,15.7,0,19.4c0,4.4,0,10.5,0,14.9"/>
				<path id="Stroke-347_1_" class="st0" d="M322.4,322.8c0-7.4-0.5-30.9-0.3-37.1c0.3-8.1,0-16.7,2.3-24.5
					c1.6-5.3,3.9-10.2,9.2-12.4c3.2-1.3,8.9-1.5,12.7,1.1c0.4,0.1,2.9,3.2,2.9,3.2"/>
				<path id="Stroke-349_1_" class="st0" d="M338,276.9v45.5"/>
				<path id="Stroke-351_1_" class="st0" d="M330.2,275.2c0-5.2,0-13.8,3.5-18.2c1.9-2.4,5.7-3.3,8.7-2.5c4,1.1,5.7,6.9,6.4,12.3
					c0.4,3.3,0.2,7.2,0.2,9.1"/>
				<path id="Stroke-355_1_" class="st0" d="M323,275.9c4.6,0.1,21.6,0.2,26,0"/>
				<path id="Stroke-357_1_" class="st0" d="M310.5,227c3,0,34.9,0.2,38.5,0"/>
				<path id="Stroke-359_1_" class="st0" d="M311.5,235.2c6,0,32.5,0.5,38,0.5"/>
				<path id="Stroke-361_1_" class="st0" d="M365.7,227c3.2,0,37.1,0.2,41,0"/>
				<path id="Stroke-363_1_" class="st0" d="M365.5,235.2c6.4,0,34.6,0.5,40.4,0.5"/>
				<path id="Stroke-367_1_" class="st0" d="M88.6,329.3c19,1.4,44.6-2.3,64-1.3c12.6,0.7,25.6,2.2,38.3,1.6
					c13.7-0.6,27.2-1.2,41-1.2c29.7,0,53.6,1.8,83.3,1.8c14.8,0,77.8-0.4,91.6,0c11.6,0.3,54.2-0.3,54.9-1.7"/>
				<path id="Stroke-369_1_" class="st0" d="M63.1,336.2c9.9,0,77.9-2.2,91.3-1.6c30.7,1.4,167.8,2.8,182.8,3
					c14.7,0.1,30.3-1.4,45-1.4c16.2,0,102.7-0.7,106.4,0"/>
				<path id="Stroke-371_1_" class="st0" d="M44.3,341.8c10.4,0.6,227.6,1,242.5,1.1c30.1,0.1,95.5,2.1,125.3,0.5
					c25.3-1.3,80.5-2.6,104.8-2.6"/>
				<path id="Stroke-503" class="st0" d="M145.4,193.2c5.7,0.3,11.1,0,16.4,0"/>
				<path id="Stroke-505" class="st0" d="M153.2,174.5c8.2-7.2,15.2,10.3,5.5,11.5c-3,0.4-7.4-2.6-5.6-5.6c2.6-4.6,5.2,1.1,5.2,1.1"
					/>
				<path id="Stroke-507" class="st0" d="M156.7,193.2c0.2,7.5,0,29,0,32.4"/>
				<path id="Stroke-509" class="st0" d="M156.7,233.2c-0.3,7.2,0.9,76.7,1.5,80.5"/>
				<path id="Stroke-511" class="st0" d="M379.7,226.4c1.3-2.5,4.7-4.4,7.4-4c2.2,0.3,4.3,2.9,4.6,4"/>
				<path id="Stroke-513" class="st0" d="M383.8,215.3c0-2.4,0.1-6.2-0.7-8.5c-1.1-3.3-4.3-2.1-2.8,1.1"/>
				<path id="Stroke-515" class="st0" d="M380.3,215.3c2.8,0,7.2-0.3,10.5-0.3c0,4.9-2.8,6.7-5.9,6.6
					C381.5,221.6,380.3,215.3,380.3,215.3z"/>
				<path id="Stroke-517" class="st0" d="M389.3,201.1c-2.7,0.4-4.9,0.3-7.1,0.3c-0.3-3.9,2.7-6.5,2.5-8.3c-0.2-1.6-1-1.6-1.5-3.1
					c-1.8-6.3,10.3-2.1,3,1.6"/>
				<path id="Stroke-519" class="st0" d="M387.5,214.6c0-2.3-0.8-8.1,1.1-9.8c3.3-3.1,6.3,3.5,2,4.1"/>
				<path id="Stroke-521" class="st0" d="M150.5,314.7c3.3-0.5,7.9-0.5,10.9-1c0.3,2.4,0.3,4.3,0.3,7"/>
				<path id="Stroke-523" class="st0" d="M166.4,322.5c0-6.5,0-15.5,0-22c0-4,0.1-10.8,2.5-14.4c3.1-4.4,6.1-0.9,6.4,2.9
					c0.6,6.4,0.3,12.9,0.3,19.3c0,4.3,0.1,7,0.1,12.9"/>
				<path id="Stroke-525" class="st0" d="M442.8,200.9v24.9"/>
				<path id="Stroke-527" class="st0" d="M445.2,243.4c-2.2,0-9.6-0.1-11.8,0c-0.2,7.4-0.1,17.2,0.3,24.3c2.2,0.1,7.8-0.1,10.7,0.1"
					/>
				<path id="Stroke-529" class="st0" d="M438.5,243.4c2.2,0,9.6-0.1,11.8,0c0.2,7.4,0.1,17.2-0.3,24.3c-2.2,0.1-7.8-0.1-10.7,0.1"
					/>
				<path id="Stroke-531" class="st0" d="M441.5,243.2V268"/>
				<path id="Stroke-533" class="st0" d="M499.1,201.1c-2.2,0-9.6-0.1-11.8,0c-0.2,7.4-0.1,17.2,0.3,24.3c2.2,0.1,7.8-0.1,10.7,0.1"
					/>
				<path id="Stroke-535" class="st0" d="M492.4,201.1c2.2,0,9.6-0.1,11.8,0c0.2,7.4,0.1,17.2-0.3,24.3c-2.2,0.1-7.8-0.1-10.7,0.1"
					/>
				<path id="Stroke-537" class="st0" d="M476,225.7c3.2,0,35,0.2,39,0"/>
				<path id="Stroke-539" class="st0" d="M477.1,234c6,0,31.2,0.5,36.7,0.5"/>
				<path id="Stroke-541" class="st0" d="M496.7,200.9v24.9"/>
				<path id="Stroke-543" class="st0" d="M499.1,243.4c-2.2,0-9.6-0.1-11.8,0c-0.2,7.4-0.1,17.2,0.3,24.3c2.2,0.1,7.8-0.1,10.7,0.1"
					/>
				<path id="Stroke-545" class="st0" d="M492.4,243.4c2.2,0,9.6-0.1,11.8,0c0.2,7.4,0.1,17.2-0.3,24.3c-2.2,0.1-7.8-0.1-10.7,0.1"
					/>
				<path id="Stroke-547" class="st0" d="M495.4,243.2V268"/>
				<path id="Stroke-549" class="st0" d="M440.2,284.2v38.1"/>
				<path id="Stroke-551" class="st0" d="M496.7,284.2v35.9"/>
			</g>
		</g>
	</g>
</g>
</svg>
