<?xml version="1.0" encoding="utf-8"?>
<!-- Generator: Adobe Illustrator 22.0.1, SVG Export Plug-In . SVG Version: 6.00 Build 0)  -->
<svg version="1.1" xmlns="http://www.w3.org/2000/svg" xmlns:xlink="http://www.w3.org/1999/xlink" x="0px" y="0px"
	 viewBox="0 0 260 344" style="enable-background:new 0 0 260 344;" xml:space="preserve">
<style type="text/css">
	.st0{opacity:0;}
	.st1{fill:none;stroke:#000000;stroke-width:2;stroke-miterlimit:10;}
</style>
<g id="bg">
	<rect class="st0" width="260" height="344"/>
</g>
<g id="Layer_2">
	<path class="st1" d="M58.1,151.7c0,11.9-2.4,25-0.5,36.8c1,6,3.2,11.6,4,17.7c0.8,5.8,1.8,13.4,4.4,18.6c3,6.2,7.7,15.1,9.3,21.7
		c2.1,8.7,5.7,15.1,11.5,22.1"/>
	<path class="st1" d="M92.5,267.2c5.9,6.1,12.3,12.6,17.2,19.5"/>
	<path class="st1" d="M112.4,280.4c6,7.2,21.6,10.9,30.5,9.1c4.9-1,10.4-0.2,15-1.6c6.5-1.9,10.9-8.3,16.8-11.1
		c3-1.4,3.2-5.2,4.9-8.1c2-3.3,4.5-5.7,7-8.7c4.3-5.3,5.6-11.8,8.9-17.7"/>
	<path class="st1" d="M54.9,168.6c-1.4-3.9-0.5-9.7-0.4-13.8"/>
	<path class="st1" d="M198.2,245.1c3-15.3,13.5-28.2,12.8-44.2"/>
	<path class="st1" d="M51.4,154.4c-0.3-4.9-3.8-6.1-4-10.6c-0.1-3.9,0.6-7.9,0.2-11.9c-0.8-7.9-3.9-15.5-1.6-23.4"/>
	<path class="st1" d="M214.1,203.1c3.5-14.4-2.9-29.9-0.4-44.7c0.7-4.4,9.9-23.7,12.3-11.1c1.4,7.3-4,15.1-4.8,22.1
		c-0.5,4.2-1.1,8.3-2,12.4c-0.9,3.9-0.4,9.3-2.4,12.8"/>
	<path class="st1" d="M60.8,154.4c0-6.4-1-13.7,0.6-19.9c1.1-4.4,3.6-4.6,5.9-7.6c2.2-2.9,1-6.3,1.8-9.7"/>
	<path class="st1" d="M82.3,116.4c4.3-8.6,11.9-21.5,22.1-23.9"/>
	<path class="st1" d="M92.5,111.1c5.3-8.3,13.6-14.1,22.6-17.7"/>
	<path class="st1" d="M70.4,111.5c1.2-6.1,13.1-14.9,19.5-15.5"/>
	<path class="st1" d="M101.8,81c7.6,6.7,14.6,11.3,25.2,10.6c11.2-0.8,17.2-8,26.5-12.8"/>
	<path class="st1" d="M62.9,63.3c12,3,24.6-3.3,34.7-8.7c10.9-5.8,20.2-8.5,32.5-8.1"/>
	<path class="st1" d="M81,66.4c5.2,5.1,23.2-0.9,29.2-2.9c10.1-3.3,20.4-8.7,31.4-8.2"/>
	<path class="st1" d="M108,72.6c3.7,4,16.4,0.8,20.8-0.4c8.8-2.5,16.8-5.7,26-7.1"/>
	<path class="st1" d="M147.8,96.1c12.5-2.4,23.3-8.8,28.7-20.8"/>
	<path class="st1" d="M158.4,85.4c6.7-4,11.2-12.3,14.6-19"/>
	<path class="st1" d="M170.8,101.4c8.3-1.4,15.7-10.6,19-17.7"/>
	<path class="st1" d="M188.9,95.6c3,5.4,4.6,12,7.1,17.7c2.8,6.3,7.9,12.4,8.6,21.9"/>
	<path class="st1" d="M203.9,82.8c4.4,11.5,0.6,23.1,1.3,34.9"/>
	<path class="st1" d="M207.5,129.1c-0.4,3.2,0.4,8.2,0.8,11.6c0.3,3.5,0.4,7.1,0.6,10.6c0.3,6.8-1.8,15.3-0.5,21.7"/>
	<path class="st1" d="M222.6,143.3c0.5-7.1-2.5-15.2-3.6-22"/>
	<path class="st1" d="M39,114.6c3-4,0.4-11.4,4-16.4"/>
	<path class="st1" d="M36.4,100.5c-6.7-8.8,7.8-28.5,11-36.6c2.5-6.4,7.6-12.5,13.3-16.3c6.5-4.4,13.8-4.8,20.8-7.6"/>
	<path class="st1" d="M74.8,35c8.9-2.6,16.5-2.7,25.6-2.7"/>
	<path class="st1" d="M93.8,26.2c4.3-1.9,37,2.1,36.3,4.9"/>
	<path class="st1" d="M129.7,23.5c7.9,1.2,16.4,3.4,19.9,11.5"/>
	<path class="st1" d="M150.9,40.8c7.2-10.9,21.7-16.9,34-12.4"/>
	<path class="st1" d="M169,35.5c9.4-2,26.3,5.7,34,11c9.7,6.7,14.4,23.7,13.7,35"/>
	<path class="st1" d="M192,47c3.5,3.8,8.7,6.2,11.7,10.5c2.7,3.9,3.4,9.3,4.2,13.8"/>
	<path class="st1" d="M219.9,83.7c6.4,12.6,2.6,24.1,0,37.1"/>
	<path class="st1" d="M212.8,89.9c5.2,4.9,2,14,1.8,19.9"/>
	<path class="st1" d="M47.4,142.5c-8.3-1.6-6.7,9.1-6.2,13.7c0.3,2.7-0.8,5.9-0.5,8.4c0.5,3.9,3.6,5.3,5.4,8.4
		c2.8,4.9,2.7,37,14.6,28.8"/>
	<path class="st1" d="M222.1,149.6c-0.8,3.7-0.5,7.7-1.3,11.5"/>
	<path class="st1" d="M61.6,172.5c1.1,3.2-0.4,8.6,0.4,12.4c0.7,3.9,2.2,8.4,1.9,12.4"/>
	<path class="st1" d="M67.3,202.2c0,2.7,2.4,6.8,4,8.8c0,5.9,2.5,11.8,2.7,17.7"/>
	<path class="st1" d="M86.3,226c2.4,4.3,3.1,9.9,1.3,14.6"/>
	<path class="st1" d="M96.5,240.6c1.6,2.8,1.4,8.2,0.4,11.1"/>
	<path class="st1" d="M106.2,250.4c1,3.7,0.2,7.5,0.9,11.1"/>
	<path class="st1" d="M82.8,242.9c2.3,4.5,0.6,9.9,4.9,13.7"/>
	<path class="st1" d="M93.4,255.7c0.7,2.2,0.8,4.5,1.8,6.6"/>
	<path class="st1" d="M114.6,262.3c0.6,4.3,1.5,8.5,1.3,12.8"/>
	<path class="st1" d="M104.9,265c2.6,2.2,1.7,6.8,3.5,9.7"/>
	<path class="st1" d="M123.9,272.5c1.1,2.6,0.3,5.5,1.8,8"/>
	<path class="st1" d="M137.6,242.9c-0.1,3.4,0.2,6.7,0,10.2"/>
	<path class="st1" d="M160.2,249.5c11.8,1.7,8.4,17.7,4.4,24.8"/>
	<path class="st1" d="M157.1,271.1c1.8,3.7-2.2,9.7-5.3,11.1"/>
	<path class="st1" d="M146.9,274.7c-0.5,3.1-2,5.6-4,8"/>
	<path class="st1" d="M135.9,278.2c0.9,2.2,0.2,4.5-0.4,6.6"/>
	<path class="st1" d="M176.1,236.7c3.2,4.4,2.2,11,0.9,15.9"/>
	<path class="st1" d="M186.3,227.8c1.2,4.5,0.9,10.1,0,14.6"/>
	<path class="st1" d="M198.2,201.3c1.5,5.8-0.8,13.1-2.7,18.6"/>
	<path class="st1" d="M205.7,196.9c0,4.3-0.5,8.1-1.3,12.4"/>
	<path class="st1" d="M200.4,219.9c-0.5,4.4-1.8,8.5-2.7,12.8"/>
	<path class="st1" d="M192,232.7c0.7,2.2,0.6,4.4,0,6.6"/>
	<path class="st1" d="M183.2,249.9c1,2.9,0.2,6.1-0.9,8.8"/>
	<path class="st1" d="M174.8,261.4c-0.9,3.6-0.9,7.2-2.7,10.6"/>
	<path class="st1" d="M207.9,179.6c1.2,4.2,0.4,9.9-0.4,14.1"/>
	<path class="st1" d="M79.7,229.1c1.4,2.6,0.9,5.5,0.9,8.4"/>
	<path class="st1" d="M99.6,205.3c-6.1,1-8,8.5-1.8,11.1"/>
	<path class="st1" d="M169.5,188c8.2,6.6,19,15.5,11.9,26.1"/>
	<path class="st1" d="M73.2,145.2c0.7-3,7-8.4,9.6-10.1c3-2,6.4-3.6,10.1-3.8c6.9-0.3,13.7,0.2,20.6-0.5c4.2-0.4,7.7-0.5,10.1,3.6
		c2.7,4.6-2.1,5.6-6,6c-6.8,0.8-13.8-1.5-20.6-1.5c-3.8,0-7.9-0.5-11.5,0.7c-4.1,1.4-7.7,4.8-11.7,5.9
		C73.4,145.6,73.1,145.5,73.2,145.2z"/>
	<path class="st1" d="M147.3,136.1c-0.7,0-1.4-0.5-1.7-1.2c-1.6-3.7-1.2-6.4,3.4-8.2c3.3-1.3,6.9-1.1,10.3-0.6
		c7,1,14.4,0.8,21.3,2.2c4,0.8,6.9,3.1,10.1,5.5c1.9,1.4,3.9,2.7,5.3,4.6c0.4,0.5,1.5,1.8,1.4,2.4c-0.4,2.1-1.6,0.5-2.5,0.1
		c-1.7-0.7-3.1-2.2-4.8-3.1c-1.9-0.9-3.7-1.2-5.8-1.5c-3.4-0.6-6.9-0.5-10.4-0.5c-4.4-0.1-11.5,0-15.9,0.4
		C154.5,136.7,150.9,136.2,147.3,136.1z"/>
	<path class="st1" d="M88.3,153.1c4.9-1.2,12,0.5,17,0.9c5.5,0.5,12.6,1.1,18-0.5c-2.9-5.8-11.8-8.5-17.7-7.3
		c-3,0.6-6.2,1.6-9.1,2.7c-3.2,1.2-6,3.2-9.1,4.4"/>
	<path class="st1" d="M149.7,152.1c1.8-2.1,5.9-0.6,8.2-0.3c2.7,0.4,5.5,0.4,8.3,0.2c5.9-0.3,13-0.9,18.8-2.1
		c-3.8-4.4-12.6-6.4-18-6.9c-3-0.3-6.6-0.5-9.4,0.8c-3.1,1.6-6,5.3-8.1,8"/>
	<path class="st1" d="M122.3,143.5c3.6,0.5,4.7,4.3,4.6,7.4"/>
	<path class="st1" d="M119,199.6c-1,2.1-1.9,4-2.6,6.2"/>
	<path class="st1" d="M112.8,200.8c-1.4,2.9-2.6,5.6-3.6,8.6"/>
	<path class="st1" d="M106.5,201.3c-1.6,2.3-2.8,4.7-3.4,7.4"/>
	<path class="st1" d="M126.9,198.6c-1.2,2.5-2.2,6.8-2.2,9.6"/>
	<path class="st1" d="M132.9,199.8c0.1,2.7-1.1,5.2-1.2,7.9"/>
	<path class="st1" d="M139.8,199.3c0.6,2.3-0.4,4.4,0,6.7"/>
	<path class="st1" d="M145.1,197.9c1.1,3.1,0.3,7,1.9,9.8"/>
	<path class="st1" d="M150.6,198.1c1.6,1.8,2.8,4,2.6,6.5"/>
	<path class="st1" d="M158.8,196.2c1.1,2.9,2.9,5.2,3.4,8.4"/>
	<path class="st1" d="M165.5,199.1c1.4,1,3.6,4.7,4.6,6.2"/>
	<path class="st1" d="M172.7,200.1c0.9,0.8,3,5.3,4.1,6.7"/>
	<path class="st1" d="M87.6,161c2.4,3,10.5,2.9,14,3.2c5,0.4,12.8,0.4,16.6-3.4"/>
	<path class="st1" d="M148.7,157.2c1.1,5.6,17.2,6.8,21.1,5.5"/>
	<path class="st1" d="M174.1,209.2c-4.9,1-10.6,1.2-15.6,1.7c-8.9,0.9-17.4,2.6-26.4,2.6c-4.4,0-8.8,0-13.2,0
		c-3.9,0-9.1,1.7-12.7-0.2c0.7,4.3,8.2,7.3,11.7,8.8c4.1,1.7,8.1,2.8,12.5,3.6c9.6,1.8,19.8,0.8,28.6-3.7
		C165.7,218.5,169.7,214.8,174.1,209.2z"/>
	<path class="st1" d="M112,224.8c1.4,2.6,9.6,6.7,12.2,7.7c4.4,1.7,8.7,2.3,13.4,2.4c10.4,0.1,20.2-3.6,29.3-8.4"/>
	<path class="st1" d="M100.3,147.8c-1.6,1-1.4,5.1,0.5,5.6"/>
	<path class="st1" d="M108.2,154.3c4.9,1,5.7-7.6,1.6-8.3"/>
	<path class="st1" d="M161.3,142.8c-3.5,2.2-2.8,8.8,1.7,9.4"/>
	<path class="st1" d="M166.1,152.1c6.8,0,6.7-7.5,4-8.6"/>
	<path class="st1" d="M132.7,214c-0.2,2.6-0.4,4-0.4,5.9c0,2.9,1.6,3,4.2,2.7c2.7-0.3,4-0.1,4.1-3.1c0.1-1.4,0.1-5.6,0.2-6.4"/>
	<path class="st1" d="M148.2,213c0.2,1.8,0.1,5.4,0.2,7c0.2,1.9,4.7,0.9,6.8,0.2"/>
	<path class="st1" d="M125.2,214.2c-0.3,2.1-0.9,6.1,0.3,7.4c1.5,1.7,5,0.7,7.4,0.4"/>
	<path class="st1" d="M140,221.6c2.2,0.7,7.1-0.1,9.2-0.8"/>
	<path class="st1" d="M154.5,211.3c0.1,2.2,0.1,5.9,0.2,7.7c0.2,2.4,4.1,1,6.2,0.4c2.1-0.7,1.8-4,1.4-8"/>
	<path class="st1" d="M119,214c-0.2,1.7-0.9,5.6,0,7.2c0.9,1.6,4.2,0.5,6.5,0.5"/>
	<path class="st1" d="M113.7,214c-0.2,1.9-0.4,4-0.6,5.9"/>
	<path class="st1" d="M167.9,210.9c0.3,1.6,0,3.4,0.2,4.9"/>
	<path class="st1" d="M120.8,179c-5.6,2.6-5.1,10.9-1.3,13.5c2.4,1.7,4.4,1.8,6.7,0c2.9-2.3,3.5-1.3,6.5,0.3c2,1.1,4.6,1.8,6.8,1.3
		c2.7-0.6,3.7-3.5,6.2-4.4c2.2-0.8,4.6,0.7,6.8,0.9c2.5,0.2,4.5-0.2,6.4-2c2-1.9,2-5,1-7.8c-0.9-2.5-3.4-4.3-6.7-4.3"/>
	<path class="st1" d="M71.9,236.9c2.1,4.2,2.1,12.1,2,16.7c-0.1,5.3-1.4,10.3-1.2,15.6c0.2,5.8,2.4,11.6,4.7,16.9
		c3.1,7.2,7,13.7,12.6,19.3c6,6,12.9,9.9,21.1,12.1c6.7,1.8,13.9,4.1,20.8,4.3c13.5,0.3,26.7-2.1,39.1-7.7
		c7.4-3.3,13.7-6.6,20.7-10.7c2.9-1.7,6.3-4.3,9-6.4c2.6-2.1,6-7.1,7.5-12.5"/>
	<path class="st1" d="M192.9,247.9c-0.9,2.1-0.3,6.1-0.5,8.4c-0.3,3.2-0.6,7,0.2,10.1c0.9,3.3,4.1,5.5,7.1,6.9
		c2.3,1.1,6,2.5,8.6,2.5"/>
	<path class="st1" d="M70.6,234.2c-1.2,1.1-3.3,2.3-4.4,2.9c-1.4,0.8-2.8,1.8-4,3c-3.5,3.4-6.2,6.1-10.4,8.7
		c-5.5,3.3-7.3,9.9-7.9,16c-0.8,8.6,0.5,16.2,2,24.7"/>
	<path class="st1" d="M73.4,259c-1,2.1-6.2,2.8-8.2,3.3c-2.4,0.6-4.8,1-7.2,1.7"/>
	<path class="st1" d="M199.8,240.5c1.6,1.7,5.1,2.2,7.1,3.4c3.3,2,6.2,4.6,8.1,7.9c2.3,4,3.9,7.9,5,12.4c0.7,2.8,1.2,5.6,1.7,8.4
		c0.3,2,0.4,4.5,1.2,6.4"/>
	<path class="st1" d="M206,264.6c2.9,4.8,2.7,10.2,2.4,15.7c-0.2,3.9-0.4,8-0.9,11.9c-0.5,4-2.2,7.8-2.8,11.7
		c-1.2,7-2.9,15.1-5.3,21.6c-0.7,2-6.1,16.7-7.1,18"/>
	<path class="st1" d="M217.2,255.2c5.8,0.6,11.1,3.8,14.3,8.9c3.6,5.8,7.6,10,13.5,13.7c2.5,1.6,2.3,1.8,5.1,2.7
		c1.8,0.6,6.6,0.9,7.8,2.2c2.7,3.1-1,11.2-2.5,13.7c-2.4,4-4.7,7.9-7.2,11.7c-1.5,2.3-3.2,4.5-4.8,6.8c-0.7,1-9.2,12.6-12.5,16.4
		c-2.6,3.1-6.4,8.1-8.9,11.2"/>
	<path class="st1" d="M228,268c2.3,3,5.1,5.1,7.1,8.6c3.3,6,3,12.7,2.3,19.3c-0.7,7.1-2.7,14.5-6.2,20.8c-2.2,3.9-5.2,7.3-8,10.8
		c-1.2,1.5-5.5,6-7.2,7.7"/>
	<path class="st1" d="M58.2,260.6c-0.5,9.7,0.1,19.6-0.3,29.3c-0.3,6.2-0.6,12.4-0.9,18.5c-0.2,5.2-0.4,11.5,0.8,16.5"/>
	<path class="st1" d="M49.8,249.9c-4.6-1.2-11.3,2.8-14.9,5.2c-2.1,1.4-3.7,2.8-5.6,4.6c-1.7,1.6-4.6,3.1-5.6,5.2"/>
	<path class="st1" d="M57.3,302.7c0.4,3.5,3.2,8.5,4.5,11.7c2.2,5.6,3.6,11.4,5.6,17c1.8,5,2.2,7.3,3.8,12.1"/>
	<path class="st1" d="M23.7,264.9c-1.4,1.1-3.6-0.3-5.2,0.3c-2.4,1-3.9,3-5.8,4.6c-3.9,3.5-8.2,3-12.9,3.9"/>
	<path class="st1" d="M2.7,288.4c2.6,4,6.3,7.4,9.2,11.3c2.2,3.1,4.2,6.2,6.5,9.2c2.3,3,3.7,6.5,6,9.5c2,2.6,3.9,5.3,6,7.8
		c2.2,2.5,3.8,5.2,6,7.6c2,2.2,4.5,6,5.1,8.9"/>
	<path class="st1" d="M23.7,264.9c-3.2,9.9,0.9,20.7,4,30.2c4.2,13.2,8.2,26.3,13.6,39.1"/>
	<path class="st1" d="M62.6,263.5c0.1,5.3-0.2,10.5,0.3,15.9c0.6,6.4,1.8,12.2,4,18.2c5.1,14.1,16.9,23.1,29.9,29.6
		c5.4,2.7,11.4,3.7,17.3,4.5c5.4,0.7,11,1.6,16.4,2c11.3,0.9,22.6-1.5,33.4-5.2c4.6-1.6,9.4-3,13.9-5c5.2-2.3,10.2-5.2,15.2-7.9
		c2.1-1.1,9.1-5.6,11.2-9"/>
</g>
</svg>
