<?xml version="1.0" encoding="utf-8"?>
<!-- Generator: Adobe Illustrator 22.0.1, SVG Export Plug-In . SVG Version: 6.00 Build 0)  -->
<svg version="1.1" id="Layer_1" xmlns="http://www.w3.org/2000/svg" xmlns:xlink="http://www.w3.org/1999/xlink" x="0px" y="0px"
	 viewBox="0 0 260 344" style="enable-background:new 0 0 260 344;" xml:space="preserve">
<style type="text/css">
	.st0{fill-opacity:0;}
	.st1{fill:none;stroke:#000000;stroke-width:2;stroke-miterlimit:10;}
</style>
<g id="Layer_3">
	<rect class="st0" width="260" height="344"/>
</g>
<g id="Layer_2_1_">
	<path class="st1" d="M195.3,159.3c1.3-3,5.2-9.9,9.3-7.7c1.6,0.9,2.4,3.7,3.1,5.2c1.4,3.5,2.5,6.8,3.1,10.5c1,6.3,1.9,13.7,0.9,20
		c-0.9,5.7-3.5,11.4-6,16.7c-1.8,3.7-3.1,6.3-7.3,7.6c-3.3,1-4.2,0.4-7-0.8"/>
	<path class="st1" d="M74.7,177.8c1.7,1.6,3.2,2.7,5.1,3.5c2.3,0.9,4.6,1.1,7.1,1.2c5.4,0.3,11.1-1.2,16.1-2.4
		c-3.4-3-7.7-7.2-12.5-7.7c-3-0.3-6,0.2-8.7,1.4C79.3,174.9,77.1,176.1,74.7,177.8z"/>
	<path class="st1" d="M131.4,177.4c4.3-0.1,9,0,13.4,0.2s8.2-1.7,11.9-3.9c1.8-1.1,4.7-2.6,6.4-3.9c-2.1-0.7-4.6-1.9-6.9-2.2
		c-4.2-0.6-9.1-0.1-13,1.3c-2.2,0.8-4.4,2.1-6.4,3.5C135.1,173.6,132.3,175.4,131.4,177.4z"/>
	<path class="st1" d="M68.6,174.2c3.3-1.4,6-2.9,8.5-3.7c2.4-0.8,5.2-1.4,7.8-1.6c5.1-0.3,9.9,0.2,14.5,2.5c2.9,1.4,5.1,3.5,7.3,5.6
		"/>
	<path class="st1" d="M131.4,169.4c3.2-1.8,6.7-3.4,9.2-4.3c2.4-0.9,5-1.5,7.6-1.6c5.5-0.2,10.1,0,15.1,2"/>
	<path class="st1" d="M198.6,195.1c2.4-2.1,2.7-6.5,1.8-9.4c-1.3-4.3-4.4-5.8-2.3-10.5c1.7-3.8,3.6-7.4,5.1-11.2
		c0.7-1.8,1.4-4.2,2.5-5.7"/>
	<path class="st1" d="M51.7,208.3c-0.3-2.9-3.2-5.2-4.2-7.9c-0.6-1.8-0.9-4-0.5-5.9c0.4-1.5,1.2-2.3,1.2-4c0.2-4.9-3.1-13.6-6.7-17
		c-1.3-1.2-2-1-3.3,0.4s-2,3.3-2.2,5.2c-0.2,2,0,4,0,6c0,2.3-0.6,5.6,0.2,7.5"/>
	<path class="st1" d="M84,172.9c-3.6,2.2-1.9,9,2.8,9.6"/>
	<path class="st1" d="M91.3,172.6c1,0.7,1.5,1.4,1.6,2.6c0.1,0.9,0.1,2,0,3c-0.1,1.6-1.1,3.6-2.6,4.1"/>
	<path class="st1" d="M143.6,168.8c-1.3,1.2-1.9,3.8-1,5.6c1,2,2.7,2.6,4.8,3"/>
	<path class="st1" d="M149.5,167.6c1.6,0.8,3.1,2.3,3.2,4.1c0.1,1.8,0,3.1-1.8,4.8"/>
	<path class="st1" d="M186.9,234.8c0,7.2,0,16.5-0.6,23.7c-1.2,14.1,1.1,28.1,1.1,42.1"/>
	<path class="st1" d="M88.8,289.2c-4.3,2.4-12.1,7-15.1,11c-3,4.2-7,7-10.9,10.4c-3,2.6-6.1,5.6-8.4,8.9c-2.8,3.9-4.5,8.5-6.6,12.8
		c-1.4,2.9-3.9,8.1-5.3,11.1"/>
	<path class="st1" d="M89.4,291.4c1.5,13-15.1,27.8-16.5,29.9c-1.6,2.4-3.4,4.6-4.8,7.1c-1.4,2.6-2.2,5.4-3.6,8
		c-1.6,3.1-2.1,3.2-3.3,6.8"/>
	<path class="st1" d="M186.5,273.5c6.5,6.7,11,13.5,13.1,22.8c0.9,3.9,2.5,7.5,3.4,11.4c0.7,3,0.7,6.2,0.7,9.3
		c0,4.7-0.2,9.4-0.5,14.1c-0.3,3.9-1.3,8.1-1,12"/>
	<path class="st1" d="M49.1,328.4c-6,1.7-11.7,5.8-17.2,8.7c-5.9,3.2-12.6,4.2-19,6.2"/>
	<path class="st1" d="M185.9,272.6c2.5,1.5,6.3,2.5,8.7,4.2c2.7,1.9,6,4.2,7.8,7c1.3,2,2.1,3.7,3.9,5.4c1.6,1.5,3.5,3,5.3,4.3
		c1.8,1.4,2.8,1.9,3.7,3.8c0.7,1.6,1.3,3,2.1,4.5c2.1,3.8,3.2,7.1,3.3,11.6c0,2.4,0.1,4.8,0.3,7.2c0.6,7.5,0.5,15.2,0.5,22.8"/>
	<path class="st1" d="M203.3,329.9c-1.6,3.9-5.3,7-8,8.8c-4.3,2.8-11.5,3.4-16.4,4.8"/>
	<path class="st1" d="M77.2,316.5c-0.2,5.5,1.7,11.8,4.1,16.8c1,2,2,4.2,3.4,6c1.2,1.7,3.2,2.4,4.5,4"/>
	<path class="st1" d="M68.2,328.5c-0.7,6.3,6,10.7,8.9,14.8"/>
	<path class="st1" d="M94.4,307.9c0.1,1.4,0.8,2.6,1.2,3.9c0.9,3,1.6,6.2,2.3,9.2c0.7,3.2,0.6,6.6,0.6,9.8"/>
	<path class="st1" d="M41.8,126.9c0.3,7.3,0.5,15.1,0.2,22.4c-0.3,6.5-0.8,13.8,2.5,19.6"/>
	<path class="st1" d="M107,223.7c-2.9-0.4-5.4-3.3-5-6.3c0.3-2.5,2.1-4.8,2.8-7.1"/>
	<path class="st1" d="M132.3,224c2.5-1.5,4.7-3.3,4.8-6.4c0.1-3.4-2.1-7.9-3.5-10.8"/>
	<path class="st1" d="M106.6,220.5c1.7-0.3,4-0.1,5.5,1.1c1.2,0.9,1.8,2.4,3.2,3.2c1.9,1,4.4,1.3,6.1-0.2c1.4-1.2,2.2-2.7,4-3.4
		c2.2-1,4-1.3,6.5-1.3"/>
	<path class="st1" d="M120.5,176.2c0,4.6,0.8,9.2,0.8,13.9c0,4.8-0.7,10.5,0.8,15"/>
	<path class="st1" d="M96.2,246c3.6,1,7.1,1,10.9,1c3.3,0,6,0.8,9.2,1.1c3.4,0.3,7.2,0.2,10.5-0.3s6.5-0.3,9.8-0.5
		c4.3-0.2,7-1.1,11-2.6"/>
	<path class="st1" d="M108,226.8c-3.5,0.7-7,2.7-9.6,5.3"/>
	<path class="st1" d="M109.8,230.1c-1.7,1.5-4.3,4.1-4.8,6.5"/>
	<path class="st1" d="M148.6,244.2c-3.2,0.3-6.7-0.4-9.9-0.5c-3.9-0.1-8.2-1.3-12.1-0.6c-2.9,0.6-5.6,1.4-8.6,1.2
		c-3.3-0.2-5.9-0.6-9.2,0c-4.3,0.8-8.4,1.1-12.7,1.1c3.8,5.4,10,11,16.6,12.1c5.1,0.8,11.1,1.4,16.1,0.1c3.1-0.8,7-2.7,9.8-4.2
		c2-1.1,3.6-2.9,5.3-4.3C145.3,248.1,147.2,245.7,148.6,244.2"/>
	<path class="st1" d="M124.5,228c0.9,1.5,1.9,3.2,2.4,5c0.6,2.2,0.1,4.2,0.2,6.4"/>
	<path class="st1" d="M121,231.9c0.6,2.2,0.3,4.9-0.2,7.1"/>
	<path class="st1" d="M117.1,232.9c-0.6,1.8-1,3.6-1.3,5.5"/>
	<path class="st1" d="M130.6,226.5c1.4,1.7,2.6,3.5,3.4,5.5c0.8,1.8,0.7,3.8,1.2,5.4"/>
	<path class="st1" d="M135.9,227.3c2.3,2.9,4.8,5.9,5.8,9.6"/>
	<path class="st1" d="M142.9,230.8c1.8,1.7,4.4,2.5,6.4,4.3c1.6,1.5,2.6,3.2,3.2,5.3"/>
	<path class="st1" d="M152,233.1c2.3,2.2,4.9,4.2,7,6.7c1.4,1.7,1.8,4.4,3.1,5.9"/>
	<path class="st1" d="M93.4,234.1c-2.3,2.2-5.6,6.3-6.1,9.6"/>
	<path class="st1" d="M99.9,237.7c-1.6,0.2-3.6,2.7-4,4.1"/>
	<path class="st1" d="M89.9,249.6c-0.2,2.3-1.7,4.4-2.3,6.6"/>
	<path class="st1" d="M81.8,247.3c-0.8,2.8-0.7,5.6-0.5,8.4"/>
	<path class="st1" d="M82.2,262.2c1.8,5,3.6,10.5,4.6,15.7"/>
	<path class="st1" d="M111.8,297.3c1.5,1.6,2,4.2,3.6,5.6"/>
	<path class="st1" d="M108.3,280.7c-0.4,2.4-2.5,4.2-2.5,6.8"/>
	<path class="st1" d="M116.4,262c0.1,6.2-4.2,11.6-2.5,18"/>
	<path class="st1" d="M120.7,268.8c-1.6,6.2-1.7,14.3,0.3,20.3"/>
	<path class="st1" d="M116.2,286.5c0.7,2.7,1.7,7.2,3.8,9.1"/>
	<path class="st1" d="M103.8,265c-0.5,4.6-4.8,8.6-4.5,13.1"/>
	<path class="st1" d="M91.8,263c-0.2,3.6,0,8,0.5,11.6c0.6,3.8,3.5,9,6.7,11"/>
	<path class="st1" d="M126.5,273.8c-0.1,3.1,0.1,6.2,0.3,9.3c0.2,5-0.5,10.9,0.9,15.7"/>
	<path class="st1" d="M131.3,264.7c2.1,3.4,3.5,7.7,4.4,11.6c0.5,2.5,0.8,5,0.8,7.6c0,0.8-0.1,1.6,0.2,2.4"/>
	<path class="st1" d="M132.4,284.2c0.1,3,0.4,5.9,0.2,8.9c-0.1,1.9-0.8,5,0,6.8"/>
	<path class="st1" d="M142.5,272.3c-0.1,4.7,0,9.5,0,14.2"/>
	<path class="st1" d="M144.5,259.1c1.8,2.7,3.5,5.3,4.3,8.5c0.6,2.2-0.4,7.4,0.6,8.8"/>
	<path class="st1" d="M150.1,255.8c0.9,3.4,2,6.7,2.3,10.3"/>
	<path class="st1" d="M153.4,251.3c2.2,1.4,4,5.2,4.8,7.6c1.5,4.6,1.3,9.8,1.3,14.7"/>
	<path class="st1" d="M163,251.8c1.2,4.6,3.1,9.9,3,14.6"/>
	<path class="st1" d="M179.5,223.9c0,4.5,1,9.6,0.2,14.1"/>
	<path class="st1" d="M176.9,238.6c-0.7,2.1-0.4,4.6-0.5,6.8c-0.1,2.6-0.8,5.3-1,7.9"/>
	<path class="st1" d="M172.8,252.9c0,4.1-0.3,8-0.5,12.1"/>
	<path class="st1" d="M120.5,97.1c-2.4-0.6-5-0.6-7.4-1.4c-3.1-1-4.6-3-5.7-6c-2.9-7.5-2.6-18.9-10.5-23.4s-16.5-6.7-23.2-13.2
		c-5-4.9-7.4-11.5-6.3-18.4"/>
	<path class="st1" d="M105.5,98.6c-5.4-3.8-14-3.2-19.9-0.8c-5.2,2.1-8.3,5.2-11.4,9.8c-2.7,3.9-3.8,9-8.9,10.5"/>
	<path class="st1" d="M126.7,96.5c-2.2-1.9-4.9-3.2-7-5.4c-2.3-2.2-3-4.1-3.2-7.3c-0.3-4.6,0.9-9.3,0.5-13.9c-0.4-5-6.8-8.3-10.5-11
		c-7.2-5.2-18-11.6-16.6-21.9c0.6-4.5,4.3-10.3,8.6-12.2"/>
	<path class="st1" d="M94.2,58.1c-3.7-3.3-8-5.3-10.8-9.6c-2.6-4-4.6-8.7-4.4-13.4c0.1-4.7,3.5-8.2,8.1-8.6"/>
	<path class="st1" d="M136.2,93.8c-2.3-0.5-6.2-2.4-7-4.7c-0.7-2-0.2-4.7-0.2-6.8c0-7.8-1.4-13.5-7-19.4c-2.9-3.1-5.4-6.4-8.9-8.8
		c-3.5-2.4-7.3-4.4-10-7.8c-2.9-3.6-4.2-9.5-3.1-14c1.2-5,4.5-7.9,9.1-9.5"/>
	<path class="st1" d="M142,91.5c2.1-3.8,4.6-7.2,5-11.7c0.3-3.2,0.6-7.1-1.3-9.9c-1.2-1.8-3-3.2-4.5-4.7c-2.8-2.9-5.5-6-8.2-9.1
		c-4.1-4.7-8.6-8.9-12.7-13.6c-2.5-2.9-4.7-6.9-4.7-10.9c0-2.1,1.2-3.6,2.5-5.2c2.7-3.3,5.7-6.2,10.1-6.3"/>
	<path class="st1" d="M148.2,89.5c2.9-1.9,5.8-3.9,7-7.4c1.3-4,0.4-7.8-1.7-11.3c-4.3-7-7.9-14.5-11.6-21.9
		c-2.7-5.5-5.3-13.9-2.7-19.9c1.1-2.6,3.7-6.6,6.9-6.4"/>
	<path class="st1" d="M153.9,89c2.8-2.1,5.1-3.3,6.7-6.6c1.7-3.6,1.5-8.9,0.6-12.7c-0.7-2.9-2.5-5.3-3.7-8c-1.5-3.3-2.7-7.4-3.3-11
		c-0.9-6-1.6-13.3,3.8-17.4"/>
	<path class="st1" d="M157.6,89.9c5.4-3.4,10.2-8.4,12-14.8c1.8-6.6-0.9-12.5-2.5-18.8c-1.6-6.2-2.8-12.2,0.6-17.8"/>
	<path class="st1" d="M162.9,91c4.8-1.3,10.6-1.1,13.2-5.8c3.1-5.6,3.6-12.4,2.8-18.7c-0.9-6.6-3.6-13-6-19.2"/>
	<path class="st1" d="M170.6,95.3c7.3,0.2,12.5-9.2,14.1-15.2c1.2-4.3,0.8-9.8-1.7-13.6"/>
	<path class="st1" d="M105.6,94.2c-2-2.6-4.5-4.6-6.8-6.9c-2.6-2.6-3.3-5.3-4.4-8.7c-1.1-3.2-1.9-5.8-4.7-7.9
		c-3.2-2.4-6.9-4.3-10.3-6.5c-5.7-3.7-10.6-8.7-15.1-13.8c-2.7-3.1-4.5-5.8-5.2-9.8c-0.3-1.6-0.3-3.3-0.5-4.9"/>
	<path class="st1" d="M94.4,89.5c-2.8-2.8-6.7-4.6-9.7-7.2c-3.6-3.1-7.7-6.6-10.6-10.5c-2.1-2.9-3.2-6.3-5.5-9.1
		c-1.6-2-3.5-3.9-5.5-5.5c-2.7-2.1-5.7-3-8.8-4.4c-1.6-0.7-4.5-1.9-4.2-4.2"/>
	<path class="st1" d="M87.1,91.4c-6.4-2.9-12.3-5.8-17.4-10.8c-4.5-4.5-8.6-10.4-13.9-14.1c-3.7-2.7-6.5-4.4-11.1-4.4"/>
	<path class="st1" d="M80.3,95.3c-2.4-1.5-6-1.8-8.8-2.5c-4-1.1-7.7-2.2-11.4-4.2c-4.6-2.5-7.7-4.8-10.7-8.9
		c-2.5-3.4-4.8-6.2-5-10.5"/>
	<path class="st1" d="M79,99c-6.6,1.4-14.4,1-21.1,0.7c-6.6-0.3-12.6-5-16.8-9.9c-3.4-4-1.8-9.6-0.6-14.1"/>
	<path class="st1" d="M70.1,105.1c-1.7,0.8-3.3,2.1-4.9,3.1c-2.6,1.8-5.4,3.2-8.2,4.7c-3.6,2-7,3.7-10.9,5.3
		c-2.8,1.2-5.8,2.1-8.9,1.2c-2.7-0.7-4-3.4-6.2-4.9"/>
	<path class="st1" d="M62,105.4c-2,1.6-9-0.8-10.8-1.4c-4.5-1.6-6.4-3.7-10.8-5.8c-3.3-1.5-10-3.3-9.3-8.4"/>
	<path class="st1" d="M68.6,110.9c-2.9,1.7-5.4,4.2-8.1,6.1c-3.9,2.8-7.8,5.8-12.2,7.8c-5.2,2.4-9.4,2.2-14.6,0.5"/>
	<path class="st1" d="M169.2,100c4.2,5.3,4.4,13.4,5.9,19.7c1.6,6.7,5.4,12.2,6.1,19c0.4,3.3,0.8,5.7,2.1,8.8
		c1.5,3.7,3.2,7.9,3.2,11.9c0,3.4,0,6.8,0.5,10.1c0.3,2.4,1.1,4.8,1.3,7.1c0.5,4.9,0.8,8.3,0.1,13.3c-0.6,3.8-1.5,7.7-2,11.4
		c-0.6,3.5-1.5,6.5-2.5,9.9c-0.8,2.5-1.8,5.7-1.7,8.4"/>
	<path class="st1" d="M50.4,109.4c-3.7,0.1-7.1-0.6-10.6-1.7c-4.3-1.3-8.8-2.9-12.7-5"/>
	<path class="st1" d="M105.5,166.1c0.4-0.4,0.3-1-0.1-1.3c-1.8-1.1-4.1-1.8-5.9-2.7c-2.1-1-4.1-2-6.3-2.8c-3.4-1.3-7.4-3.7-11.3-3.2
		c-7.5,1-14.2,5-21.3,7.6c-1.3,0.5-4,0.5-2.7,2.2c1.2,1.7,4.1,3,6.2,3.2c3.8,0.4,7-0.5,10.5-1.5c4.2-1.2,9-1.5,13.3-1.6
		c2.3,0,4.4,0.7,6.6,0.9c2.3,0.3,4.4,0.4,6.7,0.1C102.8,166.9,104.5,167.1,105.5,166.1z"/>
	<path class="st1" d="M126.9,162.2c-0.5-0.2-0.8-0.8-0.6-1.4c1.2-3,4.9-3.7,7.6-5c3.3-1.7,6.7-2.5,10.2-3.5c2.1-0.6,4.2-1.6,6.4-1.6
		c5.7-0.2,11.6,0,17.2,0.8c1.6,0.2,4.5-0.1,4.7,1.9c0.3,2.4-0.4,4.7-2.4,6.1c-3.4,2.4-9.2,1.5-13,1.4c-4.1-0.1-8.1-0.4-12.2-0.1
		c-3.9,0.3-7.7,1.4-11.5,1.7C132.3,162.5,128.5,162.9,126.9,162.2z"/>
	<path class="st1" d="M54.9,123.8c-2.6,11.6-5.8,23.4-6.5,35.3c-0.4,7.2-0.6,16.8,1.5,23.4c0.8,2.7,1.1,5,1.3,7.8
		c0.4,4.8,2.5,9.6,3.9,14.2c1.1,3.7,0.9,8.1,2.4,11.5c1,2.3,2.7,4.2,3.6,6.5c1.9,4.9,2.5,10.2,4.2,15.1c1.6,4.6,2.7,6.7,5.1,10.9
		c2.5,4.2,4.4,8.7,6.1,13.1"/>
	<path class="st1" d="M87.2,192.3c6,0,10-1.4,14.7-4.9"/>
	<path class="st1" d="M133.5,182.7c3.3,4.6,14.6,4.5,19.4,4.4"/>
	<path class="st1" d="M44.4,168.9c-2-2.3-6.9-8.5-9.2-3.4c-0.8,1.8-0.8,4.2-1,6.1c-0.3,2.7-1.3,5.4-1.6,8
		c-1.4,14.1,4.2,27.3,12.2,38.3c1.8,2.5,4.1,5.1,7.2,5.1c2.7,0,2.7,0,4.6-1.2c1.6,3.8,2.8,9.9,4.5,13.9c1.5,3.3,1.2,6.3,2.3,9.8
		c2.2,7.2,4.6,13.2,7.1,20.2c1.7,4.6,1.7,8.4,6.3,11.1c2.9,1.7,3.7,4.5,5.7,6.9c1.3,1.6,4.4,4.3,6.3,5.3c0.3,3.5,4,7,6.8,9.1"/>
	<path class="st1" d="M189.3,83.9c-0.1,3.8-0.3,8.8,0.8,12.5c0.9,3.1,3.1,5.5,3.9,8.7c1.2,4.4,1.3,10.2,1.7,14.7
		c0.8,7.6-1.3,13.7-0.1,21.2c1.4,8.8-1.8,32.9-3.2,40.9c-0.7,4,0,8,0,12.1c0,8.8-0.7,16.8-2.7,25.4c-0.6,2.8-1.5,5.4-2.2,8.2
		s-0.4,5.7-0.6,8.5c-0.4,4.6-2.9,7.6-4.6,11.6c-0.9,2.1-1.4,4.1-1.9,6.3c-0.4,1.6-3.5,13.3-5,17.5c-0.8,2.4-2,4.3-2.4,6.7
		c-0.3,1.9-0.4,2.5-1.6,4.2c-1.6,2.3-2.9,4.9-4.4,7.3c-1.5,2.5-3.2,2.4-6.2,2.4c-4.3,0-6.2-0.8-9,2.7c-2.5,3.1-5.7,3.6-8.8,5.9
		c-2.8,2-3.5,5.4-5.8,7.8c-1.4,1.5-5.9,4.1-7.9,3.5c-2.4-0.8-1.8-5.1-3.7-6c-3-1.5-3.9,3.4-6.1,3.9c-2.2,0.6-3.7-2.6-5.6-2.4
		c-4.4,0.3-6.5-3.7-9.4-6.2s-4-5.9-6.2-8.9"/>
	<path class="st1" d="M216.7,300.6c2.8,1.3,7.6,1.7,10.3,3c2.2,1.1,4.1,2.8,6.4,3.8c3.7,1.6,8.1,4.1,11.7,5.8"/>
</g>
</svg>
