<?xml version="1.0" encoding="utf-8"?>
<!-- Generator: Adobe Illustrator 22.0.1, SVG Export Plug-In . SVG Version: 6.00 Build 0)  -->
<svg version="1.1" id="Layer_1" xmlns="http://www.w3.org/2000/svg" xmlns:xlink="http://www.w3.org/1999/xlink" x="0px" y="0px"
	 viewBox="0 0 260 344" style="enable-background:new 0 0 260 344;" xml:space="preserve">
<style type="text/css">
	.st0{fill:#FFFFFF;fill-opacity:0;}
	.st1{filter:url(#Adobe_OpacityMaskFilter);}
	.st2{fill:#FFFFFF;}
	.st3{mask:url(#mask-2_1_);}
	.st4{fill:none;stroke:#000000;stroke-width:2;}
</style>
<title>1</title>
<desc>Created with Sketch.</desc>
<g id="Page-2.4-_x28_venue_x2B_photos_x29_">
	<g id="home" transform="translate(-133.000000, -1511.000000)">
		<g id="speakers" transform="translate(133.000000, 1394.000000)">
			<g id="_x31_" transform="translate(0.000000, 90.000000)">
				<g id="Mask">
					<rect id="path-1_1_" x="-0.6" y="26.8" class="st0" width="260" height="343.4"/>
				</g>
				<defs>
					<filter id="Adobe_OpacityMaskFilter" filterUnits="userSpaceOnUse" x="-0.9" y="53.7" width="243.2" height="317.2">
						<feColorMatrix  type="matrix" values="1 0 0 0 0  0 1 0 0 0  0 0 1 0 0  0 0 0 1 0"/>
					</filter>
				</defs>
				<mask maskUnits="userSpaceOnUse" x="-0.9" y="53.7" width="243.2" height="317.2" id="mask-2_1_">
					<g class="st1">
						<rect id="path-1_2_" x="-0.6" y="26.8" class="st2" width="260" height="343.4"/>
					</g>
				</mask>
				<g id="Page-1_1_" class="st3">
					<g transform="translate(0.000000, 28.000000)">
						<path id="Stroke-1" class="st4" d="M153.4,33.4c-17.3-8.3-38.2-8.9-55.9-1.5c-17.7,7.4-31.9,22.7-38.1,40.8
							c-6.5,19.1-4.2,39.9-1.1,59.8c-0.4-2.5-4.9-3.5-6.4-1.5c-1.5,2,1.8,14.2,3.1,20.1c2.1,9.3,1.9,21.1,3.4,26
							c1.1,3.4,6,5.8,10.5,3.4c6,15.4,13.8,31.4,27,41.4c9.6,7.3,22.3,10.5,34.2,8.7c12-1.8,23.1-8.7,30-18.5"/>
						<path id="Stroke-3" class="st4" d="M114.7,236.9c18.4,4.8,39.3-2.1,51.2-16.9"/>
						<path id="Stroke-5" class="st4" d="M153.4,33.4c15.4,8.3,27.5,20.7,34.8,36.6c7.4,15.9,6.9,48.9,5.7,51.3
							c1.1-2.4,3.2-4.9,5-6.8c1.8-1.9,4.5-3.3,7.1-2.9c2.7,0.4,5,2.6,6.1,5.1c1.1,2.5,1.4,5.3,1.5,8.1c0.3,7.6-0.2,15.3-1.6,22.8
							c-0.7,3.9-1.6,7.8-3.7,11.1c-2.1,3.4-5.4,6.1-9.3,6.6c-3.9,0.5-8.3-1.7-9.4-5.5c-1.2,11.5-5,22.9-10.5,33.1"/>
						<path id="Stroke-7" class="st4" d="M194,164.9c-3,25.6-0.6,52.8,4.3,77.8"/>
						<path id="Stroke-9" class="st4" d="M217.6,241.5c-9.4-5-17.4-12.3-23.2-21.2"/>
						<path id="Stroke-11" class="st4" d="M158.6,113.3c-6.2-2.9-12.9-5.9-19.7-5c-5.1,0.7-9.8,3.6-12.6,7.9
							c4.4,3.1,10.1,4.3,15.4,3.6c5.3-0.6,10.4-3,14.5-6.4"/>
						<path id="Stroke-13" class="st4" d="M69.2,122.4c2.9-4.4,7.9-7.4,13.1-7.9c5.3-0.5,10.7,1.3,14.5,5
							c-7.2,5.1-17.2,6.2-25.2,2.5"/>
						<path id="Stroke-15" class="st4" d="M96.9,115.7c-3.7-4-9.1-6.4-14.5-6.3c-5.4,0.1-10.8,2.5-14.4,6.6"/>
						<path id="Stroke-17" class="st4" d="M124.7,111.8c3.5-4.9,8.9-8.3,14.8-9.4c5.9-1,12.2,0.3,17.1,3.7"/>
						<path id="Stroke-19" class="st4" d="M58,129.9c2.5,16.9,6.4,35.7,11.6,52"/>
						<path id="Stroke-21" class="st4" d="M82.5,105.3c7-2.2,15.4,2,17.8,8.9c1.7,5,0.6,10.4-0.5,15.5l-4.1,18.8
							c-0.5,2.1-0.9,4.3-0.2,6.3c0.7,2,3.1,3.6,5,2.7"/>
						<path id="Stroke-23" class="st4" d="M98.5,152.5c1.4-0.5,3.1-0.3,4.4,0.5c1.3,0.8,2.2,2.2,2.3,3.7"/>
						<path id="Stroke-25" class="st4" d="M115.2,155.8c-1-0.8-1.4-2.3-0.9-3.6c0.5-1.2,1.8-2,3.1-1.9c3.3,0.3,4.5,5.3,7.8,5.7
							c1.7,0.2,3.4-1.1,4.1-2.7c0.7-1.6,0.5-3.5,0.1-5.1c-1.1-4.2-4-7.9-7.9-10"/>
						<path id="Stroke-27" class="st4" d="M127.2,103.8c-5.7,1.7-9.9,7.4-9.8,13.3c0.1,6.2,4.2,11.5,8.2,16.3"/>
						<path id="Stroke-29" class="st4" d="M91.8,152.6c-1.5,5.1-3,10.1-4.6,15.2"/>
						<path id="Stroke-31" class="st4" d="M194,139.4c-0.1-15.3,7.7-23.4,11.7-22.3c1.9,0.6,3.7,4.4,4.4,7"/>
						<path id="Stroke-33" class="st4" d="M203,143.5c0.2-1.4,0.4-2.8,0.3-4.2c-0.1-1.4-0.6-2.8-1.6-3.8c-1.7-1.8-4.9-1.7-6.6,0.1
							c-0.9,1-1.4,2.6-1.1,3.9c1.7-0.8,4,0.2,4.6,2c0.6,1.8-0.6,4-2.4,4.4"/>
						<path id="Page-1" class="st4" d="M142,176.3c-4.1,4.4-11.1,4.4-17,3c-2.7-0.7-5.5-1.5-8.2-1c-1.2,0.2-2.3,0.7-3.4,0.9
							c-2.4,0.4-4.8-0.2-7.2,0c-1.8,0.2-3.5,0.8-5.2,1.4c-3.2,1.2-6.4,1.6-9.5,2.7c1.9-5,5.6-9.3,10.2-12.1c1.5-0.9,3.4-1.7,5-0.9
							c1.2,0.6,1.9,2,3.2,2.3c2.4,0.6,3.9-2.8,6.2-3.6c2.5-0.9,4.9,1.3,7,2.8c5.3,3.7,12.1,4.1,18.6,4.4
							c-6.3,4.5-8.7,16.7-14.6,21.7c-5.2,4.5-13.3,4.2-19.4,0.9c-2.2-1.2-4.3-2.7-5.7-4.8c-1.2-1.8-1.9-3.9-3-5.8
							c-1.2-1.8-3.2-3.4-5.3-3.2c4.5-0.7,9.7-0.4,14,0.9c2.2,0.7,4.4,1.6,6.7,1.5c1.6,0,3.2-0.6,4.8-1.1c2.6-0.9,5.2-1.8,7.8-2.7
							c3.1-1.1,9.4-2.8,11.8-5.1"/>
						<path id="Stroke-37" class="st4" d="M132.8,149.3c4.8,4.3,8.8,9.7,11.4,15.6"/>
						<path id="Stroke-41" class="st4" d="M217.6,241.5c8.2,14.8-16.7,17.9-25.7,23.3c-6.2,3.7-11.3,9.2-18.3,11.4
							c-4.4,1.4-8.8,2.3-13,3.3"/>
						<path id="Stroke-43" class="st4" d="M52.4,285c-13.7,2.4-19.4,14.1-24.9,25.5c-4.5,9.3-9.7,20.9-11,31.5"/>
						<path id="Stroke-45" class="st4" d="M217.6,241.5c8.9,0.1,10.4,2.8,10.1,11.9c-0.3,8.3-4.8,12.4-9.3,19.1
							c-4.2,6.3-7,13-9,20.3c-3.3,12.2-5.9,24.8-9.1,37.2c-0.4,1.7-2,6-4.3,12.3"/>
						<path id="Stroke-49" class="st4" d="M220.7,241.5c5.9-3.9,18.1-4.9,19.6,2.8c4.2,21.1-5.6,43.4-6.5,64"/>
						<path id="Stroke-51" class="st4" d="M42.4,289.5c-18-1.6-24.7,18.4-30,31.8c-2.5,6.2-4.2,13.3-5.6,20.6"/>
						<path id="Stroke-55" class="st4" d="M15,314.7c-3.8,6.6-9.4,13.2-15.1,19.7"/>
						<path id="Stroke-65" class="st4" d="M84.8,114.3c-5.6,0.8-5,7.3,1,7.6c2.5,0.1,5.3-3,4.1-5.4c-0.9-1.8-3-2.2-6.4-2.2"/>
						<path id="Stroke-67" class="st4" d="M142.4,108.2c-6.7,0.5-4.3,10.3,3.3,8.9c3-0.5,4.4-4.3,3.6-6.4c-0.9-2-4.4-2.6-7.4-2.6"/>
						<path id="Stroke-73" class="st4" d="M90.2,216.8c2.8,21.7,2.4,38.4,1.9,54.8c7.1,1.4,12.5,8.5,19.5,9.9
							c7.1,1.4,14.4,2.1,21.7,2c10-0.1,18.5-2.2,28.5-4.3"/>
						<path id="Stroke-75" class="st4" d="M51.9,285.1c4.2-0.2,7.6-2.8,12.2-2.6c2.3,5.1-2.9,11.6-4.6,16.3
							c-2.1,6-2.4,12.6-3.8,18.8c-1.8,8.1-3.7,16.2-5.3,24.3"/>
						<path id="Stroke-77" class="st4" d="M91.9,271.4c-5.8,0-11.5,0.1-16,4.1c7.8,0.9,14,9.6,21.1,12.6c11.4,4.9,22,5,34.2,6
							c13.3,1.1,25.2,1.2,38.1-3c9.8-3.2,19.4-7.2,29-10.9c4.5-1.8,9.9-2,14.2-3.7c2-0.8,3-2.4,5.1-3"/>
						<path id="Stroke-79" class="st4" d="M44.3,327.6c0,5.2-0.4,10.2-1.1,15.2"/>
						<path id="Stroke-81" class="st4" d="M64.1,282.6c2.5-3.1,8.3-4.9,11.9-7.1"/>
					</g>
				</g>
			</g>
		</g>
	</g>
</g>
</svg>
