<?xml version="1.0" encoding="utf-8"?>
<!-- Generator: Adobe Illustrator 21.1.0, SVG Export Plug-In . SVG Version: 6.00 Build 0)  -->
<svg version="1.1" id="Layer_1" xmlns="http://www.w3.org/2000/svg" xmlns:xlink="http://www.w3.org/1999/xlink" x="0px" y="0px"
	 viewBox="0 0 260 344" style="enable-background:new 0 0 260 344;" xml:space="preserve">
<style type="text/css">
	.st0{opacity:0;}
	.st1{fill:#FFFFFF;}
	.st2{fill:none;stroke:#000000;stroke-width:2.0068;}
</style>
<g id="speakers" transform="translate(-136.000000, -1324.000000)">
	<g id="migutsky" transform="translate(133.000000, 234.000000)">
		<g transform="translate(1.000000, 1064.000000)">
			<g id="bg" class="st0">
				<rect id="Rectangle-path" x="2" y="26" class="st1" width="260" height="344"/>
			</g>
			<g id="Layer_6" transform="translate(2.988506, 26.921739)">
				<path id="Shape" class="st2" d="M65.6,144.8c-0.5,0-0.8-0.6-0.5-0.9c4.2-4.5,10.4-9.1,16.5-7.8c4.8,1.1,12.2,1.7,16.4,4.1
					c2,1.2,3.7,3.7,4.9,5.7c0.3,0.5-0.1,1.1-0.7,0.9c-5.8-1.6-11.8-2.5-17.7-3.7C78.1,141.9,72.2,144.5,65.6,144.8z"/>
				<path id="Shape_1_" class="st2" d="M133.4,149.8c-0.4,0-0.7-0.4-0.5-0.8c0.7-2,5.3-6,7.2-6.6c4-1.3,9-2,13.2-2.8
					c6.6-1.3,9.7,0.5,15,4c1.8,1.2,3.9,2.5,4.7,4.6c0.4,1-0.6,2.1-1.7,1.8c-5.2-1.5-10.1-3.2-16.3-2.9c-4.4,0.2-8.9,0.4-13.2,1.1
					C139.2,148.5,136.2,149.9,133.4,149.8z"/>
				<path id="Shape_2_" class="st2" d="M107.2,152.2c8.6,1.9,4.1,12.3,1.4,17.2"/>
				<path id="Shape_3_" class="st2" d="M99.5,178.2c-4.4,2.8-5.6,9.2-0.3,11.2c2.5,0.9,3.9,0.9,6.1,2.7c1.7,1.4,3,3.1,4.8,4.3
					c5.4,3.4,8.8,0.3,13.1-2.7c3.9-2.7,9.7,0.1,12.7-4.6c3.8-6-3.2-11.1-8.9-8.9"/>
				<path id="Shape_4_" class="st2" d="M71.7,154c5.9,0.5,10.7-4.7,17-4.9c6.4-0.3,12.5,2.1,14.3,8.4c0.1,0.5-0.2,1-0.7,1
					c-4.8,0.1-9.4-1.1-14.2-1.4c-4.4-0.2-15.5-0.5-18.1-4.9"/>
				<path id="Shape_5_" class="st2" d="M132.2,159.6c7-4.6,10.4-8.6,19.3-6.8c3.7,0.8,12.3,1.6,15.9,4.9c0.8,0.8,0.5,2.2-0.6,2.4
					c-4.8,1.1-12.7-0.2-16.9-0.2c-3,0-14.3,0.8-16-1.6"/>
				<path id="Shape_6_" class="st2" d="M98.1,179.3c-4.5,4.2-9.2,8.4-14.3,12c-4.4,3-13.1,6.1-8.5,12.3"/>
				<path id="Shape_7_" class="st2" d="M136.8,184.2c4.5,1.5,9.9,6,13.7,9.1c3.3,2.6,10.4,5.8,11.3,10.3"/>
				<path id="Shape_8_" class="st2" d="M55.1,189.8c1.3-11.9-1.7-55.4-2.1-59.3c-0.8-8,0.9-15,2.1-22.9c0.5-3.2-0.4-7.3,0.5-10.3
					c0.9-3.1,2.4-5.2,2.9-8.5C60.3,78,65.1,68,72,59.6c3.3-4,5.4-5.8,10.4-6c3.1-0.1,8.3-1.5,10.7-0.7"/>
				<path id="Shape_9_" class="st2" d="M193.5,163.3c1.3,9,3.1,19.3,1.9,28.3c-1.1,7.6-3.4,18-7.8,24.4
					c-4.9,7.2-16.1,11.4-23.4,15.4c-3.9,2.1-11.9,9.7-15.6,8.7c-5.1-1.4-5.3-1.4-7.9,1.4c-1.6,1.7-3.1,3.8-4.9,5.3
					c-5.7,4.8-15.9,9.2-23.4,9.2c-5.1,0-9.7-2.1-12.9-5.9c-3.2-3.8-5.3-6.5-9.7-8.5c-3.9-1.8-7.2-6.5-10.7-9.2
					c-3.5-2.6-6.6-8-8.7-12c-5.4-10.4-9-17.9-10.6-30.5c-1.2-9.7-0.6-23.5-0.6-23.5"/>
				<path id="Shape_44_" class="st2" d="M55.1,189.8c0,7.1,2.4,12.4,4.5,19c2,6.5,4,12.3,7.8,17.9c7.4,10.9,15.7,20.3,25.3,29.5
					c3.4,3.2,5.4,6.4,10.2,6.7c5.5,0.3,10.4,1.2,15.8,2.1c7.9,1.2,14.5-3.6,21.8-6c2.3-0.7,4.7-1.1,7-2.2
					c10.7-5,18.5-10.4,27.2-18.5c4-3.8,9.4-7.2,13-11.2c3.3-3.8,5.1-10.1,7.5-14.6c3.6-6.9,4-13.3,4.4-21c0.4-8.7-0.8-17-1.6-25.6
					c-0.2-2.1-0.1-4.1-0.3-6.2c-0.7-6.4-3.6-11.9-4.5-18.3c-0.5-3.3-0.1-6.7-0.6-10c-0.6-3.8-2.6-6.8-2.9-10.7c-0.2-2.5,0-5.2,0-7.7
					c0-4.1,0.2-8.2,0-12.2c-0.3-6.3-4.9-12.5-8.6-17.6c-4-5.5-8.7-5.2-15.3-4c-8.3,1.5-17.4,2-25.3-1.4c-4.2-1.8-9.4-5.7-10.2-10.5"
					/>
				<path id="Shape_43_" class="st2" d="M145.2,79.5c-4.2,1.7-10.7,4.1-15.4,4.1c-5.2,0-10.4-2.4-15.6-2.7c-5-0.3-7.6-3.9-11.9-5
					c-3.6-1-8.1,0.4-11.6-1c-2.1-0.8-1.5-2.3-4.1-1.8c-1.6,0.3-3.7,1.2-5,1.9c-4.2,2.4-6.4,8-9.2,11.8c-3.7,5-6.9,11.1-8.4,17.1
					c-3.9,11.8-5,33-4.8,62.5"/>
				<path id="Shape_11_" class="st2" d="M200.8,165.2c0-5.4,4.5-32.9,14.4-26.4c0.6-3.5-2-7.4-2.7-10.7c-1.1-5,0.4-10.4,0-15.5
					c-0.3-3.9-0.1-10.2-1.6-13.7c-1-2.4-4.4-4.2-5.7-6.5c-0.6-1.1,0.3-2.5,1.5-2.5c1.8,0.1,3.5,0.5,5.1,1.5"/>
				<path id="Shape_12_" class="st2" d="M201.1,81.1c3.3-0.4,5.6-2.3,8.4-3.9"/>
				<path id="Shape_13_" class="st2" d="M201.1,76.6c2.9-0.5,4.9-3,7-4.9"/>
				<path id="Shape_14_" class="st2" d="M205.4,83.9c2.6,0.7,5.2-0.1,7.7,0.4"/>
				<path id="Shape_15_" class="st2" d="M200.8,57.2c0.9,3,1.8,8.3,0.8,12.2c-0.3,1.3-2.2,1.4-2.6,0.1c-1.4-3.8-4.6-7.9-6.1-11
					c-1.7-3.5-5.4-6.6-6.5-10.2"/>
				<path id="Shape_16_" class="st2" d="M185.7,59c-2.2-5.3-6-11.6-10.3-15.4c-5.9-5.2-15.8-7.2-23.3-8.6c-4-0.8-8.5-0.5-12.5-1.9
					c-3.2-1.1-5.7-6.3-8.5-6.2"/>
				<path id="Shape_17_" class="st2" d="M137.8,38.6c-3.2-0.1-9.2-2.9-8.8-6.7"/>
				<path id="Shape_18_" class="st2" d="M130.8,42.8c-4.4-0.2-9.8-3.7-10.9-8.1"/>
				<path id="Shape_19_" class="st2" d="M118.8,39.6c-3.6-3.3-6.9-2.4-10.7-0.6c-2.3,1.1-4.3,1.7-6.8,2c-3.4,0.4-5.3,1.4-8.5,2.5"/>
				<path id="Shape_20_" class="st2" d="M107.2,50.5c-4.7-4.5-15.9-5.4-21.8-3.2"/>
				<path id="Shape_21_" class="st2" d="M215.2,138.8c6,3.6,0.8,17.6-0.4,22.8c-0.9,4-2.4,7.9-3.1,12.1c-0.8,4.7-0.4,9.4-1,14.1
					c-0.7,5-5.8,10.8-11.2,7.6"/>
				<path id="Shape_22_" class="st2" d="M209.9,145.1c6.3-2.2,0.6,19.2,0.7,21.1"/>
				<path id="Shape_23_" class="st2" d="M206.4,185.6c-2.7-0.3-4.1,3.9-1.2,4.2c2.9,0.3,2.1-3.7,0.8-4.2"/>
				<path id="Shape_24_" class="st2" d="M78.7,204.2c3.7-3.2,6.5-1.3,10.9-1.1c4.1,0.2,8.3-0.2,12.3-0.4c4.9-0.2,7.6,1,12,2
					c6.3,1.5,12.8-0.6,19-0.9c8.5-0.4,17.1,3.5,25.7,1"/>
				<path id="Shape_25_" class="st2" d="M101.2,231.7c7.3-2.8,19-1.9,26.7-1.1"/>
				<path id="Shape_26_" class="st2" d="M81.5,202.7c3.6,0.6,9.3,7.4,12,10c3.8,3.7,8.6,8,13.5,10.1c11.7,5.2,27-4.4,37.2-9.9
					c4.8-2.6,9.2-7,14.4-8"/>
				<path id="Shape_27_" class="st2" d="M88.8,149c-4.6,2-2.7,6.7,1.2,7c3.4,0.3,7.5-4.4,2.8-6.8"/>
				<path id="Shape_28_" class="st2" d="M148,152.4c-2.3,0-3.7,3.1-2.8,4.7c1.1,2,2.6,2.7,4.7,2.8c2.2,0.2,3.7-0.3,5.4-1.9
					c1.3-1.3,1.2-3.3-0.4-4.6"/>
				<path id="Shape_29_" class="st2" d="M85.4,248.8c1.4,7.9-1.5,17.5-3.8,24.8c-1.1,3.4-1.5,8.2-0.4,11.7c1.8,5.6,7.7,6,12.6,6.3
					c13.7,0.8,25.5-3.3,38.6-6.9c9.3-2.6,18.3-6.8,26.8-11.4c6.3-3.5,13.7-7.1,18.6-12.6c6.3-7,14.7-24.7,12.3-37.3"/>
				<path id="Shape_30_" class="st2" d="M136.4,270.9c7.9-0.4,17.1-4.2,23.9-8.3c6-3.6,13.5-9.5,17.6-14.9"/>
				<path id="Shape_31_" class="st2" d="M190.1,237.5c3.7-0.3,5.9-0.1,6.1,4.1c0.1,1.4-1.3,5-0.4,6c0.9,0.9,5.2,0,6.5,0.2
					c3.1,0.4,3.9,1,5.8,3.5c3.1,4,4.8,5.5,9.6,7.4c8.3,3.3,26.6,14.4,34.9,18.1"/>
				<path id="Shape_32_" class="st2" d="M85.4,259.6c-5.1,0.4-7.6,5.1-9.8,9.5c-1.6,3.2-1.7,6.6-1.5,10.2c0.2,3.5-0.9,10.6,0.5,13.8
					c2.5,5.5,14.2,5,18.9,4.6c8.4-0.7,17.5-0.7,25.6-2.7c15.7-4,31.2-7.8,45-16.6c7.6-4.9,14-11.1,19.9-17.7
					c1.2-1.3,5.3-7.2,5.8-8.1"/>
				<path id="Shape_33_" class="st2" d="M76.3,267.4c-8.3,3.6-17.7,5.5-26.5,8c-5.3,1.6-10.4,3.8-15.7,5.7c-3.1,1.1-6.4,1.4-9.2,3.2
					c-3.5,2.2-6.6,5.9-9.4,8.9c-4.4,4.8-9,9.3-13.4,14"/>
				<path id="Shape_34_" class="st2" d="M155.9,205.8c0,0-20,7.6-23.2,8.6c-2.1,0.7-4.4,0.5-6.6,0.7c-4.7,0.4-9.4,0.3-14.1,0.1
					c-4.4-0.1-7.7,0-11.6-2.2c-1.8-1-13.9-10.2-13.9-10.2c6.7,0.7,13.5,2.8,20.4,4.3c5.5,1.2,14,1.6,18.8,1c5.5-0.6,9.5-1.1,15-1.4
					c2.5-0.1,5,0,7.4-0.2C149.9,206.4,153,205.8,155.9,205.8"/>
				<path id="Shape_35_" class="st2" d="M115.2,209c0,2,0.1,4,0.1,5.9"/>
				<path id="Shape_36_" class="st2" d="M123.1,208.4c0.1,2.1,0.1,4.3,0.1,6.4"/>
				<path id="Shape_37_" class="st2" d="M129.1,207.5c-0.5,1.3-0.1,3.3-0.1,4.7c0,0.8,0,1.6,0.1,2.4"/>
				<path id="Shape_38_" class="st2" d="M135.4,207.2c0,2,0,4,0,5.9"/>
				<path id="Shape_39_" class="st2" d="M141,206.9c0,0.9-0.5,3.4,0.2,4.2"/>
				<path id="Shape_40_" class="st2" d="M108.1,207.3c-0.3,2.5-0.3,5-0.3,7.5"/>
				<path id="Shape_41_" class="st2" d="M102.2,206c0,2.4-0.1,4.9-0.1,7.3"/>
				<path id="Shape_42_" class="st2" d="M96.7,205c0,1.7,0,3.5,0,5.2"/>
				<path class="st2" d="M53.9,148.6c-1.1-1.7-1.4-4.3-4.1-1.4c-1.6,1.7-0.9,5.5-0.9,7.6c0,3.3,0.4,6.6,0.6,9.9c0.4,6.1,0,12,0.2,18
					c0.1,3.3,0.8,7.7,5,7.2"/>
				<path class="st2" d="M243.2,297.3c-5.8,3.8-9.8,15.9-12.9,22.5c-2.7,5.8-7.6,13.1-9,19.3"/>
				<path class="st2" d="M240,317.9c-3.1,5.9-6.2,12.1-7.7,18.6"/>
				<path class="st2" d="M25.2,292.8c-4.5,7-4.5,21.9-5.3,30.3c-0.6,5.9-1.7,14.1-2.4,18.5"/>
			</g>
		</g>
	</g>
</g>
</svg>
