<?xml version="1.0" encoding="utf-8"?>
<!-- Generator: Adobe Illustrator 22.0.1, SVG Export Plug-In . SVG Version: 6.00 Build 0)  -->
<svg version="1.1" id="Layer_1" xmlns="http://www.w3.org/2000/svg" xmlns:xlink="http://www.w3.org/1999/xlink" x="0px" y="0px"
	 viewBox="0 0 260 344" style="enable-background:new 0 0 260 344;" xml:space="preserve">
<style type="text/css">
	.st0{fill-opacity:0;}
	.st1{fill:none;stroke:#000000;stroke-width:2;stroke-miterlimit:10;}
</style>
<g id="bg">
	<rect class="st0" width="260" height="344"/>
</g>
<g id="Layer_2_1_">
	<path class="st1" d="M69.8,138.8c3.6,4.1,27.1,4.8,35.9-3.4c-4.9-5.2-10.9-9.1-18.3-8.2C80.9,128,73.3,133.2,69.8,138.8z"/>
	<path class="st1" d="M142.1,129.6c-0.4,0.7-0.2,1.5,0.6,1.8c4.4,2.2,11.9,3,16.4,3.1c5.9,0.1,12-1.8,17.4-2.7
		c1-0.2,1.4-1.4,0.7-2.2c-4.7-4.6-11.1-8.2-17.5-8.6C153.3,120.9,145.7,124.2,142.1,129.6z"/>
	<path class="st1" d="M57.5,131.3c4.8-3.1,8-8.2,13.8-10.6c5.1-2.2,9.5-2.5,14.9-2.2c4.8,0.3,9.4,0.9,14.4,0.8
		c3.3-0.1,4.5-0.8,4.8-4.3c0.3-2.4,0.1-5.1-0.6-7.5c-0.5-1.6-12.8-0.9-15.2-0.9c-5.1,0-10.6-0.2-15.5,1.1
		c-5.9,1.6-10.6,5.2-13.6,10.4C59.6,119.7,50.1,134.6,57.5,131.3z"/>
	<path class="st1" d="M181.2,116.2c-0.1,1-1.2,1.5-2.1,1c-3.7-2.4-8.3-4.8-12.5-5.1c-4.8-0.4-9.2,1.5-13.8,2.5
		c-3.9,0.9-9.9,4.7-13.8,3.8c-4.4-0.9-1.7-9.3-1.1-12.6c3.4-2.6,10.6-1.6,14.6-2c4.8-0.5,10.1-1.3,14.6,0.3
		c3.8,1.3,7.2,0.3,10.3,3.5C179.3,109.3,181.5,113.2,181.2,116.2z"/>
	<path class="st1" d="M83,128.2c-4.7,3.8,0,10.2,4.8,10.6c6.1,0.5,11.6-7.9,6.2-10.9"/>
	<path class="st1" d="M155.7,121.5c-5.4,0.7-3.4,9.6,2.2,9.8c4.9,0.2,9.6-4.5,6.7-9.1"/>
	<path class="st1" d="M49.5,134.4c-2.9-3-5.6-2.9-7.8,0.9c-1.5,2.8-1,5.4-0.5,8.4c0.9,5.2,1.5,10.5,2.8,15.5
		c1.2,5.1,3.3,10.3,4.1,15.5c0.6,3.6-0.3,15,5.7,12.9"/>
	<path class="st1" d="M105.5,158.3c-3.4,4.3-8.4,11.3-1.6,15.8c4.3,2.9,4.9-1,8-3.2c3.3-2.5,4.6,0.8,3.4,4.1"/>
	<path class="st1" d="M132.8,130.4c-2.4,4.4-4.8,13-2.4,17.8c1.6,3.3,5.1,4.7,5.8,8.7c0.5,2.8,0.2,6.8-1.3,9.2"/>
	<path class="st1" d="M140.3,156.9c3.8,2.1,10.8,12.5,2.3,13.7c-2.9,0.4-5-2.5-7.8-2.5c-3,0-6.3,4.6-2.6,6.4"/>
	<path class="st1" d="M92.8,199.4c5.8,0,11,1,16.6,1.9c5.8,1,10.4,0.2,16.1-0.2c5.4-0.3,10.7,0.3,16.1-1c5.8-1.3,11.1-5,16.9-6.3"/>
	<path class="st1" d="M96.3,170.1c-2.3,2.5-4.1,5.4-6.2,8c-2.1,2.7-4.9,5-6.5,8.1"/>
	<path class="st1" d="M149.7,161.1c2.2,3,6,4.3,8.7,6.8c2.9,2.6,6.1,6.3,8,9.7"/>
	<path class="st1" d="M206.9,119.8c3.3-0.6,5-2.9,6.8,1.4c1,2.4,1.4,5.4,1.5,8.1c0.3,5.5-0.6,10.9-1.1,16.4c-0.6,5.5-2,11.2-4,16.4
		c-1,2.8-4.9,14.8-6.4,15.2"/>
	<path class="st1" d="M204.1,149.6c-0.2-6.1,1.7-16.3,5.7-21"/>
	<path class="st1" d="M97.7,202.9c4.8,2.4,8.8,5.3,14.1,6.6c4.7,1,9.3,0.8,14.1,0.4c10.4-1,18.4-3.8,26.4-10.6"/>
	<path class="st1" d="M135,177c4.1,0.2,8.4,1.9,12.4,2.8c4,0.9,8.6,1,12.4,2.4c4.9,1.9,8.6,4.9,11.7,9.2c1.4,1.9,2.8,4.1,3.6,6.3
		c0.4,1,0.6,2.2,0.7,3.3c0.2,1.3,1.9,1.8,2.8,0.8c2.9-3.7,3.8-8.2,5.6-12.6c0.7-1.7,1.7-5.9,4.4-5.4c1.6,0.3,2.4,2.8,3.3,4.7
		c0.5,1,1.9,0.8,2.1-0.3c0.6-3.3,0.8-6.8,1.1-10.2c0.4-4.2,1.6-8.5,1.5-12.6c0-6.5-1.1-12.3-0.1-18.6c1-6.6,0.2-12.3,0.2-18.8
		c0-5.2-0.4-10.5-1-15.7c-0.3-2.7-1-5.7-2.8-7.8c-2.1-2.4-4.5-1.6-5-5.1c-1.7-10.1,1.6-20.3-0.3-30.4c-2.5-12.8-11.2-20.8-21.9-27.7
		c-5.2-3.3-10-7.4-15.5-10.3c-2.5-1.3-5.8-2.3-8.5-2.9c-8.4-2.3-20-2.9-22.5-2.7c-5.2,0.5-10.6,0.8-15.5,2.5
		c-5.6,2-11.6,5.2-16.4,8.7c-5.2,3.8-10.5,8.5-14.7,13.3c-3.7,4.3-7.2,9.6-9.8,14.7c-2.6,5.1-5.2,10.2-7.3,15.5
		c-4,10.2-2.9,20.8-4,31.6c-1.2,11.8,3.4,23.3,3.4,35.1c0,5.9,0,12.3,0.6,18.1c0.5,5.6,0.9,11.6,2.3,16.9c2.3,8.1-1,18.2,3.1,25
		c1.7,2.9,4.7-0.1,7.5,0.6c1.5,0.4,2.6,2,4.1,1.3c1.1-0.5,1.7-2.9,2.1-3.9c1.7-4.6,1.3-12.1,5.4-15.5c3.8-3.2,10.9-1.8,15.5-3.3
		c2.8-1,5.3-1.9,8.1-2.8c2.7-0.9,5.4-4.6,8.1-4.3"/>
	<path class="st1" d="M63,248.8c-0.8-5.6-2.7-9.4-4.6-14.6c-1.7-4.7-2.5-9-2.9-14.4c-0.6-8.6-2.3-16.7-2.3-25.6
		c0-8.3-0.3-16.6-0.7-25c-1.5-30.1-8.9-59.6-0.5-89.4c9-31.7,38.1-58.5,72.3-58.7c3.7,0,8.9,1,12.6,1.9c4.1,1,8.3,2.1,12.1,3.9
		c8.7,4,17.1,8.8,25,14.2c15.7,10.5,25.3,29.4,28.3,47.7c1.6,9.6,4.9,18.5,4.9,28.4"/>
	<path class="st1" d="M65.3,243.7c2.5,2,3.7,14.9,4.3,16.4"/>
	<path class="st1" d="M73.9,258.6c0,4.7,1.5,11.4,3.7,15.5"/>
	<path class="st1" d="M81.3,270.7c-0.2,4.2,1.1,9.5,2.3,13.5c0.6,2,6.1,12.6,8.1,6.9c1.6,1.7,3.8,3.5,6,4.7c1.4,0.8,5.4,2.9,6.7,2.7
		c3.5-0.5,1.1-10.2,1.1-12.8"/>
	<path class="st1" d="M111.2,288.4c2.6,4.1,1.5,8.2,6.3,11.2"/>
	<path class="st1" d="M122.7,292.8c1.2,2.4,0.7,6.8,0.6,9.3"/>
	<path class="st1" d="M85.9,205.7c-0.4,1.9,0.3,4.5,1.7,5.9c1.5,1.5,3.8,1.3,5,2.9c1.5,2.2,1.4,10.4,2.5,12.6"/>
	<path class="st1" d="M115.3,217.5c-0.3,1.7-0.9,3.1-1.4,4.8c-1.1,3-4.5,8.1-4.7,10"/>
	<path class="st1" d="M119.8,220.4c0,1.7,0.1,3.4,0,5c-0.1,1.8-0.6,6.3-0.6,6.4"/>
	<path class="st1" d="M126.8,217.8c0,4.2-0.9,9.2,0.6,13.2"/>
	<path class="st1" d="M132.2,217.5c1.8,3.3,2.5,8.4,3.4,12.1"/>
	<path class="st1" d="M141.1,224.9c2.8,0.3,5.4-2.8,7.8-4c3.1-1.6,5.6-3.1,8.1-5.9c2-2.2,4.2-5.3,5.1-8.2c0.8-2.5,0.6-5.2,1.4-7.8"
		/>
	<path class="st1" d="M207.5,116.4c0,4.2-2.1,4.8-3.9,8.4c-1.3,2.6-2.1,5.8-2.5,8.7c-0.7,5.6-1,11.9-0.6,17.5
		c0.9,12.7,2,25.9,4,38.5c1.2,8.1-0.2,23.6-0.2,23.6c-0.6,7.5-2.5,14.5-2.6,21.9c-0.1,7.5-3,14.6-4.8,21.9c-1,3.9-2.3,7.8-4.1,11.5
		c-2.2,4.5-6.2,7.1-9.3,10.9c-2.9,3.4-5,8.5-9.3,10.4c-1.6,0.8-3.4,0.4-5.1,0.9c-2.1,0.5-3.8,1.6-6.1,2c-2.2,0.4-4.3,0.2-6.3,1
		c-2.2,1-3.7,2.7-6,3.3c-2.9,0.8-3.4,0.3-4.6,3.7c-0.3,0.8-0.6,1.9-1,2.9c-0.4,0.9-1.6,0.6-1.5-0.4c0.4-3.8-0.1-8.2-0.4-11.3
		c-0.1-1-1.2-1.2-1.8-0.5c-2.1,2.9-3.7,7.6-5.3,10.4c-3.8,6.2-4.8,1.4-3.7-2.9c0.4-2.2,0.7-5.4,0.6-7.7"/>
	<path class="st1" d="M190.9,229.9c1.2,4.8-2,10.9-3.7,15.2"/>
	<path class="st1" d="M79.1,233.3c-0.8,4.6,0.2,11.5,1.7,15.8"/>
	<path class="st1" d="M88.6,251.9c1.2,1.6,0.9,5.7,1.1,7.7c0.6,3.5,0.5,8.1,2.3,11.3"/>
	<path class="st1" d="M99.1,253.5c-0.3,6.7-0.2,14.1,1.1,20.7"/>
	<path class="st1" d="M69.8,217.5c-0.3,4.5,0.1,13.3,2.6,16.9"/>
	<path class="st1" d="M103.8,244.2c0.3,5.6,0.6,11.2,0.6,16.9"/>
	<path class="st1" d="M113.6,259.7c0.7,2.2-0.1,5.6,0,7.9c0.1,4.3,0.4,8.6,0.3,12.7"/>
	<path class="st1" d="M124.4,237.6c-0.6,1.9-0.3,4.4-0.4,6.4c-0.2,4.7-1.3,9.7-1,14.4"/>
	<path class="st1" d="M129.6,256.6c-1,2.5-0.6,5.5-0.9,8.1c-0.5,4.3-0.8,8.7-1.7,12.9"/>
	<path class="st1" d="M139.7,261.4c-0.2,5.5-2.5,10.8-2.9,16.4"/>
	<path class="st1" d="M149.1,231.6c0.2,5.2-0.4,11.3-1.4,16.4"/>
	<path class="st1" d="M142.3,237.9c0.2,5.2-2.1,10.2-2,15.2"/>
	<path class="st1" d="M159.8,225.5c0.9,2.4,0.2,5.7,0,8.1c-0.7,6-1.8,11.7-3.1,17.5"/>
	<path class="st1" d="M183.9,207.7c1.2,2.4,0.6,5.7,0.3,8.3c-0.8,8.9-3.5,17-5.8,25.7"/>
	<path class="st1" d="M194.3,205.4c1.6,4.9-1.1,12.8-2.6,17.5"/>
	<path class="st1" d="M172.4,227.3c-0.1,4.2-1,9.1-2.9,12.9"/>
	<path class="st1" d="M161.2,257.7c0.7,1.5,0.4,5.1,0.2,6.2c-1,6.8-4,12.8-7,18.8"/>
	<path class="st1" d="M151.2,264.6c1.5,4.3-1,10.8-2.9,14.6"/>
	<path class="st1" d="M171.6,254.9c0.5,7.1-3.3,14.3-4,21.3"/>
	<path class="st1" d="M187.6,252.5c0.9,2.2,0.2,4.8-0.3,7c-0.7,2.9-1,6.8-2.3,9.3"/>
	<path class="st1" d="M179.1,265.7c0.1,6.6-2.9,11.8-7.2,16.6"/>
	<path class="st1" d="M88.3,236.2c1.8,2.7,0.6,8.7,0.6,11.8"/>
	<path class="st1" d="M201.4,238.7c7.3,4.8,9,10.3,10.1,18.5c0.6,4.7,0.3,9.2,1.2,13.8c0.7,3.6,1.5,7.3,1.7,11
		c0.5,8.7-0.5,17.4,0.3,26c0.6,6.2,0.5,21.4,0.4,29.1c0,2.3-2.9,3.2-4.3,1.3c-4.5-6.3-10.5-19.1-17.6-19.8
		c-9.5-1-29.7,24.4-29.7,24.4"/>
	<path class="st1" d="M194.6,263.7c0.4,5.2-1.6,14.6-4.2,19.1c-3.3,5.8-6.5,11.8-10.1,17.4c-3.1,4.9-4.9,10.5-8.7,14.9
		c-3.1,3.7-19.1,23.4-21.5,28"/>
	<path class="st1" d="M92.8,292.2c5.9,6,12.5,13.9,16.2,21.5c1.5,3.1,8.5,17.4,8.5,28.3"/>
	<path class="st1" d="M67.5,252.5c-8.5,0.9-10.8,12.5-11,17.6c-0.3,6.7-0.8,13.3-0.7,20c0.1,6.8-4.2,49.3,2.2,51.9
		c5.2,2.1,23-31,30.6-29.5c5.8,1.2,17.8,11.6,25.8,29.5"/>
	<path class="st1" d="M211.8,256.9c2.4-0.2,6.8,2.2,9.2,3.1c2.9,1.1,5.4,2.8,8.2,4c3.5,1.5,12.8,3,17,4.9"/>
	<path class="st1" d="M58.4,260c-4.8-1.4-14.2,4.2-18.4,6.3c-5.9,2.9-12,5.7-18.2,7.7c-4,1.2-8.4-0.3-12.5,2.2"/>
	<path class="st1" d="M94,199.4c4.7-0.2,11.5-2.1,16.2-3.2c5.2-1.3,9.8,0.9,14.9-0.2c5.2-1,9.9-1,15.2-1c4.8,0,13.6-1.6,18.3-1.1"/>
</g>
</svg>
