<?xml version="1.0" encoding="utf-8"?>
<!-- Generator: Adobe Illustrator 22.0.1, SVG Export Plug-In . SVG Version: 6.00 Build 0)  -->
<svg version="1.1" xmlns="http://www.w3.org/2000/svg" xmlns:xlink="http://www.w3.org/1999/xlink" x="0px" y="0px"
	 viewBox="0 0 260 344" style="enable-background:new 0 0 260 344;" xml:space="preserve">
<style type="text/css">
	.st0{opacity:0;}
	.st1{fill:none;stroke:#000000;stroke-width:2;stroke-miterlimit:10;}
</style>
<g id="Layer_3">
	<rect class="st0" width="260" height="344"/>
</g>
<g id="Layer_2">
	<path class="st1" d="M69.4,70c-0.9,2.2-3.8,4.4-5.3,6.7c-1.4,2.2-2.6,4.3-3.7,6.7c-2,4.4-3.7,9.1-5,13.7c-1.3,4.5-2.2,9-2.2,13.7
		c0,5.6-1.6,9.1-3.9,14.1c-1.5,3.3,1.8,6.4,3.2,9.5c1.3,3,2,5.8,2.1,9.2c0.2,6.2-1.8,12.3-2.9,18.3c-1.2,6.2-1.4,12.3-1.3,18.7
		c0.1,5.6,2.2,12.9,0.4,18.3c-2.4,7.1,0.9,15,3,22.2c2.3,7.8,6.2,14.8,7.5,22.9c1,6.2,4.3,9,10.2,12c4.3,2.1,9.1,2.7,13.7,3.2
		c4.6,0.5,9.2-0.6,13.7-1.2c5-0.7,9.4-2.9,14.1-3.8"/>
	<path class="st1" d="M79.2,134.7c3.7,3.9-0.9,13.7-2.9,17.7c-3.1,6-10.9,10.8-11.4,17.8c-0.7,9.4,8.8,10.7,13.1,12.8"/>
	<path class="st1" d="M76.7,179.5c3.9-1.6,10.6-2.8,12.9,1.7"/>
	<path class="st1" d="M88.6,184.1c3.9,2,8.1,2.5,10.5-2.3c0.9-1.7,1-3.4,0.5-5.2c-0.3-1.1-2.1-4.8-2.1-4.8"/>
	<path class="st1" d="M67.8,182.8c-3.4-0.1-3.1-5-2.1-7.1"/>
	<path class="st1" d="M112.8,194c0.3,0.2,0.6,0.4,0.8,0.6"/>
	<path class="st1" d="M73.2,187.4c0.4,2-0.8,5.4-1.7,7.1"/>
	<path class="st1" d="M64.5,210.3c0.6,2.5,7,3.3,9.2,3.5c3.3,0.4,6.7,0.1,10,0.2c6.5,0.3,11.1-2.2,17.5-3.5
		c-3.2,0.3-6.5-0.8-9.6-1.7c-3.2-0.9-6-1.2-9.4-1.2c-1.5,0-3.2,0.1-4.6-0.4c-1.7-0.6-2.7-1.9-4.8-1.4c-1.9,0.5-2.8,2.1-4.8,2.4
		c-1.4,0.2-4.4-0.4-4.8-2.1c1.9-3.4,4.7-10,9.6-7.4c2.5,1.3,2.6,3.3,5.7,1.6c2.2-1.2,3.4-2.6,6-1.3c4.2,2.1,7.3,6.8,11.4,9.2
		c1.8,1,3.8,1.6,5.8,1.9c1.2,0.2,5.4,0.5,5.6,0.4"/>
	<path class="st1" d="M70.9,228.6c4.1,0.5,8.2-2.1,12.3,0.2"/>
	<path class="st1" d="M50.7,130.1c3.7-1.1,8.6-2.1,12.5-1.4c2.3,0.4,11,3.4,12.5,1.6c-1.6-2.1-3.7-4.5-6-5.8c-1.9-1.1-4.4-1-6.5-1.5
		c-2.1-0.6-4.2-1.8-6.5-2.1c-2-0.3-4.6,0.7-6.4,1.5"/>
	<path class="st1" d="M150.2,139.3c-0.4-1.1-5.4-3.7-7.2-5.4c-2.3-2.1-4.3-3.7-7.2-5c-3.9-1.8-8.1-4.6-12.5-5
		c-4.2-0.4-9,1.3-13.2,1.7c-4.5,0.5-8.6-1.4-13-1.2c-1.8,0.1-5.3,1.2-5.4,3.1c-0.1,1.6-1.1,6.5,14.9,4.6c3.7-0.4,7.3-0.5,10.9-0.8
		c7.7-0.7,15.1,2.1,21.9,5.6C140.8,137.5,152.1,143.9,150.2,139.3z"/>
	<path class="st1" d="M108.8,145.8c3.8,4.3,7.7,6.1,13.5,5c2.3-0.4,4.6-0.7,6.9-1.2c1.5-0.3,6.9-1.8,7.3-2.3
		c-4.4-3.6-10.2-6-15.6-7.6c-5.9-1.8-11.5,0.6-15.2,5.5"/>
	<path class="st1" d="M59.7,135.9c-2,0.8-3.4,7.4-0.4,8.7c3.5,1.6,6.2,1.2,9.7,0.9c2.3-0.2,8.4-2.2,9.4-3.3c0.3,0.1,0.5,0.1,0.7-0.1
		c-3.1-2.6-7.8-5.5-11.7-6.6c-4.8-1.4-8,0.1-11.9,2.9"/>
	<path class="st1" d="M65.1,135.1c-6.4,1-3.6,10.5,0.2,10.6c2.2,0.1,4.4-1.2,5.3-3.1c0.5-0.9,1.8-5.2-0.6-6.2"/>
	<path class="st1" d="M116.1,139c-4.4,1.8-3.5,8.6,0.8,9.2c4,0.6,8.8-2.4,6.6-7.8"/>
	<path class="st1" d="M106.1,135.6c3.6-1.2,9.8-0.4,13.5,0.2c4.6,0.8,10,2.7,13.5,5.8"/>
	<path class="st1" d="M55.5,133.3c6.4-3.5,12.8-2.2,19.2,0.6"/>
	<path class="st1" d="M99.9,261.6c16.6-2.4,26.2-5.5,39.3-11.2c6.9-3,12-4.6,18-9.1c3-2.2,5.6-4.6,8.4-7c2.1-1.8,4.2-3.2,6.1-5.2
		c1.7-1.7,5-3.6,5.3-6.2"/>
	<path class="st1" d="M197.5,152.8c2.7-1.3,4.5-3.9,7.7-4.4c2.2-0.3,5.1,0,7.1,0.9c5.3,2.3,7.5,8.8,7.5,14.1c0,5.9-2,11.2-4.5,16.4
		c-1.5,3.3-2.8,6.2-5.3,8.9c-2.3,2.4-4.8,4.7-7.3,6.9c-4,3.7-13.5,10.9-18.7,5"/>
	<path class="st1" d="M186.2,187.4c1.3-2.9,4.9-3.7,6.2-6.5c1.1-2.2,0.1-4.2-0.4-6.4c-0.7-2.8,0.7-3.8,1.7-6.3
		c1.1-2.5,1.3-4.5,3.5-6.5c2.9-2.6,9.1-10,13.5-8.1c5.7,2.3,1.8,12.3,0.8,15.8"/>
	<path class="st1" d="M197.9,168c4.6-0.6,5.7,7.7,5.2,10.6"/>
	<path class="st1" d="M195,202c0.6,1.4-0.5,3.3-0.8,4.7c-0.7,2.8-1.1,5.7-1.5,8.5c-0.6,4.9-1,9.9-1,14.9c0,5.5-0.1,10.9,0.2,16.3
		c0.2,2.7-0.1,6.9,1.2,9.3"/>
	<path class="st1" d="M176.5,163c-0.1,2.4-1.7,4.7-1.7,7.1"/>
	<path class="st1" d="M178.7,173.4c0.4-2.5,1.1-5,1-7.5c-0.1-2.8,1.7-3.3,3.6-5.4c1.9-2.1,3.7-3.7,6-5.2"/>
	<path class="st1" d="M185.4,122.6c2,3.3,0.9,7.3,2.3,10.6"/>
	<path class="st1" d="M201.2,108.1c1.4,4,0,8.2,0.2,12.3"/>
	<path class="st1" d="M195.6,104.5c0.2,1.4,0.4,2.8,0.5,4.2c0.1,2.4-0.7,5.1-0.3,7.5"/>
	<path class="st1" d="M188.5,99.7c1.5,3,0.9,8.2,0.8,11.4"/>
	<path class="st1" d="M218.9,108.7c1.1,2.3,1.1,4.9,1.6,7.3c0.3,1.7,1.7,4.3,1.4,5.8"/>
	<path class="st1" d="M213.1,112c-1,4.2-0.6,8.3-0.6,12.5"/>
	<path class="st1" d="M208.1,116.4c0.8,2.1-2.2,7.9-0.2,9.2"/>
	<path class="st1" d="M220.2,135.6c0.4,3.7,0.9,7.5,1.2,11.2"/>
	<path class="st1" d="M222.7,149.1c1.7,2.9,0.4,8.4,0.2,11.7"/>
	<path class="st1" d="M71.9,73.3c-0.3-5.3,5.2-11.9,8.7-15.4"/>
	<path class="st1" d="M69,67.3c1.3-2.8,5.4-10.6,7.5-11"/>
	<path class="st1" d="M68.2,58.1c0.8-2.5,5.3-6.3,7.7-6.9"/>
	<path class="st1" d="M78.6,72.3c-0.5-2.4,6-11.8,6.9-11.4"/>
	<path class="st1" d="M83,72.9c2.5-4.5,6.5-10,10.8-12.9"/>
	<path class="st1" d="M92.8,68.3c0.8-1.8,3.2-3.3,4.5-4.6c2.1-2,5.1-5,8-5.8"/>
	<path class="st1" d="M104.8,65c3.6-1.9,6-6,9.4-8.3"/>
	<path class="st1" d="M114.6,63.9c6.5,0.6,12.2-4.1,17.7-6.7"/>
	<path class="st1" d="M129.8,64.4c2.3-0.8,4.5-1.9,6.7-3.1c3.5-1.8,7.4-2.7,10.8-4.4"/>
	<path class="st1" d="M142.9,64.6c6.6-1.3,12.6-4.8,19.6-2.1"/>
	<path class="st1" d="M155.8,67.3c2.9,0.2,5.9-0.6,8.8-1.1c3-0.5,9-2.7,11.8-0.4"/>
	<path class="st1" d="M165.2,73.5c4.4,0,8,0.3,12.3,1.7"/>
	<path class="st1" d="M167.1,80.4c2.8,1.4,7.6,2.1,9.2,5"/>
	<path class="st1" d="M170.2,84.8c2.4,6.7-5,30.1-5,37.1c16.3,12.5,8.3,31.1,6.7,43.9"/>
	<path class="st1" d="M72.8,46.9c-0.1-0.5,6.5-3.7,7.7-4.7c4.6-3.7,10.2-6.7,16.2-7.1c3.7-3.7,5.3-7.9,10.6-8.1c2.3-0.1,4,0,6-1.2
		c1.6-1,3.3-2.4,5.1-3c2-0.7,3-0.1,4.9,0.5c2.8,1,5.6,0.4,8.6,0.6c4.1,0.2,6.6,2.5,10.3,3.7c3.8,1.3,8,2,12,2.5"/>
	<path class="st1" d="M153.1,26.9c1.9,1.6,4,3.1,6.4,3.8c3.2,0.9,6.6,0.2,9.7,1.6c2.5,1.1,5.2,1.8,7.7,2.9c3.8,1.7,6.4,6.1,9.6,8.7"
		/>
	<path class="st1" d="M204.7,59.9c1.8-3.9,5.7-6,9.8-7.3"/>
	<path class="st1" d="M192.1,45.6c0.9,1.6,2.8,2,4.3,2.9c1.7,1.1,3,2.2,4.2,3.9c1.3,1.9,2,4.7,3.5,6.3c2.1,2.3,5.1,2.1,6.7,5.1
		c1,1.8,1.2,3.8,2.4,5.6c1.1,1.7,5.2,4.2,5.2,5.7"/>
	<path class="st1" d="M222.3,76.6c3.4,4.2,6,7.2,7.3,12.7c1.1,4.6,2,9.2,2.6,13.9c1.3,9.7,2.4,19.4,0.2,29
		c-0.9,3.9-1.8,9.5-2.7,13.5c-1.1,4.7-2.5,9.4-3.6,14c-0.8,3.1-1.3,6.5-3.4,9c-2,2.5-5.1,5.4-6.6,9.3"/>
	<path class="st1" d="M200,198c-0.1,2.5-2.2,6.1-2.1,8.8c0.2,5.7-4,13-6.1,18.4"/>
	<path class="st1" d="M80,258.5c0.3,2.4,0.4,5.4,0.6,7.4c0.3,2.8,0.8,5.4,0.6,8.3c-0.2,3.6-0.3,7.4-0.6,11"/>
	<path class="st1" d="M132.5,329.2c5-3.4,9.3-8.4,14.1-12.3c2.8-2.2,6.2-4.2,8.4-7.1c2.5-3.3,4.5-7.1,7-10.4
		c3.9-5.2,8.5-9.6,12.3-14.8c1.2-1.7,2.1-3.6,3-5.5c1.1-2.5,2.4-5,3.8-7.3c6-9.6,17.6-18.5,31.2-18.7c2.9-0.1,5.9,1.5,8.5,2.5
		c4.5,1.8,9.4,2.4,13.9,4.5c4.5,2.2,7.5,7,11.1,10.4"/>
	<path class="st1" d="M71.5,256c-2.3,0.7-5.5,1-7.9,1.8c-3.8,1.2-7.2,2.7-10.7,4.7c-3.4,2-6.8,3.8-10.2,5.8
		c-3.9,2.2-7.7,5.8-11.9,7.4"/>
	<path class="st1" d="M80,258.5c-3,1.4-7,7.1-8.4,9.9c-1.5,2.9-1.9,6-3.2,9.1c-3.6,8.9,10.1,8.7,15.7,8.4c5.9-0.3,12.1-0.1,18,0.4
		c5.8,0.4,11.6,0.2,17.4,1.1c6.3,0.9,11.8-1.3,17.6-3.4c6.5-2.3,13.6-2.5,20.1-5c6.3-2.4,10.5-7.8,16.6-10.4c4-1.7,8-3.5,11.2-6.6
		c2.7-2.6,4.6-4.2,7.7-6.4c2.1-1.5,6-6.6,6,0.1"/>
	<path class="st1" d="M50.2,264c-1.8-1.8-6.8-2.8-9.2-2.2c-4.2,1.1-8,3.5-12.2,4.8c-4.2,1.3-8.8,2.3-13.1,3.1
		c-2,0.3-2.8,0.8-4.8,1.1"/>
	<path class="st1" d="M9.3,288c5.2-0.8,6.9-4.4,12-6.2c3.8-1.3,7.8-2.2,11.6-3.7c4.1-1.5,7.9-3.5,12.1-4.5c5.9-1.4,11.3-2.2,17-4.3
		c3.7-1.4,8-1.6,11.8-4.4"/>
	<path class="st1" d="M67.9,280.1c0,6.6-1.2,14.2,2.2,20c1.4,2.4,3.1,5.2,5.6,6.3c4.8,2.2,10.8,0.7,15.8,0.5
		c11.8-0.6,23.9,1.5,35.6-0.3c8.1-1.3,16.3-3.5,23.8-6.9c4.4-2,9.6-3.5,14.4-4.5"/>
	<path class="st1" d="M69.7,273.6c-2.1,0.9-3.5,2.7-5,4.3c-4,4.1-8.3,7.8-12.4,11.9c-3.4,3.3-5.8,7.4-8.9,10.8
		c-3.1,3.4-6.5,6.6-9.8,9.9c-5.3,5.5-10.3,10.1-16.6,14.4c-4.6,3.1-3.3,2.2-7.6,5.8"/>
	<path class="st1" d="M37.8,281.5c-1.5,2.1-2.2,4.8-3.4,7.1c-2,3.8-4.8,8-7.6,11.3c-3.7,4.3-8,8.2-11.9,12.4
		c-2.1,2.3-3.5,4.4-5.8,6.6"/>
	<path class="st1" d="M109.2,341.6c4.6-2.3,17.2-7.2,22-9c5.1-2,9.8-5,14.9-7.2c5-2.2,9.9-2.7,15.2-2.7c5.1,0,10.6-1.1,15.5-2.5
		c4-1.2,8.3-1.7,12.5-2c3.2-0.3,6.4-1.2,9.6-1.3c3.2-0.1,12.2,1.2,15.3,1.6"/>
	<path class="st1" d="M176.7,280.1c0.9-3,5.4-4.5,8.2-5.3c3.8-1,6.4,0.2,10.2,0.8c7.7,1.4,17.7-2.2,23.4,4.9c3.4,4.2,6.6,6.7,11.6,9
		c4.2,2,7.8,5,12.3,6.6"/>
	<path class="st1" d="M18,341.7c0.8-4.9,2.4-6.5,4.4-10.6c2.6-5.3,5.9-11.2,9.2-16.1c1.9-2.8,3.5-5.7,5.7-8.3c1.7-2,5.2-4.9,6.7-7"
		/>
	<path class="st1" d="M114,314.6c-3.2,3.6-5.2,9.3-7.5,13.6c-3.9,7.1-3.6,7-8.5,13.4"/>
	<path class="st1" d="M252.4,305.6c-2.8,0.3-5.5,0.7-8.3,0.8c-3,0-5.6,1.2-8.5,1.8c-7.3,1.4-14.4,2.4-19.5,8.3
		c-1.5,1.8-3.2,3.2-4.1,5.3c-1.1,2.4-3,6.5-2.3,9c0.6,2.3,0.6,5.7,1,8.1"/>
	<path class="st1" d="M193.5,332.2c-2.8,2.7-2,4.8,1.9,4.4c2.4-0.2,5.8-1,7.1-3.3C204.2,330.3,195.2,330.6,193.5,332.2z"/>
	<path class="st1" d="M139.7,323.1c2.9-2.8,7.9-3.8,10.1-4.4c3.3-0.9,6.4-1.6,9.8-1.9c7.4-0.7,14.9-1.8,22.3-3.1
		c9-1.5,18.5-3.5,27.6-4c2.7-0.1,5.3-0.1,7.9,0c1.3,0.1,5.6,0.3,7.5,0.9"/>
	<path class="st1" d="M175.6,207.8c0.2,0.5,0.3,1.1,0.2,1.7"/>
	<path class="st1" d="M154,226.9c0.2,0.5,0.3,1.1,0.2,1.7"/>
</g>
</svg>
