<?xml version="1.0" encoding="utf-8"?>
<!-- Generator: Adobe Illustrator 21.1.0, SVG Export Plug-In . SVG Version: 6.00 Build 0)  -->
<svg version="1.1" id="Layer_1" xmlns="http://www.w3.org/2000/svg" xmlns:xlink="http://www.w3.org/1999/xlink" x="0px" y="0px"
	 viewBox="0 0 260 344" style="enable-background:new 0 0 260 344;" xml:space="preserve">
<style type="text/css">
	.st0{opacity:0;}
	.st1{fill:#FFFFFF;}
	.st2{fill:none;stroke:#000000;stroke-width:2.0068;}
</style>
<g id="speakers" transform="translate(-1008.000000, -1318.000000)">
	<g id="vouchanka" transform="translate(133.000000, 234.000000)">
		<g transform="translate(876.000000, 1064.000000)">
			<g id="bg" class="st0">
				<rect id="Rectangle-path" x="-1" y="20" class="st1" width="260" height="344"/>
			</g>
			<g id="Layer_7" transform="translate(0.000000, 20.939130)">
				<path id="Shape" class="st2" d="M174.4,78.2c6.5,5.9,13.3,15.6,14.9,24.3c2.4,13.5,5.3,27.4,7.2,40.9c0.7,5,2.2,9.5,2.2,14.8"/>
				<path id="Shape_1_" class="st2" d="M180.9,56.1c-2.3-5.5-10.4-10.1-14.9-13.7c-8.6-6.9-16.2-11.5-27.4-13.7"/>
				<path id="Shape_2_" class="st2" d="M149.2,45.8c-5.7-1.2-10.8-9.7-16-12.8c-10.5-6.2-20.7-4-31.9-1.3"/>
				<path id="Shape_3_" class="st2" d="M180.6,68.8c-4.1-4.1-11.4-5.8-16.2-9.2c-6.9-4.9-14.4-6.3-22.1-9.5"/>
				<path id="Shape_4_" class="st2" d="M175,72.3c-7.2,0-13.7,0.2-20.9,1.1c-6.1,0.8-12.2,1.5-18.2,2.9c-9.2,2-17.5,6.6-26.6,8.8"/>
				<path id="Shape_5_" class="st2" d="M144.8,58.9c-2.5-0.3-5.4,1.3-7.8,1.9c-4.9,1.2-9.8,2.6-14.4,4.4
					c-12.6,4.7-22.5,14.5-36,17.7"/>
				<path id="Shape_6_" class="st2" d="M134.2,70.7c-5.4,4-11.7,6.3-17.3,9.9c-6.5,4.1-13.8,8.3-21.3,10.3
					c-10.3,2.6-27,3.7-35.5-4.2"/>
				<path id="Shape_7_" class="st2" d="M198.7,157.5c0.4-2,2.2-6.9,2.8-8.9c1.3-4.2,2.1-8.4,3.1-12.6c1.2-5.3,3.2-10.3,3.5-15.7
					c0.3-6.4,0.7-12.9,0.6-19.4c-0.1-9-0.2-18.2-1.1-27.1c-0.4-3.9,0-7.4-1.1-11.2c-1.1-3.6-1.6-7.1-4-9.9c-4.6-5.3-11.6-5-18-2.2
					c-2.4-6.5-8.7-12.5-13.9-16.8c-6.9-5.8-15.2-11.6-23.8-14.2c-4.9-1.5-10.4-1.9-15.4-3.1c-4.5-1.1-8.8-2-13.4-1.9
					c-8.3,0.1-17.3,5.2-24.3,9.4c-6.1,3.6-11.6,9-15.9,14.6C71.9,46.1,65.7,53.8,60.6,62c-3,4.8-6.5,10.1-7.6,15.7
					c-1.2,6.4-1.3,13.5-0.7,19.9c0.8,8.7,0.6,18,0.6,26.8c0,5.3-0.8,9.9,0.3,14.9"/>
				<path id="Shape_8_" class="st2" d="M195,63.8c7.3,5.7,8.6,19.6,6.5,27.7"/>
				<path id="Shape_9_" class="st2" d="M83.3,92.7c-2.8,1.7-7.7,4.4-10.5,6.3c-5.3,3.6-5.8,7.4-6.9,13.7c-1.1,6.4-0.8,13-0.8,19.5
					c0,6.8-0.8,13.4-1.3,20.1c-0.3,4.6,1.2,10.1,0.1,14.3c-2-5.1-3.7-10.5-5.9-15.6c-1.6-3.7-4.3-8.1-5.1-11.9"/>
				<path id="Shape_10_" class="st2" d="M128.3,44.2c-2.2,0.9-5.4,0.4-7.9,0.9c-5.3,1.1-9.3,4.5-14.2,5.9"/>
				<path id="Shape_11_" class="st2" d="M114.9,39.6c-2.3,0.2-4.9-0.5-7.2-0.8c-6.3-0.8-12.2-0.6-18.4,1.4"/>
				<path id="Shape_12_" class="st2" d="M97.8,45.5c-10.1,2.6-21.8,9.7-29,17.1"/>
				<path id="Shape_13_" class="st2" d="M53.6,139.8c-3-1.4-5.9-3.2-8.7-0.5c-2.6,2.5-2.5,8.1-2.2,11.5c0.6,5.4,4.3,10.7,6.6,15.4
					c2.1,4.3,4,8.7,6.5,12.7c2.4,3.7,9.4,9.6,13.6,7.2"/>
				<path id="Shape_14_" class="st2" d="M64.2,164.3c0.5,6.9,4.5,16.4,6.1,23.2c1.8,7.4,4.2,12.5,8.5,18.6
					c4.3,6.2,8.1,11.8,13.4,16.9c3.7,3.5,7.6,7.8,10.9,11.7c3.9,4.6,5.6,7.4,11.4,9.6c5,1.9,11.2,2.3,16.6,2.2
					c6.2-0.1,13.7-0.9,19.2-4c8.5-4.9,13.3-11.4,18.9-19.1c5.4-7.3,11.2-13.1,14.7-21.6c2-4.9,8-18.3,9.7-24.8
					c5,2.2,6.6,4.1,10.8,0.1c4.3-4,6-9.6,7.7-15.1c2.3-7.1,5.5-14.4,6.3-21.8c0.5-4.6-1.1-9.5-5.9-10.5c-3.9-0.8-4.5,1.4-7.2,3.1"/>
				<path id="Shape_15_" class="st2" d="M135.4,140.8c-0.6,0.3-1.3-0.2-1.1-0.9c2.7-11.2,18.3-9.9,27.1-9.4c4.3,0.2,10.7-0.8,14.6,1
					c2.2,1,5.3,3.8,6,6.5c0.3,0.9-0.4,1.9-1.4,1.8c-7-0.2-13.6-3.7-21-3.7c-5.1,0-10.2,0-15.1,1.9
					C142.1,138.9,137.9,139.6,135.4,140.8z"/>
				<path id="Shape_16_" class="st2" d="M116.5,139.2c-1.7,4.7-11.9-0.9-15.6-1.3c-4.2-0.4-11.7,0.6-15.9,1.6
					c-3.9,0.9-8.5,4.9-12.6,4.3c-0.6-0.1-1.1-0.6-1.2-1.2c-0.1-0.8-0.3-1.7,0.1-2.1c0.2-0.2,1.7-2,2.8-2.9c1.6-1.3,3.4-2,5.2-2.7
					c2.9-1.1,5.9-1.7,8.9-2.4c5.7-1.3,13.2-0.8,18.6,0.7c4.4,1.3,9.7,3.8,11.2,8.5c2.1,6.4,0.9,15.3,0.9,22c0,3.6-0.1,7.1-0.6,10.5"
					/>
				<path id="Shape_17_" class="st2" d="M175,148.2c0.8,0.6,0.7,1.7-0.1,2.2c-3.2,2-11.9,2.3-14.8,2.6c-3.9,0.3-6.3,0.2-10.1-0.4
					c-2-0.4-6.5-0.3-8.9-1c-0.9-0.2-1.2-1.3-0.6-2c4-5.2,6.1-7.5,12.8-7.5C156.9,142,170.8,145.2,175,148.2z"/>
				<path id="Shape_18_" class="st2" d="M111.3,151.4c0.1,0.8-0.4,1.6-1.2,1.8c-1.5,0.4-3.3,0.5-4.2,0.5c-3.2,0.2-6.3,0.5-9.5,0.5
					c-3,0-16.7,0.7-16-4c6-2.7,18.4-7.3,24.9-6.3C110.2,144.6,110.9,148.3,111.3,151.4z"/>
				<path id="Shape_19_" class="st2" d="M181.8,182.5c-11.8,10.3-15.1,24.5-21,38.5c-1.8,4.2-4.2,9.6-5.4,13.2"/>
				<path id="Shape_20_" class="st2" d="M80,185.4c4.4,4.6,11.6,15.1,14.1,20.8c2.3,5.3,7.2,11.9,6.7,18.2"/>
				<path id="Shape_21_" class="st2" d="M105.3,207.4c5.2,6.2,13.7-0.9,19.6-0.6c3.4,0.2,5.7,1.5,9.1,0.7c3.1-0.7,5.9-1.2,9.3-0.7
					c3.8,0.6,8.7,2,12.1-0.3"/>
				<path id="Shape_22_" class="st2" d="M113.7,215.5c3.9,5.3,15.7,6.2,21.5,5c3-0.6,12.4-3.3,13.1-6.3"/>
				<path id="Shape_23_" class="st2" d="M118.7,212.1c3.3,0.8,8.4-0.5,12.1-0.2c3.5,0.3,8.4,1.1,11.2-1.4"/>
				<path id="Shape_24_" class="st2" d="M122.4,226.4c4.2-1.1,8.8-0.9,13.4-0.9"/>
				<path id="Shape_25_" class="st2" d="M85,214.9c-0.1,5.3,2.4,11.5,3.1,16.8c1,6.8,1.5,13.6,2.2,20.4c0.5,5.5,2,10.9,2.5,16.4
					c0.3,3,0.5,5.2,0.9,11.5"/>
				<path id="Shape_26_" class="st2" d="M185.3,198.9c-3,13.6-3.7,25.7-2.2,39.6c0.6,5.1,1.7,10.1,2.4,15.1c0.5,3.5,1.1,8,1.8,16.9"
					/>
				<path id="Shape_27_" class="st2" d="M156,142.3c-7.3,1.6-2.5,11.8,4.8,9.9c3.9-1,4.9-7.8-0.4-9.1"/>
				<path id="Shape_28_" class="st2" d="M94.8,145c-5.4,3.7-2.2,9.1,3.9,8.9c6.7-0.2,5.4-10.1-0.1-9.7"/>
				<path id="Shape_29_" class="st2" d="M53,147.3c-1.1-1.2-3.6-3.8-5.6-2.8c-2.1,1-1.2,4.9-0.9,6.7c1,5.5,5.2,11.1,7.7,16"/>
				<path id="Shape_30_" class="st2" d="M202.1,173.5c1.8-3.5-0.1-6.5-1.4-7.9c-0.5-0.5-0.7-1.2-0.5-1.9c1.3-4.3,5.1-15.2,6.6-17.5
					c1.3-2,1.5-5.1,2.9-7c2.9-4,6.5-0.7,3.6,6.6"/>
				<path id="Shape_31_" class="st2" d="M57,171.6c2,2.2,4.2,3.2,7.2,4"/>
				<path id="Shape_32_" class="st2" d="M135.2,166.9c0.6,3.6,3.3,9.8,5.6,12.5"/>
				<path id="Shape_33_" class="st2" d="M86.3,222c-1.3,0.4-2.9,0.4-4.3,1.5c-2.3,1.9-4.4,6.5-5.7,9c-3.1,5.9-5.4,12.6-7.4,19
					c-2.5,7.9-3.7,16.1-6.2,24c-2.5,7.8-4.3,16-4.6,24.2c-0.2,6.2-1.8,11.9-3.7,17.7c-1,3.1-2.4,6.4,2,6.4
					c7.5,0,15.1-10.6,20.5-15.3c3.4-3,7.2-5.5,11.1-7.7c2.1-1.2,6.7-3.3,8.4-4.1"/>
				<path id="Shape_34_" class="st2" d="M182.8,227.9c2,2.4,4.5,4.2,6.2,6.9c2.1,3.3,3.7,6.8,5.6,10.3c4.9,8.8,8.5,19.8,11.9,29.3
					c3.4,9.4,5,20.2,7.4,28.9c1.3,4.7,1.3,15.1,2.3,19.8c0.3,1.3-1.3,2.2-2.3,1.3c-4.2-3.8-5-9.9-7.6-14.2c-2.3-3.9-8.1-10.8-12-13
					c-6.2-3.7-6.3,30.3-6.3,40"/>
				<path id="Shape_35_" class="st2" d="M93.8,279.9c0.3,3.6,1.3,10.9,2.4,14.3c1.8,5.9,3.2,12.1,4.7,18.1c1.8,7.2-2.6,18-5.6,24.8"
					/>
				<path id="Shape_36_" class="st2" d="M187.2,270.6c0.9,9.4-0.7,9.6-0.7,16.5c0,6.2,2.8,19.6,2.1,27.4"/>
				<path id="Shape_37_" class="st2" d="M193.7,243.2c5.7,2.7,11.6,6,17.4,8.8c4.6,2.2,8.3,4,13.1,5.6c3.9,1.3,7.7,3.3,11.6,4.9
					c7.2,3,15.8,4.7,22.5,8.6"/>
				<path id="Shape_38_" class="st2" d="M96.2,296.8c0,7.7-4.8,17.1-8,24c-4.3,9-5.3,10.8-8.7,16.4"/>
				<path id="Shape_39_" class="st2" d="M91,326.7c-4,0-0.5,7.4,2.3,3.9c1.9-2.3-1.1-3.8-3-3.9"/>
				<path id="Shape_40_" class="st2" d="M93.8,279.9c2.5,2.3,3.5,5.7,6.2,8c3.3,2.8,6.7,5.9,10.3,8.2c6.8,4.5,16.6,7.7,24.8,8.3
					c15.1,1.2,27-6.6,38.9-14.9c6.7-4.7,10.2-10,13.4-17.5"/>
				<path id="Shape_41_" class="st2" d="M154.8,256c-0.9,6.6-2.3,13.1-3.8,19.6c-0.9,3.7-1.7,8.6-3.9,11.9c-2.6,3.8-5.8,3.4-10,3.4"
					/>
				<path id="Shape_42_" class="st2" d="M71.6,242c-5.7-0.2-11.6,1.6-17.3,2.1c-9.3,0.8-18.5,0.9-27.6,3.3c-7.9,2.1-20,5.1-27.6,8.2
					"/>
				<path id="Shape_43_" class="st2" d="M9.7,293.6c1.1,7.3,1.5,14.8,2.7,22.2c1.5,9.4,2.8,11.8,3.5,21.3"/>
				<path id="Shape_44_" class="st2" d="M43.3,274.3c0.1,6.2-1.8,11.9-3.4,17.8c-2,7.2-3.7,14.4-6.2,21.5c-1.9,5.4-6.6,18-8.3,23.4"
					/>
				<path id="Shape_45_" class="st2" d="M232.3,297.1c0,18.7,0.1,21.4,1.4,40"/>
				<path id="Shape_46_" class="st2" d="M112.4,324.2c25.4,0,56.5-0.3,71-24.6"/>
				<path id="Shape_47_" class="st2" d="M118.4,174.2c-0.9,4.6-5.4,7.5-5.9,12c-0.3,3.1-0.1,7.2,4.9,9.6"/>
				<path id="Shape_48_" class="st2" d="M118.4,191c4.7,0.1,7.2,6.4,11.4,6.5c4.2,0,5.5-6,10.4-6"/>
				<path id="Shape_49_" class="st2" d="M139.9,178.2c2.3,3,4.8,5.1,5.2,9c0.4,3.7-1.7,6-4.3,7.1"/>
			</g>
		</g>
	</g>
</g>
</svg>
