<?xml version="1.0" encoding="utf-8"?>
<!-- Generator: Adobe Illustrator 21.1.0, SVG Export Plug-In . SVG Version: 6.00 Build 0)  -->
<svg version="1.1" id="Layer_1" xmlns="http://www.w3.org/2000/svg" xmlns:xlink="http://www.w3.org/1999/xlink" x="0px" y="0px"
	 viewBox="0 0 260 344" style="enable-background:new 0 0 260 344;" xml:space="preserve">
<style type="text/css">
	.st0{opacity:0;}
	.st1{fill:#FFFFFF;}
	.st2{fill:none;stroke:#000000;stroke-width:2;}
</style>
<title>anna</title>
<desc>Created with Sketch.</desc>
<g id="speakers" transform="translate(-133.000000, -2353.000000)">
	<g id="anna" transform="translate(133.000000, 234.000000)">
		<g transform="translate(0.000000, 2100.000000)">
			<g id="bg" class="st0">
				<rect id="Rectangle-path" y="19" class="st1" width="260" height="344"/>
			</g>
			<g id="Layer_12" transform="translate(1.000000, 20.000000)">
				<path id="Shape" class="st2" d="M134.8,271.6c4.5-0.6,9.8-0.6,13.9-2.4c5.4-2.3,10.1-7.8,13.9-12.1c5.6-6.4,9.9-13.5,13.2-21.3
					c5.7-13.4,6.4-27.6,8.2-41.9c2.5-20.4,3.7-39.9,3.7-60.4c0-12.8-3.8-26-7.3-38.2c-4-14-6.7-28.8-15.3-40.9
					c-4-5.6-7.6-7.8-14.3-6.4c-4.2,0.8-10.6,1.1-14.1-0.4c-25.4-11-39.2,37.7-41.5,51.9c-2.7,16.6-5.2,33.1-8.7,49.5
					c-1.8,8.3-4.5,15.8-5.8,24.3c-1.1,7.4-1.6,13.8-1.3,21.2c0.3,10-0.3,19.6-3.7,29.1c-2.1,5.9-4.4,18.2-5.9,24.2"/>
				<path id="Shape_1_" class="st2" d="M99.8,128.1c2.7,4,9.9,4.9,14.5,5.2c6.5,0.4,10-1.6,14.5-4.3c0,0-6.2-9.9-13-10.2
					C108.9,118.4,103.3,122.1,99.8,128.1z"/>
				<path id="Shape_2_" class="st2" d="M187.3,126.4c-6.4,9.7-19.1,5.8-26.5-0.4c8.9-10.1,17.1-10.5,26.1-3.7"/>
				<path id="Shape_3_" class="st2" d="M84.4,157.2c0,9.9,0.8,19.6,2.1,29.1c0.6,4.5,1,10.1,3.1,14.3c2.2,4.6,6.8,8.7,10.1,12.4
					c13.5,15.1,35.3,26.1,56,23.8c11.3-1.2,17.2-8.9,24.6-16.1"/>
				<path id="Shape_4_" class="st2" d="M93.4,108.5c5.8-8.2,25.7-12.3,34.2-7.3c4.2,2.5,7.5,10.2,0.3,6.5c-5.1-2.6-7.7-3.8-14-3.5
					c-5.8,0.2-17.5,3.1-20.5,7.7"/>
				<path id="Shape_5_" class="st2" d="M183.5,105.1c-4.8-0.4-8.5-3.1-13.9-2.6c-3.6,0.4-11.2,2.5-10.4,7.6c4.3,1.8,9.7-1.8,14-2.1
					c3.6-0.2,8.6,1.1,11.1,3.4"/>
				<path id="Shape_6_" class="st2" d="M115.1,118.8c-8,0-8.1,8.8-1.5,11.2c5.5,2,11.9-5.3,7.1-9.4"/>
				<path id="Shape_7_" class="st2" d="M174.1,117.8c-4.3,0-4.7,3.9-4.3,6.7c0.4,2.8,3.2,4,6.7,4.1c8.5,0.2,6.9-9.8,0.9-10.7"/>
				<path id="Shape_8_" class="st2" d="M86.5,186.3c0,8.4,1.1,20.9,2.3,29.2c1.7,11.9,7.5,23.9,13.1,34.5s10.1,19.7,15.2,30.6
					c2.7,5.7,5.2,11.2,6.6,17.4c1.8,7.7,7.6,22.7,9,44"/>
				<path id="Shape_9_" class="st2" d="M136.9,43.2c-2.1-3.3-8-6.7-12.5-7.4c-6.2-1-9.8-0.7-15.1,2.6C88.8,51,80.9,74.5,75.5,95
					c-12.8,48.6-6.1,97-6.1,146.3c0,31.7,14.8,61.9,14.8,99.7"/>
				<path id="Shape_10_" class="st2" d="M77.1,218.7c0,7.6,1,10.9,1.3,15.9c0.5,9.8,0.9,19.6,1.7,29.3c0.9,11,2.3,22,5,32.7
					c1.5,6,2.9,12.1,4.8,18c2.7,8.3,7.2,9,8.6,27.4"/>
				<path id="Shape_11_" class="st2" d="M141.2,42.7c12-4.2,21.3-2.5,29.5,8.2c11.1,14.6,18.6,35.5,21.4,53.4
					c3.4,21.9,4.2,46.3,2.5,68.4c-1.6,21.1-4.5,42.2-11.1,62.4c-3.2,9.8-7.1,19.7-13.3,27.9c-3.9,5.3-8.9,9.8-14.3,13.6
					c-5.7,3.9-12.4,5.3-17.7,9.9"/>
				<path id="Shape_12_" class="st2" d="M138.6,35.5c10.9-3.5,21.7-2.8,30.3,5.9c10.9,11,19,22.5,24.5,37.1c4,10.7,5.2,22.9,7,34.2
					c1.8,11.1,3.7,22.3,4.4,33.6c0.8,12.3,1.4,24.7,1.3,37c-0.1,14.2-3.6,28.3-7.2,41.9c-3.2,12.1-9.1,24.1-15.6,34.8
					c-3.2,5.3-6.9,10.2-10.9,14.8c-5,5.8-12.4,16.1-19.6,18.9"/>
				<path id="Shape_13_" class="st2" d="M79.2,203.4c2.2,14.4,4.7,27.8,6.8,35.2c4.5,15.8,10.3,30.1,17.1,45
					c7.3,16,21.4,38.9,21.4,57.4"/>
				<path id="Shape_14_" class="st2" d="M60.8,341c-0.1-16.9-2.4-25.5-5.5-42.2c-3.4-18.8-4.2-37.4-4.3-56.5
					c-0.1-35.2,0.6-70.7,2.5-105.8c1.4-26,4.5-54.2,16.3-77.8c8.2-16.4,21.8-32.5,40.2-37c8.2-2,21.3-2.5,29,1.8
					c5.4-3.7,10.4-4.5,16.5-3.5c8.6,1.4,16.6,3.9,23.8,8.1c6.9,4.1,10.2,8.9,16,14.4c7.6,7.3,17.5,19,21.7,28.8
					c5.1,11.9,9.9,24,11.9,36.8c2.1,13.6,1.8,27.7,3.1,41.4c2.7,28.6,4.1,57.4,6.6,86c1.5,17.7,2.3,35.5,3.3,53.1
					c1,18-1.9,35-7.1,52.3"/>
				<path id="Shape_15_" class="st2" d="M58.1,95c-3.2,12.7-9.4,33.4-10.7,38.2c-2,7.4-4.1,14.8-6.1,22.2
					c-5.6,20.7-13.1,40-22.3,59.3c-6,12.5-12.8,29.4-19,41.8"/>
				<path id="Shape_16_" class="st2" d="M52,341c-3-24.7-5-49.9-7.2-74.8c-3.3-36.2,2.2-91.9,8.7-127.9"/>
				<path id="Shape_17_" class="st2" d="M45.6,200.5c-7,18.2-17.6,47-25.7,55.3c-5.8,6-12.7,10.1-19.4,14.9"/>
				<path id="Shape_18_" class="st2" d="M125.6,304.9c6.3,3.3,18.1,5.1,24.6,5.1c6.1,0,32.3-1.8,45-10.3"/>
				<path id="Shape_19_" class="st2" d="M128.5,315.2c3.5,2.3,16.2,4.6,21.1,4.6c15.5,0.1,31.4-4.3,38.1-6.3"/>
				<path id="Shape_20_" class="st2" d="M217.2,124.1c4.9,26.8,7.2,72.7,7.3,79.3c0.1,11,0.3,22-0.9,33c-2.3,22.9-3.4,45.9-6.2,68.7
					c-2.1,17.1-8.5,19-11.3,35.9"/>
				<path id="Shape_21_" class="st2" d="M136.9,32c-33.4-21.6-64.6,30.9-70.7,56.6c-6.6,27.7-7.2,57.8-7.2,86.2
					c0,35.4-0.1,70.1,4.4,105.3c2.6,20.6,5.8,40.3,8.2,60.9"/>
				<path id="Shape_22_" class="st2" d="M139.7,28.4c32.1-13.7,54.1,25.9,63.3,40.7c5.2,8.4,7.3,18.3,10.2,27.9
					c4.7,15.5,4.4,30.7,3.5,46.7c-1.5,28.6-2.3,60.4-10.5,88c-4.5,15-8.9,30.9-16.9,44.4c-4.7,7.9-10.2,16.7-16.5,23.4"/>
				<path id="Shape_23_" class="st2" d="M215.6,165.2c4.6,55.1-1.9,85.2-7.3,100.4c-4.6,12.8-10,30.2-17.1,41.9
					c-9.2,15-12.7,24.4-26.7,33.5"/>
				<path id="Shape_24_" class="st2" d="M212.5,250.6c0,41.3-15.8,47.3-19.6,90.4"/>
				<path id="Shape_25_" class="st2" d="M139.9,149.3c-1.3,2.5-1.3,2.9-2.9,4.9c-0.9,1.1-3.9,2.1-5.4,2.9c-3,1.7-4.8,7.3-0.9,10.4"
					/>
				<path id="Shape_26_" class="st2" d="M153.2,148.8c4.4,1.9,5.5,4.5,7.6,6.5c1.4,1.3,3.2,2.2,4.4,4s0.1,4.4-0.3,6.6"/>
				<path id="Shape_27_" class="st2" d="M136.4,164.5c0.7-3,6.7-5.7,8.8-2.9"/>
				<path id="Shape_28_" class="st2" d="M153.2,162.1c2.4-1.6,6.7,0.6,7.5,3.1"/>
				<path id="Shape_29_" class="st2" d="M118.5,180.4c-0.1,0.5,0,0.9,0.4,1.1"/>
				<path id="Shape_30_" class="st2" d="M172.7,192.4c-2.9,0-5.6-1.8-8.6-2c-2.7-0.2-5.2-1-7.9-1.1c-3.6-0.2-7.3,0-10.9-0.2
					c-6.7-0.3-14.2,4.4-19.8,2.9c-0.4-0.1-0.5-0.5-0.2-0.8c1.3-0.9,4-2.9,5.3-3.7c1.7-1.1,3.4-2.3,5.3-3.1c2.8-1.2,5.7-2.1,8.6-1.3
					c1.6,0.5,2.9,1.2,4.6,1c1.5-0.1,3.1-1,4.6-1.3c3.1-0.6,6,0.7,9,2c3.8,1.6,7.3,4.5,10.4,7c-2.5,1.9-6.4,6.8-9.3,8.3
					c-5.7,3.1-12.3,3.4-18.6,3c-3.7-0.3-7.4-0.9-10.8-2.3c-5.7-2.4-8.9-7.3-9-9c0,0,10.4,2.2,14,2.7c5.1,0.6,10.1-0.4,15.2-0.5
					c3.2,0,6.5,0,9.7,0C167,194.1,170.2,193.5,172.7,192.4"/>
				<path id="Shape_31_" class="st2" d="M153.2,112.9c-4,8.6-3.3,18.4-2.4,27.6"/>
				<path id="Shape_32_" class="st2" d="M44.5,262.1c-6.1,1.1-14.7,0.6-21,1.1c-3.6,0.3-10.2,0.6-15.6,2.3"/>
				<path id="Shape_33_" class="st2" d="M93.8,206.2c0,5.6,0,10.1,0,15.7c0,3,0.3,12.9,1.8,15.3"/>
				<path id="Shape_34_" class="st2" d="M99.3,121.9c0.6-1.7,2.9-3.6,4.3-4.9c1.8-1.6,3.9-3.1,6.3-3.5c4.2-0.7,7.7-0.6,11.2,2.1
					c2,1.5,3.7,3.1,5.2,5"/>
				<path id="Shape_35_" class="st2" d="M161.1,119.3c3.6-3.9,10.1-6.4,15.4-6.1c2.1,0.1,4.2,0.8,6.1,1.8c1.1,0.6,2.4,2,3.6,2.2"/>
			</g>
		</g>
	</g>
</g>
</svg>
