<?xml version="1.0" encoding="utf-8"?>
<!-- Generator: Adobe Illustrator 22.0.1, SVG Export Plug-In . SVG Version: 6.00 Build 0)  -->
<svg version="1.1" xmlns="http://www.w3.org/2000/svg" xmlns:xlink="http://www.w3.org/1999/xlink" x="0px" y="0px"
	 viewBox="0 0 260 344" style="enable-background:new 0 0 260 344;" xml:space="preserve">
<style type="text/css">
	.st0{opacity:0;}
	.st1{fill:none;stroke:#000000;stroke-width:2;stroke-miterlimit:10;}
</style>
<g id="Layer_3">
	<rect class="st0" width="260" height="344"/>
</g>
<g id="Layer_2">
	<path class="st1" d="M76.2,213.6c3.9,3.9,5.2,11,8.5,15.6c3.9,5.4,8.8,8.8,15.2,10.7c10.5,3.2,21,5.5,31.8,7.8
		c3.2,0.7,6.4,1.6,9.6,2.3c2.9,0.6,6.5,0.8,9.1,2c3.8,1.7,7.4,1.2,11.7,0.8c4.2-0.4,8.3-1,12.2-2.7c10.3-4.5,15.5-11.6,24-20.2
		c0.7-0.7,6-10.1,6.9-12c2-4.3,4.4-8.5,5.8-13c2.5-8.2,1-17.8,3.5-26.1c1.6-5.5,1.8-13.4,0.6-19c-0.7-3.2-1.8-6.2-2.6-9.4
		c-0.7-2.9-2.3-6.7-2.9-9.6c-1.4-6.5-3.3-13-4.7-19.5c-1.2-5.8-2.6-11.5-4.1-17.2c-1.4-5.5-2.6-11.6-4.7-16.9
		c-2.5-6.3-6.1-11.7-9.9-17.2c-2.1-3-4.6-5.4-7-8c-2.2-2.4-6.4-4.5-8.1-7"/>
	<path class="st1" d="M66.5,198.2c1.4,2.2,1.7,5.3,2.6,7.8c0.8,2.5,1.6,5.2,2.1,7.8c1.1,5.2,3.4,10.4,4.4,15.6
		c1.1,5.4,1.2,11,2.6,16.4c1.5,5.8,2.5,11.4,3.1,17.4c0.6,5.1,0.9,12.5,2.2,17.4c1.5,5.6,5.4,10.5,6.9,16.1c0.4,1.6,1,4.1,1.6,5.7
		c0.6,1.7,1.2,3.4,2.1,4.9c1.7,3.2,3.8,6.1,5.5,9.4"/>
	<path class="st1" d="M187.1,241.5c1.4,6.9,2,14.5,2.4,21.5c0.5,8.2,0.5,15.8-1,24c-1.2,6.2-1.6,13.3-4.4,19.1
		c-2.7,5.6-7.7,11.3-11.9,15.9"/>
	<path class="st1" d="M37.4,149.8c8-0.7,14.6,5.3,18.2,11.7c2.1,3.7,4.9,5.6,3.7,9.9c-1.2,4.5,0.2,6.1,2.2,10.2"/>
	<path class="st1" d="M42.9,141.1c0.2-2.4-1.8-6.6-2.6-9c-0.7-2.4-1.6-4.9-1.9-7.3c-0.8-5.7-0.5-12.8-0.3-18.5
		c0.3-5.9-1-10.7-2.5-16.4c-1.5-5.6,3.2-10.1,4.3-15.4"/>
	<path class="st1" d="M37.1,70.7c3.4-1.7,8.4-5.6,10.4-8.9c3.2-5.2,8.1-8.1,11.7-12.8c1.5-0.5,1.1-1.7,2-2.8
		c0.9-1.1,2.1-1.6,3.2-2.4c2.2-1.6,4.5-3.2,6.7-4.8c4.4-3.1,8-6.8,13.2-8.8c5.9-2.2,12.1-3.5,18-5.8c5.2-2,8.6-1.9,13.9-1.1
		c2.3,0.4,4.2-0.3,6.4-0.9c3.2-0.9,4-0.3,6.7,1.1c2.5,1.3,3.5,0.8,6.3,0.6c4-0.3,7.4,1,11.3,1.4c4.6,0.5,8.5-0.2,12.4,2.8
		c2.2,1.7,3.6,4.1,6.2,5.5c2.2,1.2,4.7,1.7,7,2.6c4.6,1.8,10.1,4.3,9.9,10.2c-0.2,6.7-6.1,9-11.5,8.1"/>
	<path class="st1" d="M174.1,57.9c3.6,3.6,11.5-3.2,11.1-7.5"/>
	<path class="st1" d="M178,60.8c3.2,2.4,10.2-1.9,8.6-4"/>
	<path class="st1" d="M158.4,46.5c-2.4-3.7-8.5-5-12.5-6.4c-4.5-1.5-9.6-2.2-14.3-2.7c-7.3-0.8-14.6,0-21.5,2.4
		c-10.4,3.5-15.5,14.5-20,23.6"/>
	<path class="st1" d="M162.3,50.6c4.9,0.1,11.5-3.5,7.9-9.1c-2.7-4.2-8.8-4.6-13.1-5.5c-4.9-1-9.6-2.5-14.5-3.2
		c-3.2-0.5-6.5-0.7-9.8-1c-3.6-0.3-7.4,0.3-10.8-0.2"/>
	<path class="st1" d="M151.7,49.3c-17.6-9.2-44.6-9.5-55.5,9.9"/>
	<path class="st1" d="M92.3,50.1c-2.9-0.4-6.2,2.5-8.4,4c-3.7,2.5-7.1,5.2-9.5,9c-4.9,7.7-6.4,16.5-10,24.8"/>
	<path class="st1" d="M87.1,58.2c-3.4,4.2-4.3,10.9-6.2,15.9"/>
	<path class="st1" d="M69.1,86.3c-3.4,7.7,1.9,16.5-1.6,24c-2.2,4.8-5.8,9-7,14.2c-1.3,5.5-0.3,11.4-1,17c-0.5,3.8,2.8,7.3,3.1,11.2
		c0.5,4.9,1.4,9.7,1.8,14.6c-3.4-3-3.1-6.7-4.9-10.7c-3.1-6.8-6.2-9.7-9.7-12c-3.6-2.5-10.4-5.5-13.8,0.5c-2.3,4.2-1,11.2,0.5,15.4
		c1.9,5.1,4.2,10.7,7.1,15.4c3.1,5,5.2,10.7,8.8,15.4c3.7,4.8,11.5,9.2,17.5,5.2"/>
	<path class="st1" d="M62.6,68.3c-0.9,2.5-3.5,5-4.7,7.7c-2,4.5-3,9.5-4,14.3c0.2-0.1,0.4-0.3,0.6-0.4"/>
	<path class="st1" d="M48,82.7c-2.6,3.5-2.4,8.8-2.3,13"/>
	<path class="st1" d="M61.3,83.2c-1.7,3.5-1.1,8-2.3,11.7"/>
	<path class="st1" d="M111.8,32.2c-12.6,0-22.9,5.5-33.1,12.2"/>
	<path class="st1" d="M82.7,47.3c-3.4,0.7-7.1,4.9-9.3,7.3c-3,3.3-5.1,7.1-7.7,10.6"/>
	<path class="st1" d="M69.7,49.9c-3.7,1.7-7.8,5.8-10.6,8.6c-3.6,3.8-7.8,7.8-10,12.7"/>
	<path class="st1" d="M137.9,51.9c-3.2-5.3-13.4-4.4-18.5-3.4"/>
	<path class="st1" d="M114.7,274.3c6.2,2,12.2,6.5,18.9,6.8c4,0.2,8.6-1.1,12.4-2.2c3.9-1.2,8.1-4.6,12-5.1"/>
	<path class="st1" d="M82.4,129.5c4.8-2.4,9.1-6.1,13.2-9.5c3.9-3.2,8.6-9,13.6-9.8c9.3-1.4,19.2-1,28.6-1c4.5,0,12.2-0.8,11.3,6
		c-0.7,5.8-6.3,5.1-10.8,5c-5-0.1-10,0.1-15,0c-5.4-0.1-10.7,1.7-15.8,3.4c-4.9,1.6-9.5,3.8-14.3,5.5c-2.4,0.8-4.8,1.5-7.3,2
		c-0.8,0.2-3,0.8-3.9,0.5c-1.7-0.5-1.1-1.8,0.5-2.1"/>
	<path class="st1" d="M204.2,121.7c0.4,0,0.5-0.1,0.3-0.4c-3.5-2.1-5.9-4.2-10.2-4.8c-3.2-0.4-6.5-0.7-9.6-0.4
		c-2.7,0.3-7.3,2.3-9.9,1.1c-2-0.9-2.5-3.9-2.7-6.5c-0.1-1.6,1-3,2.5-3.3c1.8-0.3,3.5-0.8,5.3-0.6c2.4,0.2,4.9,0.3,7.3,0.7
		c4,0.5,13.1,2,15.5,5.2"/>
	<path class="st1" d="M164.7,126.1c1.9,4.4,5.8,7.9,7.8,12.2c1,2,1.2,4.2,2.6,6c1.6,2.2,3.8,4,5.4,6.1c2.6,3.2,6.1,7.1,6,11.6
		c0,5.1-5,7.8-8.4,10.7"/>
	<path class="st1" d="M153.5,173.3c-5.1,0.6-9.9-2.3-10.7-7.5c-0.9-5.5,2.8-9.4,7.8-11.2"/>
	<path class="st1" d="M166.5,169.6c2.9-0.9,1.2-4-0.5-5.2c-1.6-1-4.1-1.3-6-1.1c-4.4,0.5-9,6.8-2.1,6"/>
	<path class="st1" d="M171.2,172.2c1.9-1.7,4.2-2.4,6-4.4c1.3-1.5,3-4.5,5.4-3.4"/>
	<path class="st1" d="M174.3,164.7c0.4-2.4,2.9-6.8,1.3-8.1"/>
	<path class="st1" d="M139.9,133.4c-3-2.4-4.9-4.3-8.9-4.9c-3.2-0.5-7.8-0.4-10.8,0.4c-4.7,1.2-13,2.9-16.2,6.9"/>
	<path class="st1" d="M197.6,132c-3.3,1.7-9.4,1.4-13.1,1.2c-3.3-0.2-9.5,0.6-12.2-1.5c3.7-3.8,7.7-5.9,13-6.3
		c2.4-0.2,5.2,0,7.3,1.1c2.8,1.5,3.7,4.6,6,6.5"/>
	<path class="st1" d="M106.1,133.9c4.8,2.9,10.2,5.4,15.9,4.2c5.5-1.1,11.4-2.4,16.4-5.2"/>
	<path class="st1" d="M182.6,125.9c-1.5,2.1-1.5,5.7,0.9,7.5"/>
	<path class="st1" d="M189.2,125.4c2.3,2,3.3,5.3,0,8"/>
	<path class="st1" d="M120.2,128.9c-1.9,1.4-2,7.7,2.7,9"/>
	<path class="st1" d="M129.5,128.3c1.6,1.3,2.5,6.5-0.7,8.3"/>
	<path class="st1" d="M137.3,168c-0.8,5.7-4.3,14.4-8.6,18.2"/>
	<path class="st1" d="M188.4,173c2.3,5.1,6.8,7.6,10,11.9c3.3,4.5-1.4,7.4-0.4,11.5"/>
	<path class="st1" d="M129,200.8c12.5,0,20.8-12.3,32.3-15.6c3.1-0.9,4.9,0.4,7.8,1.1c2.9,0.7,5-0.5,7.8-0.8c6-0.6,9.8,7.8,14.8,7.2
		c0.7,1.4-2.7,7.7-3.4,9.6c-1.3,3.7-2.8,5.9-5.7,8.5c-5.1,4.8-11.4,5.9-18.3,5.2c-5.6-0.6-10.9-2.7-15.9-5.1
		c-2.6-1.3-5.2-2.5-7.8-3.6c-2.3-1-5.8-1.8-7.5-3.6c4.8-0.2,9.6-1.6,14.6-1.6c4.7,0,9.4,0.2,14.1,0c9.2-0.4,20.8-3.4,28.8-7.7
		c0.1-0.1,0.1-0.2-0.1-0.2c-4.9,0.3-11-0.9-16-0.9c-5,0-10.3,0.7-15.1,1.8c-5,1.1-10.1,2.3-15.1,3.3
		C139.1,199.5,134.6,200.8,129,200.8"/>
	<path class="st1" d="M162.1,222.5c3.1-2.1,11.7-4.3,15.1-2.3"/>
	<path class="st1" d="M74.6,228.2c-4.1,3.5-6.3,8.4-8.7,13.1c-4.2,8.4-3.4,16.9-4.8,25.9"/>
	<path class="st1" d="M201.9,223.8c3.6,1.9,6.3,6.6,9,9.4c4.8,4.8,10.4,4.8,16.4,1.8c4.9-2.5,9-6.3,14.1-8.6c5.7-2.5,7.6-0.4,13,1"
		/>
	<path class="st1" d="M69.9,233.8c-6.4-4-13.8,5.4-19.5,5.6c-3.6-0.9-7.6-0.5-11.3-1.5c-5.8-1.6-10.5-1.9-16.5-0.7
		c-4.7,1-13.3,5.9-16.9,9.2"/>
	<path class="st1" d="M11.1,261.2c7.5,10.8,14.3,23.2,19.3,35.4c5.2,12.9,12.6,31.6,12.9,43.4"/>
	<path class="st1" d="M6.4,277.6c4.4,8.5,8.5,17.1,10.4,26.6c2.1,10.2,3.8,21.9,3.4,32.3"/>
	<path class="st1" d="M76.3,233.7c-4.1,7.2-7.3,14.5-8.4,22.9c-1.1,8.6-0.5,17.1,0.8,25.6c1,6.7,3.4,12.9,7,18.6
		c1.9,2.9,3.7,5.8,5.5,8.8c1.7,2.9,4.5,5.5,5.9,8.4c1.9,4.1,7,9.3,9.9,12.7c3.4,4.1,4.8,6.1,8.8,9.7"/>
	<path class="st1" d="M56.6,271.1c-2.3,3.7-0.3,11.2,0.1,15.2c0.6,5.7,2.2,11.3,4,16.7c3.2,9.9,3.3,21.4,1.5,31.6"/>
	<path class="st1" d="M197.7,230.3c0.8,1.6,2,4.8,2.8,6.6c1.7,3.9,2.6,7.7,2.3,12c-0.8,13.2-4.8,26.4-8.5,39
		c-4.9,16.4-9.2,37.1-24,47.6"/>
	<path class="st1" d="M230.5,251.6c-6.9,13.2-10.5,28.2-15.4,42.2c-4.7,13.5-7.8,28.1-8.8,42.4"/>
	<path class="st1" d="M143.6,135.8c-0.6,4-2.4,7.4-6,9.6"/>
	<path class="st1" d="M177.7,137.6c3.1,4.2,10.8,2.7,15.1,3.6"/>
	<path class="st1" d="M150.1,197.2c0.7,1.1,0.7,3.4,0.7,4.7"/>
	<path class="st1" d="M165.2,194.3c0.7,2,0.9,5,1.6,7.1"/>
	<path class="st1" d="M173.3,194.1c0.5,2.1,0.3,4.1,1,5.7"/>
	<path class="st1" d="M157.1,195.9c0.9,1.3,1,4.4,1.2,6"/>
	<path class="st1" d="M142.8,198.8c0.4,1,0.6,2.1,0.5,3.1"/>
	<path class="st1" d="M178,194.1c0.2,1.8,0.3,3.4,0.6,4.8"/>
	<path class="st1" d="M182.1,193.6c0.4,1.2,0.8,2.4,0.8,3.6"/>
</g>
</svg>
