<?xml version="1.0" encoding="utf-8"?>
<!-- Generator: Adobe Illustrator 21.1.0, SVG Export Plug-In . SVG Version: 6.00 Build 0)  -->
<svg version="1.1" xmlns="http://www.w3.org/2000/svg" xmlns:xlink="http://www.w3.org/1999/xlink" x="0px" y="0px"
	 viewBox="0 0 260 344" style="enable-background:new 0 0 260 344;" xml:space="preserve">
<style type="text/css">
	.st0{opacity:0;}
	.st1{fill:none;stroke:#000000;stroke-width:2;stroke-miterlimit:10;}
</style>
<g id="Layer_3">
	<rect class="st0" width="260" height="344"/>
</g>
<g id="Layer_2">
	<path class="st1" d="M78,140.6c3.1-3,4.9-2.6,9.1-3.2c7.4-1,15.7-2.4,23.2-1c2.3,0.4,5.2,1.5,6.7,3.4c1.9,2.4,0.8,3.9-0.3,6.1
		c-0.8,1.4-0.1,1.5-1.6,2.2c-1.9,0.9-4,0-5.8-0.4c-4-0.9-9.1-1.5-13.3-1.5c-5.4,0-12.5,2.3-17.1,5c-2.8,1.7-6.2,4.8-9.4,5.3
		C69.5,152.3,74.7,143.7,78,140.6z"/>
	<path class="st1" d="M151.7,146.4c-2.7-1-6.7-4.6-4.6-7.6c2.6-3.8,12.4-3.8,16.4-3.6c5.8,0.3,12.1-0.4,17.4,2.1
		c3.5,1.7,6.8,4.1,9.3,7c2.2,2.7,3.9,6.2,3.1,9.7c-2.8-1.3-4.5-4.3-7.6-5.6c-4.5-1.8-9.3-2.4-14.1-2.4c-4.2,0-8.4,0.1-12.6,0.3
		C156.7,146.5,153.9,147.1,151.7,146.4z"/>
	<path class="st1" d="M113.9,161.8c-1.6,1-4,1.9-5.7,2.7c-3,1.4-6.6,1.4-9.8,1.2c-2.8-0.1-5.6-0.2-8.4-0.9c-2.2-0.5-5.7-0.5-7.3-2.1
		c-0.4-1.7,3.4-5,4.6-6c2-1.7,4.8-3.6,7.5-4c5.1-0.7,11.4,1.8,15.3,4.9C111.7,158.9,112.8,160.2,113.9,161.8z"/>
	<path class="st1" d="M178.6,162.2c-0.9,0.6-2.9,2.1-3.9,2.6c-2.4,1.2-4.9,1.1-7.5,1.4c-3.8,0.4-7.3,0.2-11-0.4
		c-1.3-0.2-7.1-1.7-8.5-3.5c0.3-1.6,2.3-2.8,3.5-3.7c1.4-1.2,2.7-2.6,4.3-3.6c3-1.8,6.7-3.2,10.2-2.6c2.9,0.5,5.5,2.2,7.8,4
		c1.1,0.9,2.2,1.9,3.1,3C176.9,159.9,178.4,161.4,178.6,162.2z"/>
	<path class="st1" d="M80,156.2c2-1.3,3.7-3,5.9-4.2c2.2-1.2,4.4-2.4,6.9-3c4.6-1.2,9.8,0.4,13.7,2.4"/>
	<path class="st1" d="M146.5,156.5c0.2-1.1,2.2-2.2,3.1-2.8c1.7-1.2,3.7-2.2,5.7-2.9c3.6-1.2,7.1-2.7,10.9-2.3
		c3.3,0.3,6.7,2.3,9.5,3.9c1.8,1.1,5,3.1,5.8,4.9"/>
	<path class="st1" d="M94.8,152.8c-3.5,0.7-2.7,5.3-2.5,6.2c0.6,2.6,1.5,3.9,4.2,4.3c2.9,0.4,6.7-0.2,8-3.2c0.4-1.1,1-4.5,0.1-5.6"
		/>
	<path class="st1" d="M160.8,152.7c-2,0.3-3.6,3.9-3.6,5.6c0,2.9,1.5,5.2,4.4,5.8c3.2,0.6,7.1-0.7,8.4-3.9c0.5-1.2,1.2-5.5-0.1-6.3"
		/>
	<path class="st1" d="M116.5,188.4c-2,2.4-3.5,5.8-3.6,8.9c-0.1,1.7,0.6,4.7,2.5,5.4c0.9,0.3,1.8-0.2,2.5-0.6c0.8-0.5,1.2-1.6,1.9-2
		c1.6-0.9,3.8,1.1,4.9,2.1c1.7,1.4,3.4,3.1,5.1,4.4c2.7,1.9,5.1,0.3,7.1-1.9c1.9-2,3.3-4.6,6.2-5.2c3.1-0.6,2.9,5,6.1,4
		c3.6-1.1,3.8-6.3,3.2-9.3c-0.5-2.8-1.6-5.5-3.5-7.6"/>
	<path class="st1" d="M120.4,151c1.8,0.4,4.3,3.4,5.3,5c1.5,2.4,0.9,6,0.6,8.7c-0.3,3.8-0.9,7.6-1.6,11.4c-0.3,1.5-0.6,3.1-1.1,4.6
		c-0.4,1.4-0.7,3.8-1.6,4.8"/>
	<path class="st1" d="M100.7,219.6c2.4,1.8,6.6,3.2,9.5,3.8c4.4,0.9,8.8,1.7,13.3,2.2c2.2,0.2,4.1,1,6.2,1.4
		c2.5,0.4,5.1,0.3,7.7,0.1c4.7-0.4,9-1.9,13.5-3.1c5.5-1.4,10.2-4.3,15.8-5.7"/>
	<path class="st1" d="M211.8,158.1c0,2.2,0.7,4.4,0.6,6.7c-0.1,2.9-0.6,5.8-0.6,8.6c0,1.8,0.1,3.7-0.3,5.5c-0.4,1.9-1.4,3.7-2.1,5.5
		c-1.6,4.5-1.6,9.5-2,14.3c-0.3,3.5-1,6.6-4.7,7.3c-1.5,0.3-3,0.5-4.3-0.4c-0.4-0.3-1.1-1.2-1.3-1.3"/>
	<path class="st1" d="M109.9,227.5c1.4,1.2,3.3,2.4,4.8,3.5c1.9,1.4,4,2.9,6.3,3.6c4.8,1.5,10.6,1.3,15.6,1
		c4.9-0.3,10.2-1.1,14.2-4.3c1.6-1.3,3.2-2.6,4.7-4c1.1-1.1,3.5-2.2,4.1-3.4"/>
	<path class="st1" d="M104,221.4c3.7,2,11.3,0.6,15.1,0.2c1.7-0.2,3.4-0.6,5.1-0.7c1.6-0.1,2.7,0.3,4.2,0.8c1.9,0.6,3.9,1.1,5.9,0.9
		c1.5-0.1,2.6-0.8,3.9-1.1c3-0.8,6.3,0,9.3,0.2c3.2,0.1,9.3,0.4,12.1-0.8"/>
	<path class="st1" d="M126.6,241.3c4.1-0.7,8.2-0.4,12.3-0.1"/>
	<path class="st1" d="M80.7,237.6c-0.2,8.8,2.3,17.5,2,26.4c-0.1,4.7-0.7,9.2-0.1,13.9c0.4,3,1,5.9,1.7,8.8c0.4,1.5,0.7,4.9,1.7,5.8
		"/>
	<path class="st1" d="M189.2,234.2c-1.6,5.8-0.7,12.1-0.7,18.1c0,3.4,0,6.8,0.3,10.3c0.2,2.6,1,5.4,0.8,7.9c0-0.2,0-0.4,0-0.6"/>
	<path class="st1" d="M82.1,270.2c-4.6,4.6-8.2,11.4-9,17.9c-1,8.1,2.2,17.8,8.6,23c6.3,5.2,14.8,9.4,22.7,11.4
		c8.9,2.3,19.4,4.2,28.4,1.8c4.3-1.1,8.4-3.3,12.5-4.9c2.2-0.8,4.3-1.9,6.5-2.8c1.9-0.8,11.2-4.9,13.1-6c3.4-1.9,6.7-4.2,9.6-6.8
		c4.6-3.9,8.6-8.4,12.2-13.3c3.1-4.1,6.5-8.1,8.9-12.7c1.2-2.3,1.9-4.8,2.3-7.3c0.4-3-0.6-5.1-2-7.6c-1.5-2.6-3.3-3.5-6.6-3.6"/>
	<path class="st1" d="M102,275.5c0.9,0.7,1.7,1.6,2.6,2.3c2.9,2.1,6.2,3.6,9.3,5.3c3.2,1.7,6.4,3.6,10,4.6c2.4,0.7,5,0.8,7.3,1.6
		c0.1,0.1,0,0.2-0.2,0.1"/>
	<path class="st1" d="M82.7,265.7c-2.9-0.3-6,3.3-7.9,5.1c-3.6,3.5-6.9,7.9-8.1,12.8c-1.6,6.3-1.6,12.5-0.1,18.8
		c1.4,6.1,5.6,11.9,9.8,16.5c4.9,5.4,11,9.5,18,11.7c3.8,1.2,7.8,2.3,11.7,3.3c3.3,0.8,6.6,1.7,10,1.7c12.8,0.1,26.9-2.4,38.8-7.2
		c5.8-2.4,11.2-5.7,16.3-9.5c2.5-1.9,5-3.8,7.5-5.6c1.7-1.2,4.7-2.7,5.8-4.4c1.6-2.5,4.5-3.7,6.6-5.9c2.6-2.6,4.8-5.2,6.9-8.2
		c2.1-3.1,3.8-6.9,5.2-10.4c1.2-3.1,2.6-6.6,3-9.9c0.6-5.1-0.7-9.6-4.7-12.9c-2.3-2-6.7-7.9-12.8-7.9"/>
	<path class="st1" d="M3.3,300.6c3.7-1.7,7.5-2.7,11.2-4.3c5.2-2.3,10.1-4.6,15.2-7.3c5.2-2.8,10.7-5.8,16.2-7.8
		c6.7-2.4,13.4-5.4,19.8-8.6c3.2-1.6,6.9-2,10-3.6c0-0.2,2.3-0.9,2.1-1"/>
	<path class="st1" d="M204.3,265.3c2.9-0.2,6.2,2.1,8.6,3.6c5,3.2,10.6,5.7,16,8.1c3.1,1.4,6.1,3.1,9.2,4.6c3.4,1.6,17,6.9,20.4,8.4
		"/>
	<path class="st1" d="M74.1,54.2c-15.4,7.7-25.9,28.2-26.4,45"/>
	<path class="st1" d="M79.6,69.5c-4.1,2.5-7.7,7-11,10.3c-2.8,2.8-5.3,5.7-7.8,8.7c-2.3,2.7-6.3,6.3-7.6,9.7"/>
	<path class="st1" d="M88.9,69c-1.7,1.2-2.8,3-4,4.7c-3.5,5-8.3,10.3-9.9,16.2"/>
	<path class="st1" d="M97.9,68.4c-4.2,5.1-6.8,13.1-12.2,17.1"/>
	<path class="st1" d="M49.2,77.4c-5.8,3.9-11.1,9.5-16.3,14.2"/>
	<path class="st1" d="M43.7,91.9c-3.5,1.1-7,7-9.6,9.6"/>
	<path class="st1" d="M42.8,101.2c-3.1,2.6-5,7.6-7.8,10.7"/>
	<path class="st1" d="M43.1,111.6c-0.8,3.5-3.7,6.6-4.4,10.2"/>
	<path class="st1" d="M45.7,120.3c0.2,6.8-1.8,13.7-1.7,20.6"/>
	<path class="st1" d="M49.5,134.6c0,7.5,2.7,14.4,2.6,21.8c0,4.4-0.7,15.3-0.4,16.5c0.5,2.7,1.2,5.3,2.2,7.9c1.6,4.2,3.4,8,3.5,12.6
		c0.1,3.8-0.2,8.4,2.5,11.3c1.3,1.4,4.9,3.4,6.7,1.6"/>
	<path class="st1" d="M56.1,154.6c-0.3,5.4,0.1,11.4,0.6,16.8"/>
	<path class="st1" d="M106.3,67.8c-5.1,7.2-5.2,17.7-5.2,26.1"/>
	<path class="st1" d="M115.1,65.5c-2.3,7.4-4.3,15-4.1,22.9"/>
	<path class="st1" d="M124.6,67.5c-0.4,11.8,3.9,23.9,9.6,34.2"/>
	<path class="st1" d="M131.9,71c-0.2,4,2,8.3,3.3,11.9c2.9,7.8,7.4,14.9,10.3,22.6"/>
	<path class="st1" d="M138.9,69.3c1.7,6.7,2.9,13.6,5.5,20"/>
	<path class="st1" d="M146.7,66.1c1.2,5.1,2.9,10.2,4.1,15.4"/>
	<path class="st1" d="M154.8,69.3c7.1,12,11.8,25.6,18.6,37.7"/>
	<path class="st1" d="M164.1,73.6c4.1,8.2,9.1,16,12.8,24.4"/>
	<path class="st1" d="M174.8,73.3c5.1,6.1,10.3,12.9,14.2,20"/>
	<path class="st1" d="M191.1,82.3c6.6,7.5,12.5,16.6,15.4,26.1"/>
	<path class="st1" d="M192,99.7c0.1,4.5,3.8,9.9,5,14.5c1.3,4.9,0.8,10,2.2,14.9c1,3.3,2.5,5.3,3.7,7.8c0,2.2,0,4.4,0,6.6
		c0,11.9,0.5,23.5-1.1,35.3c-1.4,10.8-3.6,21.3-5.8,32c-1.7,8.2-4.1,15.5-6.7,23.4c-1.3,4-3.6,7.6-6.5,10.6
		c-3.5,3.7-7.7,7.5-11.5,10.9c-14.6,12.7-36,18.6-54.4,11.2c-8.1-3.3-14.4-8.9-20.8-14.6c-6.4-5.8-14.2-11.6-18.6-19.1
		c-11-18.9-13.3-39.8-16.4-61c-0.8-5.6-1.6-12.2-1.6-18c0-4.6-0.4-5.6-0.4-9.6c-0.9-3.1,1.1-6.2,2.2-9c1.2-3.2,1.1-6.6,1-10
		c-0.2-4.7-0.7-9.5-0.1-14.1c0.7-5.2,2.9-13.5,7.1-17.1"/>
	<path class="st1" d="M207.4,156.6c0.4,6.8-0.8,13.5-0.6,20.3"/>
	<path class="st1" d="M207.1,138.9c4,5.4,5.2,13.4,9.6,18.9"/>
	<path class="st1" d="M211.4,126.4c2.2,5.1,3.6,10.5,6.4,15.4"/>
	<path class="st1" d="M214.3,113.7c2,5.4,3,12,3.2,17.7"/>
	<path class="st1" d="M214.3,100.9c3.7,4.4,10.6,9.8,11.6,15.7"/>
	<path class="st1" d="M209.7,89.3c1.8,1,3.5,2.9,5.3,4.2c3.3,2.6,7.7,4.4,10.4,7.7"/>
	<path class="st1" d="M73.3,49.8c4.7-1.9,9.9-2.8,14.7-4.3c5.7-1.8,10.4-4.7,15.8-7.3c3.9-1.9,8-3.8,12.4-4.1
		c5.7-0.3,11.4,0.5,17.1,0.6"/>
	<path class="st1" d="M137.7,29.2c-0.8,2.6,4,6.1,5.2,8.4"/>
	<path class="st1" d="M147,36.5c1-1.8,1.5-5.6,1.7-7.8"/>
	<path class="st1" d="M153.1,37.9c0.8-2,2.6-3.4,3.8-5.2"/>
	<path class="st1" d="M158.6,41.1c0.9-2.8,5-5.2,7.3-6.7"/>
	<path class="st1" d="M165.6,43.4c5.3-1,11-2.9,16.5-1.7"/>
	<path class="st1" d="M175.7,48.4c5.3,0.2,10.6-1.2,16-1.2"/>
	<path class="st1" d="M183,54.7c7.1,0.2,14.1-1.9,21.2-1.5"/>
	<path class="st1" d="M194,61.7c4.6,1.5,10.9-0.4,15.4-1.2"/>
	<path class="st1" d="M200.1,67.8c5.2,1,10.7,0.5,16,0.9"/>
	<path class="st1" d="M205.9,75.9c3.8,2.5,9,2.6,13.1,4.9"/>
	<path class="st1" d="M209.1,82c7.1,3.7,13.9,9.4,20.3,14.2"/>
	<path class="st1" d="M125.8,48.9c-2,5-1.9,11.6-1.7,16.8"/>
	<path class="st1" d="M132.5,48.1c-0.3,4.6-0.3,9.4-0.9,13.9"/>
	<path class="st1" d="M115.6,47.8c-3.1,4.6-5.2,10-8.1,14.8"/>
	<path class="st1" d="M108.4,50.4c-3.7,3.7-7.2,8.1-10.4,12.2"/>
	<path class="st1" d="M99.7,52.4c-4.1,3.9-8.6,7.3-13.1,10.7"/>
	<path class="st1" d="M86.6,55.3c-7.7,6-15.5,11.6-22.9,18"/>
	<path class="st1" d="M137.4,49.8c0,5.6,0.6,10.5,1.5,16"/>
	<path class="st1" d="M132.5,42c-7.1-2.4-15.8,0.8-22.9,1.5"/>
	<path class="st1" d="M145,49.2c1.5,5.6,2.3,11.4,4.4,16.8"/>
	<path class="st1" d="M149.6,48.1c3.5,6.7,8.5,12.5,12.2,19.2"/>
	<path class="st1" d="M160.3,54.2c4,6.5,9.6,10.6,12.5,18"/>
	<path class="st1" d="M171.7,59.4c1.1,1.9,3.2,3.2,4.8,4.7c5.7,5.4,9,12.3,13.1,18.8"/>
	<path class="st1" d="M182.4,61.1c2.1,2.4,3.9,4.8,6.2,7.1c4.1,4.1,9.4,7.6,12.7,12.4"/>
	<path class="st1" d="M201.6,111.9c0.3,0.3,0.7,2.5,1,3.8c1,4.4,2.3,8.5,3.6,12.8"/>
	<path class="st1" d="M147.6,42.8c7.4,0.7,15.8,6.7,22.3,9.9"/>
	<path class="st1" d="M57.6,102.9c-2.4,5.3-4.8,10.7-6.7,16.3"/>
	<path class="st1" d="M58.7,118c-0.3,5.6-2,11.2-2.6,16.8"/>
	<path class="st1" d="M95.3,212.1c-3.7,0.4-7,10.5-2.3,11.3"/>
	<path class="st1" d="M170.8,209.7c4.1,2.1,7.2,8.7,7,13.4"/>
</g>
</svg>
