<?xml version="1.0" encoding="utf-8"?>
<!-- Generator: Adobe Illustrator 21.1.0, SVG Export Plug-In . SVG Version: 6.00 Build 0)  -->
<svg version="1.1" xmlns="http://www.w3.org/2000/svg" xmlns:xlink="http://www.w3.org/1999/xlink" x="0px" y="0px"
	 viewBox="0 0 260 344" style="enable-background:new 0 0 260 344;" xml:space="preserve">
<style type="text/css">
	.st0{opacity:0;}
	.st1{fill:none;stroke:#000000;stroke-width:2;stroke-miterlimit:10;}
</style>
<g id="bg">
	<rect class="st0" width="260" height="344"/>
</g>
<g id="Layer_2">
	<path class="st1" d="M183.3,60.1c1.1,1.4,4,4.2,5.3,5.5c11.3,11,16.2,28.7,17.8,44c1.4,14.2-2.6,28.2-0.4,42.3
		c1.9,12.7-2.7,22.8-5.6,34.8c-1.4,5.7-2.7,11.5-3,17.4c-0.3,6.3-0.6,10.9-4,16.4c-7.9,12.7-18,25.1-28.6,35.5
		c-9.6,9.4-21.1,15.6-35,15c-4.9-0.2-9.6-0.7-14.1-2.7c-4.6-2.1-8.9-6.9-12.7-10.2c-10.1-8.8-18.7-19.6-26.1-30.6
		c-3.8-5.5-6.3-12-7.5-18.6c-1-6-0.2-12.4-1.1-18.5c-1-7.5-1.7-15.1-3.5-22.5c-0.8-3.4-1.9-6.7-2.3-10.2c-0.3-2.5,0.5-7.3,0-9.2
		c4.6-6.5,2.3-17.2,2.7-25.2c0.4-7.1,1.3-14.8,2.5-21.9c1.2-7,2.7-14.8,5.1-21.6c1.8-4.9,4.8-11.9,6.9-16.4"/>
	<path class="st1" d="M82,142.9c6.2,0.4,11.4,4.8,18.1,4.8c3.6,0,6.9-0.3,10.4-0.8c0.9-0.1,3.3-0.6,5-1c0.8-0.2,1.1-1.1,0.5-1.7
		c-4-4.3-11.5-4.8-16.6-4.6c-3.8,0.2-6.8,0.5-10.3,1.4c-1.6,0.4-8.2,2.1-9.7,2.7"/>
	<path class="st1" d="M155.6,147.3c6.5,1.6,10.5,3.1,16.5,4.1c6.7,1,12.6-0.6,18.8-2.3c0.5-0.1,0.5-0.8,0.1-1
		c-5.5-2.2-11.4-4.4-17.3-4.9c-7.1-0.7-14.5,2.5-20.8,5.3"/>
	<path class="st1" d="M178.5,60.9c-31.1-18.6-51-15.1-70.9-12c-7.8,1.2-34.3,8.8-46.3,22.4"/>
	<path class="st1" d="M73.4,53.4C81.8,51,95.2,41,103,37.5c10.8-4.8,23.1-4.2,34.8-3.6c7.4,0.3,39.3,5.5,48.5,24.7"/>
	<path class="st1" d="M189.6,58.6c0.2-9.2-11.3-15-18.1-20.8c-7.3-6.1-19.4-7.7-28.6-9.4C124.5,25,104.1,31.1,88,39.9
		c-4.7,2.5-11.3,7-15.6,10"/>
	<path class="st1" d="M183.3,60.1c-25.8,5.4-50.4-9.7-64.8-8.8c-9.3,0.6-19.9,3.7-28.4,7.3c-12.9,5.4-23,13.8-34,22.1"/>
	<path class="st1" d="M183.3,60.1c-6-6-24.2-15.2-27.7-16.7c-6.3-2.6-15.2-4.4-22.1-4c-9.5,0.5-18.6,1.7-27.7,4.8
		c-7.8,2.7-15.1,6.5-22.6,9.9c-5.8,2.6-12.1,5.5-18.3,7.4"/>
	<path class="st1" d="M183.3,60.1c5.5-2.3,13.1-2,18.5,1.1c6.4,3.7,9,13.7,9.9,20.6c1.3,9.5,3,19.5,3.9,29.1c1,11.4-1.5,23.9-3.6,35
		c-1.3,7.1-5,14.9-6.7,22.6"/>
	<path class="st1" d="M71.1,69.4c-2.6,4.2-4.9,10.3-5.9,15.1c-1.3,6.7-2.5,13.5-3.5,20.3c-1.6,11.3-3.3,24.4-1.5,35.8
		c0.5,3.2,3.2,8.7,2.1,12.8"/>
	<path class="st1" d="M210.9,150.3c4.5-2.5,9.9-5.7,13.9-3.3c4.5,2.7,4.4,9.2,4.4,13.7c-0.1,13.2-8.7,23.6-16.8,33.2
		c-2.1,2.5-4.8,4.8-8.4,4.2c-2.3-0.4-3.9-2.8-6.4-2.8"/>
	<path class="st1" d="M61.2,144.1c-1.9-1.2-6.7-2.3-8.9-3c-1.7-0.5-3.8-2-5.7-1.5c-4,1.2-3.8,9.5-3.5,13c1,11.7,6.5,26.7,14.2,35.6
		c2.3,2.7,8.8,5.8,11.1,2.3"/>
	<path class="st1" d="M226.4,154c-6.8-1.8-14.5,4.3-17,10.4c-1.1,2.7-1,5.2-0.9,8.2c0.1,4.2-1.7,7.7-4.2,10.9"/>
	<path class="st1" d="M47,145.2c6.8,4.7,10.6,7.2,12.5,16c0.6,2.9-0.7,4.7-0.6,7.8c0.1,3.4,3,7,4.5,9.9"/>
	<path class="st1" d="M130,115.1c0,6.4,1.3,14.6-3.4,19.6"/>
	<path class="st1" d="M139.5,117.2c-1.3,6.5-3.2,17.1,2.1,22.4"/>
	<path class="st1" d="M72.9,139.3c7.9-7.4,15.6-7.8,23.4-8.8c4.4-0.5,8.1-0.2,12.4,0.7c2,0.5,7.5,2.1,9.4,1.4
		c5.4-2.1-4.6-10.9-8.2-11.2c-8.6-0.7-19.4,0-27.4,3.5c-4,1.7-8.1,4.4-10.1,8.4C71.3,135.6,70,142,72.9,139.3z"/>
	<path class="st1" d="M150.7,139.5c-0.8,0.1-1.6-0.3-1.9-1.1c-3.9-10,11.7-11.9,18.8-12.5c10.6-0.9,20.1,0.8,27.9,8.1
		c3.1,2.8,3.3,5.6,3.8,9.4c-1.8,1.3-7.6-3.4-9.7-4.3c-4.8-2.1-8.5-2.6-13.6-3.2c-5.3-0.7-10.7-1-15.8,0.6
		C156.8,137.6,153.7,139.1,150.7,139.5z"/>
	<path class="st1" d="M92.2,140.3c-1.9,1.4-1.2,4.7,0.7,5.9"/>
	<path class="st1" d="M102.4,139.6c3.7,0.6,3.9,6.9,0,8.1"/>
	<path class="st1" d="M170.7,143.1c-4.3,0.6-4.3,6.6-1.3,7.8"/>
	<path class="st1" d="M175,151.7c3.9-0.1,6.6-5.7,2.5-8"/>
	<path class="st1" d="M87.3,156.4c5.7,4.4,18.5-2.3,23.8-5.3"/>
	<path class="st1" d="M153.5,154c3.1,5.2,11.8,11.6,17.2,14"/>
	<path class="st1" d="M115.7,174.7c-1.5,2.8-4.3,6.8-3.4,10.2c0.9,3.6,5.3,4.6,8,5.6"/>
	<path class="st1" d="M149.7,173.3c4.1,5.2,8.1,17.2-2.5,18.9"/>
	<path class="st1" d="M118.8,186.6c3.1-1.6,5.4-1.7,8.5-0.1c2.6,1.4,5,4.5,8.1,3.9c2.5-0.5,4.4-3.8,7-4.5c2.8-0.7,6.3-0.4,7.2,2.8"
		/>
	<path class="st1" d="M108,185.5c-0.8,4.4-5.2,8.5-7.2,12.6c-2.1,4.4-4.4,8.8-5.4,13.7"/>
	<path class="st1" d="M157.7,180.6c1.6,5.7,7.8,11.6,10.9,16.7c2.8,4.6,9.5,14.9,7.4,20.1"/>
	<path class="st1" d="M126.9,243c3.1,0.1,10.6-0.7,13.7-0.7"/>
	<path class="st1" d="M105.5,220.6c1.3,3,12.1,0.2,14.8,0c5.8-0.5,11.2-0.6,16.9-0.4c5.3,0.2,10.3-0.3,15.4-0.7
		c1.6-0.1,5.7-1,7.8-1.4c0.5-0.1,0.9,0.5,0.6,0.9c-2.6,3.2-7.3,7.1-10.1,8.8c-7.5,4.3-14.2,7.5-22.9,5c-6.1-1.8-19.2-7.1-23.2-12.5
		c7.3-2.5,18.6-11.8,24.3-8.8c1.6,0.9,5,3.9,6.9,4c2.3,0.1,3.9-2.1,5.6-3.3c3.8-2.5,6.6-0.9,10.5,1.2c2.2,1.2,6.9,3.9,9,5.1"/>
	<path class="st1" d="M69.1,205.2c-5.4,6.6-10.6,13-12.9,21.6c-2.2,7.9-2.1,16.1-4.9,23.9c-2,5.4-5,10.7-4.2,16.7
		c1,7.5,7.6,10.6,14,12.8c8.8,2.9,17.9,5,26.8,7.7c6.2,1.9,11.1,3.9,15.7,8.4"/>
	<path class="st1" d="M188.9,227.4c5.5,2.7,3,14.1,2.6,17.2c-1.5,11.7-3.7,21.7-10.9,31.3c-4.3,5.8-11.6,10.1-17.9,13.4
		c-3.2,1.7-16.3,5.9-19.1,4.2"/>
	<path class="st1" d="M194.9,217.1c0.6,2.5,4.3,4.4,5.7,7c2.2,3.9,3.3,9.3,4,13.7c1.6,10.1,0.2,19.8-1.3,29.8
		c-1.1,7.8-2.4,15.7-3.9,23.4c-1.4,6.7-5,13.3-6,19.9c0-0.3,0-0.6,0-0.9"/>
	<path class="st1" d="M51.2,250.6c-5.8,2.3-13.7,4.8-19,8.5c-5.7,4-9.4,10.8-15.4,14.5c-5.4,3.3-6.7,3.4-12.5,5.8"/>
	<path class="st1" d="M14,283.3c13.8,14,22.2,29.3,27,48.4"/>
	<path class="st1" d="M55.4,277.7c0.7,2,0.3,4.5,0.4,6.7c0.2,4.1,1,7.9,2.6,11.7c3.3,7.6,8,8.6,13.9,13.4"/>
	<path class="st1" d="M105.5,329.9c0-7.1-3.5-22-11.6-25.6c-3.3-7.3,16.2-9.2,20.3-10.5c10.6-3.2,18.6-1.4,29.3-0.4
		c4.8,0.5,8.9,2.2,13.4,4.1c4.7,2,7.7,5.6,12.4,7.7c11.4,5,25,3.6,36.9,7.3c5.8,1.8,11.3,4.9,16.8,7.3"/>
	<path class="st1" d="M205.4,244.4c2.4,5.1,7.7,8.6,11.9,12.2c5.6,4.8,11.2,9.4,18.3,11.5c6.5,1.9,9.6,4,15.1,7.8"/>
	<path class="st1" d="M93.9,304.3c-4.9-0.2-10.8,3.5-15.4,4.8c-4.2,1.2-12,0.4-15.3,3.3c-3,2.6-2.7,9.5-2.5,13
		c0.1,3.1,1.9,8.7,0.7,11.5"/>
	<path class="st1" d="M180.6,275.9c-2.8,4.7-3.7,8-5.7,13c-1.4,3.6-4,11.7-3.8,16.5"/>
	<path class="st1" d="M69.1,252.5c0.7,4.2,7.2,8.2,10.2,10.9c5.5,4.9,12.6,9.1,19.1,12.6c12.4,6.6,26.1,5.3,39.4,8"/>
</g>
</svg>
