<?xml version="1.0" encoding="utf-8"?>
<!-- Generator: Adobe Illustrator 21.1.0, SVG Export Plug-In . SVG Version: 6.00 Build 0)  -->
<svg version="1.1" xmlns="http://www.w3.org/2000/svg" xmlns:xlink="http://www.w3.org/1999/xlink" x="0px" y="0px"
	 viewBox="0 0 260 344" style="enable-background:new 0 0 260 344;" xml:space="preserve">
<style type="text/css">
	.st0{opacity:0;fill:#FFFFFF;}
	.st1{fill:none;stroke:#000000;stroke-width:2;stroke-miterlimit:10;}
</style>
<g id="Layer_3">
	<rect class="st0" width="260" height="344"/>
</g>
<g id="Layer_2">
	<path class="st1" d="M212.1,69.2c0.2-0.2-11-16.3-12.4-17.6c-3.7-3.5-7.1-6.9-12-8.6c-5.6-2-9.2-5.6-14.3-8.5
		c-10.5-6-21.7-6.1-33.4-6.3c-11.2-0.2-21.4-2.4-31.6,3.2c-7.2,3.9-15.8,7.3-21.6,13.5c-2.4,2.6-7.9,4-11.1,5.9
		c-2.9,1.7-4.9,3.4-6.8,6.2c-5.8,9-9.1,19.6-11.9,29.9c-2,7.5-4.4,14.8-4.9,22.7c-0.4,6.2,0.3,12.4,0,18.6
		c-0.3,5.4-1.5,10.9-1.3,16.3c0.2,7.3-0.4,17.3,0,24.6c0.5,9-0.8,18.5-1.5,27.3c-0.7,8.8,2.4,16.9,4.1,25.2
		c1.7,8.2,5.7,16.9,9.4,24.4c8.6,16.9,15.1,34.7,33.9,42.3c9.9,4,18.8,6.4,29.3,2.8c11.1-3.8,19.9-9.8,29.2-17
		c8.5-6.6,17.9-14,24.5-22.6c9.3-12.2,14.1-26.7,20.9-40.3c1.2-2.3,4.7-14.1,5.5-19.4c1.5-9.7,2.2-20,1.8-29.9
		c-0.5-10.8-0.3-23,2.2-33.4c2.9-12.1-0.5-24.4-4.7-35.7c-3.1-8.2-7.9-16.6-15-22c-3.6-2.7-8.3-2.7-12.7-2.3
		c-5.6,0.5-10.8,0.8-16.5,0.6c-12.5-0.6-25.3-0.8-37.6-3.3c-7.8-1.6-16.6-7.7-23.9-11.7c-3.7-2-8.7,1-12.2,3.5
		c-14.1,10.2-23.2,27.4-28,43.9c-2.3,8-3.2,17.1-3.3,25.5c0,3.4-1.2,6.5-1.4,9.8c-0.2,4.7-0.5,9.3-1,13.9
		c-0.7,6.2-0.6,12.5-0.8,18.7c-0.2,5.5,0.4,11,0.4,16.5c0,2-0.3,4-0.9,5.8"/>
	<path class="st1" d="M211.2,67.9c2.7,4.4,5.3,8.4,7.7,13.1c2.8,5.5,3.4,11.7,3.8,17.8c0.4,6.6,0.6,12.5-0.3,19.1
		c-0.9,6.3-2.6,12.6-2.6,18.9c0,4,0,10.4,0,13.7"/>
	<path class="st1" d="M51.5,135c0.2-3.1-2.5-6.5-4.5-6c-2.3,0.5-2.1,3-2.3,4.9c-0.7,6.4,0.3,12.8,0.3,19.3c0,10.3-3.2,19.8-3.3,29.9
		c0,3.3,2.6,13.9,7.9,11.9"/>
	<path class="st1" d="M211.8,160c0.3-3.6,3.7-9.2,7.5-10.1c3.1,3.6,3.3,8.4,2.7,13c-1,6.9-1.1,12.3-0.2,19.2
		c1,7.1-0.5,12.9-2.4,19.8c-1.6,6.1-0.9,13.1-7.7,16.4c-4.1,2-12.3,1.6-12.1-5.1"/>
	<path class="st1" d="M68.2,256.5c0,8.2,0.3,22.2,0.7,30.3c0.3,6.5-0.2,13.4,1.9,19.5c3.8,11.5,14.7,18.2,26.6,19.3
		c18.4,1.7,37.2-3,54.8-7.4c16.9-4.3,27.8-16.1,35.7-30.8c6.8-12.7,1.6-38,1.6-51.8"/>
	<path class="st1" d="M68.2,274.9c-5.9,0-11.5,1-16.7,3.9c-6.9,3.9-14.3,7.7-20.9,12c-9.9,6.4-17,16.3-24.6,25
		c-2.2,2.6-3.8,4-5.6,6.8"/>
	<path class="st1" d="M191.9,268.4c3.8-1.6,8.1,5.6,9.1,8.4c2.1,5.8,1.4,12.3-0.8,18c-6.3,16.4-25.1,25.4-39.1,34.1
		c-19.4,12.1-47.5,7-68.9,4.3c-9.1-1.1-19.7-1.1-26.9-7.4c-6.1-5.3-8.5-12.3-8.8-20.1c-0.3-6.3-0.3-10.9,3.3-16.3
		c1.8-2.6,5.8-6.9,9.1-7.3"/>
	<path class="st1" d="M36.9,287c-11.3-0.1-24.1-3.9-36.3-3.9"/>
	<path class="st1" d="M23.5,296.1c-4.7-1.2-10.5-1.8-15.3-2c-2.2-0.1-4.9-0.3-8.2,0.6"/>
	<path class="st1" d="M57.1,293.5c-3.7,1.3-6.8,5.1-9.8,7.5c-6.5,5.4-13.5,9.9-20.9,13.7c-9.6,5-16.3,11.7-25.9,16.4"/>
	<path class="st1" d="M195.8,269c10.1-4.2,22.2-4,31.8,1.2c3.9,2.1,6.3,4.8,9.2,8.1c2.5,2.9,4.9,6,8.8,6.4c4.8,0.4,9.9-1.7,14.1-3.6
		"/>
	<path class="st1" d="M201.5,278.4c4.8-2.2,16-1.4,21.1-0.1c6.8,1.8,9,8.2,12.2,14c1.9,3.5,3.4,7.3,5.5,10.7
		c1.8,2.8,1.3,2.6,4.5,1.6c5.6-1.8,9.9-5.5,15.1-7.7"/>
	<path class="st1" d="M201.5,278.4c1,1.2,6.7,3.8,8.7,4.9c1.7,0.9,3.6,1.8,5.4,2.5c0.9,0.3,3.4,0.8,4.3,1.1c-4,2.2-8,9.8-10.4,13.7
		c-3.8,6.3-7.6,13.4-10.2,20.3c-2.4,6.5-6.7,15.1-5.6,22.3"/>
	<path class="st1" d="M43,304.3c0.1,3.8-0.9,7.4-1.2,11.1c-0.5,5.1,0.1,10.3-0.9,15.4c-0.9,4.7-2.1,8-3.1,12.6"/>
	<path class="st1" d="M107.4,313.5c2.2,3.5,5.9,5.3,9.1,6.2"/>
	<path class="st1" d="M217.7,159c-3.5,5.1-9.2,19.1-5.9,25.3c1.5,2.8,4.2,4.6,2.5,8.2c-1.5,3.1-5.7,4.9-5.1,8.9
		c0.6,0.2,1.3,0.7,1.9,0.7"/>
	<path class="st1" d="M71.7,149.9c1.8-0.5,4.3-1.9,6.2-2.5c1.9-0.7,3.7-0.9,5.7-1.1c3.9-0.4,7.2-0.3,10.9,0.9
		c3.2,1.1,11.8,3.4,11.8,8c-6.4,1-12.6,0.3-19.1-0.4c-3.2-0.3-6.4-1.2-9.6-2.1C75.7,152.1,72.9,151.7,71.7,149.9z"/>
	<path class="st1" d="M144.3,160.3c3.1-1.2,6.4-3.5,10.2-4.3c3.8-0.8,7.9-1,11.6,0c5.6,1.6,10.5,4.2,14.3,8.5
		c-2.4,0.6-4.9-0.1-7.4-0.2c-3.8-0.2-7.6-0.2-11.4-0.2c-4.4,0-8.6-0.6-12.9-1.8C147.5,162,144.8,161.4,144.3,160.3z"/>
	<path class="st1" d="M88.3,145.8c-3.5,2.5-1.8,6.7,1.8,7.8c4.1,1.2,7.9-1.2,7.5-5.6"/>
	<path class="st1" d="M158.8,155.4c-4.1,2.4-2.9,8.1,1.8,8.2c2.3,0,4.5-0.4,6.2-2c1-1.1,1.3-4,0.1-5.2"/>
	<path class="st1" d="M114.6,152.5c1.7,4.4,1,7.9-0.6,12.2"/>
	<path class="st1" d="M137.7,157c-3.3,0.8-2.4,6.6-1.3,8.7c1.2,2.3,2.7,4.1,5,5.3c0.8,0.5,2.6,1.1,3.9,2.4"/>
	<path class="st1" d="M102.5,185.7c-2.2,3.5-5.3,5.4-5.3,9.8c0.1,4,3.5,7.4,7.5,7.2"/>
	<path class="st1" d="M105.5,198.5c4.7,1.4,3.2,6.1,6.1,7.5c8.9,4.1,11.5-3.3,14.4-3c2.4,0.3,1.7,0.9,3.6,1.8
		c3.4,1.5,6.8,1.2,8.5-2.6c2.2-4.8-1.1-8.6-1.7-13"/>
	<path class="st1" d="M65.2,141.6c3.6,0.3,7.4-1.1,10.9-1.5c4-0.4,8.2-0.6,12.3-0.4c7.7,0.4,14.2,3.2,21.5,4.3
		c4.8,0.8,4-2.5,1.2-5.8c-2.2-2.6-6.2-4.5-9.3-5.4c-7.6-2-17.5-3.2-25.6-1.9c-3.5,0.6-7.4,2-10.1,4.6
		C62.9,138.7,60.1,141.2,65.2,141.6z"/>
	<path class="st1" d="M141.4,148.4c0.7,0.8,10.7,0.9,14.7,1.1c4.2,0.2,8,1.6,12,2.8c4.3,1.3,8.7,2.7,12.7,4.4
		c3.1,1.3,5.8,3.1,9.5,2.5c1.2-6.6-12-12.6-16.9-14.3c-7.4-2.5-20.5-6.7-28.3-3.8C141.4,142.6,139.4,146.2,141.4,148.4z"/>
	<path class="st1" d="M109.9,194.7c-0.3-2.6,1.3-5.2,3-7.1"/>
	<path class="st1" d="M91.2,195.4c-2.8,1.3-22.9,15-18.9,18.5"/>
	<path class="st1" d="M145.9,204.5c4.8,4.2,10.2,9.7,13.3,15.5c2.2,4.2,2.5,7.3,1.1,11.8"/>
	<path class="st1" d="M81.4,219.8c0,0,16.7-1.2,18.7-1.4c3.8-0.4,7.6,0,11.1,1.6c2.2,0.9,3.8,1,5.8,0.8c2-0.2,5.2,0,7.1,0.5
		c4,1,7.7,2.8,11.4,4c2.5,0.8,8.9,3.4,11.7,4.8c0.1,0.1,0.1,0.3-0.1,0.3c-3.3,0-6.6-0.9-9.9-1.4c-5.3-0.8-10.7-1.4-15.9-1.9
		c-5.1-0.5-10.4-0.9-15.4-2c-4.4-0.9-8.7-2.7-13.1-3.7C87.7,220.2,83.8,220.2,81.4,219.8c-0.2,0-0.3,0.2-0.2,0.4
		c1.8,1.5,4.2,2.6,6.2,4c2.9,2.1,5.7,4.3,8.6,6.4c8.3,5.9,17.6,7.8,27.6,6.3c7.5-1.1,10.4-2.5,23.6-6.5"/>
	<path class="st1" d="M104.6,249.5c4.1-1.7,10.9,0.3,14.2,2"/>
	<path class="st1" d="M52.8,191.3c0,3.9-1.8,8.9-0.3,12.6"/>
	<path class="st1" d="M57,205c-0.1,4.4-0.1,10.1,1.1,14.3"/>
	<path class="st1" d="M62.9,219.9c-0.1,4.7-0.1,10.1,1.1,14.6"/>
	<path class="st1" d="M58.4,225.5c0.1,1.7,0.3,3.7,0.8,5.3"/>
	<path class="st1" d="M69.3,232.2c-1,4.1,1.6,12.5,2.8,16.8"/>
	<path class="st1" d="M66,239.5c-0.1,1.9-0.2,4.9,0.8,6.4"/>
	<path class="st1" d="M77.4,243.7c-0.1,5.8,0.3,11.9,0.8,17.6"/>
	<path class="st1" d="M83.7,261.9c-0.8,3.6-0.3,7.3-0.3,10.7"/>
	<path class="st1" d="M87.5,258c-0.1,5.6,0.5,12.1,1.4,17.6"/>
	<path class="st1" d="M95.4,262.5c0,5.2-0.7,12.2-0.3,16.5"/>
	<path class="st1" d="M101.1,273.7c0,4.1-0.6,7.8-0.5,11.9"/>
	<path class="st1" d="M107.4,265.3c0.1,3.9-0.5,7.8-0.6,11.8"/>
	<path class="st1" d="M113.3,279c0.1,2.7-0.9,6.4-0.8,8.4"/>
	<path class="st1" d="M122.3,263c0.1,4.5-1.4,8.7-1.7,13.2"/>
	<path class="st1" d="M130.7,271.7c-0.1,3.7-1.5,9.6-2.5,12.3"/>
	<path class="st1" d="M138,259.4c0.1,4.4-1,8.9-2,13.2"/>
	<path class="st1" d="M145.5,268.1c-0.4,2.4-0.8,7.1-1.7,8.4"/>
	<path class="st1" d="M152.5,250.7c0.3,6-1.6,12.3-2.5,18.2"/>
	<path class="st1" d="M160.9,249.3c0.9,4.1-0.3,8.5-0.6,12.6c0-0.4,0-0.7,0-1.1"/>
	<path class="st1" d="M169.6,242.6c-0.1,3.6-0.8,7.3-0.8,10.9c0-0.3,0-0.6,0-0.8"/>
	<path class="st1" d="M178.3,230c0,3.4-0.8,8.4-0.6,10.9"/>
	<path class="st1" d="M184.7,225.8c0,1.3-0.1,2.5-0.2,3.8c-0.1,0.8-0.2,3.5-0.4,4.3"/>
	<path class="st1" d="M190.9,211.5c0.1,3.1,0.1,7.8-1.4,10.4"/>
	<path class="st1" d="M165.4,237c0,1.9-0.7,7.1-0.6,8.1"/>
	<path class="st1" d="M196.5,202.2c0,2.9-1.3,7.7-2,9.5"/>
	<path class="st1" d="M202.1,190.5c0.2,2.5-0.5,7.5-1.4,9"/>
</g>
</svg>
