<?xml version="1.0" encoding="utf-8"?>
<!-- Generator: Adobe Illustrator 21.1.0, SVG Export Plug-In . SVG Version: 6.00 Build 0)  -->
<svg version="1.1" xmlns="http://www.w3.org/2000/svg" xmlns:xlink="http://www.w3.org/1999/xlink" x="0px" y="0px"
	 viewBox="0 0 260 344" style="enable-background:new 0 0 260 344;" xml:space="preserve">
<style type="text/css">
	.st0{opacity:0;}
	.st1{fill:none;stroke:#000000;stroke-width:2;stroke-miterlimit:10;}
</style>
<g id="Layer_3">
	<rect class="st0" width="260" height="344"/>
</g>
<g id="Layer_2">
	<path class="st1" d="M55,124.7c0.8,2.6,0.7,5.7,1.5,8.5c0.6,2.3,1.3,4.5,2.2,6.7c4.5,10.9,7.2,21.3,9.3,32.9c1,5.4,2,10.9,3,16.3
		c0.9,4.9,3,9.2,4.6,13.9c4.1,11.5,8.1,23.2,16,32.8c6.1,7.5,15.4,11.7,23.8,15.7c13.7,6.6,31.6,7.3,45.2,0
		c8.4-4.5,16.8-8.8,23.9-15.3c4.3-3.9,8.2-8.2,12.3-12.2c2.6-2.5,4.3-5,5.7-8.3c3.7-8.9,3.5-17.7,3.9-27.1
		c0.4-7.9,1.2-15.6,1.7-23.4c0.3-4.8,0-9.7,0.5-14.5c0.3-3.3,0.3-6.7,1-10c0.7-3.4,2.7-5.4,4.1-8.4"/>
	<path class="st1" d="M51.7,123.2c-1-2.6-0.5-8.4,0.3-11.3"/>
	<path class="st1" d="M48.7,108.9c0-5.4-1-10.7-1-16.1c0-3.3,0.2-6.3,0.9-9.5c0.6-3.1,0.8-6.8,1.8-9.6c1.4-4.1,5-9,7.3-12.7
		c2.3-3.5,5.2-7.4,8-10.6c1.6-1.8,11.8-8,13.4-5.8"/>
	<path class="st1" d="M83.6,42.6c-1.1-2,2.1-7,3.8-8.8c2.2-2.4,4.4-1.8,7-0.5"/>
	<path class="st1" d="M96.6,38.8c-1.6-3.9,4.9-14.8,9.5-14.3"/>
	<path class="st1" d="M104.9,41.1c-0.7-7.6,6-15.2,12.6-17.8c6-2.4,13.8-2.8,20.3-2.5c0.3,0.3,0.4,0.6,0.2,1"/>
	<path class="st1" d="M116.2,37.8c-0.3,0.1-0.5,0-0.6-0.2c2.3-4.6,14.9-11.5,18.9-6.5"/>
	<path class="st1" d="M142.6,21c2.6,0.5,7.4,2.5,8.3,5.3c3.7-0.1,10.5-0.1,13.3,2.3"/>
	<path class="st1" d="M169.2,36.1c2.5-1.7,4.4-6.4,8.3-6.8"/>
	<path class="st1" d="M176.7,35.1c1.5-1.3,5.4-2.8,7-1.3"/>
	<path class="st1" d="M182.2,38.3c1.9-1,7.6,4.3,9.6,5.3c4.1,2.1,7.4,3.9,10.3,7.8c2.7,3.7,4.5,8.8,5.4,13.3c0.9,4.7,2.5,9.3,3.3,14
		c0.5,2.7,1.1,5.1,1.9,7.8c0.6,1.9,2.4,6.4,1.9,8.1"/>
	<path class="st1" d="M211.9,97.8c-0.1,3.5,2.1,7.3,2.3,10.9c0.1,2.8,0,5.7,0,8.3c0.1,5.1,0.3,11.7-0.8,16.7"/>
	<path class="st1" d="M67.5,81c-1.7,6-2.3,12.3-2.3,18.6c0,6.7,1.7,13.5,0,20.1c-1.6,5.9-2.5,11.5-2.7,17.6
		c-0.2,5.7,9.6,25.1,8.8,33.4"/>
	<path class="st1" d="M181,62.4c0.2,2.5,2.1,5.8,3.1,8.1c1.6,3.8,3.1,7,4.2,11"/>
	<path class="st1" d="M189.3,69c2.3,2.6,1.7,6.6,2.2,9.8c0.6,3.9,1.3,7.3,1.3,11.2c0,3.8,0.3,7.5,0.5,11.2c0.3,3.9,1.9,5.4,4.1,8.6
		c1.9,2.6,4.5,5.3,5.8,8.3c1.3,3,0.9,6.3,0.9,9.6c0,7.1,0.8,14.1,0.5,21.3c-0.3,7.9-1.7,16.6-1.5,23.9"/>
	<path class="st1" d="M83.3,78.3c-2,1.4-6.6,0.6-9,0.1c-3.8-0.9-6.8-3-9.3-5.8"/>
	<path class="st1" d="M100.9,73c-3.2,3.9-8.5,9.8-9.3,14.8"/>
	<path class="st1" d="M92.6,75.8c-3,3.1-5.5,7.7-9.3,10"/>
	<path class="st1" d="M112.7,72c-0.2-0.2-9.7,9.2-11.3,10"/>
	<path class="st1" d="M133.5,72.5c-2.3-0.8-5.1,0-7.4,0c-5.8-0.1-10.1-1.2-13.4-6.3"/>
	<path class="st1" d="M145.6,69c-5.7,0-15.7-1.3-19.6-6"/>
	<path class="st1" d="M153.6,65c-7.7-0.5-17.5-7.3-22.6-12.6"/>
	<path class="st1" d="M169.7,60.4c-3.5,1-6.9,1.6-10.7,1.1c-8.3-1.1-11.6-6.7-16.9-12.4"/>
	<path class="st1" d="M181.2,56.9c-10.1,4.1-23.2-6.6-25.6-15.8"/>
	<path class="st1" d="M90.1,61.4c2.3-6.4,12.1-10.7,18.1-6.8"/>
	<path class="st1" d="M97.4,63.7c3.8-2.5,9.9-5.2,14.6-4"/>
	<path class="st1" d="M122.2,46.4c-4.3-2.4-11.5,0.5-15.8,1.3"/>
	<path class="st1" d="M75.8,68.7c-4.2-3,2.5-11.6,4.3-14.1"/>
	<path class="st1" d="M68.3,62.4c-1.9-1.5,3.5-8.8,5.3-10"/>
	<path class="st1" d="M95.6,48.1c-3.2,0.4-9.2,5-10.3,8"/>
	<path class="st1" d="M130.8,39.1c5.7-3.5,15-1.6,18.8,3.8"/>
	<path class="st1" d="M156.1,33.8c4.2,0,9.2,3.1,11.5,6.5"/>
	<path class="st1" d="M175.7,44.4c5,1.5,8.3,3.8,9,9.3"/>
	<path class="st1" d="M192.3,56.4c5.7,3,7.4,9.5,8.3,15.3"/>
	<path class="st1" d="M197.5,80.5c2.1,3.7,4.4,7.2,5.8,11.3"/>
	<path class="st1" d="M197.5,94.8c1.9,1.5,3.4,6.4,3.8,8.8"/>
	<path class="st1" d="M59.7,78.3c-2.5,3.9-4.3,8.5-5,13.1"/>
	<path class="st1" d="M57.5,100.4c1.7,2.4-0.3,9.3-0.3,12.3"/>
	<path class="st1" d="M204.3,80c1.7,2.8,4,5.2,5.5,8"/>
	<path class="st1" d="M208.3,107.9c0.1,4,1.4,8,1.3,12.1"/>
	<path class="st1" d="M61.7,147.9c-1.9-1.2-5.4-2.2-6.9-0.3c-2.3,2.7-1.2,9.8-0.4,13c1,4,2.7,8.5,4.3,12.3
		c2.1,4.9,3.3,10.1,5.7,14.9c1.8,3.7,4.9,7.4,8.9,8.9"/>
	<path class="st1" d="M212.1,134.2c3.1-0.7,5.7-4,9.4-2.7c5.2,1.8,4.9,10.3,4.7,14.6c-0.3,6.7-3.6,12.9-5.5,19.2
		c-1.8,5.8-3.4,12-6.2,17.4c-1.2,2.3-5.2,7.6-7.8,4.9"/>
	<path class="st1" d="M212.1,146c0.5-2.2,5.4-9.6,8.3-8.8c5.4,1.4-0.7,19.7-2,22.4"/>
	<path class="st1" d="M85.1,151.3c4.9-6.2,9.8-9.3,18-8.3c4.5,0.6,10.3,3.8,12.6,7.8c-3.8,1.9-9.3,1.1-13.5,1.5
		C96.8,152.9,89.7,154.4,85.1,151.3z"/>
	<path class="st1" d="M147.3,146.8c4-7,9.2-8.6,16.7-9.3c4.4-0.4,10.8,1.3,13.6,4.7c-4.7,1.6-9,4-14,4.7
		C159.4,147.6,151.9,149.1,147.3,146.8z"/>
	<path class="st1" d="M95.9,143.3c-2.4,0.8-3.8,3-2.7,5.4c0.9,2.1,4.1,3.8,6.4,3.6c3.4-0.4,6.8-7.5,2.1-9.3"/>
	<path class="st1" d="M160.6,137.8c-3.6,2.6-1.8,9.8,3,9.2c4.2-0.5,9.9-5.5,3.8-9.4"/>
	<path class="st1" d="M116.5,137.5c2.5-2.1-5.7-4.5-8.4-5.9c-3-1.5-5.9-1.9-9.3-1.9c-9.2,0-16.5-0.4-22.9,7
		c-2.2,2.6-7.1,13.7-0.1,9.4c7.8-4.8,13.6-10.4,23.2-10.4c3.7,0,7.1,0.4,10.7,1.3C111.2,137.5,116.1,137.8,116.5,137.5z"/>
	<path class="st1" d="M139.8,132.2c-1.4-3,5.6-5.6,8.5-6.3c5.3-1.3,10.5-1.8,15.8-2.7c6.4-1.1,11.7-0.9,17.8,1.9
		c1.8,0.8,5.2,2.6,6.1,4.4c1.7,3.5-2.6,4-5.1,3.3c-8.1-2.3-14.6-4-23.2-2.8c-4.6,0.6-9.1,1.7-13.6,2.6
		C143.9,133,140.8,134.3,139.8,132.2z"/>
	<path class="st1" d="M121.7,139.3c7.9,5.9,5.7,15.3,5.8,24.1c0,3.8,0.3,7.7,0.9,11.4c0.3,2.1,0.9,5.1,0.1,7.2"/>
	<path class="st1" d="M114.2,212.8c3.9,1.4,10.1,0.1,14-0.8c2.2-0.5,4.1-1.4,6.4-1.2c1.9,0.2,3.7,0.8,5.7,0.5c2-0.3,3.7-1.7,5.6-2.1
		c1.6-0.3,3.5-0.3,5.2-0.2c1.9,0.1,3.8,0.3,5.8,0.3c1.6,0,5.7-0.4,7.2-0.6"/>
	<path class="st1" d="M135,246.7c2.1-1.7,4.5-2.7,7-1.3"/>
	<path class="st1" d="M112.2,212.3c5.4-0.6,10.1-3.5,14.5-6.4c3.2-2.1,5.3-1.4,8.8-0.6c3.7,0.9,5.6-1.4,9.1-1.6
		c2.9-0.1,5.8,0.6,8.5,1.3c3.8,1,7.4,2.1,11,3.6"/>
	<path class="st1" d="M114.2,212.8c6.8,3.5,16.1,7.4,24,7c5.2-0.3,9.5-1.9,14.2-3.9c4.3-1.8,9.4-4.4,12.3-6.9"/>
	<path class="st1" d="M132.3,229.9c3.1-3.5,11.1-2.6,15.1-1.8"/>
	<path class="st1" d="M90,233.6c1.5,2.2,1.4,8.6,1.6,11.3c0.2,2.5,0.2,2.5,0.5,5.6"/>
	<path class="st1" d="M198.3,222.4c0,5.1-0.3,13.8,2,17.8c0,5.7-3.3,11.7-6.7,16.1c-5.1,6.6-11.8,13.1-18,18.5
		c-6.3,5.4-12.8,10.4-19.3,15.4c-1.5,1.2-2.8,2.7-4.5,3.7c-1,0.6-9.2-1-12.4-2.3c-4.1-1.6-7.7-4.6-11.5-6.9
		c-5-3.1-10.2-5.7-15.1-8.8c-5.2-3.3-8.9-7.6-12.8-12.2c-2.9-3.3-7.3-8.8-7.8-13.1c-3.8-2.1-5.8,11.3-6.1,13.6
		c-0.8,7-0.4,14.2-1,21.2c-0.2,2.6-0.7,5.8,0.1,8.4c0.9,2.9,3.7,6,5.5,8.4c3.3,4.5,7.8,11.1,10,16.2"/>
	<path class="st1" d="M198.6,227.7c4.6,3.6,7.9,8.6,10.1,13.9c2.9,6.8,2.4,14.2,2.1,21.4c-0.4,8.3-1.8,16.4-2,24.7
		c-0.2,8.7,0,17.3,0,25.9c0,6.9,0,13.7,0,20.6c0-0.2,0-0.5,0-0.7"/>
	<path class="st1" d="M152.4,300.2c-2.5-0.7-8.6,0.6-9.5,3.4c-1.2,3.5,1.5,14.4,4.7,16.6c2.9,2,8.5-1.9,10.4-4.3
		c2.7-3.3,0.3-8-1.6-11.1c-1.2-1.9-2.6-4.7-5.2-4.9"/>
	<path class="st1" d="M87.6,255.2c-2.4,0.4-4.2,4.1-5.4,6c-2,3.2-3.9,5.8-7,8.1c-6.8,5-15.5,7-22.6,11.5
		c-5.8,3.6-12.4,9.7-16.2,15.3c-3.2,4.6-4.3,10.1-5.2,15.5c5.2,0,10.3,0.6,15.5,0.5c4.1,0,8.9-0.6,12.8,0c-2.6,2.4-6.1,4.5-9.1,6.4
		c-3.8,2.6-7.8,5-11.5,7.7c-2.2,1.6-2,1.3-1.4,3.9c1,3.7,2,6.4,2.7,10.1"/>
	<path class="st1" d="M205.8,236c4.2,2.9,8,8.9,12.7,11.7c5.3,3.2,12.6,3.7,17.5,7.4c2.6,2,3.5,5.6,4.5,8.6
		c1.5,4.8,2.8,9.8,4.1,14.7c1.6,5.9,4.3,12,5.2,17.9c-3,0.6-4.5,1.5-6.7,2.1c-3.2,0.9-6.4,1.5-9.6,2.3c1.8,2.6,2.6,6.1,3.6,9.1
		c1.1,2.9,2.1,5.9,3.9,8.5c0.5,0.8,2.3,2.4,2.4,3.4c0.2,1-0.4,1.1-0.9,2.1c-1.1,2.3-5.3,13.9-6.1,16.4"/>
	<path class="st1" d="M143.7,302.3c-4.9-0.1-11.3-2.5-16.4-2.6c-4.5-0.1-8.9-1.1-13.3-1.3c-3.8-0.1-7.3-0.4-11.1-0.2
		c-2.7,0.2-3.3,0.1-3.7,2.7c-0.8,5.2,0.6,12.2,1.5,17.4c1,5.6,1.3,9.5,4.4,14.3c1.3,1.9,2.8,4.9,4.8,6.2c3.5,2.1,10.4-2.1,13.1-4
		c4.7-3.4,9.4-6.9,14.1-10.2c2.5-1.8,6.7-3.6,8.2-6.3"/>
	<path class="st1" d="M153.1,300.4c2-3.8,7.9-6.8,11.2-9.5c3.5-2.9,6.8-6.4,10.5-9.1c3.7-2.6,7.7-5,11.5-7.3c1.9-1.2,3.2-2.4,5-1.2
		c2.6,1.8,4.4,9.2,5.3,12.1c1.4,4.6,2.7,9.5,3.5,14.2c1.3,7.7,1.6,13.7-0.3,21.3c-8.6,0.2-16.8-3.7-25.4-4.2
		c-4.7-0.3-12.2,0.7-15.8-2"/>
	<path class="st1" d="M107.9,316c8.3-2.5,17.3-3.4,25.6-5.5"/>
	<path class="st1" d="M115.7,327.8c1.8-2.7,6.2-4.3,8.9-6.2c2.9-2.1,5.6-4.3,8.5-6.3c1.9-1.3,7.7-4.5,9.8-5.5"/>
	<path class="st1" d="M157.7,307.4c3.6-2.9,9.9-5.5,14.1-7.1c5.6-2.1,12-4.7,18.2-4.4"/>
	<path class="st1" d="M171.9,309c4.7-1,9.5-1.6,14.2-2.7c2.4-0.5,6.5-2.3,8.1-2.6"/>
	<path class="st1" d="M146.6,293.9c-2.4,2.7-6.2,4.2-8,7.5"/>
	<path class="st1" d="M149.9,293.9c1.6-0.2,4.3,3.7,5.5,4.8"/>
	<path class="st1" d="M168.1,316.7c1.9-0.6,8.9,7.2,10.4,8.8c2,2.2,3.7,6.5,6.7,5.4c3.9-1.5,7.7-7.1,10.2-10.4"/>
	<path class="st1" d="M201.1,313.1c0.9-3,5.9-6.8,7.7-9.7"/>
	<path class="st1" d="M138,325c1.5,2.9,0.4,11,1.4,15.1"/>
	<path class="st1" d="M163.7,316.5c1.4,5.9,1.3,17.4,2.1,23.6"/>
	<path class="st1" d="M4.4,299.5c4.4-0.9,8-3.4,12.2-5.1c4.5-1.8,8.8-3.7,13.5-5.2c4.6-1.5,11.5-3.2,16-3.6"/>
	<path class="st1" d="M238,257.5c2.5,0.1,13.9,3.9,16.3,4.6"/>
	<path class="st1" d="M118.8,175.7c-1.6,2.8-2.6,6.9-1.5,10.1c0.7,2,1.7,4.6,3.9,5.4c0.7,0.2,2,0.4,2.6,0.1c1.3-0.7,0.3-1.2,0.9-2
		c1-1.2,3.2-0.3,4.1,0.5c0.8,0.6,1.7,1.5,2.4,2.1c0.9,0.8,1.4,0.9,2.6,1c2.6,0.1,5.9-0.4,8-1.9c1.6-1.1,1.7-2.8,3-4.2
		c0.6-0.6,2.2-1.5,3.2-1.3c0.9,0.2,0.9,0.9,1.7,1.3c4,2.1,5.4-4.3,4.9-6.6c-0.4-1.9-2.6-7.3-5.3-9"/>
	<path class="st1" d="M157.7,181.6c1.6,1.6,3.2,3.3,4.8,4.9c1.7,1.8,2.8,4.8,4,6.2"/>
	<path class="st1" d="M112.9,189.8c-2,0.9-4,4.1-5.3,5.9c-1.5,2-5.2,5.6-5.2,8.1"/>
	<path class="st1" d="M147.5,139.5c4.5-3.5,9.4-6.1,15.3-6.1c3,0,12.2,0.2,15.9,3.4"/>
	<path class="st1" d="M83,147.1c-0.4-2.4,9.5-6.5,11.8-7.2c2.4-0.7,6.9-1.4,11.4-0.4"/>
	<path class="st1" d="M64.1,155.7c-1.6-5.4-4.8-3.5-5.5-2.3c-1.2,1.9,0.2,5.3,0.3,7.4c0.3,3.6,1.9,7.1,3.1,10.6
		c0.9,2.4,1.4,5.1,2.6,7.4"/>
</g>
</svg>
