<?xml version="1.0" encoding="utf-8"?>
<!-- Generator: Adobe Illustrator 22.0.1, SVG Export Plug-In . SVG Version: 6.00 Build 0)  -->
<svg version="1.1" id="Layer_1" xmlns="http://www.w3.org/2000/svg" xmlns:xlink="http://www.w3.org/1999/xlink" x="0px" y="0px"
	 viewBox="0 0 260 344" style="enable-background:new 0 0 260 344;" xml:space="preserve">
<style type="text/css">
	.st0{fill:#FFFFFF;fill-opacity:0;}
	.st1{filter:url(#Adobe_OpacityMaskFilter);}
	.st2{fill:#FFFFFF;}
	.st3{mask:url(#mask-2_1_);}
	.st4{fill:none;stroke:#000000;stroke-width:2;}
</style>
<title>2</title>
<desc>Created with Sketch.</desc>
<g id="Page-2.4-_x28_venue_x2B_photos_x29_">
	<g id="home" transform="translate(-424.000000, -1507.000000)">
		<g id="speakers" transform="translate(133.000000, 1394.000000)">
			<g id="_x32_" transform="translate(291.000000, 90.000000)">
				<g id="Mask">
					<rect id="path-1_1_" y="23" class="st0" width="260" height="344"/>
				</g>
				<defs>
					<filter id="Adobe_OpacityMaskFilter" filterUnits="userSpaceOnUse" x="0.3" y="47" width="260" height="320">
						<feColorMatrix  type="matrix" values="1 0 0 0 0  0 1 0 0 0  0 0 1 0 0  0 0 0 1 0"/>
					</filter>
				</defs>
				<mask maskUnits="userSpaceOnUse" x="0.3" y="47" width="260" height="320" id="mask-2_1_">
					<g class="st1">
						<rect id="path-1_2_" y="23" class="st2" width="260" height="344"/>
					</g>
				</mask>
				<g id="Page-1" class="st3">
					<g transform="translate(-50.000000, 25.000000)">
						<path id="Stroke-1" class="st4" d="M119.3,141.9c-0.6-3.7-4.7-8.8-8.9-7.7c-7.5,12-5.8,29,0.3,41.3c2,3.9,4.5,6.3,9.1,6.4
							c0,8.8,1.9,16.2,4.7,24.5c3,8.7,4.5,16.2,12,21.9c8.5,6.4,16.6,11.6,25.9,17c6.7,3.9,14.6,8.4,22.7,9.4
							c13.1,1.5,21.9-2.4,32.3-9.9c8.7-6.3,16.7-14.6,22.2-23.7c5-8.3,5.5-18.7,6.8-28c1.6-11.8,2.5-23.6,4.7-35.3
							c2.2-11.8,1.1-24.3,2.3-36.2c0.5-5,1.1-10.9,0.4-16c-0.5-3.3-2.5-4.2-2.5-7.6"/>
						<path id="Stroke-3" class="st4" d="M133.2,225.8c0,8.8-1.3,21.4,3.2,28.9c5,8.3,13.4,16.2,21.2,22.1c4.5,3.4,9.2,6.4,13.5,9.7
							c4.3,3.3,9.8,4.5,14.8,3.1c10.9-3.1,22.1-10.7,29.1-19.8c3.4-4.5,6.3-11.2,8.7-16.3c2.2-4.6,2.5-9.2,2.5-14.7"/>
						<path id="Stroke-5" class="st4" d="M252.3,139.7c2.3-0.7,3.8-2.8,6.4-2.5c2.4,7.6-1.2,18-1.7,26c-0.4,7.6-3.4,14.8-9,19.6"/>
						<path id="Stroke-7" class="st4" d="M109.5,156.9c0-3.4-0.6-14.6,5.1-12.8c0.2,2.7,2.1,3.8,3.2,5.9c1.6,3.4,1.3,5.7-0.1,9.3
							c-1,2.5-2.6,4.2-1.7,6.9c0.7,2.2,3.1,3.4,3.9,5.8"/>
						<path id="Stroke-9" class="st4" d="M256.4,138c0-9.3,0.5-17.8,1.7-26.8c1-7.3,2.3-14.4,0.1-21.8c-1.9-6.5-2.1-13.5-5.5-19.2
							c-3.1-5.3-7.2-6.6-12.5-8.2c-4.8-1.4-8-2.5-12.7-3.6c5.9-2.4,6.9-6.2,7.4-9.7c0.9-6.1-2.8-12.3-7.7-15.7
							c-9.3-6.5-29.8-8.3-36.1-9.1"/>
						<path id="Stroke-11" class="st4" d="M217.6,57.5c5.2-2.2,8.5-7.8,7.8-13.5c-1.1-7.9-7.4-11.2-14-14.1
							c-10.4-4.6-18.2-6.3-29.6-6.8c-6-0.3-20.2,0.3-28.7,4.3"/>
						<path id="Stroke-13" class="st4" d="M174,300.7c0,3.9-0.1,7.8,0,11.7c0.1,3.6-0.2,4.6,3,5.6c2.5,0.8,7.8,2.4,10.4,1.3
							c3.1-1.3,1.9-7.6,1.9-10.9c0-7.5-0.9-8.4-8.3-8.4c-2.1,0-5.5,1.1-7.3,0.6c-1.9-0.5-3.7-2.9-5.4-4c-1.9-1.2-4.1-2.2-6.3-3
							c-6.3-2.2-12.5-4.5-18.7-6.8c-2.5-0.9-5.5-3.4-8.3-2.9c-0.8,5.5-2.9,11.6-5.4,16.4c-1.3,2.4-2.8,5.8-2.6,8.7
							c7.7,0.2,14.7,0,22.4,1.5c1.9,0.4,16.5,0.9,15.2,4.5c-0.8,2.2-14.6,0.1-16.9-0.2c-4.6-0.6-9.6-0.9-13.9-1.9
							c-2.9-0.7-4.9-2.4-6.8-4.7c-0.9,5.2,3.5,8.5,4.5,12.9c0.6,2.4,0.7,9.1,2.9,10.2c2.7,1.2,10.6-4.2,13.6-5
							c5.1-1.4,10.3-2.6,15.4-4.2c3.9-1.2,9.2-2.7,12.8-4.4"/>
						<path id="Stroke-15" class="st4" d="M227.3,236.4c0,2.2-0.5,4.9,0.1,7c0.4,1.4,1.8,2.4,2.2,3.6c0.8,2.2,0.2,6,0.4,8.3
							c0.1,3,0.5,5.7,0.9,8.6c0.8,5.4,2.2,10.8,2.4,16.2c0.2,4.5-1.8,8.7-1.8,13.1"/>
						<path id="Stroke-17" class="st4" d="M132.7,225.3c-1.3,4.1-4,8.8-5,12.7c-1.5,5.7-3.1,11.8-4.2,17.6
							c-2.3,11.5-2.3,24.1,1.2,35.1c1.2,3.9,2.1,8.4,3.7,11.9"/>
						<path id="Stroke-19" class="st4" d="M188.2,301.7c5.9-0.9,10.9-4.4,16-7c4.9-2.5,10-4.6,15.1-6.8c2.6-1.1,7-3.9,9.7-1.9
							c3.3,2.5,2.3,11,2.6,14.7c0.4,3.7,0.6,8,0.4,11.7c-12,0.7-25.5-4.5-37.1-0.9c-1.2,0.4-4,1.1-4.7,2.3c-1.8,3.1,2.8,2.1,4.9,2.1
							c7.8,0,15.4-1.8,23-3.7c4.2-1.1,9.7-4,13.9-3.8c0.4,4.2-0.2,7.4-2.1,11.9c-1.2,2.8-1.8,7.6-3.9,9.9c-1.4,1.5-1.9,1.5-4.5,1.2
							c-7.7-0.8-14.4-3.8-20.9-7.6c-3.6-2.1-8.4-3.2-11.7-5.3"/>
						<path id="Stroke-21" class="st4" d="M211.3,56.3c4.8-2.5,6.6-9.4,5.3-14.3c-1.1-4.1-3.9-7-7-9.5c-4.5-3.7-9.5-5.5-14.8-7.1
							c-2.5-0.7-5.2-1.6-8.5-2"/>
						<path id="Stroke-23" class="st4" d="M202.6,55.9c5.6-2.6,6.1-11.1,5.3-15.3c-0.8-4.5-4.4-7.7-7.5-10.8
							c-5.3-5.2-13-5.8-20.1-6.5c-3.8-0.4-9.7-0.1-14.3,0.6"/>
						<path id="Stroke-25" class="st4" d="M193.3,55.3c6.2-2.5,5.7-12,3.2-15.9c-3.8-5.9-7.8-10.1-14.4-11.9
							c-10.5-2.8-24.8-3.9-34.1,2.5c-4.2,2.9-10.6,7.9-13,12.3"/>
						<path id="Stroke-27" class="st4" d="M188.6,52c4.4-11-7.6-21.1-17.9-22.2c-11.9-1.4-22.5,2-31.8,8.8c-2.9,2.1-6.3,6.1-7.4,9.6
							"/>
						<path id="Stroke-29" class="st4" d="M180.6,51.6c0.4-14-16.6-20.1-28.6-17.6c-9.7,2-18.7,6.5-21.3,16.3
							c-1.6,5.9-2.3,10.8-2.6,17.1"/>
						<path id="Stroke-31" class="st4" d="M174.3,51c-5.6-11-22.1-14.4-32.5-9.2c-6.4,3.2-11.5,11.2-13.2,18.2
							c-0.8,3.2-0.4,8.6-0.4,11.9"/>
						<path id="Stroke-33" class="st4" d="M165.7,53.3c-3-4.1-9.2-5.5-14-5.7c-7.8-0.2-11.5,3.4-16.4,8.9
							c-5.1,5.7-7.3,11.8-7.3,19.8"/>
						<path id="Stroke-35" class="st4" d="M130.3,52c-1.5,6.3-8.9,13.4-11.7,19.3c-3.2,6.6-4.9,11-4.9,18.4
							c0,11.2-1.8,22.7-0.7,33.9c0.4,4.1,2,7.4,2,11.7"/>
						<path id="Stroke-37" class="st4" d="M158.7,55.3c-4.5,0.5-6.3-0.9-10.9,1.1c-3.9,1.6-6.9,3.1-9.9,5.7
							c-4.3,3.6-7.7,9.4-9.8,14.2c-2,4.8-6.5,8.4-7.4,13.7c-1,5.4-0.2,11.4-0.4,16.9c-0.5,11.5-1.2,21.9-1.2,33.5"/>
						<path id="Stroke-39" class="st4" d="M229.3,57.5c-2.3,1.2-4.9,2.2-8.1,3.3c4.6,5.3,8.9,9.2,13.9,13.3c3.5,2.9,5.9,6.7,9.5,9.5
							c4.7,3.6,6.6,9,6.6,14.4"/>
						<path id="Stroke-41" class="st4" d="M162.7,322.5c0,6.4,0.3,12.8,0.6,19.1"/>
						<path id="Stroke-43" class="st4" d="M189,318.6c-0.2,7.3,0.6,15.1,1.3,22.9"/>
						<path id="Stroke-45" class="st4" d="M124.8,247.2c-3.2-0.4-6.7,3.6-9.5,5.1c-4.3,2.2-8.9,1.4-13.8,1.4c-7.2,0-15.9,0-22.7,2.4
							c-9.7,3.4-18.7,9-28.2,12.2"/>
						<path id="Stroke-47" class="st4" d="M230.8,252.2c3.4,1.3,6.7,4,10.3,5c5,1.4,10.2,2,15,3.8c6.1,2.4,9.5,8.9,15.6,11.1
							c8.9,3.2,20.3-1.5,29.6,0.4c3.3,0.7,6,2.4,8.3,4.6"/>
						<path id="Stroke-51" class="st4" d="M269.4,282c0,17-0.6,35.2-4.6,51.7c-0.6,2.6-1.3,5.2-1.9,7.6"/>
						<path id="Stroke-53" class="st4" d="M77,280.9c-0.3,8.4,3.7,16.9,6.2,24.9c3.2,10.5,8.1,20.1,12.7,30.1c0.9,2,1.9,3.8,3,5.7"
							/>
						<path id="Stroke-55" class="st4" d="M107.2,340.5c-0.1-6.2,2.4-11.5,4-17.4c2.2-7.9,2.9-15.4,2.9-23.5"/>
						<path id="Stroke-65" class="st4" d="M153.8,199.2c5.8,0,11,0.5,16.7-1.2c4.2-1.3,8.6-3.5,13.2-2.5c1.6,0.3,2.7,1.5,4.3,1.8
							c2,0.3,3.5-0.4,5.3-0.7c3.5-0.5,7,1.7,10.3,2.5c5.4,1.2,10.4,0.1,15.9,0.2"/>
						<path id="Stroke-67" class="st4" d="M157.7,131.5c-6.9-0.7-12,3-17.6,5.9c3.6,2.6,9.1,5.1,15.3,5.5c5.3,0.3,12.4-2.4,15.7-3
							C168.2,135.7,163,132.1,157.7,131.5z"/>
						<path id="Stroke-69" class="st4" d="M224.7,133.4c-3.1-0.6-6.2-0.7-9.2-0.1c-4.1,0.8-6.7,3.1-9.9,5.3
							c2.9,3.1,9.4,4.9,13.7,5.1c3.2,0.2,6.4,0,9.9-0.5c2.7-0.4,5.1-1.1,8.1-2C233.5,138.3,229.6,134.3,224.7,133.4z"/>
						<path id="Stroke-71" class="st4" d="M155.5,199.4c2.5-0.1,5.8,1.3,8.4,1.8c2.2,0.4,4.3,0.4,6.5,0.4c4.8,0,9.5,0.6,14.4,0.7
							c4.7,0,9.4-0.2,14.2-0.2c3.7,0,6.4-0.9,9.8-2c2.6-0.8,5.7-0.4,8.5-0.4"/>
						<path id="Stroke-73" class="st4" d="M151.3,132.1c-1.6,0.5-2.1,4-1.8,5.4c0.5,2.6,3.5,3.9,6.1,4.1c3.2,0.2,7.3-2.3,5.8-6.7
							c-0.5-1.5-2.2-3.4-4.8-3.4"/>
						<path id="Stroke-75" class="st4" d="M216.6,133.1c-1.9,1-2.3,5.2-0.7,6.9c1.1,1.2,4.6,1.7,6.2,1.7c4.8,0,5.8-6.9,1.8-8.4"/>
						<path id="Stroke-77" class="st4" d="M154.4,199.2c2.2,0.1,5.4,2.7,7.5,3.5c2,0.8,4,1.7,6,2.4c6.1,2.2,11.2,4.1,17.6,4.4
							c5.6,0.3,10.1,1.5,15.5-0.4c3.7-1.2,6.9-4,10.3-5.8c2.5-1.3,5-3,7.5-3.9"/>
						<path id="Stroke-79" class="st4" d="M224.1,190c2.1,1.8,3.8,4.5,4,7.3c0.4,6-1.5,9.4-4.4,14.3"/>
						<path id="Stroke-81" class="st4" d="M152.7,195.7c-2.9,1.9-3.2,9.5-1.1,12.1"/>
						<path id="Stroke-83" class="st4" d="M194.2,129.1c0,8.2,0.2,16.4,0.2,24.6c0,5.4,0.9,10.7,0.9,16"/>
						<path id="Stroke-85" class="st4" d="M172.4,170.2c-2.3,0.9-2.8,3.4-2.9,5.6c-0.1,3.5,1.7,4.7,4.2,6.7"/>
						<path id="Stroke-87" class="st4" d="M199.9,182c4,0.2,7.3-1.6,7.3-5.9c0-3.4-4.4-4.4-4.4-7.5"/>
						<path id="Stroke-89" class="st4" d="M174.9,180.3c-0.9-3.6,5.6-2.4,7-1.1"/>
						<path id="Stroke-91" class="st4" d="M188.9,183.4c4.6,0.3,3.8-2.7,6.4-5.1c1.6-1.5,7.8-1.7,5.3,1.5"/>
						<path id="Stroke-93" class="st4" d="M168.8,114.2c-2.7-1.3-7.3-0.6-10.2-0.9c-7.4-0.7-16.6-4.3-22.7,1.3
							c-2.5,2.3-7.2,7.2-7.8,10.7c1.8,0.3,3.4-0.8,5.2-1.2c1.9-0.4,3.9-0.6,5.8-0.9c5.6-0.8,10.9-2,16.6-2c6.2,0,13.1-0.3,19,1.1
							C173.9,120.2,170.9,115.2,168.8,114.2z"/>
						<path id="Stroke-95" class="st4" d="M246.4,122.1c-3-7.3-11.3-8.6-18.4-8.6c-2.4,0-4.7,0.2-7.1,0.5c-2.5,0.2-5.1-0.1-7.3,1.2
							c-1.9,1.1-6.7,4-7.6,5.8c0,3,0.4,3.2,3.6,3.3c3.1,0.1,6.3-0.8,9.4-1.1c4.3-0.4,8.4-1.3,12.8-1.1c4,0.2,6.8,2.7,10,4.9
							c2.3,1.7,5.7,3.9,6.5,6.8C247.5,130.1,247.9,125.8,246.4,122.1z"/>
						<path id="Stroke-97" class="st4" d="M181.7,219.6c5,0.2,10.1-1.7,15.2-1.7"/>
					</g>
				</g>
			</g>
		</g>
	</g>
</g>
</svg>
