<?xml version="1.0" encoding="utf-8"?>
<!-- Generator: Adobe Illustrator 21.1.0, SVG Export Plug-In . SVG Version: 6.00 Build 0)  -->
<svg version="1.1" id="Layer_1" xmlns="http://www.w3.org/2000/svg" xmlns:xlink="http://www.w3.org/1999/xlink" x="0px" y="0px"
	 viewBox="0 0 260 344" style="enable-background:new 0 0 260 344;" xml:space="preserve">
<style type="text/css">
	.st0{opacity:0;}
	.st1{fill:#FFFFFF;}
	.st2{fill:none;stroke:#000000;stroke-width:2;}
</style>
<title>pukhalski</title>
<desc>Created with Sketch.</desc>
<g id="speakers" transform="translate(-443.000000, -1839.000000)">
	<g id="pukhalski" transform="translate(133.000000, 234.000000)">
		<g transform="translate(293.000000, 1582.000000)">
			<g id="bg" class="st0">
				<rect id="Rectangle-path" x="17" y="23" class="st1" width="260" height="344"/>
			</g>
			<g id="Layer_10" transform="translate(17.000000, 24.000000)">
				<path id="Shape" class="st2" d="M108.2,125.4c0.6,0.2,0.7,0.9,0.2,1.3c-3.5,2.5-11.2,4.7-14.7,5.6c-5.8,1.4-11.3,2.2-16.9,1.1
					c-0.5-0.1-0.8-0.7-0.5-1.2c1.7-2.5,5.2-8.7,10.2-10.3c5.7-1.7,10.8-0.8,16,1C104.2,123.4,106.4,124.9,108.2,125.4z"/>
				<path id="Shape_1_" class="st2" d="M176.7,122.4c0.6,0.6,0.5,1.6-0.2,2c-3.8,2.3-11.6,1.8-15.8,1.4c-4.8-0.5-11.9-0.4-16.7-1.9
					c-0.7-0.2-0.7-1.1,0-1.4c5.2-2,9.6-6.7,15.2-7.9c5.3-1.2,9,0.8,13.1,4C173.6,119.7,175.4,121.1,176.7,122.4z"/>
				<path id="Shape_2_" class="st2" d="M71.3,129c2.4-2.6,3.1-6.2,6.1-8.6c2.8-2.2,6.6-4.2,10-5.2c6.1-1.8,15.6,0,21.1,3.2"/>
				<path id="Shape_3_" class="st2" d="M142.3,113.7c11.4-5.3,21.5-8.7,32.2-0.3c1.7,1.3,6,6.7,7.6,6.4"/>
				<path id="Shape_4_" class="st2" d="M64.3,122.5c5.5-7.7,12.6-13.3,22.3-15.6c3.9-0.9,8.3-1.1,12.2-0.5c2.1,0.3,7,2.4,8.3,0.8
					c2-2.4-1.6-5.5-3.4-6.6c-3.2-2-6.7-2.2-10.4-2c-8.9,0.4-21.3,1.9-26.9,10.1c-2.2,3.1-3.9,7.1-4.4,10.8c-0.7,4.8,2.7,6.1,4.1,0.9
					"/>
				<path id="Shape_5_" class="st2" d="M141.7,102.3c-1.3-5.5,3.1-6.4,7.7-7.6c4.8-1.2,9.4-2.4,14.3-2.6c7.1-0.3,13.1,4.7,17.3,10
					c1.8,2.3,5.9,8.4,5.5,11.3c-3.3,0.5-3.9-3.8-6.1-5.5c-3.3-2.6-8.8-5.2-12.9-5.9c-8.5-1.3-17.3-0.4-25.4,0.8
					c-0.3-0.5-0.3-0.9-0.3-1.4"/>
				<path id="Shape_6_" class="st2" d="M111.2,112.3c9.5,2.5,2.5,20.7-2.9,24.3"/>
				<path id="Shape_7_" class="st2" d="M137.9,109.6c-2.9,4.4-5.6,8.6-3.3,14.1c1.9,4.6,6.6,6.7,10,9.7"/>
				<path id="Shape_8_" class="st2" d="M141.4,144.5c0,4.5,13,12.1,5.3,17.1c-5.9,3.8-7.4-11-14.4-5.1c-4.6,3.9,2.6,4.2,4.4,5"/>
				<path id="Shape_9_" class="st2" d="M121,163.2c0.5-0.5,0.5-1.3,0-1.8c-1.7-1.6-3.8-3.7-6-4.1c-2.4-0.4-4.8,1.2-4.2,3.8
					C111.8,164.7,118.7,165.2,121,163.2z"/>
				<path id="Shape_10_" class="st2" d="M107.1,198.5c3.5-2.9,8.3-5.7,12.9-6.5c4.5-0.7,8,1.8,12.3,1.2c4.5-0.6,7.9-3.7,12.6-3.8
					c3.3-0.1,9.5,1.3,11.7,2.6"/>
				<path id="Shape_11_" class="st2" d="M112.7,200.2c6.7,1.9,15.5,0.6,22.4,0.1c6.4-0.5,11.2-3.4,17.2-5"/>
				<path id="Shape_12_" class="st2" d="M86.6,121.9c-3.2,1.5-3.1,5.8-1.8,7.8c1.5,2.3,4.9,2.7,7.5,2c4.9-1.3,6-9.4,0.1-10.7"/>
				<path id="Shape_13_" class="st2" d="M159.2,114.6c-2.4,0.4-4.7,4.6-3.9,6.9c0.9,2.6,3.5,3.7,5.8,3.9c3.3,0.4,5.9,0.1,7.6-3.2
					c1.2-2.3,1-5.4-1.5-6.7"/>
				<path id="Shape_14_" class="st2" d="M162.2,118.7c-1.6,0.3-2.7,2.3-1.7,3.5C163.1,125.3,165.2,119.2,162.2,118.7z"/>
				<path id="Shape_15_" class="st2" d="M89.8,125.5c-1.5,1-0.9,4.2,1.2,3.2S91.9,124.1,89.8,125.5z"/>
				<path id="Shape_16_" class="st2" d="M210.6,143.7c1.7-2.5,5.8-3.8,7.4-1.9c2.1,2.6,2.7,9.1,3.2,12.4c0.8,6.1,0.6,12.2,0.9,18.4
					c0.3,5.4,1.3,11.7-0.9,16.8c-1.6,3.6-4.4,6.3-8.4,5"/>
				<path id="Shape_17_" class="st2" d="M217,150.1c0.3,0.9-0.7,4.8-1,6.6c-0.5,3.5-0.5,6.9-0.5,10.4"/>
				<path id="Shape_18_" class="st2" d="M53.2,156.2c-4-3.6-6.4,0.9-5.9,4.7c0.7,5.3,3.1,10.5,4.4,15.7c1.6,6.4,2.1,12.1,2.4,18.6
					c0.1,3.1,0.5,9,5,8.6"/>
				<path id="Shape_19_" class="st2" d="M90.7,70.4c4.1-0.1,7.8-1.5,12-1.2c4.5,0.3,9,1.5,13.5,1.7c5.1,0.3,10.1-1.2,15-2.6
					c3.8-1.1,7.6-2.1,11.4-2.7c1.4-0.2,7.2,0.3,7-1.4"/>
				<path id="Shape_20_" class="st2" d="M108,61c1.7,4.1,22.5-0.4,25.5-0.9"/>
				<path id="Shape_21_" class="st2" d="M124,182.9c3.5,2.6,8.3,3,11.2-0.9"/>
				<path id="Shape_22_" class="st2" d="M132.6,286.1c3.3,5.6,14.3,29.2,17.1,51.2"/>
				<path id="Shape_23_" class="st2" d="M72.5,244.6c6.4,18.8,8,29.5,8.8,44.7c0.6,11.2-0.3,24.3,2.7,35c1.3,4.7,4.5,8.6,6.6,13"/>
				<path id="Shape_24_" class="st2" d="M206.8,232.2c0,26.8,6.6,40.6,11.5,61.2c3.2,13.1,7.2,21.2,8.6,34.6
					c0.6,5.7,1.4,7.6-1.5,14.4"/>
				<path id="Shape_25_" class="st2" d="M81.7,307.4c-1.2,5.5-8.7,8.5-13.2,11.4c-7.3,4.8-15.4,8.7-23.6,11.6
					c-7.7,2.7-19.5,8.6-27.1,11.6"/>
				<path id="Shape_26_" class="st2" d="M222.8,308.6c2.2,6.2,21,11.8,27,14.5c5.1,2.3,4.5,3.3,9.4,5.8"/>
				<path id="Shape_27_" class="st2" d="M53.4,84.6c0.2-8.6,1.8-16,6.6-23c2.2-3.2,4.9-6.4,7-9.7c2.6-3.8,3.9-8.2,7.3-11.6
					c6.7-6.6,17.3-10,26.3-10.7c4.8-0.4,8.8-3,13-5c3.3-1.6,4.2-1.6,7.3-1.4c4.4,0.4,8.7,1.1,13.1,1.2c4.8,0,9.7-0.3,13.5,3
					c3.9,3.3,6.8,5.4,11.7,7.5c4.9,2.1,7,4.9,10.6,8.7c3.8,4,9.3,5.3,12.7,9.9c3.7,5.1,9.1,8.4,12.6,14.3c2.1,3.6,4.9,5.7,6.8,9.7
					c1.7,3.5,3.1,6.3,3.3,10.2c0.3,5.3,4.4,34.3,4.4,39.6c0,10.6,2.3,31,2.6,40.8c0.2,6.1,0.6,12.1,0.6,18.2c0,7-1.9,13.9-3,20.8
					c-1.4,8.8-2,18.5-3.4,27.3c-0.6,3.8-2.2,6.9-4.4,10.2c-1.8,2.7-4.3,6-6.8,8c-2.7,2-6.1,2.9-8.9,4.9c-3.1,2.2-5.2,5.4-8.4,7.4
					c-3.3,2.1-7.2,3.9-10.8,5.5c-3.1,1.4-6.7,0.7-9.6,2.3c-1.6,0.9-2.2,2.3-3.5,3.4c-1.9,1.6-3.1,1.3-5.6,1.3
					c-1.8,0-2.8,0.5-4.7,0.8c-2.3,0.3-3.3-0.7-5.4-1c-2.1-0.3-3.5,0.4-4.6,2.6c-2.5-0.6-6.4-5.3-8.6-5.1c-1.8,0.1-3.4,3.7-5.7,4
					c-2.5,0.3-4.7-1.5-6.7-2.7c-3.8-2.1-7.1-2.1-11.2-3.1c-4.2-1-5.5-3.4-8.2-6.5c-3-3.6-6.9-6.3-9.9-9.8c-2.6-3-5.1-5.5-7.8-8.3
					c-8.9-9.2-7.1-12.5-9.5-20c-2.1-6.4-5.9-19.3-5.9-19.3c-3.2-10-3.9-21.3-4.9-31.7c-1.3-13.6-2.6-27.2-3.3-40.9
					c-0.4-7.1-0.6-14.2-0.6-21.4C51.4,110.1,53.1,90.4,53.4,84.6"/>
				<path id="Shape_28_" class="st2" d="M113,139.5c-0.6,5.5-5.9,10.3-7.6,15.6c-1.8,5.7,2.3,9.9,7.1,12.8c0.4,0.2,0.3,0.8-0.1,0.9
					c-1.8,0.7-3.9,2.7-5.2,3.7c-2.6,1.8-3.9,3.6-5.9,6c-3.2,3.8-7.5,6.9-10.5,10.8c-1.8,2.4-2.2,4.6-5,3.4c-3.2-1.3-4.9-3.1-8.9-1.6
					c-2.3,0.9-3.3,3.6-5.5,4.5c-2.7,1.1-6.7-0.9-8.7-2.9c-2.8-3.2-3-7-3.4-11.1c-0.7-6.9-2.1-13.7-2.1-20.7c0-9.6-0.7-18.9-2.1-28.3
					c-1.6-10.7-0.2-21.2,0.2-31.8c0.2-4.5,1.8-14,2.2-18.5c0.2-2.7,8-20.2,8.1-20.3c4.3-6.2,11.5-11.7,17.4-16.2
					c6.8-5.2,16.2-10.3,24.7-11.8c18.9-3.4,35.4,1.8,52.1,10.3c17.9,9.1,29.3,19.9,38.2,37.7c4.2,8.3,2.5,8.9,4.7,17.8
					c1.8,8,1.7,16.3,2.2,24.4c0.3,5.6,0.6,12,1.1,17.6c0.5,4.8,2.1,8.7,2.1,13.7c0,4,0,9.1-0.9,12.2c-1,7.1-1.2,8.3-6.1,13.2
					c-2.8,2.8-7,4.9-10.9,6.1c-6.7,2-16-1.8-21.3-5.5c-2-1.4-3.5-3.3-5.5-4.6c-2-1.3-4.4-2-6.4-3.4c-3.4-2.3-5.1-5.6-9.2-7
					c-2.8-0.9-5.8-1.3-8.4-2.3"/>
				<path id="Shape_29_" class="st2" d="M125.4,207.2c1.2-0.7,3.4,8.8,3.4,11"/>
				<path id="Shape_30_" class="st2" d="M132.6,206.3c0.1,3.3,0.6,7.2,2.1,10.1"/>
				<path id="Shape_31_" class="st2" d="M162.2,190.7c3.2,4.7,4.5,13.1,4.2,18.6"/>
				<path id="Shape_32_" class="st2" d="M169.8,196.6c2.6,3.6,2.8,11.3,3,15.6"/>
				<path id="Shape_33_" class="st2" d="M97.1,198.7c0.1,6-1,12.2,0,18.2"/>
				<path id="Shape_34_" class="st2" d="M89.5,208c-0.1,5.4,0.5,10.8,1.7,16.1"/>
				<path id="Shape_35_" class="st2" d="M138.5,206.7c0.5,3.8,0.9,7.6,1.3,11.4"/>
				<path id="Shape_36_" class="st2" d="M118.3,232.5c-4,5-1.9,18.2,1.7,23.2"/>
				<path id="Shape_37_" class="st2" d="M131.4,238.8c-0.1,6.2,0.5,12.4,0.4,18.6"/>
				<path id="Shape_38_" class="st2" d="M144,229.5c8,5.4,5.4,21.3,4.2,28.7"/>
				<path id="Shape_39_" class="st2" d="M159.2,238.8c1.8,5,1.6,10.9,0.8,16.1"/>
				<path id="Shape_40_" class="st2" d="M165.1,232.9c3.2,4.6,2.9,11.9,2.1,17.3"/>
				<path id="Shape_41_" class="st2" d="M184.2,205.5c3.1,8.1,2.6,15.9,1.7,24.5"/>
				<path id="Shape_42_" class="st2" d="M193.5,202.9c1.3,4.8,2.4,10.3,1.3,15.2"/>
				<path id="Shape_43_" class="st2" d="M102.2,226.6c-2.7,5-2,18.9,3,22.4"/>
				<path id="Shape_44_" class="st2" d="M76,208.8c-1.5,6.4-0.7,14.4,0.4,20.7"/>
				<path id="Shape_45_" class="st2" d="M86.1,235c0.7,5.1,2,10.1,2.5,15.2"/>
				<path id="Shape_46_" class="st2" d="M103.9,258.7c0.5,3.8,0.9,8.5,3,11.8"/>
				<path id="Shape_47_" class="st2" d="M140.2,241.4c-0.1,5.2-0.2,11,0.8,16.1"/>
				<path id="Shape_48_" class="st2" d="M178.7,240.1c0.3,5.6-0.8,12.1-3.8,16.9"/>
			</g>
		</g>
	</g>
</g>
</svg>
