<?xml version="1.0" encoding="utf-8"?>
<!-- Generator: Adobe Illustrator 22.0.1, SVG Export Plug-In . SVG Version: 6.00 Build 0)  -->
<svg version="1.1" id="Layer_1" xmlns="http://www.w3.org/2000/svg" xmlns:xlink="http://www.w3.org/1999/xlink" x="0px" y="0px"
	 viewBox="0 0 260 344" style="enable-background:new 0 0 260 344;" xml:space="preserve">
<style type="text/css">
	.st0{fill:#161616;fill-opacity:0;}
	.st1{fill:none;stroke:#151515;stroke-width:2;stroke-miterlimit:10;}
</style>
<g id="Layer_3">
	<rect class="st0" width="260" height="344"/>
</g>
<g id="Layer_2_1_">
	<path class="st1" d="M74,223.8c0.4,4.5,3.3,11.1,5.7,14.5c3.4,4.5,7,8.8,10.5,13.2c3.1,3.7,6.9,6,10.8,8.9c4.7,3.5,7,9.2,11.6,13
		c10.1,8,24.8,9.4,36.9,5.7c3.6-1.2,6.6-3.5,10-5.3c4.1-2.2,8-4.6,12-7.1c4.2-2.6,8.9-3.9,12.8-6.9c3.6-2.8,7-5.7,9.7-9.4
		c6-8.6,12.7-17.8,13.7-28.5c0.3-3.2,1-5.9,1.9-9.1c2.1-7,3.5-14.4,5.5-21.6c1-3.2,1.3-7.4,1.3-11.5"/>
	<path class="st1" d="M125.7,197.5c-3.2,1-6.3,3.3-6,6.3c0.1,3.7,1.5,4.7,4.3,6.7"/>
	<path class="st1" d="M128.7,210.4c2.1,3.1,4.2,6.7,8.3,7.1c4.5,0.4,7.1-2.2,11.5-4.6"/>
	<path class="st1" d="M147.6,217.4c3.6-0.2,10-1.3,11.3-6.3c1.1-3.6-3.1-8-5.6-9.3"/>
	<path class="st1" d="M104.1,223.9c3.7-0.3,7.2,1.6,10.6,3.1c4.3,1.8,8.4,3.4,12.6,5.2c9.3,4.1,19.9,2,29.6,1.2
		c3.8-0.3,9.7-2.3,11.2,2.2"/>
	<path class="st1" d="M125.8,251c4.2,0.3,8.8-0.7,12.5,1.8"/>
	<path class="st1" d="M165.9,232.9c-2.5,0-10.4,3.4-13,3.9c-7.2,1.6-16,3.2-23.4,1.4c-3.8-1-6.7-3.3-9.7-5.4
		c-1.9-1.5-3.8-2.6-5.4-4.4c-1.1-1.2-2-2.3-3.4-3.1c5.3,0.3,11.6,1.3,16.8,3c2.8,1,5.3,1.6,8.3,1.6c4.3,0,7.9,1.3,12.1,2.1
		c5.2,1.3,11.2,0.1,16.4,0.7"/>
	<path class="st1" d="M84.4,141.5c3.1-0.4,11.4-2.2,14.4-2.8c11.3-2.3,19.4,1.7,22.2,2.5c1.9,0.7,4.7,1.6,6.7,3.1
		c1.4,1,1.1,3-0.5,3.3c-4.2,1-7.9,0.5-12-1.6c-6.5-3.4-13-3.5-20.1-2.8c-5,0.4-10.1,1-15,1.5"/>
	<path class="st1" d="M212.3,165.2c-2.6-2.6-5.4-5.5-8.4-8.4c-5.9-5.7-12.2-9.1-20.1-11.7c-4.4-1.5-8.4-1.7-13-1.2
		c-2.2,0.3-5.5,1.2-7.6,3c-1.1,1-0.3,2.5,1.1,2.5c6.5,0,13.6,0.2,19.8,1.5c6.2,1.3,9.7,2.4,14.9,5.9
		C200.9,158.5,211,163.2,212.3,165.2"/>
	<path class="st1" d="M71.9,160.1c1,4.6,3.5,11.4,4.6,15.9c1.1,4.1,1.9,9.1,4.9,12.3c2.8,2.6,6.9,3.8,10.5,4.6
		c4.9,1.3,9.7,2.3,14.7,2.4c4.9,0.1,10.2,0.3,15-0.3c7.2-1.1,13.7-15.6,14.1-16.2c1.9-3.4,2.1-7.1,6.6-6.9c5.6,0.2,5.9,4.1,6.6,8.8
		c0.8,5.7,1.5,10.8,4.6,15.8c2.2,3.6,5.4,5.2,9.2,6.9c4.4,2,9,2.3,13.7,2.8c5.2,0.4,9.2,1.4,14.5,0.5c4.6-0.7,7.9-1.9,11.2-5.4
		c2.8-3.2,5.3-6.7,6.9-10.5c1.5-3.5,2.4-7.6,5.4-10.3c1.4-1.3,3-1.8,3.9-3.4c1-1.4,1.3-2.4,1.4-4.1c0.1-1.1-0.5-1.8-1.6-2
		c-4.3-1-8.7-2.5-12.5-3.6c-7.8-2-15.8-2.8-23.7-3.2c-17.6-0.7-35.2,3.4-52-3.5c-4.6-1.9-9.7-2.5-14.5-3.9
		c-4.4-1.3-8.3-1.9-12.7-2.2c-5.8-0.5-12-1.5-17.9-1.5c-3.8,0-7.8,0.8-11.5,0.5"/>
	<path class="st1" d="M155.1,90.4c-0.8-5.7-2.8-11.7-8.7-14.4c-5.4-2.5-13.1-3.6-19.2-2.8c-5.8,0.8-11.2,3.8-17,4.7
		c-8.3,1.3-19.3,2.8-25.6,8.9c-5.3,5.3-5.5,11-5.2,18c0.8,11.5,3.9,23.4,2.2,34.9c-1.5,10.1-8.2,16.2-17.9,18.3
		c-7.4,1.6-15.8,3.3-20.4,9.8c-4.2,5.7,0.8,13.6-0.1,20c-1.1,7.2-8.2,10.1-11.2,16c-2.2,4.5,0.1,10.2,2.1,14.2
		c2.2,4.7,5.6,12.8,3.2,18c-1.6,3.2-5.6,7.6-10.5,10.3"/>
	<path class="st1" d="M7.4,257.4"/>
	<path class="st1" d="M161.1,88.1c-0.5-4.2-2-7.8-3.9-11.5c-2.1-4.3-4.6-11.2-9.7-12.6c-10.8-3-23,1.9-33.6,3.4
		c-10.3,1.5-27.6,0.8-33.9,11.1c-2.2,3.6-2.8,8.8-4.2,12.7c-2.2,6.7-5,13.1-6.8,19.9c-3,10.5-7.7,19.1-17.9,23.5
		c-7.5,3.5-17.9,8.7-17,18.3c0.3,4.6,0.8,8.8,0.8,13.3c0,4.4,0.3,10.4-2.3,14.1c-1.8,2.4-4.5,4.5-6.8,6.4c-2.1,1.8-5.7,3.2-7.4,5.3
		c-1.7,2.1,0,5.3,1,7.6c2.1,5.4,2.2,12.5-0.5,17.7c-2.6,4.9-13.2,11.6-11.4,32.1"/>
	<path class="st1" d="M147.6,88.8c-0.1-3.8-4.8-6-8-6.7c-6.5-1.2-10-0.5-14.2,4.5c-3,3.5-5.3,7.6-10.1,8.9
		c-7.6,2.1-15.7,2.3-19.2,10.9c-1.5,3.5-1,6.4-1.2,9.8c-0.2,4.6-1.9,9.3-3,13.8c-1.6,6.7-4.7,10.8-11.2,13.1
		c-7.7,2.8-16.4,3.3-21.8,10.4c-3.2,4.2-3,8.8-1.8,13.7c1.5,5.9,1.9,10.8-0.8,16.6c-2.5,5.3-8.4,9.7-9.1,15.8c-0.5,5,2.2,8.7,3,13.4
		c1,5.7-1.7,8.8-4.3,13.7c-1.7,3.3-4.1,7.1-4.1,11c0,2.4,1,4.6,1.7,6.8c2,6,3.7,13.4,1.1,19.5c-1.7,4.1-4.7,7.6-6,11.6"/>
	<path class="st1" d="M171.1,84.6c1.6-5.2-1.3-13-2.8-17.7c-1.1-3.3-2.5-8-5.3-10.4c-2.2-1.8-6.7-3.2-9.4-3.3
		c-7.4-0.4-14.3,3.1-21.7,1.4c-8.6-1.9-16.2-5.3-25.1-4.4c-5.9,0.7-10.1,3.8-14.7,7.2c-2.3,1.7-5.2,2.8-7.8,3.6
		c-5.8,1.7-13.1-0.2-18.7,2.3c-5.8,2.9-9.3,10-13.9,14c-1.9,1.8-2.7,5.2-4.9,7c-4,3.3-9.9,2.2-13.7,5.3c-5,4.2,0.1,13.6-5.4,19.1
		c-4.7,4.7-12.1,3.9-12.8,11.4c-0.3,3,0.1,4.9-1.6,7.5c-1.5,2.4-3.4,3.6-4.1,6.5c-1.8,7.5,6.2,17.3-2.5,41.5"/>
	<path class="st1" d="M178.7,87.9c1.2-6.4-1.3-14.5-2.2-20.8c-1-5.7-1.3-17.9-7.4-21.2c-5.2-2.6-12.2-1.3-17.4-0.4
		c-7.8,1.3-15.8,4.2-23.4,1c-5.5-2.1-10.2-4.1-16.2-4.3c-6.5-0.2-12.1,3.1-18.3,3.6c-6.7,0.7-13.1-1.4-19.8,0.4
		c-4.3,1.2-8.4,3.8-11.5,6.7c-3.4,3.2-6.3,6.5-9.2,10c-3.5,4.1-8,6.6-11.7,10.3"/>
	<path class="st1" d="M166.3,88.2c0-5.5,1.1-12.7-1.9-17.5c-2.3-3.8-8.8-10.7-13.2-12.2c-7.1-2.3-16.8-2-23.6,1.3
		c-9.2,4.5-19-2.3-28.5,1.5c-3.1,1.3-4.4,3.4-7.1,4.9c-2.4,1.4-5.4,0.6-8.1,0.8c-5.3,0.4-12.4,5.8-14.3,10.6c-1,2.1-0.8,4.7-1.4,6.9
		c-1.2,5.1-4.6,8.9-6.3,13.6c-2,4.8-4.2,8.7-9.1,11.1c-3.1,1.5-8,2.4-10,5.3c-2.5,3.6-0.2,8.4-0.8,12.3c-1.2,8.1-15.3,7-18.6,14.8
		c-2.2,5.3-1.5,11.3,0.6,16.5c1.6,3.9,2.7,5.5-0.2,8.8c-3.5,4-6.6,3.1-10.6,11.6c-0.8,15.9-8.2,13-5.7,33.3"/>
	<path class="st1" d="M74,154.1c-3.1,3-1.8,8.3-1.3,12.2c1.3,8.8-6,13.9-6.8,22.4c-0.4,5.4,2.5,10.6,2.4,15.9
		c-0.2,4.9-2.6,9.7-4.8,13.9c-2.6,5.3-5.8,9.4-7.1,15.6c-1.7,8.3,0.3,16.9,4.8,23.8c4.2,6.6,9.2,13.2,7.7,21.5
		c-1,4.6-4.6,8.6-8.4,11.2"/>
	<path class="st1" d="M77.1,178.6c0.8,4.7,1.2,7.2,1.5,9.1c0.4,3.6,0.7,7.1,0.3,10.8c-0.3,3.5-1.6,7.2-2.6,10.5
		c-1.1,2.5-2.4,4.9-2.8,7.7c-0.4,5.4,2.4,13.4,0.3,18.8c-3.1,7.5-6.6,9.8-4.5,17.2c1.3,4.5,9.7,13.4,8.6,18.2
		c-0.8,3.3-3,4.8-4.8,8.7"/>
	<path class="st1" d="M187,87.8c0.1-1.8,1.4-3.8,1.8-5.6c0.4-2.5,0.4-5,0.5-7.6c0-5.5,0.2-11-0.5-16.5c-0.7-5-1.6-9.8-3.2-14.6
		c-1.1-3-1.6-6-3.7-8.6c-3.3-3.5-8.9-6.5-13.8-5.9c-5.3,0.4-8.9,4.2-13.8,5.4c-6.7,1.7-11-1.4-16.7-3.5c-4.2-1.6-10.3-2.4-14.2,0
		c-4.1,2.5-7.1,4.4-12.2,3.8c-9.2-1.1-21.2-4.6-28.8,3.2"/>
	<path class="st1" d="M194.4,96c1.7-2.1,3.5-4.3,4.6-6.8c1.9-4.3,3.2-11.3,3.1-15.9c-0.1-2-1.1-3.5-1.6-5.3c-0.8-2.4-1-5.3-1.3-7.8
		c-0.5-4.5-1.3-8.8-4.4-12.2"/>
	<path class="st1" d="M203.6,88.8c1.8-2,3.3-4.3,4.8-6.5c2.3-3.5,5.3-4.5,9.3-4.8c7-0.7,13.7,5.1,15.9,11.4c1.2,3.2,1.1,5.4,3.3,8.3
		c2,2.5,4.9,4.4,6.7,7.2c3.9,5.8-0.6,11.6-0.3,17.9c0.2,5.1,2.7,8.2,4.6,12.5c2.1,5,0.9,7.3-0.3,11.9c-2.4,9,1.9,14.1,5.3,21.8"/>
	<path class="st1" d="M200.7,104.7c0.1,1.7,1.4,2.6,2.3,4.1c1.2,1.5,1.9,3.2,3,4.7c2,3.6,4.2,7.1,5.3,11.3
		c1.5,5.3,1.9,11.1,2.6,16.4c0.8,5.4,2,11,2.2,16.4c0.2,4.2,0.1,8.4-0.2,12.3"/>
	<path class="st1" d="M200.2,97.4c4.6-2.5,8.6-5.3,14.1-3.2c2.5,1.1,5.7,3,7.1,5.4c1.3,2.2,1,4.9,1.6,7.4c1.3,4.7,7.8,6.5,10.8,10.2
		c3.4,4.3,4.5,10.1,4.1,15.4c-0.5,5.6-3.2,10.9-3.6,16.5c-0.4,7.1,2.5,13.1,5.6,19.3c3.4,6.5,5.7,13.4,5,20.8
		c-0.8,6.6-5.9,11.7-7,18c-0.7,3.9,1.7,6,4.2,8.8c3.1,3.4,6.7,8,7.9,12.4c1,3.3-0.3,5.6-1.3,8.8c-1.2,3.8-0.7,8,2,11.1
		c1.9,2.1,2.6,3.9,3.2,6.8c0.5,3.7-0.4,7.4-0.5,11.1"/>
	<path class="st1" d="M214.2,117.1c5.3-0.3,7.7,4.7,8.4,9.1c1,5.6,0,11.5,3.2,16.4c2.4,3.8,3.5,5.9,1.8,10.2
		c-2.4,5.7-0.5,11.2,0.7,16.9c1.5,6.7,3.4,14.2-0.7,20.2c-3.3,4.9-5.3,10.6-3.7,16.5c1.5,5.2,6.7,10.8,5.5,16.5
		c-0.8,3.8-4.9,6-7,9.1c-2.6,3.9-1.9,8.4,0.1,12.5c2,3.9,5.2,7,7.6,10.6c2.3,3.3,6,8.7,6,13c0,7.4-7.2,9.6-8.8,20"/>
	<path class="st1" d="M209.1,211.9c3.9,4.9,5.3,9.8,3.7,16.2c-1.2,4.4-2.2,7.6-0.3,12.1c2.1,4.8,5,7.8,3.8,13.4
		c-1.1,4.7-4.4,8.4-6.4,12.6c-2.5,5.4-0.1,9,0.7,14.6"/>
	<path class="st1" d="M200.4,241.7c1.2,4.5,1.3,7-2.3,10.4c-1.8,1.7-4.2,3.7-4.2,6.3c0,5.4,6.5,11.3,4.9,16.7"/>
	<path class="st1" d="M88.5,249.6c1.3,4.3,2,5.3,2.6,7.9c1.3,4.7,2.1,9.6,3.1,14.4c1.4,7.9,2.4,15.8,3.6,23.7"/>
	<path class="st1" d="M196.8,179.6c-1.7-1.5-3.8-3.4-5.7-4.6c-5.2-3.2-10.5-5.4-16.4-4.6c-5.5,1-12.1,3.6-16.2,7.5
		c2.8,1.3,5.8,1.9,8.8,2.5c3.8,1,7.5,1.6,11.4,1.8C184.4,182.5,191.9,182.6,196.8,179.6z"/>
	<path class="st1" d="M125.7,174.1c-4.1,1.4-10.3,1.6-14.5,1.5c-3.7-0.2-7-1.6-10.4-3.1c-2-1-10.9-4.6-13-5.9
		c1.7-1.2,4.2-1.6,5.9-2.1c3.5-1.1,6.8-1.4,10.4-1.6c2.8-0.2,5.2,0.3,7.7,1.3c3.1,1.2,6.4,2.3,8.9,4.4
		C122.6,169.8,124.5,172,125.7,174.1z"/>
	<path class="st1" d="M174.5,170.3c-3.8,0.4-3.7,5.8-2.1,8.3c2.4,3.8,10.1,2.5,11-2c0.3-1.7,0.4-4.3-1.8-5.8"/>
	<path class="st1" d="M107,162.8c-4.5,1.8-3.9,7.4-1.7,9.6c3.1,3,9.2,2.2,10-2.3c0.2-1.7,0.3-3.7-1.1-5.2"/>
	<path class="st1" d="M78.2,162.2c-0.8,3.8-0.2,7.5,1,11.3c1.2,3.7,2.2,8.2,4.7,11.4s8.7,3.8,12.4,4.5c5.5,1,11.1,1.9,16.7,2.2
		c3.7,0.2,8.3,0.2,11.3-2.1c2.8-2.1,4.5-5.7,5.8-8.9c1.4-3.1,2-7.1,1.2-10.5c-0.7-2.2-3-3.4-4.8-4.4c-2.3-1.4-4.7-2.8-7.2-3.9
		c-7.7-3.4-16.5-3.1-24.8-3.7c-4.9-0.3-11.6-1.7-15,2.4C79,160.9,78.4,161.5,78.2,162.2"/>
	<path class="st1" d="M155.3,171.2c1.9-3,7.9-3.5,9.7-3.6c7.1-0.3,15.6-0.2,22.8,0.2c2.6,0.1,12.7,1.4,15,2.6c3,1.7,4.4,3.5,4.5,6.8
		c0.2,8.2-1.8,17.7-8.7,22.8c-3.1,2.2-7.2,2-11,2.1c-3.6,0.1-7.1,0-10.6-0.1c-5.8-0.3-12.4-1-17-4.9c-3.7-3.2-5.6-9.4-6.5-13.9
		C152.8,179.1,152.9,174.7,155.3,171.2z"/>
	<path class="st1" d="M189.9,254.7c0,4.5-0.8,9,1.1,13c2,4.4,7.5,7.1,11.5,9.2c14.2,7.8,35.7,15.6,51.3,20.3"/>
	<path class="st1" d="M83.8,258.4c-5.9,27-4.8,61.5,37,75c8.8,2.8,18.5,3.6,27.7,2.6c4.1-0.4,8.6-2.3,12.3-3.7
		c7.2-2.6,14.7-5.3,21.1-9.7c4.7-3.4,8.9-6.7,13.2-10.5c4.3-3.7,8-8,12.1-12.2c2.6-2.8,8.2-12.4,9.1-16"/>
	<path class="st1" d="M40,244.8c-16,25.9-26.8,56.5-30.1,65.5"/>
	<path class="st1" d="M251.5,301.3c-6.5,7.2-12.9,23.6-17.2,35"/>
	<path class="st1" d="M92.1,261.3C81.3,256,67.7,248.9,56,246c-7-1.8-17-1.7-24.3-0.5c-4.8,0.8-19.9,8.6-24.3,10.9"/>
</g>
</svg>
