<?xml version="1.0" encoding="utf-8"?>
<!-- Generator: Adobe Illustrator 22.0.1, SVG Export Plug-In . SVG Version: 6.00 Build 0)  -->
<svg version="1.1" id="Layer_1" xmlns="http://www.w3.org/2000/svg" xmlns:xlink="http://www.w3.org/1999/xlink" x="0px" y="0px"
	 viewBox="0 0 260 344" style="enable-background:new 0 0 260 344;" xml:space="preserve">
<style type="text/css">
	.st0{fill:#FFFFFF;fill-opacity:0;}
	.st1{filter:url(#Adobe_OpacityMaskFilter);}
	.st2{fill:#FFFFFF;}
	<!--.st3{mask:url(#mask-2_1_);}-->
	.st4{fill:none;stroke:#000000;stroke-width:2;}
</style>
<title>6</title>
<desc>Created with Sketch.</desc>
<g id="Page-2.4-_x28_venue_x2B_photos_x29_">
	<g id="home" transform="translate(-425.000000, -2015.000000)">
		<g id="speakers" transform="translate(133.000000, 1394.000000)">
			<g id="_x36_" transform="translate(292.000000, 608.000000)">
				<g id="Mask">
					<rect id="path-1_1_" y="13" class="st0" width="260" height="344"/>
				</g>
				<defs>
					<filter id="Adobe_OpacityMaskFilter" filterUnits="userSpaceOnUse" x="0.1" y="26" width="260.6" height="331.5">
						<feColorMatrix  type="matrix" values="1 0 0 0 0  0 1 0 0 0  0 0 1 0 0  0 0 0 1 0"/>
					</filter>
				</defs>
				<mask maskUnits="userSpaceOnUse" x="0.1" y="26" width="260.6" height="331.5" id="mask-2_1_">
					<g class="st1">
						<rect id="path-1_2_" y="13" class="st2" width="260" height="344"/>
					</g>
				</mask>
				<g id="Page-1" class="st3">
					<g transform="translate(-19.000000, 14.000000)">
						<path id="Stroke-1" class="st4" d="M205.1,132.8c-1.3,18.6,3.2,40.2-4.3,57.8c-6.5,15.3-13.9,30-25.4,42.1
							c-2.3,2.4-12.8,10.9-15.1,12c-3.1,1.5-9.3,4.7-12.5,5.4c-4.7,1-9.5,0.3-14.2-0.8c-10-2.4-17.4-12.5-23.8-20
							c-7.2-8.5-15.4-18.3-19.8-28.5c-4.8-11.1-7.3-21.6-7.3-33.8c0-11.9,0.6-24.7,0.6-36.7"/>
						<path id="Stroke-3" class="st4" d="M77.1,129c-2.4-14.7-6.3-28.2-5.5-43.5c0.4-8.1,0.7-17.9,4.8-25c1.4-2.5,3-4.3,3.4-7.2
							c0.5-3.8,0.6-4.7,3.4-7.6c3.5-3.5,6.6-7.6,10.5-10.7c2.6-2,10.5-5.6,9.7-9.5c1.2-0.1,2.5,0,3.7-0.1c-0.8-3.7,3.7-3.5,6.2-4.1
							c0-2.2,3.3-2.1,5-2.1c-0.1-0.6,0.2-1.4,0.1-2c1.4-0.4,3,0,4.5-0.3c1.3-0.3,1.7-1.2,2.3-1.4c1.3-0.4,5-0.8,6.4-0.7
							c2.8,0.2,3.3,2.7,5.2,0.9c1-1,0.5-2.8,2.3-2.7c1,0.1,2.3,2.6,3.6,2.9c-0.2-0.6,0-1.7-0.2-2.3c2.8-0.5,4.7,2,7.3,2.3
							c-0.1-0.4,0.1-1,0.1-1.4c2.1-0.4,3.4,1.7,5,2.7c2.6-4.3,3.5-0.8,6.5,1.8c0.3-0.6,0.8-1.1,0.9-2c2.3,0.3,3.6,2.9,5.6,4
							c2.2,1.2,2.7-0.3,3.8,0c2,0.5,3,3.1,4.4,4.3c2.1,1.8,2.6,1.2,4.9,1.6c2,0.3,2.7,0.9,4.3,2.4c1,1,1.9,2.5,3.2,3.2
							c0.5,0.3,1.7,0.3,2.1,0.6c0.9,0.6,10.7,12,12.6,14.4c2.4,3,2.9,7.7,4.3,11.1c0.8,2,2.8,4,3.4,6c1.1,3.7,0.8,8.3,1.5,12.1
							c2.4,12.2,4.1,25.1,4.1,37.6c0,2.8,0.3,5.7,0,8.4c-0.2,2-0.9,5.1-0.8,7.3"/>
						<path id="Stroke-5" class="st4" d="M83.3,117.1c-0.3-3.3,1.9-6.9,2.6-10c0.8-3.5,0.6-7.1,1.2-10.7c0.7-3.6,1-7.4,3.2-10.4
							c2-2.6,3.4-3.7,5.7-5.9c-0.5,0,0.5-0.1,0,0c3-0.5,6.2-0.8,9.3-1.1c-0.4,0.9-1,1.9-1.4,2.9c2.4,0.3,5.3-1.9,7.6-2.6
							c-0.6,0.7-0.8,1.8-1.1,2.6c4.6,0.5,9.6-2.9,14.4-3.2c-0.3,1.2-1,2.5-1.1,3.7c4.2,0.6,8.8-2.3,12.9-1.7
							c-1.8,5.3,8.4,2.1,11,1.4c3.4-0.9,7.1-1.2,10.3-2.4c2.7-1,5.2-3.4,7.9-4.1c1.7,1.1-5.3,8.8,0.2,8.8c4,0,8.1-2.1,12.1-2
							c-0.9,1.2-1.4,2.7-1.6,4.1c2.7,0.2,5.1-2.3,7.9-2.3c0.2,5.9,4.7,4.5,9.2,2.4c0.4,7.6,2.6,14.7,5.4,21.8
							c1.5,3.7,2.3,8.8,4.7,11.9"/>
						<path id="Stroke-7" class="st4" d="M96.3,211.9c1.2,4.7,1.4,11.8,1.2,16.8c-0.2,3.6-0.6,8.5-0.9,13.9"/>
						<path id="Stroke-9" class="st4" d="M197.5,197.9c-1.9,5-0.5,12.8,0,18c0.6,7.3,1.4,14.6,2.7,21.9"/>
						<path id="Stroke-11" class="st4" d="M204.9,137.5c2.1-5.5,13-11.6,15.6-3.9c2.2,6.3-0.3,13.5-2.2,19.5
							c-1.8,5.6-3.3,11.3-4.8,16.9c-1.4,5.1-3.8,9.7-9.5,9.4"/>
						<path id="Stroke-13" class="st4" d="M83.3,131.3c-1.4-2-4.7-3.5-6.8-2.1c-3.5,2.3-3.1,10.1-3.2,13.6c-0.2,5.7,2.2,10,4.3,15.1
							c1.7,4.2,2,8,2.2,12.4c0.2,3.5,1,6.7,3.8,8.9"/>
						<path id="Stroke-15" class="st4" d="M211.1,159.7c-1.8,4.4-4.1-1.6-4.5-3.3c-1-4.6,0-6.5,2.7-10.1c2.2-2.9,2-6.4,3.9-9.2
							c1.2-1.7,4-2.8,4.7-0.6"/>
						<path id="Stroke-17" class="st4" d="M82.7,147.6c-0.9-13.4-4.3-12.9-5.3-12.8"/>
						<path id="Stroke-19" class="st4" d="M96.6,242.6c0,8.6,0.1,13,0.9,21.7c0.9,10,4,18.9,7.5,28.2c6.8,17.9,15,35.3,26.7,50.3
							 M141.7,342.5c2.5-2.5,5-5.1,7.4-7.7c8-8.4,15.4-17.1,23-25.9c7-8.1,12.6-17.7,18.4-26.7c5.2-8.1,12.7-16.1,15.1-25.6
							c1.9-7.5,5.5-16.7,3.7-24.6c-1.5-6.2-6.3-12.2-11.7-15"/>
						<path id="Stroke-21" class="st4" d="M97.2,228.6C90,235,90,248.3,90.8,257c1.1,12.6,3.6,24.4,7.4,36.4
							c3.9,12.5,10.4,25.9,17.6,36.9c2.4,3.6,4.5,8.2,6.9,12.5 M152,342.7c1.9-1.7,3.8-3.4,5.7-5.1c12.2-10.9,23.5-23.3,32.4-37.1
							c11.6-17.9,27.7-38.1,27.7-60.6c0-7.3-2.8-12.6-8-17.6c-3.3-3.2-8.7-7.5-13-9.1"/>
						<path id="Stroke-23" class="st4" d="M80.7,117.5c-0.7,1.8-1,8.5,0.2,10.1c1.8,2.4,4.1,1.4,5,5c1.8,7,2.3,14.2,10.4,16.5
							c5.8,1.7,13.3,1.6,19.5,1.8c7.1,0.2,9.8-3.6,13.2-9.3c2.5-4.3,3.4-12.1,8.1-14.4c7.4-3.6,10.5,2.3,12.5,8.2
							c1.7,5,4.6,11.8,9.3,14.6c4.8,2.8,14.1,2.1,19.6,1.5c6.3-0.6,11.6-1.5,14.9-7.7c2.4-4.5,1.2-15,8.7-12.8
							c1.2,0.4,2,1.5,3.1,1.8c0.9-2.1,1-11.3-0.8-12.7"/>
						<path id="Stroke-25" class="st4" d="M111.1,189.6c2,4.3,8.3,3,11.8,2.1c4.3-1.1,8.4-2.2,12.8-1c2.1,0.6,3.4,1.6,5.8,1.5
							c2-0.1,3.5-1.1,5.3-1.5c4.2-1,8.9,1.1,12.8,1.4c2.2,0.2,10.8-0.5,13-1.6"/>
						<path id="Stroke-27" class="st4" d="M177.4,181.6c6.3-0.5,7.5,9.6,4.4,13"/>
						<path id="Stroke-29" class="st4" d="M111.9,184.9c-3.7,1.6-6.7,7.9-5,11.5"/>
						<path id="Stroke-33" class="st4" d="M80.7,118c3.2,0.2,7.3-0.9,10.6-1.2c3.8-0.4,7.8-0.4,11.7-0.6c8.9-0.5,17.7,0.3,26.1,2.4
							c7.4,1.8,15.1,2.8,22.8,0.5c8.5-2.6,17.7-2.1,26.5-1.7c5.4,0.3,10.6,0.4,15.9,0.9c3.2,0.3,8.6,2.1,10.6,1.8"/>
						<path id="Stroke-35" class="st4" d="M96,136.6c3.2-1.3,5.5-4.3,8.9-5.7c2.9-1.2,5.8-2.9,8.9-3.2c6.7-0.8,9.7,3.4,13.2,8.2
							c-4.9,1-9.7,2-14.9,2.1c-4.4,0.1-9.4-1.8-12.8-2.7"/>
						<path id="Stroke-37" class="st4" d="M185.1,136.4c-1.4-0.7-3.5-2.6-5.2-3.8c-3.9-2.8-8-4.9-13.1-4.4
							c-2.6,0.2-13.3,4.7-11.8,7.7c5.3,1.3,10.1,2.9,15.8,2.4c4.3-0.4,9.3-2,12.9-2.1"/>
						<path id="Stroke-39" class="st4" d="M137.6,131.9c-2,8.5-3.2,17.9-4.1,26.6"/>
						<path id="Stroke-41" class="st4" d="M123.7,160c-1.8,3.1-3.3,10,0.9,11.8c4.3,1.8,8.1-0.6,11.9,3.2c4.1,4.1,5.5,4.3,9.4,0.1
							c3.7-3.9,7.4-2.3,11.7-3.9c5.1-1.9,2.8-8.8,0.6-11.8"/>
						<path id="Stroke-43" class="st4" d="M172.6,190.6c-3,3.6-6.7,9.1-10.2,12.6c-7.3,7.3-16.8,9.9-27,8.3
							c-5.2-0.8-9.9-3.1-13.4-7.1c-2.4-2.8-6-7.4-9-12.1c2.8,0.1,10.4,2.5,13.8,2.6c4.2,0.2,8.4,0.5,12.7,0.3
							c4-0.2,7.8-1.1,11.8-0.9c3.7,0.2,8.3,1.3,11.8,0.7C167,194.3,170.2,192.9,172.6,190.6z"/>
						<path id="Stroke-45" class="st4" d="M110.4,128.6c-5,2.2-0.9,10,4,7.5c6.4-3.3,2.2-9-1.1-8.2"/>
						<path id="Stroke-47" class="st4" d="M166.8,128.1c-5.1,1.3-1.6,9.8,3.8,8.2c3.8-1.2,4.5-6.5,0.8-7.9"/>
						<path id="Stroke-49" class="st4" d="M113.4,193.1c3.6,3.9,9.8,7.2,13.3,8.4c4.6,1.5,9.3,2.1,14.1,2.3
							c7.6,0.3,20.2-2.8,28.2-8.8"/>
						<path id="Stroke-51" class="st4" d="M86.3,134c-2.1-16.5,6.2-15.7,19.9-15.1c8.1,0.4,19.3-0.2,24.7,5.2
							c3.1,3.2,1.8,9.7-0.1,13.1"/>
						<path id="Stroke-53" class="st4" d="M149.1,133.9c-0.2-4.6-1.5-10,3.1-11.7c5.1-1.9,9.8-2.4,15.5-1.9c7,0.7,23.4-1.6,26.2,3.1
							c1.9,3.2,2.2,11.5,1,15"/>
						<path id="Stroke-55" class="st4" d="M133.2,195.5v7.6"/>
						<path id="Stroke-57" class="st4" d="M141.4,195.2c0,1.8,0.4,6.3,0.4,8.1"/>
						<path id="Stroke-59" class="st4" d="M148.7,194.3c0.1,2.1,0.5,6.4,0.8,8.3"/>
						<path id="Stroke-61" class="st4" d="M157,194.9c0.1,0.9,0.4,4.5,0.6,5.7"/>
						<path id="Stroke-63" class="st4" d="M125.9,195.2c-0.2,1.5-0.4,4.6-0.4,6.1"/>
						<path id="Stroke-69" class="st4" d="M135.5,179.2c0,2.5,0,5-0.6,7.4"/>
						<path id="Stroke-71" class="st4" d="M146.2,180.1c-0.1,2.6,1,5.8,1.8,8.3"/>
						<path id="Stroke-73" class="st4" d="M121.5,254.2c2.2,10.4,0.3,20.8,7.4,29.8"/>
						<path id="Stroke-75" class="st4" d="M92.7,234.1c-10.4,1.4-21.1,5.9-31.5,9.1c-9.8,3-20.4,5.6-29.6,9.8
							c-4.1,1.9-8.1,4-12.1,6.1"/>
						<path id="Stroke-77" class="st4" d="M211.1,223.6c8,2.5,17.2,9,25.6,12.2c10.1,3.9,20.7,6.2,30.6,10.9
							c3.8,1.8,7.5,3.7,11.2,5.6"/>
						<path id="Stroke-81" class="st4" d="M50.8,255.5c-0.1,12.8,0.3,25.3-1.2,38.1c-1.8,15.9-3.2,31.8-4.9,47.7"/>
						<path id="Stroke-83" class="st4" d="M218.3,239.9c19.5,8.2,40.5,12.3,60.5,19.5"/>
						<path id="Stroke-85" class="st4" d="M278.8,290.9c-4.4,9.3-6.9,19.9-10.1,29.5c-1.8,5.2-3.3,10.5-4.9,15.8
							c-0.6,2.1-1.6,4.4-2.5,6.7"/>
						<path id="Stroke-87" class="st4" d="M193.5,305c-0.4,5.5-4.5,11.5-6.3,16.7c-2.4,6.9-4.4,14-6.6,21"/>
						<path id="Stroke-89" class="st4" d="M173,328.1c-2.8,2.8-4.3,7.5-6.1,11c-0.6,1.1-1.2,2.3-1.9,3.5"/>
						<path id="Stroke-91" class="st4" d="M96.2,308.9c0.4,5.3,2,10.9,3.3,16.1c1.3,5,2.4,11.6,4.1,17.6"/>
						<path id="Stroke-93" class="st4" d="M26.8,270c4,14.4-1.4,31.9-3.5,46.4c-1.3,8.7-2.1,17.4-2.6,26.2"/>
						<path id="Stroke-97" class="st4" d="M90.6,244.9c-14.1,8.2-33.9,5.6-49.5,9.3c-5.5,1.3-16.3,4-21.7,4.9"/>
					</g>
				</g>
			</g>
		</g>
	</g>
</g>
</svg>
