<?xml version="1.0" encoding="utf-8"?>
<!-- Generator: Adobe Illustrator 21.1.0, SVG Export Plug-In . SVG Version: 6.00 Build 0)  -->
<svg version="1.1" id="Layer_1" xmlns="http://www.w3.org/2000/svg" xmlns:xlink="http://www.w3.org/1999/xlink" x="0px" y="0px"
	 viewBox="0 0 260 344" style="enable-background:new 0 0 260 344;" xml:space="preserve">
<style type="text/css">
	.st0{fill:#231F20;fill-opacity:0;}
	.st1{fill:none;stroke:#231F20;stroke-width:2;stroke-miterlimit:10;}
</style>
<g id="bg">
	<rect class="st0" width="260" height="344"/>
</g>
<g id="Layer_2">
	<path class="st1" d="M50.8,156.8c-1.9,13.2-4,23.2-1.5,36.8c1.3,7.4,2.2,14,2.9,21.3c0.8,8.2,3.3,14.2,8.3,20.9
		c3.7,5,8.6,8.7,12.3,13.5c3.8,4.9,6.4,9.8,11.3,13.9c7.5,6.2,14.3,10.4,24.1,10.7c7.8,0.3,13.6-1.9,20.8-4.6
		c13.4-4.8,27.1-10.5,38.1-19.4c5-4,9.1-8.1,11.6-14.2c2.5-6.2,2.7-13,4.1-19.4c1.6-7.4,4.7-14.4,7.3-21.3c2.5-6.8,2.7-14,3.3-21.2
		c0.7-9.6,4.4-19.6,4.4-29.2c0-6-2.7-10.7-1.8-16.9c1.3-8.3,2.2-14-2.4-21.3c-3.4-5.5-8.6-4.2-14-7.7c-3.2-2.1-4.4-5.7-7.6-6.1
		c-2.9-0.4-5.8,0.9-8.5-0.9c-2.1-1.5-3-5.7-5.6-6.1c-1.8-0.2-5.5,2.7-7.7,3c-3.2,0.4-4.9-0.8-6.2-3c-0.8-1.3-2.4-2-3.9-1.7
		c-2.2,0.5-3.5-0.2-5-2.1c-0.9-1.2-2.7-1.6-3.9-0.7c-2.2,1.3-5.1,2.2-6.7,0.9c-0.9-0.7-2.3-0.8-3.3-0.1c-0.9,0.6-1.9,1-3.5,1
		c-2.2,0.1-5-0.5-6.9-1.9c-1.2-0.8-2.8-0.9-4.1-0.3c-1.7,0.8-3.2-0.9-4.8-2.7c-1-1.2-2.8-1.5-4-0.4c-1.1,0.9-2.5,1.7-3.9,2.1
		c-4,1.2-5.4-0.1-8.8-1c-2.2-0.6-0.8-1.7-3-0.4c-1.2,0.7-1,2.2-2.2,3c-2.6,1.9-5.9,0.2-8.8,1.3c-3,1.2-3.3,4.2-5.4,6.2
		c-1.5,1.3-2.8,1-3.7,3.2c-0.9,2.3,0,4.2-0.1,6.5c-0.3,4.6-2.8,9.8-3.8,14.5c-2,8.9-1.7,17.9-3.9,26.8
		C52.9,145.4,53.4,152.1,50.8,156.8"/>
	<path class="st1" d="M58.1,136.8c1.5-1.3,7.4-4.6,9.7-6c3.3-2.2,6-4.6,9.9-5.1c6.2-0.8,14,1.7,19.8,3.9c2.6,1,6.3,2.6,7.4,5.3
		c0.8,2,1.1,7.7-1.5,8.5c-2.7,0.9-7.6-3.2-9.9-4.1c-3.6-1.3-9.1-2.6-12.8-2.7c-5-0.2-9.7,2.2-14.6,2.8
		C60.9,139.9,56.5,138.3,58.1,136.8z"/>
	<path class="st1" d="M135.7,146.6c-1-0.7-1.1-2.1-0.4-3.1c2.2-3,2.8-5.8,7.5-6.6c5.7-1,11.9-0.9,17.8-0.9c9.5,0,14.5,3.9,19.2,12.1
		c1.7,2.9,2.9,6.5,3,9.9c0,0.9-0.8,1.7-1.8,1.6c-4.8-0.8-10.5-8.2-14.5-9.9c-7.8-3.2-16.7-2.1-25-2.5c-1.5-0.1-4,0.4-5.3-0.2
		C136,146.8,135.8,146.7,135.7,146.6z"/>
	<path class="st1" d="M185.4,210.7c2.9,2.2,4.8,5.1,8.8,4.9c5.8-0.2,9-4.6,11-9.5c2.8-6.8,5.6-13.6,5.8-21c0.1-3.8,0.6-10.3,0-14"/>
	<path class="st1" d="M49.9,195.3c-2.6-0.6-6.9-4.7-8.2-7.1c-2-3.8-1.3-9.3-1.3-13.6c0-4.5,0.1-9-0.3-13.5c-0.2-2.7-0.7-5.2,0.2-8.1
		"/>
	<path class="st1" d="M71.1,150.6c-0.5-0.3-0.3-1.1,0.2-1.2c5.8-1.3,12.8-3.3,18.7-1.3c3.3,1.1,9,3.6,11.8,6.5
		c0.5,0.5,0.3,1.5-0.4,1.7c-2,0.5-4.9,0.3-6.6,0.4c-3.6,0.1-7.5,0.2-10.9-0.4c-2.8-0.5-5.8-1.8-8.5-3
		C74,152.4,72.4,151.5,71.1,150.6z"/>
	<path class="st1" d="M137.1,163.2c-0.5-0.3-0.5-1.1,0.1-1.5c2.2-1.1,4-2.3,6.6-2.8c3.5-0.6,6.7-0.8,10.2,0.1
		c4.8,1.3,11.2,1.9,16.1,4.1c1,0.5,0.7,2-0.4,2.1c-1.6,0.1-3.1-0.1-4.5,0c-3.8,0.1-7.8,0.5-11.6,0.3
		C149.8,165.4,141.1,165.5,137.1,163.2z"/>
	<path class="st1" d="M68.5,145.8c2.4-0.6,5-1.6,7.4-2.1c2.6-0.6,5.3-0.6,7.9-0.5c5.4,0.2,9.4,2.5,14.3,4.5"/>
	<path class="st1" d="M137.9,157.2c7.7-7.3,17.9-1,26.5,0.7"/>
	<path class="st1" d="M132.2,164.8c1.5,4.8,8,8.7,12.7,8.3"/>
	<path class="st1" d="M78.1,162.6c3.1,0.9,6.3,0.9,9.5,0.9c3,0,9.8,0.5,12-0.9"/>
	<path class="st1" d="M110.6,160.8c-0.4,3.4-2.1,6.9-3,10.3c-0.9,3.1-3.2,6.9-2.9,10.3"/>
	<path class="st1" d="M100.6,180.3c-5.2,0-12.2,4-8,10.2c2,2.8,5.5,3.3,8.1,5.4c2.1,1.6,3.2,3.7,4.6,5.8c3.7,5.9,9.5,3,14.7,0.7
		c2.8-1.2,5.6-2,8.5-2.4c2.5-0.4,6.1-1.1,7.6-3.7c3.5-6.3-7.4-11.2-10.7-4.9"/>
	<path class="st1" d="M128.3,154.8c-4.2,2.1-5.2,8.4-5.7,12.5c-0.7,5.4-0.9,10.9-1.5,16.3"/>
	<path class="st1" d="M84.8,186.8c-5.3,2.6-12.5,7.8-14.5,13.6c-2.5,7.3,1.5,16.9,4.9,23.2"/>
	<path class="st1" d="M160.8,213.9c0.1,1.6,1.7,3.1,2.2,4.8c0.8,2.8,0.3,4.7-1.2,7.1c-3.9,6.6-8.6,12.7-12.7,19.3"/>
	<path class="st1" d="M151.9,220.5c-6.1-2.8-14.5-5.5-21.3-6.9c-4.5-0.9-8.4-1.6-13-1.1c-5.1,0.5-9.5,0.4-14-2.3
		c-7.4-4.6-25.4-1.3-28.1-1.3c-0.1,0-0.2,0.1-0.1,0.2c5.5,9.9,13.1,20.7,24.1,24.7c13.4,4.8,28.7,6.6,41.3-1.2
		C144.1,230.6,151.9,224.3,151.9,220.5z"/>
	<path class="st1" d="M96.6,241.8c2.7,0.3,5.4,0.3,8,0.9c2.5,0.5,5.9,1.8,7.8,1.9"/>
	<path class="st1" d="M151.9,220.5c-4.5-1.9-11.4-1.5-16.3-1.5c-10.4,0-21.8,0.8-31.6-2.8c-4.8-1.8-9.5-3.7-14.6-4.5
		c-3.6-0.5-9.7-3.1-13.1-2.7c1.3,2.9,5.2,5.7,7.9,7.4c5.7,3.7,10.9,7.6,17.6,9.4c11.5,3,27.7,5.9,38.6-0.1
		C142.6,224.6,151.3,222.6,151.9,220.5"/>
	<path class="st1" d="M110.4,218.3c-0.1,2-0.6,6.8-0.8,8.6"/>
	<path class="st1" d="M119.2,219.2c-0.5,2.8-0.4,7.5-0.9,9.5"/>
	<path class="st1" d="M126.2,219.3c-0.4,2.5-0.6,6.6-0.8,9.2c0.1,0.4,0.2,0,0.5,0"/>
	<path class="st1" d="M133.9,219.3c-0.4,2.6-0.7,6.2-0.7,8.3"/>
	<path class="st1" d="M140.8,219.2c-0.3,2.1-0.2,4.6-0.4,6.6"/>
	<path class="st1" d="M101.8,216.3c-0.4,1.8-0.9,8-1.1,8.9"/>
	<path class="st1" d="M95.4,213.9c-0.9,2.5-0.8,6.1-1.7,8.7"/>
	<path class="st1" d="M87.9,212c-0.1,1-0.4,4.8-0.7,6.8"/>
	<path class="st1" d="M61.4,237.2c1.5,3.1,0.1,9.2,0,13c-0.2,5.2-0.9,10.5-1.5,15.6c-1,9.9-3.4,18.9-6.3,28.2"/>
	<path class="st1" d="M101.1,287.2c2.1,9.4-2.1,24.4,6.6,30.6"/>
	<path class="st1" d="M137.7,282.6c-1.9,6.1-1.6,14.1-2.7,20.6c-1.8,10.4-6.8,19.2-9.9,29"/>
	<path class="st1" d="M176.6,240.4c-0.5,4.7-1.8,10.6-2.3,14.5c-1,7.1-2.8,14.2-3.2,21.4c-0.5,8.1-2.8,22.3,0.4,29"/>
	<path class="st1" d="M60.1,266c-5.3,6.1-12.3,10.2-19.6,13.8c-5.4,2.7-11.4,6.2-17.3,7.3c-4.5,0-4.2,6.5-4.6,9.9
		c-0.6,7.7,3.3,13.7,7.8,19.6c5.7,7.7,14.2,15.2,19.4,22.5"/>
	<path class="st1" d="M172.3,266c-0.4,5.5,4.1,16.3,7.9,20.1c4,4.1,11.2,7.1,14.1,11.6c1.5,3.2,1,4.9,0,8.8
		c-1.6,5.6-6.7,9.3-10.9,12.8c-4.8,4-8.9,8.6-13.5,12.8c-2.1,2-5,5.3-7.7,7.4"/>
	<path class="st1" d="M23.2,287.2c-9.9-0.1-21.3,1.6-16.7,14.7c5,14,14.4,27.9,24.5,37.6"/>
	<path class="st1" d="M191.6,294.6c3.2,1.7,9.4,4.1,12,6.7c1.7,1.7,4.8,5.9,5.1,7.9c1,6.1-8.1,13.1-11.9,16.8
		c-3.8,3.7-11,9.4-13.1,12.7"/>
	<path class="st1" d="M207.4,306.4c4.4,3.5,12.3,7.6,17.2,10.6c4,2.6,8.7,4.7,12.8,6.8c5,2.7,9.7,5.2,14.6,8.1"/>
	<path class="st1" d="M192.8,202.1c6.2,5.8,12.3-8.4,12.6-12.6"/>
	<path class="st1" d="M51.3,155.9c-1.7,2.4-6.3,1.7-6.5-0.8c-0.1-0.6-0.6-1.1-1.2-1.1c-3.3,0-6.2-3-4.7-6.2c0.4-0.8-0.1-1.7-0.9-2
		c-1.8-0.6-3.6-1.5-3.7-3.4c-0.1-0.9,1.6-1.7,1.8-3c0.2-2.4-1.6-2.9-2.3-4.6c-0.9-2.3,0-5.1-0.6-8c-0.3-1.2-2.2-3.4-2.1-4.7
		c0.2-1.6,3-2.9,3.2-5c0.4-3.7-3.5-5.6-2.8-8.7c0.3-1.1,1.6-2,1.8-3.5c0.3-1.9-0.9-3.8-0.6-5.6c0.1-0.8,1.5-0.8,1.7-1.9
		c0.4-1.9-0.7-4.6,0-6.3c1.5-3.7,6.4-3.4,6.7-8c0.3-5.3-5.8-11.3,0.3-14.9c1.6-0.9,3-0.4,3.8-2c0.5-0.8,0.3-2.2,0.1-3.4
		c-0.3-1.8,0.8-3.3,2.5-3.7c0.2,0,0.4-0.1,0.5-0.1c1-0.3,1.9-1.1,2-2.3c0.3-2.5,0.8-6.1,1.9-7.4c1.5-1.7,4-0.4,5.7-1.8
		c2.7-2.2,2.9-8.1,6-10.3c2.3-1.6,5.3,0,8-0.3c4.1-0.5,3-3.3,5.7-6.5c2.5-2.8,3.6-1.8,7.6-1.2c7.4,0.9,5.1,0,8.5-5.3
		c3.3-5.1,3.7-2.5,8.1-0.6c5.6,2.4,3.2-3,8.2-4.6c2.6-0.8,4.4,0.6,6,2.2c1.6,1.5,3.9,1.5,5.6,0.1c2.8-2.3,6.8-3.6,9.8-1.7
		c2,1.2,2.2,3.9,4.8,4.5c3,0.6,4.2-2.1,6.6-3.3c5.8-3,6.2,4.5,11.7,5c2.6,0.2,4.7-1.9,7.4-1.8c3.3,0.1,4.2,2.3,6.6,3.9
		c2.6,1.8,3.8,1.5,6.9,1.8c3.8,0.3,4.1,2,7.4,3.5c1.8,0.8,3.4,0.3,5.2,0.9c2.8,1,3.1,3.4,4.8,5.7c2.8,3.9,8.2,3.4,10.4,8.1
		c1.7,3.5,1,4.5,4.4,7c2.6,2,3,2.2,3.6,5.4c0.6,2.8,0.2,2.9,2.4,4.6c1.9,1.5,4.6,1.2,5.9,3.5c1.1,2,0,4.9,0.9,6.6
		c1,1.9,3.9,2.1,5.1,3.9c1.3,2.3-0.3,4.4,0.4,6.5c0.7,2.2,3.1,2.9,3.8,5.1c0.7,2.1-0.8,4.8,0.3,6.7c0.9,1.7,3.2,1.8,3.8,4
		c0.6,2.2,0.1,3.4,1.2,5.6c1.5,2.5,2.7,2.7,2.2,5.8c-0.5,3.3-1.6,3.8-0.5,7.4c0.8,3,1.5,3.3,0.1,6.5c-1.3,3.2-2.3,5-2.1,8.6
		c0.1,3.2,0.5,3.2-1.5,5.6c-2.6,3.2-6.3,4.8-8,8.9c-1,2.7-1,5.7-2.2,8.3c-1.7,3.8-3.5,11.5-7.6,13.1c-1.5,0.5-3-0.2-4.6,0.5
		c-1.7,0.8-1.8,3-2.9,3.8c-1.9,1.2-4.6,0.8-6.5,2.5c-0.8,0.7-2.9,3.2-3.6,4c-0.9,1-1.3,2.4-2.2,3.2c-0.8,0.8-2.2,0.8-3.2,2.1"/>
	<path class="st1" d="M65,52.8c-5.7,5,3.5,13.2,6,6"/>
	<path class="st1" d="M91,51c-0.5,7.9,9.8,8.7,8.8,2.1"/>
	<path class="st1" d="M119.8,40.9c0.6-2.3,4-2.8,6.2-1.9c3.6,1.7,2.9,6,2.6,9.3"/>
	<path class="st1" d="M119.8,56.6c-2.2,5.9,4.8,7.7,9.1,5.6"/>
	<path class="st1" d="M143.7,54.2c-0.5,5.4,8.1,12.2,11.6,6"/>
	<path class="st1" d="M160.9,42.9c1.1-2.1,6-2.8,8.2-1.6c3.5,2,2.7,6.9,2.7,10.4"/>
	<path class="st1" d="M177.8,65.1c-2.5-0.8-3.2,2-2.1,4.1c2,3.6,8.6,3.5,11.6,1.9"/>
	<path class="st1" d="M196.4,61.9c-0.6,7.5,1.1,11.3,9.5,8.4"/>
	<path class="st1" d="M199.9,89.4c-1.2-6.5,14.4-1.8,6,6"/>
	<path class="st1" d="M223.8,108.3c-6.1,1.8-2.2,8.6,1.5,10.6"/>
	<path class="st1" d="M208,118.5c1.7-1.3,4.1-0.6,5.7,0.8c3.7,3.5-0.1,7-3.2,9.3"/>
	<path class="st1" d="M215.3,139.5c-4.7-4.2-11.1,9.2-3.2,9.5"/>
	<path class="st1" d="M44.2,79.1c1.2-6,11.5-7,10.9,0.7"/>
	<path class="st1" d="M64.7,74.5c1.3-6.6,7.6-2.8,6.6,3.5"/>
	<path class="st1" d="M50.3,98.1c0-2.8-2.7-3.5-4.7-1.6c-3.7,3.8,1.7,7,5,8.2"/>
	<path class="st1" d="M43.9,112.2c-5.2-1-6.8,9.8,1.8,8.1"/>
	<path class="st1" d="M46,131.1c2.2-2.9,7.6,3.8,1.5,6.3"/>
	<path class="st1" d="M159.5,78.1c-1.3-6.4,10.2-3.1,7,2.5"/>
	<path class="st1" d="M110.5,65.2c-3.7,0.7-1.9,5.9-0.6,6.8c3.1,2.4,6.3-0.6,9.2-1.3"/>
	<path class="st1" d="M188,85.1c-2,0.5-3.1,3-2.6,5c1,3.9,6.3,3.5,9.3,2.5"/>
	<path class="st1" d="M203.7,103.8c-3.8,2.6,2.4,9.3,4.9,4.9"/>
	<path class="st1" d="M216.5,92.5c4.2-2.5,5.8,5.3,2.5,7.4"/>
	<path class="st1" d="M204.4,158.9c-3.8,5.4,3,10.6,8.1,4.9"/>
	<path class="st1" d="M119.7,121.4c0.6,4.8-1,9.5-1.1,14.3"/>
	<path class="st1" d="M80.7,147.4c-1.7,2.1-2.6,5.4,0,7.9"/>
	<path class="st1" d="M90,147.8c1.9,2.5,2.4,6.6-0.2,8.7c0.1-0.1,0.3-0.2,0.4-0.3"/>
	<path class="st1" d="M145.8,158.7c-2.3,1.2-3,5.6,0,6.5"/>
	<path class="st1" d="M154.5,159.3c1.8,1.3,1.3,5.1-1.7,6.3"/>
	<path class="st1" d="M141.7,36.2c-3.6-2.2,5.9-10.5,7.3-1.2"/>
	<path class="st1" d="M100.9,40.6c-1.6-2.1-1.9-6.9,0.8-8.5c2.6-1.5,4.2,0.6,6.4,2.1"/>
	<path class="st1" d="M83.8,39.4c-5.6,0.5-1.6,10.9,4.5,4.5"/>
	<path class="st1" d="M83.5,69c-2.1-4.9,6.8-8.4,7.7-3.6"/>
	<path class="st1" d="M225.9,130.1c1.1-1.9,3.5-0.2,3.6,2c0.1,1.6-1.5,2.9-2.5,3.8c-0.2,0.2-2.8,1.2-1.1,0.6"/>
	<path class="st1" d="M140.2,195.7c1.8,1.9,3.4,3.5,5.5,5.2c6.2,5,11.7,17.7,11.8,20.1c0.2,2.7-1.8,4-3.5,5.9
		c-5.2,5.2-8.9,12.7-13.7,17.5"/>
</g>
</svg>
