<?xml version="1.0" encoding="utf-8"?>
<!-- Generator: Adobe Illustrator 21.1.0, SVG Export Plug-In . SVG Version: 6.00 Build 0)  -->
<svg version="1.1" xmlns="http://www.w3.org/2000/svg" xmlns:xlink="http://www.w3.org/1999/xlink" x="0px" y="0px"
	 viewBox="0 0 260 344" style="enable-background:new 0 0 260 344;" xml:space="preserve">
<style type="text/css">
	.st0{opacity:0;fill:#FFFFFF;}
	.st1{fill:none;stroke:#000000;stroke-width:2;stroke-miterlimit:10;}
</style>
<g id="Layer_3">
	<rect class="st0" width="260" height="344"/>
</g>
<g id="Layer_2">
	<path class="st1" d="M60.7,167.4c0.4,12.2-1.7,23.9-1,31.8c0.3,3.3,1,6.7,1.5,10c0.7,4.4,1.2,8.8,2.9,12.9c1.2,3,2.4,6.3,4.1,9.1
		c1.7,2.9,4.1,5.4,6.1,8.1c1.1,1.5,1.8,3,2.7,4.5c1.8,2.8,4.6,5.7,7,7.8c3.9,3.5,6.9,6.5,11.5,8.9c4.4,2.3,8.6,6.4,13.3,7.6
		c3.3,0.9,6.7,1.8,10,2.4c7.1,1.3,15.5,2.4,22.6,1c3.6-0.7,7.8-1.4,11.2-3c3.8-1.8,7.3-4.4,10.7-6.9c4.7-3.4,8.4-6.5,11.9-11.1
		c2.9-3.8,6.1-7.5,8.9-11.3c5.1-6.9,9.8-15.4,12.4-23.6c1.1-3.4,1.4-6.9,2.4-10.4c1.6-5.8,3.4-11.6,3.5-17.6c0-1.6,0-5.8,0-7.4"/>
	<path class="st1" d="M113.8,96.4c-9.2,0-16.7-0.2-23.4,7.1c-3.8,4.1-7,9.6-8.9,14.8c-0.9,2.6-1.6,5.1-2.6,7.7
		c-2,5.2-1.8,11.1-3.4,16.4c-1.6,5.3-4.5,10.8-7.8,15.3c-4,5.4-7.9,10.9-12.3,16c-4.3,5-9.3,9.4-13.6,14.4"/>
	<path class="st1" d="M129.8,91.3c5.8-0.9,9.7-4.3,14.7-6.9c8.2-4.1,16.7-4.7,25.7-4.3c7.3,0.3,15.3,1.6,22.4-0.8
		c7.8-2.7,14.6-7.4,20.6-13"/>
	<path class="st1" d="M140,93.6c1.9-1.9,5.5-3,7.9-4.2c5.7-2.9,11.5-4.6,18-3.8c4.7,0.6,9.2,2.1,14.1,2.2c3.5,0.1,6.6-0.5,10-1.2
		c5.7-1.2,11.1-5.1,17-5.2c6.3,0,17.2,1.4,20.2,17.7"/>
	<path class="st1" d="M153.6,94.9c11-12.3,30.6,0.2,43.3,1.8c3.7,0.5,7.7,0.9,11.4,0.4c3.8-0.5,7.3-1.4,11.2-1.2
		c5.9,0.3,15.1,5.6,12.5,22.2"/>
	<path class="st1" d="M161.6,97.8c2.2-1.2,6.2-0.3,8.5,0.3c8.5,2.1,15.9,4.4,23,9.5c3.2,2.3,5.8,5.8,9.2,7.8
		c3.9,2.4,8.7,2.8,12.9,4.4c3.4,1.3,7.1,3.6,9.5,6.5c2.2,2.6,3.2,5.9,5.6,8.5c1.9,2.1,4.9,3.6,6.5,5.9c1.8,2.5,2.7,6.1,3,9.1
		c0.3,2.9,0.6,8.6-2.9,13.2"/>
	<path class="st1" d="M172.8,105.6c5.5,2.4,10,4.6,12.9,10c3,5.6,5,10.2,5.5,16.6c0.6,7.1,2.7,12.9,5.7,19.3c2.8,6,2.1,13.6,3,20.1
		c0.6,4.5,3.6,8.9,3.3,13.5"/>
	<path class="st1" d="M60.1,169.7c-2.6,7.9-4.9,16.1-11.6,21.7c-5.4,4.6-14.4,3.7-20.6,1.7"/>
	<path class="st1" d="M203,182.2c0.2,1.4,1.5,5.5,1.9,6.9c0.9,3.3,1,6.3,1.3,9.6c0.4,3.9,2.4,6.9,4.9,9.8c2.1,2.4,5,4.5,6.5,7.3
		c1.6,3,3.1,6.8,2.6,10.3c-0.5,3.3-2.5,6.1-2.7,9.6c-0.3,4.6,1.1,9.3,1.5,13.8"/>
	<path class="st1" d="M47,192.5c-0.7,6,2.1,11.6,5.1,13.7c2.2,1.6,6.4,3.9,9,2.5"/>
	<path class="st1" d="M209.6,207.8c-3.1,3-5.5,6.6-8.4,9.8c-1.9,2.1-3.4,2.7-6.2,3"/>
	<path class="st1" d="M117.5,168.7c-1.3-2.6-5.4-4.1-7.9-5.4c-5.3-2.7-10.8-2.7-16.4-1.8c-4.8,0.7-7.4,2.8-11.2,5.7
		c9.5,1.7,19.2,4.9,29.1,3.7C113.5,170.6,115.2,169.6,117.5,168.7z"/>
	<path class="st1" d="M149.8,170.8c3.3-2.4,5.9-4.3,9.4-5c2.6-0.5,5.5-0.6,8.2-0.5c3,0.2,6.3,0.6,9,2.1c1.9,1,3.3,2.5,5,3.6
		c-2.9,2.7-8.2,3.5-11.2,3.7c-5.4,0.3-10.2,0-15-2.1C153.6,171.8,151.5,171.2,149.8,170.8z"/>
	<path class="st1" d="M120.8,156c0-3.1-1.5-4.6-4.4-5.8c-3.4-1.4-7.8-2-11.5-2.5c-6.7-0.9-15.3-2.6-21.7,0.2
		c-3.7,1.6-6.4,3.7-9.2,6.4c2.3,0,4.2-1.7,6.3-2.5c3.2-1.3,6.5-1.9,9.9-2c7.4-0.3,14.6,0.8,21.4,3.9
		C114.5,154.8,117.7,155.8,120.8,156z"/>
	<path class="st1" d="M147.8,157.9c-0.4-3.5,2.8-3.8,5.4-4.5c4.5-1.1,9.1-1.6,13.6-2.8c7.6-2,16.2-2.8,22,3.6
		c1.2,1.3,2.4,4.1,2.6,6.1c-1.3-1.9-3.8-4.2-4.8-4.9c-2.8-2-5.3-2.6-8.8-2.7c-7-0.2-13.5,1.9-20.1,3.8
		C154.4,157.5,151.2,158,147.8,157.9z"/>
	<path class="st1" d="M118.2,174c-3.8,2.3-7.1,4.3-11.5,5.4c-4.3,1.1-8.5,0.8-12.8,0.6"/>
	<path class="st1" d="M148.1,175.3c5.9,7.1,16,8.7,24.8,8.5"/>
	<path class="st1" d="M96.7,161.1c-3.5,0.7-3.9,7.4,0,9.1"/>
	<path class="st1" d="M103.8,161.4c1.9,0.7,3.1,2.5,2.6,5.3c-0.4,2.5-4.6,3.6-6.7,4"/>
	<path class="st1" d="M162.4,165.3c-4.8,2.1-2.4,9.1,2.8,9.4"/>
	<path class="st1" d="M167.4,165.4c2.1,0.4,3.9,2.7,3.7,5.1c-0.3,3.2-3.2,4-5.9,4.3"/>
	<path class="st1" d="M78.4,163.9c2.4-1.3,4.3-3.5,7-4.5c2.3-0.9,4.4-1.5,6.9-1.5"/>
	<path class="st1" d="M148.1,167.4c3.3-3.7,8.9-5.5,13.8-5.3"/>
	<path class="st1" d="M102.2,200c-4,3.3-8.3,6.7-12,10.5c-1.9,1.9-3.9,3.7-4.4,6.3c-0.6,2.6-0.2,5.2-0.2,7.8"/>
	<path class="st1" d="M157.6,203.6c4.4,3.5,8.5,8.4,11.2,13.4c2.2,4.1,1,8.4,1.3,12.7"/>
	<path class="st1" d="M92,219c10.2,0.7,18.1,5.3,28.1,6.7c9.2,1.2,19.5,1.7,28.9,0.8c4.1-0.4,8.8-1.5,12.9-1.4c0,0-6.7,5-10,6.1
		c-2.1,0.7-3.6,1.3-5.8,1.5c-2.6,0.2-5.2,0.5-7.9,0.7c-6.7,0.3-13.1,0-19.6-1c-3.1-0.4-5.8-0.7-8.7-1.9
		C107.2,229.3,94.7,222.3,92,219"/>
	<path class="st1" d="M92,219c4.5,0,10.7-0.9,15.2-0.7c4.8,0.3,9,1.2,13.5,2.3c8.8,2.1,18.6,0.9,27.6,1.4c4.6,0.2,9,2.8,13.5,3.1"/>
	<path class="st1" d="M92,219c3.3,4.5,7.7,10.6,9.6,12.1c4.4,3.6,10.7,6.4,16.3,7.6c6,1.3,13.1,1.7,19.1,1.1
		c2.8-0.3,5.8-0.2,8.5-1.1c2.1-0.7,4.2-1.9,6.2-3c3.7-2,7.3-7.5,10.1-10.6"/>
	<path class="st1" d="M119.8,248.4c2.8-0.6,5.8,0.2,8.7,0.2c2.7-0.1,4.7,0.4,7.4,0.8"/>
	<path class="st1" d="M114.8,224.6c-0.3,1.8-0.2,4.7-0.5,6.5"/>
	<path class="st1" d="M120.5,225.6c0,1.9-0.5,5.4-0.4,6.9"/>
	<path class="st1" d="M127.6,227.3c0,1.6,0,4.2,0.2,6"/>
	<path class="st1" d="M136.3,227.5c-0.1,1.7,0,3.3,0,5.2"/>
	<path class="st1" d="M142.6,227.3c0,1.8,0,3.6,0,5.3"/>
	<path class="st1" d="M149.1,227.1c-0.2,1.5,0.2,3.2,0.2,4.8"/>
	<path class="st1" d="M108.2,223.1c-0.2,1.9-0.8,4.3-1.2,5.9"/>
	<path class="st1" d="M125.3,87.4c-3.3,0.2-7.8-1.7-10.3-3.6c-3-2.2-2.9-5.1-2.5-8.5c1.7-12.4,11.2-15.9,22.5-15.8
		c11.2,0,22.2,3,33.5,3c8,0,15.7-3.6,23.7-2.8c4.6,0.5,14.6,2.4,16.3,10.8"/>
	<path class="st1" d="M109,85.5c-2.8-2.6-8.3-3.1-10.5-6.2c-2.1-2.9-0.5-9.2,0.9-12c4.3-8.2,14.7-15.9,24.1-16.1
		c10.8-0.2,21.1,2.8,31.9,0.3c4.3-1,8.5-2.3,12.9-3.2c4.4-0.9,9.1-0.4,13.6-0.2c5.5,0.3,13.5,3.1,16.5,12.5"/>
	<path class="st1" d="M92,79c0.1-2.6-2.1-5.7-2.9-8.1c-1.2-3.6-1-8-0.2-11.8c1-4.5,3.5-8.2,7.6-10.6c3.7-2.1,8.4-1.7,12.5-1.7
		c5.1,0,10.3,0.6,15.3,0.2c5-0.4,9.8-3.2,14.3-5.2c2.8-1.2,5.4-3,8.4-3.6c3.5-0.7,7.3-0.2,10.8,0c3.9,0.3,8.3,0.6,12,2.1
		c2,0.8,7.5,4.2,9.3,7.8"/>
	<path class="st1" d="M96.9,91.3c-3,0.9-6.2,1.2-8.9,2.9c-4.5,2.9-8.5,7-10.8,11.8c-3.3,6.9-6,14.5-7.8,21.9
		c-1.4,6.1-2.7,12.1-6,17.5C57,155.7,50,164.6,41.4,172.9c-5.6,5.5-11,11-19.6,8.7"/>
	<path class="st1" d="M84.3,85.3c-4.2,3.3-9,5.7-12.8,9.8c-4.8,5.1-8.3,12.1-10.5,18.7c-1.4,4.3-1.5,8.9-3.2,13.1
		c-1.6,3.7-4,7-6.8,9.8c-4.6,4.7-20.2,15-24.6,6.2c-2.3-4.5-1.2-9.5,0.4-14.1"/>
	<path class="st1" d="M77.8,71.8c-7.2,3.4-13.2,8.1-17.1,15.3c-2.6,4.8-4.5,9-4.8,14.5c-0.2,3.6-1.2,7.2-3.7,9.9
		c-3.3,3.6-8.9,6.4-13.8,5.8c-3.9-0.5-10-3-9.9-7.7"/>
	<path class="st1" d="M76.8,67.3c-3.6,0.7-7.3-0.2-10.8,1c-5.2,1.8-9.1,5.6-12.4,9.8c-5.3,6.6-11.1,14.4-8.5,23.5"/>
	<path class="st1" d="M78.9,63.6c0-10.2,0.2-23.5,13.7-24.5c5.3-0.4,11.1,2.8,16.1,0.7c2.4-1,4.1-3,6.8-3.4c2.8-0.4,5.9,0.2,8,2.1"
		/>
	<path class="st1" d="M113.4,33.3c4.8-4.7,9.1-10.4,16.8-8.2c5.8,1.7,10.5,5.9,16.2,7.5"/>
	<path class="st1" d="M70.3,63.1c-2.9-2.3-10.1-1.3-13.1,0.1c-2.8,1.3-4.6,4-7.2,5.5C48,70,45.3,70,43.8,71.9
		c-2.1,2.8-2.1,9.3-2.1,12.8c0,3,0.3,5.5,1.6,8"/>
	<path class="st1" d="M36.8,151.6c-5.2,3.5-10,7.5-12.9,13.2c-2.7,5.3-1.9,8.8-1.3,14.3"/>
	<path class="st1" d="M36.8,194.7c0,8.9,6,14.4,12.6,15.2c0.3,5.8-3.4,10.7-0.8,16.8c2.3,5.4,8.9,10.4,9.9,16.2"/>
	<path class="st1" d="M194.2,118.6c3.7,1.8,8.7,3.7,11.6,6.5c1.8,1.8,2.5,4.8,3.5,7.1c2.6,6,3.2,13.4,9.5,16.4
		c6.9,3.3,15.8,7.2,18.3,15.4c1.7,5.7-0.3,13-1.3,18.5"/>
	<path class="st1" d="M199.6,143.5c3.3,3.4,5.2,7.7,6.8,12c2.4,6.6,6.9,13.2,12,18c4.4,4.1,13,6.1,14,12.7c0.7,4.5,0.1,8.7,1.4,13.3
		c1.1,3.9,1.7,6.5,1.4,10.6c-0.3,4.6-1.2,9.1-1.6,13.7c-0.3,3.1-0.6,6.2-1,9.3c-0.2,2.2,0.1,5.2-0.7,7.2"/>
	<path class="st1" d="M214,190.8c7.8,4.7,6,12.9,6.8,20.8c0.9,9.4,6.5,15.9,6.5,25.5c0.1,15.9-12.6,24.5-21.3,20.8"/>
	<path class="st1" d="M208.5,219c1.1,10.6,2,24.9-4,31.3c-3.4,3.6-13.9,4.9-18.3,3.3"/>
	<path class="st1" d="M84,251.7c1.8,10.9,0.3,24.2,1.4,32.4c1.3,9.1-1.3,14.4-1.2,23.6"/>
	<path class="st1" d="M61.9,213.5c0.9,9.7-4.7,18.3-9,22.8c-4.1,4.2-9.5,7.8-5.6,14.3c4.6,7.7,13.7,5.5,19.6,10.4
		c4.1,3.4,1.2,8.6,2.7,13.1c0.6,1.7,2.6,2.6,3.9,3.5c2.3,1.5,3.5,3.5,3.9,6.2c0.4,2.6-0.2,4.6-0.6,6.9"/>
	<path class="st1" d="M204.8,250.8c1.8,7.6,2.1,15.6-1.8,22.6c-2.6,4.6-7,8.7-13.9,11.9"/>
	<path class="st1" d="M84.3,307.6c0,14-0.2,16.2,4.9,25.2"/>
	<path class="st1" d="M85.8,287.1c-12.5,6.9-30.9,6.9-44.9,8.5c-5.4,0.6-18.7,1.4-23.9,2.7"/>
	<path class="st1" d="M190.6,292.4c11.8,4.4,23.8,7.9,36.1,10.1c9.6,1.8,8.1,1.9,19.1,5.1"/>
	<path class="st1" d="M185.7,237.6c-0.8,9.4,0,19.1,0.9,28.3c0.3,3.3,0.5,6.6,0.9,10c1.1,10.9,5.7,21.4,7.4,31.2
		c2,11.5,2.8,14.6-7.4,28.3"/>
	<path class="st1" d="M73.3,237.6c0,6.9-1.1,13.7-5.1,19.5c-3.2,4.6-8.6,7.6-11,12.7c-5.7,11.8,9.3,16.6,8,26.7
		c-1.3,10.2-14.7,15.7-6.1,24.6c2.1,2.2,4.3,3.7,6.8,5.4"/>
	<path class="st1" d="M103,221.6c0,1.9-0.8,3.3-0.9,5"/>
	<path class="st1" d="M200.9,103.4c2.5-0.4,6.2,3.1,8.6,4c3.8,1.4,7.4,3.2,11.2,4.4c5.2,1.7,10,4.2,13.4,8.7
		c3.4,4.7,3.5,13.4,0.3,18.1"/>
	<path class="st1" d="M119.4,289.4c-0.6,16.7,5.4,26.6,5.5,43.4"/>
	<path class="st1" d="M111.7,192c-0.6,1.6-2.2,2.6-2.7,4.2c-0.5,1.5-0.8,3.8,0,5.2c1.2,2.2,2.9,2.5,5.2,2.9c1.9,0.3,3.9,0.8,5.7,1.3
		c1.8,0.5,3.5,2.1,4.9,3.2c1.2,0.9,2,1.9,3.6,2.1c0.9,0.1,1.7-0.2,2.6-0.1c1.1,0.1,2.1,0.4,3.2,0.2c1.5-0.4,3-0.9,4.4-1.4
		c2-0.7,4.2-0.8,6.3-1.3c3.4-0.7,7.5-2.1,7.6-6.2c0.1-2.7-2-6.4-4.4-7.8c-0.5-0.3-1.2-0.5-1.8-0.7"/>
	<path class="st1" d="M73,218.5c0,2.5,0.2,4.7,1,7.1c0.6,1.8,1.5,5.8,2.7,6.8"/>
</g>
</svg>
