<svg xmlns="http://www.w3.org/2000/svg" width="791" height="1024" viewBox="0 0 791 1024">
  <metadata><?xpacket begin="﻿" id="W5M0MpCehiHzreSzNTczkc9d"?>
<x:xmpmeta xmlns:x="adobe:ns:meta/" x:xmptk="Adobe XMP Core 5.6-c140 79.160451, 2017/05/06-01:08:21        ">
   <rdf:RDF xmlns:rdf="http://www.w3.org/1999/02/22-rdf-syntax-ns#">
      <rdf:Description rdf:about=""/>
   </rdf:RDF>
</x:xmpmeta>
                                                                                                    
                                                                                                    
                                                                                                    
                                                                                                    
                                                                                                    
                                                                                                    
                                                                                                    
                                                                                                    
                                                                                                    
                                                                                                    
                                                                                                    
                                                                                                    
                                                                                                    
                                                                                                    
                                                                                                    
                                                                                                    
                                                                                                    
                                                                                                    
                                                                                                    
                                                                                                    
                           
<?xpacket end="w"?></metadata>
<defs>
    <style>
      .cls-1, .cls-2 {
        fill: none;
        stroke: #000;
        stroke-width: 4px;
        fill-rule: evenodd;
      }

      .cls-1 {
        stroke-linecap: round;
      }
    </style>
  </defs>
  <path class="cls-1" d="M519,194s34.5,37.6,41,63,6.451,46.73,10,61,8.109,26.975,9,35-9.484,41.895-12,46-5,12-5,12"/>
  <path class="cls-1" d="M531,353s-4.94,20.907,2,30c13.513,17.706,12.3,15.439,20,21s22.389,26.162,15,38-10.436,15.938-17,19a53.812,53.812,0,0,1-14,4"/>
  <path class="cls-1" d="M531,536a19.255,19.255,0,0,1-2-7c-0.593-4.675-2.358-8.964-11-11s-14.308-7.453-23-11-15.99-4.865-32-6c-21.752-1.542-24-10-24-10"/>
  <path class="cls-1" d="M479,408s-9.608,11.8-8,20,7.111,13,13,13"/>
  <path class="cls-1" d="M464,342s-1.944-20.719-14-26-24.68.112-41,7-24.451,9.68-35,8"/>
  <path class="cls-1" d="M399,327s18.445,0.166,33,3c16.627,3.238,29.352,9.723,32,14"/>
  <path class="cls-1" d="M528,370s7.4-6.262,19-4,16.368,20.733,16,28"/>
  <path class="cls-1" d="M502,305s8.91,11.112,3,13-7.456-1.512-19-11-22.211-23.286-46-26-38.153-.959-51,4-11.466-2.02,4-8,40.836-8.9,59-5S492.516,293.944,502,305Z"/>
  <path class="cls-1" d="M573,342s-6.436-11.136-15-11-13.616,3.286-15,8,5.959,4.143,14,3,14.734,1.954,17,3"/>
  <path class="cls-1" d="M531,535s-2.278,5.346-14-1-17.388-11.354-36-18-32.909-13.981-38-20"/>
  <path class="cls-1" d="M530,199s17.831-71.966-50-101c-68.172-29.18-75.875-10.059-102-10"/>
  <path class="cls-1" d="M466,169s-10.742-55.938-62-48-37.449,34.375-76,63-73.266,32.094-107,11"/>
  <path class="cls-1" d="M290,309s-17.559,24.117-50,16-58.945-23.754-83-42-34.918-52.492-32-61"/>
  <path class="cls-1" d="M279,335s-24.1,34.172-52,26-41.25-39.148-71-42-75.5-.844-73,78"/>
  <path class="cls-1" d="M400,110s-12.517-32.581-70-32-57.988,24.909-72,34-32.933,20.969-47,26"/>
  <path class="cls-1" d="M247,105s-30.77-4.966-54,19-36.335,51.2-45,64"/>
  <path class="cls-1" d="M347,208s-15.9,31.469-62,32-67.468-17.672-80-38-17-25-17-25"/>
  <path class="cls-1" d="M317,148s-17.474,27.341-56,29-54.035-29.451-75-9-20,27-20,27"/>
  <path class="cls-1" d="M550,223s29.53-1.82,26-30-8.721-22.6-22-48-11.849-40.706-36-45"/>
  <path class="cls-1" d="M559,233s36.378-.768,38,35-13.567,55.539-21,63"/>
  <path class="cls-1" d="M472,634s-42.315,75-19,116,56.537,43.885,84,28,8-34,8-34"/>
  <path class="cls-1" d="M186,469s49.2,66.732,28,140-30.38,58.964-39,134-9.514,130.878-62,139-62.055-7.7-66-33,22.79-43.565,35-28"/>
  <path class="cls-1" d="M163,489c3.646,4.409,39.78-2.076,24,88s-29.5,123.125-63,162-47.75,41.7-61,45"/>
  <path class="cls-1" d="M108,775c5.861,2.8,66.01,64.708,147,75s147.67-6.438,185-24,41-37,41-37"/>
  <path class="cls-1" d="M513,672c2.884,1.888,13.3,25.565,56,38s52.954,15.049,67,22,19.171,8.779,27,10,18.93,8.133,34,27,27.714,32.279,34,41,11.148,57.31,16,95,14.7,108.04,14,121"/>
  <path class="cls-1" d="M543,724s8.052,110.409-60,140-131.332,44.982-198,42S139.268,882.378,98,840s-59-60-59-60"/>
  <path class="cls-1" d="M370,105s-21.629-24.891-55,1-41.765,48.206-66,49"/>
  <path class="cls-1" d="M195,197s-39.723.039-57,11-19.607,13.641-20,24"/>
  <path class="cls-1" d="M237,336s-33.158-4.841-60-25-29.314-13.745-46-26-23.477-25.357-25-41"/>
  <path class="cls-1" d="M97,261"/>
  <path class="cls-1" d="M97,316s-35.816,7.1-40,26,0,26,0,26"/>
  <path class="cls-1" d="M50,361s-28.665,11.039-40,33S-3,435-3,435"/>
  <path class="cls-1" d="M150,476s-4.051,26.544,5,60,19,49,19,49"/>
  <path class="cls-1" d="M332,246s1.211,29.9-60,29-68.938-13.352-101-32"/>
  <path class="cls-1" d="M299,285s-2.68,15.742-48,10-63.223-16.082-81-32a189.826,189.826,0,0,1-29-33"/>
  <path class="cls-1" d="M502,180s21.477-19.418-4-44-56.406-37.176-77-39"/>
  <path class="cls-1" d="M106,480s25.871,13.648,10,49-43.027,9.648-57,83,9.606,101.918-26,116"/>
  <path class="cls-1" d="M57,413c2.535,5.094,35.516,40.266,7,92S23.148,575.75,14,608"/>
  <path class="cls-1" d="M488,633s-3.2,12.768,16,19,37.854-18.307,54,4-6.385,36.388,6,53,23,12,23,12"/>
  <path class="cls-1" d="M519,615c4.483,0.872,30.73,10.456,44-5s40.712-15.734,46,4-9.77,23.62-2,37,16.156,7.958,26,1"/>
  <path class="cls-1" d="M107,255s-15.8,3.641-18,23a175.8,175.8,0,0,0,0,37"/>
  <path class="cls-1" d="M158,571s-18.461,18.2-33,76-19.738,74.332-45,86"/>
  <path class="cls-1" d="M67,759s-31.566-1-48,28S-2.5,818.316-4,823"/>
  <path class="cls-1" d="M534,525s7.388-8.947,2-17-9.42-4.51-16-8-2.627-7.686-16-9-28.5,3.75-40,4"/>
  <path class="cls-1" d="M494,438s11.272-5.982,24-5,21.424,6.192,20,9-5.906,3.66-17,1-13.962-3.331-17-3"/>
  <path class="cls-1" d="M540,461s-7.778-2.319,1-4,11-1,11-1"/>
  <path class="cls-1" d="M566,445c0.723,1.521,4.573,23.955,0,49s-11.012,24.269-23,51-17.216,35.942-20,48"/>
  <path class="cls-1" d="M235,463s-4.286,14.232-21,12-17.731-3.119-32-16-25.2-18.225-33-32-14.925-39.9-14-60,6.389-32.577,15-39a47.684,47.684,0,0,1,19-8"/>
  <path class="cls-1" d="M175,329s-22.384,3.064-26,20a151.494,151.494,0,0,0-3,45"/>
  <path class="cls-1" d="M160,399c0.639,1.444,8.751,18.611,21,21s9.152-2.655,17,1,9.051,9.117,15,10"/>
  <path class="cls-1" d="M194,347s5.85,33.048,6,44-5,14-5,14"/>
  <path class="cls-1" d="M195,375s-12.886-.488-17,15"/>
  <path class="cls-1" d="M232,467s-0.562,25.367,7,48,19.388,26.276,34,34"/>
  <path class="cls-1" d="M517,576s9.438,13.5,4,33-25.418,23.022-37,24c-20.487,1.729-53.2-11.1-76-20s-54-27-54-27"/>
  <path class="cls-1" d="M445,627a16.021,16.021,0,0,0-11,13c-1.769,10.633,10,59,14,67"/>
  <path class="cls-1" d="M440,319s-5.923,1.3-3,6c2.62,4.21,6.384,2.686,8,0C446.6,322.333,443.726,318.62,440,319Z"/>
  <path id="Shape_28_copy" data-name="Shape 28 copy" class="cls-1" d="M545,373s-5.923,1.3-3,6c2.62,4.21,6.384,2.686,8,0C551.6,376.333,548.726,372.62,545,373Z"/>
  <path class="cls-1" d="M425,317s-0.432,9.028,6,13"/>
  <path class="cls-1" d="M453,318c0.9,0.991,5.113,8.79,2,19"/>
  <path class="cls-1" d="M563,400s-7.357-12.74-32-17"/>
  <path class="cls-1" d="M552,372s3.809,7.769,1,15"/>
  <path class="cls-1" d="M533,371s-2.274,6.064,1,9"/>
  <path class="cls-2" d="M538,369s-2.513,8.161,1,13"/>
</svg>
