<svg id="Слой_1" data-name="Слой 1" xmlns="http://www.w3.org/2000/svg" viewBox="0 0 151.34 239.8"><title>Kate_Bosakova</title><path d="M54.94,244.63c-3.21,0-5.56-.23-6.31-.73-3.27-2.18-.8-7.38-.69-7.6.24-.43,23.55-42.59,33.47-54.84l1.63-2c10-12.36,22.47-27.74,24.69-33.55s7.21-19.41,7.75-20.88c-.14-.24-.55-.8-1-.63-.75.25-4.92,4.35-7,6.69-1,1.05-3.08,3.15-5.13,5.18s-3.77,3.72-4.19,4.24a16.17,16.17,0,0,1-3.63,2.58l0,0c-3.31,1.31-15.66,1.73-21.12,1.73A100.27,100.27,0,0,1,58,143.1c-2.13-.36-10.26-5.09-11.63-6.31a13.31,13.31,0,0,1-3.34-5.9c-.17-.75-.39-1.76-.62-2.81-.36-1.64-.73-3.33-1-4.4-.1-.41-.26-1-.45-1.63a47.07,47.07,0,0,1-1.76-8,29.53,29.53,0,0,1,0-4.63,15.26,15.26,0,0,0,0-3.11,16.13,16.13,0,0,0-.68-2.33c-.71-2.13-1.7-5-1.38-8A35.1,35.1,0,0,1,41,83.7c.54-1,1.12-2,1.68-3a30.45,30.45,0,0,0,3-6.06A28.43,28.43,0,0,0,46,70a22.05,22.05,0,0,1,.31-4.4c.15-.43.37-.89.6-1.38a10.51,10.51,0,0,0,1.23-3.85c.16-2.14,1.82-7.86,2.78-9.14a10.74,10.74,0,0,0,1-3,22.87,22.87,0,0,1,1.83-5.61c1.88-3.41,9.7-12.12,19.27-16.76a62.05,62.05,0,0,1,33.31-5.18c10.41,1.35,26.7,9,31.25,13.75,5.09,5.28,10.88,16.12,11.87,30.7,1,14.8-1.64,53.83-4.13,68.12-2.34,13.49-2.5,35.8-2.35,39.56s.44,10.9.44,10.9a.27.27,0,0,1-.18.28.27.27,0,0,1-.32-.06l-14.31-14.55c-1.56,2.84-12.3,22.19-17,29.33-5.07,7.7-19.51,33.14-22.27,38.76-.7,1.42-3.25,2.73-7.58,3.9A121,121,0,0,1,54.94,244.63Zm59.69-120.87c.88,0,1.42,1,1.44,1.09a.29.29,0,0,1,0,.24c0,.14-5.47,14.9-7.8,21C106,152,93.54,167.42,83.5,179.81l-1.63,2C72,194,48.69,236.15,48.46,236.58c0,0-2.35,4.93.49,6.83,2.12,1.41,21.15.45,32.59-2.63,5.17-1.4,6.77-2.72,7.2-3.59,2.76-5.63,17.23-31.11,22.3-38.82S128.1,169,128.22,168.73a.3.3,0,0,1,.21-.15.28.28,0,0,1,.25.09l14,14.28c-.08-1.93-.29-7.07-.41-10.13-.15-3.78,0-26.15,2.36-39.69,2.48-14.27,5.12-53.21,4.12-68-1.26-18.62-10-28.53-11.7-30.33-4.5-4.67-20.6-12.24-30.9-13.58-10.73-1.4-23.68.61-33,5.13s-17.17,13.16-19,16.52a22.1,22.1,0,0,0-1.76,5.45,10.45,10.45,0,0,1-1.06,3.27c-.83,1.11-2.5,6.64-2.66,8.83a11,11,0,0,1-1.29,4.06,12.53,12.53,0,0,0-.57,1.32A23.33,23.33,0,0,0,46.58,70a30.32,30.32,0,0,1-.3,4.74A31.43,31.43,0,0,1,43.21,81c-.56,1-1.13,2-1.67,3a34.61,34.61,0,0,0-3.8,12.12c-.3,2.78.66,5.63,1.36,7.71a14.85,14.85,0,0,1,.7,2.43,15.68,15.68,0,0,1,0,3.23,29.51,29.51,0,0,0,0,4.54,46.61,46.61,0,0,0,1.75,7.88c.19.66.35,1.23.46,1.65.27,1.07.64,2.77,1,4.42.22,1,.44,2,.62,2.8a12.66,12.66,0,0,0,3.15,5.59c1.25,1.12,9.3,5.83,11.34,6.17a100.39,100.39,0,0,0,15.17,1.71c5.41,0,17.63-.41,20.89-1.68a15.9,15.9,0,0,0,3.43-2.43c.45-.55,2.2-2.28,4.23-4.29s4.17-4.11,5.11-5.15c1.66-1.84,6.28-6.52,7.29-6.86A1.37,1.37,0,0,1,114.63,123.76Zm-20.33,19h0Z" transform="translate(-7.66 -20.2)"/><path d="M114.26,129.49l-.12,0a.28.28,0,0,1-.15-.38c0-.07,2.74-6.39,4.78-12.78s2-20.43.74-23.69l-.31-.79c-1.51-3.92-4.65-12-8.06-17.09-1.78-2.65-4.71-8.17-7.82-14-3.29-6.21-6.69-12.62-9-16-4.59-6.89-10.17-6.94-11-6.66a1.41,1.41,0,0,0-1,1.46.3.3,0,0,1-.13.27.27.27,0,0,1-.3,0,22.78,22.78,0,0,0-8.42-2.46c-4.94-.32-9.62,3-11.16,4.07C60,43,57,47.31,54.63,50.86a32.73,32.73,0,0,0-3.8,7.75,10.91,10.91,0,0,1-1.77,3.11,11.81,11.81,0,0,0-1.15,1.73h0l.12,0a6.56,6.56,0,0,1,2.74-.51,10.6,10.6,0,0,1,4,1.25,21.15,21.15,0,0,1,5,3.14c3.07,2.63,3,3.56,3,3.87-.05.89-.68,2.7-1.34,2.78s-1.87-.77-2.22-1L55.44,70l0,0s-3.55-3.52-5.26-4.26a5.39,5.39,0,0,0-3.41.27.29.29,0,1,1-.31-.5,5.84,5.84,0,0,1,4-.31c1.78.76,5.14,4.08,5.43,4.37l3.86,2.88a4,4,0,0,0,1.8.93,4.41,4.41,0,0,0,.82-2.23c0-.29-.22-1.19-2.79-3.39a20.49,20.49,0,0,0-4.89-3,10.37,10.37,0,0,0-3.81-1.2,6,6,0,0,0-2.51.47l-.13.05a2.82,2.82,0,0,0-.76.55.29.29,0,0,1-.37,0,.29.29,0,0,1-.12-.35,11,11,0,0,1,1.68-2.86,10.48,10.48,0,0,0,1.69-3,33,33,0,0,1,3.86-7.86c2.4-3.6,5.46-7.94,7.88-9.65,1.58-1.12,6.39-4.51,11.53-4.18A22.83,22.83,0,0,1,81.8,39a2,2,0,0,1,1.36-1.57c1.49-.5,7.25.24,11.68,6.89,2.29,3.44,5.7,9.87,9,16.08,3.1,5.84,6,11.34,7.79,14,3.45,5.09,6.6,13.27,8.12,17.2l.31.8c1.32,3.41,1.4,17.37-.73,24.08-2,6.42-4.77,12.77-4.8,12.83A.3.3,0,0,1,114.26,129.49Z" transform="translate(-7.66 -20.2)"/><path d="M57.94,107.07h-.42a10.63,10.63,0,0,1-3.72-1.22,10.4,10.4,0,0,1-3.47-4.23,11.4,11.4,0,0,1,0-4.9,5.58,5.58,0,0,1,1.59-3A9.27,9.27,0,0,1,54.46,92l.48-.24a10.8,10.8,0,0,0,2.55-2.37,16.79,16.79,0,0,0,.86-1.49,17,17,0,0,1,2.11-3.3,28.13,28.13,0,0,0,2.72-3.26l.06-.08c.72-1,2.22-3.1,2-5.25a.3.3,0,0,1,.26-.33.32.32,0,0,1,.33.27c.23,2.38-1.35,4.59-2.11,5.65l-.06.08A29.37,29.37,0,0,1,60.88,85a16.63,16.63,0,0,0-2,3.17A16.12,16.12,0,0,1,58,89.76a11,11,0,0,1-2.75,2.54l-.49.25a8.64,8.64,0,0,0-2.36,1.5A5,5,0,0,0,50.9,96.8a11.06,11.06,0,0,0,0,4.62,10.05,10.05,0,0,0,3.22,3.92,10.25,10.25,0,0,0,3.46,1.13,17.34,17.34,0,0,0,2.62-.16.29.29,0,1,1,.08.58A19.79,19.79,0,0,1,57.94,107.07Z" transform="translate(-7.66 -20.2)"/><path d="M62.88,193.42a.31.31,0,0,1-.13,0,.29.29,0,0,1-.13-.39s1-2,2.75-5.21a13,13,0,0,0,1.55-6.16c0-.42,0-.83.09-1.2.18-1.62-.88-5.15-1.65-7a.3.3,0,0,1,.16-.39.29.29,0,0,1,.38.16c.65,1.56,1.9,5.41,1.69,7.32,0,.35-.06.74-.08,1.16a13.48,13.48,0,0,1-1.62,6.41c-1.74,3.19-2.74,5.17-2.75,5.19A.27.27,0,0,1,62.88,193.42Z" transform="translate(-7.66 -20.2)"/><path d="M12.56,260a.29.29,0,0,1-.28-.2s-.92-2.76-3.54-11.94A23.47,23.47,0,0,1,10,230.39l.19-.41a75.73,75.73,0,0,1,7.69-12c1.82-2.43,4-5.15,6.09-7.79,1.92-2.42,3.74-4.71,4.95-6.35,1.79-2.42,3.32-7.83,4.94-13.56.62-2.2,1.26-4.46,1.94-6.67,2.47-8,6.58-55,6.62-55.46a.29.29,0,0,1,.32-.27.29.29,0,0,1,.27.32c-.17,1.93-4.16,47.54-6.64,55.58-.69,2.2-1.33,4.47-1.94,6.66-1.64,5.78-3.18,11.25-5,13.75-1.22,1.65-3,3.94-5,6.37-2.1,2.63-4.26,5.35-6.08,7.78a75.28,75.28,0,0,0-7.63,11.87l-.18.41a22.88,22.88,0,0,0-1.27,17.06c1.61,5.67,2.58,8.88,3.08,10.5.26-2.84.89-9,1.8-11.83,1-3.17,10.16-12.13,15.62-17.47,1-1,1.9-1.86,2.57-2.53,4.45-4.45,10.91-19.23,12.16-22.15,1.83-4.26,5.78-10.43,8.87-14.79s7.06-18.4,7.31-19.3c0-.72-.41-9.47-.78-13.39-.39-4.08-1-13.61-1.06-13.71a.3.3,0,1,1,.59,0c0,.09.67,9.62,1.05,13.69s.79,13.38.79,13.47a.28.28,0,0,1,0,.09c-.17.61-4.18,15-7.41,19.54-3.07,4.33-7,10.45-8.81,14.67-1.25,2.94-7.76,17.81-12.28,22.33-.68.68-1.56,1.54-2.58,2.54-5.42,5.31-14.5,14.2-15.47,17.23-1.15,3.61-1.89,13.09-1.9,13.19a.3.3,0,0,1-.26.27Z" transform="translate(-7.66 -20.2)"/><path d="M27.47,206.59a.3.3,0,0,1-.29-.24s-.63-3.5-1.12-7.79a84.21,84.21,0,0,1,0-14.2c.31-2.55,3.53-9.12,5.48-11.17a87.44,87.44,0,0,1,7-6,.3.3,0,0,1,.42.05.29.29,0,0,1-.06.41,86.61,86.61,0,0,0-7,5.91c-1.9,2-5,8.36-5.32,10.83a81.63,81.63,0,0,0,0,14.07c.48,4.26,1.1,7.71,1.11,7.74a.3.3,0,0,1-.24.35Z" transform="translate(-7.66 -20.2)"/><path d="M47.76,237.84a.23.23,0,0,1-.14,0,43.25,43.25,0,0,1-8.13-6.07c-2.32-2.47-4.69-7.83-4.79-8.06a.29.29,0,0,1,.15-.39.31.31,0,0,1,.39.15c0,.06,2.43,5.5,4.68,7.89a43.53,43.53,0,0,0,8,6,.3.3,0,0,1,.11.41A.31.31,0,0,1,47.76,237.84Z" transform="translate(-7.66 -20.2)"/><path d="M155.36,260h0a.3.3,0,0,1-.26-.33c0-.32,3.74-31.71,3.31-37.65-.46-6.26-2.11-16.29-4-21.58S142.93,184,142.83,183.9a.31.31,0,0,1,0-.42.3.3,0,0,1,.42,0c.4.46,9.78,11.3,11.69,16.74s3.53,15.43,4,21.73c.44,6-3.15,36.47-3.3,37.76A.3.3,0,0,1,155.36,260Z" transform="translate(-7.66 -20.2)"/><path d="M82.08,39.8a.26.26,0,0,1-.19-.07c-.22-.18-5.44-4.58-6-8.18a7.83,7.83,0,0,1,5.64-8.92.29.29,0,0,1,.37.2.3.3,0,0,1-.19.37,7.25,7.25,0,0,0-5.24,8.25c.56,3.39,5.78,7.79,5.84,7.83a.3.3,0,0,1,0,.42A.27.27,0,0,1,82.08,39.8Z" transform="translate(-7.66 -20.2)"/><path d="M74.27,239.08a.31.31,0,0,1-.2-.07.3.3,0,0,1,0-.42c8.13-9,15-19.82,20.5-28.48l2-3.15c4.6-7.18,11.6-27.92,15.79-40.31,1.24-3.68,2.22-6.59,2.74-7.94.58-1.51,1.63-4.4,3-8.07,3.7-10.12,9.88-27.07,14.12-36.87,3.33-7.69,7-23.11,6.46-41.26a46.91,46.91,0,0,0-4.1-17.11.3.3,0,0,1,.14-.4.29.29,0,0,1,.39.14,47.76,47.76,0,0,1,4.16,17.35,130.58,130.58,0,0,1-1,19.3c-1.1,8.82-3,16.3-5.53,22.22-4.24,9.77-10.41,26.71-14.1,36.83-1.34,3.67-2.4,6.57-3,8.08-.52,1.34-1.5,4.24-2.74,7.92-4.19,12.42-11.21,33.2-15.84,40.44-.66,1-1.33,2.07-2,3.14C89.53,219.1,82.65,229.9,74.49,239A.31.31,0,0,1,74.27,239.08Z" transform="translate(-7.66 -20.2)"/><path d="M128.47,169.17a.27.27,0,0,1-.14,0,.29.29,0,0,1-.11-.4c2.94-5.27,12.81-23.44,16.47-35.63a.29.29,0,1,1,.56.17c-3.67,12.24-13.57,30.46-16.52,35.75A.28.28,0,0,1,128.47,169.17Z" transform="translate(-7.66 -20.2)"/><path d="M62.34,237.84a.24.24,0,0,1-.16-.05.29.29,0,0,1-.08-.41A67.28,67.28,0,0,0,68,225.87c1.34-3.48,3.87-8.62,6.81-14.56,2.45-5,5.24-10.62,7.63-16,3.39-7.56,8.23-14.08,13.35-21,2.7-3.62,5.48-7.38,8.18-11.44,5.66-8.54,7.68-13.31,11.35-22,1.41-3.33,3-7.09,5.15-11.89a50.59,50.59,0,0,0,4.47-21.85,53.13,53.13,0,0,0-1.84-12.71c-.07-.28-.13-.51-.17-.7-.63-2.6-6.46-12.76-9-17.1-.4-.69-.71-1.23-.89-1.56-1.13-2-10.29-18.79-13.27-26a36.21,36.21,0,0,0-11-14.32c-3.38-2.67-6.35-1.56-7-.84-1.78,1.81.53,5.3.55,5.33a.3.3,0,1,1-.49.33c-.1-.16-2.59-3.92-.48-6.08,1-1.06,4.41-1.91,7.83.8A36.57,36.57,0,0,1,100.32,49c3,7.16,12.12,23.91,13.24,25.91.18.33.49.86.89,1.56,2.5,4.36,8.36,14.57,9,17.25,0,.19.1.42.17.69a53.61,53.61,0,0,1,1.85,12.85,51.11,51.11,0,0,1-4.51,22.1c-2.14,4.79-3.74,8.56-5.15,11.88-3.68,8.68-5.71,13.47-11.4,22.06-2.7,4.07-5.49,7.83-8.19,11.47-5.11,6.87-9.93,13.37-13.29,20.87-2.4,5.35-5.19,11-7.65,16-2.92,5.93-5.45,11.05-6.78,14.51a68.23,68.23,0,0,1-5.92,11.63A.29.29,0,0,1,62.34,237.84Z" transform="translate(-7.66 -20.2)"/><path d="M103.83,88.16a.32.32,0,0,1-.21-.08s-1.53-1.49-3-2.84a26.73,26.73,0,0,0-5.35-3.82,21.48,21.48,0,0,0-5-.48c-1.54,0-8.9-.14-10.81-.29a4.78,4.78,0,0,1-2.85-.77,4.22,4.22,0,0,1-.87-3.41c.18-1,1.2-1.54,2-2s1.46-.33,2.78-.14l.73.11c1.78.24,4.52.67,6.9,1.18a44.82,44.82,0,0,1,8.23,3,18.68,18.68,0,0,1,4.55,4.23,31.28,31.28,0,0,1,3.18,4.83.28.28,0,0,1-.09.37A.27.27,0,0,1,103.83,88.16Zm-24.4-8.1h0c1.87.15,9.24.29,10.78.29a22.55,22.55,0,0,1,5.2.51A26.73,26.73,0,0,1,101,84.8l1.58,1.45a24.44,24.44,0,0,0-2.1-3,18,18,0,0,0-4.38-4.09,44.34,44.34,0,0,0-8.07-3c-2.37-.5-5.17-.94-6.86-1.17l-.73-.1c-1.27-.19-1.8-.26-2.43.07-.86.46-1.59.89-1.71,1.56a3.63,3.63,0,0,0,.7,2.87,4.2,4.2,0,0,0,2.44.61Z" transform="translate(-7.66 -20.2)"/><path d="M67.15,108.48a5.79,5.79,0,0,1-.72,0,3.35,3.35,0,0,1-1.85-1,5.53,5.53,0,0,0-.79-.58,6.33,6.33,0,0,1-.76-.49,3.58,3.58,0,0,0-1.3-.63l-.65-.18a4.83,4.83,0,0,0-1.73-.28c-.86,0-1.26,0-1.37.09l0,0-.09.09a1.18,1.18,0,0,0,.27.24,9.8,9.8,0,0,0,2.14.54.29.29,0,0,1,.24.34.28.28,0,0,1-.34.24,9.44,9.44,0,0,1-2.4-.65c-.34-.26-.49-.46-.51-.68a.7.7,0,0,1,.28-.54l0,0c.25-.25.57-.25,1.15-.25h.62a5.67,5.67,0,0,1,1.91.3l.63.18a4,4,0,0,1,1.48.72,7,7,0,0,0,.72.46A6,6,0,0,1,65,107a2.77,2.77,0,0,0,1.54.82,4.8,4.8,0,0,0,3.2-.7A5.49,5.49,0,0,0,72,103.06a.29.29,0,1,1,.58,0,6,6,0,0,1-2.61,4.6A5.4,5.4,0,0,1,67.15,108.48Z" transform="translate(-7.66 -20.2)"/><path d="M82.67,124.09a.29.29,0,0,1-.3-.3,2.58,2.58,0,0,0-.32-1.17A12.19,12.19,0,0,0,80,120.7l-1.74-1.47A15.36,15.36,0,0,1,74,112.86c-.16-.62-.29-1.36-.4-2.07a11.51,11.51,0,0,0-.5-2.22.3.3,0,0,1,.13-.4.3.3,0,0,1,.4.14,11.7,11.7,0,0,1,.55,2.39c.11.69.23,1.42.39,2a14.59,14.59,0,0,0,4.06,6.07c.66.57,1.24,1,1.74,1.47a11.2,11.2,0,0,1,2.19,2.07,3.14,3.14,0,0,1,.41,1.47A.29.29,0,0,1,82.67,124.09Z" transform="translate(-7.66 -20.2)"/><path d="M78.58,123.39a.29.29,0,0,1-.24-.13A4.61,4.61,0,0,0,77,121.85a6,6,0,0,0-1.42,0,14.85,14.85,0,0,1-4.35-.32c-1.36-.36-3.84-.84-5.83-1.23l-2.1-.42c-.72-.15-1.42-.26-2.16-.37a36.31,36.31,0,0,1-4.45-.89,29.63,29.63,0,0,1-8.45-4.19c-1.22-1.12-1.87-1.93-1.93-2.39l0-.13c-.06-.51-.16-1.27-.62-1.48-.21-.09-.48-.19-.76-.28a4.87,4.87,0,0,1-1.55-.73.29.29,0,0,1,.4-.43,5,5,0,0,0,1.34.6q.45.15.81.3c.77.34.89,1.34,1,1.94v.13c0,.23.51.89,1.75,2a29.19,29.19,0,0,0,8.2,4,35.37,35.37,0,0,0,4.39.88c.75.11,1.45.22,2.18.37l2.1.42c2,.39,4.49.88,5.87,1.24a14.57,14.57,0,0,0,4.18.3,5.5,5.5,0,0,1,1.62.06c.66.22,1.5,1.4,1.66,1.64a.3.3,0,0,1-.07.41A.34.34,0,0,1,78.58,123.39Z" transform="translate(-7.66 -20.2)"/><path d="M75.11,121.86a18.61,18.61,0,0,1-2.49-.5A34.68,34.68,0,0,1,67,118.75c-.58-.31-1-.55-1.26-.65a15.82,15.82,0,0,0-4.45-1.38l-.52,0a23.53,23.53,0,0,1-3.68-.59,18.89,18.89,0,0,1-2.82-1.4,18.91,18.91,0,0,0-3.1-1.5,14.21,14.21,0,0,0-3.94,0,.29.29,0,0,1-.33-.25.29.29,0,0,1,.25-.34,14.92,14.92,0,0,1,4.16,0,17.6,17.6,0,0,1,3.24,1.56,19.91,19.91,0,0,0,2.71,1.34,21.62,21.62,0,0,0,3.57.57l.53.06A16,16,0,0,1,66,117.56c.24.11.71.36,1.3.67a34.51,34.51,0,0,0,5.49,2.55c1.37.32,2.12.46,2.31.49a.2.2,0,0,1,.11,0,.3.3,0,0,1,.21.36C75.34,121.78,75.32,121.86,75.11,121.86Z" transform="translate(-7.66 -20.2)"/><path d="M65.67,123.69a40.72,40.72,0,0,1-5.12-.3,37.53,37.53,0,0,1-6-1.62l-1.25-.4a10.65,10.65,0,0,1-4.49-3c-1.39-1.79-2-5.25-2-5.4a.29.29,0,0,1,.24-.34.31.31,0,0,1,.34.25s.56,3.46,1.86,5.13a10.1,10.1,0,0,0,4.2,2.79l1.25.4a35.1,35.1,0,0,0,5.86,1.59,40.6,40.6,0,0,0,7.51.22,19.54,19.54,0,0,0,4.12-.8l.26-.07a20.36,20.36,0,0,0,2.26-.8.29.29,0,1,1,.24.53,17.78,17.78,0,0,1-2.34.83l-.26.08a21,21,0,0,1-4.24.82C67.5,123.66,66.63,123.69,65.67,123.69Z" transform="translate(-7.66 -20.2)"/><path d="M61.72,128.65h0a11.22,11.22,0,0,1-3.42-1.27,20.29,20.29,0,0,0-2.56-1.14,29.13,29.13,0,0,0-4.55-1.18l-.67-.13a.3.3,0,0,1-.23-.35.29.29,0,0,1,.34-.23l.66.13a28.56,28.56,0,0,1,4.64,1.21,21.59,21.59,0,0,1,2.63,1.16,10.89,10.89,0,0,0,3.25,1.22.29.29,0,0,1,0,.58Z" transform="translate(-7.66 -20.2)"/><path d="M98.71,96.14a5.09,5.09,0,0,1-2.35-.74A9.4,9.4,0,0,1,94.23,93a10,10,0,0,0-.67-.87,21.56,21.56,0,0,0-5-3.66,7.15,7.15,0,0,0-4.57-.4l-.42.07a3.24,3.24,0,0,0-1.51.73,6.52,6.52,0,0,1-.76.48,3.11,3.11,0,0,1-2.22.28.29.29,0,0,1-.22-.35.28.28,0,0,1,.35-.22A2.53,2.53,0,0,0,81,88.84a5,5,0,0,0,.67-.43,3.84,3.84,0,0,1,1.77-.83l.41-.07a7.68,7.68,0,0,1,4.92.45A21.75,21.75,0,0,1,94,91.74a9.29,9.29,0,0,1,.73.94,8.93,8.93,0,0,0,2,2.21,4.46,4.46,0,0,0,2.07.67.29.29,0,0,1,.34.24.28.28,0,0,1-.23.33Z" transform="translate(-7.66 -20.2)"/><path d="M89.36,95.36a5.9,5.9,0,0,1-1.14-.12,3.81,3.81,0,0,1-2.72-2.5,4.44,4.44,0,0,1-.06-2.26A4,4,0,0,1,88,87.7a.3.3,0,1,1,.17.57A3.46,3.46,0,0,0,86,90.61a3.88,3.88,0,0,0,.06,2,3.24,3.24,0,0,0,2.26,2.08,3.46,3.46,0,0,0,3.21-.7,3,3,0,0,0,1-2.8.29.29,0,1,1,.57-.13,3.58,3.58,0,0,1-1.22,3.39A3.86,3.86,0,0,1,89.36,95.36Z" transform="translate(-7.66 -20.2)"/><path d="M99.11,95.08A.25.25,0,0,1,99,95a8.73,8.73,0,0,1-1.73-1.52,8.33,8.33,0,0,1-1.14-1.94c-.2-.41-.4-.83-.63-1.22a10.79,10.79,0,0,0-3.39-3.41,14.22,14.22,0,0,0-4.51-1.81,14,14,0,0,0-3.71,0,.29.29,0,0,1-.32-.27.29.29,0,0,1,.26-.32,15.16,15.16,0,0,1,3.87,0,14.86,14.86,0,0,1,4.72,1.9A11.32,11.32,0,0,1,96,90.05c.24.41.45.84.65,1.26a8,8,0,0,0,1.06,1.81,8.53,8.53,0,0,0,1.61,1.43.29.29,0,0,1,.08.41A.3.3,0,0,1,99.11,95.08Z" transform="translate(-7.66 -20.2)"/><path d="M89.21,93.37a2,2,0,1,1,2-2A2,2,0,0,1,89.21,93.37Zm0-3.33a1.37,1.37,0,1,0,1.37,1.37A1.37,1.37,0,0,0,89.21,90Z" transform="translate(-7.66 -20.2)"/><path d="M61.34,82.43a.3.3,0,0,1-.27-.16,14.52,14.52,0,0,0-1.25-2A16.81,16.81,0,0,0,55,75.63a5.89,5.89,0,0,0-5.12-.69c-1.15.48-1.34,2.38-1.34,2.4a.29.29,0,0,1-.32.26.29.29,0,0,1-.27-.32c0-.09.23-2.27,1.7-2.88a6.41,6.41,0,0,1,5.64.72,17.23,17.23,0,0,1,5,4.83,17,17,0,0,1,1.3,2,.3.3,0,0,1-.13.4Z" transform="translate(-7.66 -20.2)"/><path d="M62,81.48a.3.3,0,0,1-.26-.16A45.67,45.67,0,0,0,58.46,76a12,12,0,0,0-4.67-3.08,5.45,5.45,0,0,0-4.11.66c-1.35.85-1.38,3.73-1.38,3.76a.3.3,0,1,1-.59,0c0-.13,0-3.22,1.66-4.25a6,6,0,0,1,4.55-.74,12.26,12.26,0,0,1,5,3.29A45.44,45.44,0,0,1,62.27,81a.3.3,0,0,1-.12.4A.37.37,0,0,1,62,81.48Z" transform="translate(-7.66 -20.2)"/><path d="M56.12,82.18a4.32,4.32,0,0,1-2.52-.81A4,4,0,0,1,52,78.06a3.9,3.9,0,0,1,2.26-3.33.29.29,0,0,1,.38.17.3.3,0,0,1-.18.38,3.26,3.26,0,0,0-.5,5.61,3.68,3.68,0,0,0,3.26.53A3,3,0,0,0,59,79.19a.29.29,0,1,1,.58.1A3.6,3.6,0,0,1,57.39,82,4.54,4.54,0,0,1,56.12,82.18Z" transform="translate(-7.66 -20.2)"/><path d="M56,80.27a1.83,1.83,0,1,1,1.82-1.82A1.82,1.82,0,0,1,56,80.27Zm0-3.06a1.24,1.24,0,1,0,0,2.47,1.24,1.24,0,0,0,0-2.47Z" transform="translate(-7.66 -20.2)"/></svg>