<?xml version="1.0" encoding="utf-8"?>
<!-- Generator: Adobe Illustrator 21.1.0, SVG Export Plug-In . SVG Version: 6.00 Build 0)  -->
<svg version="1.1" id="Layer_1" xmlns="http://www.w3.org/2000/svg" xmlns:xlink="http://www.w3.org/1999/xlink" x="0px" y="0px"
	 viewBox="0 0 260 344" style="enable-background:new 0 0 260 344;" xml:space="preserve">
<style type="text/css">
	.st0{fill:#FFFFFF;fill-opacity:0;}
	.st1{fill:none;stroke:#000000;stroke-width:2;}
</style>
<g id="Page-2.4-_x28_venue_x2B_photos_x29_">
	<g id="home" transform="translate(-133.000000, -2012.000000)">
		<g id="speakers" transform="translate(133.000000, 1394.000000)">
			<g id="_x35_" transform="translate(0.000000, 608.000000)">
				<g id="Mask">
					<rect id="path-1_1_" y="10" class="st0" width="260" height="344"/>
				</g>
				<g id="Page-1">
					<g transform="translate(0.000000, 11.000000)">
						<path id="Stroke-1" class="st1" d="M143.2,45.7c2.9,0.3,10.1,3.1,12.4,4.8c3.2,2.3,6,5.5,8.1,8.8c4.9,7.6,6.3,15.5,9.1,23.9
							c1.3,3.9,2.7,8.1,4.9,11.5c2.5,4,3.2,7.1,3.6,12c0.5,5.3,1.3,9.2,3.3,14c1.7,4.2,3.4,8.6,4.5,12.9c2.4,9.9,1.7,21,1.7,31.1"/>
						<path id="Stroke-3" class="st1" d="M51,140.8c-2-0.6-3.3-2.4-5.2-3.5c-2.2-1.3-4.9-2.2-7.5-2.3c-6.6-0.3-8.3,7-7.4,12.6
							c1.2,7,6.9,13.4,10.5,19.3c1.7,2.8,3.4,4.8,5.5,7.3c1.9,2.3,1.8,4.4,2.8,6.9c1.6,4.2,6.2,6.2,10.6,6.5c4,0.2,6.9-2.8,9.3-5.6"
							/>
						<path id="Stroke-5" class="st1" d="M60.7,76.4c-3,5.9-5.9,15.2-2.1,21.5c3.4,5.6,10.3,8.7,16.1,11.1
							c0.6,6.5-5.3,11.7-6.6,17.9c-1.8,8.8,3.8,19.2,7.6,26.9c3.3,6.7,7.7,14.3,14.3,18.1c6.5,3.8,13,6.6,18.9,11.5
							c4.4,3.6,10,9.4,15.4,10.9"/>
						<path id="Stroke-7" class="st1" d="M23.6,95.9c-1.5,9.5,1.3,17,4.9,26c1.1,2.8,2.3,5.7,3.5,8.5c0.6,1.4,2.2,5.6,2.6,5.3"/>
						<path id="Stroke-9" class="st1" d="M146.2,35.2c2.8,0.3,5,3.8,7.1,5.6c3,2.6,6.3,5.2,8.5,8.6c3,4.8,6.3,13.8,6.4,18.8"/>
						<path id="Stroke-11" class="st1" d="M114.3,66.1c-13.9-12-36.4-11.8-52.4-4.6c-12.7,5.8-26.4,11.4-34.6,23.1
							c-2.3,3.2-3.1,7.1-3.6,11.2"/>
						<path id="Stroke-13" class="st1" d="M69.3,182.8c1.6,10.2,12.5,19.3,21.2,23.3c11.6,5.3,22.2,12.2,34.2,16.6
							c4.6,1.7,8.5,2.8,13,4.4"/>
						<path id="Stroke-15" class="st1" d="M62.3,187.9c0.1,15.6,11.4,24.7,21.6,34.9c5.5,5.5,11.9,10,17.6,15
							c5.3,4.7,10.8,9.5,17.4,12.3c3.5,1.5,6.7,2.3,10.5,2.4c2.2,0.1,7.9-0.8,8.9-0.4"/>
						<path id="Stroke-19" class="st1" d="M136.9,49.5c3.5-6.5,3.4-12.1-2.8-16.9c-8.7-6.7-18.9-4.3-28.9-5.4
							c-9.4-1-18.3-4.7-27.7-5.8c-12.4-1.4-24,9.9-32.8,17.5"/>
						<path id="Stroke-21" class="st1" d="M132.3,54.4c-1.9-9.5-13.3-13.9-21.4-16.5c-10.1-3.2-21.4-4.5-31.9-4.8
							c-20.8-0.6-45.9,4.5-54.4,26.4"/>
						<path id="Stroke-23" class="st1" d="M126.2,60.7c0.4-2.8-3.9-6.6-6.1-8.2c-4.7-3.3-10.8-4.4-16.2-6.1
							c-11.8-3.7-25-3.6-37.1-1.6c-12.3,2-22.4,7.2-31.6,15.3c-1.6,1.4-3.3,2.6-4.9,3.9c-5.2,4.1-13.5,13.5-12.9,20.4"/>
						<path id="Stroke-25" class="st1" d="M144.1,46.1c2.8-4.7,4-10.7,1-15.9c-5.9-10-17.1-8.3-27-8.8c-6.5-0.4-11.7-5.1-18.1-6.4
							c-5-1-10.6-1.4-15.4,0c-3.4,1-15.3,7.7-18.2,8.4"/>
						<path id="Stroke-27" class="st1" d="M108.8,66.4c-9.3-6.6-26.3-4.6-36.7-2.4c-5.4,1.1-9.8,3.4-14.1,7
							c-2.3,1.9-4.5,4.2-6.4,6.5c-3.1,3.6-8.9,10.7-9.1,15.3"/>
						<path id="Stroke-29" class="st1" d="M135.9,23c-7.6-2.9-11.4-11.5-20.4-12.8c-6.4-1-16.4,2.5-22.2,4"/>
						<path id="Stroke-31" class="st1" d="M61,187.9c-1.4,3.7-1.9,8.3-3,12.2c-1.1,3.8-2.7,7.5-3.8,11.3c-2.2,7.8-1.4,15.1,1.3,22.6
							c4.9,13.5,13.7,25.3,17.9,39.2c1.1,3.8,1.9,6.4,3.8,10.9"/>
						<path id="Stroke-33" class="st1" d="M180.6,99.8c-4.7,0.1-9.7,1.5-14,3.9c-4,2.2-13.4,9.8-12.8,14.8"/>
						<path id="Stroke-35" class="st1" d="M96.3,132c10.6-10.9,29.2-14.5,43.8-13.4"/>
						<path id="Stroke-37" class="st1" d="M156.3,121.1c0.7-3.7,6.1-7.4,9.4-8.4c3.3-1.1,7.4-0.8,10.9-0.6
							c-1.4,9.3-12.3,9.7-19.7,8.2"/>
						<path id="Stroke-39" class="st1" d="M101.8,137.8c0.6-2.1,6-5.6,8.2-7.1c2.9-1.8,6.2-3.7,9.5-4.5c4.9-1.1,8.8,1,11.4,5.1
							c-4.7,0.5-8.2,5.4-13.1,6.4c-4,0.8-12.7,1.3-16.3-0.3"/>
						<path id="Stroke-41" class="st1" d="M166,112.6c-4.2,1.2-2.1,7.8,2.8,6.4c2.8-0.8,4.9-8-0.1-6.9"/>
						<path id="Stroke-43" class="st1" d="M115.8,127.5c-2.9,2.7-0.2,9.1,4.6,7.4c2.8-1,7.7-8.4,2.4-8.9"/>
						<path id="Stroke-45" class="st1" d="M148,148.4c-3.1,0.1-5.3-0.9-7.6,1.9c-1.7,2.1-2,5.2-1.1,7.6c0.9,2.3,3.1,4.3,5.4,4.6
							c3.2,0.5,3.6-1.5,6-2.8c7.2-3.9,6,0.1,8.8,0.1s6.2-1.9,8.4-4.6c2.8-3.4,1.5-6.3,0.3-9.5c-2.6-7.1-7.6-11.2-10.9-18
							c-1.9-3.9-3.9-7.6-3.9-11.9"/>
						<path id="Stroke-51" class="st1" d="M144.8,162.7c-3.2,1.4-8.2,6.2-11.1,8.4c-2.4,1.8-5.9,3.1-7.9,5.3
							c-2.1,2.2-1.7,5.7-1.5,8.5c0.3,3.1,0,6.9,1.2,9.7c-1.2,0.3-1.2-0.2-1.5-0.5"/>
						<path id="Stroke-53" class="st1" d="M168.7,154.5c4,1.4,9,2.7,12.7,4.5c3.8,1.9,5,5.8,4.9,9.8"/>
						<path id="Stroke-55" class="st1" d="M144.8,197c-1,0.4-9.2-0.7-10.9-2.1c-2.8-2.4-2.8-9.2-2.5-12.4c0.5-6.3,16.8-6.5,21.7-8.3
							c7.6-2.8,16.9-7,24.8-8.3c3.5-0.6,6.1,1.6,5.8,11.6"/>
						<path id="Stroke-57" class="st1" d="M135.5,181.4c12.4,1,18.6-3.6,24.8-5.2c6.6-1.7,12.5-3.2,18.6-7.2"/>
						<path id="Stroke-59" class="st1" d="M137.2,265.6c1.2-6.9-1.8-9.8-5.5-9.4c-3.9,0.4-3.6,5.6-3.7,8.4
							c-0.2,3.4-1.8,7.9-1.3,11.3c0.5,2.8,4.8,5.3,6,1.2"/>
						<path id="Stroke-61" class="st1" d="M259,272.4c-2.4-4.1-3.9-8.8-6.3-12.9c-2.7-4.6-6.3-8.6-8.8-13.2
							c-8.3-15.2-4.6-39-19.8-49.9c-6.5-4.7-14.2-8.1-20.8-12.8c-6.7-4.7-12.7-5.2-20.8-5.6c-7.7-0.4-15.4-0.4-22.2,2.1
							s-12.7,12.1-1.4,10.5c16.6-2.4,38.6,2.3,51.1,13.4"/>
						<path id="Stroke-63" class="st1" d="M128.3,258.7c-8.3,0.3-14.2-4.6-21.8-6.9c-6-1.9-12.8-3.2-18.7-4.7
							c-2.7,6.7-4.8,15-6,22.1c-0.9,5.2-2.8,11-2,16.3c1,6.4,2.6,9,8.9,5.8c7.5-3.7,15.5-5.8,23.4-8.5c5.2-1.8,11.5-2.7,15.9-4.4"/>
						<path id="Stroke-65" class="st1" d="M126.2,265.8c-7.4,0.6-17-8.8-24.5-5c-7.7,3.9,15.4,7.7,17.6,8.9
							c-5.7,1.7-16.8,3.1-19.1,10c5.4,2,16.7-3.9,20.5-6.7"/>
						<path id="Stroke-67" class="st1" d="M187.4,192.4c-9.4-0.1-17.4-0.7-26.7,0.8c-6.3,1-16,1.1-18.2,8.8
							c-2.3,8.3,13.2,4.8,18.4,4.8c8,0,16.2,0.4,23.7,3c5.8,2,16.6,5.2,20.3,10.3c-3.2,1.6-6.2-2.2-8.9-3.7c-4.2-2.4-8.3-3-13-3.8
							c-10.9-1.8-22.1-2.4-33.3-2.9c-4.7-0.2-8.2-0.8-9.6,4.2c-1.4,5.2,2.3,7.5,6.9,8.8c10.2,2.9,21.4,2.6,31.6,5.3
							c4.8,1.3,10.1,2,14.3,4.2c4.8,2.4,4.4,4.3,4.5,9.6c-4.3-1.4-8.8-3.3-13.3-4.9c-6-2-12.3-1.9-18.1-4.3
							c-4.2-1.8-7.6-4.6-12.1-4.9c-7.1-0.4-7.5,5.2-3.6,10c4.4,5.3,12.6,7.3,19.2,8.8c6.4,1.4,12,4.3,18,7
							c11.6,5.1,12.9,17.7,19.9,27.3c4.9,6.7,14.4,9.2,18.7,15.8c5.4,8.3,7.7,29.8,7.9,45.9"/>
						<path id="Stroke-69" class="st1" d="M209.6,187.5c-6.3-5.8-8.8-14.7-14.4-20.9c-6.2-6.8-13.9,8.3-10.3,11.3"/>
						<path id="Stroke-71" class="st1" d="M127.1,287.5c3.7-6.5,8-14.8,10.1-21.9c2.4-8.2,0.8-17,0.3-25.3
							c-0.8-13.8,0.6-26.1,5.1-38.3c1-2.8,2.2-6.4,4-9.1c1.2-1.8,4.5-5.3,6.8-7.3"/>
						<path id="Stroke-73" class="st1" d="M165.2,323.9c3.3-6.1,6.8-12.2,9.3-18.7c2.4-6.2,4.7-13.4,8.8-18.7
							c3.2-4.1,7.4-8,11.2-11.5c1.3-1.2,5.1-4.5,6.4-5.7"/>
						<path id="Stroke-75" class="st1" d="M97.4,339.7c-1.9-1.5-6.3-7.8-7.6-7c8.2-11.9,19.1-20.8,25.5-34l0,0
							c1.8-3.7,4.4-8.8,8-11.1c3.4-2.2,4.3-0.5,7.1,2c10,8.9,20,18.2,29.3,27.9c3.2,3.3,6.1,6.8,9.2,10.2c1.5,1.7,5.8,4.8,6.4,7
							c0.6,2.3-1.3,5.1-3.9,7.8"/>
						<path id="Stroke-81" class="st1" d="M76.8,282.9c1,3.8,4.6,7.5,6.8,10.9c2.9,4.3,5.3,8.9,9.6,12c3.3-5.4,5.3-15.7,8.9-19.8"/>
						<path id="Stroke-85" class="st1" d="M57.6,187.5c-3.2,2.1-5.5,5.7-9.1,7c-5.1,1.8-9,0-13.9,3c-4.6,2.9-8.4,6.3-12.5,9.7
							c-3.2,2.6-10.6,6.1-11,10.6"/>
						<path id="Stroke-87" class="st1" d="M89.8,332.7c-2.6,2.3-6.6,6.3-9,9.2"/>
						<path id="Stroke-89" class="st1" d="M53.8,296.7c0.5-19.7-8.4-34.5-18.3-50.6c-6.8-11-17.1-27.6-31.1-30.3
							c-1.3-0.3-2.6-0.4-4-0.4"/>
						<path id="Stroke-93" class="st1" d="M0.5,251.2c15.1,11.1,28.6,34.4,36.6,49.9c6.6,12.8,5.9,27.3,6.8,41.2"/>
						<path id="Stroke-109" class="st1" d="M63.4,172.5c-1.2-4.3-5.9-4.4-9.3-5c-4.9-0.9-7.4-1.9-10.8-5.8
							c-3.5-3.9-13.2-19.5-3.3-20.1c8.5-0.5,11.7,10.1,16.3,15.1"/>
						<path id="Stroke-113" class="st1" d="M161.6,331.1c-4.7,0.1-6.6,8.5-1.5,7.6c3.7-0.7,3.3-6.4,0.7-7.6"/>
						<path id="Stroke-115" class="st1" d="M95.4,131.4c2.6-4,2.6-6.8,7.3-9.4c4.6-2.5,10-4,15.1-5.4c2.8-0.8,25.8-5.6,22,2.5"/>
						<path id="Stroke-117" class="st1" d="M153.9,116.8c-2.4-7.1,2.1-10.4,7.3-13.8c4.9-3.3,10.7-7.8,17-6.9"/>
					</g>
				</g>
			</g>
		</g>
	</g>
</g>
</svg>
