<?xml version="1.0" encoding="utf-8"?>
<!-- Generator: Adobe Illustrator 22.0.1, SVG Export Plug-In . SVG Version: 6.00 Build 0)  -->
<svg version="1.1" xmlns="http://www.w3.org/2000/svg" xmlns:xlink="http://www.w3.org/1999/xlink" x="0px" y="0px"
	 viewBox="0 0 260 344" style="enable-background:new 0 0 260 344;" xml:space="preserve">
<style type="text/css">
	.st0{opacity:0;}
	.st1{fill:none;stroke:#000000;stroke-width:2;stroke-miterlimit:10;}
</style>
<g id="bg">
	<rect class="st0" width="260" height="344"/>
</g>
<g id="Layer_2">
	<path class="st1" d="M150.9,70.5c-0.9,2.8-0.6,5.9-2.2,8.5"/>
	<path class="st1" d="M155.1,72.5c3.6,6.7,7.7,15.9,16.3,17.4"/>
	<path class="st1" d="M191.2,109.4c2.6,1.2,4.2,4.5,4.7,7.2"/>
	<path class="st1" d="M164.7,78.3c1.9,3.3,5.9,5.6,8.2,8.8c2.5,3.6,4.8,5.5,8.7,7.4c0.4,0.3,0.4,0.3-0.1,0
		c6.7,3.7,11.5,6.5,15.2,14.3c1.7,3.5,2.2,9.1,3.2,13c0.6,2,1.1,4.1,1.9,6.1c1.7,4.4,3.5,4.4,5.2,12.7c1.1,5.4-2.3,11,0,22.1"/>
	<path class="st1" d="M209.9,135.6c0.1,3.5,2.6,6.6,3.3,9.9"/>
	<path class="st1" d="M77.6,135.8c0,12-3.3,21.2-2.7,33.1c0.3,8.1-0.2,13.9,2.2,21.8c2.3,7.6,3.9,27.8,12.4,39.4
		c4,5.4,8.7,9.7,14.1,13.9c8.9,7,20.9,16.1,32.5,16.9c28.7,2,54.7-27.8,61.5-39.6c3.4-5.9,5.9-12,8.6-18.2
		c2.5-5.7,2.3-12.1,3.2-18.2c2.2-14.1,1.2-31.2,1.1-34"/>
	<path class="st1" d="M149.6,132.6c6-5.5,16.5-8.3,24.3-10.2c5.2-1.3,7.5-0.8,11.6,2.4c2.1,1.6,10.6,7.4,8.8,10.4
		c-1,0.9-12.6-8.2-23.4-5.1c-3.9,1.1-7.9,2.7-11.8,3.9c-1.7,0.6-4.3,2.1-6.1,2.1C151.2,136.1,147.9,135,149.6,132.6z"/>
	<path class="st1" d="M81.3,133.4c2.3-2.7,4.3-4.8,7.9-5c3.1-0.2,6.4,1.1,9.4,1.7c5.9,1.2,19.2,4.9,18.4,7.7c-1,1.8-7.1,1.9-9.1,1.7
		c-3.3-0.5-5.6-1.8-8.8-2.9c-4.8-1.5-10.7-3.8-19.7,0.3C78.4,136,80.3,134.5,81.3,133.4z"/>
	<path class="st1" d="M154,157.1c5-0.2,10.9,1.5,16,1c5.7-0.6,13.1-5.3,17.3-9c-5.2-3-11.6-4.9-17.6-3.9
		C164.8,146.1,155.1,151.8,154,157.1z"/>
	<path class="st1" d="M117.1,158.9c0.7-0.2,1-1.1,0.5-1.7c-3.7-4.9-11.7-8.8-17.4-8.2c-3.3,0.3-5.9,0.8-8.8,2.4
		c-2,1.1-6,2.9-8.8,4.8c2.6,1.8,6.4,3.8,9.6,4.8c2.7,0.8,5.5,1.5,8.3,1.6C106,162.9,111.8,160.6,117.1,158.9z"/>
	<path class="st1" d="M166.1,146.4c-4.2,4-2.3,11.5,5,11.5"/>
	<path class="st1" d="M172.1,145c5.8,1.4,6.7,8.9,2.4,12"/>
	<path class="st1" d="M99.1,149.2c-5.5,1-7.8,12.3,1.4,13.5"/>
	<path class="st1" d="M106.1,149.7c4.2,3.6,1.8,11.3-3.4,12.9"/>
	<path class="st1" d="M126.7,191.6c-1.1-5.8,1.7-14.2,1.9-17.6c0.4-6.1-0.2-11.9-1.1-17.9"/>
	<path class="st1" d="M151.8,201.8c2.6-2.8,5.4-3.5,6.1-7.4c0.7-4.1-0.8-5.2-2.5-8.5"/>
	<path class="st1" d="M123.9,203.1c-2.6-1.1-5.6-4.3-6.2-7.2c-0.7-3.1,1.9-7.4,3.7-6.3"/>
	<path class="st1" d="M123.7,198.7c2.6-1.6,6.1-0.1,7.7,2.2"/>
	<path class="st1" d="M142.7,201.5c2.2-2.1,5.3-4.7,8.5-3.6"/>
	<path class="st1" d="M145.7,194c3.4-3-0.1-8.2-2.8-8"/>
	<path class="st1" d="M109.9,222.4c5.4,0,9.7-0.6,14.6-2.8c2.4-1.1,4.5-2.1,7.2-1.9c2.4,0.2,4.8,1.7,7.2,1.6
		c2.6-0.1,4.6-2.1,7.2-2.4c2.5-0.3,4.8,0.6,7.2,1.4c4.9,1.7,9.2,2.9,14.3,1.9c-3.9,3.3-10.6,10.9-15.7,12.7c-4.1,1.4-8.7,1.7-13,2
		c-4.3,0.3-8.5,0.1-12.7-1.1c-2.2-0.7-4.5-1.9-6.3-3.4c-1.9-1.6-3-4.5-5.2-5.7c3.1,1.7,9.6,0.1,13-0.3c4-0.6,8.3-0.4,12.4-0.5
		c8.2-0.2,16.6,0.1,24.5-1.7"/>
	<path class="st1" d="M214.1,139.7c1.2-4-0.5-14.3,5.2-15.2c6.8-1.2,3.9,10.5,3.6,14.1c-1.1,11.1,0.8,22-0.8,33.1
		c-0.5,3.5-0.8,6.5-3.2,9.4c-1.9,2.3-6,5.9-9.2,4.1"/>
	<path class="st1" d="M161.7,67.2c2.8,5.5,9.5,8.8,14.3,12.3c5.5,4,11,8,15.9,12.9c4.6,4.6,8.9,10.7,10.7,17
		c1.6,5.6,2.1,12.4,4.8,17.6"/>
	<path class="st1" d="M154.5,62.3c-4-16.2-27.2-15.7-40-11.4c-7.2,2.4-14.2,8.5-19.5,13.9c-4.9,5.1-10.1,10-14.5,15.6
		c-6.3,8.1-9.5,17.5-13.8,26.8c-0.9,1.9-2.6,4.8-3.7,6.6c-1.5,2.6-2.8,5.2-3.7,8c-1.7,5.3-3.1,10.6-4.2,16
		c-1.3,6.5-1.8,13.2-3.3,19.7c-1.6,7.3-4.4,14.4-6.6,21.6c-0.8,2.7-2,5.5-3.1,8.1c-2.2,5.3-3.7,10.8-5.7,16.1
		c-4.9,12.9-9.1,25.8-12.8,39.1c-5,18.3-6.6,36.3-6.6,55.2c0,6.8,0.3,13.7,0,20.5c-0.3,9.4-3.6,25.1-3.6,25.5"/>
	<path class="st1" d="M146.8,69.7c-1.2,6.6-9.2,11.2-15.4,11.3c-3.4,0.1-6.5-1.5-9.7-2.3c-3.4-0.8-7-0.5-10.5-0.5
		c-4.8,0-13,3.5-16.6,6.5c-5.1,4.3-8.4,10.6-11.4,16.4c-5.9,11.6-4.1,25.9-6.3,38.5c-1,5.9-3.3,11.3-5,17
		c-2.4,8.1-4.9,16.2-7.4,24.3c-1.3,4.2-3.9,9.1-5.4,13.2c-1.6,4.7-2.6,9.6-4.1,14.4c-1.5,5.1-2.8,10.3-3.5,15.6
		c-0.4,2.6-0.8,5.2-1.2,7.9c-0.9,5.6-3.8,26.7-4.7,31.8c-1.7,9.3-3.2,18.7-2.5,28.3c0.6,8.5,1.8,17,2.6,25.5
		c0.5,4.6,1.3,9.2,1.4,13.8c0.1,2.4,0,7.9,0.5,11.6"/>
	<path class="st1" d="M80.9,208.4c1.5,8.9,0,17.9-0.8,26.8c-1.1,12.7-1,25.3-0.9,38c0.1,10.4,2.3,20.4,3.3,30.6
		c1,10,1.8,29.8-0.7,39.7"/>
	<path class="st1" d="M217.1,278.7"/>
	<path class="st1" d="M191.2,230.3c0,8.6-1,19.9,1.7,28.3c4,12.5,19.2,16.7,24.3,20.1"/>
	<path class="st1" d="M95.5,237.1c1.1,7.1,1.4,17,0.7,24.2c-0.8,8.7-8,14.6-16.4,16.5"/>
	<path class="st1" d="M75.3,181.6c0.7,5.9-0.9,18.1-1.8,22.8c-1.9,10.4-5.8,20.4-9.1,30.4c-4.9,14.7-8.8,29.5-9.6,45.1
		c0,0.5-0.2,10.7,0,14.3c0.3,6.5-0.2,12.9,0.3,19.4c0.4,5.9,0.6,11.8,1.1,17.6c0.3,3.7,1,8.5,0.9,12.2"/>
	<path class="st1" d="M142.4,66.4c-1.9-0.1-3.7,1.2-5.7,1.3c-2.2,0.2-4.2-0.2-6.3-0.7c-5.4-1.3-10.9-2.8-16.5-2.6
		c-10.5,0.4-19.6,5-26.5,12.8c-15.3,17.4-17.1,40.9-23.5,62.2c-1.6,5.4-2.1,11.2-3.4,16.8c-1.4,6.5-12.1,51.2-17.1,66.8
		c-3.3,10.5-7,21.4-8,32.5c-1,11.2-1.7,23-1.4,34.2c0.2,7.9-0.9,17.4-1.4,25.2c-0.7,10.5,0,18.5-3.1,28.6"/>
	<path class="st1" d="M164.2,61.4c5.3,4.7,11.6,6.8,17.8,10.5c7.8,4.7,15.7,10.8,20.6,18.7c3.8,6,7.3,13.3,9.5,20
		c2.1,6.5,2.7,14.5,2.7,22.6"/>
	<path class="st1" d="M218.5,181.6c0.8,2.3,0.2,5.4,0.3,7.7c0.2,4.2,0.3,8.5,0.2,12.7c-0.3,10.8-1.7,21.3-3.2,31.9
		c-1.7,12.6-5.6,27.2-8.9,39.4"/>
	<path class="st1" d="M159.5,57.6c4.5-5.7,9.5-6.2,16-3.8c8.7,3.2,16.8,7.5,22.6,14.9c7.9,10.1,12.7,24.1,16.3,36.3
		c1.8,6,4.7,12.8,5.5,19"/>
	<path class="st1" d="M158.7,48.2c1.8-9.6-10-27.9-20.6-25.6c-8.5,1.9-15.6,6.7-23.7,9.5c-7.5,2.5-16.9,3.6-22.7,9.5
		c-2.1,2.1-5.6,5.6-7.4,7.8c-2.2,2.6-4.4,5.3-6.8,7.8c-6,6.4-12.2,12.1-17.3,19.3c-4.9,7-8.7,15.4-10.8,23.6
		c-2.9,11.3-6.4,22.4-9.3,33.7c-0.6,2.3-1.1,7.1-1.3,9.6c-0.5,6-1.7,11.9-2.8,17.9c-1.4,7.3-2.7,14.6-4.6,21.8
		c-2.3,8.7-7.7,16.7-7.6,26c0,2.6-1.3,7.3-1.7,9.8c-0.7,4.7-1.6,9.3-2.6,13.9c-0.8,3.8-1.7,7.6-2.8,11.3c-1,3.7-3.2,8.2-2.9,12
		c0.8,9.8-3.3,20.5-3.3,30.2"/>
	<path class="st1" d="M163.3,46c-0.9-3.4,1-9.3,4.4-10.9c3.6-1.7,8.2,0.4,11.4,2.2c9.8,5.6,15.7,15.8,21.9,24.8
		c6.7,9.6,11.7,20.9,16.6,31.6c2.3,4.9,4.5,9.8,6.1,15c2,6.8,2.1,14.1,3.1,21.2c1.1,7.1,2.4,14,3.4,21.1c0.6,4.2,0.8,8.3,0.8,12.6
		c0,4.7-0.8,11.5,0.6,15.9c1.3,4.2,0.5,8.7,0.6,13.1c0,7.3-0.9,14.6-1.1,21.9c-0.4,12.2,0.1,43.6,0.2,55.1c0,3.8,0,7.7,0,11.5"/>
	<path class="st1" d="M16.7,285c-3,0-6,1.7-8.8,2.5c-4.5,1.2-3.3,1.1-7.8,2"/>
	<path class="st1" d="M217.1,278.7c4.9,3.4,1.4,10.6-0.4,14.5c-3.5,7.5-8.3,14.1-12.5,21.2c-4.3,7.1-17.9,23.4-23.6,29.4"/>
	<path class="st1" d="M213.5,152.7c0.6,1.7,1.8,2.4,1.9,4.4c0.1,1.5-0.6,3.2-0.9,4.7c-0.7,3.1-1.5,6.6,0.6,9.4"/>
	<path class="st1" d="M216,278c1.4-1.8,5.6-2.6,8-1.4c2.9,1.5,4.4,3.3,4.7,6.5c0.5,5.5-1.5,10.5-3.6,15.4
		c-2.7,6.5-6.8,12.3-10.7,18.2c-6.2,9.5-11.4,17-18.9,27"/>
	<path class="st1" d="M87.8,227.6c0.3,9.6-0.2,18.3,0.1,26.6c0.2,6.3-0.1,13.1,0.8,19.2"/>
	<path class="st1" d="M206.1,203.1c-1.9,9.2-4.1,20.3-6.3,29.4c-1.1,4.6-2.7,9-4.3,13.4c-1,2.6-2.1,6.8-3,12"/>
	<path class="st1" d="M228.3,281c5.6,1.4,12.7,2.6,18.3,4.2c4.4,1.3,8.6,3,12.9,4.4"/>
</g>
</svg>
