<?xml version="1.0" encoding="utf-8"?>
<!-- Generator: Adobe Illustrator 16.0.0, SVG Export Plug-In . SVG Version: 6.00 Build 0)  -->
<!DOCTYPE svg PUBLIC "-//W3C//DTD SVG 1.1//EN" "http://www.w3.org/Graphics/SVG/1.1/DTD/svg11.dtd">
<svg version="1.1" id="Layer_1" xmlns="http://www.w3.org/2000/svg" xmlns:xlink="http://www.w3.org/1999/xlink" x="0px" y="0px"
	 width="449.922px" height="595.281px" viewBox="0 0 449.922 595.281" enable-background="new 0 0 449.922 595.281"
	 xml:space="preserve">
<g id="bg">
	<rect x="-0.094" y="0" fill-opacity="0" width="449.921" height="595.281"/>
</g>
<path fill="none" stroke="#000000" stroke-miterlimit="10" d="M266.203,112.274c-7.738-4.286-30.358-19.287-38.933-25.597"/>
<path fill="none" stroke="#000000" stroke-miterlimit="10" d="M229.653,76.677c-8.81-7.384-21.19-15.954-34.406-16.668"/>
<path fill="none" stroke="#000000" stroke-miterlimit="10" d="M192.865,584.094"/>
<path fill="none" stroke="#000000" stroke-miterlimit="10" d="M49.997,551.472c-9.523,14.167-16.787,19.049-23.454,26.43
	c-8.334,9.287-7.249,10.475-9.511,17.379"/>
<path fill="none" stroke="#000000" stroke-miterlimit="10" d="M328.588,566.949c0.478,7.265,2.486,18.212-0.133,28.332"/>
<path fill="none" stroke="#000000" stroke-miterlimit="10" d="M227.629,86.915"/>
<path fill="none" stroke="#000000" stroke-miterlimit="10" d="M227.391,86.677c-0.478-0.598-1.667-4.167-1.548-4.646
	c0.118-0.477,5.596-1.548,5-2.144c-0.596-0.597-1.547-2.619-1.19-3.216c0.357-0.596,5.479-0.834,5.597-1.429
	c0.119-0.596-2.618-1.667-2.263-2.262c0.479-0.596,14.287-1.905,15.834-7.62"/>
<path fill="none" stroke="#000000" stroke-miterlimit="10" d="M233.344,259.07c-1.548-0.952-2.382-0.952-4.524-0.714
	c-0.477,0-6.785-4.646-7.501-4.524c-2.021,0.479-3.333,0.714-4.167,1.071c-1.31,0.477-5.118,0.477-6.548,0.119
	c-1.429-0.358-5.119-0.714-5.596-0.714c-1.071,0-3.452,1.188-5,1.902c-0.597,0.238-2.146,2.265-3.097,1.905
	c-0.952-0.359-2.978-0.834-6.311,1.19c-1.549,0.95-1.786,1.188-2.619,1.31c-1.43,0.238-8.215-2.381-4.404-2.021
	c0.951,0.116,1.667-0.238,3.929-1.667c2.023-1.19,9.764-7.024,14.406-9.051c0.833-0.354,1.547-0.833,2.381-0.714
	c5,0.357,9.049,2.5,9.645,2.381c2.619-0.833,5.238-2.262,9.048-2.977c1.19-0.238,2.382,0.834,3.572,1.548
	c2.619,1.429,7.144,4.882,10.953,8.334c1.666,1.548,4.167,3.334,5.356,3.334c1.548,0-2.5,2.5-5.716,2.5
	C235.725,261.333,234.535,259.785,233.344,259.07z"/>
<path fill="none" stroke="#000000" stroke-miterlimit="10" d="M211.319,259.308"/>
<path fill="#FFFFFF" stroke="#000000" stroke-miterlimit="10" d="M233.82,264.785"/>
<path fill="none" stroke="#000000" stroke-miterlimit="10" d="M232.391,267.047c-2.738,1.667-5,4.405-10.238,5.357
	c-6.548,1.191-14.524,1.311-20.12-0.714c-4.882-1.786-4.882-2.381-9.286-5.119"/>
<path fill="none" stroke="#000000" stroke-miterlimit="10" d="M196.674,258.118c3.335,2.023,2.264,1.429,5.478,2.738
	c3.097,1.31,17.502,0.477,20.002,0c2.5-0.479,1.549,0.119,7.024-2.619"/>
<path fill="none" stroke="#000000" stroke-miterlimit="10" d="M226.32,223.234c-0.477-0.595-0.834-0.952-2.5-1.667
	c-1.071-0.478-5.238,3.334-5.477,3.689"/>
<path fill="none" stroke="#000000" stroke-miterlimit="10" d="M210.485,224.068c-0.118-0.834-3.451-3.215-4.167-3.572
	c-0.476-0.238-4.881,2.5-5.118,2.979"/>
<path fill="none" stroke="#000000" stroke-miterlimit="10" d="M196.793,220.972"/>
<path fill="none" stroke="#000000" stroke-miterlimit="10" d="M201.437,229.901"/>
<path fill="none" stroke="#000000" stroke-miterlimit="10" d="M193.698,181.802c-2.144-1.666-4.881-3.812-7.5-5
	c-5.715-2.5-17.979,0.95-23.097,8.096c-2.382,3.334,16.668,6.548,20.479,5.238c1.785-0.597,8.81-3.812,9.763-4.167
	c3.571-1.312,4.404-0.597,4.049-1.431C197.151,184.184,195.603,183.231,193.698,181.802z"/>
<path fill="none" stroke="#000000" stroke-miterlimit="10" d="M158.219,177.874c3.691-3.81,8.931-8.334,14.168-9.167
	c8.216-1.188,20.001,5.715,24.884,10.953"/>
<circle fill="none" stroke="#000000" stroke-miterlimit="10" cx="180.364" cy="183.231" r="7.024"/>
<path fill="none" stroke="#000000" stroke-miterlimit="10" d="M212.867,255.141c0,1.429,0,5,0,6.189"/>
<path fill="none" stroke="#000000" stroke-miterlimit="10" d="M202.389,254.784c-0.356,1.905-0.356,5.12-0.356,5.953"/>
<path fill="none" stroke="#000000" stroke-miterlimit="10" d="M222.51,254.07c0.237,1.429,0.596,4.405,0.596,6.548"/>
<path fill="none" stroke="#000000" stroke-miterlimit="10" d="M192.984,163.111c3.689-0.119,8.216-3.453,8.097-4.881
	c-0.119-0.834-3.097-2.857-6.905-4.286c-2.737-1.072-17.62-3.93-25.001-5.001c-2.737-0.356-16.313,8.334-16.313,8.334l-0.714,2.977
	c3.333-0.596,13.097-5.117,17.145-4.881C177.269,155.729,190.126,162.396,192.984,163.111z"/>
<path fill="none" stroke="#000000" stroke-miterlimit="10" d="M238.582,185.613c2.022-1.667,4.644-3.811,7.264-5.001
	c5.477-2.5,18.096,0.357,22.145,8.096c1.429,2.619-17.383,6.072-19.523,5.239c-2.383-0.953-8.334-3.811-9.287-4.167
	c-3.452-1.31-4.167-0.596-3.93-1.429C235.368,187.875,236.797,187.042,238.582,185.613z"/>
<path fill="none" stroke="#000000" stroke-miterlimit="10" d="M272.513,188.47c0,0-0.952,1.188-2.023-0.717
	c-3.334-5.715-14.645-11.43-24.287-7.263"/>
<path fill="none" stroke="#000000" stroke-miterlimit="10" d="M272.394,181.446c-2.381-4.167-9.286-9.049-13.69-9.524
	c-7.023-0.834-18.931,6.071-22.979,11.905"/>
<ellipse fill="none" stroke="#000000" stroke-miterlimit="10" cx="251.44" cy="186.923" rx="6.668" ry="7.024"/>
<path fill="none" stroke="#000000" stroke-miterlimit="10" d="M244.654,167.516c-3.57-0.119-6.07-1.548-5.833-2.979
	c0.119-0.833,2.619-4.644,5.479-6.189c2.021-1.071,17.856-4.883,25.119-5.598c2.619-0.235,2.737,0.598,2.737,0.598
	s0.479,5.355,0.119,5.477c-0.595,0.238,0.357-0.119-3.57-0.119C261.56,158.706,247.392,165.969,244.654,167.516z"/>
<path fill="none" stroke="#000000" stroke-miterlimit="10" d="M229.534,180.255c-2.855,3.453-3.689,6.072-3.93,6.551
	c-0.714,1.31-1.311,4.762,2.619,7.617"/>
<path fill="none" stroke="#000000" stroke-miterlimit="10" d="M205.485,179.66c0.715,1.429,2.738,5,3.333,8.453
	c0.357,1.667-2.262,4.643-2.854,5.238"/>
<path fill="none" stroke="#000000" stroke-miterlimit="10" d="M155.6,283.001c4.523,5.952,9.405,9.405,17.857,14.646
	c8.69,5.355,18.572,11.668,26.551,12.739c4.881,0.595,8.929-0.238,12.856-0.119c5.479,0.119,10.357,0.477,15.12-0.833
	c5.714-1.548,13.572-6.551,25.598-14.168c19.883-12.62,22.384-19.525,26.669-33.813"/>
<path fill="none" stroke="#000000" stroke-miterlimit="10" d="M227.391,86.677c-18.573-2.146-45.36,7.855-51.908,13.689
	c-10.478,9.286-21.313,41.669-22.383,50.956c-0.596,4.404-3.811,40.836-3.571,55.599c0.356,20.835,5.356,74.648,9.405,99.412
	c7.263,44.646,14.523,108.817,11.667,136.915c-3.689,35.359-12.619,53.339-33.098,71.554"/>
<path fill="none" stroke="#000000" stroke-miterlimit="10" d="M233.106,73.104c-11.668-11.905-28.931-16.905-32.025-16.313
	c-1.904,0.357-4.405,3.215-5.834,3.334c-1.43,0.238-6.071-0.355-9.523,0.833c-18.453,6.549-43.933,47.268-48.933,62.147
	c-13.572,40.122-22.383,86.673-24.883,106.793c-3.333,26.55-11.667,53.693-19.883,102.746c-7.023,42.384-4.404,63.1-0.834,127.032"
	/>
<path fill="none" stroke="#000000" stroke-miterlimit="10" d="M170.244,72.033c-9.405,4.286-34.407,28.692-39.408,38.455
	c-7.978,15.597-22.501,50.599-27.383,69.172c-2.023,7.857-14.405,60.361-16.431,69.291c-4.167,18.572-13.453,65.48-32.502,96.792
	c-2.145,3.453-12.857,14.287-18.454,25.6c-5.597,11.31-11.548,65.6-11.904,72.979"/>
<path fill="none" stroke="#000000" stroke-miterlimit="10" d="M100.24,192.875c-4.168,10.12-23.217,48.575-27.384,57.504
	c-8.334,18.099-19.646,59.528-21.432,68.341c-2.856,13.811-5.478,22.621-8.571,41.908"/>
<path fill="none" stroke="#000000" stroke-miterlimit="10" d="M228.701,212.043c2.262,5.001,4.048,9.765,3.334,12.025
	c-1.312,3.929-2.023,4.521-6.312,7.381"/>
<path fill="none" stroke="#000000" stroke-miterlimit="10" d="M201.318,211.329c-0.833,1.312-3.571,6.19-4.523,11.548
	c-0.356,1.786,2.023,4.524,5.001,6.313"/>
<path fill="none" stroke="#000000" stroke-miterlimit="10" d="M156.196,491.111"/>
<path fill="none" stroke="#000000" stroke-miterlimit="10" d="M111.907,229.782c-4.286,58.1-11.191,152.631-15.835,193.586
	c-3.929,35.002-8.812,66.195-18.453,97.626c-5.357,20.479-21.79,62.738-24.886,74.287"/>
<path fill="none" stroke="#000000" stroke-miterlimit="10" d="M114.169,425.632c1.785,51.552-18.098,96.674-29.05,121.795
	c-10.953,25.001-20.371,41.901-24.3,47.854"/>
<path fill="none" stroke="#000000" stroke-miterlimit="10" d="M107.74,552.663c5.119-3.929,14.525-15.356,15.717-29.05
	c1.429-16.549-1.43-29.764-3.93-47.025c-2.618-17.739-5.952-51.553-5.238-57.146"/>
<path fill="none" stroke="#000000" stroke-miterlimit="10" d="M123.217,525.875c-5.237,5.479-11.312,11.551-14.287,23.1
	c-2.381,9.167-3.688,22.023-0.354,37.025c1.903,8.332,1.31,0.596,1.903,8.332"/>
<path fill="none" stroke="#000000" stroke-miterlimit="10" d="M139.289,362.053c-0.355,6.549-1.548,22.502,4.763,45.004
	c5.952,21.311,10.001,26.906,11.072,47.622c1.429,27.502-8.215,43.455-16.906,52.146"/>
<path fill="none" stroke="#000000" stroke-miterlimit="10" d="M150.481,428.132c-5.597,17.502-9.404,35.599-10.834,52.266
	c-0.597,7.382-1.667,30.836-2.737,38.932c-3.334,24.406-17.858,33.693-29.646,37.386"/>
<path fill="none" stroke="#000000" stroke-miterlimit="10" d="M146.076,443.726c4.523,7.263,7.738,14.882,4.523,23.335
	c-3.097,7.977-7.619,11.668-10.834,14.287"/>
<path fill="none" stroke="#000000" stroke-miterlimit="10" d="M153.577,476.469c-3.811,7.977-9.764,10.597-14.406,12.023"/>
<path fill="none" stroke="#000000" stroke-miterlimit="10" d="M138.695,497.423c5.119-3.098,8.453-5.834,10.356-14.646"/>
<path fill="none" stroke="#000000" stroke-miterlimit="10" d="M225.844,82.034c-7.264-5.715-20.358-10.715-26.551-9.286
	c-10.715,2.5-24.524,15.834-32.621,30.002c-4.286,7.619-9.048,28.216-13.215,45.601"/>
<path fill="none" stroke="#000000" stroke-miterlimit="10" d="M227.391,86.677c35.121,11.07,35.717,19.285,41.551,30.356
	c3.096,5.953,3.69,44.17,3.571,73.458c0,12.501,4.167,43.932,8.453,63.576"/>
<path fill="none" stroke="#000000" stroke-miterlimit="10" d="M208.7,58.103c3.214-1.312,8.215-3.333,11.189-3.333
	c12.263,0,25.24,6.786,28.455,10.477c0.714,0.834,2.143,0,4.643,0.952c8.097,3.334,29.646,24.764,35.122,31.669
	c10.001,12.62,19.05,26.073,28.692,47.146c10.596,23.097,32.264,89.528,39.051,109.056c4.522,12.977,8.929,24.168,11.667,30.359
	c12.145,28.216,21.549,60.719,21.787,61.192"/>
<path fill="none" stroke="#000000" stroke-miterlimit="10" d="M389.427,345.624c4.644,21.671,6.071,29.171,8.93,47.027
	c2.262,14.406,9.763,45.241,13.929,62.862c3.932,16.548,15.239,63.456,17.621,84.172c1.071,9.168,10.446,37.737-1.102,55.596"/>
<path fill="none" stroke="#000000" stroke-miterlimit="10" d="M395.736,377.295c3.096,5.237,20.121,27.857,26.313,32.024
	c1.667,1.071-1.312,7.024,1.667,9.286c5.715,4.286-1.785,8.096,0,8.572c7.855,1.903,8.096,9.167,8.096,10.237
	c0,1.785-0.238,6.905,0,8.098c0.119,0.354,3.811,6.188,2.619,8.688c-3.571,7.265-1.785,21.313,5.596,21.552
	c4.048,0.117,4.673,17.079,4.435,25.054c0.227-4.756,1.228,11.391-4.666,23.667c0,0,3.333,11.476,3.333,15.571
	s-5.666,9.096-2.333,17.096s2.666,23.666,0.666,29.333s0.334,8.81,0.334,8.81"/>
<path fill="none" stroke="#000000" stroke-miterlimit="10" d="M269.299,118.108c1.429,5.833,7.738,48.455,11.071,77.862
	c3.097,28.098,2.264,72.505-8.097,112.389c-5.952,23.098-12.144,32.384-15.834,48.218c-7.501,32.146-1.189,50.004,4.763,61.195"/>
<path fill="none" stroke="#000000" stroke-miterlimit="10" d="M265.369,373.962c2.023,25.716,0,39.765-12.978,62.026
	c-22.146,37.979-17.024,55.123-9.168,73.457c4.882,11.313,16.549,29.767,51.79,39.884c4.643,1.312,6.429,1.548,6.548,0.717
	c0,0-1.311-0.357-6.072-3.098c-12.737-7.263-35.12-25.597-34.287-52.859c0.478-14.646,11.549-27.979,14.524-54.289"/>
<path fill="none" stroke="#000000" stroke-miterlimit="10" d="M278.347,419.439c-2.978,12.857-2.857,25.002-2.5,38.931
	c0.476,21.552-2.978,40.72-10.479,56.435"/>
<path fill="none" stroke="#000000" stroke-miterlimit="10" d="M348.233,553.972c-45.359-36.313-49.17-59.29-45.24-86.911
	c4.285-30.002,9.764-42.741,13.452-68.695c5.119-36.788,6.431-65.957,3.572-102.508c-2.978-37.859-5.953-66.79-11.312-111.317
	c-2.737-22.978-9.523-53.932-18.217-71.193c-8.689-17.265-34.287-44.289-43.573-43.693c-2.856,0.238-5.834,1.31-7.857,1.786"/>
<path fill="none" stroke="#000000" stroke-miterlimit="10" d="M238.106,472.49c-59.687,2.521-57.081,4.41-75.316,7.203"/>
<circle fill="none" stroke="#000000" stroke-miterlimit="10" cx="197.27" cy="448.727" r="12.739"/>
<path fill="none" stroke="#000000" stroke-miterlimit="10" d="M195.245,448.37c0.596-1.429,2.263-2.022,3.69-1.429
	c1.548,0.714,2.262,2.619,1.548,4.167c-0.834,1.785-2.856,2.5-4.645,1.785c-2.023-0.833-2.856-3.214-2.023-5.119
	c0.953-2.143,3.571-3.215,5.715-2.143c2.383,1.069,3.572,3.929,2.5,6.429c-1.188,2.738-4.403,3.929-7.144,2.738
	c-2.977-1.312-4.404-4.881-2.977-7.857c1.548-3.334,5.477-4.882,8.811-3.334c3.69,1.667,5.477,6.072,3.812,9.763
	c-1.905,4.167-6.786,6.072-10.953,4.167c-4.645-2.021-6.667-7.5-4.645-12.144c2.263-5.119,8.334-7.501,13.572-5.119"/>
<polyline fill="none" stroke="#000000" stroke-miterlimit="10" points="191.554,437.3 192.269,430.868 200.842,429.916 
	202.032,434.321 202.866,437.3 "/>
<path fill="none" stroke="#000000" stroke-miterlimit="10" d="M201.437,432.059l0.714-2.979c0,0,2.383-2.382,3.097-2.855
	c0.237-0.119,3.453,3.81,3.453,3.81l-3.453,3.69l-3.097,0.715"/>
<polyline fill="none" stroke="#000000" stroke-miterlimit="10" points="193.103,430.75 192.626,428.132 189.887,426.701 
	185.84,429.916 188.936,434.321 191.912,434.321 "/>
<path fill="none" stroke="#000000" stroke-miterlimit="10" d="M254.298,366.816c-6.549,10.953-34.051,48.337-47.146,61.434"/>
<path fill="none" stroke="#000000" stroke-miterlimit="10" d="M187.507,428.606c-4.523-5-11.429-15.597-17.263-25.478"/>
<path fill="none" stroke="#000000" stroke-miterlimit="10" d="M278.347,278.119c-9.286,22.502-27.383,52.028-24.883,96.557"/>
<path fill="none" stroke="#000000" stroke-miterlimit="10" d="M259.774,290.977c-3.333,21.311-3.929,25.954-4.048,47.741"/>
<path fill="none" stroke="#000000" stroke-miterlimit="10" d="M242.749,343.6c-9.764,27.383-17.383,60.004-20.598,77.624"/>
<path fill="none" stroke="#000000" stroke-miterlimit="10" d="M170.839,340.147c4.764,18.454,14.524,65.124,15.12,77.506"/>
<path fill="none" stroke="#000000" stroke-miterlimit="10" d="M12.495,543.852c0-3.333,1.189-56.552,9.167-89.054
	c6.429-26.192,7.856-27.385,22.264-48.575c11.786-17.382,12.738-15.239,24.525-34.883"/>
<path fill="none" stroke="#000000" stroke-miterlimit="10" d="M3.366,595.281c6.904-61.076,28.893-106.671,37.106-132.387
	c2.737-8.453,25.479-80.362,29.287-97.27c12.857-57.506,15.358-60.36,29.406-119.415c7.857-33.097,12.146-50.955,22.265-94.292"/>
<path fill="none" stroke="#000000" stroke-miterlimit="10" d="M122.027,148.348c-4.404,24.049-6.19,56.906-6.19,56.906"/>
<path fill="none" stroke="#000000" stroke-miterlimit="10" d="M34.758,375.15c8.097-14.522-1.594-2.738-3.491-1.905
	c-1.896,0.834-16.092,31.193-17.307,33.693s-0.814,12.262-1.422,14.286c-0.606,2.022-5.258,10.356-5.409,13.097
	c-0.151,2.739-3.188,3.929-3.188,6.19c0,2.263,2.276,5.12,2.431,6.311c0.151,1.19-2.278,10.715-1.291,16.432
	c0.986,5.715,2.995,8.392,4.286,11.249c1.365,2.736-3.964,7.681-4.19,10.062c-0.228,2.382-1.821,2.977-1.974,6.549
	c-0.152,3.571,2.353,9.167,2.353,13.691c0,4.521,3.558,9.623,1.813,12.838c-5.813,10.702-3.731,11.74-6.612,22.283
	c-2.05,7.501,0.38,19.645,2.657,25.002c2.276,5.355,0,0-0.379,7.263c-0.381,7.381-5.206,20.354,0.334,23.093"/>
<path fill="none" stroke="#000000" stroke-miterlimit="10" d="M56.903,535.399c-9.645,19.883-16.597,35.951-15.168,59.882"/>
<path fill="none" stroke="#000000" stroke-miterlimit="10" d="M230.248,80.486c5.237-2.262,10.715-4.048,14.764-4.167
	c10.953-0.595,30.836,30.955,34.169,38.932c10.834,26.433,10.597,113.938,10.12,148.82c-0.357,24.645-1.905,52.385-3.334,83.339
	c-1.548,35.003,3.334,77.981,1.785,109.294c-1.548,31.788-14.168,58.813-18.216,65.957"/>
<path fill="none" stroke="#000000" stroke-miterlimit="10" d="M185.721,176.683c-9.524-3.452-20.835,2.619-25.358,7.263
	c-1.548,1.548-4.882-0.119-5.596-1.31c5.478-3.572,16.549-7.501,23.931-7.024"/>
<path fill="none" stroke="#000000" stroke-miterlimit="10" d="M253.345,179.064c10.477-0.356,17.024,3.689,19.168,4.882"/>
<path fill="none" stroke="#000000" stroke-miterlimit="10" d="M306.92,444.203c5.238,34.526,10.002,49.768,41.192,91.315
	c16.191,21.431,21.96,29.046,15.531,59.763"/>
<path fill="none" stroke="#000000" stroke-miterlimit="10" d="M287.038,465.038"/>
<path fill="none" stroke="#000000" stroke-miterlimit="10" d="M286.204,470.871c-5,60.957,58.101,80.008,61.908,83.104"/>
<path fill="none" stroke="#000000" stroke-miterlimit="10" d="M328.113,506.826c0.119,5.119,1.904,17.266,0,29.407"/>
<path fill="none" stroke="#000000" stroke-miterlimit="10" d="M327.04,543.26c-4.881,25.597-18.452,21.426-21.786,52.021"/>
<path fill="none" stroke="#000000" stroke-miterlimit="10" d="M342.399,527.661c-1.07,9.524-2.022,12.384-4.167,18.454"/>
<path fill="none" stroke="#000000" stroke-miterlimit="10" d="M337.161,548.734c-9.645,27.146-22.282,24.641-24.665,46.547"/>
<path fill="none" stroke="#000000" stroke-miterlimit="10" d="M321.922,540.045c0.596,1.548,2.022,6.07,3.096,11.07"/>
<path fill="none" stroke="#000000" stroke-miterlimit="10" d="M315.493,403.723c10.237,52.979,14.167,74.053,26.786,100.007
	c10.717,22.025,27.385,46.67,23.932,79.411"/>
<path fill="none" stroke="#000000" stroke-miterlimit="10" d="M305.254,163.111c9.644,39.288,40.599,173.822,51.908,208.468
	c12.501,38.1,22.264,58.456,32.265,88.103c12.022,35.599,29.966,82.023,16.868,135.602"/>
<path fill="none" stroke="#000000" stroke-miterlimit="10" d="M320.85,353.72c5.715,64.885,36.431,115.365,50.241,139.771
	c18.335,32.266,26.799,67.619,22.272,101.789"/>
<path fill="none" stroke="#000000" stroke-miterlimit="10" d="M131.789,108.94c-2.145,4.167-8.334,27.857-9.645,39.408"/>
</svg>
