<?xml version="1.0" encoding="utf-8"?>
<!-- Generator: Adobe Illustrator 22.0.1, SVG Export Plug-In . SVG Version: 6.00 Build 0)  -->
<svg version="1.1" id="Layer_1" xmlns="http://www.w3.org/2000/svg" xmlns:xlink="http://www.w3.org/1999/xlink" x="0px" y="0px"
	 viewBox="0 0 260 344" style="enable-background:new 0 0 260 344;" xml:space="preserve">
<style type="text/css">
	.st0{fill-opacity:0;}
	.st1{fill:none;stroke:#000000;stroke-width:2;stroke-miterlimit:10;}
</style>
<g id="bg">
	<rect class="st0" width="260" height="344"/>
</g>
<g id="Layer_2_1_">
	<path class="st1" d="M114.3,34.4c-1.7,11.3,8.7,22,19.9,15.2"/>
	<path class="st1" d="M106,39c-5.8-0.3-14,9.7-14.3,14.5"/>
	<path class="st1" d="M108.4,48.6c1.2,1.4,1.4,4.3,2.8,6c3.1,3.9,8.9,5.4,13.4,3.1"/>
	<path class="st1" d="M141.4,53.8c4.9,2.8,11.1-2.2,13.8-5.9"/>
	<path class="st1" d="M150.4,30.9c4.7,1.4,11.3,0.5,15.5,3.5c1.4,1,2.1,2.4,3.7,3.3c1.1,0.6,2.3,0.9,3.4,1.5
		c3.3,1.7,5.3,5.2,8.4,7.1c2.1,1.3,4,1.4,5.5,3.5c1.6,2.2,3.5,4.1,5,6.3c1.1,1.7,1.7,3.6,2.5,5.5c0.9,2,2.4,3.6,3.4,5.7
		c3.4,7.1,5.2,14.8,5.7,22.6c0.3,5-0.2,10.1,0.3,15s0.9,8.9,0.2,13.8c-1.4,9.1-4.8,37.1-5.5,42.3c-0.7,5.3-1,10.7-2,16
		c-2,10.6-3.1,21.4-5.3,31.9c-1.3,6.3-2.2,11.2-4.6,17.2c-2.6,6.4-7.4,11.8-11.9,17.2c-2.6,3.1-5.7,5.7-8.7,8.3
		c-3,2.5-5.7,5.5-8.9,7.8c-4.5,3.2-9.8,5.9-15,7.8c-4.6,1.7-10,4.5-15,4.3c-11.4-0.3-21.7-6.5-30-13.8c-9.8-8.5-19.7-16.5-27.5-27
		c-3.4-4.5-4.3-9.5-6-14.7c-0.8-2.4-1.3-4.9-2-7.4c-0.6-2.1-1-5.4-1.8-7.4c-2.3-5.3-2.2-11.3-3.7-16.7c-2.6-9.3-4.7-20-4.2-29.7
		c0.5-9.8-0.5-20-2-29.7c-0.3-2.3-0.5-5-0.7-7.4s-0.4-4.9-0.2-7.4c0.3-5.3,0-10.2-0.3-15.5c-0.2-4.8,1.1-11,2.9-15.5
		c2.1-5.2,3.7-10.6,6-15.7c3.8-8.3,8.1-18,14.8-24.3c3.9-3.7,7.2-6.8,12.5-7.4c2.1-0.2,4.3-0.8,6.4-0.7c2.3,0.1,4.2,1.4,6.4,1.7
		c2.4-0.2,4.9-3.1,7.1-4.2c2.4-1.1,4.7-2,7.1-2.9c4.8-1.8,9.4-2.2,14.5-1.7c2.6,0.3,4.8,1,7.4,1.7c2.4,0.6,4.9,0.4,7.4,1
		c2.9,0.8,5.4,2.7,7.4,4.8c2.4,2.6,3.4,3,6.8,3.9c3.4,0.9,5.6,3,8.3,5.1c3.4,2.6,9.1,8.6,7.9,13.3"/>
	<path class="st1" d="M72.3,65.6c-0.3,1.8,2,4,3.7,4.6c4.2,1.6,9.3-1.4,12.1-4.4"/>
	<path class="st1" d="M90.7,71.2c4,3,10.1-3.3,11.6-6.6"/>
	<path class="st1" d="M105.5,59c1.4,5.9,3,9.6,7.4,14.3"/>
	<path class="st1" d="M123.2,66.3c1.1,3.2-0.4,6.2-1.2,9.3"/>
	<path class="st1" d="M131.3,62.4c0,4.3-0.8,8-1.7,12.3"/>
	<path class="st1" d="M142.6,62.4c1,3-1.5,8.5-2.5,11.3"/>
	<path class="st1" d="M154.1,59.7c-1.6,6.2,6.5,11.3,11.8,10.8"/>
	<path class="st1" d="M165.2,60.9c0,7.5,8.6,7.9,13.8,5.9"/>
	<path class="st1" d="M179.4,71.7c3.6,3.3,0.6,12.9,0,17"/>
	<path class="st1" d="M184.6,79.6c1.1,3.2,0.2,7.4,0.8,10.8c0.4,2.1,1.3,4,1.9,6c1.1,3.4,1,7.6,2.7,10.7c1.2,2.2,2.8,2.4,3.2,4.9
		c0.5,2.8,0.1,5.8,0.6,8.6c0.4,2.5,1.3,4.5,1.3,7.1c0.1,3.7,1.2,9,0,12.3c-2.2,5.9,0.1,12.2,0.5,18.4"/>
	<path class="st1" d="M84.1,74.2c-1.4,6.2-10.7,9-15.7,5.9"/>
	<path class="st1" d="M67.4,84.5c2.2,3-1.5,8-2.2,11.1c-1.3,5.9-1.6,11.9-3.2,17.7c-1.5,5.5-4.2,11.6-4.7,17
		c-0.2,2.7-0.7,5.4-0.7,8.1c0,3.2,0.9,6.3,0.3,9.6c-1,5.4-0.5,10.6-1.5,17.6"/>
	<path class="st1" d="M50.4,131.5c-3.3-0.5-7-1.3-7.6,2.7c-0.5,3.2,0.8,6.3,0.5,9.6c-0.7,6.4-1,12.3,0.3,18.7
		c1.2,6,1.1,12.2,2.1,18.2c0.5,3.1,1.2,6.4,3.3,8.8c1.3,1.5,7.6,3.7,8.1,1.7"/>
	<path class="st1" d="M202,133.8c3.5-2.6,9.4-0.8,9.6,3.1c0.2,3.5-0.6,7.1-0.9,10.6c-0.7,7.1,1.4,14.7-1.5,21.4
		c-2.1,4.7-3.4,11.1-5,16c-1.3,3.9-3.7,14-10.2,9.3"/>
	<path class="st1" d="M46,138.3c2.4,1.5,2.1,6.7,2.3,9.3c0.3,3.2,0.8,6.4,0.6,9.6"/>
	<path class="st1" d="M208.4,141.3c-6.5,4.3-3.9,13.4-6.1,19.7c-1.1,3.3-1.4,6.2-1.5,9.6c-0.1,1.6-0.6,3.3-0.5,4.9
		c0.1,1.5,0.6,3,2,3.9"/>
	<path class="st1" d="M77,148.4c3.9,3.4,10.8,3.7,15.7,4.2c5.6,0.5,11.3-0.7,16.5-2.5c-4-5-9.5-8.5-16-8.9
		C88.1,141,79.8,143.8,77,148.4z"/>
	<path class="st1" d="M179.4,149.9c-0.7,0.9-6.6,3.1-8.4,3.5c-2.7,0.7-5.6,1.1-8.4,1.4c-4.9,0.5-12.9,0-16.7-3.7
		c1.2-2.6,5.9-5.8,8.4-7.4c2.3-1.5,5.6-2,8.4-2.2C169.7,140.9,175.1,145,179.4,149.9z"/>
	<path class="st1" d="M68.6,131.1c-0.7,0.7-0.3,1.9,0.7,2c2.7,0.2,5.6,0.5,8.2,0.6c3.3,0.1,6.1,0.3,9.3,0c3.3-0.3,6.6,1.3,9.8,1.8
		c3.4,0.5,6.2,1.5,9.3,2.6c2.8,1,8.4,3,6.7-1.7c-1.4-4-4.7-4.1-8.2-5.6c-6.4-2.6-12.2-6.4-19.2-7.9c-4.2-0.9-7.6,0.8-11.1,3.2
		c-1.9,1.3-3.6,2.8-5.2,4.4C69,130.7,68.8,130.9,68.6,131.1z"/>
	<path class="st1" d="M141.1,134.7c-0.6,0.5-0.9,1.4-0.7,2.2c0.4,1.1,0.9,1.9,2.6,2.5c1.3,0.4,3.5-0.5,4.9-0.7
		c3.3-0.4,6.5-1.2,9.8-1.2s6.5-0.4,9.8-0.9c3.5-0.5,6.6,0.4,10.1,0.6c2.9,0.2,7.1,1.1,9.8,0.1c4.4-1.6-2.3-6.1-4.4-7.2
		c-3-1.7-6.5-3.5-9.8-4.6s-6.7,0.2-9.8,1.5c-4,1.7-8.1,2.8-12.3,3.9C148.3,131.5,143.7,132.6,141.1,134.7z"/>
	<path class="st1" d="M71.8,144.7c4.7-4,11.4-9.2,17.9-7.4"/>
	<path class="st1" d="M170.8,138.8c4,1.6,9,4,11.3,7.6"/>
	<path class="st1" d="M89.7,141.5c-2.9,3.8-1,8.8,3.9,8.7c4.4-0.2,7.4-5.7,2.9-8.4"/>
	<path class="st1" d="M157.1,143c-0.5-1-1.1,1.3-1.3,2.2c-0.2,1.2-0.2,2.3,0.3,3.4c1,2.2,3.7,3.1,5.9,3.2c5.3,0.1,9.3-6.1,4.4-10.1"
		/>
	<path class="st1" d="M63.6,216c1.5,4.9,1.1,8.6,1.4,12.3c0.3,4.3,0.2,8.4,0,12.7c-0.5,11-1.4,21.9-1.4,33"/>
	<path class="st1" d="M63.9,252.4c-9,5-20.4,12.4-30.2,15.8"/>
	<path class="st1" d="M97.1,222.9c4.6-0.1,10.5-2.5,14.7-4.4c2.5-1.2,5.3-2.9,7.8-3.4c2.6-0.5,3.9,3,6.7,4.1c3.2,1.3,5.6-1.3,8-3.2
		c2.7-2.1,3.7-1.3,6.8-0.1c4.8,1.9,9.4,4.7,15.7,5.7"/>
	<path class="st1" d="M111.1,182.3c-1.2,2.4-2.4,5.3-2.4,8.1c0,3,2.4,6.9,4.9,6.9"/>
	<path class="st1" d="M138.2,169.3c3.6,4.9,15.9,26.9,2.7,28.8"/>
	<path class="st1" d="M118.5,197.3c-3.3-1.2-2.3-7.6,1.5-6.9c2.9,0.6,4,5.1,3.5,7.6"/>
	<path class="st1" d="M133.7,198.5c-0.9-2.6,0.1-7.8,3-8.2c4.6-0.6,3,5.4,1.4,6.9"/>
	<path class="st1" d="M116.5,141.3c5.4,5.9,6.2,11.3,4.7,18.9"/>
	<path class="st1" d="M156.9,221.7c-2.5-0.1-5.3,1.2-7.9,1.5c-2.5,0.2-4.9-0.5-7.4-0.2c-4.8,0.4-9.4,2.2-14.3,2.2
		c-9.2,0.1-19.3-2.7-28.1-2.3c-0.3,0-0.4,0.3-0.2,0.6c2.1,2.5,5.5,6.4,7.2,7.8c2.8,2.3,4.9,2.8,7.6,3.7c4.6,1.6,9.9,2,14.7,1.7
		C139.9,236.1,148.8,229.3,156.9,221.7"/>
	<path class="st1" d="M46.6,262.2c-2.5-1.3-7-1.3-9.7-1c-2,0.2-2.7-0.2-3.3,2c-0.4,1.4,0,3.3,0.4,4.7c1.6,6.9,5.5,14.1,9.5,19.9
		c6.9,9.9,14.5,17.7,24.9,23.8c7.5,4.4,15,7.4,23.1,10.3c9.4,3.3,19.5,5,29.5,5c2.5,0,5.1-0.7,7.6-1c3.3-0.4,6.7-0.8,10-1.3
		c8.5-1.3,16.3-3.6,23.8-7.8c8.2-4.6,17.9-10.7,22.7-19c3.1-5.3,6.3-10.8,8.7-16.5c1.9-4.5,8.5-12.7,3.3-17c-3.3-3-8.5-4.8-12.8-6.8
		c-0.8-0.4-1.3-1.1-1.3-1.9c-0.2-2.7-0.5-8.8-0.4-11.7c0.1-4.1,1.1-8.2,1-12.3"/>
	<path class="st1" d="M192.2,260.5c3.8-3.7,9-0.7,12.8,1c5.1,2.3,9.1,5.9,14.4,8.1c6.7,2.8,21.8,8.2,29,9.7"/>
	<path class="st1" d="M34.4,261.6c-4.2-0.8-6.7,4.5-6.6,7.7c0.2,3.2,1.2,6.7,2.5,9.6c4.3,9.8,12.1,18.2,18.6,26.5
		c7.8,9.9,32,23.8,58.6,26.4c8.5,0.8,15.7,0.6,22.9,0.2c6.5-0.3,29.3-4.7,33.4-6.4c7.1-3,15.5-8.4,21.6-13
		c10.7-8,17.6-19.8,21.6-34.5c1.1-4.1,0.3-13.1-2.1-16.7"/>
	<path class="st1" d="M114.1,277.2c0.8,5.9,4.7,11,5.4,16.9c0.3,3,0,6.1,0.3,9.2c0.3,3.2,2,9.2,0.9,12.2"/>
	<path class="st1" d="M28.3,266.6c-5.5,1.2-11.6,4.7-16.5,7.4c-3.4,1.8-6.9,3.4-10.4,4.8"/>
</g>
</svg>
