<?xml version="1.0" encoding="utf-8"?>
<!-- Generator: Adobe Illustrator 21.1.0, SVG Export Plug-In . SVG Version: 6.00 Build 0)  -->
<svg version="1.1" id="Layer_1" xmlns="http://www.w3.org/2000/svg" xmlns:xlink="http://www.w3.org/1999/xlink" x="0px" y="0px"
	 viewBox="0 0 260 344" style="enable-background:new 0 0 260 344;" xml:space="preserve">
<style type="text/css">
	.st0{fill:#231F20;fill-opacity:0;}
	.st1{fill:none;stroke:#231F20;stroke-width:2;stroke-miterlimit:10;}
</style>
<g id="Layer_1_1_">
	<rect y="0" class="st0" width="260" height="344"/>
</g>
<g id="Layer_2">
	<path class="st1" d="M105.4,137.6c-1.2-1.3-4.8-4.2-6.2-5.1c-4.1-2.9-7.3-5.2-12.6-4.7c-5.2,0.6-9,3.5-13.4,5.9
		C80.9,143.7,96.1,142.9,105.4,137.6z"/>
	<path class="st1" d="M166.1,130.5c-1.2-0.6-2.5-1.5-4-2.1c-2.4-1-4.4-1.8-7.1-1.8c-7.8-0.1-13.6,3.9-19.1,9.1
		c5,4.1,12.9,4.6,19,3.9c5.1-0.7,8.9-2.6,11.3-6.2"/>
	<path class="st1" d="M71.4,129.1c9.6-10.6,25.7-10.5,34,0.9"/>
	<path class="st1" d="M133.5,130.7c1.2-0.9,2.1-2.5,3.4-3.6c1.5-1.2,3.1-2.4,4.8-3.2c2.9-1.4,6.1-2,9.3-2c3.4,0,11.2,0.9,14.4,3.4"
		/>
	<path class="st1" d="M105.9,160.1c-3.7,2.6-7.7,14.7,1,16c1.2,0.2,3,0.4,4.1,0"/>
	<path class="st1" d="M112.9,173.9c-2-0.7-5.7-3.7-2.5-5.6c2.4-1.4,5.8-0.6,7.6,2.9c0.4,0.8,0.6,2.2,1.3,2.9c1,0.8,2.8,0.3,3.6-0.4
		c2.5-1.9,3.2-5.1,6.8-5.1c1.7,0,2.9,0.8,2.9,2.5c0,2.2-1.5,2.5-3.4,2.5"/>
	<path class="st1" d="M131.1,176.2c1,0.7,3.9,0,4.6-0.4c2.1-1.3,3.7-4,4.3-6.4c0.9-4.5-2.1-8.5-4-10.6"/>
	<path class="st1" d="M114,152.6c1-1.7,1.1-4.8,1.4-6.8c0.4-2.1,0.8-4.1,0.7-6.2c-0.2-3.9-0.9-7.8-1.7-11.6
		c-2.6-12.7-18.1-16.3-29.2-17.3c-4.2-0.4-10-1.3-13.7,1.3c-2.5,1.9-4.6,4.3-6.9,6.4c-2.9,2.5-6.1,5-8.6,7.8
		c1.8,0.1,3.1-1.2,4.4-2.1c1.8-1.1,3.7-1.8,5.5-2.9c3.3-1.9,6.7-3,10.2-4.2c7.9-2.5,15.8-0.8,23.7,0.1c1.5,0.2,7.3,0.2,8.2,0.8"/>
	<path class="st1" d="M163.9,112.6c-5.7-1.5-13.8-1.2-17.8-0.6c-4,0.7-7.7,2.1-10.5,4.8c-0.6,0.6-0.4,1.4,0.3,1.8
		c1,0.4,2,0.1,3.3-0.2c3.6-0.8,7.3-1.4,10.9-2.1c5.5-1,10.5,0.7,14.7,2.3"/>
	<path class="st1" d="M95,198.5c2.5,0.8,6.9-1.9,9-3.4c2.1-1.5,4.1-3.3,6.3-4.7c1.3-0.8,2.6-1.3,4.1-1.5c1.8-0.2,3,0.8,4.6,1.3
		c1.9,0.7,3.4,0.8,5.4,0.1c1.4-0.6,2.4-1.5,4.1-1.8c3.5-0.4,6.8,1.8,9.6,3.7c3.5,2.5,6.3,5.2,10.6,6.5"/>
	<path class="st1" d="M96,198.9c1,0.1,2.3,0.1,3.3,0.2c1.9,0.1,3.7,0.1,5.5,0c4.5-0.4,9.1-2.3,13.8-2c2.2,0.2,4.3,0.6,6.5,0.2
		c2.2-0.3,4.2-1.1,6.4-1c3.3,0,6.4,1.7,9.6,2.2c2.2,0.3,5.4,0.9,7.7,0.3"/>
	<path class="st1" d="M95.5,198.9c0.9,0.3,2,1.7,3,2.1c1.7,0.9,3.2,1.7,4.8,2.5c4.2,2,9,2.5,13.6,2.8c9,0.4,17.2-1.5,25.8-4.4
		c1.9-0.7,4.5-2.4,5.9-2.8"/>
	<path class="st1" d="M113.9,218.8c4.1-1.7,10.4-1.3,13.9-0.9"/>
	<path class="st1" d="M160.6,199.9c0.2,0.9,1,0.2,0.8-0.1c-0.3-0.4-0.7-0.2-0.8,0.2"/>
	<path class="st1" d="M83.2,128.6c-2.2,1.3-2.6,5.6-2,7.4c0.9,2.3,4,3,6.2,2.8c3.2-0.3,5.3-2.3,5.5-5.4c0.1-1.3-0.3-4.7-3.4-5.4"/>
	<path class="st1" d="M147,128.2c-1.5,1.4-2.1,4-1.2,5.9c1.1,2.5,4.1,2.9,6.6,2.8c5.2-0.3,7.7-7.2,3.4-10.4"/>
	<path class="st1" d="M51,172.7c2.1,7.3,3.4,14.5,4.4,21.9c0.9,6.7,0.8,14.5,4.1,20.7c13.8,24.8,47.2,38.1,74.2,30.2
		c8.6-2.5,15.8-5.9,23.7-10c4.6-2.4,11.1-8,14.7-12.1"/>
	<path class="st1" d="M118.4,50.3c9.1,0,17.5-0.2,26,3.7c13.9,6.5,15.1,26.8,17.1,40c2.2,14.8,3.7,29.7,5.4,44.6
		c2.1,19.3,5.6,38.2,6.4,57.7c0.4,11.8-0.6,23.1-2.2,34.7c-3.2,21-1.7,52.7-3.9,62.7c-1.3,5.9-3.2,12-6.7,17.1
		c-2.4,3.5-6.7,8.6-12.2,12.1"/>
	<path class="st1" d="M113,50.7c-5.4-3.2-14.4-1.4-19.7,1.2c-7.4,3.7-15.2,8.7-21.8,13.8c-8.7,6.6-13.9,13.6-18.7,23.1
		c-3.4,6.7-8.4,27.2-7.7,33.9"/>
	<path class="st1" d="M113.8,43.2c-3-12.7-17.5-16.5-28.2-11.7C72,37.6,60,51.7,53.5,64.3c-9.4,18.3-10.2,36.8-8.6,56.9
		c1,12.1,1.3,24.1,3.4,36.1c2,11.5,4.5,22.8,5.7,34.5c1.1,10.7,1.1,21.9,4.1,32.3c5.1,17.5,10.8,49.7,8.6,63.4
		c-2.2,14-5.7,27.4-13.9,39.1"/>
	<path class="st1" d="M34,308c-4.5,7.4-25.5,12.2-32.9,15.1"/>
	<path class="st1" d="M234.6,284.7c3.5,2.4,18.1,7.7,21.8,9.2"/>
	<path class="st1" d="M205.1,305.6c4.2,14.7,4.8,22.4,8.7,37"/>
	<path class="st1" d="M38.7,322.3c3,3.5,25,17.4,28.5,20.4"/>
	<path class="st1" d="M11.3,320c6.4,9.8,17.1,16.4,23.9,22.7"/>
	<path class="st1" d="M241,287.9c4.6,8.9,11.9,24.5,15.4,33.7"/>
	<path class="st1" d="M65.7,293.1c2.1,5.9,8.3,13,11.7,18.5c1.5,2.4,5.3,9.7,7.9,13.1"/>
	<path class="st1" d="M93.6,323.8c-9.3-5.9-16.5,9-6.4,12.9c4.2,1.5,9.8-1.5,9.5-6.3C96.5,327.1,95.2,325.3,93.6,323.8z"/>
	<path class="st1" d="M106.8,343.1c-0.4-1.2-1.2-2.4-2.3-3.5c-4.8-4.5-11.1-0.9-12.7,3.9"/>
	<path class="st1" d="M137.6,376.8"/>
	<path class="st1" d="M191.6,343.6c0.7-2.8-0.4-6.2-3.2-7.8c-7.5-4.2-12.4,2.3-11,7.3"/>
	<path class="st1" d="M185.4,317.8c-11-0.4-10.1,13.9-0.4,13C192.8,330.1,191.7,318,185.4,317.8z"/>
	<path class="st1" d="M68.6,227.1c0.4,8,1.2,17.3,1.2,25.5c0,5.2-2.4,22.9-2.6,28"/>
	<path class="st1" d="M117,44.1c35.9-10.4,50.9,36.7,56.2,62.7c6.1,30.1,3.6,60.8,7.6,91c1.9,14.1,3.9,27.9,1.9,42.1
		c-1.7,12.6-3.2,25.5-5.6,37.9c-2.1,10.7-3.2,21.8-7.6,31.8c-3.9,8.8-8.4,17-15.5,22"/>
	<path class="st1" d="M115.8,35.8c15-2.6,27.8,2.1,38.6,12.7c14.7,14.3,26.9,36.9,29.5,57.2c4,29.1,1.8,58.4,4.7,87.5
		c2.3,23.1,7.1,47.6,3.1,70.5c-3,17.7-5.5,34.8-13,49.6"/>
	<path class="st1" d="M101.2,24.5c9-11.9,32.5-6.3,43.6-1.7c22.8,9.4,43,26.6,50,50.9c7.7,26.8,17.2,62.9,24.2,89.9
		c8.9,34,31,88,32.8,104c0.8,6.7,0.4,15.4-4.1,23.1"/>
	<path class="st1" d="M107.4,28.8c14.4-6.5,36,1.1,44.3,6.3c19.2,12,31.7,35.8,38.9,56.6c8.4,24.4,12,49.1,18.2,74
		c5.9,24.1,14,47.6,20.6,71.4c3,10.5,6.7,21.7,7.1,32.6c0.3,10.7-4.5,20.8-4.8,31.3"/>
	<path class="st1" d="M109.6,30.8c-3.1-5.7-13.4-9.4-17.6-9.6c-7.1-0.6-15.5,0.1-22.1,2.4c-19.9,7.2-32.1,24-38.6,43.6
		c-19.4,58.2-10.7,122.7-10.8,182.9c0,14.3,1.7,49.5,0.8,66.1"/>
	<path class="st1" d="M113,44.7c-6.6-4-14.7-4.1-21.6-2.2c-9.6,2.8-15.6,5.8-23.7,11.5c-4.3,3-17.6,16.7-20.3,25.9"/>
	<path class="st1" d="M109.6,30.8c-11.2-12.6-34.8-2.1-46.9,9.7C46.3,56.6,39,79,35.9,101.3c-3.7,27,3.1,52.2,4.8,78.9
		c1.7,26.3,3.9,52.3,6.5,78.7c2.6,26.4-0.6,50.9-13.8,74.2c0.3-0.4,0.6-0.9,0.8-1.3"/>
	<path class="st1" d="M167.9,65.1c23.9,24.2,25.6,67.4,26.2,73.7c0.9,8.6,2,17.6,4,26c4.1,17.4,9,34.6,12.8,52.1
		c4,18.1,5,36.4,5,54.9c0,8.7,0.1,28-7.1,37.2"/>
	<path class="st1" d="M185.9,127.8c2.6,14.1,16.7,96.2,17.5,106.8c0.9,12.5,1.4,25.3,0.1,37.7c-0.9,8.2-2.5,16.3-4.2,24.4
		c-1.2,5.7-3.5,13.8-6.5,19"/>
	<path class="st1" d="M28.5,128.7c-1.5,38.8,8.6,76.6,9.9,115c0.6,17.6,0.6,36.3-2.2,53.7c-1.3,8-3.3,16.1-5.8,23.9
		c-1.3,4.1-3.5,13.6-6.9,18.3"/>
	<path class="st1" d="M20,125.1c-1.3,16.4-3.3,20.4-5.6,36.9c-3,21.6-3.7,43.6-3.7,65.3c0,30.2,5.2,60.7,5.6,90.6"/>
	<path class="st1" d="M93,336.6c0.2,0.8,0.8,1.7,1.3,2.1"/>
	<path class="st1" d="M183.9,331.3c0,0.9,0,1.8,0,2.6"/>
</g>
</svg>
