<?xml version="1.0" encoding="utf-8"?>
<!-- Generator: Adobe Illustrator 21.1.0, SVG Export Plug-In . SVG Version: 6.00 Build 0)  -->
<svg version="1.1" id="Layer_1" xmlns="http://www.w3.org/2000/svg" xmlns:xlink="http://www.w3.org/1999/xlink" x="0px" y="0px"
	 viewBox="0 0 260 344" style="enable-background:new 0 0 260 344;" xml:space="preserve">
<style type="text/css">
	.st0{opacity:0;}
	.st1{fill:#FFFFFF;}
	.st2{fill:none;stroke:#000000;stroke-width:2;}
</style>
<title>tomasz</title>
<desc>Created with Sketch.</desc>
<g id="speakers" transform="translate(-134.000000, -1831.000000)">
	<g id="tomasz" transform="translate(133.000000, 234.000000)">
		<g transform="translate(1.000000, 1582.000000)">
			<g id="bg" class="st0">
				<rect id="Rectangle-path" y="15" class="st1" width="260" height="344"/>
			</g>
			<g id="Layer_9" transform="translate(0.000000, 16.000000)">
				<path id="Shape" class="st2" d="M70.1,157.2c-0.5,4.5-0.2,8-0.1,10.9c0.2,4.4,0.7,8.5,1.1,12.8c0.4,4.6,0.3,9.3,1.1,13.8
					c0.9,4.9,3.5,9,5.4,13.5c6,14.4,19.1,21.7,28.6,33.3c5.7,6.9,12.1,9.7,21.1,10c9.1,0.3,17.8-1,25.9-5.5
					c9.6-5.4,17.7-13.7,24.1-22.6c3.3-4.5,6.9-8.5,9.6-13.4c2.6-4.8,4.9-9.7,6.8-14.9c2.2-6.1,3.1-11.5,3.7-18
					c0.5-6-0.7-12.4-0.7-18.5c0-6.2-0.9-12.3-1.2-18.5c-0.2-5.6-0.4-11.3-1.2-16.9c-0.2-1.9-0.1-6.5-0.7-8.3"/>
				<path id="Shape_1_" class="st2" d="M85.8,141.7c1.2-2.9,6.3-5.5,9.3-6.2c3.8-1,8.4-1.1,11.9,0.8c1.8,1,3.1,2.3,4.4,3.7
					c0.3,0.3,0.2,0.8-0.2,1c-1.6,0.6-3.2,0.9-5.3,1.1c-2.2,0.2-4.4,0.4-6.7,0.4c-2.4,0-4.8,0.1-7.3,0
					C89.9,142.5,87.2,142,85.8,141.7z"/>
				<path id="Shape_2_" class="st2" d="M147,139.8c-0.3-0.2-0.3-0.7,0-0.9c1.7-0.9,5-2.6,6-3c2.4-0.9,4.9-1.6,7.6-1.4
					c4,0.3,8.9,2.5,11.7,5.5c0.4,0.4,0.2,1-0.3,1.1c-3.8,0.9-7.6,2-12,1.7C156.5,142.6,150.3,141.8,147,139.8z"/>
				<path id="Shape_3_" class="st2" d="M99.8,134.7c-5.1,0-6.2,7.5-1,7.9c2.4,0.2,5.7-0.7,6.7-3.1c0.9-2.3-0.5-4.7-3-4.7"/>
				<path id="Shape_4_" class="st2" d="M158,134.5c-2.6,0.2-3.8,2.9-3.6,5c0.2,2.6,2.2,3.3,4.9,3.3c4.2-0.1,8.3-5.7,3-8.1"/>
				<path id="Shape_5_" class="st2" d="M74.8,130.2c-3,0.8-2.1,7.1-1.9,9.4c0.3,3.4,1,7.3,4.1,9.5c6.3,4.7,18,3.5,25.6,3.8
					c4.2,0.2,8.2,0.8,11.7-1.1c3.4-2,4.4-7.1,5.2-10.8c0.9-4,1.6-6.9-1.7-9.9c-3.4-3.2-9.9-2.7-14.3-2.9c-6-0.3-12.3-0.7-18.4-0.4
					c-4.3,0.2-8.6,0.3-11.7,3.3"/>
				<path id="Shape_6_" class="st2" d="M135.1,132.6c-1.7,3,0.3,8.5,1.2,11.4c0.9,3.2,1.8,6.4,4.3,8.9c3,3,7,3.1,11,3.3
					c5.4,0.2,10.8,0.1,16.2-0.1c3.2-0.1,8.9-0.4,11.7-2.2c2.8-1.8,2.4-6.5,2.4-9.6c0-3.6,0.8-7.5-1.7-10.2c-3-3.3-8.3-4-12.7-4.3
					c-7.4-0.6-15-1.4-22.5-0.9c-2.7,0.1-8.8,1.6-10.3,4.1"/>
				<path id="Shape_7_" class="st2" d="M72.6,132.6c-3,0-6-0.3-9-0.2c-0.4,2.4-0.1,5.7,1.9,6.7c2,0.9,5.9,0.5,7.7,0.5"/>
				<path id="Shape_8_" class="st2" d="M181.5,135.7c3.8,1.1,9,0.1,13.1,0.3c0.3,2,0.6,4,0.5,6.1c-4,0.2-9.1-0.8-12.9,0.5"/>
				<path id="Shape_9_" class="st2" d="M119.8,134c2.6-0.2,5.3,0.4,7.9,0.5c2,0.1,4.8-0.4,6.4,0.2"/>
				<path id="Shape_10_" class="st2" d="M106.2,171.3c0.1,2.6-1.8,6-2.7,8.4s-2.2,4.7-3.7,6.7c-1.4,1.8-3.4,3-4.6,5
					c-0.8,1.5-2.4,6.4-0.5,7.3"/>
				<path id="Shape_11_" class="st2" d="M148.5,163.4c1.8,2.5,3.7,5,5.4,7.7c2.3,3.5,3.6,7.7,6.1,11.2c1.1,1.7,3,3.5,3.8,5.5
					c1.2,3.1-1.8,5.3-2.2,8.4"/>
				<path id="Shape_12_" class="st2" d="M156,195.9c0.4,0,0.6,0.4,0.5,0.8c-1.4,3.7-5.1,7.7-8,9.9c-7.3,5.6-15.6,9.1-24.8,7.8
					c-10.1-1.5-14.1-10.1-19.3-17.2c-0.1-0.2-0.1-0.5,0.1-0.6c1.2-0.6,5.2-2.7,12.2-7.5c3-2.1,6.7-4.2,10.4-3.5
					c1.6,0.2,2.7,0.8,4.3,0.5c1.5-0.2,2.9-1.2,4.6-1.2c3.2,0,6.4,2.9,8.7,4.9C147.3,192.1,151.8,196,156,195.9z"/>
				<path id="Shape_13_" class="st2" d="M71.5,186.9c-6.5,2.4-11.3-6.5-9.4-12"/>
				<path id="Shape_14_" class="st2" d="M108.6,194.4c6-2.6,18.9-4.5,25.5-4.2c4.5,0.2,8.1,0.9,12.2,2.4c1.8,0.6,5,2.5,6.9,2.7"/>
				<path id="Shape_15_" class="st2" d="M122.2,222.1c4.3-0.9,10.3-3.8,14.3-0.7"/>
				<path id="Shape_16_" class="st2" d="M112.9,160.1c-2,1.9-6.1,10.5-0.7,11.7c3.1,0.7,5-3,6.2-4.1c3-2.3,6.2-0.6,5,3.3"/>
				<path id="Shape_17_" class="st2" d="M135.8,151.3c-0.7,1.8-0.4,5.4,0.2,7c4.5,0.3,10.1,5.3,9.6,9.7c-0.4,3.2-3.1,3.5-5.6,2.1
					c-2.4-1.4-3.4-4.2-6.7-3.4c-3.6,0.8-3,4,0,5"/>
				<path id="Shape_18_" class="st2" d="M87.1,222.3c1,4.5,2.4,8.6,2.6,13.3c0.2,4.9,0.5,9.6,1,14.3c0.8,8.9,1.5,18.4,1.5,26.8"/>
				<path id="Shape_19_" class="st2" d="M193.4,195.8c0.1,4.3-0.8,8.6-0.9,12.9c-0.1,5.2-0.2,10.5-0.2,15.7c0,8,0.8,16.2,2.4,24"/>
				<path id="Shape_20_" class="st2" d="M85.6,221.1c-2.1,0.5-4,2.4-5.7,3.6c-3,2.1-6.2,4.3-9,6.7c-4.3,3.6-7.8,8.5-11,13
					c-3.3,4.6-5.3,8.2-10.1,11.5c-5.3,3.6-6.7,7-8.1,13c-1,4.4-5.6,7.8-9.5,9.6c-2.1,0.9-6.8,3.1-7.5,5.5c-0.4,1.4,0.5,3.5,0.8,4.8
					c0.5,2.4,0.8,5.2,1.7,7.6c2.3,6.5,8.3,9.6,14.3,11.9c7.1,2.7,12,7.1,17.7,12c2.6,2.2,5.2,4.5,7.4,7.1c1.8,2.1,5.8,7.4,5.7,9"/>
				<path id="Shape_30_" class="st2" d="M192.8,206.5c7.1,4.7,11.5,15.7,12.6,26.1c0.6,6,0.6,12.6-0.8,18.5
					c-1.9,7.3-5.6,14.1-8.7,20.8c-2.5,5.2-4.9,10.4-7.3,15.7c-2.4,5.3-5.6,9.8-9.3,14.4c-5.8,7.5-13.6,12.3-18.5,20.5
					c-3.1,5.3-7.1,10.4-9.1,16.2"/>
				<path id="Shape_22_" class="st2" d="M91.2,257.3c-0.4,6.9-5.8,15.6-8.9,21.4c-5,9.3-5.6,19.3-6.5,29.6
					c-0.7,7.8-2.7,15.4-3.3,23.2c-0.6,7.4-0.2,2-0.7,9.4"/>
				<path id="Shape_23_" class="st2" d="M201.2,216.1c2.4,1.9,5.5,7.6,7,10.4c1.6,3,2.8,6.5,3.6,9.9c0.7,2.9,1,7.2,3.4,9.4
					c2.1,1.9,3.8,2.3,5.3,5c1.5,2.8,4.4,5.8,5,8.9c1,5.1-2.3,10.6-4.3,15.1c-1.6,3.5-4,6.8-5.6,10.2c-2.3,4.6-5,8.8-7.9,13.1
					c-4.1,6-7.9,14.3-12.6,19.1"/>
				<path id="Shape_24_" class="st2" d="M218.6,256.3c0,10.7-5.7,23.5-12,32.1c-6.3,8.7-16.7,13.1-23.7,21"/>
				<path id="Shape_25_" class="st2" d="M49.8,312.6c0.3,10.5-5.5,19.4-9,29.3"/>
				<path id="Shape_26_" class="st2" d="M85.8,272.3c0.2,9.4-0.2,19.1,5.8,27c5.1,6.7,10.3,13.1,18.2,16.5
					c7.7,3.4,17.2,6.7,25.8,6.4c7.3-0.2,15.8-4.8,22.5-7.7c3.4-1.6,6.7-3.1,10.2-4.4c2.3-0.8,6.9-3,8.8-5.7"/>
				<path id="Shape_27_" class="st2" d="M79.4,285.7c2.1,16.8,10.9,30.7,25.4,36.9c7.3,3.1,14.1,4.4,22.1,4.7
					c6.7,0.3,13.7,0.6,20.4,0c3.7-0.4,10.3-1.6,13.4-4.8"/>
				<path id="Shape_21_" class="st2" d="M225.7,283.3c-2.4,3.8-3,9.1-4.2,13.5c-1.5,5.7-3.5,11.2-4.7,17c-1.2,6.2-2.6,12.4-4.3,18.5
					c-1.1,4.2-2,5.2-2.6,9.5"/>
				<path id="Shape_29_" class="st2" d="M225.4,259.7c1,1.4,4.6,3.8,5.6,4.6c3,2.1,16.2,9.1,25.1,11.2"/>
				<path id="Shape_31_" class="st2" d="M41.6,268.8c-8.2,5.8-19.3,11.7-28.6,14.7c-5.1,1.6-5.9,3.5-10.8,5.4"/>
				<path id="Shape_33_" class="st2" d="M119.1,267.5c-0.1,3.2,0.7,6.7,1,9.8c0.5,4.4,1.8,11.2,6.1,13.6"/>
				<path id="Shape_34_" class="st2" d="M69.6,187.4c-2.5,6.1-7.4,8.8-13.5,10.3"/>
				<path id="Shape_35_" class="st2" d="M72.1,194c-0.4-0.2-1.2,2.8-2.1,4.2c-2.2,3.4-5.5,5.6-9.5,6.5"/>
				<path id="Shape_36_" class="st2" d="M74.6,201.4c2.8,5.3-4,10.2-6.9,14"/>
				<path id="Shape_37_" class="st2" d="M78.7,210.3c-1.2,3.8-0.8,7.3-4.4,10.3"/>
				<path id="Shape_38_" class="st2" d="M196.4,184.7c2.3,1.8,7.7,3.8,10.2,2.1c3.2-2.3,3.3-9,3.3-12.5"/>
				<path id="Shape_39_" class="st2" d="M66.5,92.2c9.9-0.3,16.7,10.7,25.5,13.5c5.9,1.9,11.2,4.4,15.8,8.6c6.5,6,14.1,8.2,22.9,9.6
					"/>
				<path id="Shape_40_" class="st2" d="M49.2,98.5c-2.3,3.2-5.1,6-7.1,9.7c-3.2,6-4,12.5-2.7,19.2c1,5.8-1,15.9,3.4,19.6
					c3.1,2.6,4.1,4,4.8,8.2c0.6,3.5,0.4,5.4,2.8,7.9c1.2,1.4,1.7,0.6,2.3,2.7c0.5,1.9-0.6,4.1-0.2,5.9c0.4,1.8,1.8,3.1,2.2,5
					c0.9,4.7-2.8,14.2-7.4,16"/>
				<path id="Shape_41_" class="st2" d="M69.8,139.6c1.7,4.8,0.9,14.7-0.1,19.4c-1.2,6.2-4.6,11.4-8,16.7"/>
				<path id="Shape_42_" class="st2" d="M58.9,155.2c0.9,2.4,0.2,6.4,0.3,9.4c0.1,3.3,0.7,6.4,0.6,9.7c-0.2,6.5-1.2,14.4-5.3,19.8"
					/>
				<path id="Shape_43_" class="st2" d="M53,106.4c3.4,3.2,6.1,8.3,9.7,12c5.6,5.6,12.8,6.2,20.4,7.2"/>
				<path id="Shape_44_" class="st2" d="M68.7,70.3c7.1,4.2,15.4,0.2,21.8,7.5c3,3.3,4.8,7.6,7.2,11.3c3.1,4.9,7.8,7.8,11.4,12.3
					c3.4,4.2,5.7,8.8,10.2,12.1c4.6,3.3,10.4,5.9,15.5,8.2c4.7,2.1,9.7,3.2,14.7,3.7c3.7,0.3,6.9,0.3,10.6-0.2
					c5.4-0.7,12.3-0.5,17.3-2.5"/>
				<path id="Shape_45_" class="st2" d="M100,77.6c2.3,1.2,5.1,2.4,6.9,4.4c3.1,3.5,4.4,8.5,7.6,12.2c6.9,7.9,15.1,12.5,24.5,16.8
					c8,3.6,13.8,6.8,23,6.8c9.3-0.1,18-2.2,27.3-1.6"/>
				<path id="Shape_46_" class="st2" d="M90.6,63.1c11,0,19.8,2,28.6,8.7c5,3.8,8.5,8.7,12.5,13.5c3.8,4.6,9.1,8.2,14.1,11.3
					c4.3,2.7,8.8,6.2,13.7,7.8c5.4,1.8,11.3,0.9,16.7,2.8c4.8,1.8,9.3,4.7,14,6.4c8,3,18,3.8,26.5,3.5"/>
				<path id="Shape_47_" class="st2" d="M99.3,20.2c-0.3,4.8-0.1,9.8-3,13.7c-3.4,4.8-6.4,4.5-11.4,6.3c-6.3,2.4-7.8,9.4-9.9,15
					c-2.4,0.9-3.5,0.1-5.3,2.4c-3.1,4.2-0.6,7.6-0.9,12.1c-2.6,0.9-5.8,2.3-8.2,3.7c-3.7,2.3-4.1,4.5-6.2,8.1
					c-2.4,4.1-6.8,6.9-6.2,12.3c0.6,7.5,8.5,9.1,14.8,10.1c5.7,0.9,10,2.9,14.3,6.5c9.1,7.4,20.1,9.1,31.4,11.2"/>
				<path id="Shape_48_" class="st2" d="M102.5,30.6c1.8-8.9,13.8-7.3,18.8-12.9"/>
				<path id="Shape_49_" class="st2" d="M113.8,29.2c3.5-1.8,7.9-2.3,11.1-4.7c4.2-3.1,8.1-7.5,10.2-12.2"/>
				<path id="Shape_50_" class="st2" d="M131.6,26.1c3.3-1.6,6.9-3.4,10.6-4.4c5.4-1.5,8.5-0.3,13.6,1.7c5.4,2.1,10.5,4.4,16.3,4.7
					c7.6,0.3,15.9-0.4,23.4-1.6"/>
				<path id="Shape_51_" class="st2" d="M180.5,34c2.5,1,4.9,1.9,7.7,2.2c5.4,0.8,12.4-0.7,17.4,1.6"/>
				<path id="Shape_52_" class="st2" d="M188.3,40.6c16,7.1,19.2,28.5,37.6,31.9"/>
				<path id="Shape_53_" class="st2" d="M214,75.6c6.1,5.2,10.3,14,15.4,20.4"/>
				<path id="Shape_54_" class="st2" d="M221.2,98.2c2.5,4.4,4.8,11.1,5.8,16.2c0.6,3,0.8,5.5,1,8.5c0.6,6.8,2.8,13.6,2.8,20.4"/>
				<path id="Shape_55_" class="st2" d="M224.6,135.8c2.8,4.6,0.1,15.4-0.7,20.8c-1.1,7.7-0.6,20.7-6.5,26.2"/>
				<path id="Shape_56_" class="st2" d="M212.8,123.9c4.1,17.7,5,33.3,4.1,41.3c-0.4,3.3-1.2,9.8-2.1,13c-1.7,6.1-8.7,16-10.1,22.1"
					/>
				<path id="Shape_57_" class="st2" d="M202.7,189.3c-5.4,8.8-2.1,18.5-1.5,27.9"/>
				<path id="Shape_58_" class="st2" d="M92.8,48.4c4.3-2.5,11.7-2.3,16.3-1.4c6.4,1.4,12.6,5.3,17.5,9.5
					c11.5,9.9,21,25.1,35.8,30.1"/>
				<path id="Shape_59_" class="st2" d="M135.4,41.2c3.4-0.5,11.6,5.3,14.1,7.5c8.9,7.5,10,16.1,10,27.3"/>
				<path id="Shape_60_" class="st2" d="M158.6,44.9c4,3.5,6.9,8,10,12.3c6.2,8.7,6.3,16.7,6.3,27.2"/>
				<path id="Shape_61_" class="st2" d="M179.5,91.6c10.1,5.3,25.9,4,36.7,1.9"/>
				<path id="Shape_62_" class="st2" d="M190.2,86c6.8,1,13.1-0.4,19.8-2.2"/>
				<path id="Shape_63_" class="st2" d="M180.5,43.7c11.2,5.3,14.9,18.3,16.3,29.4"/>
				<path id="Shape_64_" class="st2" d="M172,47.7c4.5,5.6,5.9,12.8,9.4,18.8"/>
				<path id="Shape_65_" class="st2" d="M116,39c4-1,8-2.2,12.1-3c7.9-1.8,21.3-3,28.7,0.5"/>
				<path id="Shape_66_" class="st2" d="M108,202.5c2.1,3.3,4.7,4.2,6.9,5.1c3.1,1.4,7.9,0.4,11.3,0.4c4.9,0,9.6-0.9,14.2-2.2
					c3.8-1,7.9-1.6,11-4.2c1.9-1.5,3.5-3,4.9-5.1"/>
				<path id="Shape_67_" class="st2" d="M122.1,191.1c-0.2,2.3-0.1,4.9-0.2,7.7c-0.1,3.2,1.2,4.7,4.1,4.2c2.6-0.5,3.4-0.8,3.8-3.7
					c0.3-2.6,0.3-6,0.3-8.7"/>
				<path id="Shape_68_" class="st2" d="M138.4,191.3c-0.2,2.9-0.3,6.8-0.1,9.6c2.3,0.9,5.2,0.7,5.2-1.4c0-1.9,0.3-5.7,0-7.5"/>
				<path id="Shape_69_" class="st2" d="M116.1,192.1c-0.1,3.2-0.7,8.2,0.5,11.1c1,0.2,5.3,0.6,5.3-3.4"/>
				<path id="Shape_70_" class="st2" d="M129.8,199.2c-0.3,4.3,7.5,3.2,8.5,1.5"/>
				<path id="Shape_71_" class="st2" d="M143.5,200.1c4.1,3.1,6.7-1.1,6.1-6"/>
				<path id="Shape_72_" class="st2" d="M115.7,203.4c0.1,0-3.5,0.3-4.5-0.9c-1.1-1.5-1.2-6.4-1.1-8.2"/>
				<path id="Shape_73_" class="st2" d="M199.7,128.9c0.4,17.2,10.3,26.6,10.3,47.2"/>
				<path id="Shape_74_" class="st2" d="M199.9,156.4c1.5,5.7,2.8,11.5,4,17.5"/>
			</g>
		</g>
	</g>
</g>
</svg>
