<?xml version="1.0" encoding="utf-8"?>
<!-- Generator: Adobe Illustrator 21.1.0, SVG Export Plug-In . SVG Version: 6.00 Build 0)  -->
<svg version="1.1" id="Layer_1" xmlns="http://www.w3.org/2000/svg" xmlns:xlink="http://www.w3.org/1999/xlink" x="0px" y="0px"
	 viewBox="0 0 260 344" style="enable-background:new 0 0 260 344;" xml:space="preserve">
<style type="text/css">
	.st0{fill:#231F20;fill-opacity:0;}
	.st1{fill:none;stroke:#231F20;stroke-width:2;stroke-miterlimit:10;}
</style>
<g id="bg">
	<rect class="st0" width="260" height="344"/>
</g>
<g id="Layer_2">
	<path class="st1" d="M95.2,27.3c-1.8-4.2,7.4-8.3,10.3-9.4c7.2-2.8,11.7-0.8,18.9,0.3c4.9-4,10-2.1,16.5-1.5
		c3.7,0.4,11.4,2.1,13.2,5.5c0.4,0.8,12.2,1,16.1,2.7c4.9,2.2,10.2,5.1,11,11"/>
	<path class="st1" d="M183.3,33.1c6.1-0.7,9.9,5.8,11.9,10.4c1.3,2.9,1.1,6,2.2,8.9c1.7,4.7,5.3,6.7,8.2,10.2"/>
	<path class="st1" d="M205.3,69.7c5,8.4,8.5,19.5,10.5,28.9c1.6,7-0.4,14.7,0.4,21.9c0.4,3.7,0.3,15.4,0.1,17.6
		c-1,9.3-1,18.8-2.2,28.2c-1.2,8.7-2.6,17.6-3.6,26.3c-1,9.2-4.2,18.5-7.4,27.3c-3.4,9.2-9,20.7-16.6,27c-4.6,3.9-8.3,7.8-13.9,10.2
		c-5,2.1-10.3,3.1-15.5,4.2c-12.1,2.3-22.4,1.9-34.4-1.7c-9.6-2.9-18.1-8.9-26-14.6c-8.5-6-15.2-14.2-19.6-23.6
		c-4.7-9.9-6.8-20.2-8.6-30.8c-0.8-4.5-0.8-9.1-1.7-13.5c-0.9-3.9-2.6-8-2.5-11.9c0-7-2.4-15.2-6.6-21.2c-4.9-7-3.7-13.9-5.2-22
		c-0.6-2.7-1.7-5.1-2-7.8c-0.4-3.4,0.5-6.7,0.8-10c0.6-7.9,0.2-15.6,1.7-23.4c0.6-3.2,1.5-6.1,1.6-9.4c0.1-3.2-0.6-6.6,0.8-9.5
		c2.5-5.3,6.6-11.3,9.9-16.3c3.4-5.1,9.9-12.8,16.3-14.2c4.2-0.9,10,0.1,13.9,1.1"/>
	<path class="st1" d="M61.2,103.7c3.4-5.2,5.1-10.6,5.1-16.8"/>
	<path class="st1" d="M63.5,135.6c0.2,6-0.6,15.2-0.6,20.1"/>
	<path class="st1" d="M67.8,99.7c0.7,5.5-3.1,10.7-5.1,15.7c-1.9,5.1-0.6,9.9,0.2,15"/>
	<path class="st1" d="M82.4,67.1c-2.2,3.2-5.9,4.4-7.3,8.6c-1.5,5,0.4,9.4,4.7,12.1"/>
	<path class="st1" d="M71.8,69.4c-1.6,2.2-5.8,11.3-1.5,12"/>
	<path class="st1" d="M90.1,65.7c7.2,0.7,11.1-7.4,13.5-12.8"/>
	<path class="st1" d="M90.5,54.7c6.4-1.8,8.6-11,8.5-16.8"/>
	<path class="st1" d="M81,52.6c-0.3-2.9,2.4-7.5,4.8-8.7"/>
	<path class="st1" d="M109.8,59.5c-0.1-6.7,11.4-10.3,16.4-10.6"/>
	<path class="st1" d="M112.4,44.5c4.6-4.3,13.7-7.2,19.4-3.7"/>
	<path class="st1" d="M116.4,29.4c6-2,10.8-1.6,16.8-1.1"/>
	<path class="st1" d="M123,57.3c-0.8,5.8,14.6,7.5,17.6,4"/>
	<path class="st1" d="M132.9,52.8c4.4,3.8,11.8,1.3,16.8,0.8"/>
	<path class="st1" d="M149.3,60.2c-0.3,0.3-0.6,0.3-0.7,0.7c5.7,3,10.2,8.2,15.7,11.5"/>
	<path class="st1" d="M163.2,58.8c4.2,3.9,7.1,9.8,9.5,15"/>
	<path class="st1" d="M176.4,58c5.4,6.1,8.8,14.5,7.7,22.6"/>
	<path class="st1" d="M188.1,63.8c-0.1,3.9,1.3,8.3,2.2,12"/>
	<path class="st1" d="M154.9,45.6c3.4,5.6,11.3,2.7,15-0.8"/>
	<path class="st1" d="M144.6,28c4.9,0,8.9,0.6,12.4,4"/>
	<path class="st1" d="M145.4,40.1c2.8,0,10.3,1.8,11.8-0.8"/>
	<path class="st1" d="M169.8,34.2c3,1,5.2,2.9,6.8,5.8c1,1.7,1,3.9,2,4.8"/>
	<path class="st1" d="M188.5,47c3,3.3,2.3,9.6,4.4,13.2"/>
	<path class="st1" d="M195.8,73c2.4,8.1,5,15.5,11.4,21.2"/>
	<path class="st1" d="M208.8,128.2c2.1,8.5,4.4,16.9,6,25.3"/>
	<path class="st1" d="M202,96.1c1.2,9.1,3.2,18.2,5.5,27.2"/>
	<path class="st1" d="M56.5,142.1c-3.8-1.2-8.1-3.1-9.9,1.8c-2,5.4,1.9,10.5,2.5,15.7c0.7,5.6,3.5,8.7,5.5,13.9
		c1.1,2.7,2.7,5.1,3.8,7.9c1.1,2.7,0.7,5,0.9,7.8c0.4,4.4,5.4,11.8,10.6,8.1"/>
	<path class="st1" d="M216.4,135.4c1.2-3.2,5.4-7.5,8.8-4.5c4.9,4.3,2.1,13.6,1.7,18.9c-0.6,6.2-2.2,12.2-3.9,18.3
		c-0.6,2-1.7,4-2.2,6c-0.6,2.5,0,5.2-0.6,7.8c-0.8,3.4-4.3,9.9-8.7,7.8"/>
	<path class="st1" d="M51,147.9c8.5,2.3,9.6,10.7,9.5,18.4"/>
	<path class="st1" d="M223.7,137.1c-6.3,3.7-4.3,17.5-5.4,23.8"/>
	<path class="st1" d="M91.5,146.8c7.1,3.6,23.3,4.9,29.9-0.1c0.5-0.4,0.6-1.2,0.1-1.7c-3.6-3.4-8.2-7.3-13.8-7.3
		c-5.6,0.1-12.7,2.8-16.5,7.5C90.8,145.7,90.9,146.5,91.5,146.8z"/>
	<path class="st1" d="M186.5,142.9c-4.3,4.9-22.4,3.9-28.5,1.3c-0.6-0.3-0.9-1-0.6-1.6c2.5-5,10.9-8.3,16-8.2
		c2.8,0.1,5.6,1.1,8.1,2.6c1.6,1,3.6,3.2,4.9,4.5C186.8,141.9,186.8,142.5,186.5,142.9z"/>
	<path class="st1" d="M98.6,140c-2.7,4.1,1.8,7.5,5.9,7.3c5.1-0.3,9.4-7.1,3.7-9.5"/>
	<path class="st1" d="M170,134.8c-5.1,1.4-3.5,8.5,1.3,8.5c5,0,7.8-5.5,4.7-8.5"/>
	<path class="st1" d="M71.1,136.7c-5.1-0.9-12-1.8-17.2-2.9"/>
	<path class="st1" d="M205.6,127.4c4.2,0,6.8,0.4,10.9-0.1"/>
	<path class="st1" d="M80.2,140.6c0-0.2,0-0.4,0.1-0.6c2.2-7.4,19.6-7.8,25.5-7.4c5.7,0.3,18.1,3.2,20.3,9.1
		c2.7,7.3,1.3,18.3-8.4,24.1c-8.4,5.1-19.8,3.3-27.5-1.9C82.5,158.6,80.3,149.4,80.2,140.6z"/>
	<path class="st1" d="M150.7,140.1c0-0.2,0.1-0.5,0.2-0.7c2.8-6.5,13.2-9.8,19.4-11.1c6.2-1.2,21.4-2.5,25.1,4.3
		c4.4,8.1-1.6,23.4-7.4,28.8c-7.8,7.3-17.9,7.2-25.9,1.1C155.3,157.3,150.3,148.7,150.7,140.1z"/>
	<path class="st1" d="M82.2,129.2c7.8-8.3,19.5-8.7,30.3-7.2c3.4,0.5,7.3,1.4,10.1,3.7s3,5.9,4,9.1"/>
	<path class="st1" d="M150.1,134.4c0-3.8-0.7-8.8,2.5-11.5c4-3.2,12.5-3.6,17.4-5c5.5-1.6,10.7-2.9,16.1-0.9
		c2.9,1.1,8.8,4.1,10.1,6.6"/>
	<path class="st1" d="M124.5,177.7c-7.6,3.7-4.7,18.6,4.4,16.8"/>
	<path class="st1" d="M157,174.4c2.9,5.6,5.1,8.8,3.8,14.2c-0.4,1.7-3,4.2-5.8,6.1"/>
	<path class="st1" d="M128.9,192.6c7.2-3.6,6,2,11.5,4.9c7.5,3.8,8.4-5.4,14.1-5.9"/>
	<path class="st1" d="M128.5,199.2c-5.7-0.9-12.9,4.5-16.1,8.7c-2.1,2.9-3.6,6.6-7,8.5c-1.9,1.1-5.9,1-6.8-1.7"/>
	<path class="st1" d="M105.4,220.8c5.3-2,8.6-4.2,12-8.7"/>
	<path class="st1" d="M122,219.3c1.7-2.3,2.7-6,4-8.8"/>
	<path class="st1" d="M131.1,217.9c0-0.3,5.3-8.2,5.8-8.7"/>
	<path class="st1" d="M145.7,208.4c1.1,3.9,3,7.3,5.8,10.2"/>
	<path class="st1" d="M153.3,212c1.1,1.8,2.2,4.4,4.4,5.4"/>
	<path class="st1" d="M142.5,211.7c-0.1,1.9-0.4,5.1,1.1,5.8"/>
	<path class="st1" d="M155.6,199.2c5.1-0.4,9.7,3.1,13.9,5.3c4.3,2.3,9.3,4.7,13.5,6.8"/>
	<path class="st1" d="M162.2,210.2c0.8,2.8,3.2,5.6,4.4,8.4"/>
	<path class="st1" d="M169.8,211.7c1.1,2,1.9,4.2,3.7,5.8"/>
	<path class="st1" d="M175.3,212c0.8,1.9,4.8,3.7,4.8,3.7"/>
	<path class="st1" d="M117.5,219.3c7.3,1.3,20.4,4.9,26.5,5.1c6,0.3,14.9-3.1,20.3-3.7"/>
	<path class="st1" d="M136.5,236.5c4-0.2,9.5-1.8,13.2-0.4"/>
	<path class="st1" d="M145.7,157.8c0,6.3-1.2,20.5,4.4,24.9"/>
	<path class="st1" d="M135.1,157.8c1.6,3.9,3.8,7.3,4.5,11.6c0.7,4.5,0.7,9.1,0.7,13.6c0-0.3,0-0.7,0-1"/>
	<path class="st1" d="M127.8,270.9c-0.3,4.9,8.8,21.1,6.6,23.4"/>
	<path class="st1" d="M86.1,235.5c1.3,5.9,3.1,10.4,3.3,16.6c0.2,6.2-0.7,12-1.2,18.2c-0.6,6.9-0.8,14.5,2.3,20.8
		c4.3,8.5,11.8,14.3,19.6,19.3c14.5,9.4,34.7,12.5,50.8,5.5c13.7-5.9,29.7-21.8,32.9-36.6c1.6-7.2-0.3-15.3-1-22.5
		c-0.4-3.5,1.5-13.6-0.8-15.7"/>
	<path class="st1" d="M81.4,229.2c-3.3,8.8-7.8,16.9-8.5,26.7c-0.8,10.7,0.7,21.6,5.2,31.3c4.5,9.3,10,18.3,18.1,24.7
		c7.9,6.2,17.6,11.8,27.3,14.7c35.5,10.3,79.7-9.9,82.6-49.7c0.7-9.2,0-18.6-3.6-27.3c-1.1-2.6-4.1-14.1-6.7-13.9"/>
	<path class="st1" d="M200.9,224.1c4.6,1.1,10.3,0.8,15.2,1.5c6.7,0.9,12,1.9,18.2,4.6c4.6,2,6.5-0.7,11.8-0.9"/>
	<path class="st1" d="M206.1,238.7c6-3.5,18.7,0.8,25.4,2.2c5.1,1.2,10,1.3,15.2,1.5"/>
	<path class="st1" d="M-4.6,258.1"/>
	<path class="st1" d="M78.8,235.5c-7.1-0.1-17.2,2.3-23.8,4.8c-7,2.6-14.9,1.9-21.7,4.9c-2,0.9-4.1,3.2-6.1,3.8
		c-2.3,0.7-5.7-0.3-8.1-0.4"/>
	<path class="st1" d="M73.9,249.6c-6.9-0.3-14.5,1.9-21.4,2.2c-7,0.3-13.3,3.2-16.2,10.2c-2.6,6.3-1.7,6.4-9,5.9
		c-7-0.4-16-0.5-20.2,5.4"/>
	<path class="st1" d="M53.2,260.6c1.7,0.8,4.5,6.6,5.5,8.7c2.6,5.4,4.5,11.6,6.1,17.3c3.9,13.6,4.5,26.6,4.5,40.8c0-0.6,0-1.2,0-1.7
		"/>
	<path class="st1" d="M40.8,279.6c-0.1,3.6,1.2,7.6,1.7,11.2c1,7.2,1.6,14.5,2.7,21.6c1.8,11.4,1,13.3,4.7,24.3"/>
	<path class="st1" d="M210.1,288.5c-0.2,8.9,0.4,18,0.4,26.9c0,5-0.3,9.9-1,14.9c-0.3,2.5-1.9,8.6-1.3,9.8"/>
	<path class="st1" d="M212.3,259.5c7.1,11.4,10.6,22.3,10.2,35.5c0-0.3,0.1-0.6,0.4-0.9"/>
	<path class="st1" d="M237.8,255.8c0.3,17.1-3.9,33.4-7.7,49.9c-2,8.6-4.6,17.2-6.6,25.8"/>
	<path class="st1" d="M11.8,289.2c5.1,9.3,9,19.9,10.6,30.5c0.6,4.1,0,12.9,1.2,17.5"/>
	<path class="st1" d="M147.1,137.9c3.9-8.5,19.2-12.9,26.8-14.1c10.5-1.7,21.1,0.6,31.4,0.1c0.1,1.4,0.5,3.4,0.3,4.8
		c-0.3,2.7,0.1,1.8-1.7,3.6c-1.1,1-2.1,0.6-3,1.8c-0.9,1.3-0.4,3.3-0.6,4.9c-1.1,7.2-2.8,15.9-7.1,22.3c-11.3,16.7-33,10.1-41.8-4.5
		c-3.2-5.3-4.3-8.5-5-13.7c0-0.2,0-0.9,0-1.2c-2-1.4-10.9-2.1-15.5,0.8c1.8,9.1-0.8,21-8.4,26c-9.2,6.1-22.7,7-32.3,0.6
		c-10.5-7-11.8-17.7-14.4-28.8c-5.4,0.3-5.1,0-5.1-4.5c0.1-6,3.8-5.4,8.5-6.2c7.7-1.3,15.6-2.5,23.4-1.5c8.5,1.2,22.9,2,27.4,10.8
		C135.6,137.2,141.9,135,147.1,137.9z"/>
	<path class="st1" d="M72.2,131.4c-3.6,0-9-0.2-12.5-1c-1.7-0.4-6.3-1.2-6.2-1.2"/>
	<path class="st1" d="M202.6,123.9c4.7-0.2,9.3-1.3,13.9-0.8"/>
	<path class="st1" d="M64.2,64.3c1.1-5.1,2.7-6.7,7.8-8.1"/>
	<path class="st1" d="M58.7,83.2c0.2-2.8-1.8-6.3-0.2-8.9"/>
</g>
</svg>
