<?xml version="1.0" encoding="utf-8"?>
<!-- Generator: Adobe Illustrator 21.1.0, SVG Export Plug-In . SVG Version: 6.00 Build 0)  -->
<svg version="1.1" id="Layer_1" xmlns="http://www.w3.org/2000/svg" xmlns:xlink="http://www.w3.org/1999/xlink" x="0px" y="0px"
	 viewBox="0 0 260 344" style="enable-background:new 0 0 260 344;" xml:space="preserve">
<style type="text/css">
	.st0{opacity:0;}
	.st1{fill:#FFFFFF;}
	.st2{fill:none;stroke:#000000;stroke-width:2;}
	.st3{fill:none;stroke:#000000;stroke-width:1.9535;}
</style>
<title>trishul</title>
<desc>Created with Sketch.</desc>
<g id="speakers" transform="translate(-716.000000, -2353.000000)">
	<g id="trishul" transform="translate(133.000000, 234.000000)">
		<g transform="translate(584.000000, 2100.000000)">
			<g id="bg" class="st0">
				<rect id="Rectangle-path" y="19" class="st1" width="260" height="344"/>
			</g>
			<g id="Layer_13" transform="translate(0.000000, 20.000000)">
				<path id="Shape" class="st2" d="M41.8,118.7c0-17.5-5.7-40.4,4-57c10.1-17.4,29-30.7,47.9-36.8c8.6-2.8,17.6-4.5,26.6-5
					c4.7-0.3,8.9-0.9,13.6-0.2c5.2,0.8,10.2,2.2,15.3,3.3c20.7,4.5,38.2,18.3,49.3,35.8c10.2,16,10.6,37.4,9.7,56
					c-0.1,2.1,0,4.3,0,6.4"/>
				<path id="Shape_1_" class="st2" d="M51.1,135.9c-5.1,3.1-1.9,19.6,1.5,23.4c3.3,3.6,10.1,3.9,14.6,5.2c6,1.7,12.3,3.1,18.4,3.5
					c4.5,0.2,11.5,0.5,15.2-2.3c3.6-2.8,6-11.2,6.8-15.6c2.4-12.9-8.7-13.5-18.5-14.9C76.9,133.5,62.6,132.4,51.1,135.9z"/>
				<path id="Shape_2_" class="st2" d="M120.7,140.4c-2.4,6.9,1.3,18.8,6.3,24c7.1,7.5,20.2,3.7,29.4,4.2c4.8,0.3,11.5,1.6,16.3,0.4
					c4.7-1.2,5.6-7.1,6.2-11.2c0.6-4.3,2-10.1,0.7-14.3c-1.8-5.5-9.4-5.6-14.5-6.6c-8.6-1.7-17-1.5-25.7-1c-7.2,0.4-13.7,1.1-19,4.8
					"/>
				<path id="Shape_3_" class="st2" d="M51.1,135.9c-2.3-5.9-7.2-14.8-9.4-20.5c-1.6,7.6,0.3,9.7,1.6,13.6
					c1.4,4.4,2.9,13.1,5.2,16.9"/>
				<path id="Shape_4_" class="st2" d="M179.1,142.5c6.9-6.2,14.6-12.4,20.1-18.6c2.9-3.3,5.8-8.5,8.9-10.7"/>
				<path id="Shape_5_" class="st2" d="M208.1,121.1c-5.8,7-11.4,14.4-17.6,21.4c-4,4.6-7.3,9.2-11.5,13.8"/>
				<path id="Shape_6_" class="st2" d="M105.6,140.2c5.1-0.8,10-1.5,15.1-0.2"/>
				<path id="Shape_7_" class="st2" d="M63.5,144.9c7.4,9.9,22.8,10,31.3,1.7c-2.2-4.3-8.9-7.9-13.9-8.3c-3.1-0.2-5.9,0.4-8.8,1.3
					C68.9,140.6,66.3,142.6,63.5,144.9z"/>
				<path id="Shape_8_" class="st2" d="M167.5,146.3c-2.4,4.2-10.5,6.8-15.6,6.6c-4.4-0.1-11.2-0.8-16.8-7.3
					c4.3-5.5,11.1-6.9,17.7-6.5C159,139.4,163.3,142.9,167.5,146.3z"/>
				<path id="Shape_9_" class="st2" d="M79.8,138.3c-5.4-0.6-6.9,9,0,10.4c6.8,1.4,8.9-8.1,3.3-10"/>
				<path id="Shape_10_" class="st2" d="M150.8,139c-6.2-0.5-7.9,8.8-0.8,10.1c5.6,1,10.8-6.9,4.4-9.8"/>
				<path id="Shape_11_" class="st2" d="M56.1,128.4c-0.9,0-1.3-1.1-0.7-1.8c4.5-4.5,10-9,16.4-9c6.9,0,13.7,0.4,19.8,3.5
					c2.9,1.5,12.3,5.9,9.3,11.1c-1.4,2.4-4.6,0-6.7-0.8c-4.4-1.8-9-2-13.6-3.2c-4.5-1.1-9-1.6-13.7-1.6
					C63.8,126.6,59.4,128.6,56.1,128.4z"/>
				<path id="Shape_12_" class="st2" d="M125,133.2c-1.1,0-2-0.8-2.1-1.9c-0.6-8.3,18.5-12,23.5-13.2c8.4-1.9,15.2,0,23.1,2.9
					c2.1,0.8,5.8,2,6.9,4.3c0.6,1.1-0.2,2.5-1.5,2.5c-3.2,0.1-6.8-0.8-9.9-0.8c-5.4,0.1-13.6,0.4-18.6,2
					C138.4,131.4,133.4,133.1,125,133.2z"/>
				<path id="Shape_13_" class="st2" d="M46.5,125.9c-0.8-10.6,0.9-27.3,2.5-37.7c0.8-4.9-0.1-9.9,1.9-14.6
					c1.9-4.6,5.4-7.6,9.3-10.8c6.6-5.5,9.8-13,16.6-18.2c2.7-2,5.1-3.6,8.7-2.9c4.9,0.9,4.9,4.5,6.3,8.5c7.9,23,43,0.4,56.4-4.9
					c8.3-3.3,17.4,3.1,24.1,8.1c6.8,5.1,15.3,16.7,16.2,25.2c0.6,5.3-0.3,8.8-1.5,13.8c-1.2,4.8,0.1,6.1,2.6,9.9
					c4.3,6.4,7,12.5,6.5,20.2c-0.1,1.6-0.1,3.5-0.2,4.9"/>
				<path id="Shape_14_" class="st2" d="M41.1,122.8c-5-6-10,4.8-9.2,9.2c1.1,6.6,5.2,12.8,7.8,18.9c2.5,5.7,2.1,10,2.4,16.1
					c0.2,4.6,0.2,10.1,4.5,12.7"/>
				<path id="Shape_15_" class="st2" d="M45,135.6c0,12.7,2.5,34.6,2,47.2c-0.2,6.1,1.4,12.5,3.4,18.2c2,5.4,5.8,14.4,9.3,17.9"/>
				<path id="Shape_16_" class="st2" d="M208.1,121.1c3.3-0.3,6.4-3.1,10.1,0c2.8,2.3,3.5,10.3,3,13.5c-1,7.2-5.8,13.8-6.9,21.1
					c-1,5.9-0.3,13.1-3.4,18.5c-1.8,3.1-7.2,6.4-10.2,2.6"/>
				<path id="Shape_17_" class="st2" d="M202.6,150.7c2.2-6,1.3-13.7,5.8-18.8c2.9-3.3,8.3-3.3,9,1.6"/>
				<path id="Shape_18_" class="st3" d="M97.5,172.9c-4.5,3-6.1,13.7,1.1,12.7c2.3-0.3,3.2-4.7,6.1-2.9c1.3,0.8,1.3,2.7,3.3,4.3
					c3.9,3.2,10.7,2.8,14-0.3c2.2-2.1,2.3-6.7,5.9-4.7c1.9,1.1,1.9,4.2,4.8,4.3c2.7,0.1,4.5-2,5.3-4.2c1.4-4.1-2.3-8.2-6.3-8.9"/>
				<path id="Shape_19_" class="st2" d="M117.8,165c3.5,1.1,8.5,5.6,7.6,11.4"/>
				<path id="Shape_20_" class="st2" d="M58.9,218.2c3.3,2.4,6,6.8,8.8,9.8c5,5.5,9.5,10.6,15.4,15.1c9.1,7,19,13.7,31,13.7
					c6,0,12.3,0.5,18.2-0.4c7.5-1.1,14-4.1,20.7-7.4c15-7.4,30.4-17.7,38.4-32.7c4-7.5,5.5-15.4,7.3-23.6c0.8-3.4,3.5-13.1,1.9-16"
					/>
				<path id="Shape_21_" class="st2" d="M91.9,208c3.7-0.2,7-1,10.9-1.1c4.4,0,8.4,0.8,12.6,0.2c4-0.6,8.3-0.7,12.5-0.5
					c4.4,0.2,8.7,1.7,12.8-0.7"/>
				<path id="Shape_22_" class="st2" d="M98.2,211.5c1.4,4.1,12.7,6,16.7,6.3c6.6,0.6,14.6-3.3,19.5-7.4"/>
				<path id="Shape_23_" class="st2" d="M103.1,190.4c-7,2.9-15.5,4.3-22.6,6.7c-4.4,1.5-4.2,2.3-4.1,6.1c0.1,2.5-0.7,4.9-0.4,7.4
					c0.3,2,1.2,3.9,1.4,6c0.3,2.9,1.4,7.7-1.3,9.8c-3.7,3-4.6-0.3-6.6-2.6c-2.2-2.6-4.5-4.4-6.6-7.1c-2.3-3-5.3-9.5-7-13
					c-4-8.4-6.9-38.8-6.9-52.9"/>
				<path id="Shape_24_" class="st2" d="M129.5,190.8c6.2,1,8.9,2.3,15,3.5c6,1.2,12,4.7,11.7,11.6c-0.2,6.3,0.4,9.8-0.8,15.9
					c-1,5.3-3.5,14.3,5,11.2c12.9-4.7,21.1-15.5,27.6-26.9c1.9-3.4,4.5-6.5,5.9-10.1c1.7-4.2,1.7-6.3,2.2-9.9
					c1-6.5,0.8-11.2,0.5-17.7c-0.3-6.1,1.1-11.7,1.4-17.7c0.3-5.2-1.2-10.6-1.5-15.4"/>
				<path id="Shape_25_" class="st2" d="M50.4,201c-2.8,4.2-6.5,9.3-8.6,14c-3.4,7.5-4.9,15.8-8.6,23.1c-2.6,5.3-6.2,11.1-9.6,16
					c-1.3,1.9-7.6,8.2-6.5,11.1c0.5,1.2,4.4,2.8,5.6,3.7c2.5,2.1,4.6,4.1,7.5,5.8c6.1,3.7,12.3,7,19.3,8.6c6.5,1.5,14.7,0.1,20.6,3
					c4.5,2.3,6.4,6.6,8.8,10.6c2,3.3,5,5.3,6.9,8.6c5.2,9.1,12.7,22,17.5,31.4"/>
				<path id="Shape_26_" class="st2" d="M194.5,209.2c0,12.4-0.4,28.8-3,41c-2.3,10.7-6.6,20.9-10.2,31.2
					c-8.4,23.7-18.2,32.8-29.9,54.9"/>
				<path id="Shape_27_" class="st2" d="M70.1,230.5c0.7,2.5,2,5,3,7.5c1.7,4.3,2.3,8.5,3,13.1c1.3,8.5,1.9,17.2,2.8,25.7
					c0.9,8.6,3.2,18,5,26.1"/>
				<path id="Shape_28_" class="st2" d="M198.4,194.3c0.9,2.7,4.5,7.5,6.7,9.5c2.7,2.4,6.4,2.1,9.6,3.4c9.5,3.8,13.5,14.1,16.1,23.3
					c3.6,12.4,5.9,25,10.6,37.1c3.2,8.3,9.9,15.7,10.6,24.7c-11.7,4-22.7,9.9-34.2,14.3c-5.3,2-10.7,3.6-16.1,5.1
					c-3.8,1.1-9.2,4.1-12.9,4.2"/>
				<path id="Shape_29_" class="st2" d="M66.6,289.9c1.3,2.4,4.2,3.8,6,6c3.3,4,5.7,9.3,8.4,13.8c5.5,9.5,9.5,16.8,14.4,26.6"/>
				<path id="Shape_30_" class="st2" d="M184.4,272.8c-2.8,21,0.6,24.5,2.2,34.5c1,5.8,5.2,13.3,4.3,19.2c-0.4,2.8-6,8.4-7.7,10.6"
					/>
				<path id="Shape_31_" class="st2" d="M91.5,259.6c2.4,6.9,7.6,13.3,10.2,20.5c1.9,5.4,4.1,10.7,6.7,15.8
					c2.3,4.6,6.1,9.5,7.7,14.3"/>
				<path id="Shape_32_" class="st2" d="M48.7,203.8c-5.6,1.7-11.2,5.7-16.4,8.7C22.7,217.8,9.7,224,0,229"/>
				<path id="Shape_33_" class="st2" d="M216.2,207.9c4.2,0,8.7-0.3,11.9,0.9c4.4,1.5,8.6,4.9,12,7.9c10.7,9.3,10.1,28.5,11,41.5"/>
				<path id="Shape_34_" class="st2" d="M244.2,221.4c3.9,1.7,12.1,3.2,15.3,4.6"/>
				<path id="Shape_35_" class="st2" d="M180.1,318.3c0.8,2.2,2.5,4,3.2,6.3"/>
				<path id="Shape_36_" class="st2" d="M107.8,145.2c5.1-0.8,7.8-1.5,12.9-0.2"/>
				<path id="Shape_37_" class="st2" d="M120.5,235.7c0,2.8-0.4,5.6-0.4,8.4"/>
				<path id="Shape_38_" class="st2" d="M126,235.1c0.1,2.4-0.7,4.8-0.7,7.3"/>
				<path id="Shape_39_" class="st2" d="M131.5,235.5c-1.3,4.9,1.5,4.9,4.8,2.9s6.1-4,8.7-7c3.9-4.4,5-9.4,5.5-14.9
					c0.4-4.7-0.7-8-4-11.4c-3.3-3.5-7.7-4.2-12.1-5.3c-4.2-1-7.9-0.7-11.7-2c-2.6-1.3-5.2-0.2-7.9,0.2c-3.5,0.5-6.6-1.8-9.7-1.1
					c-4.3,1-9.3,4.2-13.2,6.2c-1.9,1-4.4,1.6-6.1,2.9c-1.6,1.2-1.6,2-1.8,4.1c-0.8,6-2.1,17.1,3.8,21c2.6,1.7,6.5,0.9,9.5,1
					c3.1,0.1,6.1,1.4,8.2,3.7c2.4,2.6,4.3,5.9,7,8.2c1.3,1.2,2.6,2.5,3.7,0.7c1-1.7,1-7.4,0.9-9.3"/>
			</g>
		</g>
	</g>
</g>
</svg>
