<?xml version="1.0" encoding="utf-8"?>
<!-- Generator: Adobe Illustrator 21.1.0, SVG Export Plug-In . SVG Version: 6.00 Build 0)  -->
<svg version="1.1" id="Layer_1" xmlns="http://www.w3.org/2000/svg" xmlns:xlink="http://www.w3.org/1999/xlink" x="0px" y="0px"
	 viewBox="0 0 260 344" style="enable-background:new 0 0 260 344;" xml:space="preserve">
<style type="text/css">
	.st0{fill:#FFFFFF;fill-opacity:0;}
	.st1{fill:none;stroke:#000000;stroke-width:2;}
</style>
<g id="Page-2.4-_x28_venue_x2B_photos_x29_">
	<g id="home" transform="translate(-1008.000000, -1511.000000)">
		<g id="speakers" transform="translate(133.000000, 1394.000000)">
			<g id="_x34_" transform="translate(875.000000, 90.000000)">
				<g id="Mask">
					<rect id="path-1_1_" y="27" class="st0" width="260" height="344"/>
				</g>
				<g id="Page-1">
					<g transform="translate(0.000000, 28.000000)">
						<path id="Stroke-1" class="st1" d="M45.1,138.3c0.2-4-3.2-8.8-4-12.9s-1.7-8.6-2-12.7c-0.7-12.6,5.3-26.8,10.3-38.2
							c7.6-17.4,23.2-34,40.9-41.2c14.9-6,31.2-8.7,46.9-3.8c18.5,5.8,30.2,9.3,44.4,22.8c7,6.7,16,22.4,17.6,31.7
							c1.6,9.2,0.5,19.4,0.3,25"/>
						<path id="Stroke-3" class="st1" d="M51.3,137.4c-3.1-12.8,1.9-28.8,3.6-41.6c1.1-8.6,3.2-18.5,8.4-25.7
							c4.9-6.9,12.9-6.7,20.8-7.4c9.2-0.8,18.4-0.8,27.5-2.7c8.7-1.7,16.6-5.9,25.2-7.7c8.2-1.8,14.9-2.4,22.9-0.1
							c8,2.3,10.5,7.6,14.9,14.1c5.4,8,10.9,16,14.5,25c2,4.9,5.4,14.2,4.7,19"/>
						<path id="Stroke-5" class="st1" d="M51.3,142.7c-1.3-1.7-6.2-5.1-8.6-4c-3.6,1.6-0.1,9.2,0.6,11.5c1.7,5.3,4.5,9.7,6.8,14.7
							c2.3,4.9,3.9,10.5,6.1,15.3"/>
						<path id="Stroke-7" class="st1" d="M198.5,112.9c1.6,7.9,4.5,35.8,4.9,43.9c0.4,8.4,0.8,17.4,0.4,25.8
							c-0.5,10.7-3.2,18.6-9.2,27.6c-15.8,23.4-42.8,34.6-70.2,35.9c-13.5,0.6-25.8-2.6-36.7-10.6c-11.6-8.5-16.4-19.8-22.9-32.2
							c-4.5-8.6-7.6-17.1-9.2-26.6c-1.6-10.3-4.1-23.6-4.3-34c0.6,8.6,5.1,20,7.6,28.4c2.8,9.2,5.5,18.4,14.7,23.3
							c4.3,2.3,21,9.8,23.9,4.9c1.3-2.2,0.3-6.6,0.8-9.2c0.7-3.5,2.3-5.5,5.2-8.1c4.9-4.4,7.3-7,12.3-10.9"/>
						<path id="Stroke-9" class="st1" d="M203.1,152.1c3.2-8.4,6.5-19.4,7.3-28.9c0.3-3.2,0.7-12.4-2.4-14.5
							c-2.7-1.8-5.8,0.4-8.2,2.3"/>
						<path id="Stroke-11" class="st1" d="M145,163.9c4.4,2.3,7.8,4.5,12.6,6.2c3.6,1.2,8.5,0.8,11.2,3.8c3.8,4.2,2.8,17,8.6,19.1
							c6.7,2.4,17-16.6,18.8-21.5c3.5-9.3,2.3-20.6,1.4-30.3c-0.7-8.7-1.9-18.9-1.9-26.8"/>
						<path id="Stroke-13" class="st1" d="M147.7,210.6c5.9,2.2,12.1-1,14.7-2.7c6.2-4.2,5.4-13,4.1-19.5c-1.6-7.8-4.9-8.7-12.7-8.7
							c-9.3,0-18.7,2-27.8,3.4c-3.3,0.5-21.2,4.4-21.2,7.8c0,9.1,0.6,21,11.9,22.5c2.6,0.3,9.3,1.3,12.3-1.2
							c3-2.5-2.3-10.6,8.2-12.3C147.6,198.4,143.3,209,147.7,210.6z"/>
						<path id="Stroke-15" class="st1" d="M45.1,138.3c4.9-0.5,11.3-1.8,16.2-1.9c-0.1,2.5-0.1,3.6,0.2,8.8c-2.8-1-7.3-1.6-10.1-2.5
							"/>
						<path id="Stroke-17" class="st1" d="M113.7,121.3c5.8-0.6,15.5-3.6,20.4-5.1"/>
						<path id="Stroke-19" class="st1" d="M109.1,191c9.4,0,18.5-2.3,27.7-3.5c3.8-0.5,23-5.9,24.6-3.1"/>
						<path id="Stroke-21" class="st1" d="M117.9,126.1c4.3-2.3,9.1-3.1,14.7-3.5"/>
						<path id="Stroke-23" class="st1" d="M108.3,191c9,0.1,16.2,5,25.4,4.6c5.6-0.2,11.3-1.8,16.3-4.6c2.7-1.5,8.3-7.1,10.3-7.1"/>
						<path id="Stroke-25" class="st1" d="M61.1,140.6c0,4.9,0.3,6.5,3.2,10.7c3.3,4.8,9.6,2.9,15,3.2c8.7,0.4,20.8-1,28.5-4.5
							c4.6-2.1,6.7-6.3,7.9-10.9c0.9-3.6,3.1-10.3,1.6-14c-4-9.2-22.1-2.4-28.6-0.8c-4.7,1.2-28.4,1.5-27.4,12.1"/>
						<path id="Stroke-27" class="st1" d="M72.8,140.6c8-4.2,13.1-9.5,20.8-11.2c5.1-1.1,11.1,0.6,15.4,3
							c-5.8,1.1-11.4,4.3-17.3,5.5c-3.7,0.8-7.2,1.5-11,1.9C78.4,140,74.7,139.7,72.8,140.6"/>
						<path id="Stroke-29" class="st1" d="M141.4,122.1c5.1-12.7,30.2-7.6,37.4-5.8c-6,2-15,3.7-22,5.3
							C154.5,122.1,140.3,125.4,141.4,122.1"/>
						<path id="Stroke-31" class="st1" d="M193.5,110.2c0,0.1,4.3-0.9,6-1.2c1.1,4.7-2.4,4.3-5.7,5.3"/>
						<path id="Stroke-33" class="st1" d="M88.3,131.3c-3.6,4.3,0.8,6.9,6.2,5.8c5.6-1.2,6-8.1,2.1-8"/>
						<path id="Stroke-35" class="st1" d="M149.5,115.1c-3.8,5.2,0.6,8.9,6,6.6c1.7-0.7,3.6-1.5,4.4-3.3c0.8-1.9,0-4.7-3-4.6"/>
						<path id="Stroke-37" class="st1" d="M132.5,122.8c-0.1-12.6,10.9-10.8,18.8-13.9c7-2.7,13.6-5.8,20.9-7.4
							c3.9-0.9,11.8-3.1,15.8-1.5c5.5,2.2,7.7,19.2,3.9,23.2c-3.8,4.1-29.2,15.2-35.9,16.5C142.6,142.3,135.2,139.2,132.5,122.8"/>
						<path id="Stroke-39" class="st1" d="M72.8,218.4c4.9,11.9-1.4,18.6,8.6,28.1c10.3,9.8,24.5,14.2,36.4,20.5
							c8.1,4.3,14.8,7.2,23.8,4.9c8.4-2.2,17.1-4,24.8-8.4c6.7-3.8,10.3-6.7,16.8-11c5.5-3.6,11.3-11.1,11.3-19.3
							c-0.1-9.1-0.5-15.2,0.1-23.1"/>
						<path id="Stroke-41" class="st1" d="M149.4,285.8c13.3,0.9,25.9-13.5,34.7-21.8c11.3-10.6,24.8-21.5,32-35.4
							c9-17.4,12-31.5,2-48.9c-2.5-4.3-8.8-9.8-14.2-11.9c-0.1,0.5-0.3-9.8-0.3-9.3c8.3,8.5,25,10,28.9,23.1
							c2.5,8.7,0.4,18.8-0.6,27.5c-1,8.2-1.8,16.3-4.9,24c-7,17.8-21.6,34.2-36.1,46.2c-12.2,10.1-26.5,14.1-41.8,16.3
							c-10.2,1.4-20.7-1.9-29.3-5.8s-17.4-8.3-21.3-9.6c-7.4-2.4-15.1-4.2-22.6-5.9c-7.2-1.6-14.4-3.1-21.1-6.4
							c-6.7-3.4-9.2-8.8-13-15.1c-8.3-13.7-13.3-27.5-3.4-42c3.3-4.9,5-9.3,7.4-14.7c2.3-5.2,5.4-13.6,9.5-17.6
							c-7.5,9.4-16.6,16.8-22.8,27.4c-4.7,7.9-9.7,16.5-10.7,26c-3.3,31,37.1,44.4,57.6,56.9"/>
						<path id="Stroke-43" class="st1" d="M233,200.7c12.5,11.6,3.2,65.7-18.1,84.3"/>
						<path id="Stroke-45" class="st1" d="M21.8,230.8C18,233,7.9,241.3,9.4,246.7c1.3,4.9,9.9,10.9,13.4,14.3
							c6.8,6.6,41.5,29.9,50.1,42.5"/>
						<path id="Stroke-47" class="st1" d="M236,204.4c5.3,0.6,13.7,3.5,18.8,5c1.1,0.3,2,0.7,4.3,1.3"/>
						<path id="Stroke-51" class="st1" d="M114,150.5c-0.7,4.8-7.2,8.8-5.1,13.8c0.9,2,3.3,4.1,5.5,4.1c2.4,0,2.9-2.7,5-4
							c4.7-2.8,9.7,1.8,14.7,0.3c2.6-0.8,4.7-3,7.3-3.8c2.5-0.8,5.5,0.4,8.1-0.7c6.7-2.8,0.6-10.8-7-13.7"/>
						<path id="Stroke-53" class="st1" d="M107.3,289.2c5-0.5,10.5,4.1,14.5,6.2c4.2,2.2,8.8,4.4,12.6,7.2c5.7,4.1,10.2,9.1,14,14.9
							c4.1,6.1,10.1,14.3,12,21.5"/>
						<path id="Stroke-55" class="st1" d="M164.9,292.6c0,12.2-1.8,25.8,1.3,37.6c1,3.6,1.3,7.9,1.7,12.1"/>
					</g>
				</g>
			</g>
		</g>
	</g>
</g>
</svg>
