<?xml version="1.0" encoding="utf-8"?>
<!-- Generator: Adobe Illustrator 22.0.1, SVG Export Plug-In . SVG Version: 6.00 Build 0)  -->
<svg version="1.1" xmlns="http://www.w3.org/2000/svg" xmlns:xlink="http://www.w3.org/1999/xlink" x="0px" y="0px"
	 viewBox="0 0 260 344" style="enable-background:new 0 0 260 344;" xml:space="preserve">
<style type="text/css">
	.st0{opacity:0;}
	.st1{fill:none;stroke:#000000;stroke-width:2;stroke-miterlimit:10;}
</style>
<g id="Layer_2">
	<rect class="st0" width="260" height="344"/>
</g>
<g id="Layer_3_1_">
	<path class="st1" d="M54.1,147.6c-1.7-4.8-4.2-14-5.2-18.9c-0.7-3.6-2.4-6.9-2.8-10.6c-0.4-3.5-0.4-7-0.4-10.6
		c0-13.2,2.5-25.1,6.2-37.5c2.9-9.8,10.7-17.9,17.5-25.4c9.1-10,21.8-14.5,33.7-20.2c5.9-2.8,10.5-6,17.1-7.1
		c4.8-0.8,9.8-1.1,14.7-1.2c7.8,0,17.2-0.6,24.5,2.1c8.2,3,14.2,7.6,19.5,14.5c4,5.2,7.2,12.1,7.9,18.5"/>
	<path class="st1" d="M115.9,50.1c3.4,8.7,1.5,16.6-3.1,24.9c-4,7.1-12.4,15.6-20.3,17.9"/>
	<path class="st1" d="M118.1,76.8c0.3,7.1-7.8,13.4-13.5,16.1"/>
	<path class="st1" d="M98,69.1c-5.2,10.4-16.1,18.2-26,23.4"/>
	<path class="st1" d="M80.8,95.8c0,9.4-1,20.3-5,28.9c-1.3,2.7-3,5.8-3.6,8.6c-0.3,1.7-0.3,3.5-0.6,5.3c-0.6,3.9-3.1,7.1-3.9,10.8
		c-1.1,5.1-0.2,11.4-0.2,16.6"/>
	<path class="st1" d="M125.4,65.1c5.7,10.1,12.4,28.3,2.2,38"/>
	<path class="st1" d="M134.9,64c4.9,6.4,7,14.9,7.3,22.9c0.3,8.9-3.4,13-9.2,18.8"/>
	<path class="st1" d="M147.7,67.6c6.4,15.7,4.8,36.5-9.1,47.9"/>
	<path class="st1" d="M156.5,64.7c4.5,8.2,8.5,17.8,6.5,27.4c-0.8,3.8-2.5,7.9-4.6,11.2c-0.8,1.3-2.4,2.9-2.6,3.8"/>
	<path class="st1" d="M166.7,47.9c9.9,7.1,15.7,21.3,14.6,33.4c-0.8,9-7.8,15.2-11.7,22.9"/>
	<path class="st1" d="M168.9,72.4c2.6,5.3,5.1,12.3,2.6,18.3"/>
	<path class="st1" d="M187.9,61.4c0.9,4.1,3.2,7.8,3.6,12.2c0.6,6.2-2.2,10.9-4.4,16.3"/>
	<path class="st1" d="M186.1,32.5c3.6,2.7,6.8,6.1,10.3,8.9c4.1,3.2,9.3,4.4,13.3,7.7c3.9,3.2,5.8,7,8.7,11
		c3.6,4.9,8.9,10.5,10.9,16.2c3.3,9.6-0.1,22.8,0.3,32.7c0.2,7.5-1,15.5-0.3,22.8"/>
	<path class="st1" d="M197.8,80.4c5,7.2,8,11.9,8.8,21c0.8,9.4,1,18.7,1.4,28.1c0.6,12.9,1.5,25.6,1.5,38.6"/>
	<path class="st1" d="M225.6,126.1c0,8.6-2.2,16.1-6.1,23.7c-2.3,4.3-5,8.4-6.3,13.2"/>
	<path class="st1" d="M59.2,134.9c0.1,10.7,4.7,20.6,4.8,31.1c0,4.4,2.3,12,2.8,16.4c0.3,2.6,1.2,5.2,1.6,7.9
		c0.5,3.6,4.5,18.9,6,22.8c4.8,12.3,10.3,25.2,20.6,34.6c7.5,6.8,16.2,11.9,24.8,16.5c8.5,4.5,18.5,6.2,28,4.9
		c12.7-1.8,20.3-9.7,28.4-16.8c7.5-6.6,15.1-14.2,20-22.8c4.8-8.4,6.6-15.3,8.2-24.6c1.2-6.8,5.1-26.3,5.1-36.7"/>
	<path class="st1" d="M203,64.9c3.6,3.7,7.1,6.9,9.1,11.8c1.2,2.9,1.6,5.9,1.9,9c0.2,2.2-0.3,6.1,0.6,7.9"/>
	<path class="st1" d="M220,85.5c0.1,1.3,0.7,2.4,1.1,3.7c0.9,3.4,0.8,6.9,0.8,10.3c0,4.9,0,9.8,0,14.7"/>
	<path class="st1" d="M215.9,113c-0.4,4.1,0.5,8.6,0.5,12.7c0,4.5,0,9,0,13.5"/>
	<path class="st1" d="M73.3,68.5c-6.8,12.3-11.6,26.7-11.6,40.8"/>
	<path class="st1" d="M69.8,105.2c0.3,5.2-2.6,9.9-3,14.9"/>
	<path class="st1" d="M66.3,179.6c-4,1.3-7.9,0.4-9.7-3.7c-1.3-3.1-0.4-6.8-0.4-10.1c0.1-4.5-0.8-8.9-1.7-13.3
		c-0.6-2.9-1-8.2,1.4-12.3"/>
	<path class="st1" d="M216.5,155.2c-0.9,2.5,0.1,7.6,0,10.3c-0.1,3.7,0,7.5-0.3,11.1c-0.3,4.5-4.1,9.4-8.7,10.5"/>
	<path class="st1" d="M123.8,181c-1.6,3.2-1.1,8,0.1,11.2c1,2.7,2.2,4,5,4.5c1.9,0.4,2.8-1.4,4.9-0.5c2,0.8,3.6,2.7,5.3,3.9
		c2.6,1.8,6.4,2.5,9.6,1.6c2.6-0.8,4-2.5,5.9-4.4c1.5-1.4,3.8-1.2,5.7-1.7c5.9-1.5,4.8-12.4,0.5-15.3"/>
	<path class="st1" d="M118.5,185.2c-4.7,7.7-10.5,16.2-20.1,18.1"/>
	<path class="st1" d="M166.8,189c2.9,2,5.5,5.3,8.2,7.7c2.4,2.3,4.9,4.2,7.8,5.9"/>
	<path class="st1" d="M93.4,151c2.6-1.7,4.9-4.2,7.7-5.5c3.5-1.6,6.6-2.3,10.5-1.9c2.8,0.3,6,0.9,8.5,2.4c2.6,1.5,4.7,3.7,7.2,5.4
		c-2.7,1-5.8,1.2-8.7,1.4c-3.3,0.2-6.5,0.8-9.8,0.8c-3.8,0-7.7,0.1-11.5-0.7C96.1,152.6,94.2,152.1,93.4,151z"/>
	<path class="st1" d="M160.4,154.3c3.6-4.9,12.7-6.8,18.4-6.7c5.8,0.1,9.6,3.2,14.4,5.9c-1.6,1.9-4.4,2.7-6.7,3.5
		c-3.6,1.3-7.7,1.5-11.5,1.1C170.1,157.6,165,155.7,160.4,154.3z"/>
	<path class="st1" d="M83.7,141.8c0.7-1.9,4-2.9,5.5-4c1.7-1.2,3.3-2.4,4.9-3.7c1.9-1.4,4.4-2.9,6.8-3c3.3-0.2,7,1.2,10.2,1.6
		c2.9,0.4,5.9,0.8,8.7,1.7c2.3,0.7,4.7,1.7,6.6,3.1c1.1,0.8,4.4,2.6,2.4,4c-1.1,0.8-3.4,0-4.6,0c-1.7-0.1-3.1-0.1-4.7-0.4
		c-6.8-1.4-14.3-1.7-21.1-0.2c-3.6,0.8-7.3,2.5-10.9,3C86.5,143.9,82.9,144.1,83.7,141.8z"/>
	<path class="st1" d="M155.5,142.4c2.6-3.1,8.1-5.3,11.6-6.8c3.9-1.7,8.7-1.7,12.9-2c3.5-0.3,5.7,1.1,8.9,2.6
		c2.6,1.3,5.1,2.7,7.1,4.7c1.2,1.2,5.2,3.9,4.1,6.1c-1.2,2.4-5.4,0.1-7-0.7c-6.6-3.2-14.9-3.9-22.2-3.4c-4.2,0.3-8,1.6-12.1,2.2
		c-1.1,0.2-3.2,0.4-3.8-0.7C154.8,143.8,155.2,142.9,155.5,142.4z"/>
	<path class="st1" d="M105.6,144.3c-1.6,2.6-0.4,6.2,2.2,7.8c2.6,1.6,7.8,1.1,8.5-2.5c0.3-1.7-0.1-3.9-1.1-5.3"/>
	<path class="st1" d="M171.9,148.2c-3.8,1.4-2.7,7.4,0.4,8.4c1.5,0.5,4,1.2,5.5,0.8c2-0.5,2.9-2.7,2.9-4.5c0.1-1.9-0.3-4.2-2.1-5.3"
		/>
	<path class="st1" d="M106.1,214c1.3-1,2.6-2.9,4-3.6c1.8-0.8,5.4,1.1,7.2,1.6c2.6,0.6,5.1,1.3,7.7,2c14.1,3.8,24.5,2.4,36.4-0.3
		c1.8-0.4,4.9-1.8,6.6-2.6c3-1.4,3.3-2.1,5.6,1.1"/>
	<path class="st1" d="M129.4,239.7c3-1.2,7-1.4,10.2-1.3c4,0.1,7.2,1.2,11,2"/>
	<path class="st1" d="M114.9,211.2c5-0.1,15.6-0.1,20.6,0.1c1.8,0.1,5.2,1.7,7.1,1.6c2.8-0.2,5.3-1.4,8.2-1.6
		c3.2-0.2,11.7,0.9,17.8-0.4"/>
	<path class="st1" d="M111.2,210.3c4.7,3.8,7.5,8.8,12.5,12.4c4.5,3.2,15.2,5.3,20.6,5c10.7-0.5,22.5-10.9,25.8-16.7"/>
	<path class="st1" d="M114.9,211.2c5.1,4.7,14.8,7.8,21.5,8.7c8.4,1.2,18.8-0.5,22.8-2.1c2.3-1,10.6-6,12.4-7.5"/>
	<path class="st1" d="M134.5,216.3c0,0.6,0,1.8,0,2.4"/>
	<path class="st1" d="M142.1,216.9c0.1,0.6-0.2,2.3,0,3.2"/>
	<path class="st1" d="M149.6,216.4c0,0.7,0.1,2.9,0.3,3.5"/>
	<path class="st1" d="M157.1,214.9c-0.1,0.7,0,2.3,0.1,3"/>
	<path class="st1" d="M125.3,214.5c0,0.8,0,1.6,0,2.4"/>
	<path class="st1" d="M79.8,226.4c-0.4,8.2,2.5,26.2-1.6,36.3"/>
	<path class="st1" d="M191.8,235.9c0.4,6.5-1.6,11.3-2.5,17.7c-1,8.8-2.3,16.8-7,24.5c-4.6,7.4-10.6,14.4-15.7,21.6
		c-2.2,3.3-4.9,6.6-6.7,10.1c-1.6,3.2-3.5,7.7-5.3,9.8c-3.2,3.5-2.6,8.5-4.8,12.6c-2.4,4.7-4.1,3.8-5.5,9.3"/>
	<path class="st1" d="M79.8,226.4c-5.4-0.7-10.7,8.4-12.2,12.2c-4,9.6-9,18.9-11.5,28.9c-2,7.9-4.8,16-6.2,24
		c-0.9,5.4,1.2,5.9,5.4,9.2c4,3.1,7.9,6.5,12,9.4c4-8.2,4.8-18.1,6-27c1.1-8.2,3.5-16.3,6.2-24c-0.1-0.6,1,1.2,0.7,1.3
		c-0.5,6,4.8,13.1,6.9,18.6c3.4,8.5,8.7,16,13.9,23.5c5.8,8.3,10.9,16.6,16.3,25.2c1.9,3.1,4,6.2,5.7,9.4"/>
	<path class="st1" d="M196.1,229.4c-0.2,4.6,1.1,8.8,1.7,13.7c0.5,4.4,1.9,9,1.7,13.4c-0.1,1.8-0.9,3.8-0.6,5.6
		c0.4,2.3,2.4,4.7,3.4,6.9c1.7,4,4.3,7.7,5.8,11.7c1.6,4.3,1.5,5.8-1.7,8.8c-4.1,3.7-9.5,6.3-13.4,10.1c-2.6,2.4-1.2,4-1.7,7.2
		c-0.9,6.1-7.7,7.8-12.3,10.5c-11,6.4-22.5,13.2-28.9,24.4"/>
	<path class="st1" d="M67.2,310c0.8,0.5,0.7,2,1.2,3.3c0.9,1.9,2.1,3.3,3.9,4.6c5.1,4,10.9,7.4,16.6,10.4c10.6,5.5,13.8,2.6,21,12.4
		"/>
	<path class="st1" d="M188.1,262.7c0,7.5,1,17.7,2.1,25.2c0.7,5,1.5,10.8,1.4,15"/>
	<path class="st1" d="M198,225.9c5.8,2.2,6.8,3.6,8.5,9.9c0.6,2.2,0.5,5.7,3,5c1.4-0.4,3-3.7,4.7-4.4c1.9-0.9,3.9-0.6,5.8,0.1
		c3.2,1.1,4,4.3,6.5,5.7c3.4,1.8,5.1-2.8,8.3-3.5c1.7-0.4,3.6,0.5,5.1,0.9c3.9,1.1,8.1,1.2,12,2.4"/>
	<path class="st1" d="M69,235.7c-1.7,3.1-11.3,8.5-14.7,8.4c-3-0.1-5.7-1.3-9-1c-3.6,0.4-6.7,1.9-10,3.4c-4,1.6-6.7,2.2-11,2.7
		c-3.4,0.4-5.2,1.6-7.1,4.3c-1.9,2.6-8.6,5.4-11.6,6.5"/>
	<path class="st1" d="M31.3,252.6c5.6,6.2,9.7,14.2,14.2,21.2c2.1,3.3,4.7,7.1,5.8,10.8"/>
	<path class="st1" d="M55.1,300.8c4.1,7.7,5.3,15.5,6,22.7c0.5,4.5,1,9,1.3,13.6"/>
	<path class="st1" d="M15.5,264.6c4.3-1.5,13,8.4,16,11c2.4,2.1,5,4.2,7,6.7c1.1,1.4,3.1,6.2,4.1,6.1"/>
	<path class="st1" d="M205.3,298.7c-0.7,9.7-2.8,19.4-2.9,29.3c0,5.4-0.5,8.4-0.1,13.8"/>
	<path class="st1" d="M248.5,261.7c-2.6,3.1-3.7,7.7-5.1,11.3c-2.7,7.2-4.6,14.6-5.6,22.2c-1.8,12.6-1.9,27.9-1.9,39.1"/>
	<path class="st1" d="M243.1,251.6c-9.6,11.1-22.1,19.2-27.7,33.2"/>
	<path class="st1" d="M219.2,247.9c-5.9,8.3-9.9,18.9-13.5,27.2"/>
	<path class="st1" d="M116.3,290.8c0,5,3.2,10.5,4.4,15.2c1.5,6.3,2,12.9,3.6,19.2"/>
	<path class="st1" d="M137.7,149.9c1.1,5.8,2.3,11.4,2.3,17.4c0,5.1-0.7,10.1-0.8,15.1"/>
</g>
</svg>
