<?xml version="1.0" encoding="utf-8"?>
<!-- Generator: Adobe Illustrator 21.1.0, SVG Export Plug-In . SVG Version: 6.00 Build 0)  -->
<svg version="1.1" xmlns="http://www.w3.org/2000/svg" xmlns:xlink="http://www.w3.org/1999/xlink" x="0px" y="0px"
	 viewBox="0 0 260 344" style="enable-background:new 0 0 260 344;" xml:space="preserve">
<style type="text/css">
	.st0{opacity:0;}
	.st1{fill:none;stroke:#000000;stroke-width:2;stroke-miterlimit:10;}
</style>
<g id="Layer_3">
	<rect class="st0" width="260" height="344"/>
</g>
<g id="Layer_2">
	<path class="st1" d="M90.1,66.1c0.5,10.2-5.3,21.9-6.2,31.2"/>
	<path class="st1" d="M97.9,71c-2.2,5.7-2.5,14.1-3.7,20.4c-1.5,7.6-2.5,15.5-4.9,22.9"/>
	<path class="st1" d="M106.2,71.6c-0.3,6-0.1,11.3-1.2,17.4c-1.3,7-2.2,19-6.8,24.4"/>
	<path class="st1" d="M113.9,76.3c0,4.7,0.2,9.5-0.5,14.2c-0.7,4.9-1.6,9.9-2.6,14.7c-0.9,4.2-1.4,10-3.7,13.8"/>
	<path class="st1" d="M118.3,65.4c0,14.7,0.3,29.5,0.3,44.2"/>
	<path class="st1" d="M122.9,74.1c0,9.3,1.5,18.5,1.5,27.8"/>
	<path class="st1" d="M128.8,60.2c-0.1,4.5,0.4,9.1,0.7,13.6c0.8,13.9,1.1,29.9,6.1,42.9"/>
	<path class="st1" d="M134,69.5c0.2,2.7,1.2,5.3,1.8,8c1.8,8,2.4,17.3,6.5,24.5"/>
	<path class="st1" d="M142.7,52.5c-0.3,6,1.9,12.4,3.1,18.1c1.7,8,3.5,16,5.7,23.8c1.9,6.5,3.8,14.1,8.5,19.3"/>
	<path class="st1" d="M148.9,54c-1.2,8.3,3.1,21,6.8,28.4"/>
	<path class="st1" d="M157.2,56.5c0.8,8.6,5.2,16.5,7.4,24.7"/>
	<path class="st1" d="M165.3,57.1c4.4,6,7.9,14,10.5,21c4.2,11.1,8.3,27.9,3.1,39.3"/>
	<path class="st1" d="M175.5,60.2c0.5,1.6,1.4,2.9,2.3,4.4c2.2,3.7,3.5,7.2,4.7,11.5c2.9,10.7,4.3,21.4,2.6,32.4"/>
	<path class="st1" d="M183.8,57.4c1.2,5.4,4.9,10.9,6.8,16.2c3.7,10.6,5.8,24.4,2.8,35.4"/>
	<path class="st1" d="M194.9,65.4c1.5,1.7,2.3,4.7,3.1,7c3.7,11.3,4.7,24.3,2.5,36"/>
	<path class="st1" d="M82.1,71.6c-0.9,2.8-0.6,6.4-0.9,9.4c-0.4,5.1-1.1,10.1-1.3,15.1c-0.2,4.5,0.2,9-0.4,13.4
		c-0.5,3.9-1.7,7.7-1.8,11.7c-0.2,6,0,11.9-1.6,17.7c-2.1,7.8-2.4,16.7-2.2,24.7"/>
	<path class="st1" d="M204.5,96.5c0.6,4.4,1.1,8.7,1.3,13.2c0.5,8.6,0.8,17.1,1.4,25.7c0.5,6.7,2.4,13.4,2.2,20"/>
	<path class="st1" d="M73.1,108.1c0,15.1-1.2,30-1.9,45c-0.1,3.5,0.1,7.1-0.2,10.6c-0.3,2.8-0.1,7.1,0.3,10.3
		c9.2,28.5,11.9,58.4,40,75.2c7.1,4.2,13.5,8.2,21.7,10c10.8,2.3,21.8,1.4,31.9-3c7.7-3.4,13.3-8.2,19.2-14
		c5.2-5.2,8.4-13.4,11.1-20.4c5.5-14.2,8.3-28.7,11.2-43.7c0.9-4.7,2-9.4,2.8-14c0.6-3.6,0.3-3.8,0.3-8.5"/>
	<path class="st1" d="M66.3,134.7c-1.3,3.7-0.4,9.4-0.3,13.4c0.1,6,0.3,11.9,0.3,17.9"/>
	<path class="st1" d="M60.4,130.1c0,9.4-0.7,18.8-0.6,28.1"/>
	<path class="st1" d="M212.6,137.2c0,5.6,0.3,11.2,0.6,16.8c0.3,6.9-2.1,13.3-2.1,20"/>
	<path class="st1" d="M216.9,117.4c-0.2,1.9,0.5,3.6,0.8,5.4c0.6,4.4,0,9.1,0.2,13.5c0.3,7.1,2,16.9-0.4,23.7"/>
	<path class="st1" d="M54.7,144.9c0.4-4.5-1.4-9.5-2.3-13.8c-1.1-6.1-1.9-12.4-2.5-18.5c-0.5-4.8-0.2-9.5-0.3-14.3
		c-0.2-4.5-0.7-9.2,0-13.7c1-7.2,6.1-15.2,9.4-21.6c3.9-7.7,9.5-14.9,15.5-21c5.8-5.8,14.2-8.7,21.1-12.7
		C123.1,13,184.6,19.7,207.4,50c12.5,16.7,13.8,47.1,15.5,57.2c2.1,12.8-0.6,25-1.2,37.7"/>
	<path class="st1" d="M62,160.4c0.4,3.5,2.5,7,3.3,10.5c0.8,3.2,1,6.5,2,9.6c0.8,2.6,3.3,8.3,7.6,5.1"/>
	<path class="st1" d="M79.9,203.6c1.2,6.3,2,10.7,2.2,15.1c0.2,5.5,0.2,11.3,0,16.8c-0.4,8-0.9,16-0.9,24.1"/>
	<path class="st1" d="M191.6,230.4c0.4,6.4-1.6,14.6-2.4,20.9c-1,8.6-2.3,16.5-6.9,24c-4.5,7.3-10.4,14.1-15.4,21.2
		c-2.2,3.2-4.8,6.5-6.6,9.9c-1.6,3.1-3.4,7.5-5.2,9.6c-3.1,3.4-2.5,8.3-4.7,12.4c-2.4,4.6-4,3.7-5.4,9.1"/>
	<path class="st1" d="M81.8,224.7c-5.3-0.7-10.5,8.2-12,12c-3.9,9.4-8.8,18.5-11.3,28.3c-2,7.7-4.7,15.7-6.1,23.5
		c-0.9,5.3,1.2,5.8,5.3,9c3.9,3,7.7,6.4,11.8,9.2c3.9-8,4.7-17.7,5.9-26.5c1.1-8,3.4-16,6.1-23.5c-0.1-0.6,1,1.2,0.7,1.3
		c-0.5,5.9,4.7,12.8,6.8,18.2c3.3,8.3,8.5,15.7,13.6,23c5.7,8.1,10.7,16.3,16,24.7c1.9,3,3.9,6.1,5.6,9.2"/>
	<path class="st1" d="M194,224.7c-0.2,4.5,2.9,11.5,3.5,16.3c0.5,4.3,1.9,8.8,1.7,13.1c-0.1,1.8-0.9,3.7-0.6,5.5
		c0.4,2.3,2.4,4.6,3.3,6.8c1.7,3.9,4.2,7.5,5.7,11.5c1.6,4.2,1.5,5.7-1.7,8.6c-4,3.6-9.3,6.2-13.1,9.9c-2.5,2.4-1.2,3.9-1.7,7.1
		c-0.9,6-7.5,7.6-12.1,10.3c-10.8,6.3-22.1,12.9-28.3,23.9"/>
	<path class="st1" d="M69.4,306.6c0.8,0.5,0.7,2,1.2,3.2c0.9,1.9,2.1,3.2,3.8,4.5c5,3.9,10.7,7.3,16.3,10.2
		c10.4,5.4,13.5,2.5,20.6,12.2"/>
	<path class="st1" d="M187.9,260.3c0,7.4,1,17.4,2.1,24.7c0.7,4.9,1.5,10.6,1.4,14.7"/>
	<path class="st1" d="M194.6,222.8c5.7,2.2,9.8,4.9,11.4,11c0.6,2.2,0.5,5.6,2.9,4.9c1.4-0.4,2.9-3.6,4.6-4.3
		c1.9-0.9,3.8-0.6,5.7,0.1c3.1,1.1,3.9,4.2,6.4,5.6c3.3,1.8,5-2.7,8.1-3.4c1.7-0.4,3.5,0.5,5,0.9c3.8,1.1,7.9,1.2,11.8,2.4"/>
	<path class="st1" d="M71.2,233.8c-1.7,3-11.1,8.3-14.4,8.2c-2.9-0.1-5.6-1.3-8.8-1c-3.5,0.4-6.6,1.9-9.8,3.3
		c-3.9,1.6-6.6,2.2-10.8,2.6c-3.3,0.4-5.1,1.6-7,4.2c-1.9,2.5-8.4,5.3-11.4,6.4"/>
	<path class="st1" d="M34.2,250.4c5.5,6.1,9.5,13.9,13.9,20.8c2.1,3.2,4.6,7,5.7,10.6"/>
	<path class="st1" d="M57.6,297.6c4,7.5,5.2,15.2,5.9,22.3c0.5,4.4,1,8.8,1.3,13.3"/>
	<path class="st1" d="M18.7,262.1c4.2-1.5,12.7,8.2,15.7,10.8c2.4,2.1,4.9,4.1,6.9,6.6c1.1,1.4,3,6.1,4,6"/>
	<path class="st1" d="M204.8,295.5c-0.7,9.5-2.7,19-2.8,28.7c0,5.3-0.5,8.2-0.1,13.5"/>
	<path class="st1" d="M247.2,259.3c-2.5,3-3.6,7.5-5,11.1c-2.6,7.1-4.5,14.3-5.5,21.8c-1.8,12.4-1.9,27.4-1.9,38.3"/>
	<path class="st1" d="M241.9,249.4c-9.4,10.9-21.7,18.8-27.2,32.5"/>
	<path class="st1" d="M218.4,245.7c-5.8,8.1-9.7,18.5-13.2,26.7"/>
	<path class="st1" d="M117.6,287.8c0,4.9,3.1,10.3,4.3,14.9c1.5,6.2,2,12.6,3.5,18.8"/>
	<path class="st1" d="M97.5,143.9c2.3-0.9,4.3-3.3,6.6-4.3c2-0.9,3.9-1.7,6-2.1c4.3-0.7,9.2,0.7,13.2,2.2c2.1,0.8,4.1,1.6,6,2.7
		c-4.9,2.3-10.2,3-15.7,3.3c-3.2,0.2-6.3,0.2-9.5-0.4C102.6,145,99.1,143.3,97.5,143.9"/>
	<path class="st1" d="M162.4,142.2c-0.3-0.1-0.3-0.6-0.1-0.8c1.8-1.2,4.4-1.9,6.4-2.7c2.8-1.1,5.9-1.7,9-1.7c5.7,0,11.6,2,16.8,4.3
		c-2,1.4-5.2,2.3-7.7,3.2c-4.1,1.5-7.3,2.2-11.7,1.8c-3.4-0.3-6.5-2.3-9.8-3C164.7,143.2,163.3,142.6,162.4,142.2z"/>
	<path class="st1" d="M108.8,137.8c-4.1,3.4-1.2,7.1,2.9,7.3c5.1,0.2,8.3-3,5.6-7.4"/>
	<path class="st1" d="M174,137.3c-1.8,0.2-3.3,2.6-3,4.4c0.4,2.4,2.3,4.2,4.5,4.5c5.5,0.7,9-4.9,4.8-9"/>
	<path class="st1" d="M86.9,136c0.2-4.5,8.1-9.3,11.4-11.6c5.4-3.8,12.2-2.3,18.2-1c3.2,0.7,6.6,1.2,9.8,2c1.8,0.4,4.5,1.7,4.9,3.8
		c0.5,2.5-4.7,1.7-6.4,1.7c-5.3,0-10.4,0.5-15.7,1.1c-4.7,0.6-9.5,1.4-14.1,2.5C93.3,135,88.5,137.6,86.9,136z"/>
	<path class="st1" d="M161.3,131.8c1.5-2.7,6.6-4.2,9.3-5.3c3.7-1.6,7.6-3.6,11.5-4.5c3.4-0.8,5.7,0.2,8.3,2.3
		c2.2,1.8,4.6,3.3,6.7,5.3c1.1,1,3.1,3.1,3.2,4.6c0,2.1-3.1,1.4-4.7,1.1c-3.6-0.6-6.8-2.1-10.3-3.4c-3.7-1.4-7.7-0.9-11.6-0.5
		c-3.2,0.3-6.4,1.1-9.6,1.3c-1.2,0.1-2.8,0.4-2.7-1.2c0.3-0.4,0.2-0.1,0.3,0.1"/>
	<path class="st1" d="M120.5,208.9c3.9,2.7,7.5,2.8,10.7,2.3c3.7-0.5,6.3-1.4,10.1-0.5c1.8,0.4,3.3,0.8,5.2,1c2.4,0.2,3.7-0.4,6-1.2
		c3-1.1,5.2-1,8.2,0c1.9,0.6,3.6,0.8,5.6,1.1c2.2,0.3,6.2-1,6.7-1.2"/>
	<path class="st1" d="M140.7,231.4c1.9-1.2,8.8-2.3,10.5-0.6"/>
	<path class="st1" d="M128.6,174.5c-3.1,3.7-2.4,10.5,1.9,12.8c1.9,1,4.2,0.6,6.2,0.2c2.2-0.4,4-0.1,6,0.9c1.9,1,3.5,1.8,5.8,1.8
		c2.9,0,4.4-0.9,6.8-2.2c1.4-0.7,2.6-1.1,4.2-1.2c2.1-0.1,4.3,0.5,6-0.8c1.7-1.3,2.6-3.7,2.4-5.9c-0.1-1.1-1.6-6.6-2.4-6.8"/>
	<path class="st1" d="M142.4,133.8c1.2,3.7,0.1,7.9-0.3,11.6c-0.5,4.2-1,8.4-1.4,12.6c-0.3,3.2-0.6,6.4-1.3,9.5"/>
	<path class="st1" d="M158.8,137.8c-2.8,2.5-2.5,5.8-0.9,9c0.8,1.6,1.8,3.2,3.1,4.4c1,0.9,3.6,2.9,5,3.8"/>
	<path class="st1" d="M133.5,137.6c1.9,1.4,2.7,3.4,2.6,5.7c-0.1,2.3-0.9,4.1-2.3,5.8c-0.5,0.6-1.5,1.9-1.6,1.7"/>
	<path class="st1" d="M121.8,185.8c-2.4,3.4-14.6,21.7-10.3,24.1"/>
	<path class="st1" d="M169.7,186.8c4,3.5,9.9,12.2,11,17.4"/>
	<path class="st1" d="M122.4,210c0.6,0.3,3.1,2.3,3.7,2.7c1.2,0.8,2.5,1.5,3.8,2.3c3,1.9,5.9,3.3,9.4,4.1c3.9,0.9,8,0,12,0
		c3.4,0,6.9-0.2,9.9-1.9c1.5-0.8,3.1-1.8,4.5-2.8c0.6-0.4,6.3-3.6,6.7-4"/>
	<path class="st1" d="M125.3,208.7c3.4,0,6.2-0.5,9.5-1.4c2.4-0.7,4.7-1.8,7.2-1.2c1.2,0.3,2.2,0.9,3.4,1.1c1.3,0.2,2.6-0.1,3.8-0.4
		c1.8-0.4,3.7-1.2,5.5-1.4c3-0.3,6.7,0.9,9.3,2.3c2.5,1.4,5.8,2.8,8.5,2.7"/>
	<path class="st1" d="M154.8,181c0.4-1,0.8-2,1-3.2c0.2-1.5,0-3.3,0-4.8c0-0.3,0-1.7,0-0.7"/>
	<path class="st1" d="M78.9,53.2c-3.6,5.3-5.5,14-6.9,20.2c-0.9,3.9-0.7,7.9-1.2,11.9c-0.7,6.5-1.8,13-1.8,19.6"/>
	<path class="st1" d="M67.4,63.1c-0.7,4.1-2.1,8-2.7,12.2c-1.4,8.6-1.5,17.4-1.5,26.1"/>
	<path class="st1" d="M57,79.5c-0.5,8.5-2.2,16.9-2,25.6"/>
	<path class="st1" d="M64,107.1c0,5.8-0.3,11.6-0.2,17.4"/>
	<path class="st1" d="M106.9,34.3c-2.6,2.4-4.4,6-6.2,9c-4.3,7.4-9.4,15-11.7,23.3"/>
	<path class="st1" d="M100.7,33.1c-2.3,2.2-4.2,5.3-6.1,7.9c-4.6,6.2-10.7,13.5-13,20.9"/>
	<path class="st1" d="M117.6,27.6c-6.4,10.7-9.3,22.9-11.4,35"/>
	<path class="st1" d="M121.8,25.2c0.1,2.9-0.9,5.8-1.4,8.6c-1.4,8.2-3.9,18.5-2.6,26.8"/>
	<path class="st1" d="M128.7,24.4c0,2.1,0,4.2,0,6.3c0,5.9-1.8,14.8,0.7,20.2"/>
	<path class="st1" d="M135,27.6c0,12.4,0.1,26.5,3.2,38.5"/>
	<path class="st1" d="M139.9,26.6c2.8,5.8,5.4,12.2,7.4,18.4"/>
	<path class="st1" d="M144.6,24.9c2.1,0.7,4.1,3.9,5.4,5.5c4.7,6.3,7,14.2,10.8,21"/>
	<path class="st1" d="M150.8,23.9c2.2,2.4,4.9,4,7,6.6c4.8,5.9,9.9,11.4,11.9,18.9"/>
	<path class="st1" d="M161,27.6c3.8,1.3,7.4,4.3,10.6,6.6c5.3,3.8,10.6,8.4,15.2,13"/>
	<path class="st1" d="M180.9,33.6c10.3,9.3,21.9,19,26.3,32.8"/>
	<path class="st1" d="M176.9,45c1.8,3.3,3.8,6.9,6.5,9.7"/>
	<path class="st1" d="M207.2,74.5c2.1,3.1,2.7,8.3,3.2,11.9c1.3,8.2,1.2,16.5,1.2,24.8"/>
	<path class="st1" d="M213.1,69.8c0.7,3.3,2.3,6.5,3.1,9.8c1.8,7.5,2.4,15,2.3,22.7"/>
	<path class="st1" d="M91,36.6c-1.4,0.7-2.3,2.3-3.4,3.4c-2.5,2.3-4.8,4.6-7.1,7c-1.9,2-4.1,3.6-5.9,5.5c-2.1,2.3-4.1,5.8-5.9,7.6"
		/>
</g>
</svg>
