<?xml version="1.0" encoding="utf-8"?>
<!-- Generator: Adobe Illustrator 21.1.0, SVG Export Plug-In . SVG Version: 6.00 Build 0)  -->
<svg version="1.1" id="Layer_1" xmlns="http://www.w3.org/2000/svg" xmlns:xlink="http://www.w3.org/1999/xlink" x="0px" y="0px"
	 viewBox="0 0 260 344" style="enable-background:new 0 0 260 344;" xml:space="preserve">
<style type="text/css">
	.st0{opacity:0;}
	.st1{fill:#FFFFFF;}
	.st2{fill:none;stroke:#000000;stroke-width:2.0059;}
</style>
<g id="speakers" transform="translate(-715.000000, -254.000000)">
	<g id="shmyrov" transform="translate(133.000000, 234.000000)">
		<g transform="translate(583.000000, 0.000000)">
			<g id="bg" class="st0">
				<rect id="Rectangle-path" x="-1" y="20" class="st1" width="259.9" height="343.9"/>
			</g>
			<g id="Layer_3" transform="translate(0.000000, 20.939130)">
				<g id="Group">
					<g id="Shape">
						<path class="st2" d="M103.2,130.3c0,10.7-4.3,18.6-6.7,28.6"/>
						<path class="st2" d="M109.1,174.4c0.7-3.8,5.7-4,8.3-2.4c2.9,1.7,3.3,5.6,7.6,3.6c6.2-2.9,3.9-13.3,0.1-15.9"/>
						<path class="st2" d="M102,175.3c-3.6-0.6-5.6-3.5-6.3-6.7"/>
						<path class="st2" d="M92.3,161.4c-5.3,4.2-7.4,16.8,2.9,15.5"/>
						<path class="st2" d="M129.2,134.9c6.6-2.7,11.5-4.4,18.8-3.4c4,0.5,19.1,2.7,20.8,0"/>
						<path class="st2" d="M110.4,105.5c-0.2,4.1,0.6,12.6,3.4,14.7"/>
						<path class="st2" d="M102,111.4c0,3.1,0.2,7.2-0.8,9.7"/>
						<path class="st2" d="M123.3,123.6c-1.7-1-3.7-2.3-3.3-4.5c3.5-1.6,7.6-1.8,11.4-2.6c4.8-1,9.5-2.3,14.2-3
							c5.7-0.8,15.8,1.6,21.2,3.5c2.7,0.9,4.9,3.6,6.2,5.5c0.7,1,0,2.3-1.2,2.3c-5.1,0-15.8-2.8-23.1-2.8
							C139.9,121.9,132,123.2,123.3,123.6z"/>
						<path class="st2" d="M96.5,122.3c-2.8-3.8-24.1-9.5-31.9-3.3c-0.8,2.4-0.6,5.3-0.4,7.8c5.5,0.9,12.3-2.9,18.2-2.9
							C85,124,99.4,126.3,96.5,122.3z"/>
						<path class="st2" d="M83,176.9c-6.4,4.4-10.7,18.6-8,24.8"/>
						<path class="st2" d="M133.9,166.9c4.8,6.6,8.8,14.5,15.1,20.2"/>
						<path class="st2" d="M84.7,199.2c2.4,4.1,8.4,1.3,11.5-0.3c2.1-1.1,3.7-2.5,6.2-2.2c1.8,0.2,3.5,2.7,5.1,2.6
							c1.3-0.1,2.9-2.7,5-3c2.4-0.3,3.9,0.5,5.9,1.3c4.3,1.6,7.3,3.6,12,3.8c5.4,0.2,9.3-0.8,13.3,3.2c-0.3-0.2-0.6-0.5-0.9-0.7"/>
						<path class="st2" d="M63.8,124c-3-4.8-0.8-12.4-0.6-17.7c0.3-6.8-0.3-11.8,0.2-18.5c0.5-6.1-1.6-11.3-2.6-16.8
							c-0.8-4.4,2.7-11.8,4.7-15.5c3.4-6.1,7-11.9,13.6-13.5c-4.2,1-7.5,1.4-11.6,0.4c4.7,1.2,8.4-4.5,12.6-7.5s7.6-4,12.6-4.2
							c9.8-0.3,15.2-7.9,24.3-9.3c9.2-1.4,19.5,0.6,27.8,4.6c4.8,2.3,9.4,2.3,14.3,4.1c4.9,1.8,10.1,4.5,14.6,7.3
							c6.5,4,10.6,8.3,15.6,14.1c5.1,5.9,11.5,9.8,14.8,17.5c1.6,3.6,4.3,8.3,5.2,12.1c0.7,3.3-0.3,7.6-0.1,10.9
							c0.4,8.9-1.7,17-1,25.7c0.3,3.3,0.2,6.7,0,10c-0.3,3.8-0.8,4.6-3.9,7.1c-2.9,2.4-3.8,3.3-4.6,6.7c-0.5,2.1-0.5,4.9-1.4,6.9
							c-0.3,0.7-1.4,0.8-1.7,0c-2.8-5.4-3.5-11.1-4.8-17.3c-1.4-6.6-2.7-13.5-6.6-19.1c-1.5-2.1-3.7-3.2-4.7-5.5
							c-1.3-2.9-0.3-7.3,0.5-10.3c2.1-7.2,1.1-8.9-3.9-14.5c-4.8-5.4-8.8-14.4-8.4-21.9c0.3-5.2-4.2-3.2-7.6-3.8
							c-3.8-0.6-6.6-2.6-10.3-3.2c-12.2-1.9-6.3,18.7-5.4,19.4c-2.6-2.3-5.4-6.3-6.2-10.6c-0.6-2.8-0.7-12.4-3.7-8.6
							c-2.7,3.6-7.2,8.3-7.6,10.8c0.9-5.4-0.5-9.9-6.8-9.2c-6.8,0.8-9.1,7.3-14.4,10.3c-4.1,2.3-8.9-4.7-14.3-5.2
							c-6.1-0.7-8.1,2.6-11.4,6.9c-2.9,3.8-6.3,5.3-8.4,8.7c-7.1,11.1-3.1,27-7.1,39.5c-3.2,10.3,0,19.6-2.2,30.3
							c-3,14.8-1.3,27.4,1.7,42c1.6,7.8,3.7,14.8,6.6,22.3c2.6,6.9,5.7,11.1,8.8,17.7c2.8,5.9,6.5,11.9,11.1,16.6
							c3.6,3.6,14.2,7,18.3,7.6c7.1,1.1,15.7-1.4,22.1-3.1c8.2-2.2,16.7-7.8,23-13.2c8.3-7,16.5-15.6,24-23.4
							c10.6-11,14.4-28.2,20-45.1"/>
						<path class="st2" d="M136.8,201.7c-7.2,0-16.3,2.1-24.4,1.7c-6.5-0.3-17.1-0.1-23.1-1.7c4.3,6.1,6.2,10.5,15.1,11.3
							c8.3,0.8,16,0.3,23.2-4.4c3.5-2.3,7.4-6.9,12.6-6.5"/>
						<path class="st2" d="M206.7,132.8c10.3-3.8,12.5,10.1,9.3,17.4c-2,4.7-3.7,9.6-4.9,14.6c-1.2,4.9-1.5,11.4-4.7,15.2
							c-3.5,4.3-8.9,5.7-11.9,0.3"/>
						<path class="st2" d="M202.4,145c-0.1-3.1,4.4-6.7,7.4-6.3c4.1,0.5,3.2,4.7,3.2,8"/>
						<path class="st2" d="M129.2,129.9c6.9-2.4,10.4-2.2,17.3-0.8c5.6,1.1,13-0.2,17.7,0.4"/>
						<path class="st2" d="M67.5,137.1c7.2-8.9,22.2-11.1,29.1-1.2c0.3,0.4,0.1,0.9-0.4,1.1c-2,0.5-4.1,0.3-6.2,0.5
							c-2.9,0.3-5.8,0.9-8.7,1.3c-4.9,0.7-8.9,0.4-13.2-0.2C67.4,138.4,67.1,137.6,67.5,137.1z"/>
						<path class="st2" d="M88.1,240c-3.4,9.1,1.9,20.2,6,28.1c2.8,5.4,7.4,9.5,10.7,14.6c3.2,5.1,5.3,10.7,8.7,15.6
							c2.8,4.2,6.6,7.5,9.6,11.4c-4.1,0.4-7.7-1.1-12.1-0.2c-4.8,0.9-8,3.6-12.3,5.9c-6.2,3.3-11.5,4.7-17.6,8"/>
						<path class="st2" d="M185.2,203.4c-1.6,12.6-2.1,24.8-2.1,37.2c0,5.2,0.7,10.3,0.4,15.5c-0.3,6.2-4,11.2-7.6,16.3
							c-7.9,11.4-14.5,24.8-25,34c-3.3,2.9-9.1,5.8-13.5,5.9c-5.4,0.1-5.7-2.7-9.1,2.5c-4.1,6.2-7.4,13.2-10.6,19.8
							c-1.9,4-2.5,3.8-3.9,7.5"/>
						<path class="st2" d="M82.8,232.1c0.3,4.1-0.9,7.4-1.8,11.3c-1.1,4.7-1.4,9.5-2.2,14.2c-1.4,8.7-1.3,16.9-1.3,25.6
							c0.2,16.9,3.1,33.1,3.8,50c0.2,5.2-0.2,5-0.6,8.8"/>
						<path class="st2" d="M73.3,213.8c-0.2,3-5.1,7.8-7,10.2c-4.8,5.8-10.6,9.6-16.7,13.8c-7,4.8-14.6,8.2-21.6,13
							c-4.7,3.2-8.8,7.1-13.3,10.4c-2.4,1.8-6.9,2.8-8.2,5.5c-1,2.2,0.3,6.5,0.4,8.8c0.2,4.5,0.7,8.4,1.8,12.8
							c1.6,6.2,4.1,13.2,7.4,18.7c1.2,2,2.7,4.2,4.2,5.9c0.9,1,3.4,2.4,4,3.6c1,1.9,0,5.5,0.3,7.6c0.4,3.7,3,14.3,3.7,18"/>
						<path class="st2" d="M184.6,209c3.8,3.9,10.8,11,14.9,16.1c5.9,7.5,12.1,14.5,17.7,22.3c4.5,6.3,11.2,10.4,17.3,14.9
							c3,2.2,9.3,6.6,12.1,9"/>
						<path class="st2" d="M183.1,236.4c0.3,11.4,1.2,21,4,30.5c3.5,11.5,9.6,22.6,15,33.3c4.5,9,12.7,14.3,20.6,19.9
							c4.5,3.2,13.8,8.1,16.3,13.2c1.7,3.3-0.7,4.6-2.8,8.7"/>
						<path class="st2" d="M221.8,320.2c-6.3,6.2-10.9,14.3-15,22.4"/>
						<path class="st2" d="M24.5,316c3.5-0.5,11.2-6.7,14.7-8.8c7-4.2,13.3-9.2,18.9-15.2c8.3-9,13.5-20.1,20.1-30"/>
						<path class="st2" d="M123.6,310.3c0,5-0.6,11.6-2,16.2"/>
						<path class="st2" d="M143.5,310.9c1.3,1.8,4.2,2.2,6.4,3.8c3.1,2.2,5.7,5.1,8.8,7.2s6.7,4.5,10,6.3c1.5,0.8,2.9,1.5,4.8,2.2"
							/>
						<path class="st2" d="M187.7,268.8c0.1,2.9,1.1,4.8-0.3,8.1c-2.4,5.8-3.6,11.9-5.2,17.9c-2.2,8.5-5.7,17.3-6.8,25.9
							c-0.9,7.2-2.1,14.8-3.4,22"/>
						<path class="st2" d="M81,129.5c-4.3,3.1-2.4,8.5,2.5,8.4c5-0.1,8.5-6.5,2.6-8.5"/>
						<path class="st2" d="M183.9,217.1c5,4.8,9.5,11.6,14.3,16.8c6.5,7.1,12.8,14.4,19.4,21.4c5.9,6.3,11.8,12.9,19.2,17.7
							c3.3,2.2,6.9,5.2,9.2,6.5"/>
						<path class="st2" d="M219.5,250.3c6.2,2,19.6,1.9,26.2,3.6"/>
						<path class="st2" d="M201.3,163.6c0.6,3.9,4.1,1.4,5.3-0.5c1.6-2.6,3.3-6.4,3.8-9.3"/>
					</g>
					<path id="Shape_1_" class="st2" d="M138.7,318.8c-0.3-1.8-4.7-1.8-5.8-1c-2.3,1.6-1.1,6.7,1.2,7.6c0.9,0.4,2,0.3,2.9,0.4
						c0.9,0,3.1,0.4,3.9-0.4c0.6-0.6,0.6-2.2,0.5-3c-0.2-1.3-1.4-3.7-2.8-4"/>
					<path id="Shape_2_" class="st2" d="M75.8,220.8c-1.4,0.8-2.6,4-3.8,5.4c-1.9,2.2-3.7,4.7-5.9,6.7c-5.8,5.3-11.9,10.4-18.1,15.1
						c-6.7,5.2-14.2,9.2-21.4,13.7c-4.8,3.1-9.6,6.2-14.5,9.1c-1.8,1-3.6,3.1-4.9,3.8"/>
				</g>
			</g>
		</g>
	</g>
</g>
</svg>
