<?xml version="1.0" encoding="utf-8"?>
<!-- Generator: Adobe Illustrator 21.1.0, SVG Export Plug-In . SVG Version: 6.00 Build 0)  -->
<svg version="1.1" xmlns="http://www.w3.org/2000/svg" xmlns:xlink="http://www.w3.org/1999/xlink" x="0px" y="0px"
	 viewBox="0 0 260 344" style="enable-background:new 0 0 260 344;" xml:space="preserve">
<style type="text/css">
	.st0{opacity:0;}
	.st1{fill:none;stroke:#000000;stroke-width:2;stroke-miterlimit:10;}
</style>
<g id="Layer_3">
	<rect class="st0" width="260" height="344"/>
</g>
<g id="Layer_2">
	<path class="st1" d="M65.8,204.4c1.4,3,8.6,15.3,10.6,18c2.3,3.1,4,6.4,6.5,9.3c5.3,6.4,10.8,12.3,17.7,17
		c7.8,5.4,15.7,8.6,25.4,8.6c4.5,0,8.8-0.3,12.9-2.2c4.9-2.3,9.1-5.6,13.9-8c4.4-2.2,8.5-7.2,12.4-10.2c2.3-1.8,8.7-10.7,8.7-14.7"
		/>
	<path class="st1" d="M75.9,140.9c2.7-2.4,3.8-5.1,7.5-6.5c3.3-1.3,7.7-2.3,11.1-1.9c5.5,0.8,12,5.9,14.7,10.6
		c-5.1,2.2-10.5,2.7-16.2,2.7C88.8,145.7,78.1,145.5,75.9,140.9z"/>
	<path class="st1" d="M141.1,143c4.3-5.1,12.8-9.7,19.6-7.8c4.7,1.4,9.6,3.9,12.6,7.7c-5.2,3.6-12.6,3.9-18.8,3.3
		C150.7,145.8,144.8,143.2,141.1,143z"/>
	<path class="st1" d="M72.7,120.5c6.4-3.8,10.5-5.8,18.2-6c8.6-0.3,14.1,2.1,19,8.7c0.3,0.5,0.2,1.1-0.4,1.4c-2.6,1.3-6,0.5-8.6,0.5
		c-2.6,0-4.7-2.6-7.4-3.4c-3.1-0.9-6.6-1.2-9.8-1.2c-4.2,0-8.2,1-11.5,3.2"/>
	<path class="st1" d="M177.3,123.4c-7.7-5.6-16-5-25.3-3.8c-3.5,0.4-8.8,0.4-11.4,3.2c-2.9,3.1,1.9,6.5,5.4,6.2
		c6.6-0.4,11.4-4.7,18.3-5.1c5.6-0.3,10.3,0.6,13.4,4.8"/>
	<path class="st1" d="M106.6,171.1c-3.4,2.2-5,10.7-0.7,12.6c2.5,1.2,4.3,0.1,6.6-0.8c2.1-0.8,3.3,0.3,4.8,1.7
		c3.7,3.5,7.7,5.8,11.9,1.7c1.4-1.4,2.5-2.1,4.6-2.2c3-0.2,5.4,1.3,8.3-0.4c2.8-1.6,2.5-5.2,1.8-7.8c-0.6-2.2-1.8-7.1-4.2-8"/>
	<path class="st1" d="M113.6,137.6c2.7,2.1,2.5,7,1.5,9.9c0.1-0.1,0.2-0.1,0.3-0.2"/>
	<path class="st1" d="M136.7,138.2c-3.3,2.9-3.3,7.1-0.9,10.5"/>
	<path class="st1" d="M96.1,204.4c2.6,2.5,7.3,2.9,10.6,3.4c3.8,0.6,7.6,1.1,11.4,1.5c3.1,0.3,6,1,9.1,0.5c3.7-0.5,7.5-0.6,11.1-1.2
		c2.7-0.4,5.2-1,7.9-1.6c2.3-0.5,4.8-1.7,7.2-1.7"/>
	<path class="st1" d="M153.5,205.3c-4.3-0.4-10.4-1.2-14.8-1.6c-3.3-0.3-6.3-0.3-9.5,0.6c-1.5,0.4-2.9,0.8-4.4,0.5
		c-1.9-0.3-3.6-1.2-5.5-1.4c-6.9-0.9-13.5,2.3-20.3,2.3c4,6.5,13.1,13.6,20.8,15c4.4,0.8,9.2,1.1,13.6-0.2c4.9-1.5,9.6-4.9,13.3-8.3
		C147.6,211.5,152.9,206.5,153.5,205.3"/>
	<path class="st1" d="M85.3,234.1c1.3,5.5,0.2,11.6,0,17.3c-0.2,5.6-0.3,15-0.3,19.8"/>
	<path class="st1" d="M91.5,132.5c-3.3,3.3-2.9,10,2.5,10.7c2.5,0.3,5-1,6.3-3.2c1-1.6,0.7-3.3,0.7-4.8"/>
	<path class="st1" d="M155,134.8c-1.6,1.4-2.4,4.4-2.1,6.5c0.3,2.4,2.1,3.6,4.6,3.7c4.1,0.3,7.7-4.4,6.3-8.3"/>
	<path class="st1" d="M125.4,60.8c-12.6-11.5-32.8-1.3-40.8,10.4c-9.9,14.4-10.4,37-12.4,53.8c-2.4,19.8-6.5,39.7-7.4,59.7
		c-0.9,19.4,4.5,36.9,7.5,55.9c2.9,18.7,1.9,37.4,2.8,56.3c0.6,11.7,1.2,34.4,1.3,46.2"/>
	<path class="st1" d="M110.7,262.3c3.1,8,3.7,19.4,3.7,27.9"/>
	<path class="st1" d="M132.7,61.7c5.9-5.7,25.7,14.5,29.6,18.3c12.9,12.9,14.4,31.8,15.3,49.1c1,18.4,0.2,37.4-1.3,55.8
		c-2.2,25-2.4,50.1-4.7,75.1c-2.7,28-4.9,55.1-4.9,83.3"/>
	<path class="st1" d="M126.8,53.8c-12.2-7.1-30-3.5-40.8,4c-7.2,5-9.7,11.7-13.8,19.1c-4.6,8.4-8.1,17.2-10,26.6
		c-5.3,26-5,54.9-3.7,81.2c1.5,28.8,7,57.5,6.9,86.4c-0.1,29.3,3.2,41.5-0.2,72.4"/>
	<path class="st1" d="M70.7,231.5c1.6,9,8,22.7,10.2,29c3.6,10,8.1,19.1,9.4,29.7c1.5,12.4,0.9,24.9,1.5,37.3
		c0.3,4.5,0.3,9,0.5,13.5"/>
	<path class="st1" d="M131.8,54.4c9.1-2.8,23.3,4.9,28.1,12.5c3.8,5.9,8.8,10.5,12.6,16.3c4.2,6.5,6.5,14.4,8.9,21.8
		c8.4,25.4,4.4,55.3,1.9,81.5c-2.6,27.8-2,56.1-3.2,84c-1.1,27.5,0.7,44,0.7,71.5"/>
	<path class="st1" d="M126.8,48c-9.4-5.5-20.4-3.6-31.4,0.2c-16.5,5.7-27.3,20.7-33.2,36.5c-7.7,20.5-10.6,40-10.5,61.9
		c0.1,13.9,1.5,27.9,2.2,41.8c1,18.7-0.2,37.6-0.8,56.3c-0.7,21-0.3,42.2,0,63.3c0.1,13.9,2.7,22-1.4,35.4"/>
	<path class="st1" d="M131.8,48.4c3.9,0,12.9,1.1,16.5,3.1c4.9,2.7,9.2,7.2,13.3,11.1c11,10.7,21.4,21,26.1,36.1
		c7.3,23.2,6.3,48.3,5.5,72.2c-1,29.8-2.3,59.6-2.3,89.4c0,17-0.1,34,0,50.9c0,8.7,0.7,23.3,1.2,32"/>
	<path class="st1" d="M130,42.4c-6.8-9.6-30.2-4.6-38.6-0.5C77.5,48.7,65,63.1,59.1,77.4c-9.1,21.8-13,47.4-14.4,70.9
		c-0.9,15.5-0.7,31.1-1.7,46.7c-1.1,17.2-2.3,34.4-2.3,51.6c0,20.5,0.6,41.1-0.7,61.5c-0.6,10.3-2.2,24.5-3.1,34.7"/>
	<path class="st1" d="M134.1,42.9c8.8-6.4,24.9,8.8,30.8,13.4c13.1,10.1,23.5,24,30.2,39.1c5.2,11.8,4,24.7,4.6,37.3
		c0.8,16.2-0.2,32.3-0.1,48.5c0.1,27.3,2.9,55.3,7.3,82.3c2.5,15.2,4.9,30.1,5.5,45.5c0.3,8.4,0.5,25.8,0.5,34.2"/>
	<path class="st1" d="M129,36.5c-6.5-17.5-24-10.1-35.6-1.9C77.5,45.7,64.9,58,56.1,75.6c-11.2,22.5-14.7,49.1-15.9,73.9
		c-1.6,33.3-5.9,66.4-5.9,99.9c0,20.7-0.5,41.3-2.2,61.9c-0.6,7.4-1.1,24.8-1.6,32.3"/>
	<path class="st1" d="M134.1,36.9c12.9-5.6,26.5,4.1,34.6,10.2c11.4,8.5,21,24.9,27.5,37.4c11.8,22.7,9,50.1,11.4,75.2
		c1.6,16.9,3.8,33.6,5.7,50.4c2.1,18.2,6.9,35.7,9.5,53.8c2.3,16,2.7,32.7,3.6,48.8c0.8,12.7,3.1,19.5,3.7,30.9"/>
	<path class="st1" d="M129,36.5c2-5.1,15.3-9,20-8.2c7.9,1.5,14.7,8.2,21.2,12.5c18.5,12.1,34.1,33.4,41.4,54
		c12.2,34,16.7,71.5,22.2,107.1c4.4,28.4,11.3,55.6,13.3,84.3c0.9,12.8,1.7,25.6,3.8,38.3c0.9,5.8,2.1,11.7,3.7,17.5"/>
	<path class="st1" d="M32.9,301.6c-4.6,2.9-12.5,5.8-17.7,9.6c-4.4,3.3-11.3,4.8-14.1,9.5"/>
	<path class="st1" d="M247.9,296.5c6.7,2,2.9,1.6,10.7,4"/>
</g>
</svg>
