<?xml version="1.0" encoding="utf-8"?>
<!-- Generator: Adobe Illustrator 19.1.0, SVG Export Plug-In . SVG Version: 6.00 Build 0)  -->
<svg version="1.1" id="Layer_1" xmlns="http://www.w3.org/2000/svg" xmlns:xlink="http://www.w3.org/1999/xlink" x="0px" y="0px"
	 viewBox="0 0 595.3 841.9" style="enable-background:new 0 0 595.3 841.9;" xml:space="preserve">
<style type="text/css">
	.st0{fill:#F4F4F4;}
	.st1{fill:#4A494A;}
	.st2{fill-rule:evenodd;clip-rule:evenodd;fill:#FFFFFF;}
	.st3{fill:#FFFEFE;}
</style>
<circle class="st0" cx="299.8" cy="402.4" r="235.3"/>
<circle class="st1" cx="319.5" cy="437.8" r="158.4"/>
<g>
	<path class="st1" d="M270.7,603.2c0.7-2.2,1.4-4.3,2.3-7.3c1.7-5.5,1.4-10-0.9-13.4c-1.8-2.7-4.8-4.4-8.3-4.7c-0.5,0-1-0.1-1.4-0.1
		c-2.1,0-4.2,0.4-6.3,1.2c-1.2-1.1-3.1-2.2-5.9-2.6c-0.6-0.1-1.2-0.1-1.9-0.1c-2,0-3.8,0.4-5.5,0.9l-0.3-0.3l-3.4,1.9l-0.8,0.5
		c-0.5,0.3-0.9,0.5-1.3,0.8c-2.3-4.2-6.1-6.8-11.5-7.8c-1.1-0.2-2.3-0.3-3.5-0.3c-12.7,0-23.3,12.3-25.8,23.6
		c-1.2,5.3-0.4,10.3,2.1,14.2c2.3,3.6,6.1,6,10.8,7c1.2,0.2,2.4,0.4,3.6,0.4c4.8,0,10.2-1.9,14.8-5.2l-0.2,0.5l-1.3,3.3l2.8,2.3
		l0.7,0.6c1.7,1.4,4,2.4,6.4,2.7c0.7,0.1,1.4,0.1,2.1,0.1c4.2,0,7.8-1.8,9.9-4.9c0.3,0.7,0.6,1.2,0.9,1.7c2.1,3.3,5.9,5.4,10.5,5.8
		c0.4,0,0.9,0.1,1.4,0.1c7.3,0,15.5-4.8,16-12.7C276.9,607.4,274.5,604.2,270.7,603.2z M218.2,597.1c-0.2,0.3-0.3,0.5-0.5,0.8
		c0.1-0.3,0.2-0.7,0.2-1C218,597,218.1,597.1,218.2,597.1z"/>
	<path class="st1" d="M408.4,578.8c-1.2-5.3-5.6-9-10.8-9c-0.8,0-1.7,0.1-2.5,0.3c-2.1,0.4-3.9,1.3-5.5,2.5c-0.9-0.3-2-0.6-3.3-0.6
		c-0.7,0-1.5,0.1-2.3,0.2c-3.4,0.6-6,2.2-8,4l-0.4-0.2l-0.8-0.3c-1.4-0.6-3.1-1-4.8-1c-0.6,0-1.3,0-1.9,0.1
		c-3.8,0.6-6.8,2.5-8.6,5.3c-0.1-0.1-0.1-0.2-0.2-0.3c-1.7-1.9-4.2-2.9-7-2.9c-0.5,0-0.9,0-1.4,0.1c-2.7,0.3-5,1.3-7,2.5l-0.4-0.3
		l-2.9,2.7l-0.7,0.7c-0.4,0.4-0.7,0.7-1.1,1.1c-3-3.3-6.9-5-11.7-5c-0.4,0-0.8,0-1.2,0c-3.7,0.2-7.1,1.5-10.1,3.5l-0.4-2.4l-2.6,0
		c0.1-0.4,0.2-0.9,0.3-1.4l0.2-0.8l0.7-3.3l-2.8-1.8l-0.7-0.5c-1.8-1.2-4.2-1.9-6.5-1.9c-5.8,0-10.4,3.5-11.7,8.9
		c-0.1,0.5-0.2,1-0.3,1.4c-1.3,0.5-2.4,1.3-3.3,2.3c-1.8,2.1-2.6,4.8-2.2,7.7l0.1,1l0.6,4.1l1.1,0c-1,3.9-1.8,7.4-3.2,12.6
		c-1.4,5.5-0.9,10,1.6,13.2c1.5,2,4.4,4.4,9.7,4.4l0,0l0,0l0.2,0c4.5,0,8.8-1.6,12.3-3.8c2.8,2.3,6.4,3.6,10.4,3.6
		c0.2,0,0.5,0,0.7,0c5.8-0.2,11.8-3.3,16.5-8.5c0.9-1,1.6-1.9,2.4-3c0.5,1.8,1.4,3.6,2.7,5.1c2.4,2.8,5.8,4.3,9.8,4.3
		c0.6,0,1.2,0,1.8-0.1c2.4-0.2,5.5-1.2,8.6-3.9c1.9,1.3,4.3,1.9,6.9,1.9c0.7,0,1.5-0.1,2.3-0.2c2.3-0.3,4.5-1.2,6.6-2.4
		c1.2,0.4,2.6,0.7,4,0.7c0.8,0,1.5-0.1,2.3-0.2c6.1-1,10.2-5.3,10.5-10.9l0-0.1l0-0.1c0.1-1.7,0.1-2.5,0.1-4.1
		c0.3-5,0.7-8.4,1.2-10.6c0.3,0,0.7,0,1,0c1.1,0,2.2-0.2,2.9-0.3c3-0.6,5.6-2.4,7.2-5C408.6,585.8,409.2,582.2,408.4,578.8z
		 M324.4,604.7c-0.1,0.3-0.2,0.5-0.3,0.8c0-0.3,0-0.6,0-0.9C324.3,604.6,324.4,604.7,324.4,604.7z"/>
</g>
<path class="st1" d="M299.7,186.6c-119.2,0-215.8,96.6-215.8,215.8s96.6,215.8,215.8,215.8s215.8-96.6,215.8-215.8
	S418.9,186.6,299.7,186.6z M299.7,609.6c-114.5,0-207.3-92.8-207.3-207.3s92.8-207.3,207.3-207.3s207.3,92.8,207.3,207.3
	S414.1,609.6,299.7,609.6z"/>
<g>
	<path class="st1" d="M484.2,261.8l-0.6-4.2l-1.2-4.4l-1.8-4.3l-2.4-4.1l-0.2-0.2l0.7-3.7l0.4-4.8l-0.2-4.5l-0.3-1.3l0.2-0.3
		l1.4-3.3l1.1-3.4l0.6-3.3l0.3-3.1l-0.1-3.6l-0.5-3.9l-1-3.8l-1.5-3.5l-1.8-3.3l-2-2.9l-2.3-2.7l-2.1-1.9l-1.9-1.6l-2.4-1.7
		l-3.1-1.9l-2.9-1.3l-3-1l-2.5-0.6l-3-0.5l-3.7-0.4l-2.7,0.1l-3.4,0.3l-2.6,0.5l-3.6,0.9l-3,1.2l-2.8,1.4l-2.1,1.3l-3.1,2.2
		l-2.1,1.9l-2.6,2.7l-2.3,3l-0.5,0.9c-9.4-5.6-21.1-7.6-32-6.5l-0.6-1.4l-1.6-2.7l-1.8-2.6l-2.2-2.6l-2.7-2.6l-3.1-2.3l-3.5-2
		l-3.6-1.5l-3.6-1.1l-3.5-0.6l-3.4-0.3l-3.4,0.1l-3.4,0.4l-3.5,0.8l-2.5,0.9c-5.5-2.5-11.1-3-18-1.8l-0.8,0.1l-0.8,0.2
		c-1.4,0.4-2.8,0.9-4.2,1.5c-5.6-2.9-12.5-3.9-20-2.5l-0.9,0.2l-2.8,0.9l-3.2,1.2l-4.4,2.2l-2.5,1.5l-2,1.3l-2.2,1.7l-2,1.7
		l-1.9,1.7l-0.4-0.9l-1.3-2.4l-1.7-2.7l-1.9-2.8l-1.9-2.2l-2.2-2.2l-2.3-2.2l-2.2-1.8l-2.2-1.6l-2.3-1.5l-1.9-1.2l-2.3-1.2l-2-1
		l-4.8-2.1l-4.3-1.4l-4.4-1.2l-2.6-0.5l-4.6-0.6l-2.3-0.3l-4.7-0.3l-4.7,0l-2.7,0.1l-4.7,0.5l-2.7,0.4l-4.6,1l-2.6,0.7l-2.5,0.8
		l-2.2,0.8l-2.1,0.9l-2.5,1.2l-2.1,1.1l-4.3,2.6l-2.6,1.9l-2.2,1.8l-2.1,1.9l-2.5,2.5l-1.8,2.1l-1.8,2.3l-1.7,2.6l-1.5,2.5l-1.4,2.9
		l-1.1,2.7l-1,3.1l-0.8,2.7l-0.7,2.8l-0.2,1.4l-1.1-0.6l-5.7-1.6l-4.9-0.5l-3.4,0.1l-3.2,0.4l-3.2,0.8l-2.9,1.1l-1.8,0.9l-1.3-0.2
		l-4.3-0.4l-3,0.1l-2.9,0.2l-3.9,0.5l-3.5,0.8l-2.9,0.9l-3.9,1.6l-3.3,1.7l-3.2,2.1l-3.3,2.7l-3.1,3.2l-2.8,3.8l-2.1,3.9l-1.8,4.1
		l-1,3.6l-0.9,4.5l-0.3,4.1l0.1,2.8l0.3,3.1l0.6,3.9l0.9,2.9l1.4,3.7l1.6,3.1l1.8,3l1.7,2.3l2.5,2.9l2.9,2.7l0.4,0.2l0.1,2.3
		l0.6,3.9l1.2,3.5l1.4,3l1.7,2.7l1.4,1.8l2,2.2l1.4,1.3l2.1,1.8l1.5,1l1.7,1l2.3,1.3l2.1,0.8l3.1,1l2.5,0.4l4.6,0.5l5.7-0.8l2-0.6
		l0.5,0.1l2,0.3l3.8,0.4l0.7,0l1.2,0.1l0.9,0l0.8,0.1l3,0l0.7,0l2.9,0.8l2.5,0.4l3.1,0.2l1.8-0.1l-1.6,2.6l-1.2,2.3l-1,2.4l-0.7,1.8
		l-0.7,2l-0.7,2.4l-0.5,1.9l-0.4,2.5l-0.3,1.9l-0.2,2.1l-0.2,2.4l0,2.5l0.1,2.7l0.3,2.7l0.5,3.1l0.6,2.8l0.7,2.7l1.1,3l1.1,2.6
		l1.3,2.6l1.7,3l1.6,2.2l1.5,2l2,2.3l2.2,2.2l2.3,2.1l3.6,2.8l2.2,1.5l2.1,1.3l2.1,1.1l2.1,1.1l2,0.9l2.5,1l2.2,0.8l2.5,0.7l2.1,0.6
		l2.3,0.5l5,0.9l4.3,0.4l2.7,0.1l2.4,0l2.3-0.1l4.6-0.4l3-0.4l2.3-0.4l4.9-1.3l2.6-0.9l2.3-0.9l2.8-1.2l4.6-2.5l3.9-2.6l2.1-1.6
		l4.3-3.8l3-3.4l2.2,0.4l2.5,0.3l2.8,0.2l2.5-0.1l3-0.2l2.7-0.4l2.7-0.6l2.6-0.7l2.7-0.9l1.5-0.6l1.4,0.6l2.1,0.7l2.1,0.6l2.4,0.6
		l2.1,0.4l2.5,0.3l2.4,0.2l3,0.1l1.3,2.5l1.4,2.1l2.7,3.3l1.7,1.6l2.3,2l2.7,1.9l3,1.6l3.5,1.4l3.9,0.9l4.5,0.4l5.2-0.4l4.7-1.2
		l3.7-1.5l2.5-1.3l2.8-1.6l2.3-1.6l2.2-1.6l2-1.6l4.1-3.5l2.2-2.2l0.5-0.5l4.4-1.4l3.7-1.7l1,0.5l2.6,1.2l2.1,0.8l2,0.6l2.5,0.7
		l2.2,0.5l2.4,0.4l2.5,0.3l2.5,0.2l2.4,0l3.1-0.2l2.9-0.3l2.5-0.5l2.6-0.6l0.7-0.2l1.7,1l5.4,1.9l5.7,0.8l4.8-0.3l4.1-0.7l1.2-0.4
		l2.3,0.1l3.5-0.1l3-0.3l4-0.7l3.6-1l3.6-1.3l3.3-1.7l3.2-2l3.2-2.5l2.4-2.4l3-3.4l2.4-3.6l1.9-3.6l1.5-3.8l1.1-3.9l0.7-3.9l0.3-4
		l-0.2-4.3l-0.7-4.7l-0.6-1.8l0.2-0.8l0.5-4.9l0-3.4l-0.2-2.4l-0.3-1.8l4-3.6l3.5-4.3l3.1-4.9l2.2-5.5l1.4-5.5l0.5-5.4L484.2,261.8z
		"/>
	<g>
		<path class="st2" d="M158.4,209.4l3.1,0.9l3.1,1.6l2.7,2.4l2,2.9l1.2,3l0.6,2.7l0.2,2.7l-0.1,1.6l1.1,2.4l0.7,2.6l0.1,0.9l0.2,0
			l2,0.7l2,1l1.9,1.2l0.2,0.2l2.2-1.1l2.3-0.8l2.4-0.6l2.4-0.3l2.3,0l2.1,0.2l2,0.3l-1.6-1l-2.5-1.9l-2.1-2.1l-1.8-2.3l-1.5-2.3
			l-1.1-2.1l-1-2.2l-0.8-2.2l-0.7-2.3l-0.5-2.3l-0.3-2.4l-0.2-2.4l0-2.3l0.1-2.2l0.2-2.2l0.3-2.2l0.5-2.1l0.6-2.1l0.7-2.1l0.8-2
			l0.9-2l1.1-1.9l1.2-1.8l1.3-1.7l1.4-1.7l1.6-1.6l1.6-1.5l1.7-1.4l1.8-1.3l1.6-1.1l1.6-1l1.7-0.9l1.7-0.8l1.8-0.7l1.8-0.7l1.8-0.6
			l1.8-0.5l1.9-0.4l1.9-0.4l1.9-0.3l1.9-0.2l2-0.2l2-0.1l2,0l2,0l2,0.1l1.9,0.1l1.9,0.2l1.9,0.3l1.9,0.3l1.9,0.4l1.9,0.5l1.8,0.5
			l1.8,0.6l1.8,0.6l1.7,0.7l1.7,0.7l1.6,0.8l1.6,0.9l1.5,0.9l1.6,1l1.7,1.2l1.7,1.4l1.6,1.5l1.5,1.6l1.4,1.7l1.3,1.8l1.2,1.9l1,1.9
			l0.9,2l0.8,2.1l0.7,2.1l0.5,2.2l0.4,2.1l0.3,2.1l0.1,2.2l0,0.6l1.3-0.1l1.6,0l1.6,0.1l1.6,0.1l1.6,0.2l1.6,0.2l1.6,0.4l1.6,0.4
			l0.7,0.2l0-0.3l0.4-2.8l1-2.8l1.3-2.3l1.4-1.9l1.5-1.6l1.6-1.5l1.6-1.3l1.6-1.2l1.6-1.1l1.6-1l1.7-0.9l1.7-0.8l1.8-0.7l2-0.6
			c6.1-1.1,12.2-0.1,15.8,5.5c3.2-2.2,6.3-3.7,10-4.8c6.4-1.1,10,0.1,14.9,4.2l0.1,0.2l0.9-0.7l1.9-1.3l2-1l2.1-0.7l2.1-0.5l2.1-0.3
			l2-0.1l2,0.2l2.1,0.4l2.1,0.6l2,0.8l2,1.1l1.8,1.4l1.6,1.5l1.3,1.5l1.1,1.6l0.9,1.6l0.8,1.7l0.6,1.8l0.5,1.8l0.3,1.8l0.2,1.8
			l0,1.8l0,1.1c12.1-5.4,31.5-4.2,40.9,5.9l0.5,0.6l0.7-0.5l2.7-1.4l2.8-1.1l2.8-0.9l1.9-0.4l0.6-1.9l0.8-2l1.1-1.9l1.3-1.7l1.4-1.5
			l1.5-1.4l1.5-1.1l1.6-1l1.7-0.8l1.8-0.7l1.9-0.5l1.9-0.4l1.9-0.2l1.9-0.1l1.8,0.2l1.9,0.3l1.9,0.5l1.8,0.6l1.7,0.8l1.6,0.9l1.5,1
			l1.4,1.1l1.4,1.3l1.3,1.5l1.2,1.7l1,1.9l0.8,2l0.6,2.1l0.3,2.2l0,2.1l-0.2,1.8l-0.3,1.8l-0.6,1.9l-0.8,1.8l-1,1.7L466,227
			l-0.7,0.8l0.3,0.8l0.7,2.3l0.5,2.5l0.1,2.6l-0.2,3.2l-0.6,3.1l-1.1,3l-1.3,2.6l1.2,0.9l1.9,1.9l1.7,2.1l1.4,2.4l1.1,2.6l0.7,2.6
			l0.3,2.6l0.1,2.7l-0.4,3.5l-0.9,3.6l-1.4,3.4l-2,3.1l-2.3,2.8l-2.6,2.4l-2.8,2.1l-2.9,1.7l-1.4,0.7l-0.5,0.2l0.5,1.2l0.6,1.6
			l0.5,1.5l0.4,1.6l0.4,1.6l0.3,1.7l0.2,1.7l0,2l-0.3,2.8l-1,3.3l-0.3,0.6l0.9,1.9l0.9,2.8l0.4,2.9l0.1,2.8l-0.2,2.6l-0.4,2.5
			l-0.7,2.5l-1,2.4l-1.2,2.3l-1.5,2.2l-1.7,1.9l-1.8,1.8l-2,1.5l-2.1,1.3l-2.2,1.1l-2.3,0.9l-2.4,0.7l-2.4,0.4l-2.4,0.2l-2.3,0
			l-1.6-0.1l-1.6-0.2l-1-0.2l-0.9,0.4l-2.1,0.7l-2.3,0.4l-2.6,0.1l-3.1-0.4l-2.9-1l-2.5-1.4l-2-1.6l-0.8-0.8l-0.5,0.2l-1.8,0.8
			l-1.8,0.7l-1.9,0.6l-1.9,0.5l-1.9,0.4l-2,0.2l-2,0.2l-2,0l-1.7-0.1l-1.6-0.1l-1.6-0.3l-1.7-0.4l-1.6-0.4l-1.5-0.5l-1.5-0.6
			l-1.5-0.7l-1.5-0.8l-1.4-0.9l-1.4-0.9l-1.3-1l-1.2-1.1l-0.6-0.5l-0.3,0.4l-2.5,2.2l-2.9,1.8l-3.1,1.4l-3.2,1l-3.3,0.5l-0.3,0
			l-0.1,0l-1.4,1.9l-1.5,1.6l-1.6,1.6l-1.7,1.5l-1.8,1.5l-1.8,1.4l-1.8,1.3l-1.8,1.2l-1.9,1l-1.9,1l-2.2,0.9l-2.6,0.7l-2.9,0.2
			l-2.3-0.2l-2-0.5l-1.8-0.7l-1.6-0.9l-1.4-1l-1.2-1l-1.1-1l-0.9-1.1l-0.8-1l-0.7-1.1l-0.6-1.2l-0.6-1.3l-0.5-1.5l-0.4-1.6l-0.2-1.7
			l-0.1-2.1l0.2-1.5l-0.2,0.1l-1.6,0.4l-1.6,0.4l-1.6,0.3l-1.6,0.2l-1.6,0.2l-1.6,0.1l-1.6,0l-1.6,0l-1.6-0.1l-1.6-0.2l-1.6-0.3
			l-1.6-0.4l-1.6-0.5l-1.5-0.5l-1.5-0.6l-1.4-0.7l-1.4-0.8l-1.4-0.9l-0.5-0.4l-0.3,0.2l-2.1,1.2l-1.9,0.9l-1.8,0.7l-1.9,0.6
			l-1.9,0.5l-1.9,0.4l-2,0.3l-2,0.1l-1.9,0.1l-1.7-0.1l-1.6-0.1l-1.6-0.3l-1.6-0.3l-1.6-0.4l-1.6-0.5l-1.5-0.6l-1.5-0.7l-0.7-0.4
			l-0.9,1.8l-1,1.8l-1.1,1.7l-1.2,1.6l-1.3,1.5l-1.4,1.5l-1.5,1.4l-1.5,1.3l-1.5,1.2l-1.6,1.1l-1.6,1.1l-1.7,0.9l-1.7,0.9l-1.8,0.8
			l-1.7,0.7l-1.8,0.6l-1.9,0.5l-1.8,0.5l-1.9,0.4l-1.9,0.3l-1.9,0.2l-1.9,0.2l-2,0.1l-2,0l-1.9-0.1l-1.9-0.2l-1.8-0.2l-1.9-0.3
			l-1.8-0.3l-1.8-0.4l-1.8-0.5l-1.8-0.5l-1.8-0.6l-1.7-0.7l-1.6-0.8l-1.6-0.8l-1.6-0.9l-1.5-0.9l-1.5-1l-1.4-1.1l-1.6-1.2l-1.5-1.4
			l-1.5-1.4l-1.4-1.5l-1.3-1.7l-1.2-1.7l-1-1.8l-0.9-1.9l-0.8-1.9l-0.7-1.9l-0.6-2l-0.5-2l-0.4-2.1l-0.2-2l-0.1-2l0-2.1l0.1-1.6
			l0.1-1.6l0.2-1.5l0.2-1.6l0.4-1.5l0.4-1.5l0.5-1.5l0.6-1.4l0.6-1.4l0.7-1.4l0.8-1.3l0.8-1.3l1-1.3l1-1.2l1.1-1.1l1.1-1.1l1.2-1.1
			l1.2-1l1.3-1l0.1,0l-0.6-1.1l-0.7-1.7l-0.6-1.7l-0.5-1.7l-0.4-1.8l-0.3-1.7l-0.1-1.8l-0.1-1.8l0.1-0.5l-1-0.2l-2.4-0.7l-2.3-1
			l-1.8-1l-2,1.2l-2.8,1.2l-3.1,0.8l-2.9,0.2l-1.6-0.1l-1.2-0.2l-1.2-0.3l-1.2-0.3l-1.2-0.5l-0.1-0.1l-0.4,0l-2.2,0.2l-2.2,0
			l-0.6-0.1l-0.4,0l-0.5,0l-0.6-0.1l-0.7-0.1l-0.8,0l-0.9-0.1l-1.6-0.1l-1.2-0.2l-1.5-0.4l-1.4-0.6l-0.9-0.4l-0.2,0.2l-2,0.9
			l-2.6,0.8l-2.9,0.4l-2.1-0.2l-1.5-0.2l-1.4-0.5l-1.3-0.5l-1.1-0.6l-1-0.6l-1-0.7l-0.9-0.8l-0.9-0.9l-0.9-1l-0.9-1.2l-0.8-1.4
			l-0.7-1.6l-0.6-1.7l-0.3-1.9l-0.1-2l0.2-1.8l0.3-1.5l0.4-1.2l0.4-1.1l0.2-0.5l-0.6-0.2l-2.2-0.9l-2.1-1.2l-2-1.4l-1.7-1.6
			l-1.5-1.7l-1.3-1.7l-1.1-1.9l-1-2l-0.8-2.1l-0.6-2.1l-0.4-2.1l-0.2-2.1l0-2.1l0.2-2.7l0.5-2.6l0.7-2.6l1.1-2.6l1.4-2.5l1.7-2.3
			l2-2l2.1-1.7l2-1.3l2.2-1.1l2.3-0.9l2.3-0.7l2.3-0.5l2.4-0.3l2.3-0.1l2.3,0l1,0.1l0.9,0.1l0.9,0.1l0.9,0.1l0.9,0.1l0.9,0.1l1,0.2
			l0.9,0.2l0.8,0.1l0.7,0.1l0.4,0.1l0.6-0.5l1.1-0.9l1.2-0.8l1.4-0.7l1.5-0.6l1.6-0.4l1.7-0.2l1.8-0.1L158.4,209.4z M146.3,232
			l-0.6,23.2c2.2,0.1,3.3,1.1,3.2,3c0,1.2-1.6,3.2-4.7,6.1c-3.2,2.9-5.3,4.4-6.5,4.4c-0.7,0-1.4-0.4-2.2-1c-0.8-0.6-1.1-1.3-1.1-2
			c0-0.7,0.5-1.9,1.4-3.5c0.9-1.6,1.5-2.7,1.6-3.3c0.5-2.1,0.8-3.9,0.8-5.6c0,1.7,0,0.4,0.1-3.8l0.5-18.6c-1.1-0.4-2.2-0.7-3.4-0.7
			c-5.1-0.1-7.6,1.9-7.7,6.2c0,1,0.2,1.8,0.8,2.5c0.6,0.7,1.3,1.1,2.2,1.1c0.4,0,1-0.1,1.7-0.4c0.7-0.3,1.3-0.5,1.7-0.5
			c0.9,0,1.7,0.4,2.3,1.1c0.6,0.6,0.9,1.4,0.9,2.4c0,1.8-0.8,3.2-2.3,4.2c-1.3,0.9-2.8,1.3-4.7,1.2c-3.1-0.1-5.5-1.3-7.4-3.6
			c-1.8-2.2-2.7-4.9-2.7-7.9c0.1-4.2,1.7-7.4,4.6-9.5c2.6-2,6.1-2.9,10.4-2.7c1.2,0,3,0.2,5.4,0.7c2.4,0.4,4.2,0.7,5.4,0.7
			c1.7,0,3.1-0.3,4.2-1c0.4-0.3,1.2-1,2.4-2.1c0.8-0.8,1.6-1.2,2.5-1.1c2.4,0.1,3.7,1.5,3.8,4.3c0,4.6-2.9,6.8-9,6.6
			C149.2,232.3,147.9,232.2,146.3,232L146.3,232z M433.8,292.1c1.2-2.2,2.8-3.2,4.8-3.2c1.8,0,3.5,1.8,5,5.1c1.3,2.9,2,5.4,1.9,7.6
			c-0.1,2.4-1.6,3.6-4.5,3.5c-1.4,0-3.5-1.2-6.1-3.4s-4.2-3.3-4.8-3.4c-0.9,0-1.8,0.2-2.6,0.8c-0.8,0.6-1.3,1.3-1.3,2.2
			c0,1.4,1.7,2.8,5.2,4.3c5.4,2.2,8.6,3.7,9.7,4.4c3.4,2.3,5.1,5.4,5,9.1c-0.1,3.8-1.5,6.8-4.1,9.1c-2.7,2.3-5.9,3.3-9.8,3.2
			c-2.2-0.1-4.4-0.6-6.3-1.7c-2,2-3.8,3-5.6,2.9c-2-0.1-3.9-1.8-5.8-5.3c-1.7-3.1-2.6-5.8-2.6-8c0.1-3,1.7-4.5,4.9-4.4
			c1.2,0,3.5,1.3,6.8,3.9s5.5,3.9,6.6,3.9c2.9,0.1,4.4-1,4.4-3.3c0-1.8-1.7-3.4-5.3-4.8c-6-2.3-9.3-3.7-10-4.2
			c-3.6-2.1-5.4-4.9-5.3-8.5c0.1-3.5,1.3-6.4,3.6-8.5c2.3-2.2,5.2-3.2,8.7-3.1C428.9,290.4,431.3,291,433.8,292.1L433.8,292.1z
			 M385.7,313.2c0,2.1,0.8,3.8,2.3,5.1c1.5,1.2,3.4,1.9,5.6,1.9c1.6,0,3.6-0.5,6.2-1.7c2.6-1.2,4-1.8,4.4-1.8
			c3.2,0.1,4.8,1.7,4.7,4.8c-0.1,3-2.1,5.4-6,7.2c-3.2,1.5-6.5,2.1-9.9,2c-5.8-0.2-10.4-2.4-13.8-6.7c-3.2-4-4.7-9-4.6-14.9
			c0.1-5.6,1.9-10.3,5.4-14.1s8-5.6,13.5-5.5c4.9,0.1,9,1.7,12.2,4.8c3.2,3.1,4.8,7,4.6,11.9c-0.1,5.6-4.5,8.3-13.1,8
			c-1.2,0-3.2-0.2-5.8-0.5C388.9,313.4,386.9,313.2,385.7,313.2L385.7,313.2z M391.9,306c5.2,0.1,7.8-0.9,7.8-3.1
			c0.1-2.6-1.9-4-5.9-4.1c-2.3-0.1-4.3,0.6-5.9,1.8c-1.6,1.2-2.5,3-2.7,5.2L391.9,306z M344.4,293.4c3.6-3.2,7.2-4.8,10.7-4.7
			c4.9,0.1,8.9,2.4,11.8,7c2.5,4,3.7,8.6,3.5,13.8c-0.1,5.2-1.6,9.8-4.3,13.8c-3.1,4.6-7.1,6.8-12.1,6.7c-2.5-0.1-4.7-0.7-6.5-1.9
			c-2.2-1.4-3.2-3.2-3.1-5.5c0.1-3.2,1.5-4.7,4.3-4.6l1.7,0c0.8,0,1.4,0,1.8,0c2.2,0.1,4-0.9,5.4-2.8c1.3-1.7,2-3.7,2.1-5.9
			c0.1-2.7-0.6-4.8-1.9-6.6c-1.4-2.1-3.4-3.2-5.9-3.2c-2.9-0.1-5.2,1-6.8,3.3c-1.4,1.8-2,4.3-2.1,7.5l-0.5,17.9
			c3.2,0.7,4.8,2.4,4.8,5c0,1.8-2.1,4.3-6.2,7.7c-4.1,3.3-7.1,5-8.9,4.9c-1,0-1.9-0.6-2.9-1.7c-0.9-1.2-1.3-2.2-1.3-3.2
			c0-0.8,0.8-2.4,2.4-4.7c0.6-0.9,1-4.7,1.1-11.4l0.6-22.2l-1,0.2c-1.2,0.2-2.2-0.3-3-1.3c-0.9-1.1-1.3-2.2-1.3-3.3
			c0-1.6,1.8-3.6,5.2-6c3.3-2.4,5.9-3.6,7.6-3.6C341.7,288.4,343.4,290.1,344.4,293.4L344.4,293.4z M305.9,287.4
			c6.1,0.2,10.7,2.1,13.8,5.8c3.1,3.7,4.6,8.7,4.4,14.9c-0.2,6.1-1.9,10.9-5.1,14.5c-3.3,3.8-8,5.6-14,5.4c-6-0.2-10.6-2.2-13.8-6
			c-3.1-3.7-4.5-8.6-4.4-14.6c0.2-5.9,1.9-10.6,5.2-14.3C295.5,289.1,300.2,287.2,305.9,287.4L305.9,287.4z M305.1,318.3
			c5.5,0.1,8.4-3.7,8.6-11.5c0.1-2.7-0.6-5-2.1-7c-1.5-2-3.5-3.1-6.1-3.1c-2.6-0.1-4.7,1-6.2,3.1c-1.4,1.9-2.1,4.2-2.2,6.9
			C297,314.3,299.7,318.1,305.1,318.3L305.1,318.3z M251.3,306.4c0.2-5.9,2.1-10.8,5.8-14.7c3.7-3.8,8.5-5.7,14.4-5.5
			c3.1,0.1,6,0.9,8.8,2.6c3.3,1.9,4.8,4.4,4.8,7.2c0,1.4-0.6,2.6-1.8,3.6s-2.4,1.4-3.8,1.4c-0.4,0-1.7-0.8-4.2-2.5
			c-2.5-1.6-4.4-2.5-5.8-2.6c-2.6-0.1-4.5,1.1-5.9,3.3c-1.1,1.8-1.7,4.1-1.7,6.8c-0.1,2.8,0.5,5.1,1.8,6.9c1.4,2.1,3.5,3.2,6.1,3.2
			c1.4,0,3.5-0.4,6.2-1.5c2.7-1,4.4-1.6,4.8-1.5c1.1,0,2.1,0.6,2.9,1.7c0.9,1.1,1.2,2.2,1.2,3.3c-0.1,2.9-2,5.3-5.6,7.2
			c-3.1,1.6-6.3,2.4-9.5,2.3c-5.8-0.2-10.5-2.4-13.9-6.5C252.6,317.2,251.1,312.3,251.3,306.4L251.3,306.4z M241.2,281.9
			c0,1.4-0.6,2.4-1.6,3.3c-1.1,0.9-2.3,1.2-3.6,1.2c-1.2,0-2.8-1.1-4.9-3.1c-1.4-1.4-2.9-2.9-4.3-4.5c-2.1-1.7-4.5-2.6-7.2-2.7
			c-2-0.1-3.9,0.5-5.5,1.7c-1.5,1.2-2.4,2.8-2.4,4.8c-0.1,2.5,3.4,5.3,10.5,8.2c7.9,3.2,13.4,6,16.4,8.4c6.3,4.9,9.3,12,9.1,21.2
			c-0.2,8.2-3.3,14.7-9.2,19.5c-5.6,4.5-12.5,6.8-20.8,6.5c-8.1-0.2-14.9-2.5-20.4-6.7c-6.2-4.7-9.1-10.9-8.9-18.8
			c0.2-5.7,2.1-10.3,5.8-13.8c3.7-3.5,8.4-5.2,14.1-5.1c2.4,0.1,4.6,0.6,6.4,1.8c2.2,1.3,3.2,3.1,3.1,5.5c-0.1,2.3-1.5,4-4.3,5.1
			c-0.3,0-2.7,0.6-7.3,1.5c-2.7,1.1-4.1,3.4-4.2,6.8c-0.1,4,1.5,7.1,5,9.5c3,2.1,6.5,3.1,10.7,3.3c4.8,0.1,8.8-1.1,12-3.8
			c3.2-2.6,4.9-6.2,5-11c0-0.6,0-1.6-0.1-3c-0.4-4.4-2.2-8-5.6-10.6c-1.9-1.5-5.7-3.5-11.5-6c-5.8-2.5-10.2-4.9-13.2-7.1
			c-4.6-3.5-6.5-8.1-5.7-13.7c0.5-3.6,2.4-6.9,5.7-9.8c3.8-3.3,8.4-4.8,13.9-4.7c1.7,0,4.2,0.5,7.3,1.5c0.4-0.1,1.3-0.7,2.8-1.9
			c1-0.7,2.1-1,3.3-1c2.8,0.1,5.1,2.5,7.2,7.3C240.4,275.8,241.2,279.2,241.2,281.9L241.2,281.9z M239.4,225.4
			c2.5,9.4,6.1,17.5,10.6,24.3c6.2,9.2,13.2,14,20.9,14.2c2.4,0.1,5.9-0.8,10.3-2.5c4.5-1.7,7-2.6,7.7-2.6c2,0.1,3.7,0.7,5.1,2.1
			c1.4,1.3,2.1,3,2,5c-0.1,4.4-2.9,8.1-8.5,10.8c-4.5,2.3-9.3,3.4-14.3,3.2c-12.7-0.3-23.1-6.7-31.1-19.2
			c-6-9.3-10.4-21.4-13.2-36.1l-3.1-0.4l-0.3,10.2c3.7,1.1,5.5,2.8,5.4,5c-0.1,2.4-2.5,6-7.2,10.7c-4.8,4.7-8.4,7-10.8,6.9
			c-1.6,0-2.9-0.6-4-1.7c-1.2-1.1-1.7-2.5-1.7-4c0-0.7,1.2-2.3,3.5-4.9c1.9-2,2.9-6.6,3.1-13.6l0.6-21.9c0-0.9-0.7-2.2-2-3.9
			c-1.4-1.7-2-2.8-2-3.4c0.1-3.4,3.5-5.1,10.3-4.9c5.2,0.1,7.8,1.6,7.7,4.5c0,0.9-0.4,2.2-1.1,4c-0.7,1.8-1.1,3.2-1.2,4.1l-0.1,4.3
			c1.6,0.5,3.1,0.7,4.7,0.8c3.6,0.1,6.7-0.7,9.2-2.3c3-1.9,4.6-4.6,4.6-8.1c0.1-4.5-1.9-8.1-6.1-10.7c-3.5-2.3-7.6-3.5-12.4-3.6
			c-4.9-0.1-9.3,0.7-13.3,2.5c-5,2.3-7.5,5.6-7.7,10c-0.1,2,1,4.6,3.2,8s3.3,5.4,3.3,6.2c0,1.7-0.7,3.2-1.8,4.3
			c-1.2,1.2-2.7,1.8-4.4,1.8c-3.9-0.1-7-2.3-9.3-6.5c-2.1-3.6-3.1-7.4-3-11.6c0.2-8.6,3.7-15.3,10.5-20c6-4.2,13.5-6.1,22.4-5.9
			c8.8,0.2,16.1,2.4,21.8,6.3c6.8,4.6,10,11.1,9.8,19.5c-0.1,5.5-1.8,9.9-5.1,13.2C249.2,222.9,244.9,224.8,239.4,225.4L239.4,225.4
			z M272.4,217.3c6.1,0.2,10.7,2.1,13.8,5.8c3,3.7,4.5,8.7,4.3,14.9c-0.2,6.1-1.9,10.9-5,14.5c-3.4,3.8-8,5.6-14,5.5
			c-6-0.2-10.6-2.2-13.8-6.1c-3.1-3.7-4.6-8.5-4.4-14.6c0.2-5.8,1.9-10.6,5.3-14.3C262.1,219,266.6,217.1,272.4,217.3L272.4,217.3z
			 M271.7,248.2c5.5,0.1,8.3-3.6,8.5-11.4c0.1-2.7-0.6-5-2.1-7c-1.4-2-3.4-3.1-6-3.1c-2.7-0.1-4.7,1-6.2,3.1
			c-1.4,1.9-2.1,4.2-2.2,6.9C263.5,244.2,266.1,248,271.7,248.2L271.7,248.2z M299.8,211.2l-1.4,0.1c-0.9,0-1.7-0.4-2.4-1.3
			c-0.7-0.9-1-1.9-1-2.8c0-1.8,1.7-3.9,5-6.2c3.3-2.4,5.9-3.4,7.8-3.4c2,0.1,3.2,3.7,3.5,11c0,0.5-0.1,5.1-0.3,14l-0.6,24.4
			c0,0.2,0.9,1.2,2.7,2.9c1.9,1.8,2.8,3.2,2.8,4.1c-0.1,3.1-2.7,4.6-7.9,4.4c-0.6,0-1.4-0.1-2.5-0.2c-1.1-0.1-1.9-0.2-2.4-0.2
			c-3.5-0.1-5.6-0.3-6.1-0.4c-2.1-0.6-3.1-2.1-3.1-4.6c0-0.5,0.9-1.5,2.5-3.1c1.7-1.6,2.5-3.5,2.5-5.5L299.8,211.2z M325.6,211.9
			l-1.5,0.1c-0.9,0-1.7-0.4-2.4-1.3c-0.7-0.9-1-1.9-1-2.8c0-1.8,1.7-3.9,5-6.2c3.3-2.4,5.9-3.4,7.8-3.4c2.1,0.1,3.2,3.7,3.5,11
			c0,0.5-0.1,5.1-0.3,14l-0.6,24.4c0,0.2,0.9,1.2,2.8,2.9c1.8,1.8,2.8,3.2,2.8,4.1c-0.1,3.1-2.7,4.6-8,4.4c-0.5,0-1.4-0.1-2.4-0.2
			c-1.1-0.1-1.9-0.2-2.5-0.2c-3.5-0.1-5.6-0.3-6.1-0.4c-2.1-0.6-3.1-2.1-3.1-4.6c0-0.5,0.9-1.5,2.5-3.1c1.7-1.6,2.5-3.5,2.6-5.5
			L325.6,211.9z M357,198.6c2.3,0.1,4.1,1,5.5,2.8c1.3,1.8,1.9,3.9,1.9,6.3c-0.1,2.2-0.8,4.1-2.4,5.7c-1.6,1.6-3.4,2.4-5.6,2.3
			c-2-0.1-3.8-0.9-5.3-2.6c-1.5-1.8-2.1-3.7-2.1-5.7c0.1-2.4,0.8-4.6,2.2-6.3C352.6,199.4,354.6,198.6,357,198.6L357,198.6z
			 M345,254.6c0-1,1.7-2.6,5.2-4.5c0.9-0.7,1.4-5,1.6-13c0.1-3,0-4.6-0.3-4.9l-3.6-0.9c-1.3-0.3-1.9-1.4-1.8-3.1
			c0-1.5,1.8-3.4,5.2-6c3.4-2.5,5.9-3.7,7.5-3.7c1.6,0,2.5,2.5,2.9,7.5c0.1,1.7,0.1,5,0,9.8l-0.3,10.9c0,1.3,0.9,2.9,2.8,5
			c2,2,2.9,3.5,2.9,4.5c-0.1,2.4-2,3.5-5.7,3.4l-8.8-0.2c-2.4-0.1-4.2-0.3-5.1-0.7C345.8,258,345,256.6,345,254.6L345,254.6z
			 M378.3,233.3l-1.2,0.3c-1.2,0-2.3-0.5-3.2-1.3c-1-0.9-1.4-1.9-1.4-3.1c0-1.7,1.7-3.8,4.9-6.3c3.2-2.5,5.7-3.7,7.4-3.7
			c1.6,0,2.7,0.9,3.1,2.4c0.2,0.9,0.3,2.7,0.3,5.2c3.7-4.9,8.1-7.3,13-7.2c6.7,0.2,9.9,5.2,9.7,15.2l-0.3,10.3
			c1,0.1,2.1,0.6,3.2,1.6c1.1,1,1.6,2,1.5,3c-0.1,1.9-1.9,4.6-5.8,8c-3.8,3.4-6.6,5-8.5,5c-1.2,0-2.2-0.5-3-1.4
			c-0.8-1-1.2-2.1-1.2-3.3c0,0.7,0,1,0.1,1c0.3,0,0.8-1.8,1.6-5.3c1.2-5.2,1.8-8.6,1.9-10.4c0.1-3.8,0-6.3-0.2-7.5
			c-0.7-3-2.1-4.5-4.4-4.6c-3.8-0.1-6.2,1.8-7.3,5.7c-0.5,1.6-0.8,5-0.9,10.1c0,1.8,0.9,3.6,3,5.6c2.1,1.9,3.1,3.3,3.1,4.2
			c-0.1,2.8-4.9,4-14.5,3.8c-5.4-0.1-8-1.9-7.9-5.2c0-1,0.6-1.8,1.8-2.4c1.6-0.8,2.6-1.5,3.1-2.1c1.1-1.2,1.7-3.1,1.8-5.7
			L378.3,233.3z M425.9,247.1c-4.8-3.1-7.1-6.7-7-10.9c0.3-9.5,7.9-14.1,22.9-13.6c-1-2.9-1.4-5.1-1.4-6.5c0.1-2.3,1-4.1,2.8-5.6
			c1.8-1.4,3.9-2.1,6.2-2.1c2.1,0.1,4,0.9,5.8,2.4c1.7,1.6,2.6,3.3,2.6,5.4c0,1.5-0.6,2.6-1.8,3.5c-1.2,0.9-2.5,1.2-3.9,1.2
			c-1.4,0-2.6-0.5-4-1.4c-0.6-0.1-1.1,0-1.4,0.2c-0.2,0.3-0.3,0.7-0.3,1.3c0,0.7,1.4,2.7,4.2,6.1c2.8,3.4,4.2,6.2,4.1,8.4
			c-0.1,4.7-2.2,8.2-6.3,10.3c-2,1.1-5.8,2-11.3,2.9c-4,0.7-6.1,1.7-6.1,2.9c-0.1,2,2.4,3,7.3,3.2c0.9,0,2.3,0,4.3-0.1
			c1.9-0.2,3.3-0.2,4.2-0.1c3.6,0.1,6.6,1,9,2.5c2.8,2,4.2,4.6,4.1,8.1c-0.1,5.2-3.1,9.3-8.8,12.2c-4.7,2.4-9.9,3.5-15.7,3.4
			c-4.5-0.1-8.6-0.9-12.2-2.3c-5-2-7.4-4.9-7.3-8.8c0-1.7,0.8-3.1,2.2-4.2c1.4-1.1,2.9-1.6,4.6-1.6c1.6,0,3.7,1.7,6.3,4.9
			c2.7,3.2,5.2,4.8,7.6,4.9c2.3,0.1,4.5-0.3,6.6-1.3c2.6-1.1,3.9-2.7,3.9-4.8c0.1-3-2.4-4.6-7.5-4.7c-0.9,0-2.1,0-3.9,0.1
			c-1.8,0.1-3,0.1-3.9,0.1c-4.3-0.1-7.2-0.5-9-1.1c-3.3-1.1-4.9-3.3-4.8-6.5C418.2,252.3,420.8,249.5,425.9,247.1L425.9,247.1z
			 M435.9,241.2c5.3,0.1,8.1-1.6,8.2-5.1c0.1-3.6-2.3-5.5-7-5.7c-1.8,0-3.5,0.4-5,1.3c-1.5,1-2.3,2.3-2.3,4.1
			C429.6,239.3,431.7,241.1,435.9,241.2L435.9,241.2z M154.1,241.3c-2.1-0.1-3.2-0.9-3.2-2.6c0-1,1.1-2.2,3.2-3.7
			c2-1.4,3.5-2.1,4.8-2.3c1.6-0.2,2.3,1,2.3,3.5l-0.3,11.4c1.9-2.1,4.1-3.1,6.5-3c2.6,0.1,4.3,0.8,5.4,2.2c0.9,1.3,1.3,3.2,1.3,5.7
			l-0.2,7.2c1.9,0.6,2.8,1.6,2.7,3c0,0.5-0.2,0.9-0.5,1.3c-2.7,3.9-5.4,5.9-8.2,5.8c-0.7,0-1.4-0.2-2-0.7c-0.6-0.4-0.9-1-0.9-1.7
			c0-0.5,0.4-1.6,1.2-3c0.8-1.5,1.1-2.6,1.1-3.5c0.1-2.6,0.1-4.4-0.1-5.6c-0.3-2.5-1.2-3.8-2.6-3.7c-2,0.1-3.4,1.2-4,3.5
			c-0.3,0.9-0.4,2.8-0.5,5.5c0,1.2,0.5,2.4,1.7,3.4c1.2,1.1,1.8,1.9,1.8,2.4c0,1.6-2.3,2.3-6.8,2.2c-0.4,0-2-0.2-4.9-0.4
			c-0.6-0.1-1.1-0.3-1.5-0.9c-0.4-0.5-0.6-1.1-0.6-1.7c0-0.8,0.3-1.3,1-1.6c0.9-0.4,1.5-0.7,1.7-1c0.6-0.7,1-2,1-3.7L154.1,241.3z
			 M186,259.5c0,1.3,0.5,2.2,1.3,3c0.9,0.7,2,1.1,3.3,1.1c0.9,0,2.1-0.3,3.6-1.1c1.5-0.7,2.4-1,2.6-1c1.9,0,2.8,1,2.8,2.8
			c0,1.8-1.2,3.2-3.6,4.2c-1.8,0.9-3.7,1.3-5.8,1.3c-3.4-0.1-6.1-1.4-8.1-4c-1.9-2.3-2.8-5.2-2.7-8.7c0.1-3.2,1.1-6,3.2-8.3
			c2-2.2,4.7-3.3,7.9-3.2c2.9,0.1,5.2,1,7.1,2.8c1.9,1.8,2.8,4.1,2.7,7c-0.1,3.3-2.7,4.8-7.7,4.7c-0.8,0-1.9-0.1-3.4-0.3
			C187.9,259.6,186.7,259.5,186,259.5L186,259.5z M189.7,255.3c3,0.1,4.5-0.6,4.6-1.8c0-1.5-1.1-2.3-3.5-2.4c-1.4,0-2.5,0.3-3.5,1
			c-1,0.8-1.5,1.7-1.6,3.1L189.7,255.3z"/>
	</g>
</g>
<g>
	<g>
		<path class="st3" d="M240,587.2c-2,1.2-5.2,3.9-8.3,5.2c0,0.3,0,0.5,0,0.7c-1.6,10.1-13.5,18.4-22.2,16.6
			c-7.5-1.5-9.5-7.7-8.1-13.8c2.2-9.8,12-20.5,22.2-18.6c3.4,0.6,5.9,2,7.5,5.3c-0.4,1.5-1.7,2-2.6,1.5c-1.2-0.7-2.6-1.2-4.3-1.5
			c-6.2-1.1-12,6.8-13.3,13.2c-1.2,5.8,0.5,8.4,3.1,8.9c3.7,0.7,9.1-3.3,10.2-9.3c0.1-0.9,0.2-1.8,0.1-2.8c-1.2-0.3-2.4-0.8-3.1-1.4
			c-0.8-3.9,1.3-6.9,5.2-6.2c2.3,0.4,4.2,1.8,5,3.9c3-1.2,6-3.7,9.2-5.5C241.7,584.8,241.1,586.5,240,587.2z"/>
	</g>
	<g>
		<path class="st3" d="M262.2,605.9c-1.1,3.3-0.3,4.9,1.2,5c1.3,0.1,3-0.6,4.3-2.9c1.4,0.1,2.1,0.8,2,2c-0.3,4.7-6.6,7.3-10.7,7
			c-3.7-0.3-8.7-2.6-6-10.1c1.8-5.1,2.7-7.7,4.4-12.9c0.9-2.7,0-4-1.5-4.1c-1.9-0.2-4.8,1.1-6.6,2.7c-2.6,7.3-3.9,11-6.7,18.3
			c-1.1,2.9-4.1,3.7-6.7,3.3c-1.3-0.2-2.5-0.7-3.3-1.4c3.9-9.8,5.8-14.7,9.5-24.5c0.4-1,0.2-1.7-0.5-1.7c-0.3,0-0.8,0.2-1.5,0.6
			c-0.8-0.7-1-2.8,0.5-3.6c2.6-1.5,5.2-2.5,8.1-2.2c2.5,0.3,3.8,1.6,2.8,4c-0.4,1.2-0.6,1.7-1,2.9c3.4-3.6,8-5.8,12-5.4
			c3.6,0.3,6,3.3,3.8,10.2C264.7,598.2,263.8,600.7,262.2,605.9z"/>
	</g>
	<g>
		<path class="st3" d="M303.4,588.9c-1.6,7.5-2.5,11.2-4.2,18.7c-0.9,3.7,0.2,4.9,2.1,5c2.7,0,5.8-1.7,7.6-3.4
			c0.8,0.3,1.2,0.9,1.3,1.6c0,0.5-0.2,1-0.6,1.5c-3.4,3.6-9,6.7-13.9,6.6c-4.5-0.1-7.3-2.7-5.5-10c2.1-8,3.1-12,5-20
			c-1.4,0-2.1,0-3.5-0.1c-0.3-2.1,0.9-3.8,3-3.8c0.5,0,0.8,0,1.4,0c0.5-2.2,0.8-3.3,1.3-5.5c0.7-3.1,3.3-4.2,5.7-4.2
			c1.2,0,2.4,0.3,3.2,0.9c-0.7,3.5-1.1,5.3-1.9,8.8c2,0,3,0,5,0c0.4,2.1-0.7,3.9-2.9,3.9C305.3,588.9,304.7,588.9,303.4,588.9z"/>
	</g>
	<g>
		<path class="st3" d="M343.6,589.8c-1.7,1.6-4.1,5-6.9,6.9c0.1,0.3,0.1,0.5,0.1,0.7c0.7,10.2-8.9,21-17.8,21.2
			c-7.6,0.2-10.9-5.3-11-11.6c-0.1-10.1,7-22.7,17.3-23.2c3.4-0.2,6.2,0.6,8.5,3.4c0,1.5-1.2,2.3-2.2,2c-1.3-0.4-2.8-0.6-4.5-0.5
			c-6.3,0.3-10.1,9.4-9.9,15.9c0.2,5.9,2.4,8.1,5,8c3.7-0.1,8.1-5.3,7.8-11.3c0-0.9-0.2-1.8-0.5-2.7c-1.3,0-2.5-0.2-3.3-0.6
			c-1.7-3.6-0.3-7,3.7-7.2c2.4-0.1,4.5,0.9,5.7,2.7c2.7-1.9,5-4.9,7.7-7.4C344.7,587.1,344.5,588.9,343.6,589.8z"/>
	</g>
	<g>
		<path class="st3" d="M345.7,590.5c0.2-1.1-0.2-1.7-0.8-1.6c-0.3,0-0.7,0.3-1.3,0.9c-1-0.5-1.6-2.5-0.3-3.7c2.2-2,4.5-3.6,7.4-3.9
			c2.5-0.3,4,0.7,3.7,3.3c-0.8,7.7-1.3,11.6-2.2,19.3c-0.4,2.8,0.7,3.9,2.9,3.7c2.5-0.3,4.6-1.9,6.2-4.2c0.8-7.7,1.1-11.6,1.8-19.3
			c0.3-3.1,2.7-4.6,5.2-5c1.2-0.2,2.4,0,3.3,0.4c-0.6,9-0.9,13.5-1.6,22.6c-0.3,3.8,1,4.8,2.9,4.6c2.7-0.4,5.5-2.5,7-4.5
			c0.8,0.2,1.4,0.7,1.5,1.4c0.1,0.5-0.1,1-0.4,1.6c-2.8,4.1-7.6,7.9-11.6,8.4c-3.6,0.5-7.4-0.7-7.8-6.6c-2.4,4.7-5.6,8.3-9.8,8.7
			c-8.2,0.8-8.8-7-8-12.1C344.5,598.8,344.9,596.1,345.7,590.5z"/>
	</g>
	<g>
		<path class="st3" d="M388.2,584c1.7-5.8,4.2-8.2,7.4-8.9c3.2-0.7,5.5,1.4,6.1,4.1c0.7,2.9-0.6,6.6-4.2,7.3
			c-0.6,0.1-1.4,0.2-2.1,0.2c0.4-0.5,0.5-1.4,0.3-2.2c-0.2-0.9-1-1.5-2.5-1.2c-2.3,0.5-4.8,4-5.7,19.9c-0.1,1.7-0.1,2.5-0.1,4.2
			c-0.2,3.2-2.8,4.8-5.4,5.2c-1.3,0.2-2.6,0.1-3.6-0.3c0.8-10.5,1.1-15.8,1.6-26.2c0-1.1-0.4-1.6-1-1.5c-0.3,0.1-0.7,0.4-1.2,1
			c-1-0.4-1.8-2.3-0.6-3.6c2-2.2,4.2-4,7.1-4.5c2.4-0.5,4,0.4,3.9,3C388.2,581.8,388.2,582.5,388.2,584z"/>
	</g>
</g>
<g>
	<path class="st1" d="M453.9,428.1c-0.7-7.6-1.4-14.6-2.1-21.4c-0.5-4.4-1.9-8.5-4.1-12.1c-1.1-1.7-2.6-3.1-4.4-4
		c-5.4-2.7-10.8-5.3-16.1-8c-20.6-10.2-42-20.8-62.9-31.3c-6.9-3.5-16.2-7.8-26.5-10.3c-17.3-4.3-34.8-7.5-51.8-9.6
		c-6.1-0.7-12.7-1.2-20-1.5c-9.5-0.4-18.6,0.1-27.2,1.5c-8,1.3-15,3.3-21.3,6.1c-0.5,0.2-1,0.5-1.5,0.7c-0.8,0.4-1.5,0.7-2.1,0.9
		c-4,1.3-6.6,4.3-7.3,8.5c-5.5,7.2-11.1,14.5-16.4,21.5c-4.1,5.4-8.2,10.7-12.3,16.1c-0.3,0.4-0.6,0.7-0.9,1.1
		c-2,2.6-4.3,5.5-5.3,9.5c-1.7,6.4-3.5,13-5.2,19.3l-0.6,2.3c-3.3,3.6-5,7.9-5.2,12.8c-0.1,3.6,0.7,6.8,1.5,9.5
		c-2.4,1.6-4.4,4-5.7,7c-1.6,3.4-1.9,6.9-2,9.3c-0.3,5.6,0.5,10.5,2.6,15c-0.9,3.6-1.8,7.2-2.7,10.8c-2.4,0.9-4.4,2.3-6.2,4.1
		c-2.1,2.3-3.7,5-4.8,8.2l-0.1,0.3c-0.6,1.7-1.2,3.6-1.3,5.7c-0.2,3.8,0.9,7.5,3.3,11.5c2.1,3.5,5,6.5,9.1,9.7
		c5,3.9,10.4,6.8,14.9,9.1c-0.3,2.6-0.3,5,0.2,7.4c1.1,6.1,4.8,10.2,10.3,11.6c3.6,0.9,7.3,1.6,10.3,2.1c2.1,0.4,4.2,0.4,6,0.1
		c3.3-0.6,6.2-2.5,8.5-5.9c0.2-0.3,0.4-0.6,0.6-0.9c17.8,6.4,36.4,11,56.5,14c17.6,2.6,36,4,56.2,4.1c-0.4,2.2-0.6,4.7-0.1,7.4
		c0.7,3.7,2.9,8.6,9.8,11.3c4.5,1.7,9,2,13.2,2.1c0.2,0,0.3,0,0.5,0c5.2,0,9.6-2.3,12.7-6.8c2.9-4.2,4.6-9.1,5.4-15.5
		c0.2-1.9,0.5-2.9,1.2-3.8c1.2-1.7,2.1-3.4,3-5l0.3-0.5c2.1-4,4.5-8.4,5.8-13.6c5.9-4.5,11.3-7.6,16.8-9.5c4.2-1.5,7.8-1.9,11.2-1.4
		c3.1,4.2,7.7,6.6,13.2,6.8c5.9,0.3,11.1-2.3,15.1-7.3c2.8-3.7,4.9-8.1,6.3-13.2c0.8-3.2,1.4-6.4,2-9.5c0,0,0,0,0-0.1
		c0.8-0.3,1.6-0.6,2.4-1c1.5-0.7,2.6-1.5,3.5-2.5c4.3-4.9,7.2-10.4,8.7-16.4c1.9-7.5,2.7-15.2,3.5-22.6c0.1-0.9,0.2-1.7,0.3-2.6
		c0.3-2.7,0.5-5.5,0.8-8.1c0.1-1.7,0.3-3.4,0.5-5.1C454.3,439.5,454.4,433.6,453.9,428.1z"/>
	<g>
		<path class="st0" d="M230,455.9c0.2-0.6,0.1-1.1-0.2-1.6c-0.3-0.5-0.7-0.8-1.3-1c-0.2-0.1-1,0-2.4,0.1c-1.4,0.1-2.5,0.1-3.2-0.1
			c-2.2-0.7-3.8-2.6-4.9-5.7c-0.8-2.3-1.2-4.9-1.1-7.8c1.6,0.3,3,0,4.2-0.7c1.2-0.7,2-1.8,2.5-3.4c0.7-2.4,0.3-4.5-1.3-6.4
			c-1.3-1.6-3.3-2.8-5.8-3.5c-2.5-0.8-4.9-0.8-6.9,0c-2.3,0.8-3.8,2.5-4.6,4.9c-0.4,1.2-0.4,2.4,0,3.6c0.3,1.4,1.1,2.3,2.2,2.6
			c0.5,0.1,0.9,0.1,1.4-0.2c0.4-0.2,0.7-0.6,0.9-1.1c0.1-0.2-0.1-0.9-0.5-2c-0.4-1.1-0.5-2-0.3-2.5c0.4-1.3,1.4-2,3-2.3
			c1.3-0.2,2.6-0.1,4,0.3c1.4,0.4,2.5,1.1,3.3,2c1,1.1,1.3,2.3,0.9,3.6c-0.3,1-1,1.6-2,2c-0.9,0.3-1.8,0.2-2.8-0.1
			c-0.5-0.1-0.9-0.3-1.3-0.6l0.4-1.2c0.1-0.3,0.3-0.7,0.7-1.1c0.3-0.5,0.6-0.8,0.6-1.1c0.2-0.8-0.4-1.5-1.9-1.9
			c-1.9-0.6-3.1-0.4-3.4,0.6c0,0.2,0.1,0.5,0.3,1.1c0.3,0.6,0.4,1,0.3,1.3l-1.9,6.3c-0.6,2-1.3,3.2-2,3.7c-0.9,0.6-1.3,0.9-1.4,1.1
			c-0.1,0.4-0.1,0.9,0.2,1.3c0.2,0.4,0.6,0.7,1,0.8c0.7,0.2,1.9-0.2,3.7-1.2s2.7-1.8,2.9-2.5c0.2-0.6-0.2-1.3-1.2-1.9l0.9-2.9
			l0.9,0.4c-0.3,4.5,0,8.3,1,11.5c1.3,4.2,3.9,6.9,7.5,8c1.4,0.4,2.9,0.5,4.4,0.2C228.5,458,229.6,457.2,230,455.9z"/>
		<path class="st0" d="M228.6,445.2c-0.3-0.4-1-1.1-2-1.8c-0.9-0.7-1.3-1.2-1.2-1.6c0.1-0.3,0.3-0.5,0.5-0.6c0.3-0.1,0.6-0.1,0.9,0
			c0.4,0.1,0.7,0.3,0.9,0.7c0.1,0.3,0.3,0.6,0.4,0.8c0.2,0.4,0.4,0.6,0.6,0.6c0.2,0.1,0.4,0,0.6,0c0.2-0.1,0.3-0.2,0.4-0.4
			c0.1-0.4,0.1-0.9,0-1.6c-0.1-0.8-0.4-1.2-0.8-1.3c-0.2-0.1-0.4,0-0.5,0c-0.3,0.1-0.4,0.2-0.5,0.2c-0.4-0.3-0.7-0.4-1-0.5
			c-0.8-0.2-1.5-0.2-2.2,0.1c-0.6,0.3-1,0.7-1.2,1.2c-0.3,0.8-0.2,1.5,0.3,2.2c0.3,0.4,0.9,1,1.6,1.5c0.7,0.6,1.2,1,1.4,1.3
			c0.4,0.5,0.5,1.1,0.4,1.7c0,0.2-0.1,0.3-0.1,0.4c-0.2,0.7-0.6,1.1-1.2,1.4c-0.6,0.3-1.2,0.3-1.9,0.1c-0.6-0.2-1.1-0.5-1.4-0.9
			c-0.4-0.5-0.5-1-0.3-1.6c0.1-0.5,0.4-0.8,0.9-0.8c0.7,0,1.1,0.1,1.1,0.1c0.4,0,0.7-0.2,0.8-0.6c0.1-0.3,0-0.6-0.2-0.9
			c-0.2-0.2-0.5-0.4-0.9-0.5c-0.8-0.2-1.6-0.2-2.2,0.2c-0.7,0.4-1.1,0.9-1.4,1.8c-0.3,1.1-0.2,2.1,0.6,3c0.6,0.8,1.5,1.4,2.7,1.8
			c1.2,0.4,2.3,0.3,3.3-0.1c1-0.5,1.7-1.3,2.1-2.4C229.5,447.3,229.3,446.1,228.6,445.2z"/>
	</g>
	<path class="st0" d="M449.1,427.4c-0.6-7.1-1.3-14.2-2.1-21.3c-0.4-3.6-1.5-6.9-3.4-10c-0.6-1-1.4-1.7-2.5-2.2
		c-26.4-13.1-52.7-26.1-79-39.2c-8.2-4.1-16.5-7.7-25.5-10c-16.9-4.2-34-7.4-51.2-9.5c-6.5-0.8-13.1-1.2-19.7-1.5
		c-8.8-0.3-17.5,0.1-26.2,1.5c-6.9,1.1-13.6,2.9-20.1,5.7c-1.4,0.6-2.7,1.4-4.1,1.8c-2.5,0.8-3.7,2.4-4,4.9
		c-0.1,0.5-0.3,1.1-0.6,1.6c-9.7,12.7-19.3,25.3-29,38c-2.1,2.8-4.4,5.4-5.4,8.9c-1.9,7.4-4,14.8-6,22.2c-0.1,0.4-0.4,0.9-0.7,1.2
		c-2.7,2.8-4.1,6.1-4.2,10c-0.1,3.3,0.7,6.4,1.8,9.5c0.4,1.1,0,2.7-0.7,3c-2.8,1.2-4.5,3.2-5.7,5.9c-1.1,2.4-1.5,4.9-1.6,7.5
		c-0.3,4.7,0.4,9.2,2.6,13.5c0.2,0.4,0.3,0.9,0.2,1.3c-1.1,4.7-2.3,9.3-3.5,14c-0.1,0.3-0.5,0.7-0.8,0.7c-2.3,0.5-4.3,1.6-6,3.4
		c-1.7,1.9-2.9,4-3.7,6.4c-0.5,1.5-1.1,3.1-1.1,4.7c-0.1,3.2,1,6,2.6,8.7c2,3.3,4.8,6,7.9,8.4c5.1,3.9,10.7,7,16.5,9.8
		c0.7,0.3,0.9,0.6,0.7,1.4c-0.6,2.7-0.8,5.5-0.3,8.3c0.7,3.9,2.8,6.8,6.8,7.8c3.3,0.8,6.6,1.5,10,2.1c1.4,0.2,2.9,0.3,4.3,0.1
		c2.3-0.4,4-2,5.3-3.8c0.9-1.3,1.6-2.6,2.5-4.1c38.8,14.6,79.2,19.4,120.6,19.2c-0.3,1.5-0.5,2.9-0.7,4.2c-0.4,2.4-0.8,4.8-0.4,7.2
		c0.7,3.9,3.2,6.2,6.7,7.6c3.7,1.4,7.7,1.7,11.6,1.8c3.9,0.1,6.9-1.5,9-4.7c2.8-4,4-8.6,4.6-13.4c0.3-2.2,0.7-4.2,2-6
		c1.1-1.6,2-3.3,2.9-5c2.3-4.3,4.6-8.7,5.6-13.6c0.1-0.3,0.3-0.6,0.5-0.8c5.9-4.6,12.1-8.5,19.2-11c4.7-1.7,9.6-2.4,14.6-1.4
		c0.8,0.2,1.3,0.5,1.8,1.2c2.3,3.5,5.7,5.2,9.9,5.4c4.7,0.2,8.2-1.9,11-5.5c2.6-3.4,4.3-7.3,5.4-11.4c0.9-3.5,1.5-7.1,2.2-10.7
		c0.2-0.9,0.4-1.4,1.3-1.7c1.2-0.4,2.4-0.8,3.5-1.4c0.7-0.3,1.4-0.7,1.9-1.3c3.6-4.2,6.3-8.9,7.6-14.3c2-8.1,2.8-16.3,3.7-24.5
		c0.5-4.4,0.8-8.8,1.2-13.1C449.4,439,449.6,433.2,449.1,427.4z M435.2,406.8c0.4,0.2,0.8,0.3,1.1,0.5c1.6,0.8,3.1,1.5,4.7,2.3
		c0.3,0.2,0.7,0.6,0.7,1c0.4,6.2,0.7,12.5,1,18.7c0,0.2,0,0.3,0,0.5c-2-0.3-4-0.5-6-0.8c-0.2,0-0.5-0.5-0.5-0.8
		c-0.2-2.6-0.3-5.2-0.4-7.8c-0.2-4.2-0.4-8.4-0.6-12.6C435.1,407.6,435.2,407.2,435.2,406.8z M425.8,402.4c1.7,0.7,3.4,1.5,5.1,2.2
		c0.6,0.2,0.8,0.6,0.9,1.2c0.2,4.2,0.4,8.3,0.6,12.5c0.1,3.1,0.3,6.3,0.4,9.4c0,0.3,0,0.6,0,1.1c-2.7-0.6-5.3-1.1-7.9-1.7
		c-0.3-8.5-0.6-16.9-0.9-25.5C424.7,401.9,425.2,402.2,425.8,402.4z M416.1,398.4c1.1,0.5,2.5,0.7,3.1,1.5c0.6,0.8,0.4,2.2,0.4,3.4
		c0.5,7.6,0.9,15.2,1.4,22.8c0,0.2,0,0.3,0,0.7c-3.3-0.4-6.6-0.7-10-1.1c-0.5-10-1.1-20-1.6-30.1
		C411.7,396.5,413.9,397.4,416.1,398.4z M393.2,389c3.4,1.3,6.8,2.6,10.2,3.9c0.6,0.2,0.8,0.5,0.8,1.2c0.3,6.4,0.7,12.7,1.1,19.1
		c0.2,3.7,0.4,7.4,0.6,11.2c0,0.3,0,0.6,0,1c-2.1-0.4-4.1-0.8-6.1-1.1c-2-0.4-4-0.7-6.1-1.1c-0.5-11.4-0.9-22.8-1.4-34.3
		C392.7,388.8,392.9,388.9,393.2,389z M365.7,377.4c6,2.4,11.9,4.8,17.9,7.1c1.2,0.5,1.7,1.4,1.8,2.6c0.2,2.9,0.3,5.8,0.4,8.6
		c0.3,8.5,0.6,17,0.8,25.6c0,0.3,0,0.6,0,1c-10.4-1.5-20.7-3-31.2-4.6c2.1-14,4.2-27.9,6.4-41.9
		C363.1,376.4,364.4,376.9,365.7,377.4z M340.1,379.7c1.2-4.3,2.4-8.6,3.6-12.9c0.1-0.3,0.2-0.6,0.3-1c3.3,1.8,6.5,3.6,9.8,5.4
		c1.3,0.7,2.6,1.5,4,2.2c0.4,0.2,0.6,0.5,0.5,1c-2,12.1-4,24.2-5.9,36.4c-0.3,2.1-0.7,4.3-1,6.5c-1.6-0.2-3.1-0.5-4.5-0.7
		c-2.7-0.4-5.4-0.8-8-1.3c-1.1-0.2-2.2-0.5-3.2-1c-2.8-1.4-3.8-4-2.9-7.3C335.1,397.8,337.6,388.8,340.1,379.7z M259.7,357.2
		c0.1-0.1,0.2-0.3,0.2-0.4c1.2-3.4,3.9-4.1,7-3.9c2.9,0.2,5.8,0.7,8.7,1.1c5.2,0.7,10.4,1.5,15.5,2.2c5.2,0.7,10.4,1.5,15.6,2.2
		c5.2,0.7,10.5,1.5,15.7,2.2c2.5,0.4,5,0.7,7.5,1c2.7,0.4,4.3,2.3,4.4,5.2c0.1,2.2-0.4,4.3-1.1,6.4c-4,12-7.9,24-11.9,36
		c-0.4,1.1-1.2,1.9-2.2,2.3c-1.6,0.5-3.2,0.7-4.7,1.1c-4.2-0.6-8.1-1.1-12-1.7c-5.9-0.9-11.8-1.9-17.7-2.8
		c-6.5-1.1-12.9-2.1-19.4-3.2c-6.4-1.1-12.7-2.1-19.1-3.2c-1.4-0.2-2.8-0.4-4.1-0.7c-0.5-0.1-1.1-0.5-1.5-0.9c-2-2.4-2.1-5.1-1.4-8
		c0.6-2.4,1.8-4.6,3.1-6.7C248.1,376,253.9,366.6,259.7,357.2z M188.4,389.4c0.2-1.8,0.9-3.5,1.9-4.9c2.3-3.3,4.7-6.5,7-9.8
		c5-6.9,10.1-13.7,15.1-20.6c1.8-2.6,4.3-3.7,7.3-3.9c2.8-0.2,5.6,0,8.4,0c2.9,0.1,5.8,0.2,7.8,0.3c6,0.2,11.2,0.3,16.4,0.5
		c2.9,0.1,4.3,1.9,3.5,4.6c-0.4,1.2-0.9,2.4-1.5,3.5c-6.5,11.2-13.2,22.4-19.6,33.7c-2.3,4-5.6,5.2-9.7,4.7
		c-9.2-1.1-18.4-2.5-27.6-3.7c-2.1-0.3-4.3-0.6-6.4-0.9C189.1,392.6,188.3,391.4,188.4,389.4z M233.6,439.8
		c-0.3,5.3-2.1,10.2-5.3,14.5c-2,2.6-4.3,4.6-7.3,5.9c-5.7,2.5-11.6,0.8-15.1-4.3c-2.1-3.1-3.2-7-3.2-12.9c0.2-5.8,2.6-12.2,8-17.3
		c2.5-2.4,5.5-4,9.1-4.2c4.7-0.3,8.3,1.8,10.9,5.7C233.1,431.1,233.9,435.4,233.6,439.8z M163.9,452.8c1.3-2.7,3.2-4.7,6.4-5.1
		c2.4-0.3,5.6,1.6,6.3,4.1c-0.1-0.2-0.2-0.4-0.4-0.6c-2.5-2.7-5.9-2.7-8.6-0.1c-3.3,3.3-3.7,9.5-0.8,13.1c2,2.5,5.4,3.4,8.6,0.8
		c-2.3,2.9-6.4,3.3-9.2,0.9c-1.8-1.6-2.8-3.7-3-6.1C162.8,457.4,162.8,455.1,163.9,452.8z M175.2,454.5c-0.3-0.9-0.9-1.7-1.4-2.6
		c2.1,1.3,2.9,3.2,3,5.5c0.1,2.1-0.4,4-1.8,5.6c-1.4,1.7-3.6,2.2-5.1,1.3C174.7,464.3,176.7,458.4,175.2,454.5z M198.3,538.2
		c-2,3.7-3.3,4.3-7.3,3.7c-2.7-0.5-5.5-1-8.2-1.7c-3.1-0.7-4.6-2.3-4.9-5.5c-0.2-2.1,0-4.2,0.1-6.4c7.1,2.8,14,5.6,21,8.4
		C198.8,537.3,198.6,537.8,198.3,538.2z M324.7,541.3c-1.9,0.3-3.9,0.7-5.9,0.8c-7.2,0.5-14.3,0.1-21.5-0.4
		c-10-0.7-19.9-2.1-29.7-3.8c-22.3-3.9-43.9-10-65-18.3c-0.4-0.1-0.7-0.3-1.1-0.5c0,0,0-0.1,0-0.1c0.3,0.1,0.5,0.1,0.8,0.2
		c15.4,5.4,31.1,9.6,47.1,12.6c8.2,1.5,16.4,2.9,24.6,4c6.5,0.9,13.1,1.6,19.7,2c7.1,0.5,14.2,0.5,21.4,0.8c2.6,0.1,5.2,0.2,7.9,0.4
		c0.6,0,1.2,0.2,1.7,0.4c0.3,0.2,0.8,0.6,0.8,1C325.5,540.7,325,541.2,324.7,541.3z M396.7,518.8c-5.5-0.4-10.7,0.9-15.8,3
		c-5.3,2.2-10.2,5.1-14.8,8.5c-0.2,0.1-0.3,0.2-0.6,0.4c-0.1-1.4-0.2-2.8-0.3-4.2c10.9-4.4,21.7-8.8,32.6-13.2
		c0.3,1.9,0.7,3.7,1,5.6C398.2,518.9,397.5,518.9,396.7,518.8z M444.8,446.5c-0.4,4.3-0.8,8.6-1.3,12.8c-0.9,7.5-1.6,15.1-3.5,22.5
		c-1.1,4.3-3.2,8.1-6,11.5c-0.5,0.6-1.2,1-1.8,1.3c-1.5,0.7-3.1,1.3-4.7,1.9c-0.9,0.3-1.4,0.9-1.5,1.9c-0.5,4.9-1.4,9.8-3.1,14.5
		c-1.2,3.4-2.7,6.6-5.2,9.2c-3.9,4.1-11.4,3.4-14.1-2.2c-1.3-2.6-1.4-5.3-1.5-8.1c0-0.2,0.1-0.5,0.2-0.6c2.6-2.6,3.6-5.8,4.2-9.3
		c0.3-1.4,0.3-2.8,0.7-4.1c1.9-7,6.6-11.3,13.6-13c1.4-0.3,2.9-0.3,4.3,0.3c1.1,0.5,1.8,1.4,2.3,2.5c-0.2-1.6-1-2.9-2.3-3.9
		c-2.4-1.6-5-1.8-7.7-1.2c-6,1.3-10.3,4.8-12.9,10.3c-0.1,0.2-0.2,0.5-0.4,0.9c0.3-2.9,0.7-5.6,0.9-8.3c0.4-3.6,0.7-7.1,0.9-10.7
		c0.3-5.7,0.6-11.4,0.8-17.2c0-1.4,0-2.5,1.5-3.5c1.3-0.9,2.1-2.5,3.1-3.9c-0.1-0.1-0.2-0.2-0.2-0.3c-2.9,0.7-5.7,1.3-8.8,2
		c0.2,0.9,0.2,1.9,0.5,2.7c0.1,0.3,0.6,0.7,1,0.7c0.8,0.1,0.9,0.5,1,1.2c0.1,2.2,0.3,4.5,0.4,6.7c0.3,4.4-0.4,8.8-1.2,13.1
		c-1.1,6.6-2.3,13.1-4.3,19.5c-1,3.2-2.2,6.3-3.5,9.4c-1.4,3.4-3.7,6-7.2,7.4c-3.2,1.3-6.4,2.7-9.6,4c-0.6,0.2-1.2,0.3-1.9,0.5
		c0-0.5,0.1-0.8,0.1-1.1c0.7-5.5,0.8-10.9-0.7-16.3c-0.8-2.8-2-5.3-4.4-7c-1.6-1.2-3.3-1.8-5.3-2c-6.7-0.4-12.1,2.3-16.6,7.2
		c-4.1,4.5-6.9,9.8-9.1,15.4c-1.9,4.7-3.6,9.4-5.3,14.2c-0.2,0.7-0.6,1-1.3,1.1c-3.8,0.9-7.6,0.9-11.4,0.7
		c-5.2-0.3-10.3-1.1-15.3-2.5c-0.2-0.1-0.5-0.2-0.7-0.2c-0.7-0.1-0.9-0.5-0.8-1.2c0.5-5.5,0.7-11.1,1.4-16.6
		c0.8-7.1,1.8-14.1,3-21.1c2.1-11.6,4.5-23.1,6.8-34.6c0.8-4.1,1.9-8.1,2.8-12.2c-0.1,0.3-0.3,0.6-0.4,1c-4.4,10.8-7.5,22-10.1,33.3
		c-2.4,10.6-4.4,21.3-6,32.1c-1.1,7.1-2,14.3-3,21.4c-0.2,1.4-0.4,2.7-0.6,4.2c1.3,0.2,2.5,0.4,3.7,0.4c5.6,0.2,11.1,0.4,16.7,0.5
		c2.5,0,5-0.2,7.6-0.3c3.4-0.1,6.6,0.6,9,3.4c1.8-2.2,2.7-4.7,3.4-7.3c2.1-8.1,4.7-15.9,9-23.1c1.6-2.7,3.5-5.1,5.9-7.2
		c3.6-3.1,7.8-4.2,12.5-3.8c0.5,0.1,1.1,0.1,1.6,0.2c3.4,0.6,5.1,2.5,5.8,6.3c0.5,3.2,0.4,6.4,0.1,9.6c-0.2,1.9-0.5,3.8-0.6,5.7
		c-0.1,0.8-0.5,0.9-1,0.7c-0.8-0.2-1.6-0.6-2.4-0.9c-2.8-1.1-5.7-2.3-8.5-3.4c-0.7-0.3-1.6-0.3-2.4-0.4c-3.5-0.2-4.8,2-5.3,4.6
		c0,0.2,0.1,0.5,0.3,0.6c3.1,1.7,4.3,4.6,5.1,7.8c1.3,4.9,0.4,9.6-1.7,14c-2.1,4.4-4.5,8.7-7,13c-1,1.6-1.4,3.2-1.6,5.1
		c-0.4,3.6-1.1,7.2-2.7,10.6c-0.4,0.9-0.9,1.7-1.5,2.5c-1.4,1.9-3.2,2.9-5.6,2.9c-3.2-0.1-6.3-0.3-9.4-1.2c-0.5-0.1-0.9-0.3-1.4-0.5
		c-3-1.3-4.2-3.3-4-6.5c0.2-2.2,0.6-4.3,0.9-6.5c0.2-1.5,0.4-3.1,0.6-4.7c2.9-0.6,5.6-1.9,7.4-4.5c2.7-4,2.7-8.3,0.7-12.6
		c-0.6-1.3-1.6-2-3.1-2c-4.2,0-8.4,0.2-12.5,0.1c-7-0.2-14.1-0.3-21.1-0.8c-7.7-0.6-15.3-1.5-22.9-2.6c-11.5-1.6-22.9-3.8-34.3-6.4
		c-12-2.7-23.9-5.6-35.7-9.1c-10.1-3.1-20.1-6.4-29.5-11.1c-4.4-2.2-8.6-4.6-12.3-7.8c-2.2-2-4.2-4.1-5.1-7.1
		c-0.2-0.6-0.2-1.3-0.3-2c2,0.1,2.6-1,3-2.6c1.4-5.7,2.8-11.3,4.2-16.9c1.1,0.3,2.3,0.8,3.5,0.9c3,0.2,5.4-1.1,7.3-3.4
		c3.9-4.6,4.4-12,1.3-17.1c-1.8-3-4.4-4.8-8-4.8c0.4-2.6,1.6-5.2,0.2-7.9c4.2-0.9,6.8-3.4,7.3-7.6c0.4-3.4-1.2-6.1-4.3-7.8
		c1.3-5.2,2.6-10.4,3.9-15.6c0.1,0,0.1,0,0.2,0c0.7,2.7,1.4,5.4,2.1,8c4.7,18.5,9.5,37,14.1,55.5c2.5,10,4.6,20.1,6.9,30.2
		c0.2,0.9,0.3,1.7,0.4,2.6c0.1,1.1,0.5,2.1,1.7,2.5c1.3,0.4,2.1-0.2,2.9-1.2c4.1-4.8,8.2-9.6,12.4-14.4
		c19.6-22.4,43.7-37.7,72.4-45.7c9.9-2.8,20-4.8,30.2-6.3c8.2-1.1,16.5-1.9,24.7-2.3c4.2-0.2,8.4-0.5,12.5-0.5
		c3.1,0,6.2,0.4,9.3,0.6c3.9,0.3,7.9,0.6,11.8,0.9c4.7,0.4,9.4,0.7,14,1.1c3.7,0.3,7.4,0.6,11,0.9c4.6,0.4,9.2,0.7,13.7,1.1
		c4.4,0.4,8.8,0.7,13.3,1c4.6,0.4,9.3,0.7,14,1.1C445.1,442.9,444.9,444.7,444.8,446.5z M445.4,438.6c-1.9-0.1-3.7-0.3-5.6-0.4
		c-3.7-0.3-7.4-0.6-11.1-0.9c-4.5-0.4-9-0.7-13.6-1.1c-3.7-0.3-7.4-0.6-11-0.9c-4.6-0.4-9.3-0.7-13.9-1.1c-3.6-0.3-7.3-0.6-10.9-0.8
		c-4.9-0.4-9.9-0.7-14.8-1.1c-4.6-0.4-9.2-0.4-13.8-0.1c-4.9,0.3-9.8,0.5-14.6,0.9c-4.6,0.4-9.2,0.8-13.8,1.5
		c-6.8,1-13.7,2.1-20.4,3.6c-19.9,4.3-38.7,11.5-55.7,23c-10.2,6.9-19.4,15.1-27.7,24.2c-4.8,5.3-9.4,10.8-14.2,16.3
		c-0.2,0.2-0.3,0.4-0.5,0.6c-0.8-4-1.5-7.9-2.4-11.8c-2.9-12.4-5.8-24.8-8.9-37.1c-4.3-17.2-8.8-34.3-13.3-51.4
		c-0.1-0.6-0.1-1.2,0-1.8c0.4-1.5,0.9-2.9,1.6-4.4c8.7,33.5,18,66.8,24.5,100.9c1-1.4,2.1-2.8,3.2-4.3
		c16.9-22.5,38.6-38.9,64.7-49.4c11.5-4.6,23.4-8.1,35.7-10.3c6.8-1.2,13.6-2.3,20.4-3c7.1-0.8,14.3-1.1,21.5-1.5
		c6.8-0.4,13.6,0.3,20.4,0.7c5.3,0.3,10.6,0.7,15.9,1c5.8,0.4,11.7,0.9,17.5,1.3c4.8,0.4,9.6,0.7,14.4,1c4.7,0.4,9.4,0.7,14.1,1.1
		c3.8,0.3,7.6,0.6,11.3,0.8c0.3,0,0.7,0.1,1.1,0.1C445.4,435.8,445.4,437.2,445.4,438.6z"/>
	<path class="st0" d="M275.9,469.8c-9.8,0-17.6,7.7-17.6,17.4c0,9.7,7.7,17.5,17.4,17.5c9.6,0,17.4-7.7,17.4-17.3
		C293.2,477.7,285.5,469.8,275.9,469.8z M286.7,487.9c-0.4,5-5.1,8.7-10.4,8.1c4.8-1.1,7.9-3.9,8.1-8.8c0.3-4.8-2.3-7.9-7-9.5
		C283.3,477.9,287.2,482.4,286.7,487.9z M276.1,500.9c-6.2,0.2-11.8-3.8-13.6-9.7c-1.8-5.9,0.6-12.3,5.9-15.6
		c5.2-3.3,11.8-2.4,15.6,1c-3.5-2-7.2-2.4-11-0.9c-2.9,1.1-5,3.1-6.4,5.8c-2.8,5.5-0.9,12.2,4.3,15.6c5.2,3.4,12.6,2.4,16.8-3.6
		C286.8,496.9,280.9,500.7,276.1,500.9z"/>
	<path class="st0" d="M292.6,449.8c-3.7,3.9-4,10.4-0.7,14.6c1.8,2.4,4.3,3.7,7.4,4c1.2-0.3,2.5-0.5,3.6-1
		c6.3-2.7,8.3-11.2,4.1-16.8C303.3,445.7,296.8,445.3,292.6,449.8z M307,459.8c-0.5,1.4-1.4,2.6-2.1,4c-0.1-0.1-0.1-0.1-0.2-0.2
		c-0.2-2-0.2-3.9-0.7-5.8c-1.1-4.8-4.3-7.7-9.3-8.5c0.3-0.2,0.5-0.3,0.7-0.4c3.3-1.6,6.6-1.3,9,0.8
		C307.3,452.3,308.4,456.3,307,459.8z"/>
	<path class="st0" d="M422.6,490.6c-0.4,0.3-0.7,0.5-1,0.7c-2.2,1.6-3.9,3.7-5.2,6.2c-2.2,4-3.1,8.3-3.3,12.8
		c-0.2,3.2,0.1,6.4,0.6,9.6c1.3-0.2,2.2-0.7,3.4-2c2.1-2.4,3.4-5.2,4.4-8.3c1.7-5.6,1.7-11.3,1.5-17
		C422.8,491.9,422.7,491.3,422.6,490.6z M416.4,515.8c-0.5,0.7-1.2,1.2-1.9,1.7c-0.3-2.1,0.1-4,0.5-5.9c0.2-1,0.7-1.6,1.7-2
		c3.2-1.4,4.2-5.5,2-8.2c-1.3-1.5-1.2-3.2-0.5-4.9c0.8-1.8,2.1-3.1,3.8-4.6C422.4,500.6,421.4,508.6,416.4,515.8z"/>
	<path class="st0" d="M347.1,559.3c1.2-4,2.4-8,3.6-12.1c0.1-0.4,0.4-0.8,0.6-1.2c1.1-1.4,2.3-2.7,3.2-4.2c2.2-3.7,3.7-7.6,2.9-12
		c-0.4-2.2-1.3-4.2-3.1-5.9c-2.6,12-5.1,23.8-7.6,35.7C347,559.5,347.1,559.4,347.1,559.3z"/>
	<path class="st0" d="M381.8,447.4c-2.4,0.6-4.7,1.3-7,2c-0.4,0.1-1,0.5-1,0.9c-0.1,0.8,0.2,1.5,1,1.8c0.4,0.2,0.8,0.2,1.2,0.3
		c2.7-0.3,4.9-1.4,6.9-2.9c0.5-0.4,1.2-1.3,1.1-1.7C383.5,446.9,382.5,447.2,381.8,447.4z"/>
	<path class="st0" d="M254,386.3c4.9-4.9,10.6-8.8,16.7-12c11.8-6.2,24.5-9.9,37.5-12.4c1.3-0.3,2.6-0.5,3.9-0.8
		c-4.6-0.9-9.2-1.5-13.8-2.2c-9.4-1.3-18.8-2.7-28.2-4c-2.5-0.3-5.2,0.4-6.8,3.2c-6,10.4-12.2,20.7-18.4,31.1
		c-1.8,3-1.6,6.5,0.8,9.3C247.6,393.7,250.5,389.8,254,386.3z"/>
	<path class="st0" d="M195.9,390.8c0.5-0.9,0.9-1.7,1.3-2.5c4.2-7.4,9.9-13.5,16.5-18.8c9.5-7.6,20.2-12.8,31.7-16.4
		c0.3-0.1,0.5-0.2,0.8-0.3c0-0.1,0-0.2-0.1-0.3c-7.5,0-15,0-22.4,0c-0.9,0-1.8,0.1-2.7,0.2c-1.6,0.3-3.1,0.8-4.1,2.1
		c-5,6.5-10.1,13.1-15,19.7c-2.7,3.6-5.3,7.4-7.8,11.1C192.4,388.2,193.1,390,195.9,390.8z"/>
</g>
</svg>
