<?xml version="1.0" encoding="utf-8"?>
<!-- Generator: Adobe Illustrator 19.1.0, SVG Export Plug-In . SVG Version: 6.00 Build 0)  -->
<svg version="1.1" id="Layer_1" xmlns="http://www.w3.org/2000/svg" xmlns:xlink="http://www.w3.org/1999/xlink" x="0px" y="0px"
	 viewBox="0 0 612 792" style="enable-background:new 0 0 612 792;" xml:space="preserve">
<style type="text/css">
	.st0{fill:#4A494A;}
	.st1{fill:#F4F4F4;}
	.st2{fill-rule:evenodd;clip-rule:evenodd;fill:#FFFFFF;}
	.st3{fill:#FFFEFE;}
</style>
<g>
	<g>
		<path class="st0" d="M233.8,100.8c-0.4-4.5-0.8-8.7-1.3-12.7c-0.3-2.6-1.1-5-2.5-7.1c-0.6-1-1.5-1.8-2.6-2.4
			c-3.2-1.6-6.4-3.2-9.6-4.7c-12.2-6.1-24.9-12.3-37.3-18.5c-4.1-2.1-9.6-4.6-15.7-6.1c-10.3-2.6-20.6-4.5-30.7-5.7
			c-3.6-0.4-7.5-0.7-11.9-0.9c-5.6-0.2-11,0.1-16.1,0.9c-4.8,0.8-8.9,2-12.6,3.6c-0.3,0.1-0.6,0.3-0.9,0.4c-0.5,0.2-0.9,0.4-1.2,0.5
			c-2.4,0.8-3.9,2.5-4.4,5.1c-3.2,4.3-6.6,8.6-9.8,12.8c-2.4,3.2-4.9,6.4-7.3,9.5c-0.2,0.2-0.3,0.4-0.5,0.7
			c-1.2,1.5-2.6,3.3-3.2,5.6c-1,3.8-2.1,7.7-3.1,11.5l-0.4,1.4c-2,2.2-3,4.7-3.1,7.6c-0.1,2.1,0.4,4.1,0.9,5.7
			c-1.5,1-2.6,2.4-3.4,4.2c-0.9,2-1.1,4.1-1.2,5.5c-0.2,3.3,0.3,6.2,1.6,8.9c-0.5,2.1-1,4.2-1.6,6.4c-1.4,0.5-2.6,1.3-3.7,2.4
			c-1.3,1.3-2.2,3-2.8,4.9l-0.1,0.2c-0.3,1-0.7,2.1-0.8,3.4c-0.1,2.2,0.5,4.5,2,6.8c1.3,2.1,3,3.9,5.4,5.7c3,2.3,6.2,4.1,8.9,5.4
			c-0.2,1.5-0.2,3,0.1,4.4c0.7,3.6,2.9,6.1,6.1,6.9c2.2,0.6,4.3,0.9,6.1,1.3c1.3,0.2,2.5,0.2,3.5,0.1c2-0.3,3.7-1.5,5-3.5
			c0.1-0.2,0.2-0.3,0.3-0.5c10.6,3.8,21.6,6.5,33.5,8.3c10.4,1.6,21.4,2.3,33.3,2.4c-0.2,1.3-0.4,2.8-0.1,4.4
			c0.4,2.2,1.7,5.1,5.8,6.7c2.7,1,5.3,1.2,7.9,1.2c0.1,0,0.2,0,0.3,0c3.1,0,5.7-1.4,7.5-4c1.7-2.5,2.7-5.4,3.2-9.2
			c0.1-1.1,0.3-1.7,0.7-2.3c0.7-1,1.2-2,1.8-3l0.2-0.3c1.3-2.3,2.7-5,3.4-8c3.5-2.7,6.7-4.5,10-5.6c2.5-0.9,4.6-1.1,6.7-0.8
			c1.9,2.5,4.5,3.9,7.8,4.1c3.5,0.2,6.6-1.3,8.9-4.4c1.7-2.2,2.9-4.8,3.7-7.8c0.5-1.9,0.8-3.8,1.2-5.6c0,0,0,0,0,0
			c0.5-0.2,1-0.4,1.4-0.6c0.9-0.4,1.5-0.9,2.1-1.5c2.6-2.9,4.3-6.2,5.2-9.7c1.1-4.5,1.6-9,2.1-13.4c0.1-0.5,0.1-1,0.2-1.5
			c0.2-1.6,0.3-3.2,0.5-4.8c0.1-1,0.2-2,0.3-3C234.1,107.5,234.1,104,233.8,100.8z"/>
		<g>
			<path class="st1" d="M101,117.3c0.1-0.3,0.1-0.7-0.1-0.9c-0.2-0.3-0.4-0.5-0.8-0.6c-0.1,0-0.6,0-1.4,0.1c-0.8,0.1-1.5,0.1-1.9,0
				c-1.3-0.4-2.3-1.5-2.9-3.4c-0.5-1.4-0.7-2.9-0.7-4.7c1,0.2,1.8,0,2.5-0.4c0.7-0.4,1.2-1.1,1.5-2c0.4-1.4,0.2-2.7-0.8-3.8
				c-0.8-0.9-1.9-1.6-3.4-2.1c-1.5-0.4-2.9-0.5-4.1,0c-1.4,0.5-2.3,1.5-2.7,2.9c-0.2,0.7-0.2,1.4,0,2.1c0.2,0.8,0.6,1.3,1.3,1.5
				c0.3,0.1,0.6,0.1,0.8-0.1c0.3-0.1,0.4-0.4,0.5-0.7c0-0.1-0.1-0.5-0.3-1.2c-0.2-0.7-0.3-1.2-0.2-1.5c0.2-0.7,0.8-1.2,1.8-1.4
				c0.8-0.1,1.6-0.1,2.4,0.2c0.8,0.2,1.5,0.6,2,1.2c0.6,0.6,0.8,1.4,0.5,2.1c-0.2,0.6-0.6,1-1.2,1.2c-0.5,0.2-1.1,0.1-1.7,0
				c-0.3-0.1-0.5-0.2-0.8-0.3l0.2-0.7c0.1-0.2,0.2-0.4,0.4-0.7c0.2-0.3,0.3-0.5,0.4-0.6c0.1-0.5-0.2-0.9-1.1-1.1
				c-1.2-0.3-1.8-0.2-2,0.4c0,0.1,0,0.3,0.2,0.7c0.2,0.4,0.2,0.6,0.2,0.8l-1.1,3.7c-0.4,1.2-0.7,1.9-1.2,2.2
				c-0.5,0.3-0.8,0.6-0.8,0.7c-0.1,0.3,0,0.5,0.1,0.8c0.1,0.2,0.3,0.4,0.6,0.5c0.4,0.1,1.1-0.1,2.2-0.7c1-0.6,1.6-1.1,1.7-1.5
				c0.1-0.4-0.1-0.7-0.7-1.1l0.5-1.7l0.5,0.2c-0.2,2.6,0,4.9,0.6,6.8c0.8,2.5,2.3,4.1,4.4,4.7c0.8,0.3,1.7,0.3,2.6,0.1
				C100.1,118.5,100.8,118,101,117.3z"/>
			<path class="st1" d="M100.2,110.9c-0.2-0.3-0.6-0.6-1.2-1.1c-0.5-0.4-0.8-0.7-0.7-0.9c0.1-0.2,0.2-0.3,0.3-0.4
				c0.2-0.1,0.3-0.1,0.5,0c0.2,0.1,0.4,0.2,0.6,0.4c0.1,0.2,0.2,0.3,0.3,0.5c0.1,0.2,0.2,0.3,0.4,0.4c0.1,0,0.2,0,0.3,0
				c0.1-0.1,0.2-0.1,0.2-0.2c0.1-0.2,0.1-0.5,0-0.9c-0.1-0.5-0.2-0.7-0.4-0.8c-0.1,0-0.2,0-0.3,0c-0.2,0.1-0.2,0.1-0.3,0.1
				c-0.2-0.2-0.4-0.3-0.6-0.3c-0.5-0.1-0.9-0.1-1.3,0.1c-0.4,0.2-0.6,0.4-0.7,0.7c-0.2,0.5-0.1,0.9,0.2,1.3c0.2,0.3,0.5,0.6,1,0.9
				c0.4,0.3,0.7,0.6,0.8,0.8c0.2,0.3,0.3,0.7,0.2,1c0,0.1,0,0.2-0.1,0.3c-0.1,0.4-0.3,0.7-0.7,0.8c-0.3,0.1-0.7,0.2-1.1,0
				c-0.4-0.1-0.6-0.3-0.8-0.5c-0.2-0.3-0.3-0.6-0.2-0.9c0.1-0.3,0.3-0.4,0.5-0.5c0.4,0,0.6,0,0.7,0c0.3,0,0.4-0.1,0.5-0.3
				c0.1-0.2,0-0.4-0.1-0.5c-0.1-0.1-0.3-0.2-0.5-0.3c-0.5-0.1-0.9-0.1-1.3,0.1c-0.4,0.2-0.7,0.6-0.8,1c-0.2,0.7-0.1,1.3,0.3,1.8
				c0.4,0.5,0.9,0.8,1.6,1c0.7,0.2,1.3,0.2,1.9-0.1c0.6-0.3,1-0.8,1.2-1.5C100.7,112.1,100.6,111.5,100.2,110.9z"/>
		</g>
		<path class="st1" d="M230.9,100.4c-0.4-4.2-0.8-8.4-1.3-12.6c-0.2-2.1-0.9-4.1-2-5.9c-0.4-0.6-0.8-1-1.5-1.3
			c-15.6-7.7-31.3-15.5-46.9-23.3c-4.9-2.4-9.8-4.6-15.1-5.9c-10-2.5-20.1-4.4-30.4-5.6c-3.9-0.5-7.8-0.7-11.7-0.9
			c-5.2-0.2-10.4,0-15.6,0.9c-4.1,0.7-8.1,1.7-11.9,3.4c-0.8,0.4-1.6,0.8-2.4,1.1c-1.5,0.5-2.2,1.4-2.4,2.9c0,0.3-0.2,0.7-0.4,0.9
			c-5.7,7.5-11.5,15-17.2,22.5c-1.3,1.6-2.6,3.2-3.2,5.3c-1.1,4.4-2.4,8.8-3.5,13.1c-0.1,0.3-0.2,0.5-0.4,0.7
			c-1.6,1.7-2.4,3.6-2.5,5.9c-0.1,1.9,0.4,3.8,1,5.6c0.2,0.6,0,1.6-0.4,1.8c-1.6,0.7-2.7,1.9-3.4,3.5c-0.6,1.4-0.9,2.9-1,4.5
			c-0.2,2.8,0.3,5.5,1.5,8c0.1,0.2,0.2,0.6,0.1,0.8c-0.7,2.8-1.4,5.5-2.1,8.3c0,0.2-0.3,0.4-0.5,0.4c-1.4,0.3-2.6,1-3.6,2
			c-1,1.1-1.7,2.4-2.2,3.8c-0.3,0.9-0.6,1.8-0.7,2.8c-0.1,1.9,0.6,3.6,1.5,5.2c1.2,2,2.9,3.6,4.7,5c3,2.3,6.4,4.1,9.8,5.8
			c0.4,0.2,0.5,0.4,0.4,0.8c-0.4,1.6-0.5,3.3-0.2,4.9c0.4,2.3,1.7,4,4,4.6c1.9,0.5,3.9,0.9,5.9,1.2c0.8,0.1,1.7,0.2,2.6,0.1
			c1.4-0.2,2.4-1.2,3.1-2.3c0.5-0.8,0.9-1.6,1.5-2.4c23,8.7,47,11.5,71.5,11.4c-0.2,0.9-0.3,1.7-0.4,2.5c-0.3,1.4-0.5,2.8-0.2,4.3
			c0.4,2.3,1.9,3.7,4,4.5c2.2,0.9,4.6,1,6.9,1.1c2.3,0.1,4.1-0.9,5.4-2.8c1.7-2.4,2.4-5.1,2.7-7.9c0.2-1.3,0.4-2.5,1.2-3.6
			c0.7-0.9,1.2-2,1.7-3c1.4-2.6,2.8-5.1,3.3-8c0-0.2,0.2-0.3,0.3-0.5c3.5-2.7,7.2-5.1,11.4-6.5c2.8-1,5.7-1.4,8.7-0.8
			c0.5,0.1,0.8,0.3,1,0.7c1.4,2.1,3.4,3.1,5.9,3.2c2.8,0.1,4.9-1.1,6.5-3.2c1.6-2,2.6-4.3,3.2-6.8c0.5-2.1,0.9-4.2,1.3-6.4
			c0.1-0.5,0.3-0.8,0.8-1c0.7-0.2,1.4-0.5,2.1-0.8c0.4-0.2,0.8-0.4,1.1-0.8c2.2-2.5,3.7-5.3,4.5-8.5c1.2-4.8,1.6-9.7,2.2-14.6
			c0.3-2.6,0.5-5.2,0.7-7.8C231.1,107.2,231.2,103.8,230.9,100.4z M222.7,88.1c0.3,0.1,0.5,0.2,0.7,0.3c0.9,0.5,1.9,0.9,2.8,1.4
			c0.2,0.1,0.4,0.4,0.4,0.6c0.2,3.7,0.4,7.4,0.6,11.1c0,0.1,0,0.2,0,0.3c-1.2-0.1-2.4-0.3-3.6-0.5c-0.1,0-0.3-0.3-0.3-0.5
			c-0.1-1.5-0.2-3.1-0.2-4.6c-0.1-2.5-0.2-5-0.3-7.5C222.7,88.6,222.7,88.4,222.7,88.1z M217.1,85.5c1,0.4,2,0.9,3.1,1.3
			c0.4,0.1,0.5,0.3,0.5,0.7c0.1,2.5,0.2,4.9,0.4,7.4c0.1,1.9,0.2,3.7,0.3,5.6c0,0.2,0,0.3,0,0.6c-1.6-0.3-3.1-0.7-4.7-1
			c-0.2-5-0.3-10-0.5-15.1C216.5,85.2,216.8,85.4,217.1,85.5z M211.4,83.1c0.6,0.3,1.5,0.4,1.8,0.9c0.3,0.5,0.2,1.3,0.3,2
			c0.3,4.5,0.5,9,0.8,13.5c0,0.1,0,0.2,0,0.4c-2-0.2-3.9-0.4-5.9-0.7c-0.3-6-0.6-11.9-0.9-17.8C208.8,82,210.1,82.6,211.4,83.1z
			 M197.8,77.5c2,0.8,4,1.6,6.1,2.3c0.4,0.1,0.5,0.3,0.5,0.7c0.2,3.8,0.4,7.6,0.6,11.3c0.1,2.2,0.3,4.4,0.4,6.6c0,0.2,0,0.3,0,0.6
			c-1.3-0.2-2.4-0.5-3.6-0.7c-1.2-0.2-2.4-0.4-3.6-0.7c-0.3-6.8-0.5-13.5-0.8-20.4C197.5,77.5,197.6,77.5,197.8,77.5z M181.5,70.7
			c3.5,1.4,7.1,2.8,10.6,4.2c0.7,0.3,1,0.9,1,1.5c0.1,1.7,0.2,3.4,0.2,5.1c0.2,5.1,0.3,10.1,0.5,15.2c0,0.2,0,0.4,0,0.6
			c-6.2-0.9-12.3-1.8-18.5-2.7c1.3-8.3,2.5-16.5,3.8-24.9C180,70.1,180.7,70.4,181.5,70.7z M166.3,72c0.7-2.5,1.4-5.1,2.1-7.6
			c0-0.2,0.1-0.3,0.2-0.6c2,1.1,3.9,2.2,5.8,3.2c0.8,0.4,1.6,0.9,2.4,1.3c0.3,0.1,0.3,0.3,0.3,0.6c-1.2,7.2-2.4,14.4-3.5,21.6
			c-0.2,1.3-0.4,2.5-0.6,3.9c-0.9-0.1-1.8-0.3-2.7-0.4c-1.6-0.3-3.2-0.5-4.8-0.8c-0.6-0.1-1.3-0.3-1.9-0.6c-1.7-0.9-2.3-2.4-1.7-4.4
			C163.3,82.8,164.8,77.4,166.3,72z M118.6,58.7c0.1-0.1,0.1-0.2,0.1-0.3c0.7-2,2.3-2.4,4.2-2.3c1.7,0.1,3.4,0.4,5.1,0.7
			c3.1,0.4,6.1,0.9,9.2,1.3c3.1,0.4,6.2,0.9,9.3,1.3c3.1,0.4,6.2,0.9,9.3,1.3c1.5,0.2,3,0.4,4.4,0.6c1.6,0.2,2.5,1.4,2.6,3.1
			c0,1.3-0.3,2.5-0.7,3.8c-2.4,7.1-4.7,14.3-7.1,21.4c-0.2,0.7-0.7,1.1-1.3,1.3c-0.9,0.3-1.9,0.4-2.8,0.6c-2.5-0.4-4.8-0.7-7.1-1
			c-3.5-0.5-7-1.1-10.5-1.7c-3.8-0.6-7.7-1.3-11.5-1.9c-3.8-0.6-7.6-1.3-11.3-1.9c-0.8-0.1-1.6-0.2-2.4-0.4
			c-0.3-0.1-0.7-0.3-0.9-0.5c-1.2-1.4-1.2-3-0.8-4.7c0.3-1.4,1.1-2.7,1.8-3.9C111.7,69.9,115.2,64.3,118.6,58.7z M76.4,77.8
			c0.1-1.1,0.5-2.1,1.1-2.9c1.4-1.9,2.8-3.9,4.2-5.8c3-4.1,6-8.1,8.9-12.2c1.1-1.5,2.6-2.2,4.3-2.3c1.7-0.1,3.3,0,5,0
			c1.7,0,3.4,0.1,4.7,0.2c3.6,0.1,6.7,0.2,9.8,0.3c1.7,0,2.5,1.1,2.1,2.8c-0.2,0.7-0.5,1.4-0.9,2.1c-3.9,6.7-7.8,13.3-11.6,20
			c-1.3,2.4-3.3,3.1-5.8,2.8c-5.5-0.7-10.9-1.5-16.4-2.2c-1.3-0.2-2.5-0.3-3.8-0.5C76.8,79.7,76.3,79,76.4,77.8z M103.2,107.7
			c-0.2,3.2-1.2,6.1-3.2,8.6c-1.2,1.5-2.6,2.7-4.3,3.5c-3.4,1.5-6.9,0.5-9-2.6c-1.3-1.8-1.9-4.1-1.9-7.7c0.1-3.4,1.5-7.3,4.8-10.3
			c1.5-1.4,3.3-2.4,5.4-2.5c2.8-0.2,4.9,1.1,6.4,3.4C102.9,102.6,103.3,105.1,103.2,107.7z M61.8,115.4c0.8-1.6,1.9-2.8,3.8-3
			c1.4-0.2,3.3,0.9,3.7,2.4c-0.1-0.1-0.1-0.3-0.2-0.4c-1.5-1.6-3.5-1.6-5.1-0.1c-1.9,1.9-2.2,5.6-0.5,7.8c1.2,1.5,3.2,2,5.1,0.5
			c-1.4,1.7-3.8,2-5.5,0.5c-1.1-1-1.6-2.2-1.8-3.6C61.2,118.1,61.2,116.7,61.8,115.4z M68.5,116.4c-0.2-0.5-0.5-1-0.8-1.5
			c1.2,0.8,1.7,1.9,1.8,3.2c0.1,1.2-0.3,2.4-1.1,3.3c-0.8,1-2.1,1.3-3,0.8C68.2,122.2,69.4,118.7,68.5,116.4z M82.2,166.1
			c-1.2,2.2-1.9,2.6-4.4,2.2c-1.6-0.3-3.2-0.6-4.8-1c-1.8-0.4-2.7-1.4-2.9-3.2c-0.1-1.2,0-2.5,0.1-3.8c4.2,1.7,8.3,3.3,12.5,5
			C82.5,165.5,82.4,165.8,82.2,166.1z M157.2,167.9c-1.2,0.2-2.3,0.4-3.5,0.5c-4.2,0.3-8.5,0.1-12.7-0.2c-5.9-0.4-11.8-1.2-17.6-2.2
			c-13.2-2.3-26.1-6-38.5-10.9c-0.2-0.1-0.4-0.2-0.6-0.3c0,0,0-0.1,0-0.1c0.2,0,0.3,0.1,0.5,0.1c9.1,3.2,18.4,5.7,27.9,7.5
			c4.8,0.9,9.7,1.7,14.6,2.4c3.9,0.5,7.8,0.9,11.7,1.2c4.2,0.3,8.4,0.3,12.7,0.5c1.6,0.1,3.1,0.1,4.7,0.2c0.3,0,0.7,0.1,1,0.2
			c0.2,0.1,0.5,0.4,0.4,0.6C157.7,167.6,157.4,167.9,157.2,167.9z M199.9,154.6c-3.3-0.2-6.4,0.5-9.3,1.8c-3.2,1.3-6.1,3.1-8.8,5.1
			c-0.1,0.1-0.2,0.1-0.3,0.2c-0.1-0.8-0.1-1.6-0.2-2.5c6.4-2.6,12.9-5.2,19.4-7.8c0.2,1.1,0.4,2.2,0.6,3.3
			C200.8,154.6,200.3,154.6,199.9,154.6z M228.4,111.7c-0.2,2.5-0.5,5.1-0.8,7.6c-0.5,4.5-0.9,9-2.1,13.3c-0.7,2.5-1.9,4.8-3.6,6.8
			c-0.3,0.3-0.7,0.6-1.1,0.8c-0.9,0.4-1.8,0.8-2.8,1.1c-0.5,0.2-0.8,0.6-0.9,1.1c-0.3,2.9-0.8,5.8-1.8,8.6c-0.7,2-1.6,3.9-3.1,5.5
			c-2.3,2.4-6.8,2-8.4-1.3c-0.7-1.5-0.8-3.2-0.9-4.8c0-0.1,0.1-0.3,0.1-0.4c1.5-1.5,2.1-3.5,2.5-5.5c0.1-0.8,0.2-1.6,0.4-2.4
			c1.2-4.2,3.9-6.7,8.1-7.7c0.8-0.2,1.7-0.2,2.5,0.2c0.7,0.3,1.1,0.8,1.4,1.5c-0.1-1-0.6-1.7-1.4-2.3c-1.4-1-3-1.1-4.6-0.7
			c-3.6,0.8-6.1,2.8-7.7,6.1c-0.1,0.1-0.1,0.3-0.3,0.5c0.2-1.7,0.4-3.3,0.6-4.9c0.2-2.1,0.4-4.2,0.6-6.4c0.2-3.4,0.3-6.8,0.4-10.2
			c0-0.8,0-1.5,0.9-2.1c0.8-0.5,1.2-1.5,1.9-2.3c0-0.1-0.1-0.1-0.1-0.2c-1.7,0.4-3.4,0.8-5.2,1.2c0.1,0.5,0.1,1.1,0.3,1.6
			c0.1,0.2,0.4,0.4,0.6,0.4c0.4,0.1,0.6,0.3,0.6,0.7c0.1,1.3,0.2,2.6,0.2,4c0.2,2.6-0.3,5.2-0.7,7.8c-0.7,3.9-1.4,7.8-2.5,11.6
			c-0.6,1.9-1.3,3.8-2.1,5.6c-0.8,2-2.2,3.5-4.3,4.4c-1.9,0.8-3.8,1.6-5.7,2.4c-0.3,0.1-0.7,0.2-1.1,0.3c0-0.3,0-0.5,0.1-0.7
			c0.4-3.2,0.5-6.5-0.4-9.7c-0.5-1.6-1.2-3.1-2.6-4.2c-0.9-0.7-2-1.1-3.1-1.2c-4-0.3-7.2,1.3-9.8,4.2c-2.4,2.7-4.1,5.8-5.4,9.1
			c-1.1,2.8-2.1,5.6-3.1,8.4c-0.1,0.4-0.3,0.6-0.7,0.7c-2.2,0.5-4.5,0.5-6.8,0.4c-3.1-0.2-6.1-0.7-9.1-1.5c-0.1,0-0.3-0.1-0.4-0.1
			c-0.4-0.1-0.5-0.3-0.5-0.7c0.3-3.3,0.4-6.6,0.8-9.9c0.5-4.2,1-8.4,1.8-12.5c1.3-6.9,2.7-13.7,4.1-20.5c0.5-2.4,1.1-4.8,1.6-7.2
			c-0.1,0.2-0.2,0.4-0.3,0.6c-2.6,6.4-4.4,13-6,19.8c-1.4,6.3-2.6,12.7-3.5,19c-0.6,4.2-1.2,8.5-1.8,12.7c-0.1,0.8-0.2,1.6-0.4,2.5
			c0.8,0.1,1.5,0.2,2.2,0.3c3.3,0.1,6.6,0.2,9.9,0.3c1.5,0,3-0.1,4.5-0.2c2-0.1,3.9,0.4,5.3,2c1-1.3,1.6-2.8,2-4.3
			c1.2-4.8,2.8-9.5,5.3-13.7c0.9-1.6,2.1-3,3.5-4.3c2.1-1.9,4.7-2.5,7.4-2.2c0.3,0,0.7,0,1,0.1c2,0.4,3.1,1.5,3.4,3.7
			c0.3,1.9,0.2,3.8,0.1,5.7c-0.1,1.1-0.3,2.2-0.4,3.4c0,0.4-0.3,0.5-0.6,0.4c-0.5-0.1-0.9-0.3-1.4-0.5c-1.7-0.7-3.4-1.4-5.1-2
			c-0.4-0.2-0.9-0.2-1.4-0.2c-2.1-0.1-2.9,1.2-3.1,2.7c0,0.1,0.1,0.3,0.2,0.4c1.9,1,2.5,2.8,3,4.6c0.7,2.9,0.2,5.7-1,8.3
			c-1.3,2.6-2.7,5.2-4.1,7.7c-0.6,1-0.9,1.9-1,3c-0.2,2.2-0.7,4.3-1.6,6.3c-0.2,0.5-0.5,1-0.9,1.5c-0.8,1.1-1.9,1.7-3.3,1.7
			c-1.9-0.1-3.8-0.1-5.6-0.7c-0.3-0.1-0.5-0.2-0.8-0.3c-1.8-0.8-2.5-2-2.4-3.9c0.1-1.3,0.4-2.6,0.5-3.9c0.1-0.9,0.2-1.8,0.3-2.8
			c1.7-0.4,3.4-1.1,4.4-2.7c1.6-2.4,1.6-4.9,0.4-7.5c-0.4-0.7-1-1.2-1.8-1.2c-2.5,0-5,0.1-7.4,0c-4.2-0.1-8.3-0.2-12.5-0.5
			c-4.5-0.4-9.1-0.9-13.6-1.5c-6.8-0.9-13.6-2.3-20.3-3.8c-7.1-1.6-14.2-3.3-21.1-5.4c-6-1.8-11.9-3.8-17.5-6.6
			c-2.6-1.3-5.1-2.7-7.3-4.6c-1.3-1.2-2.5-2.4-3-4.2c-0.1-0.4-0.1-0.7-0.2-1.2c1.2,0.1,1.5-0.6,1.8-1.6c0.8-3.4,1.7-6.7,2.5-10
			c0.7,0.2,1.4,0.5,2.1,0.5c1.8,0.1,3.2-0.7,4.3-2c2.3-2.7,2.6-7.1,0.8-10.2c-1.1-1.8-2.6-2.9-4.7-2.8c0.3-1.6,1-3.1,0.1-4.7
			c2.5-0.5,4.1-2,4.3-4.5c0.2-2-0.7-3.6-2.5-4.6c0.8-3.1,1.5-6.2,2.3-9.3c0,0,0.1,0,0.1,0c0.4,1.6,0.9,3.2,1.3,4.8
			c2.8,11,5.6,21.9,8.4,32.9c1.5,5.9,2.7,12,4.1,17.9c0.1,0.5,0.2,1,0.3,1.5c0.1,0.7,0.3,1.3,1,1.5c0.7,0.2,1.3-0.1,1.7-0.7
			c2.4-2.9,4.9-5.7,7.3-8.5c11.6-13.3,25.9-22.4,42.9-27.1c5.9-1.6,11.8-2.9,17.9-3.7c4.9-0.7,9.8-1.1,14.7-1.4
			c2.5-0.1,5-0.3,7.4-0.3c1.8,0,3.7,0.2,5.5,0.3c2.3,0.2,4.7,0.3,7,0.5c2.8,0.2,5.6,0.4,8.3,0.6c2.2,0.2,4.4,0.3,6.5,0.5
			c2.7,0.2,5.4,0.4,8.2,0.6c2.6,0.2,5.2,0.4,7.9,0.6c2.8,0.2,5.5,0.4,8.3,0.7C228.6,109.5,228.5,110.6,228.4,111.7z M228.8,107
			c-1.1-0.1-2.2-0.2-3.3-0.2c-2.2-0.2-4.4-0.4-6.6-0.5c-2.7-0.2-5.4-0.4-8-0.6c-2.2-0.2-4.4-0.3-6.5-0.5c-2.8-0.2-5.5-0.4-8.3-0.7
			c-2.2-0.2-4.3-0.3-6.5-0.5c-2.9-0.2-5.9-0.4-8.8-0.7c-2.7-0.2-5.4-0.2-8.2-0.1c-2.9,0.2-5.8,0.3-8.7,0.5c-2.7,0.2-5.5,0.5-8.2,0.9
			c-4.1,0.6-8.1,1.2-12.1,2.1c-11.8,2.6-23,6.8-33.1,13.7c-6.1,4.1-11.5,8.9-16.4,14.3c-2.9,3.2-5.6,6.4-8.4,9.7
			c-0.1,0.1-0.2,0.2-0.3,0.3c-0.5-2.4-0.9-4.7-1.5-7c-1.7-7.3-3.4-14.7-5.3-22c-2.6-10.2-5.2-20.3-7.9-30.5c-0.1-0.3-0.1-0.7,0-1.1
			c0.2-0.9,0.6-1.7,0.9-2.6c5.2,19.9,10.7,39.6,14.5,59.8c0.6-0.8,1.2-1.7,1.9-2.5c10-13.4,22.9-23.1,38.4-29.3
			c6.8-2.8,13.9-4.8,21.2-6.1c4-0.7,8.1-1.4,12.1-1.8c4.2-0.4,8.5-0.6,12.8-0.9c4-0.2,8.1,0.2,12.1,0.4c3.1,0.2,6.3,0.4,9.4,0.6
			c3.5,0.2,6.9,0.5,10.4,0.8c2.9,0.2,5.7,0.4,8.6,0.6c2.8,0.2,5.6,0.4,8.4,0.7c2.2,0.2,4.5,0.3,6.7,0.5c0.2,0,0.4,0,0.6,0.1
			C228.8,105.4,228.8,106.2,228.8,107z"/>
		<path class="st1" d="M128.3,125.5c-5.8,0-10.4,4.5-10.5,10.3c0,5.8,4.6,10.4,10.3,10.4c5.7,0,10.3-4.6,10.3-10.2
			C138.5,130.2,133.9,125.5,128.3,125.5z M134.7,136.2c-0.3,3-3,5.1-6.2,4.8c2.9-0.6,4.7-2.3,4.8-5.2c0.2-2.8-1.4-4.7-4.1-5.7
			C132.6,130.3,134.9,133,134.7,136.2z M128.3,143.9c-3.7,0.1-7-2.3-8.1-5.8c-1.1-3.5,0.4-7.3,3.5-9.3c3.1-1.9,7-1.4,9.2,0.6
			c-2.1-1.2-4.3-1.4-6.5-0.6c-1.7,0.7-3,1.8-3.8,3.5c-1.6,3.3-0.5,7.3,2.5,9.2c3.1,2,7.5,1.4,9.9-2.1
			C134.7,141.6,131.2,143.8,128.3,143.9z"/>
		<path class="st1" d="M138.2,113.6c-2.2,2.3-2.4,6.2-0.4,8.6c1.1,1.4,2.5,2.2,4.4,2.3c0.7-0.2,1.5-0.3,2.1-0.6
			c3.7-1.6,4.9-6.7,2.4-10C144.5,111.2,140.6,111,138.2,113.6z M146.7,119.6c-0.3,0.8-0.8,1.6-1.2,2.3c0,0-0.1-0.1-0.1-0.1
			c-0.1-1.2-0.1-2.3-0.4-3.5c-0.6-2.9-2.5-4.5-5.5-5c0.2-0.1,0.3-0.2,0.4-0.3c2-0.9,3.9-0.8,5.3,0.5
			C146.9,115.1,147.5,117.5,146.7,119.6z"/>
		<path class="st1" d="M215.2,137.8c-0.3,0.2-0.4,0.3-0.6,0.4c-1.3,1-2.3,2.2-3.1,3.7c-1.3,2.4-1.8,4.9-1.9,7.6
			c-0.1,1.9,0,3.8,0.3,5.7c0.7-0.1,1.3-0.4,2-1.2c1.3-1.4,2-3.1,2.6-4.9c1-3.3,1-6.7,0.9-10.1C215.4,138.6,215.3,138.2,215.2,137.8z
			 M211.6,152.7c-0.3,0.4-0.7,0.7-1.1,1c-0.2-1.2,0-2.4,0.3-3.5c0.1-0.6,0.4-0.9,1-1.2c1.9-0.8,2.5-3.3,1.2-4.9
			c-0.7-0.9-0.7-1.9-0.3-2.9c0.5-1.1,1.3-1.9,2.3-2.7C215.1,143.8,214.5,148.5,211.6,152.7z"/>
		<path class="st1" d="M170.5,178.6c0.7-2.4,1.4-4.8,2.1-7.2c0.1-0.2,0.2-0.5,0.4-0.7c0.6-0.8,1.4-1.6,1.9-2.5
			c1.3-2.2,2.2-4.5,1.7-7.1c-0.2-1.3-0.8-2.5-1.9-3.5c-1.5,7.1-3,14.1-4.5,21.2C170.4,178.7,170.5,178.6,170.5,178.6z"/>
		<path class="st1" d="M191,112.2c-1.4,0.4-2.8,0.8-4.2,1.2c-0.2,0.1-0.6,0.3-0.6,0.5c-0.1,0.4,0.1,0.9,0.6,1.1
			c0.2,0.1,0.5,0.1,0.7,0.2c1.6-0.2,2.9-0.8,4.1-1.7c0.3-0.2,0.7-0.8,0.6-1C192.1,111.9,191.5,112.1,191,112.2z"/>
		<path class="st1" d="M114.3,76.1c2.9-2.9,6.3-5.2,9.9-7.1c6.6-3.5,14.1-5.8,22.2-7.4c0.8-0.2,1.6-0.3,2.3-0.5
			c-2.7-0.5-5.5-0.9-8.2-1.3c-5.6-0.8-11.2-1.6-16.7-2.4c-1.5-0.2-3.1,0.2-4,1.9c-3.6,6.2-7.2,12.3-10.9,18.4
			c-1.1,1.8-0.9,3.8,0.5,5.5C110.5,80.5,112.2,78.2,114.3,76.1z"/>
		<path class="st1" d="M80.3,78.7c0.3-0.5,0.5-1,0.8-1.5c2.5-4.4,5.9-8,9.8-11.1c5.6-4.5,12-7.6,18.8-9.7c0.2,0,0.3-0.1,0.5-0.1
			c0-0.1,0-0.1,0-0.2c-4.4,0-8.9,0-13.3,0c-0.5,0-1.1,0-1.6,0.1c-0.9,0.2-1.8,0.5-2.5,1.3c-3,3.9-6,7.8-8.9,11.7
			c-1.6,2.2-3.1,4.4-4.6,6.6C78.2,77.1,78.6,78.2,80.3,78.7z"/>
		<g>
			<path class="st0" d="M201.4,116.4l-0.1-0.5l-0.2-0.5l-0.2-0.4l-0.3-0.4l0,0l0-0.4l0-0.5l-0.1-0.5l0-0.1l0,0l0.1-0.4l0.1-0.4
				l0-0.4l0-0.3l0-0.4l-0.1-0.4l-0.2-0.4l-0.2-0.4l-0.2-0.3l-0.3-0.3l-0.3-0.3l-0.3-0.2l-0.2-0.2l-0.3-0.2l-0.4-0.2l-0.3-0.1
				l-0.3-0.1l-0.3,0l-0.3,0l-0.4,0l-0.3,0l-0.4,0.1l-0.3,0.1l-0.4,0.1l-0.3,0.2l-0.3,0.2l-0.2,0.2l-0.3,0.3l-0.2,0.2l-0.3,0.3
				l-0.2,0.3l-0.1,0.1c-1.1-0.5-2.4-0.6-3.6-0.4l-0.1-0.1l-0.2-0.3l-0.2-0.3l-0.3-0.3l-0.3-0.3l-0.4-0.2l-0.4-0.2l-0.4-0.1L187,108
				l-0.4,0l-0.4,0l-0.4,0l-0.4,0.1l-0.4,0.1l-0.3,0.1c-0.6-0.2-1.3-0.2-2,0l-0.1,0l-0.1,0c-0.2,0.1-0.3,0.1-0.5,0.2
				c-0.7-0.3-1.4-0.3-2.3-0.1l-0.1,0l-0.3,0.1l-0.3,0.2l-0.5,0.3l-0.3,0.2l-0.2,0.2l-0.2,0.2l-0.2,0.2l-0.2,0.2l-0.1-0.1l-0.2-0.3
				l-0.2-0.3l-0.2-0.3l-0.2-0.2l-0.3-0.2l-0.3-0.2l-0.3-0.2l-0.3-0.2l-0.3-0.1l-0.2-0.1l-0.3-0.1l-0.2-0.1l-0.5-0.2l-0.5-0.1
				l-0.5-0.1l-0.3,0l-0.5,0l-0.3,0l-0.5,0l-0.5,0l-0.3,0l-0.5,0.1l-0.3,0.1l-0.5,0.2l-0.3,0.1l-0.3,0.1l-0.2,0.1l-0.2,0.1l-0.3,0.2
				l-0.2,0.1l-0.5,0.3l-0.3,0.2l-0.2,0.2l-0.2,0.2l-0.3,0.3l-0.2,0.2l-0.2,0.3l-0.2,0.3l-0.1,0.3l-0.1,0.3l-0.1,0.3l-0.1,0.3
				l-0.1,0.3l0,0.3l0,0.2l-0.1-0.1l-0.6-0.1l-0.6,0l-0.4,0l-0.4,0.1l-0.4,0.1l-0.3,0.1l-0.2,0.1l-0.1,0l-0.5,0l-0.3,0l-0.3,0
				l-0.4,0.1l-0.4,0.1l-0.3,0.1l-0.4,0.2l-0.4,0.2l-0.3,0.3l-0.3,0.3l-0.3,0.4l-0.3,0.4l-0.2,0.4l-0.2,0.5l-0.1,0.4l-0.1,0.5l0,0.4
				l0,0.3l0.1,0.3l0.1,0.4l0.1,0.3l0.2,0.4l0.2,0.3l0.2,0.3l0.2,0.2l0.3,0.3l0.3,0.3l0,0l0,0.3l0.1,0.4l0.2,0.4l0.2,0.3l0.2,0.3
				l0.2,0.2l0.2,0.2l0.2,0.1l0.3,0.2l0.2,0.1l0.2,0.1l0.3,0.1l0.2,0.1l0.4,0.1l0.3,0l0.5,0l0.6-0.1l0.2-0.1l0.1,0l0.2,0l0.4,0l0.1,0
				l0.1,0l0.1,0l0.1,0l0.3,0l0.1,0l0.3,0.1l0.3,0l0.3,0l0.2,0l-0.2,0.3l-0.1,0.3l-0.1,0.3l-0.1,0.2l-0.1,0.2l-0.1,0.3l0,0.2l0,0.3
				l0,0.2l0,0.2l0,0.3l0,0.3l0,0.3l0.1,0.3l0.1,0.3l0.1,0.3l0.1,0.3l0.1,0.3l0.2,0.3l0.2,0.3l0.2,0.3l0.2,0.2l0.2,0.2l0.2,0.2
				l0.3,0.2l0.3,0.2l0.4,0.3l0.3,0.1l0.2,0.1l0.2,0.1l0.2,0.1l0.2,0.1l0.3,0.1l0.3,0.1l0.3,0.1l0.2,0l0.3,0l0.6,0l0.5,0l0.3,0l0.3,0
				l0.3,0l0.5-0.1l0.3-0.1l0.3-0.1l0.5-0.2l0.3-0.1l0.3-0.1l0.3-0.2l0.5-0.3l0.4-0.3l0.2-0.2l0.4-0.5l0.3-0.4l0.2,0l0.3,0l0.3,0
				l0.3,0l0.3,0l0.3-0.1l0.3-0.1l0.3-0.1l0.3-0.1l0.2-0.1l0.2,0l0.2,0.1l0.2,0l0.3,0l0.2,0l0.3,0l0.3,0l0.3,0l0.2,0.3l0.2,0.2
				l0.3,0.3l0.2,0.2l0.3,0.2l0.3,0.2l0.3,0.1l0.4,0.1l0.4,0.1l0.5,0l0.6-0.1l0.5-0.2l0.4-0.2l0.3-0.2l0.3-0.2l0.2-0.2l0.2-0.2
				l0.2-0.2l0.4-0.4l0.2-0.3l0-0.1l0.5-0.2l0.4-0.2l0.1,0l0.3,0.1l0.2,0.1l0.2,0.1l0.3,0l0.2,0l0.3,0l0.3,0l0.3,0l0.3,0l0.3-0.1
				l0.3-0.1l0.3-0.1l0.3-0.1l0.1,0l0.2,0.1l0.6,0.2l0.6,0l0.5-0.1l0.5-0.1l0.1-0.1l0.3,0l0.4,0l0.3-0.1l0.4-0.1l0.4-0.1l0.4-0.2
				l0.4-0.2l0.3-0.2l0.3-0.3l0.2-0.3l0.3-0.4l0.2-0.4l0.2-0.4l0.1-0.4l0.1-0.4l0-0.4l0-0.4l-0.1-0.5l-0.1-0.5l-0.1-0.2l0-0.1l0-0.5
				l0-0.4l0-0.3l0-0.2l0.4-0.4l0.4-0.5l0.3-0.6l0.2-0.6l0.1-0.6l0-0.6L201.4,116.4z"/>
			<g>
				<path class="st2" d="M164.6,113.8l0.3,0.1l0.4,0.1l0.3,0.2l0.2,0.3l0.2,0.3l0.1,0.3l0,0.3l0,0.2l0.1,0.2l0.1,0.3l0,0.1l0,0
					l0.2,0.1l0.2,0.1l0.2,0.1l0,0l0.2-0.1l0.2-0.1l0.3-0.1l0.3,0l0.3,0l0.2,0l0.2,0l-0.2-0.1l-0.3-0.2l-0.3-0.2l-0.2-0.2l-0.2-0.2
					l-0.1-0.2l-0.1-0.2l-0.1-0.2l-0.1-0.2l-0.1-0.2l-0.1-0.3l0-0.3l0-0.2l0-0.2l0-0.2l0-0.2l0-0.2l0-0.2l0.1-0.2l0.1-0.2l0.1-0.2
					l0.1-0.2l0.1-0.2l0.1-0.2l0.1-0.2l0.2-0.2l0.2-0.2l0.2-0.2l0.2-0.2l0.2-0.1l0.2-0.1l0.2-0.1l0.2-0.1l0.2-0.1l0.2-0.1l0.2-0.1
					l0.2-0.1l0.2-0.1l0.2-0.1l0.2-0.1l0.2,0l0.2,0l0.2,0l0.2,0l0.2,0l0.2,0l0.2,0l0.2,0l0.2,0l0.2,0l0.2,0l0.2,0l0.2,0l0.2,0l0.2,0
					l0.2,0.1l0.2,0.1l0.2,0.1l0.2,0.1l0.2,0.1l0.2,0.1l0.2,0.1l0.2,0.1l0.2,0.1l0.2,0.2l0.2,0.2l0.2,0.2l0.2,0.2l0.1,0.2l0.1,0.2
					l0.1,0.2l0.1,0.2l0.1,0.2l0.1,0.2l0,0.2l0,0.2l0,0.1l0.1,0l0.2,0l0.2,0l0.2,0l0.2,0l0.2,0l0.2,0l0.2,0l0.1,0l0,0l0-0.3l0.1-0.3
					l0.1-0.3l0.1-0.2l0.1-0.2l0.2-0.2l0.2-0.2l0.2-0.1l0.2-0.1l0.2-0.1l0.2-0.1l0.2-0.1l0.2-0.1l0.2-0.1c0.7-0.2,1.4-0.1,1.8,0.5
					c0.3-0.3,0.7-0.5,1.1-0.6c0.7-0.2,1.1-0.1,1.7,0.3l0,0l0.1-0.1l0.2-0.2l0.2-0.1l0.2-0.1l0.2-0.1l0.2,0l0.2,0l0.2,0l0.2,0l0.2,0
					l0.2,0.1l0.2,0.1l0.2,0.1l0.2,0.1l0.2,0.2l0.1,0.2l0.1,0.2l0.1,0.2l0.1,0.2l0.1,0.2l0,0.2l0,0.2l0,0.2l0,0.1
					c1.3-0.7,3.5-0.8,4.6,0.2l0.1,0.1l0.1-0.1l0.3-0.2l0.3-0.1l0.3-0.1l0.2-0.1l0-0.2l0.1-0.2l0.1-0.2l0.1-0.2l0.1-0.2l0.2-0.2
					l0.2-0.1l0.2-0.1l0.2-0.1l0.2-0.1l0.2-0.1l0.2-0.1l0.2,0l0.2,0l0.2,0l0.2,0l0.2,0l0.2,0.1l0.2,0.1l0.2,0.1l0.2,0.1l0.2,0.1
					l0.2,0.1l0.2,0.2l0.2,0.2l0.1,0.2l0.1,0.2l0.1,0.2l0.1,0.2l0,0.2l0,0.2l0,0.2l0,0.2l-0.1,0.2l-0.1,0.2l-0.1,0.2l-0.1,0.1l0,0.1
					l0.1,0.2l0.1,0.3l0,0.3l0,0.4l0,0.3l-0.1,0.3l-0.1,0.3l0.1,0.1l0.2,0.2l0.2,0.2l0.2,0.2l0.1,0.3l0.1,0.3l0.1,0.3l0,0.3l0,0.4
					l-0.1,0.4l-0.1,0.4l-0.2,0.4l-0.2,0.3l-0.3,0.3l-0.3,0.3l-0.3,0.2l-0.2,0.1l-0.1,0l0.1,0.1l0.1,0.2l0.1,0.2l0.1,0.2l0.1,0.2
					l0,0.2l0,0.2l0,0.2l0,0.3l-0.1,0.4l0,0.1l0.1,0.2l0.1,0.3l0.1,0.3l0,0.3l0,0.3l0,0.3l-0.1,0.3l-0.1,0.3l-0.1,0.3l-0.1,0.3
					l-0.2,0.2l-0.2,0.2l-0.2,0.2l-0.2,0.2l-0.2,0.1l-0.2,0.1l-0.3,0.1l-0.3,0.1l-0.3,0.1l-0.3,0l-0.2,0l-0.2,0l-0.1,0l-0.1,0.1
					l-0.2,0.1l-0.3,0.1l-0.3,0l-0.3,0l-0.3-0.1l-0.3-0.1l-0.2-0.2l-0.1-0.1l-0.1,0l-0.2,0.1l-0.2,0.1l-0.2,0.1l-0.2,0.1l-0.2,0.1
					l-0.2,0l-0.2,0l-0.2,0l-0.2,0l-0.2,0l-0.2,0l-0.2,0l-0.2,0l-0.2,0l-0.2,0l-0.2-0.1l-0.2-0.1l-0.2-0.1l-0.2-0.1l-0.2-0.1
					l-0.1-0.1l-0.1-0.1l0,0l-0.3,0.3L189,126l-0.3,0.2l-0.3,0.1l-0.4,0.1l0,0l0,0l-0.1,0.2l-0.1,0.2l-0.2,0.2l-0.2,0.2l-0.2,0.2
					l-0.2,0.2l-0.2,0.2l-0.2,0.1l-0.2,0.1l-0.2,0.1l-0.2,0.1l-0.3,0.1l-0.3,0.1l-0.3,0l-0.2,0l-0.2-0.1l-0.2-0.1l-0.2-0.1l-0.1-0.1
					l-0.1-0.1l-0.1-0.1l-0.1-0.1l-0.1-0.1l-0.1-0.1l-0.1-0.1l-0.1-0.2l-0.1-0.2l0-0.2l0-0.2l0-0.2l0,0l-0.2,0.1l-0.2,0.1l-0.2,0.1
					l-0.2,0l-0.2,0l-0.2,0l-0.2,0l-0.2,0l-0.2,0l-0.2,0l-0.2,0l-0.2,0l-0.2,0l-0.2,0l-0.2-0.1l-0.2-0.1l-0.2-0.1l-0.2-0.1l-0.1,0
					l0,0l-0.2,0.2l-0.2,0.1l-0.2,0.1l-0.2,0.1l-0.2,0.1l-0.2,0.1l-0.2,0.1l-0.2,0l-0.2,0l-0.2,0l-0.2,0l-0.2,0l-0.2,0l-0.2,0l-0.2,0
					l-0.2,0l-0.2-0.1l-0.1,0l-0.1,0.2l-0.1,0.2l-0.1,0.2l-0.1,0.2l-0.1,0.2l-0.1,0.2l-0.2,0.2l-0.2,0.2l-0.2,0.1l-0.2,0.1l-0.2,0.1
					l-0.2,0.1l-0.2,0.1l-0.2,0.1l-0.2,0.1l-0.2,0.1l-0.2,0.1l-0.2,0.1l-0.2,0.1l-0.2,0.1l-0.2,0l-0.2,0l-0.2,0l-0.2,0l-0.2,0l-0.2,0
					l-0.2,0l-0.2,0l-0.2,0l-0.2,0l-0.2,0l-0.2,0l-0.2-0.1l-0.2-0.1l-0.2-0.1l-0.2-0.1l-0.2-0.1l-0.2-0.1l-0.2-0.1l-0.2-0.1l-0.2-0.1
					l-0.2-0.1l-0.2-0.1l-0.2-0.2l-0.2-0.2l-0.2-0.2l-0.1-0.2l-0.1-0.2l-0.1-0.2l-0.1-0.2l-0.1-0.2l-0.1-0.2l-0.1-0.2l0-0.2l0-0.2
					l0-0.2l0-0.2l0-0.2l0-0.2l0-0.2l0-0.2l0-0.2l0-0.2l0-0.2l0.1-0.2l0.1-0.2l0.1-0.2l0.1-0.2l0.1-0.1l0.1-0.1l0.1-0.1l0.1-0.1
					l0.1-0.1l0.1-0.1l0.1-0.1l0,0l-0.1-0.1l-0.1-0.2l-0.1-0.2l-0.1-0.2l-0.1-0.2l0-0.2l0-0.2l0-0.2l0-0.1l-0.1,0l-0.3-0.1l-0.3-0.1
					l-0.2-0.1l-0.2,0.1l-0.3,0.2l-0.3,0.1l-0.3,0l-0.2,0l-0.1,0l-0.1,0l-0.1,0l-0.1,0l0,0l0,0l-0.2,0l-0.2,0l-0.1,0l0,0l-0.1,0
					l-0.1,0l-0.1,0l-0.1,0l-0.1,0l-0.2,0l-0.1,0l-0.2,0l-0.2,0l-0.1,0l0,0l-0.2,0.1l-0.3,0.1l-0.3,0.1l-0.2,0l-0.2,0l-0.2,0l-0.1,0
					l-0.1-0.1l-0.1-0.1l-0.1-0.1l-0.1-0.1l-0.1-0.1l-0.1-0.1l-0.1-0.1l-0.1-0.1l-0.1-0.2l-0.1-0.2l-0.1-0.2l0-0.2l0-0.2l0-0.2l0-0.1
					l0-0.1l0-0.1l-0.1,0l-0.3-0.1l-0.2-0.1l-0.2-0.1l-0.2-0.2l-0.2-0.2l-0.2-0.2l-0.1-0.2l-0.1-0.2l-0.1-0.2l-0.1-0.2l-0.1-0.2
					l0-0.2l0-0.2l0-0.3l0-0.3l0.1-0.3l0.1-0.3l0.1-0.3l0.2-0.3l0.2-0.2l0.2-0.2l0.2-0.2l0.2-0.1l0.2-0.1l0.2-0.1l0.3-0.1l0.3-0.1
					l0.3,0l0.3,0l0.1,0l0.1,0l0.1,0l0.1,0l0.1,0l0.1,0l0.1,0l0.1,0l0.1,0l0.1,0l0,0l0.1-0.1l0.1-0.1l0.1-0.1l0.1-0.1l0.2-0.1
					l0.2-0.1l0.2,0l0.2,0L164.6,113.8z M163.5,116.4l0.1,2.5c0.2,0,0.4,0.1,0.4,0.3c0,0.1-0.1,0.4-0.5,0.7c-0.3,0.3-0.6,0.5-0.7,0.5
					c-0.1,0-0.2,0-0.2-0.1c-0.1-0.1-0.1-0.1-0.1-0.2c0-0.1,0-0.2,0.1-0.4c0.1-0.2,0.1-0.3,0.1-0.4c0-0.2,0.1-0.4,0-0.6
					c0,0.2,0,0,0-0.4l-0.1-2c-0.1,0-0.3-0.1-0.4,0c-0.6,0-0.8,0.3-0.8,0.7c0,0.1,0,0.2,0.1,0.3c0.1,0.1,0.2,0.1,0.3,0.1
					c0,0,0.1,0,0.2-0.1c0.1,0,0.1-0.1,0.2-0.1c0.1,0,0.2,0,0.3,0.1c0.1,0.1,0.1,0.1,0.1,0.2c0,0.2-0.1,0.4-0.2,0.5
					c-0.1,0.1-0.3,0.2-0.5,0.2c-0.3,0-0.6-0.1-0.9-0.3c-0.2-0.2-0.4-0.5-0.4-0.8c0-0.5,0.1-0.8,0.4-1.1c0.3-0.2,0.7-0.4,1.1-0.4
					c0.1,0,0.3,0,0.6,0c0.3,0,0.5,0,0.6,0c0.2,0,0.3-0.1,0.5-0.2c0,0,0.1-0.1,0.2-0.3c0.1-0.1,0.2-0.1,0.3-0.1
					c0.3,0,0.4,0.1,0.5,0.4c0,0.5-0.3,0.8-0.9,0.8C163.8,116.4,163.7,116.4,163.5,116.4L163.5,116.4z M196,120.2
					c0.1-0.2,0.3-0.4,0.5-0.4c0.2,0,0.4,0.2,0.6,0.5c0.2,0.3,0.3,0.6,0.3,0.8c0,0.3-0.1,0.4-0.5,0.4c-0.2,0-0.4-0.1-0.7-0.3
					s-0.5-0.3-0.6-0.3c-0.1,0-0.2,0-0.3,0.1c-0.1,0.1-0.1,0.2-0.1,0.3c0,0.2,0.2,0.3,0.6,0.4c0.6,0.2,1,0.3,1.1,0.4
					c0.4,0.2,0.6,0.5,0.6,0.9c0,0.4-0.1,0.8-0.4,1c-0.3,0.3-0.6,0.4-1.1,0.4c-0.2,0-0.5,0-0.7-0.1c-0.2,0.2-0.4,0.4-0.6,0.4
					c-0.2,0-0.5-0.2-0.7-0.5c-0.2-0.3-0.3-0.6-0.4-0.8c0-0.3,0.2-0.5,0.5-0.5c0.1,0,0.4,0.1,0.8,0.4s0.7,0.4,0.8,0.4
					c0.3,0,0.5-0.2,0.5-0.4c0-0.2-0.2-0.4-0.6-0.5c-0.7-0.2-1.1-0.3-1.2-0.4c-0.4-0.2-0.6-0.5-0.7-0.9c0-0.4,0.1-0.7,0.3-1
					c0.2-0.3,0.6-0.4,0.9-0.4C195.5,120.1,195.7,120.1,196,120.2L196,120.2z M190.9,123c0,0.2,0.1,0.4,0.3,0.5
					c0.2,0.1,0.4,0.2,0.6,0.2c0.2,0,0.4-0.1,0.7-0.2c0.3-0.2,0.4-0.2,0.5-0.2c0.4,0,0.6,0.1,0.6,0.5c0,0.3-0.2,0.6-0.6,0.8
					c-0.3,0.2-0.7,0.3-1.1,0.3c-0.6,0-1.2-0.2-1.6-0.6c-0.4-0.4-0.6-0.9-0.6-1.6c0-0.6,0.1-1.1,0.5-1.6c0.4-0.4,0.8-0.7,1.4-0.7
					c0.6,0,1,0.1,1.4,0.4s0.6,0.7,0.6,1.2c0,0.6-0.4,0.9-1.4,1c-0.1,0-0.4,0-0.6,0C191.2,122.9,191,122.9,190.9,123L190.9,123z
					 M191.5,122.1c0.6,0,0.9-0.2,0.8-0.4c0-0.3-0.3-0.4-0.7-0.4c-0.3,0-0.5,0.1-0.6,0.2c-0.2,0.1-0.3,0.3-0.3,0.6L191.5,122.1z
					 M186.1,121.2c0.4-0.4,0.8-0.6,1.1-0.6c0.6,0,1,0.2,1.4,0.6c0.3,0.4,0.5,0.9,0.5,1.5c0,0.6-0.1,1.1-0.3,1.5
					c-0.3,0.5-0.7,0.8-1.3,0.8c-0.3,0-0.5,0-0.7-0.1c-0.3-0.1-0.4-0.3-0.4-0.6c0-0.3,0.1-0.5,0.4-0.5l0.2,0c0.1,0,0.2,0,0.2,0
					c0.2,0,0.4-0.1,0.6-0.4c0.1-0.2,0.2-0.4,0.2-0.7c0-0.3-0.1-0.5-0.3-0.7c-0.2-0.2-0.4-0.3-0.7-0.3c-0.3,0-0.6,0.2-0.7,0.4
					c-0.1,0.2-0.2,0.5-0.2,0.8l0.1,1.9c0.4,0,0.6,0.2,0.6,0.5c0,0.2-0.2,0.5-0.6,0.9c-0.4,0.4-0.7,0.6-0.9,0.6c-0.1,0-0.2,0-0.3-0.2
					c-0.1-0.1-0.2-0.2-0.2-0.3c0-0.1,0.1-0.3,0.2-0.5c0.1-0.1,0.1-0.5,0-1.2l-0.1-2.4l-0.1,0c-0.1,0-0.2,0-0.4-0.1
					c-0.1-0.1-0.2-0.2-0.2-0.3c0-0.2,0.2-0.4,0.5-0.7c0.4-0.3,0.6-0.4,0.8-0.5C185.7,120.7,185.9,120.9,186.1,121.2L186.1,121.2z
					 M181.7,120.9c0.7,0,1.2,0.1,1.6,0.5c0.4,0.4,0.6,0.9,0.6,1.6c0,0.7-0.1,1.2-0.4,1.6c-0.3,0.4-0.8,0.7-1.5,0.7
					c-0.7,0-1.2-0.1-1.6-0.5c-0.4-0.4-0.6-0.9-0.6-1.5c0-0.6,0.1-1.2,0.4-1.6C180.6,121.2,181.1,120.9,181.7,120.9L181.7,120.9z
					 M182,124.3c0.6,0,0.9-0.5,0.8-1.3c0-0.3-0.1-0.5-0.3-0.7c-0.2-0.2-0.4-0.3-0.7-0.3s-0.5,0.2-0.7,0.4c-0.1,0.2-0.2,0.5-0.2,0.8
					C181,123.9,181.3,124.3,182,124.3L182,124.3z M175.8,123.5c0-0.6,0.1-1.2,0.5-1.7c0.4-0.5,0.9-0.7,1.5-0.7c0.3,0,0.7,0,1,0.2
					c0.4,0.2,0.6,0.4,0.6,0.7c0,0.2,0,0.3-0.2,0.4c-0.1,0.1-0.3,0.2-0.4,0.2c0,0-0.2-0.1-0.5-0.2c-0.3-0.2-0.5-0.2-0.7-0.2
					c-0.3,0-0.5,0.2-0.6,0.4c-0.1,0.2-0.1,0.5-0.1,0.8c0,0.3,0.1,0.5,0.3,0.7c0.2,0.2,0.4,0.3,0.7,0.3c0.2,0,0.4-0.1,0.7-0.2
					c0.3-0.1,0.5-0.2,0.5-0.2c0.1,0,0.2,0,0.3,0.2c0.1,0.1,0.2,0.2,0.2,0.3c0,0.3-0.2,0.6-0.6,0.8c-0.3,0.2-0.7,0.3-1,0.3
					c-0.7,0-1.2-0.2-1.6-0.6C176.1,124.7,175.9,124.1,175.8,123.5L175.8,123.5z M174.5,120.9c0,0.1,0,0.3-0.1,0.4
					c-0.1,0.1-0.2,0.2-0.4,0.2c-0.1,0-0.3-0.1-0.6-0.3c-0.2-0.1-0.3-0.3-0.5-0.4c-0.2-0.2-0.5-0.2-0.8-0.2c-0.2,0-0.4,0.1-0.6,0.2
					c-0.2,0.1-0.2,0.3-0.2,0.5c0,0.3,0.4,0.5,1.2,0.8c0.9,0.3,1.5,0.5,1.9,0.8c0.8,0.5,1.1,1.2,1.2,2.2c0.1,0.9-0.2,1.6-0.8,2.2
					c-0.6,0.5-1.3,0.9-2.3,0.9c-0.9,0.1-1.7-0.1-2.3-0.5c-0.7-0.5-1.1-1.1-1.2-2c0-0.6,0.1-1.1,0.5-1.6c0.4-0.4,0.9-0.6,1.5-0.7
					c0.3,0,0.5,0,0.7,0.1c0.3,0.1,0.4,0.3,0.4,0.6c0,0.3-0.1,0.5-0.4,0.6c0,0-0.3,0.1-0.8,0.2c-0.3,0.1-0.4,0.4-0.4,0.8
					c0,0.4,0.2,0.8,0.6,1c0.3,0.2,0.8,0.3,1.2,0.3c0.5,0,1-0.2,1.3-0.5c0.3-0.3,0.5-0.7,0.5-1.2c0-0.1,0-0.2,0-0.3
					c-0.1-0.5-0.3-0.8-0.7-1.1c-0.2-0.1-0.7-0.3-1.3-0.5c-0.7-0.2-1.2-0.4-1.5-0.6c-0.5-0.3-0.8-0.8-0.8-1.4c0-0.4,0.2-0.8,0.5-1.1
					c0.4-0.4,0.9-0.6,1.5-0.6c0.2,0,0.5,0,0.8,0.1c0,0,0.1-0.1,0.3-0.2c0.1-0.1,0.2-0.1,0.4-0.1c0.3,0,0.6,0.2,0.9,0.7
					C174.4,120.3,174.5,120.6,174.5,120.9L174.5,120.9z M173.8,114.8c0.4,1,0.8,1.8,1.4,2.5c0.8,0.9,1.6,1.4,2.5,1.3
					c0.3,0,0.6-0.1,1.1-0.4c0.5-0.2,0.8-0.3,0.8-0.4c0.2,0,0.4,0,0.6,0.2c0.2,0.1,0.3,0.3,0.3,0.5c0,0.5-0.3,0.9-0.8,1.3
					c-0.5,0.3-1,0.5-1.6,0.5c-1.4,0.1-2.6-0.5-3.6-1.8c-0.8-1-1.4-2.2-1.8-3.8l-0.3,0l0.1,1.1c0.4,0.1,0.6,0.2,0.6,0.5
					c0,0.3-0.2,0.7-0.7,1.2c-0.5,0.6-0.9,0.8-1.1,0.9c-0.2,0-0.3,0-0.5-0.1c-0.1-0.1-0.2-0.3-0.2-0.4c0-0.1,0.1-0.3,0.3-0.6
					c0.2-0.2,0.3-0.7,0.2-1.5l-0.1-2.4c0-0.1-0.1-0.2-0.3-0.4c-0.2-0.2-0.3-0.3-0.3-0.3c0-0.4,0.3-0.6,1.1-0.6
					c0.6,0,0.9,0.1,0.9,0.4c0,0.1,0,0.2-0.1,0.4c-0.1,0.2-0.1,0.4-0.1,0.5l0,0.5c0.2,0,0.4,0,0.5,0c0.4,0,0.7-0.1,1-0.3
					c0.3-0.2,0.5-0.5,0.4-0.9c0-0.5-0.3-0.9-0.8-1.1c-0.4-0.2-0.9-0.3-1.4-0.3c-0.6,0-1,0.2-1.5,0.4c-0.5,0.3-0.8,0.7-0.8,1.2
					c0,0.2,0.2,0.5,0.4,0.8s0.4,0.6,0.4,0.6c0,0.2,0,0.4-0.2,0.5c-0.1,0.1-0.3,0.2-0.5,0.2c-0.4,0-0.8-0.2-1.1-0.6
					c-0.3-0.4-0.4-0.8-0.4-1.2c-0.1-0.9,0.3-1.7,1-2.3c0.6-0.5,1.4-0.8,2.4-0.9c1-0.1,1.8,0.1,2.5,0.5c0.8,0.4,1.2,1.1,1.3,2
					c0,0.6-0.1,1.1-0.4,1.5C174.8,114.4,174.4,114.7,173.8,114.8L173.8,114.8z M177.4,113.6c0.7,0,1.2,0.1,1.6,0.5
					c0.4,0.4,0.6,0.9,0.6,1.6c0,0.7-0.1,1.2-0.4,1.6c-0.3,0.4-0.8,0.7-1.5,0.7c-0.7,0-1.2-0.1-1.6-0.5c-0.4-0.4-0.6-0.9-0.6-1.5
					c0-0.6,0.1-1.2,0.5-1.6C176.2,113.9,176.7,113.6,177.4,113.6L177.4,113.6z M177.6,117c0.6,0,0.9-0.5,0.8-1.3
					c0-0.3-0.1-0.5-0.3-0.7c-0.2-0.2-0.4-0.3-0.7-0.3c-0.3,0-0.5,0.2-0.7,0.4c-0.1,0.2-0.2,0.5-0.2,0.8
					C176.6,116.6,177,117,177.6,117L177.6,117z M180.4,112.7l-0.2,0c-0.1,0-0.2,0-0.3-0.1c-0.1-0.1-0.1-0.2-0.1-0.3
					c0-0.2,0.2-0.4,0.5-0.7c0.3-0.3,0.6-0.4,0.8-0.4c0.2,0,0.4,0.4,0.5,1.2c0,0.1,0,0.6,0.1,1.5l0.2,2.7c0,0,0.1,0.1,0.3,0.3
					c0.2,0.2,0.3,0.3,0.3,0.4c0,0.3-0.3,0.5-0.8,0.6c-0.1,0-0.2,0-0.3,0c-0.1,0-0.2,0-0.3,0c-0.4,0-0.6,0-0.7,0
					c-0.2,0-0.4-0.2-0.4-0.5c0-0.1,0.1-0.2,0.3-0.4c0.2-0.2,0.2-0.4,0.2-0.6L180.4,112.7z M183.2,112.5l-0.2,0c-0.1,0-0.2,0-0.3-0.1
					c-0.1-0.1-0.1-0.2-0.1-0.3c0-0.2,0.2-0.4,0.5-0.7c0.3-0.3,0.6-0.4,0.8-0.4c0.2,0,0.4,0.4,0.5,1.2c0,0.1,0,0.6,0.1,1.5l0.2,2.7
					c0,0,0.1,0.1,0.3,0.3c0.2,0.2,0.3,0.3,0.3,0.4c0,0.3-0.3,0.5-0.8,0.6c-0.1,0-0.2,0-0.3,0c-0.1,0-0.2,0-0.3,0c-0.4,0-0.6,0-0.7,0
					c-0.2,0-0.4-0.2-0.4-0.5c0-0.1,0.1-0.2,0.3-0.4c0.2-0.2,0.3-0.4,0.2-0.6L183.2,112.5z M186.6,110.8c0.3,0,0.5,0.1,0.6,0.2
					c0.2,0.2,0.3,0.4,0.3,0.7c0,0.2-0.1,0.5-0.2,0.6c-0.2,0.2-0.4,0.3-0.6,0.3c-0.2,0-0.4-0.1-0.6-0.2c-0.2-0.2-0.3-0.4-0.3-0.6
					c0-0.3,0-0.5,0.2-0.7C186.1,110.9,186.3,110.8,186.6,110.8L186.6,110.8z M185.8,117c0-0.1,0.2-0.3,0.5-0.5
					c0.1-0.1,0.1-0.6,0.1-1.4c0-0.3,0-0.5-0.1-0.5l-0.4-0.1c-0.1,0-0.2-0.1-0.2-0.3c0-0.2,0.2-0.4,0.5-0.7c0.4-0.3,0.6-0.5,0.8-0.5
					c0.2,0,0.3,0.2,0.4,0.8c0,0.2,0.1,0.5,0.1,1.1l0.1,1.2c0,0.1,0.1,0.3,0.4,0.5c0.2,0.2,0.4,0.4,0.4,0.5c0,0.3-0.2,0.4-0.6,0.4
					l-1,0.1c-0.3,0-0.5,0-0.6,0C185.9,117.3,185.8,117.2,185.8,117L185.8,117z M189.3,114.3l-0.1,0c-0.1,0-0.3,0-0.4-0.1
					c-0.1-0.1-0.2-0.2-0.2-0.3c0-0.2,0.1-0.4,0.5-0.7c0.3-0.3,0.6-0.5,0.8-0.5c0.2,0,0.3,0.1,0.4,0.2c0,0.1,0.1,0.3,0.1,0.6
					c0.4-0.6,0.8-0.9,1.4-0.9c0.7,0,1.2,0.5,1.2,1.6l0.1,1.1c0.1,0,0.2,0,0.4,0.1c0.1,0.1,0.2,0.2,0.2,0.3c0,0.2-0.2,0.5-0.6,0.9
					c-0.4,0.4-0.7,0.6-0.9,0.6c-0.1,0-0.3,0-0.4-0.1s-0.2-0.2-0.2-0.3c0,0.1,0,0.1,0,0.1c0,0,0.1-0.2,0.1-0.6c0.1-0.6,0.1-1,0.1-1.1
					c0-0.4-0.1-0.7-0.1-0.8c-0.1-0.3-0.3-0.5-0.5-0.5c-0.4,0-0.7,0.3-0.8,0.7c0,0.2,0,0.5,0,1.1c0,0.2,0.1,0.4,0.4,0.6
					c0.2,0.2,0.4,0.3,0.4,0.4c0,0.3-0.5,0.5-1.6,0.6c-0.6,0-0.9-0.1-0.9-0.5c0-0.1,0.1-0.2,0.2-0.3c0.2-0.1,0.3-0.2,0.3-0.3
					c0.1-0.1,0.2-0.4,0.1-0.6L189.3,114.3z M194.7,115.4c-0.6-0.3-0.9-0.7-0.9-1.1c-0.1-1,0.7-1.6,2.4-1.7c-0.1-0.3-0.2-0.5-0.2-0.7
					c0-0.2,0.1-0.5,0.3-0.6c0.2-0.2,0.4-0.3,0.7-0.3c0.2,0,0.5,0.1,0.7,0.2c0.2,0.2,0.3,0.3,0.3,0.6c0,0.2,0,0.3-0.2,0.4
					c-0.1,0.1-0.3,0.2-0.4,0.2c-0.2,0-0.3,0-0.5-0.1c-0.1,0-0.1,0-0.1,0c0,0,0,0.1,0,0.1c0,0.1,0.2,0.3,0.5,0.6
					c0.3,0.3,0.5,0.6,0.5,0.9c0,0.5-0.2,0.9-0.6,1.2c-0.2,0.1-0.6,0.3-1.2,0.4c-0.4,0.1-0.7,0.2-0.7,0.4c0,0.2,0.3,0.3,0.8,0.3
					c0.1,0,0.3,0,0.5-0.1c0.2,0,0.4-0.1,0.5-0.1c0.4,0,0.7,0,1,0.2c0.3,0.2,0.5,0.5,0.5,0.8c0,0.6-0.3,1-0.9,1.4
					c-0.5,0.3-1.1,0.5-1.7,0.5c-0.5,0-1,0-1.4-0.1c-0.6-0.2-0.9-0.5-0.9-0.9c0-0.2,0.1-0.3,0.2-0.5c0.1-0.1,0.3-0.2,0.5-0.2
					c0.2,0,0.4,0.1,0.8,0.5c0.3,0.3,0.6,0.5,0.9,0.5c0.3,0,0.5-0.1,0.7-0.2c0.3-0.1,0.4-0.3,0.4-0.6c0-0.3-0.3-0.5-0.9-0.4
					c-0.1,0-0.2,0-0.4,0c-0.2,0-0.3,0-0.4,0c-0.5,0-0.8,0-1,0c-0.4-0.1-0.6-0.3-0.6-0.7C193.9,116,194.2,115.7,194.7,115.4
					L194.7,115.4z M195.8,114.6c0.6,0,0.9-0.2,0.9-0.6c0-0.4-0.3-0.6-0.8-0.5c-0.2,0-0.4,0.1-0.5,0.2c-0.2,0.1-0.2,0.3-0.2,0.5
					C195.1,114.5,195.3,114.7,195.8,114.6L195.8,114.6z M164.4,117.3c-0.2,0-0.4-0.1-0.4-0.3c0-0.1,0.1-0.3,0.3-0.4
					c0.2-0.2,0.4-0.3,0.5-0.3c0.2,0,0.3,0.1,0.3,0.4l0.1,1.2c0.2-0.2,0.4-0.4,0.7-0.4c0.3,0,0.5,0,0.6,0.2c0.1,0.1,0.2,0.3,0.2,0.6
					l0,0.8c0.2,0,0.3,0.1,0.3,0.3c0,0.1,0,0.1,0,0.2c-0.3,0.5-0.5,0.7-0.9,0.7c-0.1,0-0.2,0-0.2-0.1c-0.1,0-0.1-0.1-0.1-0.2
					c0-0.1,0-0.2,0.1-0.3c0.1-0.2,0.1-0.3,0.1-0.4c0-0.3,0-0.5-0.1-0.6c-0.1-0.3-0.2-0.4-0.3-0.4c-0.2,0-0.4,0.2-0.4,0.4
					c0,0.1,0,0.3,0,0.6c0,0.1,0.1,0.3,0.2,0.4c0.1,0.1,0.2,0.2,0.2,0.2c0,0.2-0.2,0.3-0.7,0.3c0,0-0.2,0-0.6,0c-0.1,0-0.1,0-0.2-0.1
					c0-0.1-0.1-0.1-0.1-0.2c0-0.1,0-0.1,0.1-0.2c0.1-0.1,0.2-0.1,0.2-0.1c0.1-0.1,0.1-0.2,0.1-0.4L164.4,117.3z M168.1,119
					c0,0.1,0.1,0.2,0.2,0.3c0.1,0.1,0.2,0.1,0.4,0.1c0.1,0,0.2-0.1,0.4-0.1c0.2-0.1,0.3-0.1,0.3-0.1c0.2,0,0.3,0.1,0.3,0.3
					c0,0.2-0.1,0.4-0.4,0.5c-0.2,0.1-0.4,0.2-0.6,0.2c-0.4,0-0.7-0.1-0.9-0.4c-0.2-0.2-0.4-0.5-0.4-0.9c0-0.4,0.1-0.7,0.3-0.9
					c0.2-0.3,0.5-0.4,0.8-0.4c0.3,0,0.6,0.1,0.8,0.2c0.2,0.2,0.4,0.4,0.4,0.7c0,0.4-0.3,0.6-0.8,0.6c-0.1,0-0.2,0-0.4,0
					C168.4,119,168.2,119,168.1,119L168.1,119z M168.5,118.5c0.3,0,0.5-0.1,0.5-0.2c0-0.2-0.1-0.2-0.4-0.2c-0.2,0-0.3,0.1-0.4,0.1
					c-0.1,0.1-0.2,0.2-0.1,0.4L168.5,118.5z"/>
			</g>
		</g>
		<g>
			<g>
				<path class="st3" d="M179.8,131.3c-0.2,0.1-0.4,0.4-0.7,0.6c0,0,0,0,0,0.1c0,0.9-1,1.8-1.9,1.8c-0.7-0.1-0.9-0.6-0.9-1.2
					c0.1-0.9,0.9-2,1.8-1.9c0.3,0,0.6,0.1,0.7,0.4c0,0.1-0.1,0.2-0.2,0.2c-0.1,0-0.3-0.1-0.4-0.1c-0.6,0-1,0.8-1.1,1.4
					c0,0.5,0.1,0.8,0.4,0.8c0.3,0,0.8-0.4,0.8-1c0-0.1,0-0.2,0-0.3c-0.1,0-0.2,0-0.3-0.1c-0.1-0.3,0-0.6,0.4-0.6
					c0.2,0,0.4,0.1,0.5,0.3c0.3-0.1,0.5-0.4,0.8-0.6C179.9,131.1,179.9,131.3,179.8,131.3z"/>
			</g>
			<g>
				<path class="st3" d="M182,132.8c-0.1,0.3,0,0.4,0.2,0.4c0.1,0,0.3-0.1,0.4-0.3c0.1,0,0.2,0.1,0.2,0.2c0,0.4-0.5,0.7-0.9,0.8
					c-0.3,0-0.8-0.1-0.7-0.9c0.1-0.5,0.2-0.7,0.3-1.2c0.1-0.3,0-0.4-0.2-0.4c-0.2,0-0.4,0.2-0.6,0.3c-0.2,0.7-0.2,1-0.4,1.7
					c-0.1,0.3-0.3,0.4-0.6,0.4c-0.1,0-0.2,0-0.3-0.1c0.3-0.9,0.4-1.4,0.6-2.3c0-0.1,0-0.2-0.1-0.2c0,0-0.1,0-0.1,0.1
					c-0.1-0.1-0.1-0.2,0-0.3c0.2-0.2,0.4-0.3,0.7-0.3c0.2,0,0.4,0.1,0.3,0.3c0,0.1,0,0.2-0.1,0.3c0.3-0.4,0.7-0.6,1-0.6
					c0.3,0,0.6,0.2,0.5,0.9C182.2,132.1,182.1,132.3,182,132.8z"/>
			</g>
			<g>
				<path class="st3" d="M185.6,130.8c-0.1,0.7-0.1,1.1-0.2,1.8c0,0.4,0.1,0.4,0.2,0.4c0.2,0,0.5-0.2,0.7-0.4c0.1,0,0.1,0.1,0.1,0.1
					c0,0,0,0.1,0,0.1c-0.3,0.4-0.8,0.7-1.2,0.8c-0.4,0-0.7-0.2-0.6-0.9c0.1-0.8,0.2-1.1,0.2-1.9c-0.1,0-0.2,0-0.3,0
					c0-0.2,0-0.4,0.2-0.4c0.1,0,0.1,0,0.1,0c0-0.2,0-0.3,0.1-0.5c0-0.3,0.3-0.4,0.5-0.4c0.1,0,0.2,0,0.3,0c0,0.3,0,0.5-0.1,0.8
					c0.2,0,0.3,0,0.5-0.1c0.1,0.2,0,0.4-0.2,0.4C185.8,130.8,185.7,130.8,185.6,130.8z"/>
			</g>
			<g>
				<path class="st3" d="M189.3,130.4c-0.1,0.2-0.3,0.5-0.6,0.7c0,0,0,0,0,0.1c0.2,0.9-0.6,2-1.4,2.1c-0.7,0.1-1.1-0.4-1.1-0.9
					c-0.1-0.9,0.4-2.2,1.3-2.3c0.3-0.1,0.6,0,0.8,0.2c0,0.1-0.1,0.2-0.2,0.2c-0.1,0-0.3,0-0.4,0c-0.6,0.1-0.8,1-0.7,1.6
					c0.1,0.5,0.3,0.7,0.5,0.7c0.3-0.1,0.7-0.6,0.6-1.1c0-0.1,0-0.2-0.1-0.2c-0.1,0-0.2,0-0.3,0c-0.2-0.3-0.1-0.6,0.3-0.7
					c0.2,0,0.4,0,0.6,0.2c0.2-0.2,0.4-0.5,0.6-0.8C189.4,130.2,189.4,130.4,189.3,130.4z"/>
			</g>
			<g>
				<path class="st3" d="M189.5,130.5c0-0.1,0-0.1-0.1-0.1c0,0-0.1,0-0.1,0.1c-0.1,0-0.2-0.2-0.1-0.3c0.2-0.2,0.4-0.4,0.6-0.4
					c0.2-0.1,0.4,0,0.4,0.3c0,0.7,0,1.1,0,1.8c0,0.3,0.1,0.3,0.3,0.3c0.2-0.1,0.4-0.2,0.5-0.5c0-0.7,0-1.1,0-1.8
					c0-0.3,0.2-0.5,0.4-0.5c0.1,0,0.2,0,0.3,0c0,0.8,0.1,1.2,0.1,2.1c0,0.4,0.1,0.4,0.3,0.4c0.2-0.1,0.5-0.3,0.6-0.5
					c0.1,0,0.1,0.1,0.2,0.1c0,0,0,0.1,0,0.1c-0.2,0.4-0.6,0.8-1,0.9c-0.3,0.1-0.7,0-0.8-0.5c-0.2,0.5-0.4,0.8-0.8,0.9
					c-0.7,0.2-0.9-0.5-0.9-1C189.5,131.3,189.5,131,189.5,130.5z"/>
			</g>
			<g>
				<path class="st3" d="M193.3,129.4c0.1-0.6,0.3-0.8,0.6-0.9c0.3-0.1,0.5,0.1,0.6,0.3c0.1,0.3,0,0.6-0.3,0.7c-0.1,0-0.1,0-0.2,0
					c0,0,0-0.1,0-0.2c0-0.1-0.1-0.1-0.2-0.1c-0.2,0.1-0.4,0.4-0.3,1.9c0,0.2,0,0.2,0,0.4c0,0.3-0.2,0.5-0.4,0.5c-0.1,0-0.2,0-0.3,0
					c0-1-0.1-1.5-0.1-2.4c0-0.1,0-0.1-0.1-0.1c0,0-0.1,0-0.1,0.1c-0.1,0-0.2-0.2-0.1-0.3c0.2-0.2,0.3-0.4,0.6-0.5
					c0.2-0.1,0.4,0,0.4,0.2C193.3,129.2,193.3,129.3,193.3,129.4z"/>
			</g>
		</g>
	</g>
	<g>
		<g>
			<path class="st1" d="M118.8,42.1c1.2,0,2.3,0,3.5,0.1c4.4,0.2,8.3,0.5,11.9,0.9c10.1,1.2,20.5,3.1,30.7,5.7
				c6.1,1.5,11.6,4.1,15.7,6.1c12.4,6.2,25.1,12.5,37.3,18.5c3.2,1.6,6.4,3.2,9.6,4.7c1.1,0.5,2,1.3,2.6,2.4
				c1.3,2.1,2.2,4.5,2.5,7.1c0.4,4,0.9,8.2,1.3,12.7c0.3,3.2,0.2,6.8-0.2,10.8c-0.1,1-0.2,2-0.3,3c-0.1,1.6-0.3,3.2-0.5,4.8
				c-0.1,0.5-0.1,1-0.2,1.5c-0.5,4.4-1,8.9-2.1,13.4c-0.9,3.5-2.6,6.8-5.2,9.7c-0.5,0.6-1.2,1.1-2.1,1.5c-0.5,0.2-1,0.4-1.4,0.6
				c0,0,0,0,0,0c-0.3,1.8-0.7,3.8-1.2,5.6c-0.8,3-2,5.6-3.7,7.8c-2.2,2.9-5.1,4.4-8.4,4.4c-0.2,0-0.4,0-0.5,0
				c-3.3-0.2-6-1.6-7.8-4.1c-0.5-0.1-1.1-0.1-1.6-0.1c-1.5,0-3.2,0.3-5,1c-3.3,1.1-6.5,2.9-10,5.6c-0.7,3.1-2.2,5.7-3.4,8l-0.2,0.3
				c-0.5,1-1.1,2-1.8,3c-0.4,0.5-0.5,1.1-0.7,2.3c-0.5,3.8-1.5,6.7-3.2,9.2c-1.8,2.6-4.4,4-7.5,4c-0.1,0-0.2,0-0.3,0
				c-2.5-0.1-5.2-0.2-7.9-1.2c-4.1-1.6-5.4-4.5-5.8-6.7c-0.3-1.6-0.1-3.1,0.1-4.4c-12-0.1-22.9-0.9-33.3-2.4
				c-11.9-1.8-22.9-4.5-33.5-8.3c-0.1,0.2-0.2,0.3-0.3,0.5c-1.4,2-3.1,3.2-5,3.5c-0.5,0.1-1,0.1-1.5,0.1c-0.6,0-1.3-0.1-2-0.2
				c-1.8-0.3-4-0.7-6.1-1.3c-3.3-0.8-5.5-3.3-6.1-6.9c-0.3-1.4-0.3-2.8-0.1-4.4c-2.7-1.3-5.9-3.1-8.9-5.4c-2.4-1.9-4.1-3.7-5.4-5.7
				c-1.4-2.3-2.1-4.6-2-6.8c0.1-1.3,0.4-2.4,0.8-3.4l0.1-0.2c0.6-1.9,1.6-3.5,2.8-4.9c1-1.1,2.2-1.9,3.7-2.4
				c0.5-2.1,1.1-4.3,1.6-6.4c-1.2-2.7-1.8-5.6-1.6-8.9c0.1-1.4,0.3-3.4,1.2-5.5c0.8-1.8,2-3.2,3.4-4.2c-0.5-1.6-0.9-3.5-0.9-5.7
				c0.1-2.9,1.1-5.4,3.1-7.6l0.4-1.4c1-3.8,2.1-7.6,3.1-11.5c0.6-2.4,2-4.1,3.2-5.6c0.2-0.2,0.3-0.4,0.5-0.7
				c2.4-3.2,4.9-6.4,7.3-9.5c3.2-4.2,6.5-8.5,9.8-12.8c0.4-2.5,2-4.3,4.4-5.1c0.4-0.1,0.8-0.3,1.2-0.5c0.3-0.1,0.6-0.3,0.9-0.4
				c3.7-1.7,7.8-2.8,12.6-3.6C110.2,42.5,114.4,42.1,118.8,42.1 M118.8,39.1c-4.5,0-8.9,0.3-13.1,1c-5,0.8-9.4,2.1-13.4,3.8
				c-0.3,0.2-0.7,0.3-1,0.5c-0.3,0.1-0.7,0.3-0.8,0.4c-3.2,1-5.5,3.4-6.3,6.6c-3.1,4-6.2,8.1-9.2,12l-0.2,0.2l-0.1,0.1
				c-2.4,3.2-4.8,6.3-7.2,9.5c-0.2,0.2-0.3,0.4-0.5,0.6c-1.3,1.7-2.9,3.8-3.7,6.7c-1,3.8-2.1,7.7-3.1,11.4l-0.2,0.7
				c-2.1,2.6-3.3,5.6-3.4,9c0,1.5,0.1,3,0.5,4.7c-1.1,1.1-2,2.5-2.7,4c-1.1,2.5-1.4,4.9-1.5,6.5c-0.2,3.4,0.3,6.5,1.4,9.3
				c-0.3,1.3-0.7,2.7-1,4c-1.2,0.7-2.3,1.5-3.3,2.5c-1.5,1.7-2.7,3.7-3.5,6l-0.1,0.2c-0.4,1.1-0.8,2.5-0.9,4.2
				c-0.1,2.9,0.6,5.6,2.4,8.5c1.5,2.4,3.4,4.5,6.1,6.6c2.2,1.7,4.6,3.2,7.6,4.8c0,1.1,0.1,2.1,0.3,3.2c0.9,4.7,3.9,8.1,8.3,9.2
				c2.3,0.6,4.5,1,6.4,1.3c0.9,0.2,1.7,0.2,2.5,0.2c0.7,0,1.4-0.1,2-0.2c2.3-0.4,4.3-1.5,6-3.4c10.1,3.5,20.6,6,32,7.7
				c9.7,1.4,19.7,2.2,30.5,2.4c0,0.6,0.1,1.3,0.2,2c0.8,4.2,3.5,7.3,7.7,9c3.1,1.2,6.1,1.4,8.8,1.4c0.1,0,0.3,0,0.4,0
				c4.1,0,7.6-1.9,10-5.3c2-2.9,3.2-6.2,3.7-10.6c0.1-0.7,0.2-0.9,0.2-0.9c0.8-1.1,1.4-2.3,2-3.3l0.2-0.3c1.2-2.2,2.6-4.7,3.4-7.7
				c2.9-2.2,5.6-3.6,8.3-4.6c1.5-0.5,2.8-0.8,4-0.8c0,0,0.1,0,0.1,0c2.3,2.6,5.5,4,9.2,4.2c0.2,0,0.5,0,0.7,0c4.2,0,8-1.9,10.8-5.5
				c1.9-2.5,3.4-5.5,4.2-8.9c0.4-1.5,0.7-2.9,0.9-4.3c0,0,0,0,0.1,0c1.2-0.6,2.2-1.3,3-2.2c2.9-3.3,4.8-7,5.8-11
				c1.2-4.7,1.7-9.3,2.2-13.8l0.2-1.5c0.2-1.6,0.3-3.3,0.5-4.9c0.1-1,0.2-2,0.3-3c0.4-4.2,0.5-7.9,0.2-11.3
				c-0.4-4.5-0.8-8.7-1.3-12.7c-0.3-3.1-1.3-5.9-2.9-8.4c-0.9-1.5-2.2-2.7-3.8-3.5l-9.2-4.6l-0.4-0.2C207,64.7,194.4,58.5,182,52.3
				c-4.3-2.1-10-4.8-16.3-6.4c-10.4-2.6-20.9-4.5-31.1-5.8c-3.7-0.5-7.7-0.8-12.1-0.9C121.2,39.1,120,39.1,118.8,39.1L118.8,39.1z"
				/>
		</g>
	</g>
</g>
</svg>
