<svg width="1024" height="640" xmlns="http://www.w3.org/2000/svg" style="background:#FFF"><path d="M166.003 200c-5.525 0-10.003 4.481-10.003 10.003v219.993c0 5.525 4.481 10.004 10.003 10.004h99.993c5.525 0 10.004-4.481 10.004-10.004v-219.993c0-5.525-4.481-10.003-10.004-10.003h-99.993zm0 0" fill="#090"/><path d="M356.004 200c-5.525 0-10.004 4.481-10.004 10.003v219.993c0 5.525 4.481 10.004 10.004 10.004h99.992c5.525 0 10.004-4.481 10.004-10.004v-219.993c0-5.525-4.481-10.003-10.004-10.003h-99.992zm0 0" fill="#0175A7"/><path d="M566.004 200c-5.525 0-10.004 4.481-10.004 10.003v219.993c0 5.525 4.481 10.004 10.004 10.004h99.992c5.525 0 10.004-4.481 10.004-10.004v-219.993c0-5.525-4.481-10.003-10.004-10.003h-99.992zm0 0" fill="#0175A7"/><path d="M756.004 200c-5.525 0-10.004 4.481-10.004 10.003v219.993c0 5.525 4.481 10.004 10.004 10.004h109.992c5.525 0 10.004-4.481 10.004-10.004v-219.993c0-5.525-4.481-10.003-10.004-10.003h-109.992zm0 0" fill="#c00"/><g fill="#888"><path d="M497 56v30h30v-30h-30zm0 0" id="Rectangle"/><path d="M497 106v30h30v-30h-30zm0 0" id="Rectangle"/><path d="M497 156v30h30v-30h-30zm0 0" id="Rectangle"/><path d="M497 206v30h30v-30h-30zm0 0" id="Rectangle"/><path d="M497 256v30h30v-30h-30zm0 0" id="Rectangle"/><path d="M497 356v30h30v-30h-30zm0 0" id="Rectangle"/><path d="M497 406v30h30v-30h-30zm0 0" id="Rectangle"/><path d="M497 456v30h30v-30h-30zm0 0" id="Rectangle"/><path d="M497 506v30h30v-30h-30zm0 0" id="Rectangle"/><path d="M497 556v30h30v-30h-30zm0 0" id="Rectangle"/></g><path d="M122.5 286v70h778v-70h-778zm0 0" fill="#fff"/><path d="M47 336v-30h890.092l-27.592-32h36.473l40.527 47-41.202 47h-35.798l27.592-32h-890.092zm0 0" fill="#888"/></svg>