<svg width="1024" height="640" xmlns="http://www.w3.org/2000/svg" style="background:#FFF"><g fill="#888"><path d="M297.115 305v30h30v-30h-30zm0 0" id="Rectangle"/><path d="M247.115 305v30h30v-30h-30zm0 0" id="Rectangle"/><path d="M347.115 305v30h30v-30h-30zm0 0" id="Rectangle"/><path d="M397.115 305v30h30v-30h-30zm0 0" id="Rectangle"/><path d="M447.115 305v30h30v-30h-30zm0 0" id="Rectangle"/><path d="M547.115 305v30h30v-30h-30zm0 0" id="Rectangle"/><path d="M597.115 305v30h30v-30h-30zm0 0" id="Rectangle"/><path d="M647.115 305v30h30v-30h-30zm0 0" id="Rectangle"/><path d="M697.115 305v30h30v-30h-30zm0 0" id="Rectangle"/><path d="M747.115 305v30h30v-30h-30zm0 0" id="Rectangle"/></g><path d="M497.115 136v369.092h30v-369.092h-30zm0 0" fill="#888"/><path d="M492.316 594.77l-16.968-16.972 19.797-19.798-19.799-19.799 16.97-16.971 19.799 19.799 19.799-19.799 16.971 16.971-19.799 19.799 19.799 19.799-16.971 16.971-19.799-19.799-19.799 19.799zm0 0" fill="#c00"/><path d="M512.115 120c19.33 0 35-15.67 35-35s-15.67-35-35-35-35 15.67-35 35 15.67 35 35 35zm0 0" fill="#090"/></svg>