<svg xmlns="http://www.w3.org/2000/svg" width="1024" height="640" style="background:#FFF"><path fill="#090" d="M166.003 200c-5.525 0-10.003 4.481-10.003 10.003v219.993c0 5.525 4.481 10.004 10.003 10.004h99.993c5.525 0 10.004-4.481 10.004-10.004v-219.993c0-5.525-4.481-10.003-10.004-10.003h-99.993z"/><path fill="#0175A7" d="M356.004 200c-5.525 0-10.004 4.481-10.004 10.003v219.993c0 5.525 4.481 10.004 10.004 10.004h99.992c5.525 0 10.004-4.481 10.004-10.004v-219.993c0-5.525-4.481-10.003-10.004-10.003h-99.992z"/><path fill="#0175A7" d="M566.004 200c-5.525 0-10.004 4.481-10.004 10.003v219.993c0 5.525 4.481 10.004 10.004 10.004h99.992c5.525 0 10.004-4.481 10.004-10.004v-219.993c0-5.525-4.481-10.003-10.004-10.003h-99.992z"/><path fill="#c00" d="M756.004 200c-5.525 0-10.004 4.481-10.004 10.003v219.993c0 5.525 4.481 10.004 10.004 10.004h109.992c5.525 0 10.004-4.481 10.004-10.004v-219.993c0-5.525-4.481-10.003-10.004-10.003h-109.992z"/></svg>