<svg width="1024" height="640" xmlns="http://www.w3.org/2000/svg" style="background:#FFF"><g fill="#888"><path d="M497 106v30h30v-30h-30zm0 0"/><path d="M497 56v30h30v-30h-30zm0 0"/><path d="M497 156v30h30v-30h-30zm0 0"/><path d="M497 206v30h30v-30h-30zm0 0"/><path d="M497 256v30h30v-30h-30zm0 0"/><path d="M497 356v30h30v-30h-30zm0 0"/><path d="M497 406v30h30v-30h-30zm0 0"/><path d="M497 456v30h30v-30h-30zm0 0"/><path d="M497 506v30h30v-30h-30zm0 0"/><path d="M497 556v30h30v-30h-30zm0 0"/></g><path d="M137 306v30h740.092v-30h-740.092zm0 0" fill="#888"/><path d="M966.77 301.201l-16.972-16.969-19.798 19.798-19.799-19.8-16.971 16.971 19.799 19.799-19.799 19.799 16.971 16.971 19.799-19.799 19.799 19.799 16.971-16.971-19.799-19.799 19.799-19.799zm0 0" fill="#c00"/><path d="M86 356c19.33 0 35-15.67 35-35s-15.67-35-35-35-35 15.67-35 35 15.67 35 35 35zm0 0" fill="#090"/></svg>