<svg width="1024" height="640" xmlns="http://www.w3.org/2000/svg" style="background:#FFF"><path d="M642 124.234c0-5.101-4.481-9.234-10.004-9.234h-239.992c-5.525 0-10.004 4.137-10.004 9.234v31.531c0 5.101 4.481 9.234 10.004 9.234h239.992c5.525 0 10.004-4.137 10.004-9.234v-31.531zm0 0" fill="#090"/><path d="M642 244.234c0-5.101-4.481-9.234-10.004-9.234h-239.992c-5.525 0-10.004 4.137-10.004 9.234v31.531c0 5.101 4.481 9.234 10.004 9.234h239.992c5.525 0 10.004-4.137 10.004-9.234v-31.531zm0 0" fill="#0175A7"/><path d="M642 364.234c0-5.101-4.481-9.234-10.004-9.234h-239.992c-5.525 0-10.004 4.137-10.004 9.234v31.531c0 5.101 4.481 9.234 10.004 9.234h239.992c5.525 0 10.004-4.137 10.004-9.234v-31.531zm0 0" fill="#0175A7"/><path d="M642 484.234c0-5.101-4.481-9.234-10.004-9.234h-239.992c-5.525 0-10.004 4.137-10.004 9.234v31.531c0 5.101 4.481 9.234 10.004 9.234h239.992c5.525 0 10.004-4.137 10.004-9.234v-31.531zm0 0" fill="#c00"/><g fill="#888"><path d="M447.25 305v30h30v-30h-30zm0 0" id="Rectangle"/><path d="M247.25 305v30h30v-30h-30zm0 0" id="Rectangle"/><path d="M297.25 305v30h30v-30h-30zm0 0" id="Rectangle"/><path d="M347.25 305v30h30v-30h-30zm0 0" id="Rectangle"/><path d="M397.25 305v30h30v-30h-30zm0 0" id="Rectangle"/><path d="M547.25 305v30h30v-30h-30zm0 0" id="Rectangle"/><path d="M597.25 305v30h30v-30h-30zm0 0" id="Rectangle"/><path d="M647.25 305v30h30v-30h-30zm0 0" id="Rectangle"/><path d="M697.25 305v30h30v-30h-30zm0 0" id="Rectangle"/><path d="M747.25 305v30h30v-30h-30zm0 0" id="Rectangle"/></g><path d="M477.25 66v470h70v-470h-70zm0 0" fill="#fff"/><path d="M497 30.5h30v539.592l32-27.592v36.473l-47 40.527-47-41.202v-35.798l32 27.592v-539.592zm0 0" fill="#888"/></svg>