<svg xmlns="http://www.w3.org/2000/svg" width="1024" height="640" viewBox="1044 0 1024 640" enable-background="new 1044 0 1024 640" style="background:#FFF"><path fill="#090" d="M1686 124.234c0-5.101-4.481-9.234-10.004-9.234h-239.992c-5.525 0-10.004 4.137-10.004 9.234v31.531c0 5.101 4.481 9.234 10.004 9.234h239.992c5.525 0 10.004-4.137 10.004-9.234v-31.531z"/><path fill="#0175A7" d="M1686 244.234c0-5.101-4.481-9.234-10.004-9.234h-239.992c-5.525 0-10.004 4.137-10.004 9.234v31.531c0 5.101 4.481 9.234 10.004 9.234h239.992c5.525 0 10.004-4.137 10.004-9.234v-31.531z"/><path fill="#0175A7" d="M1686 364.234c0-5.101-4.481-9.234-10.004-9.234h-239.992c-5.525 0-10.004 4.137-10.004 9.234v31.531c0 5.101 4.481 9.234 10.004 9.234h239.992c5.525 0 10.004-4.137 10.004-9.234v-31.531z"/><path fill="#c00" d="M1686 484.234c0-5.101-4.481-9.234-10.004-9.234h-239.992c-5.525 0-10.004 4.137-10.004 9.234v31.531c0 5.101 4.481 9.234 10.004 9.234h239.992c5.525 0 10.004-4.137 10.004-9.234v-31.531z"/></svg>