<svg width="50" height="73" xmlns="http://www.w3.org/2000/svg"><path d="M-179.5 36.5c0-5.667.5-10.75 1.5-15.25s2.5-8.3 4.5-11.4c2-3.1 4.533-5.467 7.6-7.1 3.067-1.633 6.7-2.45 10.9-2.45 4.467 0 8.25.8 11.35 2.4 3.1 1.6 5.617 3.933 7.55 7 1.933 3.067 3.333 6.85 4.2 11.35s1.3 9.65 1.3 15.45c0 5.667-.5 10.75-1.5 15.25s-2.5 8.3-4.5 11.4c-2 3.1-4.533 5.467-7.6 7.1-3.067 1.633-6.7 2.45-10.9 2.45-4.4 0-8.15-.883-11.25-2.65-3.1-1.767-5.633-4.25-7.6-7.45-1.967-3.2-3.383-7.017-4.25-11.45-.867-4.433-1.3-9.317-1.3-14.65zm40.7 0c0-3.533-.2-6.9-.6-10.1l-29.7 27.1c1.133 3.8 2.833 6.833 5.1 9.1 2.267 2.267 5.233 3.4 8.9 3.4 5.867 0 10.05-2.433 12.55-7.3s3.75-12.267 3.75-22.2zm-32.4 0c0 1.667.05 3.267.15 4.8.1 1.533.217 3.033.35 4.5l29.8-27c-1.133-3.6-2.817-6.467-5.05-8.6-2.233-2.133-5.25-3.2-9.05-3.2-5.933 0-10.117 2.45-12.55 7.35-2.433 4.9-3.65 12.283-3.65 22.15zm58.9 27.8h15.7v-52.6l-16 11.2-3.9-5.7 22-15.7h5.6v62.8h15.4v7.2h-38.8zm97.3-45.1c0 6.133-2.9 12.967-8.7 20.5-5.8 7.533-13.9 15.733-24.3 24.6h35.2v7.2h-44.4v-7.2c1.267-1.2 3-2.767 5.2-4.7 2.2-1.933 4.567-4.083 7.1-6.45 2.533-2.367 5.117-4.917 7.75-7.65 2.633-2.733 5.017-5.533 7.15-8.4s3.867-5.733 5.2-8.6c1.333-2.867 2-5.633 2-8.3 0-4-1.05-7.15-3.15-9.45-2.1-2.3-5.25-3.45-9.45-3.45-3.6 0-6.633.4-9.1 1.2-2.467.8-4.7 1.967-6.7 3.5l-3.4-5.5c3-2.133 6.183-3.7 9.55-4.7 3.367-1 7.05-1.5 11.05-1.5 6.267 0 11 1.7 14.2 5.1 3.2 3.4 4.8 8 4.8 13.8zm34.8 46.6c2.667 0 5.117-.35 7.35-1.05 2.233-.7 4.183-1.683 5.85-2.95 1.667-1.267 2.967-2.8 3.9-4.6.933-1.8 1.4-3.8 1.4-6 0-4.6-1.617-7.883-4.85-9.85-3.233-1.967-7.583-2.95-13.05-2.95h-6.4v-4.8l19.7-24.9h-29.9v-7.2h39.5v7.2l-19.7 23.1h1.6c3.067 0 5.867.433 8.4 1.3 2.533.867 4.733 2.1 6.6 3.7s3.317 3.533 4.35 5.8c1.033 2.267 1.55 4.833 1.55 7.7 0 3.6-.7 6.8-2.1 9.6-1.4 2.8-3.3 5.15-5.7 7.05-2.4 1.9-5.217 3.333-8.45 4.3-3.233.967-6.683 1.45-10.35 1.45-3.4 0-6.35-.25-8.85-.75s-4.783-1.117-6.85-1.85l2-7c1.733.8 3.767 1.45 6.1 1.95 2.333.5 4.967.75 7.9.75zm93.2-16.1h-13.5v21.8h-7.8v-21.8h-32.3v-5.8l33.5-42.4h6.6v41.6h13.5zm-21.3-35.7l-23.1 29.1h23.1zm0 0" fill="#FFF"/></svg>